<svg xmlns="http://www.w3.org/2000/svg" xmlns:xlink="http://www.w3.org/1999/xlink" viewBox="0 0 1326 537"><defs><style>.cls-1{fill:none;}.cls-2{isolation:isolate;}.cls-3{clip-path:url(#clip-path);}.cls-4{fill:url(#Gradiente_sem_nome_19);}.cls-5{opacity:0.3;mix-blend-mode:multiply;}</style><clipPath id="clip-path"><rect class="cls-1" y="0.03" width="1326" height="536.97"/></clipPath><linearGradient id="Gradiente_sem_nome_19" x1="663" y1="536.75" x2="663" y2="0.03" gradientUnits="userSpaceOnUse"><stop offset="0"/><stop offset="0.01" stop-color="#0e0303"/><stop offset="0.02" stop-color="#290809"/><stop offset="0.04" stop-color="#3f0c0d"/><stop offset="0.06" stop-color="#500f11"/><stop offset="0.09" stop-color="#5b1113"/><stop offset="0.12" stop-color="#621315"/><stop offset="0.22" stop-color="#641315"/><stop offset="0.63" stop-color="#2d090a"/><stop offset="1"/></linearGradient></defs><g class="cls-2"><g id="Camada_1" data-name="Camada 1"><g class="cls-3"><rect class="cls-4" y="0.03" width="1326" height="536.72"/><g class="cls-5"><path d="M1326,139.88V931.5H1200.75c4.46-12.6,8.66-25.11,12.5-37.34,5.39-17.26,10.35-34.88,14.7-52.37,4.41-17.72,8.32-35.77,11.62-53.65,3.33-18.09,6.11-36.42,8.24-54.49,2.17-18.25,3.74-36.73,4.67-54.89.94-18.32,1.25-36.76.94-54.8s-1.28-36.41-2.87-54.27-3.82-35.81-6.66-53.26-6.36-34.92-10.42-51.8-8.79-33.68-14-49.92-11.11-32.22-17.46-47.6-13.27-30.51-20.63-45-15.22-28.53-23.5-42-17-26.41-26-38.77-18.48-24.13-28.21-35.32-19.72-21.76-30-31.74-20.68-19.31-31.33-28.08-21.38-16.87-32.25-24.39-21.76-14.41-32.79-20.77c-10.82-6.23-21.89-12-32.89-17.21-10.81-5.1-21.8-9.75-32.65-13.83-10.6-4-21.39-7.57-32-10.64-10.36-3-20.82-5.58-31.08-7.7-10-2.07-20-3.76-29.84-5s-19.47-2.18-28.34-2.6a429.1,429.1,0,0,0-51.36.47A381,381,0,0,0,695.8,50.1c-12.14,2.3-23.69,5-34.37,8.1-4.61,1.32-9,2.65-13,4a206,206,0,0,0-131.26,59.65c3.91-6.31,7.94-12.43,11.57-17.77v0c2.25-3.16,4.6-6.33,7-9.51A386.26,386.26,0,0,1,564.05,61.4a428.24,428.24,0,0,1,37.76-34.73c6.87-5.65,14.53-11.38,22.72-17.05S641.23-1.46,650-6.61c9-5.27,18.46-10.36,28.18-15.1,9.92-4.83,20.29-9.39,30.86-13.54,10.79-4.25,22.05-8.15,33.44-11.59,11.66-3.52,23.74-6.63,35.92-9.25,12.4-2.67,25.25-4.87,38.2-6.53,13.11-1.71,26.65-2.88,40.23-3.5,13.74-.63,27.88-.67,42-.13s28.87,1.73,43.46,3.5,29.69,4.27,44.56,7.34,30.21,6.92,45.25,11.35,30.46,9.65,45.52,15.44S1108.09-16.21,1123-9s30.11,15.16,44.81,23.67,29.46,17.83,43.79,27.68,28.59,20.42,42.38,31.49,27.41,22.85,40.57,35.09C1305.25,118.82,1315.79,129.21,1326,139.88Z"/><path d="M1326-233.9V96.77c-11.25-10.64-22.86-21-34.56-30.76-13.77-11.53-28-22.62-42.38-32.94s-29.18-20.2-44-29.26-30-17.6-45.22-25.37-30.65-14.93-46-21.33-30.95-12.18-46.38-17.2-30.94-9.41-46.31-13.08-30.68-6.66-45.82-9-30.14-4-44.93-5c-14.64-1-29.33-1.45-43.64-1.25-14.13.19-28.27,1-42,2.29-13.57,1.33-27,3.19-40.07,5.56-12.82,2.34-25.57,5.2-37.85,8.51-12.06,3.23-24,7-35.44,11.08-11.25,4-22.3,8.52-32.85,13.3-10.33,4.69-20.49,9.78-30.17,15.12C658.94-27.36,649.72-21.81,641-16c-8.5,5.58-16.8,11.48-24.67,17.54S601,13.72,594.42,19.7a430.76,430.76,0,0,0-36,36.64,383.75,383.75,0,0,0-26.67,34.53c-7,10.2-13.19,20.32-18.58,30q-3.42,6.2-6.33,11.87a206.05,206.05,0,0,0-50.75,135c-1.68-7.17-3.15-14.3-4.34-20.59q-1-5.76-1.79-11.72A381.4,381.4,0,0,1,446.6,192a429.08,429.08,0,0,1,2.13-51.25c.87-8.86,2.23-18.33,4-28.14s4-19.64,6.53-29.5c2.63-10.07,5.75-20.37,9.27-30.6,3.59-10.42,7.71-21,12.24-31.39,4.63-10.63,9.83-21.35,15.45-31.85C502-21.43,508.33-32.18,515.1-42.63c6.88-10.65,14.4-21.3,22.38-31.63s16.82-20.88,26-30.93,19.23-20.18,29.62-29.8,21.62-19.19,33.2-28.26,24-18,36.7-26.31,26.25-16.47,40-24,28.37-14.72,43.12-21.28,30.29-12.74,45.92-18.25,32-10.56,48.42-14.94,33.44-8.22,50.53-11.39,34.66-5.77,52.24-7.69,35.55-3.24,53.5-3.88,36.19-.65,54.31,0,36.48,1.91,54.66,3.81,36.41,4.42,54.54,7.55c18,3.09,36.13,6.82,54,11.09s35.51,9.08,52.94,14.41c17.21,5.27,34.55,11.14,51.51,17.45C1321.08-235.77,1323.54-234.84,1326-233.9Z"/><path d="M1326-394.5v125.25c-12.59-4.46-25.09-8.66-37.34-12.5-17.25-5.4-34.87-10.35-52.37-14.7-17.72-4.41-35.77-8.32-53.64-11.62-18.09-3.33-36.42-6.11-54.49-8.25-18.26-2.16-36.73-3.73-54.88-4.66-18.34-.94-36.78-1.26-54.81-.94s-36.42,1.28-54.28,2.86-35.81,3.83-53.25,6.67S876-306,859.13-302s-33.67,8.79-49.91,14S777-276.82,761.61-270.47s-30.5,13.27-45,20.63-28.52,15.22-42,23.5-26.41,17-38.75,26-24.14,18.48-35.33,28.21-21.77,19.72-31.75,30-19.31,20.68-28.08,31.32-16.86,21.39-24.39,32.26S502-56.78,495.6-45.76c-6.24,10.83-12,21.9-17.22,32.9-5.1,10.81-9.75,21.8-13.83,32.64-4,10.61-7.57,21.4-10.64,32-3,10.36-5.58,20.82-7.7,31.07-2.06,10-3.75,20-5,29.85s-2.16,19.47-2.6,28.34a433.35,433.35,0,0,0,.47,51.36,378.7,378.7,0,0,0,5.57,43.28c2.29,12.13,5,23.69,8.09,34.37q1.94,6.75,3.89,12.75a206.07,206.07,0,0,0,59.6,131.47c-6.19-3.83-12.19-7.79-17.45-11.36l-.19-.12q-4.74-3.39-9.53-7a382.3,382.3,0,0,1-33.11-28.33,429.54,429.54,0,0,1-34.73-37.76c-5.64-6.87-11.38-14.53-17.06-22.72s-11.07-16.7-16.23-25.5c-5.27-9-10.34-18.45-15.09-28.17-4.83-9.92-9.39-20.3-13.54-30.86-4.25-10.8-8.16-22.05-11.59-33.44-3.53-11.66-6.64-23.75-9.25-35.92-2.67-12.4-4.88-25.25-6.54-38.2-1.69-13.11-2.88-26.65-3.5-40.24s-.66-27.87-.12-42S330,3.76,331.75-10.83,336-40.54,339.1-55.39,346-85.6,350.44-100.64s9.65-30.46,15.44-45.52,12.42-30.43,19.58-45.38,15.16-30.1,23.67-44.8S427-265.8,436.8-280.13s20.43-28.59,31.49-42.38,22.86-27.41,35.09-40.57c9.94-10.67,20.33-21.21,31-31.42Z"/><path d="M1222.46,602.22c.64,17.91.65,36.19,0,54.31s-1.92,36.48-3.81,54.67-4.42,36.41-7.55,54.53-6.82,36.13-11.09,54-9.08,35.51-14.41,52.94c-5.27,17.21-11.14,34.55-17.45,51.51-.9,2.44-1.83,4.9-2.77,7.36H834.71c10.64-11.25,21-22.85,30.78-34.56,11.53-13.77,22.61-28,32.94-42.38s20.2-29.18,29.26-44,17.6-30,25.37-45.22,14.93-30.64,21.33-46,12.18-31,17.2-46.39,9.4-30.94,13.06-46.31,6.67-30.68,9-45.82,4-30.13,5-44.92,1.43-29.34,1.25-43.64c-.19-14.14-1-28.27-2.3-42-1.32-13.57-3.18-27.05-5.56-40.07-2.33-12.84-5.19-25.58-8.5-37.85-3.23-12.07-7-24-11.08-35.44-4-11.25-8.52-22.3-13.3-32.85-4.69-10.33-9.78-20.49-15.12-30.17-5.22-9.45-10.79-18.67-16.53-27.42C942,238,936.07,229.67,930,221.79s-12.23-15.29-18.21-21.87a432.45,432.45,0,0,0-36.64-36,385.43,385.43,0,0,0-34.53-26.66c-10.21-7-20.32-13.21-30-18.59q-6.37-3.53-12.22-6.51a206,206,0,0,0-135-50.49c7.25-1.69,14.46-3.18,20.82-4.39a.7.7,0,0,1,.14,0q5.76-1,11.72-1.78a381.35,381.35,0,0,1,43.45-3.38,429.17,429.17,0,0,1,51.25,2.14c8.86.87,18.33,2.22,28.13,4s19.65,4,29.5,6.54C858.43,67.4,868.73,70.52,879,74c10.42,3.59,21,7.71,31.39,12.25,10.63,4.63,21.35,9.82,31.85,15.44,10.73,5.76,21.47,12.1,31.92,18.85,10.66,6.89,21.3,14.42,31.64,22.39s20.88,16.82,30.93,26,20.18,19.24,29.79,29.62,19.2,21.63,28.27,33.21,18,24,26.31,36.69,16.46,26.25,24,40,14.72,28.37,21.28,43.11,12.74,30.3,18.24,45.92,10.57,32,15,48.42,8.21,33.44,11.39,50.53,5.77,34.66,7.69,52.24S1221.81,584.26,1222.46,602.22Z"/><path d="M997.62,462.35c.61,13.74.67,27.88.13,42s-1.73,28.88-3.5,43.46-4.27,29.7-7.35,44.56-6.92,30.21-11.34,45.25-9.65,30.46-15.44,45.52-12.42,30.44-19.57,45.38-15.17,30.11-23.68,44.81-17.82,29.45-27.67,43.79-20.42,28.58-31.49,42.37-22.85,27.42-35.09,40.57c-9.94,10.68-20.33,21.22-31,31.43H0V806.25c12.59,4.46,25.09,8.66,37.34,12.48,17.26,5.41,34.88,10.36,52.37,14.72,17.72,4.41,35.77,8.32,53.64,11.62,18.09,3.32,36.43,6.1,54.49,8.24,18.26,2.17,36.73,3.74,54.9,4.66s36.76,1.26,54.8.94,36.41-1.28,54.27-2.86,35.81-3.83,53.26-6.67S450,843,466.87,839s33.67-8.79,49.91-14,32.23-11.11,47.61-17.45,30.5-13.28,45-20.63,28.53-15.23,42-23.51,26.41-17,38.77-26,24.12-18.48,35.31-28.2,21.77-19.73,31.75-30,19.31-20.68,28.08-31.33,16.87-21.38,24.39-32.25,14.41-21.77,20.77-32.79c6.23-10.82,12-21.89,17.21-32.89,5.1-10.82,9.75-21.81,13.83-32.65,4-10.62,7.57-21.39,10.64-32,3-10.35,5.58-20.82,7.7-31.07,2.06-10,3.76-20,5-29.84s2.18-19.47,2.6-28.34a431.2,431.2,0,0,0-.47-51.36,380.7,380.7,0,0,0-5.56-43.28c-2.3-12.14-5-23.71-8.1-34.38-1.34-4.67-2.69-9.11-4-13.24a206.07,206.07,0,0,0-59.89-131.26c6.37,4,12.57,8,18,11.7l.1.07q4.74,3.38,9.53,7a379.4,379.4,0,0,1,33.11,28.35,427.76,427.76,0,0,1,34.73,37.74c5.64,6.89,11.38,14.53,17.06,22.74s11.08,16.7,16.23,25.49c5.27,9,10.36,18.46,15.1,28.18,4.83,9.92,9.39,20.29,13.53,30.86,4.26,10.79,8.16,22,11.6,33.43,3.52,11.66,6.63,23.75,9.25,35.92,2.66,12.39,4.87,25.25,6.53,38.2C995.83,435.22,997,448.77,997.62,462.35Z"/><path d="M879.4,345a427.32,427.32,0,0,1-2.13,51.27c-.87,8.85-2.23,18.32-4,28.13s-4,19.65-6.53,29.5c-2.63,10.08-5.75,20.38-9.27,30.6-3.58,10.43-7.71,21-12.24,31.39-4.63,10.64-9.83,21.36-15.44,31.85-5.76,10.73-12.1,21.48-18.87,31.93-6.87,10.64-14.4,21.3-22.37,31.64s-16.83,20.88-26,30.92S743.3,662.37,732.91,672s-21.62,19.19-33.2,28.25-24,18-36.7,26.31-26.25,16.48-40,24-28.37,14.72-43.11,21.29-30.3,12.74-45.93,18.24S502,800.61,485.55,805s-33.44,8.22-50.53,11.4-34.67,5.77-52.25,7.69-35.55,3.23-53.5,3.87-36.18.66-54.31,0-36.47-1.91-54.66-3.81-36.41-4.42-54.53-7.54-36.14-6.82-54-11.09-35.51-9.09-52.94-14.42C41.66,785.85,24.32,780,7.36,773.66c-2.44-.9-4.9-1.83-7.36-2.77V440.21c11.25,10.64,22.85,21,34.56,30.77,13.77,11.54,28,22.62,42.38,32.95s29.18,20.19,44,29.26,30,17.6,45.21,25.37,30.65,14.92,46,21.32,31,12.19,46.38,17.2,30.95,9.41,46.32,13.07,30.67,6.67,45.82,9,30.13,4,44.92,5c14.64,1,29.33,1.44,43.64,1.26,14.13-.19,28.27-1,42-2.3,13.57-1.32,27.05-3.19,40.07-5.56,12.82-2.33,25.57-5.2,37.85-8.5,12.06-3.25,24-7,35.44-11.09,11.25-4,22.3-8.52,32.85-13.31,10.33-4.68,20.49-9.76,30.17-15.11,9.44-5.22,18.66-10.78,27.42-16.53,8.49-5.58,16.79-11.48,24.66-17.54s15.3-12.22,21.88-18.2a432.24,432.24,0,0,0,36-36.64,382.44,382.44,0,0,0,26.67-34.54c7-10.2,13.19-20.31,18.58-30q3.51-6.33,6.45-12.11a206,206,0,0,0,50.52-135.26c1.72,7.34,3.23,14.65,4.45,21.09a.11.11,0,0,1,0,.05q1,5.73,1.78,11.67A381.22,381.22,0,0,1,879.4,345Z"/><path d="M809,415c-4,6.37-8,12.55-11.68,17.94a.41.41,0,0,1-.09.12c-2.22,3.12-4.54,6.27-6.92,9.42A386.17,386.17,0,0,1,762,475.59a427.76,427.76,0,0,1-37.74,34.73c-6.89,5.64-14.53,11.38-22.74,17.05s-16.7,11.08-25.49,16.24c-9,5.27-18.46,10.34-28.18,15.09-9.92,4.83-20.29,9.39-30.86,13.54-10.79,4.25-22.05,8.16-33.44,11.59-11.65,3.53-23.74,6.64-35.92,9.25-12.38,2.67-25.25,4.86-38.19,6.54-13.11,1.69-26.66,2.88-40.24,3.5-13.74.61-27.88.66-42,.12s-28.88-1.72-43.47-3.51-29.69-4.25-44.56-7.33-30.2-6.92-45.24-11.34-30.46-9.66-45.53-15.45S217.91,553.2,203,546s-30.11-15.16-44.81-23.67-29.45-17.83-43.79-27.67S85.79,474.27,72,463.2s-27.41-22.85-40.56-35.08c-10.68-9.94-21.22-20.33-31.43-31V-394.5H125.25c-4.46,12.6-8.66,25.11-12.48,37.34-5.41,17.25-10.36,34.87-14.72,52.37-4.41,17.72-8.32,35.76-11.62,53.64-3.32,18.09-6.11,36.42-8.24,54.49-2.17,18.25-3.74,36.73-4.66,54.88-1,18.33-1.26,36.78-1,54.81s1.29,36.41,2.87,54.28,3.83,35.81,6.67,53.25,6.36,34.92,10.41,51.8,8.79,33.68,14,49.92S117.68,154.5,124,169.89s13.28,30.5,20.63,45,15.23,28.52,23.5,42,17,26.4,26,38.75,18.49,24.14,28.21,35.33,19.73,21.76,30,31.75,20.68,19.3,31.33,28.08,21.38,16.86,32.25,24.39,21.77,14.41,32.79,20.76c10.82,6.24,21.89,12,32.89,17.21,10.81,5.11,21.8,9.75,32.65,13.84,10.62,4,21.39,7.57,32,10.63,10.36,3,20.83,5.58,31.08,7.71,9.95,2.06,20,3.75,29.84,5s19.47,2.16,28.34,2.58a429.27,429.27,0,0,0,51.36-.45,381,381,0,0,0,43.28-5.57c12.14-2.29,23.71-5,34.38-8.09,4.54-1.31,8.86-2.62,12.9-3.93A206.12,206.12,0,0,0,809,415Z"/><path d="M662.44,475.38c-7.23,1.68-14.4,3.16-20.74,4.36h-.05q-5.73,1-11.67,1.78a381.22,381.22,0,0,1-43.45,3.37,429.08,429.08,0,0,1-51.25-2.13c-8.86-.87-18.32-2.23-28.13-4s-19.65-4-29.5-6.54c-10.08-2.62-20.38-5.74-30.6-9.26-10.43-3.59-21-7.71-31.39-12.24-10.64-4.64-21.36-9.83-31.85-15.45-10.74-5.75-21.48-12.09-31.93-18.86-10.66-6.88-21.3-14.4-31.64-22.38s-20.88-16.82-30.92-26-20.19-19.24-29.8-29.62-19.19-21.62-28.25-33.2-18-24-26.33-36.7-16.46-26.25-24-40-14.72-28.37-21.29-43.12-12.74-30.3-18.24-45.92-10.56-32-14.94-48.42-8.22-33.44-11.4-50.53-5.77-34.66-7.69-52.24-3.23-35.55-3.88-53.5-.65-36.19,0-54.31,1.91-36.48,3.81-54.66,4.41-36.41,7.54-54.54c3.09-18,6.82-36.13,11.09-54s9.08-35.5,14.42-52.93c5.26-17.21,11.14-34.55,17.45-51.52.9-2.44,1.83-4.9,2.77-7.35H491.28c-10.64,11.25-21,22.85-30.77,34.56-11.53,13.77-22.61,28-32.94,42.38s-20.19,29.17-29.26,44-17.6,30-25.37,45.22-14.93,30.64-21.33,46-12.18,31-17.2,46.38S325-105,321.35-89.65s-6.67,30.68-9,45.82-4,30.14-5,44.92-1.44,29.34-1.26,43.64c.19,14.14,1,28.27,2.3,42,1.32,13.57,3.19,27.05,5.56,40.05,2.33,12.84,5.19,25.59,8.5,37.86,3.25,12.07,7,24,11.09,35.45,4,11.24,8.52,22.3,13.31,32.85,4.67,10.33,9.76,20.48,15.11,30.16,5.21,9.45,10.78,18.67,16.52,27.42C384,299,389.93,307.33,396,315.2s12.23,15.3,18.21,21.88a433.76,433.76,0,0,0,36.64,36,382.44,382.44,0,0,0,34.54,26.67c10.2,6.95,20.31,13.19,30,18.58,4.08,2.26,8,4.35,11.76,6.26A206,206,0,0,0,662.44,475.38Z"/></g></g></g></g></svg>