<svg id="Camada_1" data-name="Camada 1" xmlns="http://www.w3.org/2000/svg" xmlns:xlink="http://www.w3.org/1999/xlink" viewBox="0 0 50 50"><defs><style>.cls-1{fill:#222121;}.cls-2{fill:url(#Gradiente_sem_nome_23);}.cls-3{fill:url(#Gradiente_sem_nome_20);}.cls-4{fill:url(#Gradiente_sem_nome_3);}.cls-5{fill:url(#Gradiente_sem_nome_23-2);}.cls-6{fill:url(#Gradiente_sem_nome_23-3);}.cls-7{fill:url(#Gradiente_sem_nome_24);}.cls-8{fill:#9a989b;}.cls-9{fill:url(#Gradiente_sem_nome_25);}.cls-10{fill:url(#Gradiente_sem_nome_26);}.cls-11{fill:url(#Gradiente_sem_nome_27);}.cls-12{fill:url(#Gradiente_sem_nome_28);}.cls-13{fill:url(#Gradiente_sem_nome_29);}.cls-14{fill:url(#Gradiente_sem_nome_30);}.cls-15{fill:url(#Gradiente_sem_nome_31);}.cls-16{fill:#1e1f1d;}.cls-17{fill:#cb3817;}.cls-18{fill:#1d1d1b;}.cls-19{fill:#fff;}</style><linearGradient id="Gradiente_sem_nome_23" x1="23.43" y1="48.88" x2="30.05" y2="48.88" gradientTransform="matrix(1, 0, 0, -1, 0, 52)" gradientUnits="userSpaceOnUse"><stop offset="0" stop-color="#5c5c5f"/><stop offset="1" stop-color="#353434"/></linearGradient><linearGradient id="Gradiente_sem_nome_20" x1="23.43" y1="50.92" x2="25.16" y2="50.92" gradientTransform="matrix(1, 0, 0, -1, 0, 52)" gradientUnits="userSpaceOnUse"><stop offset="0.01" stop-color="#6a686b"/><stop offset="0.57" stop-color="#a8a6a8"/><stop offset="0.99" stop-color="#fff"/></linearGradient><linearGradient id="Gradiente_sem_nome_3" x1="23.43" y1="49.38" x2="30.31" y2="49.38" gradientTransform="matrix(1, 0, 0, -1, 0, 52)" gradientUnits="userSpaceOnUse"><stop offset="0.03" stop-color="#fff"/><stop offset="0.5" stop-color="#a8a6a8"/><stop offset="1" stop-color="#7b7a7f"/></linearGradient><linearGradient id="Gradiente_sem_nome_23-2" x1="5.46" y1="13.32" x2="8.22" y2="13.32" xlink:href="#Gradiente_sem_nome_23"/><linearGradient id="Gradiente_sem_nome_23-3" x1="42.03" y1="45.81" x2="47.8" y2="51.01" xlink:href="#Gradiente_sem_nome_23"/><linearGradient id="Gradiente_sem_nome_24" x1="25.02" y1="51.21" x2="46.77" y2="51.21" gradientTransform="matrix(1, 0, 0, -1, 0, 52)" gradientUnits="userSpaceOnUse"><stop offset="0.04" stop-color="#fff"/><stop offset="0.26" stop-color="#a8a6a8"/><stop offset="1" stop-color="#7b7a7f"/></linearGradient><linearGradient id="Gradiente_sem_nome_25" x1="46.61" y1="50.89" x2="48.23" y2="50.89" gradientTransform="matrix(1, 0, 0, -1, 0, 52)" gradientUnits="userSpaceOnUse"><stop offset="0.03" stop-color="#fff"/><stop offset="0.38" stop-color="#a8a6a8"/><stop offset="0.99" stop-color="#6a686b"/></linearGradient><linearGradient id="Gradiente_sem_nome_26" x1="39.58" y1="49.33" x2="48.23" y2="49.33" gradientTransform="matrix(1, 0, 0, -1, 0, 52)" gradientUnits="userSpaceOnUse"><stop offset="0.01" stop-color="#535356"/><stop offset="1" stop-color="#a8a6a8"/></linearGradient><linearGradient id="Gradiente_sem_nome_27" x1="4.18" y1="18.72" x2="15.1" y2="8.54" gradientTransform="matrix(1, 0, 0, -1, 0, 52)" gradientUnits="userSpaceOnUse"><stop offset="0" stop-color="#a8a6a8"/><stop offset="0.2" stop-color="#eaeaea"/><stop offset="0.22" stop-color="#d8d5d7"/><stop offset="0.24" stop-color="#c6c1c7"/><stop offset="0.44" stop-color="#818183"/><stop offset="1" stop-color="#7b7a7f"/></linearGradient><linearGradient id="Gradiente_sem_nome_28" x1="17.23" y1="29.72" x2="30.31" y2="29.72" gradientTransform="matrix(1, 0, 0, -1, 0, 52)" gradientUnits="userSpaceOnUse"><stop offset="0.01" stop-color="#535356"/><stop offset="0.87" stop-color="#a8a6a8"/><stop offset="0.96" stop-color="#a8a6a8"/></linearGradient><linearGradient id="Gradiente_sem_nome_29" x1="5.85" y1="3.05" x2="48.19" y2="38.58" gradientTransform="matrix(1, 0, 0, -1, 0, 52)" gradientUnits="userSpaceOnUse"><stop offset="0" stop-color="#a8a6a8"/><stop offset="0.09" stop-color="#5f5e62"/><stop offset="0.28" stop-color="#cac9ca"/><stop offset="0.3" stop-color="#d8d8d8"/><stop offset="0.4" stop-color="#78767a"/><stop offset="0.86" stop-color="#78767a"/><stop offset="0.95" stop-color="#535353"/><stop offset="0.99" stop-color="#3e3c3c"/></linearGradient><linearGradient id="Gradiente_sem_nome_30" x1="0.64" y1="27.94" x2="46.96" y2="27.94" gradientTransform="matrix(1, 0, 0, -1, 0, 52)" gradientUnits="userSpaceOnUse"><stop offset="0.09" stop-color="#d2d5e3"/><stop offset="0.32" stop-color="#aeb6c9"/><stop offset="0.7" stop-color="#818196"/><stop offset="0.99" stop-color="#5d5e68"/></linearGradient><linearGradient id="Gradiente_sem_nome_31" x1="5.44" y1="3.66" x2="46.07" y2="41.55" gradientTransform="matrix(1, 0, 0, -1, 0, 52)" gradientUnits="userSpaceOnUse"><stop offset="0" stop-color="#a8a6a8"/><stop offset="0.32" stop-color="#fff"/><stop offset="0.34" stop-color="#bbb6bd"/><stop offset="0.99" stop-color="#535356"/></linearGradient></defs><path class="cls-1" d="M29.86,5.25l-.18,0-5.09-2a.49.49,0,0,1-.16-.1L23.11,1.75a.45.45,0,0,1,0-.57A.44.44,0,0,1,23.61,1l6.46,2.58.08,0,.17.11a.43.43,0,0,1,.19.51l-.2.69a.43.43,0,0,1-.24.27A.38.38,0,0,1,29.86,5.25Z"/><path class="cls-1" d="M23.43,1.88A.46.46,0,0,1,23.26,1L25,.3a.45.45,0,0,1,.5.73l-.13.15a.46.46,0,0,1-.16.11l-.62.26h0l-1,.31Z"/><path class="cls-1" d="M30.05,4.57a.51.51,0,0,1-.24-.07l-.13-.08L23.27,1.87A.46.46,0,0,1,23,1.43.42.42,0,0,1,23.31,1l1-.3a.37.37,0,0,1,.31,0L30,2.92l.08.05.44.3a.46.46,0,0,1,.16.58l-.25.51a.49.49,0,0,1-.29.24A.21.21,0,0,0,30.05,4.57Z"/><path class="cls-1" d="M8.22,41.09a.74.74,0,0,1-.4-.16l-.05,0-.83-.85,0,0a8.6,8.6,0,0,1-1.26-2s0,0,0,0A2.59,2.59,0,0,0,5.13,37h0a.45.45,0,1,1,.64-.64h0l1.31,1.33A3.16,3.16,0,0,1,7.79,39a7.71,7.71,0,0,0,.75,1.34.5.5,0,0,1,0,.67A.6.6,0,0,1,8.22,41.09Z"/><path class="cls-1" d="M41.59,6a.48.48,0,0,1-.32-.13L40,4.57a.54.54,0,0,1-.13-.4.45.45,0,0,1,.26-.34l.37-.17a0,0,0,0,1,0,0l7.6-2.45a.47.47,0,0,1,.46.12l1.31,1.32a.43.43,0,0,1,.11.43.4.4,0,0,1-.3.32L42.12,5.83,41.77,6A.52.52,0,0,1,41.59,6Zm-.53-1.63.61.62.08,0a.06.06,0,0,1,0,0l6.89-2.22-.61-.61Z"/><path class="cls-1" d="M46.45,1.32H25a.45.45,0,0,1-.41-.27.46.46,0,0,1,.09-.49l.13-.15a.45.45,0,0,1,.32-.14l21.61,0h0a.44.44,0,0,1,.43.33.46.46,0,0,1-.22.51l-.32.18A.32.32,0,0,1,46.45,1.32Z"/><path class="cls-1" d="M46.45,1.32A.46.46,0,0,1,46,1.05a.45.45,0,0,1,.21-.57L46.56.3s0,0,.07,0l.27-.1a.46.46,0,0,1,.57.24.46.46,0,0,1-.21.59l-.41.23-.08,0-.16.05Z"/><path class="cls-1" d="M48.24,2.06l-.16,0-1.26-.48a.41.41,0,0,1-.13-.08l-.35-.31a.45.45,0,0,1-.16-.4.43.43,0,0,1,.24-.35l.41-.22a.46.46,0,0,1,.5,0l1.2,1a.46.46,0,0,1,.09.58A.41.41,0,0,1,48.24,2.06Z"/><path class="cls-1" d="M40.28,4.7a.43.43,0,0,1-.3-.13l-.69-.64a.47.47,0,0,1-.14-.4.42.42,0,0,1,.25-.34l.64-.3.05,0L46.83.68a.42.42,0,0,1,.31,0l1.26.48a.43.43,0,0,1,.29.43.44.44,0,0,1-.32.42L40.81,4.47l-.35.16A.26.26,0,0,1,40.28,4.7Z"/><path class="cls-1" d="M17.23,41.44h0c-2.7-.14-5.44-.21-8.11-.21A3.68,3.68,0,0,1,6.4,40.16l-.08-.08,0,0a7.21,7.21,0,0,1-1.35-2.21,1.87,1.87,0,0,0-1.41-1.18c-.72-.13-1.26-.21-1.85-.27a.47.47,0,0,1-.4-.37.44.44,0,0,1,.24-.48l.32-.16a.37.37,0,0,1,.25-.05c.69.07,1.26.15,2,.29a2.67,2.67,0,0,1,2.41,2A7.65,7.65,0,0,0,7.6,39.41l.06.05a2.24,2.24,0,0,0,1.77.7c2.88,0,5.55.06,8.17.21a.45.45,0,0,1,.42.37.46.46,0,0,1-.24.49l-.34.16A.58.58,0,0,1,17.23,41.44Z"/><path class="cls-1" d="M17.23,41.44a.45.45,0,0,1-.44-.35.43.43,0,0,1,.24-.51l.33-.16a.38.38,0,0,1,.21-.05h0c.55,0,1-1.26,1.43-2.37.17-.48.36-1,.57-1.45a31.77,31.77,0,0,0,1.49-4L29.6,4a.13.13,0,0,1,0-.07l.25-.51a.46.46,0,0,1,.85.34L22.11,32.65a29.75,29.75,0,0,1-1.55,4.19c-.18.36-.32.8-.5,1.24C19.49,39.65,18.83,41.44,17.23,41.44Z"/><path class="cls-1" d="M20.27,49.86h-.48L7.2,49.57a2.72,2.72,0,0,1-1.94-.83L4,47.42a.47.47,0,0,1,0-.64.45.45,0,0,1,.64,0,2,2,0,0,0,1.31.56l12.61.27H19A11.17,11.17,0,0,0,25.8,45c2.52-2,4-7.23,5.11-11,.15-.51.29-1,.44-1.45l8.5-28.45a.42.42,0,0,1,.32-.3.44.44,0,0,1,.43.12l1.31,1.33a.46.46,0,0,1,.11.45l-8.5,28.45c-.13.44-.27.94-.42,1.44-1.13,3.91-2.67,9.27-5.41,11.47a12.13,12.13,0,0,1-7.42,2.78Zm-.38-.92h.38a11.12,11.12,0,0,0,6.84-2.59c2.53-2,4-7.22,5.11-11,.15-.51.29-1,.44-1.45L41.08,5.7l-.59-.59L32.21,32.82c-.13.45-.27,1-.42,1.44-1.13,3.92-2.67,9.27-5.41,11.48A12.13,12.13,0,0,1,19,48.52h0a4.75,4.75,0,0,1-.48,0L6.06,48.25a1.81,1.81,0,0,0,1.17.41l12.61.28Z"/><path class="cls-1" d="M18.67,47.75h-.43L5.61,47.46A2.31,2.31,0,0,1,3.47,46L.28,37.54a1.47,1.47,0,0,1,.17-1.39,1.51,1.51,0,0,1,1.25-.66h.05c.59.07,1.18.15,1.91.29h0a2.77,2.77,0,0,1,2.06,1.74,6.29,6.29,0,0,0,1.17,1.91l.06.06a2.76,2.76,0,0,0,2.11.85c2.69,0,5.42.06,8.14.2,1,0,1.47-1.42,2-2.78.16-.44.34-.91.53-1.32a26.41,26.41,0,0,0,1.5-4.06l8.54-28.6-.13-.09-5.4-2.18a.44.44,0,0,1,0-.83l.62-.25A.48.48,0,0,1,25,.4H46.37l.1,0a.46.46,0,0,1,.41.08l.35.31a.45.45,0,0,1,.16.43.46.46,0,0,1-.3.35L40.36,3.7l-.43.2-8.5,28.46c-.13.45-.28.94-.42,1.44-1.18,4.08-2.64,9.14-5.26,11.24A11.41,11.41,0,0,1,18.67,47.75Zm-17-11.36a.6.6,0,0,0-.48.27.65.65,0,0,0-.08.56l3.2,8.42a1.41,1.41,0,0,0,1.31.91l12.64.28h.39a10.62,10.62,0,0,0,6.53-2.48c2.38-1.9,3.87-7,5-10.77.14-.51.28-1,.41-1.45L39.11,3.46a.51.51,0,0,1,.24-.28L40,2.87h0l4.78-1.55H26.14L30,2.86l.08,0,.45.31a.47.47,0,0,1,.19.51L22.11,32.63a29.75,29.75,0,0,1-1.55,4.19c-.18.37-.32.8-.5,1.25-.57,1.58-1.23,3.37-2.83,3.37h0c-2.7-.14-5.44-.21-8.11-.21A3.68,3.68,0,0,1,6.4,40.16l-.08-.08,0,0a7.21,7.21,0,0,1-1.35-2.21,1.87,1.87,0,0,0-1.41-1.18C2.8,36.53,2.26,36.45,1.68,36.39Z"/><path class="cls-1" d="M19,48.52a4.75,4.75,0,0,1-.48,0L5.89,48.23a2.78,2.78,0,0,1-2.56-1.79L.13,38A1.94,1.94,0,0,1,.36,36.2,2,2,0,0,1,2,35.32H2a.47.47,0,0,1,.45.33.46.46,0,0,1-.22.51l-.32.16a.43.43,0,0,1-.21,0h0a.61.61,0,0,0-.5.27.66.66,0,0,0-.08.56l3.2,8.43a1.44,1.44,0,0,0,1.31.91l12.64.27h0a2.63,2.63,0,0,0,.36,0,10.62,10.62,0,0,0,6.53-2.48c2.38-1.9,3.87-7,5-10.77.14-.52.28-1,.41-1.46L39.11,3.45a.45.45,0,0,1,.32-.31.43.43,0,0,1,.43.12l.69.64a.44.44,0,0,1,.13.46l-8.5,28.45c-.13.45-.27.94-.42,1.44-1.13,3.91-2.67,9.27-5.42,11.47A11.9,11.9,0,0,1,19,48.52Z"/><polygon class="cls-2" points="30.05 4.12 29.89 4.01 23.43 1.44 24.75 2.76 29.86 4.81 30.05 4.12"/><polygon class="cls-3" points="24.41 1.11 23.43 1.44 25.16 0.73 25.02 0.88 24.41 1.11"/><polygon class="cls-4" points="29.86 3.31 24.41 1.11 23.43 1.44 29.89 4.01 30.05 4.12 30.31 3.59 29.86 3.31"/><path class="cls-5" d="M5.45,36.71,6.76,38a2.76,2.76,0,0,1,.61,1.11,10.64,10.64,0,0,0,.8,1.42c.13.18-.08,0-.08,0l-.83-.85a7.16,7.16,0,0,1-1.18-1.92A2.82,2.82,0,0,0,5.45,36.71Z"/><polygon class="cls-6" points="48.24 1.61 40.65 4.06 40.28 4.23 41.59 5.57 41.96 5.38 49.55 2.94 48.24 1.61"/><polygon class="cls-7" points="25.02 0.88 25.16 0.73 46.77 0.7 46.45 0.88 25.02 0.88"/><polygon class="cls-8" points="46.45 0.88 46.77 0.7 47.02 0.6 46.61 0.83 46.45 0.88"/><polygon class="cls-9" points="46.61 0.83 47.02 0.6 48.24 1.61 46.96 1.11 46.61 0.83"/><polygon class="cls-10" points="46.96 1.11 40.22 3.31 39.58 3.59 40.28 4.23 40.65 4.06 48.24 1.61 46.96 1.11"/><path class="cls-11" d="M9.42,40.61a2.82,2.82,0,0,1-2.16-.9A7.27,7.27,0,0,1,6.08,37.8,2.28,2.28,0,0,0,4,36.05c-.69-.12-1.26-.22-2-.28l-.32.16c.64.06,1.22.15,1.89.27a2.28,2.28,0,0,1,1.74,1.47,6.69,6.69,0,0,0,1.28,2.06,3.23,3.23,0,0,0,2.49,1c2.72,0,5.42.06,8.12.21l.34-.16C14.85,40.67,12.13,40.61,9.42,40.61Z"/><path class="cls-12" d="M30.05,4.12,21.52,32.7a32.64,32.64,0,0,1-1.51,4c-.78,1.71-1.26,4.12-2.44,4.08l-.34.16c1.67,0,2.14-2.69,2.91-4.37a31.4,31.4,0,0,0,1.54-4.11L30.31,3.59Z"/><path class="cls-13" d="M40.28,4.23l-8.5,28.45C30.59,36.61,29.06,43,26.09,45.37A11.6,11.6,0,0,1,19,48.06c-.29,0-.43,0-.45,0L5.9,47.77a2.41,2.41,0,0,1-1.63-.7l1.31,1.32a2.31,2.31,0,0,0,1.63.7l12.61.28h.45A11.69,11.69,0,0,0,27.4,46.7c3-2.4,4.51-8.76,5.69-12.69l8.5-28.45Z"/><path class="cls-14" d="M46.61.83l.35.3L40.22,3.32l-.64.3L31,32.27c-1.17,3.93-2.71,10.19-5.53,12.45a11.1,11.1,0,0,1-6.83,2.57,3.35,3.35,0,0,1-.4,0L5.63,47A1.88,1.88,0,0,1,3.9,45.79L.71,37.36a1.07,1.07,0,0,1,1-1.43c.64.06,1.21.15,1.88.27a2.31,2.31,0,0,1,1.75,1.47A6.48,6.48,0,0,0,6.6,39.73a3.25,3.25,0,0,0,2.5,1c2.71,0,5.42.06,8.12.21,1.66,0,2.14-2.69,2.91-4.37a33,33,0,0,0,1.53-4.11L30.29,3.59l-.46-.3L24.38,1.1,25,.84H46.61Z"/><path class="cls-15" d="M39.58,3.59,31,32.27c-1.17,3.93-2.71,10.19-5.53,12.45a11.1,11.1,0,0,1-6.83,2.57,3.35,3.35,0,0,1-.4,0L5.63,47A1.88,1.88,0,0,1,3.9,45.79L.71,37.36a1.07,1.07,0,0,1,1-1.43L2,35.77A1.56,1.56,0,0,0,.56,37.86l3.2,8.42a2.3,2.3,0,0,0,2.14,1.5l12.61.28H19a11.71,11.71,0,0,0,7.13-2.68c3-2.4,4.5-8.76,5.69-12.69l8.5-28.45Z"/><path class="cls-16" d="M.19,28.54l6-7.4A.45.45,0,0,0,6.25,21h0l2-10.32-3-6H44.07L37,12.08s0,.08,0,.14L35,22.51l3,6ZM6.1,21.29h0ZM37,11.94h0ZM8.3,10.3h0Z"/><path class="cls-16" d="M46,45.17l-14,.19a7.14,7.14,0,0,1-7.62-7.48,11.4,11.4,0,0,1,.21-2.14l1.21-6.36A10.09,10.09,0,0,1,28.57,24a8.81,8.81,0,0,1,6.3-2.49H49.81ZM40,32.89l-.2,1,.38,0a2.68,2.68,0,0,0,.48-.13l1.25-.47-.47-.37H40Z"/><path class="cls-17" d="M3.33,27.05l4-4.88A1,1,0,0,0,7.42,22a2.18,2.18,0,0,0,.3-.7h0l2-10.63h0a1.31,1.31,0,0,0,0-.19L7.59,6.12H22.73l.29,2,1.09-2H40.58l-4.82,5.06a.35.35,0,0,0-.1.15,2.73,2.73,0,0,0-.19.59l-2,10.48a1.75,1.75,0,0,0,0,.35l2.15,4.33ZM27.48,12.53l1.68.59.19-1H27.7Zm-11.94-.3,2,0,0-.17h-2Z"/><path class="cls-17" d="M44.15,43.87H32a6.06,6.06,0,0,1-4.52-1.69,6,6,0,0,1-1.61-4.3A10,10,0,0,1,26.06,36l1.21-6.37A8.64,8.64,0,0,1,29.62,25,7.32,7.32,0,0,1,34.87,23h12.7ZM36,35.4Z"/><path class="cls-17" d="M10.66,21.84l2-10.52a3.75,3.75,0,0,0,.09-.87,2.86,2.86,0,0,0-.29-1.33h7.67l1.23,8.52,4.54-8.52H33.6a3.54,3.54,0,0,0-.68,1,5.82,5.82,0,0,0-.38,1.22l-2,10.5a4.42,4.42,0,0,0-.09.92,2.8,2.8,0,0,0,.3,1.3H23.8a4.77,4.77,0,0,0,1.05-2.22l1.75-9.15L20.55,24.06h-4L14.87,12.71l-1.75,9.13a4.42,4.42,0,0,0-.09.92,2.92,2.92,0,0,0,.29,1.3H9.6a3.7,3.7,0,0,0,.43-.61A5.09,5.09,0,0,0,10.66,21.84Z"/><path class="cls-17" d="M29,36.6l1.21-6.38a5.6,5.6,0,0,1,1.5-3.07,4.35,4.35,0,0,1,3.16-1.21h8.91L43.73,29a2.59,2.59,0,0,0-1.13-.52A9.47,9.47,0,0,0,41,28.41H37.92a2.15,2.15,0,0,0-1.47.35,3.22,3.22,0,0,0-.57,1.55l-1.23,6.31a5,5,0,0,0-.07.69.94.94,0,0,0,.38.89,3,3,0,0,0,1.33.21h3a10.25,10.25,0,0,0,1.51-.1,6.76,6.76,0,0,0,1.42-.37l-1,2.94H32a3.15,3.15,0,0,1-2.37-.79,3,3,0,0,1-.77-2.21A6.5,6.5,0,0,1,29,36.6Z"/><path class="cls-18" d="M33.14,25.55H6.46l2-2.43a2.54,2.54,0,0,0,.27-.38,3.67,3.67,0,0,0,.48-1.18h0l2-10.52a2.88,2.88,0,0,0,.06-.59,1.53,1.53,0,0,0-.13-.65L10,7.63H21.43l.77,5.27L25,7.63H37.09l-2.41,2.52a2,2,0,0,0-.39.58,4.33,4.33,0,0,0-.28.9L32,22.12a3.39,3.39,0,0,0-.06.64,1.39,1.39,0,0,0,.13.63Zm-6.92-3h2.72a5.59,5.59,0,0,1,.12-1l2-10.47c0-.15.07-.3.1-.44H26.81L26,12.22l2.12.75-1.75,9.15C26.29,22.27,26.26,22.41,26.22,22.56Zm-8.41,0h1.84l.73-1.37L18.85,10.62H14.26a5.58,5.58,0,0,1-.13,1l-.15.78,2.37.06Z"/><path class="cls-18" d="M42.24,42.37H32a4.58,4.58,0,0,1-3.44-1.23,4.49,4.49,0,0,1-1.19-3.26,8,8,0,0,1,.16-1.57l1.21-6.37a7.12,7.12,0,0,1,1.93-3.86,5.79,5.79,0,0,1,4.2-1.63H45.29l-.11,7.62-2.37-1.85a1.07,1.07,0,0,0-.48-.23A7.39,7.39,0,0,0,41,29.9H37.92l-.41,0c0,.14-.1.35-.16.66l-1.23,6.33h3.13a8.85,8.85,0,0,0,1.3-.09,5.36,5.36,0,0,0,1.11-.29l3-1.11ZM34.87,27.44a2.84,2.84,0,0,0-2.11.78,4.24,4.24,0,0,0-1.08,2.28l-1.21,6.39a4.54,4.54,0,0,0-.11,1,1.64,1.64,0,0,0,.34,1.17,1.92,1.92,0,0,0,1.3.33h2a2.39,2.39,0,0,1-.95-2.07,6.74,6.74,0,0,1,.08-.93L34.42,30a4.19,4.19,0,0,1,1-2.32,1.86,1.86,0,0,1,.31-.26Zm2.72,2.28Z"/><path class="cls-19" d="M10.66,21.84l2-10.52a3.75,3.75,0,0,0,.09-.87,2.86,2.86,0,0,0-.29-1.33h7.67l1.23,8.52,4.54-8.52H33.6a3.54,3.54,0,0,0-.68,1,5.82,5.82,0,0,0-.38,1.22l-2,10.5a4.42,4.42,0,0,0-.09.92,2.8,2.8,0,0,0,.3,1.3H23.8a4.77,4.77,0,0,0,1.05-2.22l1.75-9.15L20.55,24.06h-4L14.87,12.71l-1.75,9.13a4.42,4.42,0,0,0-.09.92,2.92,2.92,0,0,0,.29,1.3H9.6a3.7,3.7,0,0,0,.43-.61A5.09,5.09,0,0,0,10.66,21.84Z"/><path class="cls-19" d="M29,36.6l1.21-6.38a5.6,5.6,0,0,1,1.5-3.07,4.35,4.35,0,0,1,3.16-1.21h8.91L43.73,29a2.59,2.59,0,0,0-1.13-.52A9.47,9.47,0,0,0,41,28.41H37.92a2.15,2.15,0,0,0-1.47.35,3.22,3.22,0,0,0-.57,1.55l-1.23,6.31a5,5,0,0,0-.07.69.94.94,0,0,0,.38.89,3,3,0,0,0,1.33.21h3a10.25,10.25,0,0,0,1.51-.1,6.76,6.76,0,0,0,1.42-.37l-1,2.94H32a3.15,3.15,0,0,1-2.37-.79,3,3,0,0,1-.77-2.21A6.5,6.5,0,0,1,29,36.6Z"/></svg>