<svg xmlns="http://www.w3.org/2000/svg" viewBox="0 0 442.96 410.31"><defs><style>.cls-1{fill:#65140f;}.cls-2{fill:#fff;}.cls-3{fill:#e10d22;}</style></defs><g id="Camada_2" data-name="Camada 2"><g id="Camada_1-2" data-name="Camada 1"><rect class="cls-1" width="442.96" height="410.31"/><path class="cls-2" d="M85.24,80.34h30.23V83.4H101.89v43.09H98.7V83.4H85.24Z"/><path class="cls-2" d="M123.66,101.08l.33,7.8-.39-1a10.12,10.12,0,0,1,2.66-4,13.46,13.46,0,0,1,4.06-2.6,11.44,11.44,0,0,1,4.32-.91l-.12,3a10.92,10.92,0,0,0-5.3,1.3,10.28,10.28,0,0,0-3.77,3.48,8.91,8.91,0,0,0-1.4,4.91v13.45h-3V101.08Z"/><path class="cls-2" d="M153.43,127a13.21,13.21,0,0,1-6.6-1.66,12.2,12.2,0,0,1-4.68-4.64,15.15,15.15,0,0,1,.1-14.21,12.06,12.06,0,0,1,4.94-4.61,15.37,15.37,0,0,1,7.08-1.59A12.08,12.08,0,0,1,165,107.38l-.46.91.4-7.21h2.72v25.41h-3v-7.86l.65,1.17a7.81,7.81,0,0,1-1.56,2.56,14.11,14.11,0,0,1-6.21,4A13.22,13.22,0,0,1,153.43,127Zm.65-2.6a11,11,0,0,0,5.17-1.2,9.93,9.93,0,0,0,5.36-8.29v-3.64a10.17,10.17,0,0,0-2.05-4.29,11.28,11.28,0,0,0-3.74-3,10.52,10.52,0,0,0-4.8-1.1,10.66,10.66,0,0,0-5.27,1.33,10.13,10.13,0,0,0-3.84,3.74,10.85,10.85,0,0,0-1.43,5.65,10.56,10.56,0,0,0,1.43,5.43,11.12,11.12,0,0,0,3.87,3.9A10.17,10.17,0,0,0,154.08,124.41Z"/><path class="cls-2" d="M178.13,138.71l-1.95-1.88a12.45,12.45,0,0,0,2.7-4.23,15.43,15.43,0,0,0,1-5.72v-25.8H183v25.74a18.7,18.7,0,0,1-1.2,7.05A11.4,11.4,0,0,1,178.13,138.71Zm1.1-47a1.93,1.93,0,0,1,.72-1.53,2.34,2.34,0,0,1,1.56-.62,2.2,2.2,0,0,1,1.56.62,2,2,0,0,1,.65,1.53,2.1,2.1,0,0,1-.65,1.59,2.2,2.2,0,0,1-1.56.62,2.28,2.28,0,0,1-1.56-.65A2.05,2.05,0,0,1,179.23,91.72Z"/><path class="cls-2" d="M204.84,127a13.85,13.85,0,0,1-7-1.75,12.65,12.65,0,0,1-4.77-4.78,13.47,13.47,0,0,1-1.73-6.79,13,13,0,0,1,1.82-6.76,13.75,13.75,0,0,1,4.91-4.88,13.28,13.28,0,0,1,6.86-1.82,11.28,11.28,0,0,1,7.64,2.67,15,15,0,0,1,4.45,6.95l-22.23,8.58-.91-2.21,20.34-7.93-.65.91a11.78,11.78,0,0,0-3.34-4.48,8.26,8.26,0,0,0-5.5-1.89,9.91,9.91,0,0,0-5.26,1.43,10.67,10.67,0,0,0-5.14,9.3,11.07,11.07,0,0,0,1.34,5.33,10.43,10.43,0,0,0,3.73,4,10.25,10.25,0,0,0,5.53,1.5,10.55,10.55,0,0,0,4-.78,13.3,13.3,0,0,0,3.41-2l1.56,2.21a16,16,0,0,1-4.19,2.34A13.41,13.41,0,0,1,204.84,127Z"/><path class="cls-2" d="M228,89.9h3.12v11.5H239v2.47H231.1v22.62H228V103.87h-5.39V101.4H228Z"/><path class="cls-2" d="M244.1,113.62a13.22,13.22,0,0,1,6.67-11.6,14.33,14.33,0,0,1,13.87,0,13.06,13.06,0,0,1,4.81,4.84,13.86,13.86,0,0,1,0,13.52,12.92,12.92,0,0,1-4.84,4.84,13.5,13.5,0,0,1-6.92,1.79,13.92,13.92,0,0,1-7-1.72,12.9,12.9,0,0,1-4.84-4.75A13.34,13.34,0,0,1,244.1,113.62Zm3.06.07a10.6,10.6,0,0,0,1.4,5.42,10.45,10.45,0,0,0,3.77,3.87,10.52,10.52,0,0,0,10.59,0,10.53,10.53,0,0,0,3.77-3.87,11,11,0,0,0-3.77-14.75,9.85,9.85,0,0,0-5.3-1.46,9.75,9.75,0,0,0-5.36,1.52,11,11,0,0,0-3.74,4A10.72,10.72,0,0,0,247.16,113.69ZM263,87.1l-6.89,8.65h-2.21l5.66-8.65Z"/><path class="cls-2" d="M283,101.08l.33,7.8-.39-1a10.12,10.12,0,0,1,2.66-4,13.5,13.5,0,0,1,4.07-2.6,11.37,11.37,0,0,1,4.32-.91l-.13,3a10.92,10.92,0,0,0-5.3,1.3,10.28,10.28,0,0,0-3.77,3.48,8.91,8.91,0,0,0-1.4,4.91v13.45h-3.05V101.08Z"/><path class="cls-2" d="M301.89,91.72a2,2,0,0,1,.71-1.53,2.36,2.36,0,0,1,1.56-.62,2.18,2.18,0,0,1,1.56.62,2,2,0,0,1,.65,1.53,2.1,2.1,0,0,1-.65,1.59,2.18,2.18,0,0,1-1.56.62,2.3,2.3,0,0,1-1.56-.65A2.07,2.07,0,0,1,301.89,91.72Zm.65,9.36h3v25.41h-3Z"/><path class="cls-2" d="M327.69,127a13.21,13.21,0,0,1-6.6-1.66,12.2,12.2,0,0,1-4.68-4.64,15.15,15.15,0,0,1,.1-14.21,12.06,12.06,0,0,1,4.94-4.61,15.38,15.38,0,0,1,7.09-1.59,12.08,12.08,0,0,1,10.72,7.08l-.45.91.39-7.21h2.73v25.41h-3.06v-7.86l.65,1.17a7.81,7.81,0,0,1-1.56,2.56,13.26,13.26,0,0,1-2.7,2.34,13.57,13.57,0,0,1-3.51,1.69A13.17,13.17,0,0,1,327.69,127Zm.65-2.6a11,11,0,0,0,5.17-1.2,9.87,9.87,0,0,0,5.36-8.29v-3.64a10.17,10.17,0,0,0-2.05-4.29,11.24,11.24,0,0,0-3.73-3,11.09,11.09,0,0,0-10.08.23,10,10,0,0,0-3.83,3.74,10.76,10.76,0,0,0-1.43,5.65,10.47,10.47,0,0,0,1.43,5.43A11,11,0,0,0,323,123,10.17,10.17,0,0,0,328.34,124.41Z"/><path class="cls-2" d="M357,120.84q-1.44,3.38-2.8,6.72t-2.79,6.8h-2.6c.86-2.3,1.71-4.57,2.53-6.8s1.65-4.47,2.47-6.72Z"/><path class="cls-2" d="M126.65,189a13.24,13.24,0,0,1-4,2.21,14.59,14.59,0,0,1-11.58-.94,12.77,12.77,0,0,1-4.8-4.71,13.26,13.26,0,0,1-1.76-6.83,12.88,12.88,0,0,1,1.82-6.82,13.26,13.26,0,0,1,11.44-6.44,15.14,15.14,0,0,1,4.94.78,12.27,12.27,0,0,1,4,2.21l-1.63,2.08a12.19,12.19,0,0,0-3.19-1.82A10.47,10.47,0,0,0,118,168a9.89,9.89,0,0,0-5.23,1.43,10.57,10.57,0,0,0-3.77,3.86,10.77,10.77,0,0,0-1.4,5.43,10.59,10.59,0,0,0,1.4,5.36,10.34,10.34,0,0,0,3.84,3.87,10.54,10.54,0,0,0,5.43,1.43,10.29,10.29,0,0,0,3.63-.62,11.55,11.55,0,0,0,3.06-1.65Z"/><path class="cls-2" d="M143.16,192.21a7.54,7.54,0,0,1-8-7.61V166.08h3.06v17.61a6.49,6.49,0,0,0,1.59,4.1,6,6,0,0,0,4.39,1.75,8.69,8.69,0,0,0,4.61-1.3,10.17,10.17,0,0,0,3.48-3.54,9.8,9.8,0,0,0,1.33-5.1V166.08h3.06v25.41H154l-.33-8,.46,1.75a8.62,8.62,0,0,1-2.31,3.54,12,12,0,0,1-3.9,2.51A12.5,12.5,0,0,1,143.16,192.21Z"/><path class="cls-2" d="M168.25,142.09h3.05v49.4h-3.05Z"/><path class="cls-2" d="M185.41,154.9h3.12v11.5h7.86v2.47h-7.86v22.62h-3.12V168.87H180V166.4h5.4Z"/><path class="cls-2" d="M212,192.21a7.52,7.52,0,0,1-8-7.61V166.08h3.05v17.61a6.49,6.49,0,0,0,1.59,4.1,6,6,0,0,0,4.39,1.75,8.73,8.73,0,0,0,4.62-1.3,10.06,10.06,0,0,0,3.47-3.54,9.81,9.81,0,0,0,1.34-5.1V166.08h3v25.41h-2.73l-.32-8,.45,1.75a8.62,8.62,0,0,1-2.31,3.54,12,12,0,0,1-3.9,2.51A12.5,12.5,0,0,1,212,192.21Z"/><path class="cls-2" d="M239.75,166.08l.32,7.8-.39-1a10,10,0,0,1,2.67-4,13.33,13.33,0,0,1,4.06-2.6,11.37,11.37,0,0,1,4.32-.91l-.13,3a11,11,0,0,0-5.3,1.3,10.36,10.36,0,0,0-3.77,3.48,8.9,8.9,0,0,0-1.39,4.91v13.45h-3.06V166.08Z"/><path class="cls-2" d="M269.52,192a13.21,13.21,0,0,1-6.6-1.66,12.2,12.2,0,0,1-4.68-4.64,15.15,15.15,0,0,1,.1-14.21,12.06,12.06,0,0,1,4.94-4.61,15.37,15.37,0,0,1,7.08-1.59,12.11,12.11,0,0,1,10.73,7.08l-.46.91.39-7.21h2.73v25.41H280.7v-7.86l.65,1.17a8.17,8.17,0,0,1-1.56,2.56,14.11,14.11,0,0,1-6.21,4A13.22,13.22,0,0,1,269.52,192Zm.65-2.6a11,11,0,0,0,5.16-1.2,9.9,9.9,0,0,0,3.74-3.35,10,10,0,0,0,1.63-4.94v-3.64a10.17,10.17,0,0,0-2.05-4.29,11.38,11.38,0,0,0-3.74-3,11.07,11.07,0,0,0-10.07.23A10,10,0,0,0,261,173a10.85,10.85,0,0,0-1.43,5.65,10.56,10.56,0,0,0,1.43,5.43,11,11,0,0,0,3.87,3.9A10.14,10.14,0,0,0,270.17,189.41Z"/><path class="cls-2" d="M326.32,192a13.79,13.79,0,0,1-7-1.75,12.68,12.68,0,0,1-4.78-4.78,13.47,13.47,0,0,1-1.72-6.79,13,13,0,0,1,1.81-6.76,13.75,13.75,0,0,1,4.91-4.88,13.31,13.31,0,0,1,6.86-1.82A11.28,11.28,0,0,1,334,167.9a15,15,0,0,1,4.45,6.95l-22.23,8.58-.91-2.21,20.35-7.93-.66.91a11.78,11.78,0,0,0-3.34-4.48,8.26,8.26,0,0,0-5.5-1.89,9.91,9.91,0,0,0-5.26,1.43,10.67,10.67,0,0,0-5.14,9.3,11.07,11.07,0,0,0,1.34,5.33,10.5,10.5,0,0,0,3.73,4,10.25,10.25,0,0,0,5.53,1.5,10.52,10.52,0,0,0,4-.78,13.3,13.3,0,0,0,3.41-2l1.56,2.21a15.88,15.88,0,0,1-4.19,2.34A13.41,13.41,0,0,1,326.32,192Z"/><path class="cls-2" d="M84,257a12.54,12.54,0,0,1-11.15-6.5,13.87,13.87,0,0,1-1.72-6.89,13.72,13.72,0,0,1,1.76-7.08,12,12,0,0,1,4.77-4.62,13.91,13.91,0,0,1,6.67-1.62,13.67,13.67,0,0,1,6.92,1.88,11.52,11.52,0,0,1,4.78,4.94l-.52,1.43V207.09h3v49.4H95.48v-7.8l.65,1.43a12.56,12.56,0,0,1-4.87,5A13.93,13.93,0,0,1,84,257Zm.78-2.66a11,11,0,0,0,5.27-1.27,10.34,10.34,0,0,0,3.77-3.45,10.09,10.09,0,0,0,1.62-4.9v-3.25a9.75,9.75,0,0,0-2-4.42A11.6,11.6,0,0,0,89.7,234a11,11,0,0,0-10.21.23A10.26,10.26,0,0,0,75.66,238a10.64,10.64,0,0,0-1.43,5.59A10.43,10.43,0,0,0,75.66,249a10.85,10.85,0,0,0,3.86,3.9A10.08,10.08,0,0,0,84.82,254.35Z"/><path class="cls-2" d="M109.52,221.72a1.93,1.93,0,0,1,.72-1.53,2.32,2.32,0,0,1,1.56-.62,2.22,2.22,0,0,1,1.56.62,2,2,0,0,1,.65,1.53,2.1,2.1,0,0,1-.65,1.59,2.22,2.22,0,0,1-1.56.62,2.27,2.27,0,0,1-1.56-.65A2,2,0,0,1,109.52,221.72Zm.65,9.36h3.06v25.41h-3.06Z"/><path class="cls-2" d="M126.48,256.49V233.94h-4.42v-2.8h4.42v-12.8c0-4.08.71-7,2.12-8.81a7.48,7.48,0,0,1,6.27-2.7,9.22,9.22,0,0,1,1.95.23,6,6,0,0,1,1.89.75L137.4,210a3.21,3.21,0,0,0-1-.49,4.45,4.45,0,0,0-1.27-.16,4.82,4.82,0,0,0-4.19,1.95c-.93,1.3-1.4,3.61-1.4,7v12.87h8.52v2.8h-8.52v22.55Z"/><path class="cls-2" d="M155.93,257a13.85,13.85,0,0,1-7-1.75,12.68,12.68,0,0,1-4.78-4.78,13.47,13.47,0,0,1-1.72-6.79,13,13,0,0,1,1.82-6.76,13.67,13.67,0,0,1,4.91-4.88,13.28,13.28,0,0,1,6.86-1.82,11.25,11.25,0,0,1,7.63,2.67,14.89,14.89,0,0,1,4.46,6.95l-22.24,8.58-.91-2.21,20.35-7.93-.65.91a11.81,11.81,0,0,0-3.35-4.48,8.21,8.21,0,0,0-5.49-1.89,9.91,9.91,0,0,0-5.26,1.43,10.67,10.67,0,0,0-5.14,9.3,11.06,11.06,0,0,0,1.33,5.33,10.53,10.53,0,0,0,3.74,4,10.23,10.23,0,0,0,5.53,1.5,10.5,10.5,0,0,0,4-.78,13,13,0,0,0,3.41-2l1.57,2.21a16.1,16.1,0,0,1-4.2,2.34A13.32,13.32,0,0,1,155.93,257Z"/><path class="cls-2" d="M179.2,231.08l.33,7.8-.39-1a10.12,10.12,0,0,1,2.66-4,13.46,13.46,0,0,1,4.06-2.6,11.45,11.45,0,0,1,4.33-.91l-.13,3a10.92,10.92,0,0,0-5.3,1.3,10.28,10.28,0,0,0-3.77,3.48,8.91,8.91,0,0,0-1.4,4.91v13.45h-3.05V231.08Z"/><path class="cls-2" d="M208.77,257a13.79,13.79,0,0,1-7-1.75,12.68,12.68,0,0,1-4.78-4.78,13.47,13.47,0,0,1-1.72-6.79,13,13,0,0,1,1.81-6.76,13.75,13.75,0,0,1,4.91-4.88,13.31,13.31,0,0,1,6.86-1.82,11.28,11.28,0,0,1,7.64,2.67,15,15,0,0,1,4.45,6.95l-22.23,8.58-.91-2.21,20.35-7.93-.66.91a11.78,11.78,0,0,0-3.34-4.48,8.26,8.26,0,0,0-5.5-1.89,9.91,9.91,0,0,0-5.26,1.43,10.67,10.67,0,0,0-5.14,9.3,11.07,11.07,0,0,0,1.34,5.33,10.5,10.5,0,0,0,3.73,4,10.25,10.25,0,0,0,5.53,1.5,10.52,10.52,0,0,0,4-.78,13.3,13.3,0,0,0,3.41-2l1.56,2.21a15.88,15.88,0,0,1-4.19,2.34A13.41,13.41,0,0,1,208.77,257Z"/><path class="cls-2" d="M232.05,231.08l.32,8-.39-1.56a9.59,9.59,0,0,1,4.19-5.23,12.75,12.75,0,0,1,6.86-1.92,8,8,0,0,1,5.78,2.11,7.44,7.44,0,0,1,2.28,5.5v18.52H248V238.81a6,6,0,0,0-1.56-4.09,5.78,5.78,0,0,0-4.35-1.69,9.58,9.58,0,0,0-4.75,1.23,9.45,9.45,0,0,0-3.54,3.45,9.71,9.71,0,0,0-1.33,5.13v13.65h-3.06V231.08Z"/><path class="cls-2" d="M282.29,254a13.17,13.17,0,0,1-4,2.21,13.74,13.74,0,0,1-4.61.78,13.92,13.92,0,0,1-7-1.72,12.79,12.79,0,0,1-4.81-4.71,13.25,13.25,0,0,1-1.75-6.83,12.88,12.88,0,0,1,1.82-6.82,13.26,13.26,0,0,1,11.44-6.44,15.14,15.14,0,0,1,4.94.78,12.12,12.12,0,0,1,4,2.21l-1.62,2.08a12.19,12.19,0,0,0-3.19-1.82,10.47,10.47,0,0,0-3.9-.71,9.89,9.89,0,0,0-5.23,1.43,10.57,10.57,0,0,0-3.77,3.86,10.77,10.77,0,0,0-1.4,5.43,10.59,10.59,0,0,0,1.4,5.36,10.34,10.34,0,0,0,3.84,3.87,10.53,10.53,0,0,0,5.42,1.43,10.31,10.31,0,0,0,3.64-.62,11.55,11.55,0,0,0,3.06-1.65Z"/><path class="cls-2" d="M290.15,221.72a1.93,1.93,0,0,1,.72-1.53,2.36,2.36,0,0,1,1.56-.62,2.18,2.18,0,0,1,1.56.62,2,2,0,0,1,.65,1.53,2.1,2.1,0,0,1-.65,1.59,2.18,2.18,0,0,1-1.56.62,2.3,2.3,0,0,1-1.56-.65A2,2,0,0,1,290.15,221.72Zm.65,9.36h3.06v25.41H290.8Z"/><path class="cls-2" d="M316,257a13.21,13.21,0,0,1-6.6-1.66,12.2,12.2,0,0,1-4.68-4.64,15.15,15.15,0,0,1,.1-14.21,12.06,12.06,0,0,1,4.94-4.61,15.37,15.37,0,0,1,7.08-1.59,12.08,12.08,0,0,1,10.73,7.08l-.46.91.39-7.21h2.73v25.41h-3.05v-7.86l.65,1.17a8.17,8.17,0,0,1-1.56,2.56,14.11,14.11,0,0,1-6.21,4A13.22,13.22,0,0,1,316,257Zm.65-2.6a11.06,11.06,0,0,0,5.17-1.2,9.93,9.93,0,0,0,5.36-8.29v-3.64a10.17,10.17,0,0,0-2.05-4.29,11.28,11.28,0,0,0-3.74-3,10.53,10.53,0,0,0-4.81-1.1,10.65,10.65,0,0,0-5.26,1.33,10.06,10.06,0,0,0-3.84,3.74,10.85,10.85,0,0,0-1.43,5.65,10.56,10.56,0,0,0,1.43,5.43,11.12,11.12,0,0,0,3.87,3.9A10.17,10.17,0,0,0,316.61,254.41Z"/><path class="cls-2" d="M341.11,221.72a1.93,1.93,0,0,1,.72-1.53,2.32,2.32,0,0,1,1.56-.62,2.22,2.22,0,0,1,1.56.62,2,2,0,0,1,.65,1.53,2.1,2.1,0,0,1-.65,1.59,2.22,2.22,0,0,1-1.56.62,2.27,2.27,0,0,1-1.56-.65A2.05,2.05,0,0,1,341.11,221.72Zm.65,9.36h3.06v25.41h-3.06Z"/><path class="cls-2" d="M362.37,257a14.43,14.43,0,0,1-4.62-.81,8.44,8.44,0,0,1-3.9-2.63l1.43-2a9.88,9.88,0,0,0,3.09,2.18,9.1,9.1,0,0,0,3.8.81,9.36,9.36,0,0,0,2.83-.42,4.52,4.52,0,0,0,2.18-1.46,4.35,4.35,0,0,0,.84-2.8,3.67,3.67,0,0,0-1-2.79,7.89,7.89,0,0,0-2.53-1.6c-1-.41-2.09-.79-3.22-1.13a13.05,13.05,0,0,1-4.58-2.47,5.57,5.57,0,0,1-1.79-4.42,6.57,6.57,0,0,1,1-3.64,6.82,6.82,0,0,1,2.76-2.44,8.68,8.68,0,0,1,4-.88,12.82,12.82,0,0,1,4,.65,9.49,9.49,0,0,1,3.61,2.21l-1.36,2.15a5.14,5.14,0,0,0-2.77-1.95,12.56,12.56,0,0,0-3-.59,6.37,6.37,0,0,0-2.31.46,5.1,5.1,0,0,0-2,1.33,3.25,3.25,0,0,0-.81,2.31,3.5,3.5,0,0,0,.84,2.43A6.19,6.19,0,0,0,361,241q1.33.58,2.76,1.11a24.37,24.37,0,0,1,3.54,1.39,7.91,7.91,0,0,1,2.73,2.15,5.46,5.46,0,0,1,1.08,3.54,8.23,8.23,0,0,1-1,4,6.78,6.78,0,0,1-2.89,2.79A10.37,10.37,0,0,1,362.37,257Z"/><path class="cls-2" d="M87.55,322a12.54,12.54,0,0,1-11.15-6.5,13.87,13.87,0,0,1-1.72-6.89,13.72,13.72,0,0,1,1.76-7.08,12,12,0,0,1,4.77-4.62,13.91,13.91,0,0,1,6.67-1.62,13.67,13.67,0,0,1,6.92,1.88,11.52,11.52,0,0,1,4.78,4.94l-.52,1.43V272.09h3v49.4H99v-7.8l.65,1.43a12.56,12.56,0,0,1-4.87,5A14,14,0,0,1,87.55,322Zm.78-2.66a11,11,0,0,0,5.27-1.27,10.34,10.34,0,0,0,3.77-3.45,10.09,10.09,0,0,0,1.62-4.9v-3.25a9.75,9.75,0,0,0-2-4.42A11.6,11.6,0,0,0,93.21,299,11,11,0,0,0,83,299.2,10.26,10.26,0,0,0,79.17,303a10.64,10.64,0,0,0-1.43,5.59A10.43,10.43,0,0,0,79.17,314a10.85,10.85,0,0,0,3.86,3.9A10.08,10.08,0,0,0,88.33,319.35Z"/><path class="cls-2" d="M111.21,308.62a13.24,13.24,0,0,1,6.66-11.6,14.35,14.35,0,0,1,13.88,0,13.06,13.06,0,0,1,4.81,4.84,13.86,13.86,0,0,1,0,13.52,12.92,12.92,0,0,1-4.84,4.84A13.5,13.5,0,0,1,124.8,322a13.92,13.92,0,0,1-7-1.72,12.83,12.83,0,0,1-4.84-4.75A13.34,13.34,0,0,1,111.21,308.62Zm3.06.07a10.67,10.67,0,0,0,5.16,9.29,10.54,10.54,0,0,0,10.6,0,10.53,10.53,0,0,0,3.77-3.87A11,11,0,0,0,130,299.36a9.85,9.85,0,0,0-5.3-1.46,9.75,9.75,0,0,0-5.36,1.52,11,11,0,0,0-3.74,4A10.72,10.72,0,0,0,114.27,308.69Z"/><path class="cls-2" d="M192,280.54a32.17,32.17,0,0,0-4.94-1.82,21.11,21.11,0,0,0-5.85-.84,11,11,0,0,0-7.28,2.27,7.15,7.15,0,0,0-2.73,5.72,6.18,6.18,0,0,0,1.56,4.32,12.87,12.87,0,0,0,4.1,2.93q2.53,1.2,5.39,2.31,2.28.84,4.52,1.88a18.43,18.43,0,0,1,4.06,2.54,10.81,10.81,0,0,1,2.9,3.7A12.5,12.5,0,0,1,194.8,309,12.7,12.7,0,0,1,193,315.8a12.2,12.2,0,0,1-5.07,4.59,16.7,16.7,0,0,1-7.54,1.62,21.92,21.92,0,0,1-6.27-.84,26.3,26.3,0,0,1-4.94-2c-1.41-.75-2.53-1.39-3.35-1.91l1.49-2.6a27.78,27.78,0,0,0,3.48,2.08,27.3,27.3,0,0,0,4.45,1.75,16.75,16.75,0,0,0,4.81.72,13.81,13.81,0,0,0,5.43-1.11,10.53,10.53,0,0,0,4.36-3.35,9,9,0,0,0,1.72-5.68,8.37,8.37,0,0,0-1.63-5.37,12.43,12.43,0,0,0-4.16-3.34,45.58,45.58,0,0,0-5.39-2.34c-1.47-.57-3-1.16-4.42-1.79a20.23,20.23,0,0,1-4-2.28,10.16,10.16,0,0,1-2.89-3.21A9,9,0,0,1,168,286.2a10.07,10.07,0,0,1,1.69-5.79,11.55,11.55,0,0,1,4.59-3.87,15.54,15.54,0,0,1,6.59-1.46,26.57,26.57,0,0,1,6.6.85,26.12,26.12,0,0,1,5.82,2.14Z"/><path class="cls-2" d="M206.69,275.34h28.47v3.06H209.88v18.33h22.75v3H209.88v18.66h26.19v3.05H206.69Z"/><path class="cls-2" d="M258.76,275.34a18.42,18.42,0,0,1,5.17.75,14.49,14.49,0,0,1,4.68,2.34,12.08,12.08,0,0,1,3.41,4.06,12.65,12.65,0,0,1,1.3,5.92,16.37,16.37,0,0,1-.78,5,11.92,11.92,0,0,1-2.54,4.39,12.44,12.44,0,0,1-4.55,3.12,17.86,17.86,0,0,1-6.89,1.17h-7.15v19.37h-3.18V275.34Zm-.39,23.73a14.61,14.61,0,0,0,5.72-1,9.3,9.3,0,0,0,3.57-2.53,9.55,9.55,0,0,0,1.86-3.42,12.81,12.81,0,0,0,.55-3.6,10.11,10.11,0,0,0-.75-3.9,9.38,9.38,0,0,0-2.18-3.22,10.44,10.44,0,0,0-3.44-2.21,12,12,0,0,0-4.49-.81h-7.8v20.67ZM265,300.5l12.8,21h-3.7l-12.87-20.93Z"/><path class="cls-2" d="M285.34,321.49l19.5-48.16h.26l19.5,48.16H321l-17-43.09,2.21-1.24-17.74,44.33Zm9.43-18.26h20.47l.91,3H294Z"/><path class="cls-2" d="M366.59,318.44a28.14,28.14,0,0,1-3.44,1.75,22,22,0,0,1-4.29,1.33,24.51,24.51,0,0,1-5.07.49,24,24,0,0,1-9.56-1.85,22.11,22.11,0,0,1-7.34-5.07,23,23,0,0,1-4.72-7.41,24.19,24.19,0,0,1-1.65-8.94,24.94,24.94,0,0,1,1.75-9.42,23.4,23.4,0,0,1,28.34-13.52,26.2,26.2,0,0,1,5.79,2.53L365,281.26a24.05,24.05,0,0,0-5.13-2.41,18.62,18.62,0,0,0-6-1,19.07,19.07,0,0,0-7.73,1.59,20.15,20.15,0,0,0-6.41,4.42,20.53,20.53,0,0,0-4.32,6.6,21,21,0,0,0-1.56,8.12,22.18,22.18,0,0,0,1.4,7.87,19.28,19.28,0,0,0,4,6.5,18.84,18.84,0,0,0,6.34,4.38,20.54,20.54,0,0,0,8.25,1.6,19.53,19.53,0,0,0,6.21-.95,22.12,22.12,0,0,0,5-2.37Z"/><path class="cls-3" d="M419.27,38.08v.84c-.26,0-.43.17-.53.53s0,.63.3.68a.63.63,0,0,1,.23-.76V52.63h-3.19V52.4c0,.1,0,.15.08.15q-.07-.45-.15-.45v.08a.9.9,0,0,0-.23-.38,1,1,0,0,0,.53-.46,1.8,1.8,0,0,1-1.36.08c.15,0-.1-.1-.76-.46a1.33,1.33,0,0,0,.61-.38c.2-.25.17-.42-.08-.53-.05.36-.33.59-.83.69s-.94,0-1.14-.31c.25,0,.4-.12.45-.22s0-.08-.07-.08a.59.59,0,0,0-.68.15,3.15,3.15,0,0,1,.83-.68,4.33,4.33,0,0,0,.83-.76.78.78,0,0,1-.75-.45c-.05-.15-.18-.51-.38-1.06.35.25.5.27.45.07s0-.53.08-.53a4.92,4.92,0,0,1,.76.38c.25.15.47.08.68-.23a5.75,5.75,0,0,1-1.82-.75c-.51-.36-.76-.41-.76-.16.3.11.48.21.53.31a2.85,2.85,0,0,1-.15,1.13,1,1,0,0,0-.53,0l-.15-.15-.15-.15.3.3c-.05,0-.15.08-.3.23a.74.74,0,0,1-.38.15.43.43,0,0,0-.15-.3.69.69,0,0,1,0-.45l.15.15h.15c.1.05.15,0,.15-.31-.35-.2-.58-.17-.68.08s-.2.53-.3.53a1.71,1.71,0,0,0-.16-.68c.31-.05.46-.25.46-.61a1.27,1.27,0,0,1,.38-1.06c-.2.1-.43,0-.68-.3s-.38-.25-.53,0c.4,0,.5.12.3.38-.05,0-.18.15-.38.3s-.18.23-.23.23a.24.24,0,0,1-.07-.38c.1-.15.07-.25-.08-.3s-.05.1-.15.15-.08,0-.08-.15.13-.26.38-.46a1,1,0,0,0,.15-.76.69.69,0,0,0-.68.08c-.15.1-.25.07-.3-.08.4-.15.61-.25.61-.3s-.06-.2-.31-.45a23.91,23.91,0,0,1,1.29-2.58,6.09,6.09,0,0,0,.83-3c.21.31.51.18.91-.37s.48-.86.38-.91-.07.07-.23.07a.82.82,0,0,1-.37-.07c-.41-.2-.43-.38-.08-.53a.61.61,0,0,1-.76-.31l-.23-.22c-.05,0-.12,0-.22.15a18.1,18.1,0,0,1,1.06,2,2.5,2.5,0,0,0-.61-.15,1.1,1.1,0,0,0-.6.3c.15-.46.05-.71-.31-.76s-.53-.18-.53-.23c.76-.1,1-.32.76-.68-.35.36-.63.33-.83-.07a5.45,5.45,0,0,0-.53-.91l-.08.07c0,.05-.08.05-.08,0h-.07V34.9c.2.05.3-.17.3-.68s0-.73.23-.68c0,.05,0,.3-.08.76-.05.3,0,.45.23.45q.08-.45.15-.45c.05,0,.15.1.31.3a.59.59,0,0,0-.61.45.73.73,0,0,0,.68-.38.71.71,0,0,0,.23.16c-.1-.26,0-.46.3-.61s.2-.28,0-.38c-.05.2-.23.35-.53.46-.2-.41-.3-.58-.3-.54s0-.32.15-.68a1.37,1.37,0,0,0-.68.23c.15-.25.07-.68-.23-1.29a.74.74,0,0,1,.38-1.13,1.19,1.19,0,0,0,.38,1.28c-.1-.55-.08-.8.07-.75-.05.2-.15.27-.3.22a1.7,1.7,0,0,1,.15-.91c.15-.3.15-.48,0-.53a.46.46,0,0,1-.38.31,1,1,0,0,0-.38.15.66.66,0,0,0-.07-.3c-.1-.11-.15-.18-.15-.23a1,1,0,0,0,.45-.08v.23H410a1,1,0,0,0-.08-.53c-.05-.15-.18-.2-.38-.15v.07l-.45-.3a2.63,2.63,0,0,1,1.06.15c.2.26.23.28.07.08.26,0,.41,0,.46-.23-.41-.15-.53-.35-.38-.61l.08.08c.15-.05.35.13.6.53s.56.71.76.76l-.23.23h0a3.83,3.83,0,0,1-.68.45q-.15.07-.15.15c-.2.15-.28.23-.23.23a.55.55,0,0,0,.68-.23c.05,0,.08,0,.08-.07a.45.45,0,0,1,.45-.08c0,.1,0,.15.08.15s.15,0,.15-.15c-.15,0-.28-.15-.38-.45h0a3.16,3.16,0,0,0,.76-.08h0a1.74,1.74,0,0,0,.45-.3,1.65,1.65,0,0,1-.45-.76.74.74,0,0,0-.68-.53c-.1,0-.2.15-.31.45v.08a.23.23,0,0,1-.22.15.5.5,0,0,0,0-.53c.35-.3.4-.38.15-.23q.07,0-.15.15a.69.69,0,0,0-.31-.37,1.74,1.74,0,0,0,.53-.46.91.91,0,0,1,1.07.08c0,.1-.08.17-.23.22a.53.53,0,0,0-.3.23c.1,0,.3.13.6.38s.33.13.38-.08c-.15,0-.23-.12-.23-.37s-.12-.33-.22-.38a1.38,1.38,0,0,1,.22-.31,2.07,2.07,0,0,0,.31-.37,3.33,3.33,0,0,1-1.75-.53,14.28,14.28,0,0,0-1.66-1.6,7.72,7.72,0,0,1-1.29,1.29,9.24,9.24,0,0,0-1.29,1.37.86.86,0,0,1,.46.15c.15,0,.22,0,.22-.08-.2-.05-.2-.23,0-.53h.31c.05,0,0-.1-.16-.15a1,1,0,0,1,.46-.23,1.14,1.14,0,0,0,.6.76c.46-.71.48-1,.08-1q.07-.61,1.14.6c-.31-.1-.48-.12-.53-.07s-.05.17,0,.37h-.23q-.07-.15-.15-.15a2.1,2.1,0,0,1-.68.68c-.36-.15-.53-.1-.53.16h.22a3.71,3.71,0,0,1-1.13,0,1.63,1.63,0,0,0-1.37.53.82.82,0,0,1,.68.15.75.75,0,0,0,.53.23c-.15-.31-.07-.48.23-.54a.71.71,0,0,1,.68.16.3.3,0,0,0-.15.3,7.14,7.14,0,0,0-1.51.68c-.05-.1,0-.28.15-.53s0-.15-.38-.15c0-.25-.23.05-.53.91.2,0,.23.1.08.3s0,.23.37.23c.16-.05.21-.13.16-.23a.69.69,0,0,1-.08-.53c.15.2.3.28.45.23a6.6,6.6,0,0,1,.69-.15c-.16.45-.11.73.15.83a2.32,2.32,0,0,0,.45.15,1,1,0,0,1,.38.15c-.15.15-.18.23-.07.23a.47.47,0,0,0,.37,0,.7.7,0,0,1,0,.46.47.47,0,0,0-.68-.16c-.2-.15-.2-.12,0,.08a.49.49,0,0,0-.22.23c.4,0,.47.1.22.3s-.33.38-.07.38c.05-.15.22-.28.53-.38,0,.51.07.83.07,1-.05.31-.28.36-.68.16q-.08,1.44-.3,1.59c.45.1.68.2.68.3a2.8,2.8,0,0,0-.45,2.35,1.23,1.23,0,0,1-.54.68.42.42,0,0,1-.68-.08,1,1,0,0,1-.3.69c.5,0,.71.12.61.38s-.08.58.07.68c-.3-.1-.53.05-.68.45s-.13.63.08.68c0-.45.1-.58.3-.37a.87.87,0,0,1,.38.68c-.2.15-.26.3-.15.45-.05,0,.07.15.37.46a.53.53,0,0,1-.22.07l-.15.08a.71.71,0,0,1-.38-.15.8.8,0,0,1,.22.68c-.1.25-.12.4-.07.45,0-.15.23-.27.53-.38a1.27,1.27,0,0,0-.15.91,5,5,0,0,1,0,1.22q.45.23.6.15c-.05,0,.16-.1.61-.31a.79.79,0,0,1-.3.31.61.61,0,0,0-.23.38,1.29,1.29,0,0,0,.38-.08l.23-.08c.15,0,.25.16.3.46l-.23.45a1.24,1.24,0,0,0-.15.46.9.9,0,0,0,.45,1,5.14,5.14,0,0,1-2.34-.45c-.11.45-.48.76-1.14.91V47.25c.45,0,.68-.07.68-.23a1.58,1.58,0,0,1-.68-.45v-3s0-.08,0-.08V38.08H390.17V26.8l.08.07c.2.1.28.15.23.15l-.31-.22V25.28q.22,0,0-.15V23.54h7.66c-.06.05,0,.07.3.07s.27,0,.23-.07h2.42c0,.1,0,.12,0,.07s0,0,.15-.07h1.21a1.15,1.15,0,0,0-.07.68c.05.15.23.3.53.45-1.06.51-1.57.71-1.52.61s.2.1.15.15-.17.13-.37.08c-.06.75.15,1.24.6,1.44a1.28,1.28,0,0,1,.3-1.37c0,.1.08.21.23.31s.23.12.23.22a.67.67,0,0,0-.76.38c.41,0,1,0,1.9-.07.1.5.1.73,0,.68l.3-.91a1.42,1.42,0,0,0-1,.15.9.9,0,0,0-.3-.61q-.37-.3-.3-.6a1,1,0,0,0,1,.3l.91-.15a2.48,2.48,0,0,1,.08-1,.57.57,0,0,0,.45,0c.1,0,0-.05-.23-.15a.22.22,0,0,0-.15.08,2.58,2.58,0,0,1,.31-.68h.3v-.15a.66.66,0,0,1,.3.07c.05-.2.23-.71.53-1.51a1.12,1.12,0,0,0-.07-1.06.88.88,0,0,1,1,.15c.2.15.28.22.23.22.1.06.15,0,.15-.07a.74.74,0,0,1-.08-.53c0-.05.11-.05.31,0,.55.1.91.07,1.06-.08-.61-.3-1.74-.15-3.41.46v-.61c0-.1.08-.12.08-.07h-.08V16.64a.5.5,0,0,0,0-.38v-.91c.1.16.15.21.15.16l-.15-.23V14.14h.08a.37.37,0,0,0-.08-.38V13c.3.05.43,0,.38-.23-.1,0-.13-.18-.08-.38s-.1-.38-.3-.38V10.73c.66-.1.93-.68.83-1.74h.15a.24.24,0,0,0,.16.23c.1,0,.17,0,.22-.23h.53a1.14,1.14,0,0,1-.07.3c.35-.1.5,0,.45.38s0,.61.23.61a1.23,1.23,0,0,1,.3-.91c-.2.05-.43-.08-.68-.38h7.5a.62.62,0,0,1,.08.23.24.24,0,0,1-.38.07.21.21,0,0,0-.3.16c.5.2.83.2,1,0-.2-.11-.28-.18-.23-.23a1.76,1.76,0,0,1,.38-.23h4.4v5.08l-.08.15-.08.15c.05-.1.1-.2.16-.3v9.47h2.27q.38.3.45,0h7.81l.3.15s-.08.4-.23,1.06c-.05.3,0,.33.23.08-.2.05-.35.53-.45,1.43s0,1.27.3.91q.07.76-.15,1a1,1,0,0,1-.38.15c.35.2.43.35.23.45-.36.21-.54.38-.54.54l.08.07a.34.34,0,0,0-.3.46.75.75,0,0,0,.68-.38c.3-.05.4-.08.3-.08.1,0,.15.08.15.23a1.15,1.15,0,0,1-.22.3l-.15.15.53.46a.3.3,0,0,0-.23.07c-.1.1-.18.15-.23.15a1.39,1.39,0,0,0-.45-.53c-.11.56-.08.91.07,1.06s.31.06.31-.3c.35,1.06-.08,1.74-1.29,2v.3a1.33,1.33,0,0,0-.08.3.35.35,0,0,0,.23.38.24.24,0,0,1,.38-.07.47.47,0,0,1,.3.38q.38.75-.3.9c-.71-.05-1.09.16-1.14.61a1.94,1.94,0,0,1-.68,1.36c.66-.15,1,0,1.06.38v.31c.05,0,.15,0,.3-.08v.3ZM391.08,26a.36.36,0,0,1,.31-.38c.25,0,.4-.12.45-.22a.75.75,0,0,1-.38-.31c-.1-.15-.2-.22-.3-.22-.26.05-.36.4-.31,1.06a.58.58,0,0,0,.16.45c.05.1.15.08.3-.08C391.11,26.21,391,26.11,391.08,26Zm1.37.38A2.82,2.82,0,0,1,392,26l-.45-.23v.45c0,.21.07.28.22.23s.08-.15.23-.15a.21.21,0,0,1,.23.23,1.05,1.05,0,0,0-.76.15q-.45.23,0,.45c.05-.15.13-.17.23-.07a1.15,1.15,0,0,0,.45.15A1.07,1.07,0,0,1,392.45,26.34Zm-.31,1.21c-.2.36-.22.56-.07.61,0-.2.22-.35.68-.46s.58-.07.53.08,0,.23-.23.23a.3.3,0,0,1-.23.07h-.22a.91.91,0,0,0-.23-.15c-.3.2-.35.33-.15.38s.33,0,.38-.15a.53.53,0,0,1,.22.07c-.2,0,.28-.27,1.44-.83a3.56,3.56,0,0,0-.68.08h-.38c-.2-.05-.38-.28-.53-.68C392.67,26.9,392.5,27.15,392.14,27.55Zm.38,1.37c-.1-.31-.18-.46-.23-.46C392.34,28.76,392.42,28.92,392.52,28.92Zm.46.3a2.24,2.24,0,0,0-.23-.53C392.85,29,392.93,29.22,393,29.22Zm.68,3.11.07-.46h-.37c0-.2.2-.2.45,0s.28.1.23-.15c-.21,0,0-.33.53-.83a5.87,5.87,0,0,1,.38-.46c.1-.15.05-.2-.16-.15-.05.25-.35.53-.9.83s-.66.56-.61.76a.32.32,0,0,0-.08.23v.23Zm.3.75q-.22-.37-.3,0c.15,0,.2.08.15.23a.22.22,0,0,0-.15.08.13.13,0,0,0,.15.15c.05-.2.15-.28.3-.23-.1.35-.07.51.08.45s.38-.17.38-.37C394.36,33.49,394.16,33.39,394,33.08Zm.23-1.13c-.1.25,0,.43.38.53s.58.2.53,0c0,0,0,0-.08-.08s.08-.15.23-.15a.21.21,0,0,1,.23.23c-.05,0-.11,0-.16.07s.05.1.16.15c.35-.35.27-.68-.23-1l-.46.53A.54.54,0,0,0,394.19,32ZM396,33.46c.05,0,0-.1-.23-.3a.73.73,0,0,0-1-.23c-.1.41.13.61.69.61a.64.64,0,0,1,.38.07s0,.21-.16.46c.31.1.46.2.46.3a.07.07,0,0,0-.08.08c-.05,0,0,.1.08.15a1.52,1.52,0,0,0,.23-.91c0-.4-.08-.5-.23-.3S396.06,33.51,396,33.46Zm-1,3.94c.1.3.18.46.23.46C395.15,37.55,395.07,37.4,395,37.4Zm.61-5.6v-.16a.59.59,0,0,1-.08-.22c.31,0,.28-.05-.07-.16-.21.06-.28.11-.23.16l.15.07C395.45,31.69,395.53,31.8,395.63,31.8Zm.07-7.43c-.1-.3-.17-.45-.22-.45C395.58,24.22,395.65,24.37,395.7,24.37Zm2.58,9.55a1.86,1.86,0,0,0-.23-.31c-.1,0-.18.08-.22.23.25,0,.25.2,0,.61s-.28.55-.08.6c.05-.2.15-.27.3-.22-.05.05,0,.1.08.15s.1,0,.15-.15c-.2,0-.28-.13-.23-.23C398.36,34.6,398.43,34.37,398.28,33.92ZM400,32.48a.8.8,0,0,0,.08-.61c-1.11-.1-1.59,0-1.44.38q.22,0,.15-.15c-.05-.1-.18-.13-.38-.08s-.28.46.08.76a1.66,1.66,0,0,0,1.28.23A1,1,0,0,1,400,32.48Zm.38,1.06c0-.35-.13-.51-.38-.46a2.53,2.53,0,0,1-.76,1.37.64.64,0,0,0-.68-.53c-.1.3,0,.43.23.38s.38.07.38.37a.55.55,0,0,0-.68.38c.25.15.32.18.22.08a2.17,2.17,0,0,1,1.06-.61,1.51,1.51,0,0,0,.91-.45C400.55,34,400.45,33.84,400.4,33.54Zm-1.14-2.88c.11,0,.16-.05.16-.15s0-.1-.16-.15q-.37.15-.15.6c.1.3.23.28.38-.07C399.29,30.84,399.21,30.76,399.26,30.66Zm-.07,4.47a1,1,0,0,1-.08.45,3.38,3.38,0,0,1,.53.08V35.2A1.06,1.06,0,0,0,399.19,35.13Zm.76-4.24c-.16,0-.23.12-.23.37s.07.33.23.38c0-.15.1-.22.3-.22a1,1,0,0,1,.38.22q.75-1.89.15-1.89a5,5,0,0,1-.3.83c-.15.31-.26.51-.31.61a.51.51,0,0,0-.15-.61c-.15-.2-.25-.17-.3.08C399.92,30.71,400,30.79,400,30.89Zm.6,2c.31-.36.23-.61-.22-.76a1.52,1.52,0,0,1-.23.76,1.29,1.29,0,0,0,.53.37q.53.24.15-.15C400.58,33.08,400.5,33,400.55,32.86Zm-.15-7.35c-.1-.36-.18-.53-.23-.53C400.22,25.28,400.3,25.46,400.4,25.51Zm.3,1.89c-.05-.3-.12-.45-.22-.45C400.58,27.25,400.65,27.4,400.7,27.4Zm.46-3c-.05-.35-.13-.53-.23-.53C401,24.19,401.11,24.37,401.16,24.37Zm-.08,7.35c0-.46-.05-.71-.15-.76C400.93,31.42,401,31.67,401.08,31.72Zm.23-2.35c-.1-.35-.18-.53-.23-.53C401.13,29.19,401.21,29.37,401.31,29.37Zm1.52-.07c-.16-.05-.23-.11-.23-.16l.38-.38c-.46.31-.79.36-1,.16l-.23-.23c-.15,0-.25.18-.3.53s-.07.56-.23.61a1.17,1.17,0,0,1,.69.3c0-.61.17-.91.53-.91a4.27,4.27,0,0,0-.15.68.83.83,0,0,0,.3.53c0-.3.2-.43.6-.38s.76,0,.91-.22A3.33,3.33,0,0,0,402.83,29.3Zm.37,3.25c.36.1.51.05.46-.15-.25,0-.38,0-.38-.15a1.15,1.15,0,0,1,.23-.38c.35-.45.35-.76,0-.91,0,.56-.13.76-.38.61a2.71,2.71,0,0,0-.83-.46v.46c0,.2.07.28.22.23.1-.31.18-.46.23-.46.3.2.33.51.08.91l-.23.3a.15.15,0,0,0,.07.23C402.62,32.58,402.8,32.5,403.2,32.55Zm-.15,4.17c.1.3.18.45.23.45C403.18,36.87,403.1,36.72,403.05,36.72Zm.84-8.11c.2-.25.15-.43-.16-.53a.44.44,0,0,1-.22.38.89.89,0,0,0-.31.3A.47.47,0,0,0,403.89,28.61Zm1.36-19.09c-.1,0-.15.08-.15.38h-.38v.23a.58.58,0,0,0,.61-.23C405.38,9.7,405.35,9.57,405.25,9.52ZM405,21.57h-.23v.83a.22.22,0,0,0,.15.08A.84.84,0,0,1,405,22a.81.81,0,0,0,.15-.45Zm-.23,31.06V50.51a.72.72,0,0,1,1-.38.22.22,0,0,0,.08.15q.08,0,.15-.15-.3-.08,0-.45a1.67,1.67,0,0,0-1.21.15v-.91a2.87,2.87,0,0,1,.83.22,1.13,1.13,0,0,0,.68.08c-.25,0-.3-.23-.15-.53s.31-.38.46-.38c0,.3.17.43.38.38a1.44,1.44,0,0,1,.75-.08c0,.41.16.61.46.61s.63.05.68.15c-.35,0-.53.15-.53.46q1.44.6,1.29.45a1.11,1.11,0,0,1,.53,1.14,1.1,1.1,0,0,1,.91.3c.15-.25.1-.43-.15-.53s-.33-.2-.23-.45a2.35,2.35,0,0,1,1.36.83,1,1,0,0,0-.53,0c-.15,0-.12,0,.08.15s.58.05.68.3a.47.47,0,0,1,0,.61Zm.23-2.05c.05.11.12.11.22,0a.25.25,0,0,0,.08-.3.19.19,0,0,0-.3,0A.18.18,0,0,0,405,50.58Zm.15-30.3q-.3.15.15.3l.45-.3c.21-.15.16-.28-.15-.38C405.55,20,405.4,20.08,405.1,20.28Zm1.74-1.67a.5.5,0,0,0-.23-.6,5.37,5.37,0,0,1-.68-.23c-.05.4-.23.56-.53.45q-.07-.45-.15-.45a1.56,1.56,0,0,1,0,.68,3.49,3.49,0,0,0-.15.91,1.15,1.15,0,0,0,.76-.15,1.34,1.34,0,0,0,.15.53c.15-.61.12-.88-.08-.83-.35.1-.53.1-.53,0C405.65,18.31,406.13,18.21,406.84,18.61ZM405.7,27c.05.15.13.23.23.23a1.68,1.68,0,0,0-.23-.45l.08-.08v-.15h-.53V27Zm.61.23q.07-.08-.15-.15c0,.2-.23.25-.68.15v.3a1.37,1.37,0,0,0-.08.31.34.34,0,0,0,.23.37.59.59,0,0,1,.07-.53c.05-.1.16-.12.31-.07a.24.24,0,0,1,.15.23c0,.15-.1.27-.3.37.5.16.75.08.75-.22a.64.64,0,0,0-.45-.68C406.26,27.33,406.31,27.3,406.31,27.25ZM406.23,17c.16,0,.23.05.23.15-.2,0-.28.07-.23.22.36.16.51,0,.46-.37s-.15-.58-.46-.53c0,.1-.05.22-.3.37s-.18.26.08.31C406,17,406.08,17,406.23,17Zm-.15-.84c-.1-.3-.17-.45-.22-.45C405.91,16,406,16.11,406.08,16.11Zm.31,10.46c.05-.05,0-.1-.16-.15s-.17,0-.22.15a.29.29,0,0,0,.22.3A.71.71,0,0,1,406.39,26.57Zm.22,7.8c0,.25.08.38.23.38,0-.25-.1-.38-.15-.38a1.32,1.32,0,0,0,.38-.38.28.28,0,0,0-.23-.38.62.62,0,0,1-.53.61q-.37,0-.15.15Q406.16,34.67,406.61,34.37Zm-.22,10.84c-.11-.31-.18-.46-.23-.46C406.26,45.05,406.34,45.21,406.39,45.21ZM406.76,27c.05,0,.05,0,0-.08-.05-.3-.17-.43-.37-.38-.16.26-.21.41-.16.46l.38-.23C406.66,26.87,406.71,27,406.76,27Zm-.53,10.15v.15c0,.25.18.35.38.3s.2-.32.15-.38l-.37.16C406.34,37.17,406.28,37.1,406.23,37.1Zm.53,8.86q.47.39.69,0a1.24,1.24,0,0,1-.61-.38,6.14,6.14,0,0,1-.53-.37Q406.24,45.59,406.76,46Zm-.22-29.77a1.87,1.87,0,0,0-.23-.53C406.36,16,406.44,16.19,406.54,16.19Zm.15,30.23c-.25-.05-.28,0-.08.22l.46.16c.1.1.2.05.3-.16Zm.15-13.49a.21.21,0,0,0-.23-.23,1.11,1.11,0,0,1-.07.31c-.05.05,0,.1.07.15A.21.21,0,0,0,406.84,32.93Zm.53-14.09q.15-.37-.3-.45c0,.1-.08.2-.23.3a1.61,1.61,0,0,0-.3.38,2.37,2.37,0,0,1,.6.38c.26.2.46.17.61-.08C407.45,19.27,407.32,19.09,407.37,18.84ZM406.92,40c-.05-.31-.13-.46-.23-.46C406.79,39.83,406.87,40,406.92,40Zm0-13.34c-.05-.3-.11-.45-.16-.45C406.81,26.49,406.87,26.64,406.92,26.64Zm.3,12.66h.23a.32.32,0,0,1,.07-.23c.1-.1.15-.18.15-.23h-.53c-.15,0-.2.2-.15.46Zm-.15,9.54c-.05,0,.05.2.3.46-.15.05-.23.1-.23.15h.16c.3-.05.42-.18.37-.38C407.37,48.87,407.17,48.79,407.07,48.84Zm.3-26.36c-.1-.31-.2-.46-.3-.46C407.17,22.33,407.27,22.48,407.37,22.48Zm-.23,20.83c.05.36.1.53.16.53C407.24,43.49,407.19,43.31,407.14,43.31Zm.46-29.77.3.38c0-.21.08-.28.23-.23s0,.15.07.15.16,0,.16-.15c-.31-.1-.43-.35-.38-.76h-.53a.32.32,0,0,1-.08.23.45.45,0,0,0-.15.22C407.42,13.38,407.55,13.44,407.6,13.54Zm.45,11.89a4.73,4.73,0,0,1-.6.83c0-.2-.08-.3-.23-.3v.61c0,.2,0,.33.15.38a1.83,1.83,0,0,0,.3-.46c.21,0,.23-.1.08-.15.4-.71.71-1,.91-1-.25-.05-.23-.16.07-.31s.31-.33,0-.38Zm-.68,4.85a1.34,1.34,0,0,0-.15-.53C407.27,30.1,407.32,30.28,407.37,30.28Zm0-12.58c.3.11.48-.05.53-.45s.13-.68.23-.68C408.58,16.57,408.33,17,407.37,17.7Zm.3-1.44q-.07-.45-.15-.45Q407.6,16.26,407.67,16.26Zm.08,18.34-.23.07c0,.06.05.08.15.08.31,0,.43-.18.38-.38l-.38-.23C407.62,34.19,407.65,34.35,407.75,34.6Zm.91-5.15q-.69-.07-.3.45h-.53a.35.35,0,0,0-.23.38A1,1,0,0,0,408.66,29.45ZM408,38.61c-.1-.3-.18-.45-.23-.45C407.8,38.46,407.88,38.61,408,38.61Zm.22-23.33c.11.05.21,0,.31-.15s-.08-.05-.38-.15q-.22-.15-.3.15C407.77,15.08,407.9,15.13,408.2,15.28Zm.08,12.2c-.3.05-.45.12-.45.22C408.13,27.6,408.28,27.53,408.28,27.48Zm-.15,12.12c-.05-.3-.13-.46-.23-.46C408,39.45,408.08,39.6,408.13,39.6Zm.38-4.4a.63.63,0,0,0,0-.6q.45-.08.45-.15c-.15-.36-.35-.33-.6.07s-.23.68.07.84A.27.27,0,0,1,408.51,35.2Zm0-6.51-.31.15c.51,0,.76.1.76.3a3.88,3.88,0,0,1,1.52-1.21l-.08-.07a.8.8,0,0,1,.3-.16c.16-.05.23-.12.23-.22V27.4c-.25,0-.35,0-.3-.07-.1.05-.15,0-.15-.16a2.18,2.18,0,0,0-.53.69,8.42,8.42,0,0,1-.53.68.47.47,0,0,0-.69,0A.23.23,0,0,1,408.51,28.69Zm.22,22.05c-.35,0-.45.22-.3.53.05-.21.15-.28.3-.23a1,1,0,0,0,.38.15,1.37,1.37,0,0,0,.31.08c.25,0,.4-.08.45-.38A2.45,2.45,0,0,0,408.73,50.74Zm-.22-2.2c.1.3.22.28.38-.08-.16,0-.23-.12-.23-.38s-.05-.32-.15-.37A.82.82,0,0,0,408.51,48.54Zm.22-16.67a.29.29,0,0,1-.22.08,2.32,2.32,0,0,0,.07,1.28c.1-.5.28-.8.53-.9a.22.22,0,0,0,.08.15.13.13,0,0,0,.15-.15c-.25-.36-.48-.53-.68-.53C408.76,31.85,408.78,31.87,408.73,31.87Zm.46,14.85c-.3-.2-.43-.18-.38.08.1,0,.18.1.23.3a.44.44,0,0,0,.38.23C409.57,47.07,409.49,46.87,409.19,46.72ZM409,35.66c-.15.05-.12.1.08.15A.22.22,0,0,1,409,35.66Zm.08,9.7c0,.15.12.35.22.6a1.73,1.73,0,0,1,.23.61c.31-.25.36-.51.15-.76,0-.05-.07-.15-.22-.3a1.46,1.46,0,0,1-.31-.38c.15,0,.26-.1.31-.3a1.61,1.61,0,0,1,.22-.38C409.14,44.6,408.94,44.9,409,45.36Zm2-31.44a.81.81,0,0,1-.31.3.61.61,0,0,0-.22.38.31.31,0,0,1,.38.15,1,1,0,0,1,.22.38c.05-.31.15-.46.31-.46a.93.93,0,0,1,.45.23.91.91,0,0,0,.46.23c.15,0,.25-.13.3-.38.71,0,.55-.25-.46-.76-.05.2-.1.23-.15.08a.47.47,0,0,1,.15-.31,2.08,2.08,0,0,0-1.66-.22,2.56,2.56,0,0,0-1.44.68A10,10,0,0,1,411,13.92Zm-1.82,14.16v.15c.2-.05.28-.15.23-.3A.91.91,0,0,1,409.19,28.08Zm.07,7.73q.32-.08,0-.15Zm1-23.18c-.15.25-.13.43.08.53.05-.2.22-.35.53-.46q-.08.54.45.15c.15,0,.23-.12.23-.22s-.08-.15-.23-.15c-.05.2-.13.27-.23.22a.78.78,0,0,0-.45-.75c-.05.2-.2.27-.46.22A.13.13,0,0,0,410,12s-.07,0-.07.15C410.25,12.22,410.35,12.38,410.25,12.63ZM410,36a.41.41,0,0,0,.31-.45C410.12,35.51,410,35.66,410,36Zm.23,2.2a.78.78,0,0,0,.76.45c.05,0,.07-.17.07-.38v-.3c-.5-.15-.73-.17-.68-.07s.23-.23.23-.53-.08-.28-.23.07A.56.56,0,0,0,410.25,38.16Zm.38-28.26c-.05-.3-.13-.45-.23-.45C410.5,9.75,410.58,9.9,410.63,9.9Zm2.2,16.67q0,.38.45.15a1,1,0,0,0-.23-.53.68.68,0,0,0-.45-.38,2.78,2.78,0,0,1,.91-1.44,2.5,2.5,0,0,0,.76-.3,1.15,1.15,0,0,1,.45-.15c-.3-.1-.33-.18-.08-.23.41,0,.58-.08.53-.23a.65.65,0,0,1-.45-.38s.08,0,.08-.07a5.44,5.44,0,0,1,1.59-1.82c-.15,0-.23,0-.23-.08a.39.39,0,0,0,.38.08c.15-.05.07-.18-.23-.38.05,0,.05,0,0,.08.15-.26.2-.43.15-.53a.23.23,0,0,1,.15.22h.46v-.45c-.15,0-.23-.05-.23-.15.15-.16.1-.26-.15-.31s-.35,0-.15.23h-.23v.38l-.07-.08c-.36.51-.71.74-1.07.69a1.75,1.75,0,0,0,.76-1.07,4.3,4.3,0,0,0-.07-.6v-.91h-.31a.59.59,0,0,0-.22-.08c-.26,0-.38-.07-.38-.22a.29.29,0,0,0,.22-.08c.11-.1.18-.15.23-.15a.94.94,0,0,0,.46.45c.3.16.48.11.53-.15-.21,0-.28-.27-.23-.68a.9.9,0,0,0-.68.15.42.42,0,0,0,.07-.53l-.22-.68a.5.5,0,0,1-.53,0,.91.91,0,0,1,.15-.23.28.28,0,0,0-.38,0c-.1-.05-.18,0-.23.15h.08l-.08.16a1,1,0,0,1-.23-.38c.21,0,.38-.15.53-.46l-.3-.15a.43.43,0,0,0-.23-.38c.05,0,.08,0,.08-.07.3.15.3.12,0-.08v-.08a3.13,3.13,0,0,1-.45-1.28c-.11-.61-.26-1-.46-1.06.15-.16.18-.26.08-.31.25.05.38,0,.38-.15a.64.64,0,0,1-.46-.68c.3.1.56-.15.76-.76a2,2,0,0,0,.07-.45q0-.15-.15,0c0,.2-.07.28-.22.22s-.23-.07-.54-.37-.32-.11-.37.15v.3a1.56,1.56,0,0,1,0,.68c-.06.71-.23.86-.53.46.05.15.22.58.53,1.28.15.46.05.66-.31.61.15,0,.2.13.15.23s0,.23.16.23c0-.16.1-.13.3.07.35.25.55.41.61.46a.34.34,0,0,0-.38.07c-.11.15-.08.25.07.3-.2.16-.18.36.08.61a.62.62,0,0,0-.23-.08,1.14,1.14,0,0,0-.15.23c-.1-.2-.18-.3-.23-.3s-.1,0-.15.15c.2.1.23.33.08.68l-.38.76h.38a.83.83,0,0,0,.22.15l.15.08c.11,0,.23,0,.38-.15-.25.3-.27.48-.07.53s.2.2.45.15c.05,0,.08,0,.08.07l-.23.15-.23.23c-.2.26-.15.43.16.53v-.15a.21.21,0,0,0,.07-.15,1,1,0,0,1,.08.45.86.86,0,0,0-.15.31,3.69,3.69,0,0,1-.23.6.5.5,0,0,0,.68.08.91.91,0,0,0,.53-.61h-.08a1.44,1.44,0,0,1,.46.08.56.56,0,0,0,.07.23.83.83,0,0,0,.16.22c-.36-.3-.56-.35-.61-.15a1.82,1.82,0,0,0,.23.76v.08a1.68,1.68,0,0,0-.61-.31c-.3-.05-.48,0-.53.23a4.42,4.42,0,0,0,.68.38,3.67,3.67,0,0,1-2.88-.53c-.3.3-.45.43-.45.38-.15.1-.33,0-.53-.15a1.4,1.4,0,0,1-.23.68c.41-.05.53,0,.38.22s-.08.31.08.31c-.21.35.1.53.91.53.05.3.12.45.22.45q-.08-.45-.15-.45a.32.32,0,0,0,.23-.08c-.2-.65-.18-1,.07-1,.81-.15,1.19-.23,1.14-.23a1.14,1.14,0,0,0,.68.76,1.48,1.48,0,0,1,.84-.68c.1.1.15.17.15.22-.46,0-.58.08-.38.23l.3.3a.81.81,0,0,1,.3.15,1,1,0,0,0-1,.46q.22.15.15.3l-.15-.07v.3c-.2.15-.3.28-.3.38s.15.18.45.23c0-.05.05-.1.15-.16a.57.57,0,0,1,.23.23c-.15.1-.35.23-.61.38a2.5,2.5,0,0,0-.6.38,2.44,2.44,0,0,0-1.14-.91c-.55-.3-.78-.33-.68-.08a.73.73,0,0,1,.45.53c-.25-.2-.37-.17-.37.08s-.13.4-.38.3c.3.26.35.46.15.61s-.28,0-.38-.38a1.71,1.71,0,0,0,.15,1.21,2.55,2.55,0,0,1,.38,1,2.27,2.27,0,0,0,.53-.08.49.49,0,0,1,.45-.07.86.86,0,0,1-.07-.38C412.7,26,412.77,26.21,412.83,26.57Zm-2.35,16.51a3.17,3.17,0,0,0,1.21-.6A1.08,1.08,0,0,0,410.48,43.08Zm.6-20.68c-.2-.3-.38-.3-.53,0,.1.05.15.2.15.46s.13.35.53.3A1.15,1.15,0,0,0,411.08,22.4ZM410.86,12c-.05-.3-.13-.45-.23-.45C410.73,11.87,410.81,12,410.86,12Zm1.21,21.37c0-.16.12-.23.38-.23a.58.58,0,0,0,.38-.23.66.66,0,0,0-.61,0,.49.49,0,0,0-.3.23,1,1,0,0,0-.23-.46c-.1.31-.18.46-.23.46,0-.35-.15-.51-.45-.46a2.15,2.15,0,0,0,.07.53c.05.11,0,.23-.15.38.51,0,.68.31.53.76s-.2.68-.15.68a3.28,3.28,0,0,0,.61-1.74A.22.22,0,0,0,412.07,33.39Zm-.53-20.23c-.05.15-.08.2-.08.15s.05.1.15.15.21-.08.16-.23c.2-.05.27-.1.22-.15a.44.44,0,0,0-.3-.07h-.08C411.46,13.06,411.44,13.11,411.54,13.16Zm.38,18.33c.05,0,0-.1-.08-.15s-.23.05-.23.15a.22.22,0,0,0,.16.31A.79.79,0,0,1,411.92,31.49Zm.15-12.5a.3.3,0,0,1,.15.3c0,.36-.08.56-.38.61,1.47-.35,2.1-.35,1.9,0-.36-.15-.56-.35-.61-.61s.07-.37.38-.37c-.1,0-.2-.1-.31-.31a.3.3,0,0,0-.37-.15c.1.56-.11.71-.61.46a2.46,2.46,0,0,0-.45-.16c-.06,0,0,.13.07.38C411.94,19,412,19,412.07,19Zm.15,13.26.3-.3c-.2-.1-.4,0-.6.22s-.15.48.15.53A.61.61,0,0,1,412.22,32.25Zm-.38,9.47c.1.3.18.45.23.45C412,41.87,411.89,41.72,411.84,41.72Zm.76-5.15c-.3.1-.46.18-.46.23C412.45,36.75,412.6,36.67,412.6,36.57Zm-.23,2.88c-.2.15-.15.28.15.38a.3.3,0,0,1,.23-.31.48.48,0,0,0,.3-.22A.59.59,0,0,0,412.37,39.45Zm1.37-6.29c.05.1.22.2.53.3a1.14,1.14,0,0,1,.45.38c0-.15.08-.2.23-.15a.14.14,0,0,0,.22-.08c-.2-.2-.17-.22.08-.07.45.15.66.1.61-.15-.16,0-.21-.08-.16-.23s0-.23-.07-.23c0,.81-.15.89-.46.23q-.3-.22-.45-.15a.94.94,0,0,1-.53.15c-.1.6-.25.38-.45-.68a2.35,2.35,0,0,1-.54-.08c-.3-.1-.43-.15-.37-.15-.06-.25-.13-.38-.23-.38a.81.81,0,0,0-.15.3q-.15.84.45.69a2.48,2.48,0,0,0-.07-.61s.07.13.22.23.38.3.38.45a6.16,6.16,0,0,1-.15.68c.25.11.33.11.23,0C413.61,33.31,413.68,33.16,413.74,33.16Zm.37,1.51a1.17,1.17,0,0,1,.38-.53.94.94,0,0,1-.68-.3.64.64,0,0,0-.23.38l.08.15a.62.62,0,0,1,.08.23c-.16.1-.23.2-.23.3A.42.42,0,0,0,413,35a1.17,1.17,0,0,1-.38.91.23.23,0,0,0-.15.22,1,1,0,0,0,1.06-.3,4.56,4.56,0,0,0,.53-1A.25.25,0,0,1,414.11,34.67Zm-.68-7.12q.3-.23-.15-.3c.05.1-.08.23-.38.38q-.22.23.15.3C413.05,27.88,413.18,27.75,413.43,27.55Zm-.45-8q-.15-.07-.15.15a.13.13,0,0,0,.15.15.3.3,0,0,0,.3-.15A.77.77,0,0,1,413,19.52Zm.15-7a.22.22,0,0,1-.08-.15v.15Zm.07,40.08-.07-.08Zm.31-15.23v.76c.45-.1.68-.2.68-.3-.2.1-.38,0-.53-.31s-.18-.43.08-.38c-.06.16.05.31.3.46s.38.07.38-.23a.78.78,0,0,0-.91-.3c-.41.1-.48.28-.23.53A.21.21,0,0,1,413.51,37.4Zm-.23-26.74c.1.3.18.45.23.45C413.41,10.81,413.33,10.66,413.28,10.66Zm0,29.17c.1.3.18.45.23.45C413.41,40,413.33,39.83,413.28,39.83Zm.23,12.27a1.5,1.5,0,0,0,.45.53h.53l-.53-.38a.54.54,0,0,1-.3-.6A.38.38,0,0,0,413.51,52.1Zm0-37.28H414c-.25-.15-.36-.2-.3-.15C413.63,14.62,413.56,14.67,413.51,14.82Zm.23,14.78c-.11-.3-.18-.46-.23-.46C413.61,29.45,413.68,29.6,413.74,29.6Zm.45,14.09a.64.64,0,0,0,.23-.38.52.52,0,0,0-.38.15l-.3.38c-.11-.35-.18-.53-.23-.53a.7.7,0,0,0,.45.76A1,1,0,0,1,414.19,43.69Zm-.61-27h.23a.21.21,0,0,1-.07-.15.21.21,0,0,0-.16.07C413.63,16.69,413.63,16.72,413.58,16.72Zm.31,0c.25,0,.27-.1.07-.15C414,16.67,413.94,16.72,413.89,16.72Zm.53,2.57a.71.71,0,0,0-.31.08.81.81,0,0,0-.15.3A1,1,0,0,0,414.42,19.29Zm.22,5.69c-.05-.31-.2-.43-.45-.38a2.09,2.09,0,0,0-.15.45,1.13,1.13,0,0,0,.38-.22l.15.22C414.62,25.05,414.64,25,414.64,25Zm1.06,25.38a1.79,1.79,0,0,1-.68-.76.22.22,0,0,0,.15-.08q0-.08-.15-.15a.21.21,0,0,1-.3.15.64.64,0,0,0-.45-.22,1.45,1.45,0,0,1-.23.75.32.32,0,0,0,.45.08,3.59,3.59,0,0,0,.46-.3.9.9,0,0,1-.08,1.44h.38a1.14,1.14,0,0,0,.3.07c.1-.45.2-.68.31-.68a.21.21,0,0,0,.07.15.13.13,0,0,0,.15-.15c.05,0,0,0-.07-.08.25,0,.2-.12-.15-.37Zm-1.59-39.17c-.05.05,0,.1.08.15a.23.23,0,1,0,0-.46A1.25,1.25,0,0,1,414.11,11.19Zm1,33.48c-.05-.1-.1-.07-.15.08-.61.15-.86.3-.76.46s.48,0,1-.23A.49.49,0,0,0,415.1,44.67ZM415,30.28h-.53c-.15,0-.23.13-.23.23a1,1,0,0,1,.38.22A1.46,1.46,0,0,0,415,31ZM414.34,28c-.1-.05-.07,0,.08.15-.1.3.07.38.53.23.15,0,.22,0,.22-.08s0-.15-.22-.15A1.77,1.77,0,0,1,414.34,28Zm.46-.68c-.16-.11-.28,0-.38.15a2,2,0,0,1,.45.07,2.54,2.54,0,0,0,.38.08l.15.15q.38-.15.15-.3c-.2-.1-.33-.1-.38,0Zm.15,12h-.53v.45H415Zm1.74,10.3h0q-.22.23-.3-.15.3,0,.3-.15a.25.25,0,0,0-.3-.08c-.05-.25-.15-.4-.31-.45-.1.3-.38.37-.83.22s-.78-.17-.83.08c.91.25,1.36.48,1.36.68-.1-.1-.13-.12-.08-.07q-.37.15-.15.3a.28.28,0,0,0,.38,0,.62.62,0,0,0,.23-.08c0,.2.08.31.23.31s.15-.23.45-.38c.2.2.2.17,0-.08.4-.2.51-.35.3-.45S416.89,49.35,416.69,49.6Zm-2.12,2c-.15-.21-.18-.21-.08,0Zm.76-3.72c0-.1-.11-.15-.31-.15-.25-.2-.4-.18-.45.08a.23.23,0,0,0,.15.22c0,.05.13,0,.23-.07C415.2,48.06,415.33,48,415.33,47.93Zm-.08,4.7a.93.93,0,0,0,.38-.76,1.69,1.69,0,0,0-1,.61c0,.05,0,.07.08.07h-.08l-.07.08ZM415,29.37q.07,0,.15-.15s-.05-.08-.15-.08a.36.36,0,0,0-.23.53c.15.31.3.28.45-.07C415,29.6,414.9,29.52,415,29.37Zm1.66,6.36c-.05.21-.15.28-.3.23a.3.3,0,0,0-.23.31c.36,0,.48.22.38.53a2.11,2.11,0,0,0-.38.83,1.78,1.78,0,0,1,.76.53.82.82,0,0,0-.3.07.71.71,0,0,1-.23.16c.1-.26,0-.43-.3-.53a.56.56,0,0,1-.15-.69.78.78,0,0,0-.76.53,7.73,7.73,0,0,0-.38.91c.4-.1.61.08.61.53s.15.86.3.91c.1-.25.3-.25.61,0a3.15,3.15,0,0,1,.3.38c.15.2.25.31.3.31A9.32,9.32,0,0,0,416.61,35.73Zm-1.13,6.82a.13.13,0,0,0,.15-.15,1.08,1.08,0,0,0-.61-.15c-.3,0-.33,0-.07.15,0,.2.07.28.22.23,0-.2.08-.28.23-.23A.22.22,0,0,0,415.48,42.55ZM415,10.28q-.07-.15-.15-.15a1.09,1.09,0,0,0,.15.45.28.28,0,0,0,.22.3c-.05-.45-.12-.7-.22-.75v.15Zm.6,20.61c0-.05-.05-.08-.15-.08-.4.61-.48,1.06-.23,1.36.26-.4.36-.58.31-.53a1,1,0,0,0-.08-.6Q415.48,31,415.55,30.89Zm2.2-6.06c-.05,0,0-.13.08-.23a.56.56,0,0,1,.91,0V23.46c-.26-.1-.43-.05-.53.15s-.31.31-.46.31a.65.65,0,0,0-.08-.53.86.86,0,0,1-.15-.46c.31-.05.46-.12.46-.23-.51-.05-.76.08-.76.38s-.18.56-.38.61a1.23,1.23,0,0,1-.15-.53,3.56,3.56,0,0,0-.08-.68H416a.55.55,0,0,0-.38.22c-.05-.05.35.51,1.21,1.67-.4,0-.6,0-.6.08s-.06.12,0,.22a1.28,1.28,0,0,1,.07.38c-.15.2-.45.28-.91.23-.3-.05-.38,0-.23.08,0,.3.18.35.53.15s.43-.13.38.07c.1.15-.05.23-.45.23s-.3.13,0,.23a.87.87,0,0,1,.61-.08.76.76,0,0,0-.23.15l.23-.15a.67.67,0,0,0,.6-.38c-.35-.1-.53-.17-.53-.22.51.05.76.12.76.22-.2.1-.2.46,0,1.06s.35.81.45.61a1.32,1.32,0,0,1,0-1.36,2.68,2.68,0,0,1,.69-.84A.51.51,0,0,1,417.75,24.83Zm-1.59,9.62q0,.52-.3.6a1,1,0,0,0-.69-.68c-.1.3,0,.53.38.68s.28.33.08.68c.4.06.71-.17.91-.68a1.09,1.09,0,0,0-.23-1.21C416.21,33.89,416.16,34.09,416.16,34.45Zm-.53,2c-.05.2,0,.33.15.38s.25.05.3-.15c-.1,0-.17-.13-.22-.38a.55.55,0,0,0-.23-.38c.05.1-.05.26-.3.46s-.18.25.07.3C415.4,36.52,415.48,36.44,415.63,36.49Zm.45-24.92a.64.64,0,0,0-.68.45A.56.56,0,0,0,416.08,11.57Zm0,18.33c.41.2.66.1.76-.3a3.34,3.34,0,0,1-.68-.53.52.52,0,0,0-.76.07A.94.94,0,0,0,416.08,29.9Zm-.45,8.26c.1.3.18.45.23.45C415.75,38.31,415.68,38.16,415.63,38.16Zm.45-8.79c-.1.05-.1.13,0,.23a.34.34,0,0,0,.31,0c.1-.05.07-.13-.08-.23S416.18,29.27,416.08,29.37Zm.16-12.2c-.11-.35-.18-.53-.23-.53C416.06,17,416.13,17.12,416.24,17.17Zm.53-1.66-.16-.38c.16-.05.23-.1.23-.15h-.15c-.3,0-.43.17-.38.37C416.56,15.51,416.71,15.56,416.77,15.51Zm0,6.66c.05.36.15.53.3.53-.05-.2.05-.32.3-.37s.38-.16.38-.31c-.4.05-.58-.17-.53-.68V21c-.05-.1-.18-.07-.38.08.25.1.25.22,0,.38s-.53.27-.53.37C416.56,21.74,416.71,21.87,416.77,22.17Zm-.38-4.77c.1.3.17.45.22.45C416.56,17.55,416.49,17.4,416.39,17.4Zm.07-5.76s0,.1.15.15.16-.07.16-.22a.26.26,0,0,0-.16-.23A.77.77,0,0,1,416.46,11.64Zm.38,29.78c-.1-.31-.18-.46-.23-.46C416.66,41.27,416.74,41.42,416.84,41.42Zm-.07-25.16c.05.31.1.46.15.46C416.87,16.42,416.82,16.26,416.77,16.26Zm.53-1.36c-.11-.3-.18-.45-.23-.45C417.17,14.75,417.24,14.9,417.3,14.9Zm0,14.47c-.11-.3-.18-.45-.23-.45C417.17,29.22,417.24,29.37,417.3,29.37ZM417.07,32a1.61,1.61,0,0,0,.23.53C417.19,32.12,417.12,32,417.07,32Zm.23-.91c.1.3.17.45.22.45C417.42,31.19,417.35,31,417.3,31Zm.45-10.46c-.1-.3-.18-.45-.23-.45C417.62,20.43,417.7,20.58,417.75,20.58ZM421,25.81q-.08-.45-.15-.45Q420.94,25.81,421,25.81Zm3.18,10.46a.22.22,0,0,0,.08.15q.08,0,.15-.15c-.1-.26-.31-.33-.61-.23s-.25.3.15.45C424,36.29,424,36.22,424.19,36.27Zm.08,1.36h-.08c-.3-.25-.48-.35-.53-.3s.08.15.23.3a1.21,1.21,0,0,0,.38.38c.15,0,.2-.13.15-.38Zm-.16-.68c-.05.35.05.5.31.45a.77.77,0,0,1,.15-.3.86.86,0,0,0,.08-.38C424.34,36.52,424.16,36.59,424.11,37Zm.38-3.26-.07.15A.21.21,0,0,0,424.49,33.69Zm.76-3c0-.05-.13,0-.38.15,0-.1,0-.15-.07-.15s-.15,0-.15.15a.23.23,0,0,1,.22.15,1.66,1.66,0,0,0,.23.3A2.45,2.45,0,0,1,425.25,30.66ZM425,36.87l.53.53c-.1-.15-.05-.35.16-.6s.05-.31-.16-.31S425,36.77,425,36.87Zm1.75-5.38a.21.21,0,0,0-.23-.23.73.73,0,0,1-.15.31q-.08.08.15.15C426.64,31.72,426.72,31.64,426.77,31.49Zm.75.23c-.1-.3-.2-.46-.3-.46C427.32,31.57,427.42,31.72,427.52,31.72Zm.61,2.88q.08-.08-.15-.15c-.1-.05-.18,0-.23.15a.3.3,0,0,0,.23.3A.77.77,0,0,1,428.13,34.6ZM431,38.08c-.51-.3-.78-.6-.83-.91.35-.45.45-.8.3-1.06a2.33,2.33,0,0,0,.3-.22,9.55,9.55,0,0,0,2.65-1.29,2.11,2.11,0,0,0-1.06.15,5.31,5.31,0,0,1-1.29.15.43.43,0,0,0-.15-.3.56.56,0,0,1-.07-.23.23.23,0,0,1,.22.15.76.76,0,0,1,.23.15c0-.65.18-.8.53-.45a.66.66,0,0,1,0-1s.05-.07.31-.22c.05-.1.05-.18,0-.23-.61,0-.91,0-.91-.08-.31-.05-.46-.2-.46-.45a.66.66,0,0,0,.83.15.92.92,0,0,0,.38-.53c0,.1.08.18.23.23l.23.23q.07-.07.15.15v.22a.58.58,0,0,0,.08.31,1.13,1.13,0,0,0,1.06.91c-.05-.51-.11-.76-.16-.76-.1.35-.27.5-.53.45.21-.35.23-.6.08-.75l-.45-.69a1.09,1.09,0,0,0,.83-.15c.15-.15.12-.33-.08-.53a1.23,1.23,0,0,0,.38-.07V34.9a.71.71,0,0,0,0,.46v2.72h-.68l-.23-.22H433c.25,0,.33-.1.23-.16a.54.54,0,0,0-.31-.07c0-.05.13-.2.38-.46a.9.9,0,0,0,.15-.68,2,2,0,0,1-.53.38c-.2.15-.33.25-.38.3s-.17.46-.07.91H432a1.23,1.23,0,0,0-.45-.38c-.2,0-.28,0-.23.16a2.33,2.33,0,0,0,.3.22ZM430.55,36l.16-.07a.76.76,0,0,1-.46-.16,1,1,0,0,1,.23.38C430.58,36,430.6,36,430.55,36Zm-.07-6.13c.2-.31.25-.53.15-.69a.15.15,0,0,0-.23-.07c.05.4,0,.58-.07.53A.91.91,0,0,0,430.48,29.83Zm-.15,4.77c.1.3.17.45.22.45C430.5,34.75,430.43,34.6,430.33,34.6ZM430.78,24v.15c.05.05,0,0-.15-.07a.75.75,0,0,0-.15.53,1.34,1.34,0,0,0,.07.53.72.72,0,0,1,.46-.46,1,1,0,0,0,.38-.45A.64.64,0,0,0,430.78,24Zm.68,13a.22.22,0,0,0,.08-.15s0,.05-.15.15c-.56.1-.81.1-.76,0,.66-.25.73-.1.23.46A3.9,3.9,0,0,0,431.46,37Zm-.38-5.91c-.05-.35-.12-.53-.22-.53A1.83,1.83,0,0,0,431.08,31.11Zm1.37-1.81c-.1.35-.43.48-1,.37.05.16.08.21.08.16h-.08a.21.21,0,0,0-.07.15v.15q.3.07,0,.15a.23.23,0,0,0,.22.15c.05-.3.18-.35.38-.15s.38.18.38-.08q-.45-.15-.15-.45c.3-.25.46-.4.46-.45C432.37,29.19,432.3,29.19,432.45,29.3Zm-1-.38h.38a.21.21,0,0,0-.3-.16Zm.08-3.41c-.05,0,0,0,.23-.08h.07A1.33,1.33,0,0,1,431.54,25.51ZM433,27.25a2,2,0,0,0-.68.3l-.08-.07c-.05.1-.23.12-.53.07.1-.1.08-.22-.08-.38.05-.1.05-.17,0-.22a1.24,1.24,0,0,0,.46.15,12.82,12.82,0,0,0,0-3.56h.45c0,.1.13.28.38.53s.1.17-.15.22-.18-.07-.23-.22a1,1,0,0,0-.15-.31c.61-.2.73.13.38,1-.2,0-.28-.08-.23-.23a1.06,1.06,0,0,1,.91.31,1.52,1.52,0,0,0-.6-1.29h.45a1.91,1.91,0,0,0,.53.6v1.37q-.07-.15-.15-.15a1.14,1.14,0,0,1-.3.68h.45v.76a.36.36,0,0,1-.45.22c-.05,0,0,.23.15.68C433.36,27.35,433.18,27.2,433,27.25Zm-1.37,2c0,.05.05.1.16.15a.22.22,0,0,0,.15.08V29Zm.46,8.33c-.1,0-.15,0-.15.08s0,.15.07.15a.36.36,0,0,0,.23-.53c-.1-.3-.23-.28-.38.08C432,37.33,432.07,37.4,432.07,37.55Zm.15-9.24v.45a2.31,2.31,0,0,1,.46.08l.07-.53Zm1.36,8.18c-.1.26-.07.15.08-.3A.67.67,0,0,0,433.58,36.49Zm.23-9.09-.07.08h.07Z"/></g></g></svg>