<?xml version="1.0" encoding="utf-8"?>
<!-- Generator: Adobe Illustrator 24.2.0, SVG Export Plug-In . SVG Version: 6.00 Build 0)  -->
<svg version="1.1" id="Camada_1" xmlns="http://www.w3.org/2000/svg" xmlns:xlink="http://www.w3.org/1999/xlink" x="0px" y="0px"
	 viewBox="0 0 478.4 478.4" style="enable-background:new 0 0 478.4 478.4;" xml:space="preserve">
<style type="text/css">
	.st0{fill:#65140F;}
	.st1{fill:#FFFFFF;}
</style>
<g id="Camada_2_1_">
	<g id="Camada_1-2">
		<circle class="st0" cx="239.2" cy="239.2" r="239.2"/>
		<path class="st1" d="M122.9,288.3l12-29.7h0.2l12.1,29.7h-2.2l-10.5-26.6l1.4-0.8l-11,27.4H122.9z M128.7,277h12.6l0.6,1.9h-13.7
			L128.7,277z"/>
		<path class="st1" d="M164.6,286.8c-0.7,0.6-1.6,1.1-2.4,1.4c-2.4,0.8-5,0.6-7.1-0.6c-1.2-0.7-2.3-1.7-3-2.9
			c-0.7-1.3-1.1-2.7-1.1-4.2c0-1.5,0.4-2.9,1.1-4.2c0.7-1.2,1.8-2.2,3-2.9c1.2-0.7,2.7-1.1,4.1-1.1c1,0,2.1,0.2,3.1,0.5
			c0.9,0.3,1.7,0.8,2.4,1.4l-1,1.3c-0.6-0.5-1.3-0.9-2-1.1c-0.8-0.3-1.6-0.4-2.4-0.4c-1.1,0-2.3,0.3-3.2,0.9c-2,1.2-3.2,3.4-3.2,5.7
			c0,1.2,0.3,2.3,0.9,3.3c0.6,1,1.4,1.8,2.4,2.4c1,0.6,2.2,0.9,3.4,0.9c0.8,0,1.5-0.1,2.2-0.4c0.7-0.2,1.3-0.6,1.9-1L164.6,286.8z"
			/>
		<path class="st1" d="M168.4,280.4c0-1.5,0.4-2.9,1.1-4.2c0.7-1.2,1.8-2.3,3-3c2.7-1.5,5.9-1.5,8.6,0c1.3,0.7,2.3,1.7,3,3
			c1.4,2.6,1.4,5.8,0,8.4c-0.7,1.3-1.7,2.3-3,3c-1.3,0.7-2.8,1.1-4.3,1.1c-1.5,0-3-0.3-4.3-1.1c-1.2-0.7-2.3-1.7-3-2.9
			C168.7,283.4,168.3,281.9,168.4,280.4z M170.3,280.4c0,1.2,0.3,2.3,0.9,3.4c0.6,1,1.4,1.8,2.3,2.4c2,1.2,4.5,1.2,6.6,0
			c1-0.6,1.8-1.4,2.3-2.4c1.2-2.1,1.2-4.6,0-6.7c-0.6-1-1.4-1.8-2.3-2.4c-1-0.6-2.1-0.9-3.3-0.9c-1.2,0-2.3,0.3-3.3,0.9
			c-1,0.6-1.7,1.5-2.3,2.5C170.5,278.1,170.2,279.3,170.3,280.4L170.3,280.4z"/>
		<path class="st1" d="M192.4,272.6l0.2,4.4l-0.3-0.4c0.5-1.3,1.5-2.5,2.7-3.2c1.2-0.8,2.6-1.2,4.1-1.2c0.8,0,1.6,0.2,2.4,0.5
			c0.7,0.3,1.3,0.8,1.7,1.4c0.4,0.6,0.7,1.3,0.8,2l-0.2,0.2c0.5-1.3,1.5-2.3,2.6-3c1.2-0.7,2.5-1,3.9-1c1.3-0.1,2.6,0.4,3.6,1.3
			c0.9,0.9,1.4,2.1,1.4,3.4v11.4h-1.9v-11c0-0.9-0.3-1.7-0.9-2.4c-0.7-0.7-1.6-1.1-2.6-1.1c-1,0-2,0.3-2.9,0.8
			c-0.9,0.5-1.6,1.3-2.1,2.1c-0.6,0.9-0.9,1.9-0.9,3v8.6H202v-11c0-0.9-0.3-1.7-0.9-2.4c-0.7-0.7-1.6-1.1-2.6-1.1
			c-1.1,0-2.1,0.3-3,0.8c-1.8,1.1-3,3.1-2.9,5.3v8.4h-1.9v-15.9H192.4z"/>
		<path class="st1" d="M231,288.6c-1.5,0-3-0.4-4.2-1.2c-1.2-0.7-2.2-1.8-2.9-3.1l0.3-0.7v12.2h-1.9v-23.4h1.7l0.2,5.1l-0.4-1.2
			c0.7-1.3,1.7-2.3,3-3.1c1.3-0.8,2.8-1.2,4.4-1.2c1.4,0,2.8,0.4,4,1.1c1.2,0.7,2.2,1.7,2.9,3c0.7,1.3,1.1,2.8,1.1,4.3
			c0,1.5-0.4,3-1.1,4.2c-0.7,1.2-1.8,2.2-3,2.9C233.8,288.3,232.4,288.6,231,288.6z M230.7,287.1c1.2,0,2.3-0.3,3.4-0.9
			c1-0.6,1.8-1.4,2.4-2.4c0.6-1,0.9-2.2,0.9-3.4c0-1.2-0.3-2.4-0.9-3.4c-0.6-1-1.4-1.8-2.3-2.4c-1-0.6-2.1-0.9-3.3-0.9
			c-2.2,0-4.3,1.1-5.5,3c-0.6,0.9-1,2-1.1,3.1v1.3c0.1,1.1,0.4,2.1,1,3c0.6,0.9,1.4,1.6,2.3,2.1
			C228.5,286.8,229.6,287.1,230.7,287.1L230.7,287.1z"/>
		<path class="st1" d="M251.4,288.6c-1.4,0-2.8-0.3-4.1-1c-1.2-0.7-2.2-1.7-2.9-2.9c-1.4-2.8-1.4-6,0.1-8.8c0.7-1.2,1.8-2.2,3.1-2.9
			c1.4-0.7,2.9-1,4.4-1c1.4,0,2.8,0.4,3.9,1.2c1.2,0.8,2.1,1.8,2.7,3.1l-0.3,0.6l0.2-4.5h1.7v15.7h-1.9v-4.9l0.4,0.7
			c-0.2,0.6-0.6,1.1-1,1.6c-0.5,0.6-1.1,1-1.7,1.5c-0.7,0.4-1.4,0.8-2.2,1C253,288.5,252.2,288.6,251.4,288.6z M251.8,287
			c1.1,0,2.2-0.2,3.2-0.8c0.9-0.5,1.7-1.2,2.3-2.1c0.6-0.9,0.9-2,1-3v-2.3c-0.2-1-0.6-1.9-1.3-2.6c-0.6-0.8-1.4-1.4-2.3-1.9
			c-2-1-4.3-0.9-6.2,0.1c-1,0.5-1.8,1.3-2.4,2.3c-0.6,1.1-0.9,2.3-0.9,3.5c0,1.2,0.3,2.3,0.9,3.4c0.6,1,1.4,1.8,2.4,2.4
			C249.5,286.7,250.6,287,251.8,287L251.8,287z"/>
		<path class="st1" d="M269,272.6l0.2,4.9l-0.2-1c0.5-1.3,1.4-2.5,2.6-3.2c1.3-0.8,2.7-1.2,4.2-1.2c1.3-0.1,2.6,0.4,3.6,1.3
			c0.9,0.9,1.4,2.1,1.4,3.4v11.4h-1.9v-10.9c0-0.9-0.4-1.8-1-2.5c-0.7-0.7-1.7-1-2.7-1c-1,0-2,0.3-2.9,0.8c-0.9,0.5-1.7,1.2-2.2,2.1
			c-0.6,1-0.9,2.1-0.8,3.2v8.4h-1.9v-15.7H269z"/>
		<path class="st1" d="M287.9,288.3v-30.5h1.8v19l-0.1-0.7c0.6-1.2,1.5-2.1,2.6-2.8c1.2-0.8,2.7-1.2,4.1-1.1
			c1.3-0.1,2.6,0.4,3.6,1.3c0.9,0.9,1.4,2.1,1.4,3.4v11.4h-1.9v-10.9c0-0.9-0.4-1.8-1-2.5c-0.7-0.7-1.7-1.1-2.7-1
			c-1,0-2,0.3-2.9,0.8c-0.9,0.5-1.6,1.3-2.2,2.2c-0.6,0.9-0.8,2-0.8,3.1v8.4L287.9,288.3z"/>
		<path class="st1" d="M315.2,288.6c-1.5,0-3-0.3-4.3-1.1c-1.2-0.7-2.3-1.7-3-3c-0.7-1.3-1.1-2.7-1.1-4.2c0-1.5,0.4-2.9,1.1-4.2
			c0.7-1.2,1.8-2.3,3-3c1.3-0.8,2.7-1.1,4.2-1.1c1.7-0.1,3.4,0.5,4.7,1.6c1.3,1.1,2.2,2.6,2.7,4.3l-13.7,5.3l-0.6-1.4l12.6-4.9
			l-0.4,0.6c-0.5-1.1-1.2-2-2.1-2.8c-1-0.8-2.2-1.2-3.4-1.2c-1.1,0-2.3,0.3-3.3,0.9c-1,0.6-1.7,1.4-2.3,2.4c-0.6,1-0.9,2.2-0.9,3.4
			c0,1.1,0.3,2.3,0.8,3.3c0.5,1,1.3,1.9,2.3,2.5c1,0.6,2.2,1,3.4,0.9c0.8,0,1.7-0.2,2.5-0.5c0.8-0.3,1.5-0.7,2.1-1.2l1,1.4
			c-0.8,0.6-1.7,1.1-2.6,1.5C317.3,288.5,316.3,288.6,315.2,288.6z"/>
		<path class="st1" d="M338.8,280.4c0-3,1.5-5.7,4.1-7.2c2.7-1.5,5.9-1.5,8.6,0c1.3,0.7,2.3,1.7,3,3c1.4,2.6,1.4,5.8,0,8.4
			c-0.7,1.3-1.7,2.3-3,3c-1.3,0.7-2.8,1.1-4.3,1.1c-1.5,0-3-0.3-4.3-1.1c-1.2-0.7-2.3-1.7-3-2.9
			C339.1,283.4,338.7,281.9,338.8,280.4z M340.6,280.4c0,1.2,0.3,2.3,0.9,3.4c0.6,1,1.4,1.8,2.3,2.4c2,1.2,4.5,1.2,6.5,0
			c2-1.2,3.2-3.4,3.2-5.7c0-1.2-0.3-2.3-0.9-3.4c-0.6-1-1.4-1.8-2.3-2.4c-1-0.6-2.1-0.9-3.3-0.9c-1.2,0-2.3,0.3-3.3,0.9
			c-1,0.6-1.8,1.5-2.3,2.5C340.9,278.1,340.6,279.3,340.6,280.4L340.6,280.4z"/>
		<path class="st1" d="M92.9,326.9c-0.7,0.6-1.6,1.1-2.4,1.4c-0.9,0.3-1.9,0.5-2.8,0.5c-1.5,0-3-0.3-4.3-1.1c-1.2-0.7-2.3-1.7-3-2.9
			c-0.7-1.3-1.1-2.7-1.1-4.2c0-1.5,0.4-2.9,1.1-4.2c0.7-1.2,1.8-2.2,3-2.9c1.2-0.7,2.6-1.1,4.1-1.1c1,0,2,0.2,3,0.5
			c0.9,0.3,1.7,0.8,2.4,1.4l-1,1.3c-0.6-0.5-1.3-0.9-2-1.1c-0.8-0.3-1.6-0.4-2.4-0.4c-1.1,0-2.3,0.3-3.2,0.9
			c-0.9,0.6-1.7,1.4-2.2,2.4c-0.6,1-0.9,2.2-0.9,3.4c0,3.7,3,6.6,6.7,6.6c0.7,0,1.5-0.1,2.2-0.4c0.7-0.2,1.3-0.6,1.9-1L92.9,326.9z"
			/>
		<path class="st1" d="M99.8,312.8l0.2,4.8l-0.2-0.6c0.3-1,0.9-1.8,1.6-2.5c0.7-0.7,1.6-1.2,2.5-1.6c0.8-0.4,1.8-0.5,2.7-0.6
			l-0.1,1.9c-1.1,0-2.3,0.3-3.3,0.8c-1,0.5-1.8,1.2-2.3,2.1c-0.6,0.9-0.9,1.9-0.9,3v8.3h-1.9v-15.7L99.8,312.8z"/>
		<path class="st1" d="M118,328.8c-1.5,0-3-0.3-4.3-1.1c-1.3-0.7-2.3-1.7-3-3c-0.7-1.3-1.1-2.7-1.1-4.2c0-1.5,0.4-2.9,1.1-4.2
			c0.7-1.2,1.8-2.3,3-3c1.3-0.7,2.8-1.1,4.2-1.1c1.7-0.1,3.4,0.5,4.7,1.6c1.3,1.1,2.3,2.6,2.8,4.3l-13.7,5.3l-0.6-1.4l12.6-4.9
			l-0.4,0.6c-0.5-1.1-1.2-2-2.1-2.8c-1-0.8-2.2-1.2-3.4-1.2c-1.1,0-2.3,0.3-3.3,0.9c-2,1.2-3.2,3.4-3.2,5.7c0,1.1,0.3,2.3,0.8,3.3
			c0.5,1,1.3,1.9,2.3,2.5c1,0.6,2.2,0.9,3.4,0.9c0.8,0,1.7-0.2,2.5-0.5c0.8-0.3,1.5-0.7,2.1-1.2l1,1.4c-0.8,0.6-1.7,1.1-2.6,1.4
			C120,328.6,119,328.8,118,328.8z"/>
		<path class="st1" d="M134.4,328.8c-1,0-1.9-0.2-2.9-0.5c-0.9-0.3-1.8-0.9-2.4-1.6l0.9-1.2c0.5,0.6,1.2,1,1.9,1.3
			c0.7,0.3,1.5,0.5,2.3,0.5c0.6,0,1.2-0.1,1.8-0.3c1.2-0.3,1.9-1.4,1.9-2.6c0-0.6-0.2-1.3-0.6-1.7c-0.4-0.4-1-0.8-1.6-1
			c-0.6-0.3-1.3-0.5-2-0.7c-1-0.3-2-0.8-2.8-1.5c-0.8-0.7-1.2-1.7-1.1-2.7c0-0.8,0.2-1.6,0.6-2.3c0.4-0.7,1-1.2,1.7-1.5
			c0.8-0.4,1.6-0.6,2.4-0.5c0.8,0,1.7,0.1,2.5,0.4c0.8,0.3,1.6,0.7,2.2,1.4l-0.8,1.3c-0.4-0.6-1-1-1.7-1.2c-0.6-0.2-1.2-0.3-1.9-0.4
			c-0.5,0-1,0.1-1.4,0.3c-0.5,0.2-0.9,0.5-1.2,0.8c-0.4,0.4-0.5,0.9-0.5,1.4c0,0.5,0.2,1.1,0.5,1.5c0.4,0.4,0.8,0.7,1.3,0.9
			c0.6,0.2,1.1,0.5,1.7,0.7c0.7,0.2,1.5,0.5,2.2,0.9c0.7,0.3,1.2,0.8,1.7,1.3c0.5,0.6,0.7,1.4,0.7,2.2c0,0.9-0.2,1.7-0.6,2.5
			c-0.4,0.7-1,1.3-1.8,1.7C136.5,328.6,135.5,328.8,134.4,328.8z"/>
		<path class="st1" d="M157.6,326.9c-0.7,0.6-1.6,1.1-2.4,1.4c-0.9,0.3-1.9,0.5-2.9,0.5c-1.5,0-3-0.3-4.3-1.1
			c-1.2-0.7-2.3-1.7-3-2.9c-0.7-1.3-1.1-2.7-1.1-4.2c0-1.5,0.4-2.9,1.1-4.2c0.7-1.2,1.8-2.2,3-2.9c1.2-0.7,2.6-1.1,4.1-1.1
			c1,0,2,0.2,3,0.5c0.9,0.3,1.7,0.8,2.4,1.4l-1,1.3c-0.6-0.5-1.3-0.9-2-1.1c-0.8-0.3-1.6-0.4-2.4-0.4c-1.1,0-2.3,0.3-3.2,0.9
			c-3.2,1.9-4.2,6-2.3,9.1c0.6,0.9,1.4,1.7,2.3,2.3c1.7,1,3.7,1.1,5.6,0.5c0.7-0.2,1.3-0.6,1.9-1L157.6,326.9z"/>
		<path class="st1" d="M162.5,307c0-0.4,0.2-0.7,0.4-0.9c0.3-0.2,0.6-0.4,1-0.4c0.4,0,0.7,0.1,1,0.4c0.3,0.2,0.4,0.6,0.4,0.9
			c0,0.4-0.1,0.7-0.4,1c-0.3,0.3-0.6,0.4-1,0.4c-0.4,0-0.7-0.1-1-0.4C162.7,307.7,162.5,307.4,162.5,307z M162.9,312.8h1.9v15.7
			h-1.9V312.8z"/>
		<path class="st1" d="M173.6,312.8l0.2,4.4l-0.3-0.4c0.5-1.3,1.4-2.5,2.7-3.2c1.2-0.8,2.6-1.2,4.1-1.2c0.8,0,1.6,0.2,2.4,0.5
			c0.7,0.3,1.3,0.8,1.7,1.4c0.4,0.6,0.7,1.3,0.8,2l-0.2,0.2c0.5-1.3,1.5-2.4,2.6-3c1.2-0.7,2.5-1,3.9-1c1.3-0.1,2.6,0.4,3.6,1.3
			c0.9,0.9,1.4,2.1,1.4,3.4v11.4h-1.9v-11c0-0.9-0.3-1.7-0.9-2.4c-0.7-0.7-1.6-1.2-2.6-1.1c-1,0-2,0.3-2.9,0.8
			c-0.9,0.5-1.6,1.2-2.1,2.1c-0.6,0.9-0.9,1.9-0.9,3v8.6h-1.9v-11c0-0.9-0.3-1.7-0.9-2.4c-0.7-0.7-1.6-1.1-2.6-1.1
			c-1,0-2.1,0.3-2.9,0.8c-0.9,0.5-1.6,1.3-2.1,2.2c-0.5,0.9-0.8,2-0.8,3.1v8.4h-1.9v-15.7L173.6,312.8z"/>
		<path class="st1" d="M210.3,328.8c-1.5,0-3-0.3-4.3-1.1c-1.2-0.7-2.3-1.7-2.9-3c-0.7-1.3-1.1-2.7-1.1-4.2c0-1.5,0.4-2.9,1.1-4.2
			c0.7-1.2,1.8-2.3,3-3c1.3-0.7,2.7-1.1,4.2-1.1c1.7,0,3.4,0.5,4.7,1.6c1.3,1.1,2.3,2.6,2.7,4.3l-13.7,5.3l-0.6-1.4l12.6-4.9
			l-0.4,0.6c-0.5-1.1-1.2-2-2.1-2.8c-1-0.8-2.2-1.2-3.4-1.2c-1.1,0-2.3,0.3-3.3,0.9c-2,1.2-3.2,3.4-3.2,5.7c0,1.1,0.3,2.3,0.8,3.3
			c0.5,1,1.3,1.9,2.3,2.5c1,0.6,2.2,0.9,3.4,0.9c0.8,0,1.7-0.2,2.5-0.5c0.8-0.3,1.5-0.7,2.1-1.2l1,1.4c-0.8,0.6-1.7,1.1-2.6,1.4
			C212.4,328.6,211.4,328.8,210.3,328.8z"/>
		<path class="st1" d="M224.7,312.8l0.2,4.9l-0.2-1c0.4-1.4,1.4-2.5,2.6-3.2c1.3-0.8,2.7-1.2,4.2-1.2c1.3-0.1,2.6,0.4,3.6,1.3
			c0.9,0.9,1.4,2.1,1.4,3.4v11.4h-1.9v-10.9c0-0.9-0.4-1.8-1-2.5c-0.7-0.7-1.7-1.1-2.7-1c-2.1,0-4,1.1-5.1,2.9
			c-0.5,0.9-0.8,2-0.7,3.1v8.4h-1.9v-15.7L224.7,312.8z"/>
		<path class="st1" d="M245.2,305.9h1.9v7.1h4.9v1.5h-4.9v14h-1.9v-14h-3.3V313h3.3L245.2,305.9z"/>
		<path class="st1" d="M255.1,320.5c0-1.5,0.4-2.9,1.1-4.2c0.7-1.2,1.8-2.3,3-3c2.7-1.5,5.9-1.5,8.6,0c1.2,0.7,2.3,1.8,3,3
			c1.5,2.6,1.5,5.8,0,8.4c-0.7,1.3-1.7,2.3-3,3c-1.3,0.7-2.8,1.1-4.3,1.1c-1.5,0-3-0.3-4.3-1.1c-1.2-0.7-2.3-1.7-3-2.9
			C255.5,323.5,255.1,322,255.1,320.5z M257,320.5c0,2.3,1.2,4.5,3.2,5.7c2,1.2,4.5,1.2,6.5,0c3.2-2,4.2-6.1,2.2-9.3
			c-0.6-0.9-1.3-1.7-2.2-2.2c-1-0.6-2.1-0.9-3.3-0.9c-1.2,0-2.3,0.3-3.3,0.9c-1,0.6-1.8,1.5-2.3,2.5
			C257.3,318.3,257,319.4,257,320.5L257,320.5z"/>
		<path class="st1" d="M296.2,328.8c-2.9,0-5.5-1.5-6.9-4c-1.4-2.7-1.4-5.9,0-8.6c0.7-1.2,1.7-2.2,3-2.9c1.3-0.7,2.7-1,4.1-1
			c1.5,0,3,0.4,4.3,1.2c1.3,0.7,2.3,1.8,3,3.1l-0.3,0.9V298h1.9v30.5h-1.9v-4.8l0.4,0.9c-0.7,1.3-1.7,2.3-3,3.1
			C299.3,328.4,297.8,328.8,296.2,328.8z M296.7,327.1c1.1,0,2.2-0.3,3.3-0.8c0.9-0.5,1.7-1.2,2.3-2.1c0.6-0.9,0.9-1.9,1-3v-2
			c-0.2-1-0.6-1.9-1.2-2.7c-0.6-0.8-1.4-1.4-2.3-1.9c-0.9-0.5-2-0.7-3-0.7c-1.2,0-2.3,0.3-3.3,0.8c-1,0.6-1.8,1.4-2.4,2.3
			c-0.6,1-0.9,2.2-0.9,3.5c0,1.2,0.3,2.3,0.9,3.4c0.6,1,1.4,1.8,2.4,2.4C294.4,326.9,295.6,327.1,296.7,327.1L296.7,327.1z"/>
		<path class="st1" d="M318.9,328.8c-1.4,0-2.8-0.3-4.1-1c-1.2-0.7-2.2-1.7-2.9-2.9c-0.7-1.3-1.1-2.8-1.1-4.3c0-1.6,0.3-3.1,1.1-4.5
			c0.7-1.2,1.8-2.2,3-2.9c1.4-0.7,2.9-1,4.4-1c2.9,0.1,5.4,1.8,6.6,4.4l-0.3,0.6l0.2-4.5h1.7v15.7h-1.9v-4.9l0.4,0.7
			c-0.2,0.6-0.6,1.1-1,1.6c-0.5,0.6-1,1-1.7,1.4c-0.7,0.4-1.4,0.8-2.2,1C320.5,328.6,319.7,328.8,318.9,328.8z M319.3,327.2
			c1.1,0,2.2-0.2,3.2-0.7c0.9-0.5,1.7-1.2,2.3-2.1c0.6-0.9,0.9-2,1-3v-2.3c-0.2-1-0.6-1.9-1.3-2.6c-0.6-0.8-1.4-1.4-2.3-1.8
			c-0.9-0.5-2-0.7-3-0.7c-1.1,0-2.3,0.3-3.3,0.8c-1,0.5-1.8,1.3-2.4,2.3c-0.6,1.1-0.9,2.3-0.9,3.5c0,1.2,0.3,2.3,0.9,3.4
			c0.6,1,1.4,1.8,2.4,2.4C316.9,326.9,318.1,327.2,319.3,327.2z"/>
		<path class="st1" d="M350.8,328.8c-1,0-1.9-0.2-2.9-0.5c-0.9-0.3-1.8-0.9-2.4-1.6l0.9-1.2c0.5,0.6,1.2,1,1.9,1.3
			c0.7,0.3,1.5,0.5,2.4,0.5c0.6,0,1.2-0.1,1.8-0.3c0.5-0.2,1-0.5,1.3-0.9c0.4-0.5,0.6-1.1,0.5-1.7c0-0.6-0.2-1.3-0.6-1.7
			c-0.5-0.4-1-0.8-1.6-1c-0.6-0.3-1.3-0.5-2-0.7c-1-0.3-2-0.8-2.8-1.5c-0.8-0.7-1.2-1.7-1.1-2.7c0-0.8,0.2-1.6,0.6-2.3
			c0.4-0.6,1-1.2,1.7-1.5c0.8-0.4,1.6-0.6,2.5-0.5c0.8,0,1.7,0.1,2.5,0.4c0.8,0.3,1.6,0.7,2.2,1.4l-0.9,1.3c-0.4-0.6-1-1-1.7-1.2
			c-0.6-0.2-1.2-0.3-1.9-0.4c-0.5,0-1,0.1-1.4,0.3c-0.5,0.2-0.9,0.5-1.3,0.8c-0.3,0.4-0.5,0.9-0.5,1.4c0,0.5,0.2,1.1,0.5,1.5
			c0.4,0.4,0.8,0.7,1.4,0.9c0.5,0.2,1.1,0.5,1.7,0.7c0.8,0.2,1.5,0.5,2.2,0.9c0.7,0.3,1.2,0.8,1.7,1.3c0.5,0.6,0.7,1.4,0.7,2.2
			c0,0.9-0.2,1.7-0.6,2.5c-0.4,0.7-1,1.3-1.8,1.7C352.9,328.6,351.8,328.8,350.8,328.8z"/>
		<path class="st1" d="M366.8,328.9c-2.6,0.2-4.8-1.8-4.9-4.3c0-0.1,0-0.2,0-0.4v-11.4h1.9v10.9c0,0.9,0.4,1.8,1,2.5
			c0.7,0.7,1.7,1.1,2.7,1.1c1,0,2-0.3,2.9-0.8c0.9-0.5,1.6-1.3,2.1-2.2c0.6-1,0.8-2,0.8-3.1v-8.4h1.9v15.7h-1.7l-0.2-4.9l0.3,1.1
			c-0.3,0.8-0.8,1.6-1.4,2.2c-0.7,0.7-1.5,1.2-2.4,1.5C368.8,328.7,367.8,328.9,366.8,328.9z"/>
		<path class="st1" d="M388.8,328.8c-1.4,0-2.8-0.3-4.1-1c-1.2-0.7-2.2-1.7-2.9-2.9c-0.7-1.3-1.1-2.8-1.1-4.3c0-1.6,0.3-3.1,1.1-4.5
			c0.7-1.2,1.8-2.2,3-2.9c1.4-0.7,2.9-1,4.4-1c2.9,0.1,5.4,1.8,6.6,4.4l-0.3,0.6l0.2-4.5h1.7v15.7h-1.9v-4.9l0.4,0.7
			c-0.2,0.6-0.6,1.1-1,1.6c-0.5,0.6-1.1,1-1.7,1.4c-0.7,0.4-1.4,0.8-2.2,1C390.5,328.6,389.7,328.8,388.8,328.8z M389.2,327.2
			c1.1,0,2.2-0.2,3.2-0.7c0.9-0.5,1.7-1.2,2.3-2.1c0.6-0.9,0.9-2,1-3v-2.3c-0.2-1-0.6-1.9-1.3-2.6c-0.6-0.8-1.4-1.4-2.3-1.8
			c-0.9-0.5-2-0.7-3-0.7c-1.1,0-2.3,0.3-3.3,0.8c-1,0.5-1.8,1.3-2.4,2.3c-0.6,1.1-0.9,2.3-0.9,3.5c0,1.2,0.3,2.3,0.9,3.4
			c0.6,1,1.4,1.8,2.4,2.4C386.9,326.9,388.1,327.2,389.2,327.2z"/>
		<path class="st1" d="M55.2,368.9c-1.5,0-3-0.3-4.3-1.1c-1.3-0.7-2.3-1.7-3-3c-0.7-1.3-1.1-2.7-1.1-4.2c0-1.5,0.4-2.9,1.2-4.2
			c0.7-1.2,1.8-2.3,3-3c1.3-0.8,2.8-1.1,4.2-1.1c1.7-0.1,3.4,0.5,4.8,1.6c1.3,1.1,2.3,2.6,2.8,4.3L49,363.6l-0.6-1.4l12.6-4.9
			l-0.4,0.6c-0.5-1.1-1.2-2-2.1-2.8c-1-0.8-2.2-1.2-3.4-1.2c-1.1,0-2.3,0.3-3.3,0.9c-2,1.2-3.2,3.4-3.2,5.7c0,1.1,0.3,2.3,0.8,3.3
			c1.1,2.1,3.3,3.4,5.7,3.4c0.8,0,1.7-0.2,2.5-0.5c0.8-0.3,1.5-0.7,2.1-1.3l1,1.4c-0.8,0.6-1.7,1.1-2.6,1.4
			C57.3,368.7,56.3,368.9,55.2,368.9z"/>
		<path class="st1" d="M69.6,352.9l0.2,4.4l-0.3-0.4c0.5-1.3,1.5-2.5,2.7-3.2c1.2-0.8,2.6-1.2,4.1-1.2c0.8,0,1.6,0.2,2.4,0.5
			c0.7,0.3,1.3,0.8,1.7,1.4c0.4,0.6,0.7,1.3,0.8,2l-0.2,0.2c0.5-1.3,1.5-2.4,2.7-3c1.2-0.7,2.5-1,3.9-1c1.3-0.1,2.6,0.4,3.6,1.3
			c0.9,0.9,1.4,2.1,1.4,3.4v11.4h-1.9v-11c0-0.9-0.3-1.7-0.9-2.4c-0.7-0.7-1.6-1.2-2.6-1.2c-1,0-2,0.3-2.9,0.8
			c-0.9,0.5-1.6,1.2-2.1,2.1c-0.6,0.9-0.9,1.9-0.9,3v8.6h-1.9v-11c0-0.9-0.3-1.7-0.9-2.4c-0.7-0.7-1.6-1.1-2.6-1.1
			c-1.1,0-2.1,0.3-3,0.8c-0.9,0.5-1.6,1.3-2.1,2.2c-0.5,0.9-0.8,2-0.8,3.1v8.4h-1.8v-15.7H69.6z"/>
		<path class="st1" d="M108.2,368.9c-1.5,0-2.9-0.4-4.2-1.2c-1.2-0.7-2.3-1.8-2.9-3.1l0.3-0.7v12.2h-1.9v-23.4h1.7l0.2,5.1l-0.4-1.2
			c0.7-1.3,1.7-2.4,3-3.1c1.3-0.8,2.8-1.2,4.4-1.2c1.4,0,2.8,0.4,4.1,1.1c1.2,0.7,2.2,1.7,2.9,3c0.7,1.3,1.1,2.8,1.1,4.3
			c0,1.5-0.4,3-1.1,4.2c-0.7,1.2-1.8,2.2-3,2.9C111,368.6,109.6,368.9,108.2,368.9z M107.9,367.4c1.2,0,2.3-0.3,3.3-0.9
			c1-0.6,1.8-1.4,2.4-2.4c0.6-1,0.9-2.2,0.9-3.4c0-1.2-0.3-2.4-0.9-3.4c-0.6-1-1.4-1.8-2.3-2.4c-1-0.6-2.1-0.9-3.3-0.9
			c-2.2,0-4.3,1.1-5.5,3c-0.6,0.9-0.9,2-1,3.1v1.3c0.1,1.1,0.4,2.1,1,3c0.6,0.9,1.4,1.6,2.3,2.1
			C105.7,367.1,106.8,367.4,107.9,367.4z"/>
		<path class="st1" d="M123.7,352.9l0.2,4.8l-0.2-0.6c0.3-1,0.9-1.8,1.6-2.5c0.7-0.7,1.6-1.2,2.5-1.6c0.8-0.4,1.8-0.6,2.7-0.6
			l-0.1,1.8c-1.1,0-2.3,0.3-3.3,0.8c-0.9,0.5-1.7,1.2-2.3,2.1c-0.6,0.9-0.9,1.9-0.9,3v8.3h-1.9v-15.7H123.7z"/>
		<path class="st1" d="M142,368.9c-1.5,0-3-0.3-4.3-1.1c-1.2-0.7-2.3-1.7-3-3c-0.7-1.3-1.1-2.7-1.1-4.2c0-1.5,0.4-2.9,1.1-4.2
			c0.7-1.2,1.8-2.3,3-3c1.3-0.8,2.8-1.1,4.2-1.1c1.7-0.1,3.4,0.5,4.7,1.6c1.3,1.1,2.3,2.6,2.8,4.3l-13.7,5.3l-0.6-1.4l12.6-4.9
			l-0.4,0.6c-0.5-1.1-1.2-2-2.1-2.8c-1-0.8-2.2-1.2-3.4-1.2c-1.1,0-2.3,0.3-3.3,0.9c-2,1.2-3.2,3.4-3.2,5.7c0,1.1,0.3,2.3,0.8,3.3
			c0.5,1,1.3,1.9,2.3,2.5c1,0.6,2.2,1,3.4,0.9c0.8,0,1.7-0.2,2.5-0.5c0.8-0.3,1.5-0.7,2.1-1.3l1,1.4c-0.8,0.6-1.7,1.1-2.6,1.4
			C144,368.7,143,368.9,142,368.9z"/>
		<path class="st1" d="M158.4,368.9c-1,0-1.9-0.2-2.9-0.5c-0.9-0.3-1.8-0.9-2.4-1.6l0.9-1.3c0.5,0.6,1.2,1,1.9,1.3
			c0.7,0.3,1.5,0.5,2.4,0.5c0.6,0,1.2-0.1,1.8-0.3c0.5-0.2,1-0.5,1.3-0.9c0.4-0.5,0.6-1.1,0.5-1.7c0-0.6-0.2-1.3-0.6-1.7
			c-0.4-0.4-1-0.8-1.6-1c-0.7-0.3-1.3-0.5-2-0.7c-1-0.3-2-0.8-2.8-1.5c-0.8-0.7-1.2-1.7-1.1-2.7c0-0.8,0.2-1.6,0.6-2.3
			c0.4-0.6,1-1.2,1.7-1.5c0.8-0.4,1.6-0.6,2.4-0.5c0.8,0,1.7,0.1,2.5,0.4c0.8,0.3,1.6,0.7,2.2,1.4l-0.8,1.3c-0.4-0.6-1-1-1.7-1.2
			c-0.6-0.2-1.2-0.3-1.9-0.4c-0.5,0-1,0.1-1.4,0.3c-0.5,0.2-0.9,0.5-1.2,0.8c-0.3,0.4-0.5,0.9-0.5,1.4c0,0.6,0.2,1.1,0.5,1.5
			c0.4,0.4,0.8,0.7,1.4,0.9c0.6,0.2,1.1,0.5,1.7,0.7c0.7,0.2,1.5,0.5,2.2,0.9c0.7,0.3,1.2,0.8,1.7,1.3c0.5,0.6,0.7,1.4,0.7,2.2
			c0,0.9-0.2,1.7-0.6,2.5c-0.4,0.7-1,1.3-1.8,1.7C160.5,368.7,159.4,368.9,158.4,368.9z"/>
		<path class="st1" d="M176,368.9c-1.4,0-2.8-0.3-4.1-1c-1.2-0.7-2.2-1.7-2.9-2.9c-1.4-2.7-1.4-6,0.1-8.8c0.7-1.2,1.7-2.2,3-2.9
			c1.4-0.7,2.9-1,4.4-1c2.9,0.1,5.4,1.8,6.6,4.4l-0.3,0.6l0.2-4.5h1.7v15.7h-1.9v-4.9l0.4,0.7c-0.2,0.6-0.6,1.1-1,1.6
			c-1,1.2-2.4,2-3.8,2.5C177.6,368.7,176.8,368.9,176,368.9z M176.4,367.3c1.1,0,2.2-0.2,3.2-0.8c0.9-0.5,1.7-1.2,2.3-2.1
			c0.6-0.9,0.9-2,1-3v-2.3c-0.2-1-0.6-1.9-1.3-2.6c-0.6-0.8-1.4-1.4-2.3-1.9c-0.9-0.5-2-0.7-3-0.7c-1.1,0-2.3,0.3-3.3,0.8
			c-1,0.5-1.8,1.3-2.4,2.3c-0.6,1.1-0.9,2.3-0.9,3.5c0,1.2,0.3,2.3,0.9,3.4c0.6,1,1.4,1.8,2.4,2.4
			C174.1,367,175.2,367.3,176.4,367.3L176.4,367.3z"/>
		<path class="st1" d="M216.4,367.1c-0.7,0.6-1.6,1-2.4,1.4c-2.4,0.8-4.9,0.6-7.1-0.6c-1.2-0.7-2.3-1.7-3-2.9
			c-0.7-1.3-1.1-2.7-1.1-4.2c0-1.5,0.4-2.9,1.1-4.2c1.5-2.5,4.2-4,7.1-4c1,0,2,0.2,3,0.5c0.9,0.3,1.7,0.8,2.4,1.4l-1,1.3
			c-0.6-0.5-1.3-0.9-2-1.1c-0.8-0.3-1.6-0.4-2.4-0.4c-1.1,0-2.3,0.3-3.2,0.9c-1,0.6-1.8,1.4-2.3,2.4c-1.1,2.1-1.1,4.6,0,6.7
			c1.2,2,3.4,3.3,5.7,3.3c0.8,0,1.5-0.1,2.3-0.4c0.7-0.2,1.3-0.6,1.9-1L216.4,367.1z"/>
		<path class="st1" d="M220.1,360.6c0-3,1.5-5.7,4.1-7.2c1.3-0.7,2.8-1.1,4.3-1.1c1.5,0,3,0.4,4.3,1.1c1.3,0.7,2.3,1.7,3,3
			c1.5,2.6,1.5,5.8,0,8.4c-0.7,1.3-1.7,2.3-3,3c-1.3,0.7-2.8,1.1-4.3,1.1c-1.5,0-3-0.3-4.3-1.1c-1.2-0.7-2.3-1.7-3-2.9
			C220.4,363.6,220.1,362.1,220.1,360.6z M222,360.6c0,1.2,0.3,2.3,0.9,3.4c0.6,1,1.4,1.8,2.3,2.4c2,1.2,4.5,1.2,6.5,0
			c1-0.6,1.7-1.4,2.3-2.4c1.1-2.1,1.1-4.6,0-6.7c-0.6-1-1.4-1.8-2.3-2.4c-1-0.6-2.1-0.9-3.3-0.9c-1.2,0-2.3,0.3-3.3,0.9
			c-1,0.6-1.8,1.5-2.3,2.5C222.2,358.4,222,359.5,222,360.6L222,360.6z"/>
		<path class="st1" d="M244.1,352.9l0.2,4.4l-0.3-0.4c0.5-1.3,1.5-2.5,2.7-3.2c1.2-0.8,2.6-1.2,4.1-1.2c0.8,0,1.6,0.2,2.4,0.5
			c0.7,0.3,1.3,0.8,1.7,1.4c0.4,0.6,0.7,1.3,0.8,2l-0.2,0.2c0.5-1.3,1.4-2.4,2.7-3c1.2-0.7,2.5-1,3.9-1c1.3-0.1,2.6,0.4,3.6,1.3
			c0.9,0.9,1.4,2.1,1.4,3.4v11.4H265v-11c0-0.9-0.3-1.7-0.9-2.4c-0.7-0.7-1.6-1.1-2.6-1.1c-1,0-2,0.3-2.9,0.8
			c-0.9,0.5-1.6,1.3-2.1,2.1c-0.6,0.9-0.9,1.9-0.9,3v8.6h-1.9v-11c0-0.9-0.3-1.7-0.9-2.4c-0.7-0.7-1.6-1.1-2.6-1.1
			c-1,0-2.1,0.3-2.9,0.8c-0.9,0.5-1.6,1.3-2.1,2.2c-0.5,0.9-0.8,2-0.8,3.1v8.4h-1.9v-15.8H244.1z"/>
		<path class="st1" d="M286,347.1c0-0.4,0.2-0.7,0.4-1c0.3-0.2,0.6-0.4,1-0.4c0.4,0,0.7,0.1,1,0.4c0.3,0.2,0.4,0.6,0.4,1
			c0,0.4-0.1,0.7-0.4,1c-0.3,0.3-0.6,0.4-1,0.4c-0.4,0-0.7-0.1-1-0.4C286.2,347.9,286,347.5,286,347.1z M286.4,352.9h1.9v15.7h-1.9
			V352.9z"/>
		<path class="st1" d="M297,352.9l0.2,4.9l-0.2-1c0.4-1.4,1.4-2.5,2.6-3.2c1.3-0.8,2.7-1.2,4.2-1.2c1.3-0.1,2.6,0.4,3.6,1.3
			c0.9,0.9,1.4,2.1,1.4,3.4v11.4h-1.9v-10.9c0-0.9-0.4-1.8-1-2.5c-0.7-0.7-1.7-1.1-2.7-1c-1,0-2,0.3-2.9,0.8
			c-0.9,0.5-1.7,1.2-2.2,2.1c-0.6,1-0.8,2.1-0.8,3.2v8.4h-1.9v-15.7H297z"/>
		<path class="st1" d="M314.4,360.6c0-1.5,0.4-2.9,1.1-4.2c0.7-1.2,1.8-2.3,3-3c2.7-1.5,5.9-1.5,8.6,0c1.3,0.7,2.3,1.7,3,3
			c1.4,2.6,1.4,5.8,0,8.4c-0.7,1.3-1.7,2.3-3,3c-1.3,0.7-2.8,1.1-4.3,1.1c-1.5,0-3-0.3-4.3-1.1c-1.2-0.7-2.3-1.7-3-2.9
			C314.8,363.6,314.4,362.1,314.4,360.6z M316.3,360.6c0,2.3,1.2,4.5,3.2,5.7c2,1.2,4.5,1.2,6.5,0c3.1-1.9,4.1-5.9,2.3-9.1
			c-0.6-1-1.4-1.8-2.3-2.4c-1-0.6-2.1-0.9-3.3-0.9c-1.2,0-2.3,0.3-3.3,0.9c-1,0.6-1.7,1.5-2.3,2.5
			C316.6,358.4,316.3,359.5,316.3,360.6L316.3,360.6z"/>
		<path class="st1" d="M341.8,369.2l-8-16.3h2.2l6.5,14.3h-1.2l6.3-14.2h2.1l-7.8,16.3L341.8,369.2z"/>
		<path class="st1" d="M360.5,368.9c-1.4,0-2.8-0.3-4.1-1c-1.2-0.7-2.2-1.7-2.9-2.9c-1.4-2.8-1.4-6,0.1-8.8c0.7-1.2,1.8-2.2,3-2.9
			c1.4-0.7,2.9-1,4.4-1c1.4,0,2.8,0.4,4,1.2c1.2,0.8,2.1,1.8,2.7,3.1l-0.3,0.6l0.2-4.5h1.7v15.7h-1.9v-4.9l0.4,0.7
			c-0.2,0.6-0.6,1.1-1,1.6c-0.5,0.6-1,1-1.7,1.5c-0.7,0.4-1.4,0.8-2.2,1C362.2,368.8,361.4,368.9,360.5,368.9z M360.9,367.3
			c1.1,0,2.2-0.2,3.2-0.8c1.9-1,3.2-2.9,3.3-5.1v-2.3c-0.2-1-0.6-1.9-1.3-2.6c-0.6-0.8-1.4-1.4-2.3-1.9c-2-1-4.3-0.9-6.2,0.1
			c-1,0.5-1.8,1.3-2.4,2.3c-0.6,1.1-0.9,2.3-0.9,3.5c0,1.2,0.3,2.3,0.9,3.4c0.6,1,1.4,1.8,2.4,2.4
			C358.6,367,359.8,367.3,360.9,367.3z"/>
		<path class="st1" d="M388.6,367.1c-0.7,0.6-1.6,1-2.5,1.4c-2.4,0.8-4.9,0.6-7.1-0.6c-1.2-0.7-2.3-1.7-3-2.9
			c-0.7-1.3-1.1-2.7-1.1-4.2c0-1.5,0.4-2.9,1.1-4.2c0.7-1.2,1.8-2.2,3-2.9c1.2-0.7,2.6-1.1,4.1-1.1c1,0,2.1,0.2,3,0.5
			c0.9,0.3,1.7,0.8,2.5,1.4l-1,1.3c-0.6-0.5-1.3-0.9-2-1.1c-0.8-0.3-1.6-0.4-2.4-0.4c-1.1,0-2.2,0.3-3.2,0.9c-1,0.6-1.8,1.4-2.3,2.4
			c-1.1,2.1-1.1,4.6,0,6.7c1.2,2,3.4,3.3,5.7,3.3c0.8,0,1.5-0.1,2.3-0.4c0.7-0.2,1.3-0.6,1.9-1L388.6,367.1z M378.5,375.3
			c0.3,0.3,0.7,0.6,1.2,0.8c0.6,0.2,1.1,0.3,1.7,0.3c0.8,0,1.6-0.2,2.4-0.6c0.6-0.3,1-0.9,1-1.6c0-0.6-0.3-1.2-0.7-1.6
			c-0.7-0.5-1.5-0.8-2.3-0.7c-0.5,0-1,0.1-1.5,0.2c-0.4,0.1-0.9,0.2-1.3,0.4l-0.6-1l2.8-3.1l1.5,0.3l-2.7,3.3l-0.7-0.4
			c0.4-0.2,0.8-0.4,1.3-0.5c0.5-0.1,1.1-0.2,1.6-0.2c1.1-0.1,2.3,0.2,3.2,0.8c0.8,0.6,1.2,1.5,1.2,2.5c0,0.7-0.2,1.4-0.6,1.9
			c-0.5,0.5-1.1,0.9-1.7,1.1c-0.8,0.2-1.6,0.4-2.4,0.4c-0.8,0-1.5-0.1-2.2-0.4c-0.6-0.2-1.1-0.5-1.6-0.9L378.5,375.3z"/>
		<path class="st1" d="M400.3,368.9c-1.4,0-2.8-0.3-4.1-1c-1.2-0.7-2.2-1.7-2.9-2.9c-1.4-2.8-1.4-6,0.1-8.8c0.7-1.2,1.7-2.2,3-2.9
			c1.4-0.7,2.9-1,4.4-1c2.9,0.1,5.4,1.8,6.6,4.4l-0.3,0.6l0.2-4.5h1.7v15.7h-1.9v-4.9l0.4,0.7c-0.2,0.6-0.6,1.1-1,1.6
			c-0.5,0.6-1.1,1-1.7,1.5C403.6,368.4,401.9,368.9,400.3,368.9L400.3,368.9z M400.7,367.3c1.1,0,2.2-0.2,3.2-0.8
			c1.9-1,3.2-2.9,3.3-5.1v-2.3c-0.2-1-0.6-1.9-1.3-2.6c-0.6-0.8-1.4-1.4-2.3-1.9c-2-1-4.3-0.9-6.2,0.1c-1,0.5-1.8,1.3-2.4,2.3
			c-0.6,1.1-0.9,2.3-0.9,3.5c0,1.2,0.3,2.3,0.9,3.4c0.6,1,1.4,1.8,2.4,2.4C398.5,367,399.6,367.3,400.7,367.3z M404.7,350.2
			c-0.7,0-1.4-0.2-1.9-0.6c-0.5-0.4-1-0.8-1.4-1.3c-0.4-0.3-0.7-0.7-1.1-1c-0.4-0.3-0.8-0.5-1.3-0.5c-0.3,0-0.7,0.1-0.9,0.3
			c-0.4,0.3-0.6,0.7-0.8,1.1c-0.2,0.6-0.4,1.3-0.4,2h-1.2c0-0.9,0.1-1.8,0.4-2.7c0.3-0.7,0.7-1.2,1.2-1.7c0.5-0.4,1.1-0.6,1.7-0.6
			c0.7,0,1.3,0.2,1.8,0.6c0.5,0.4,0.9,0.8,1.3,1.2c0.3,0.4,0.7,0.7,1.1,1.1c0.4,0.3,0.8,0.5,1.3,0.5c0.5,0,1-0.3,1.3-0.8
			c0.4-0.8,0.7-1.8,0.6-2.7h1.2c0.1,0.9-0.1,1.8-0.4,2.7c-0.2,0.6-0.6,1.2-1.1,1.6C405.8,350,405.3,350.2,404.7,350.2L404.7,350.2z"
			/>
		<path class="st1" d="M414.8,360.6c0-1.5,0.4-2.9,1.1-4.2c0.7-1.2,1.8-2.3,3-3c2.7-1.5,5.9-1.5,8.6,0c1.3,0.7,2.3,1.7,3,3
			c1.4,2.6,1.4,5.8,0,8.4c-0.7,1.3-1.7,2.3-3,3c-1.3,0.7-2.8,1.1-4.3,1.1c-1.5,0-3-0.3-4.3-1.1c-1.2-0.7-2.3-1.7-3-2.9
			C415.1,363.6,414.7,362.1,414.8,360.6z M416.6,360.6c0,2.3,1.2,4.5,3.2,5.7c2,1.2,4.5,1.2,6.5,0c3.1-1.9,4.1-5.9,2.3-9.1
			c-0.6-1-1.4-1.8-2.3-2.4c-1-0.6-2.1-0.9-3.3-0.9c-1.2,0-2.3,0.3-3.3,0.9c-1,0.6-1.7,1.5-2.3,2.5
			C416.9,358.4,416.6,359.5,416.6,360.6L416.6,360.6z"/>
		<path class="st1" d="M142.7,409c-1.5,0-3-0.3-4.3-1c-1.3-0.7-2.3-1.7-3-3c-0.7-1.3-1.1-2.7-1.1-4.2c0-1.5,0.4-2.9,1.1-4.2
			c0.7-1.2,1.8-2.3,3-3c1.3-0.7,2.7-1.1,4.2-1.1c1.7,0,3.4,0.5,4.7,1.6c1.3,1.1,2.3,2.6,2.7,4.3l-13.7,5.3l-0.6-1.4l12.6-4.9
			l-0.4,0.6c-0.5-1.1-1.2-2-2.1-2.8c-1-0.8-2.2-1.2-3.4-1.2c-1.1,0-2.3,0.3-3.3,0.9c-1,0.6-1.7,1.4-2.3,2.4c-0.6,1-0.9,2.2-0.9,3.4
			c0,1.1,0.3,2.3,0.8,3.3c0.5,1,1.3,1.9,2.3,2.5c1,0.6,2.2,0.9,3.4,0.9c0.8,0,1.7-0.2,2.5-0.5c0.8-0.3,1.5-0.7,2.1-1.2l1,1.4
			c-0.8,0.6-1.7,1.1-2.6,1.4C144.7,408.9,143.7,409.1,142.7,409z"/>
		<path class="st1" d="M171.5,409c-1,0-1.9-0.2-2.9-0.5c-0.9-0.3-1.8-0.9-2.4-1.6l0.9-1.2c0.5,0.6,1.2,1,1.9,1.3
			c0.7,0.3,1.5,0.5,2.4,0.5c0.6,0,1.2-0.1,1.7-0.3c1.2-0.3,2-1.4,1.9-2.6c0-0.6-0.2-1.3-0.6-1.7c-0.5-0.4-1-0.8-1.6-1
			c-0.6-0.3-1.3-0.5-2-0.7c-1-0.3-2-0.8-2.8-1.5c-0.8-0.7-1.2-1.7-1.1-2.7c0-0.8,0.2-1.6,0.6-2.3c0.4-0.6,1-1.2,1.7-1.5
			c0.8-0.4,1.6-0.6,2.4-0.5c0.8,0,1.7,0.1,2.5,0.4c0.8,0.3,1.6,0.8,2.2,1.4l-0.8,1.3c-0.4-0.6-1-1-1.7-1.2c-0.6-0.2-1.2-0.3-1.9-0.4
			c-0.5,0-1,0.1-1.4,0.3c-0.5,0.2-0.9,0.5-1.2,0.8c-0.3,0.4-0.5,0.9-0.5,1.4c0,0.5,0.2,1.1,0.5,1.5c0.4,0.4,0.8,0.7,1.3,0.9
			c0.6,0.2,1.1,0.5,1.7,0.7c0.8,0.2,1.5,0.5,2.2,0.9c0.7,0.3,1.2,0.8,1.7,1.3c0.5,0.6,0.7,1.4,0.7,2.2c0,0.9-0.2,1.7-0.6,2.5
			c-0.4,0.7-1,1.3-1.8,1.7C173.6,408.9,172.5,409.1,171.5,409z"/>
		<path class="st1" d="M189.4,409c-1.5,0-3-0.3-4.4-1c-1.2-0.7-2.3-1.7-2.9-3c-0.7-1.3-1.1-2.7-1.1-4.2c0-1.5,0.4-2.9,1.1-4.2
			c0.7-1.2,1.8-2.3,3-3c1.3-0.7,2.8-1.1,4.2-1.1c1.7-0.1,3.4,0.5,4.7,1.6c1.3,1.1,2.3,2.6,2.8,4.3l-13.7,5.3l-0.6-1.4l12.6-4.9
			l-0.4,0.6c-0.5-1.1-1.2-2-2.1-2.8c-1-0.8-2.2-1.2-3.4-1.2c-1.1,0-2.3,0.3-3.2,0.8c-1,0.6-1.7,1.4-2.3,2.4c-0.6,1-0.9,2.2-0.9,3.4
			c0,1.1,0.3,2.3,0.8,3.3c1.1,2.1,3.3,3.4,5.7,3.4c0.8,0,1.7-0.2,2.5-0.5c0.8-0.3,1.5-0.7,2.1-1.2l1,1.4c-0.8,0.6-1.7,1.1-2.6,1.4
			C191.4,408.9,190.4,409,189.4,409z"/>
		<path class="st1" d="M209.1,416.4c-0.9,0-1.7-0.1-2.5-0.3c-0.8-0.2-1.6-0.5-2.4-1c-0.9-0.6-1.7-1.2-2.4-1.9l1.1-1.3
			c0.9,0.9,2,1.7,3.2,2.2c0.9,0.4,1.9,0.6,2.9,0.6c1.3,0.1,2.7-0.2,3.9-0.8c0.9-0.5,1.6-1.2,2.1-2.1c0.4-0.9,0.7-1.9,0.7-2.9v-5.1
			l0.4,0.5c-0.6,1.4-1.6,2.6-2.9,3.4c-1.4,0.9-3,1.4-4.7,1.3c-1.4,0-2.8-0.4-4-1.1c-3.9-2.3-5.3-7.3-3-11.3c0.8-1.3,1.8-2.3,3.1-3.1
			c1.3-0.7,2.8-1.1,4.3-1.1c1.4,0,2.9,0.4,4.1,1.1c1.2,0.7,2.2,1.7,2.8,3l-0.3,0.9l0.2-4.5h1.7V409c0,1.3-0.3,2.5-0.9,3.6
			c-0.6,1.2-1.6,2.1-2.7,2.8C212.5,416.1,210.8,416.5,209.1,416.4z M202.5,400.8c0,1.2,0.3,2.3,0.9,3.4c0.6,1,1.4,1.8,2.4,2.4
			c1,0.6,2.2,0.9,3.4,0.9c1.1,0,2.2-0.3,3.2-0.8c0.9-0.5,1.8-1.2,2.4-2.1c0.6-0.8,0.9-1.8,1-2.9v-2.3c-0.2-1-0.6-1.9-1.3-2.7
			c-0.6-0.8-1.4-1.4-2.3-1.8c-0.9-0.5-2-0.7-3-0.7c-1.2,0-2.3,0.3-3.4,0.8c-1,0.6-1.8,1.4-2.4,2.3
			C202.7,398.4,202.4,399.6,202.5,400.8L202.5,400.8z"/>
		<path class="st1" d="M229.7,409.2c-2.6,0.2-4.8-1.8-4.9-4.3c0-0.1,0-0.2,0-0.4V393h1.9v10.9c0,0.9,0.4,1.8,1,2.5
			c0.7,0.7,1.7,1.1,2.7,1.1c1,0,2-0.3,2.9-0.8c0.9-0.5,1.6-1.3,2.1-2.2c0.6-1,0.8-2,0.8-3.1V393h1.9v15.7h-1.7l-0.2-4.9l0.3,1.1
			c-0.3,0.8-0.8,1.6-1.4,2.2c-0.7,0.7-1.5,1.2-2.4,1.5C231.6,409,230.7,409.2,229.7,409.2z"/>
		<path class="st1" d="M246.8,393l0.2,4.8l-0.2-0.6c0.3-1,0.9-1.8,1.6-2.5c0.7-0.7,1.6-1.2,2.5-1.6c0.8-0.4,1.8-0.5,2.7-0.6
			l-0.1,1.9c-1.1,0-2.3,0.3-3.3,0.8c-0.9,0.5-1.7,1.2-2.3,2.1c-0.6,0.9-0.9,1.9-0.9,3v8.3h-1.9V393H246.8z"/>
		<path class="st1" d="M265.2,409c-1.4,0-2.8-0.3-4.1-1c-1.2-0.7-2.2-1.7-2.9-2.9c-0.7-1.3-1.1-2.8-1.1-4.3c0-1.6,0.3-3.1,1.1-4.5
			c0.7-1.2,1.8-2.2,3-2.9c1.4-0.7,2.9-1,4.4-1c2.9,0.1,5.4,1.8,6.6,4.4l-0.3,0.6l0.2-4.5h1.7v15.7h-1.9v-4.9l0.4,0.7
			c-0.2,0.6-0.6,1.1-1,1.6c-0.5,0.6-1,1-1.7,1.4c-0.7,0.4-1.4,0.8-2.2,1C266.9,408.9,266,409.1,265.2,409z M265.6,407.4
			c1.1,0,2.2-0.2,3.2-0.7c0.9-0.5,1.7-1.2,2.3-2.1c0.6-0.9,0.9-2,1-3v-2.3c-0.2-1-0.6-1.9-1.3-2.6c-0.6-0.8-1.4-1.4-2.3-1.8
			c-0.9-0.5-2-0.7-3-0.7c-1.1,0-2.3,0.3-3.3,0.8c-1,0.5-1.8,1.3-2.4,2.3c-0.6,1.1-0.9,2.3-0.9,3.5c0,1.2,0.3,2.3,0.9,3.4
			c0.6,1,1.4,1.8,2.4,2.4C263.3,407.1,264.4,407.5,265.6,407.4z"/>
		<path class="st1" d="M282.8,393l0.2,5l-0.2-1c0.4-1.4,1.4-2.5,2.6-3.2c1.3-0.8,2.7-1.2,4.2-1.2c1.3-0.1,2.6,0.4,3.6,1.3
			c0.9,0.9,1.4,2.1,1.4,3.4v11.4h-1.9v-10.9c0-0.9-0.4-1.8-1-2.5c-0.7-0.7-1.7-1.1-2.7-1c-2.1,0-4,1.1-5.1,2.9
			c-0.6,1-0.8,2.1-0.8,3.2v8.4h-1.9V393H282.8z"/>
		<path class="st1" d="M313.8,407.2c-0.7,0.6-1.6,1.1-2.5,1.4c-2.4,0.8-5,0.6-7.1-0.6c-1.2-0.7-2.3-1.7-3-2.9
			c-0.7-1.3-1.1-2.7-1.1-4.2c0-1.5,0.4-2.9,1.1-4.2c1.5-2.5,4.2-4,7.1-4c1,0,2.1,0.2,3,0.5c0.9,0.3,1.7,0.8,2.5,1.4l-1,1.3
			c-0.6-0.5-1.3-0.9-2-1.1c-0.8-0.3-1.6-0.4-2.4-0.4c-1.1,0-2.3,0.3-3.2,0.9c-1,0.6-1.8,1.4-2.3,2.4c-0.6,1-0.9,2.2-0.9,3.4
			c0,1.2,0.3,2.3,0.9,3.3c0.6,1,1.4,1.8,2.4,2.4c1,0.6,2.2,0.9,3.4,0.9c0.8,0,1.5-0.1,2.3-0.4c0.7-0.2,1.3-0.6,1.9-1L313.8,407.2z
			 M303.7,415.4c0.3,0.3,0.7,0.6,1.2,0.7c0.6,0.2,1.1,0.3,1.7,0.3c0.8,0,1.6-0.2,2.4-0.6c0.6-0.3,1-1,0.9-1.6c0-0.6-0.3-1.2-0.7-1.6
			c-0.7-0.5-1.5-0.8-2.3-0.7c-1,0-1.9,0.2-2.8,0.6l-0.6-1l2.8-3.1l1.5,0.3L305,412l-0.7-0.4c0.4-0.2,0.8-0.4,1.3-0.5
			c0.5-0.1,1.1-0.2,1.6-0.2c1.1-0.1,2.3,0.2,3.2,0.8c1.3,1.1,1.6,3,0.5,4.4c-0.5,0.5-1.1,0.9-1.7,1.1c-0.8,0.3-1.6,0.4-2.4,0.4
			c-0.8,0-1.5-0.1-2.2-0.4c-0.6-0.2-1.1-0.5-1.6-0.9L303.7,415.4z"/>
		<path class="st1" d="M325.5,409c-1.4,0-2.8-0.3-4.1-1c-1.2-0.7-2.2-1.7-2.9-2.9c-0.7-1.3-1.1-2.8-1.1-4.3c0-1.6,0.3-3.1,1.1-4.5
			c0.7-1.2,1.8-2.2,3-2.9c1.4-0.7,2.9-1,4.4-1c2.9,0.1,5.4,1.8,6.6,4.4l-0.3,0.6l0.2-4.5h1.7v15.7h-1.9v-4.9l0.4,0.7
			c-0.2,0.6-0.6,1.1-1,1.6c-0.5,0.6-1.1,1-1.7,1.4c-0.7,0.4-1.4,0.8-2.2,1C327.2,408.9,326.4,409.1,325.5,409z M325.9,407.4
			c1.1,0,2.2-0.2,3.2-0.7c1.9-1,3.2-2.9,3.3-5.1v-2.3c-0.2-1-0.6-1.9-1.3-2.6c-0.6-0.8-1.4-1.4-2.3-1.8c-0.9-0.5-2-0.7-3-0.7
			c-1.1,0-2.3,0.3-3.3,0.8c-1,0.5-1.8,1.3-2.4,2.3c-0.6,1.1-0.9,2.3-0.9,3.5c0,1.2,0.3,2.3,0.9,3.4c0.6,1,1.4,1.8,2.4,2.4
			C323.7,407.2,324.8,407.5,325.9,407.4L325.9,407.4z"/>
		<path class="st1" d="M296.9,221.1H164.2c-24.5,0.1-44.5-19.8-44.5-44.3c0-16.3,8.9-31.3,23.2-39.1c0-0.5-0.1-0.9-0.1-1.5
			c0-27.7,22.5-50.2,50.3-50.3c2.8,0,5.6,0.3,8.4,0.8c14.5-27.3,48.3-37.6,75.6-23.1c13.6,7.2,23.6,19.8,27.7,34.6
			c14.3,1.8,27.6,8.6,37.4,19.1c10.7,11.4,16.6,26.4,16.6,41.9C358.7,193.4,331,221,296.9,221.1z M193,94.1c-23.2,0-42,18.8-42,42
			c0,0.6,0.1,1.2,0.2,1.8c0.1,0.6,0.1,1.1,0.2,1.7c0.2,1.7-0.8,3.4-2.4,4.1c-18.2,8.4-26.1,29.9-17.7,48
			c5.9,12.9,18.8,21.1,32.9,21.1h132.7c29.6,0,53.5-24,53.6-53.6c0-27.6-21.7-50.9-49.4-53.1c-1.8-0.1-3.3-1.5-3.7-3.2
			c-5.5-25.7-30.9-42.1-56.6-36.6c-14.7,3.2-27.1,13.1-33.4,26.8c-0.8,1.8-2.8,2.7-4.7,2.3C199.5,94.6,196.3,94.2,193,94.1z"/>
		<path class="st1" d="M306.7,139.7L261.8,127c-2.3-0.6-4.7-0.6-6.9,0L210,139.7c-5.5,1.6-9.4,6.6-9.4,12.3v25.6
			c0,47.6,52,63,54.2,63.6c2.3,0.6,4.7,0.6,7,0c2.2-0.6,54.2-16,54.2-63.6V152C316,146.3,312.2,141.2,306.7,139.7z"/>
		<path class="st1" d="M258.3,245.9c-1.6,0-3.1-0.2-4.6-0.6c-2.3-0.7-57.2-16.9-57.2-67.6V152c0-7.6,5.1-14.2,12.4-16.3l44.9-12.6
			c3-0.8,6.2-0.8,9.2,0l44.9,12.6l0,0c7.3,2.1,12.3,8.7,12.3,16.3v25.6c0,50.7-54.8,66.9-57.2,67.6
			C261.5,245.7,259.9,245.9,258.3,245.9z M258.3,130.7c-0.8,0-1.6,0.1-2.3,0.3l-44.9,12.6c-3.8,1.1-6.3,4.5-6.4,8.4v25.6
			c0,44.5,49.1,59.1,51.2,59.7c1.6,0.4,3.2,0.4,4.8,0c2.1-0.6,51.2-15.1,51.2-59.7V152c0-3.9-2.6-7.3-6.3-8.4l0,0L260.7,131
			C259.9,130.8,259.1,130.7,258.3,130.7L258.3,130.7z"/>
		<path class="st0" d="M284.2,165c-2.7-1.8-6.2-1.1-8,1.6L257.9,194l-18.3-27.4c-1.8-2.7-5.4-3.4-8-1.6c-2.7,1.8-3.4,5.4-1.6,8
			l23.1,34.6c1.8,2.7,5.4,3.4,8,1.6c0.6-0.4,1.2-1,1.6-1.6l23.1-34.6C287.5,170.3,286.8,166.8,284.2,165z"/>
		<path class="st0" d="M257.9,214.3c-3.3,0-6.4-1.7-8.2-4.4l-23.1-34.6c-3-4.5-1.8-10.7,2.7-13.7c4.5-3,10.7-1.8,13.7,2.7l14.9,22.3
			l14.9-22.3c3-4.5,9.2-5.8,13.7-2.7l0,0c4.5,3,5.8,9.2,2.7,13.7l-23.1,34.6C264.3,212.6,261.2,214.3,257.9,214.3z M234.8,168.1
			c-0.3,0-0.6,0.1-0.9,0.3c-0.8,0.5-1,1.5-0.5,2.3l23.1,34.6c0.6,0.8,1.6,0.9,2.4,0.3c0.1-0.1,0.2-0.2,0.3-0.3l23.1-34.6
			c0.5-0.8,0.3-1.8-0.5-2.3c-0.8-0.5-1.8-0.3-2.3,0.5l-18.3,27.4c-1.3,1.9-3.8,2.4-5.7,1.2c-0.5-0.3-0.8-0.7-1.2-1.2l-18.3-27.4
			c-0.2-0.4-0.6-0.6-1-0.7C235,168.1,234.9,168.1,234.8,168.1z"/>
	</g>
</g>
</svg>
