<?xml version="1.0" encoding="utf-8"?>
<!-- Generator: Adobe Illustrator 24.2.0, SVG Export Plug-In . SVG Version: 6.00 Build 0)  -->
<svg version="1.1" id="Camada_1" xmlns="http://www.w3.org/2000/svg" xmlns:xlink="http://www.w3.org/1999/xlink" x="0px" y="0px"
	 viewBox="0 0 478.4 478.4" style="enable-background:new 0 0 478.4 478.4;" xml:space="preserve">
<style type="text/css">
	.st0{fill:#65140F;}
	.st1{fill:#FFFFFF;}
</style>
<g id="Camada_2_1_">
	<g id="Camada_1-2">
		<circle class="st0" cx="239.2" cy="239.2" r="239.2"/>
		<path class="st1" d="M132.5,263.7c-1-0.5-2-0.8-3-1.1c-1.2-0.3-2.4-0.5-3.6-0.5c-1.6-0.1-3.2,0.4-4.5,1.4
			c-1.1,0.8-1.7,2.2-1.7,3.5c0,1,0.3,1.9,1,2.7c0.7,0.8,1.6,1.4,2.5,1.8c1,0.5,2.2,1,3.3,1.4c0.9,0.4,1.9,0.7,2.8,1.2
			c0.9,0.4,1.7,0.9,2.5,1.6c0.8,0.6,1.4,1.4,1.8,2.3c0.5,1.1,0.7,2.2,0.7,3.4c0,1.5-0.4,2.9-1.1,4.2c-0.8,1.2-1.8,2.2-3.1,2.8
			c-1.5,0.7-3,1-4.7,1c-1.3,0-2.6-0.2-3.9-0.5c-1-0.3-2-0.7-3-1.2c-0.9-0.5-1.6-0.9-2.1-1.2l0.9-1.6c0.7,0.5,1.4,0.9,2.2,1.3
			c0.9,0.4,1.8,0.8,2.8,1.1c1,0.3,2,0.4,3,0.4c1.2,0,2.3-0.2,3.3-0.7c1.1-0.4,2-1.2,2.7-2.1c0.7-1,1.1-2.3,1.1-3.5
			c0.1-1.2-0.3-2.4-1-3.3c-0.7-0.9-1.6-1.6-2.6-2.1c-1.1-0.5-2.2-1-3.3-1.4c-0.9-0.4-1.8-0.7-2.7-1.1c-0.9-0.4-1.7-0.8-2.5-1.4
			c-0.7-0.5-1.3-1.2-1.8-2c-0.5-0.9-0.7-1.8-0.7-2.8c0-1.3,0.3-2.5,1-3.6c0.7-1,1.7-1.9,2.8-2.4c1.3-0.6,2.7-0.9,4.1-0.9
			c1.4,0,2.7,0.2,4.1,0.5c1.2,0.3,2.4,0.7,3.6,1.3L132.5,263.7z"/>
		<path class="st1" d="M147.1,289.3c-1.4,0-2.8-0.3-4.1-1c-1.2-0.7-2.2-1.7-2.9-2.9c-1.4-2.8-1.4-6,0.1-8.8c0.7-1.2,1.7-2.2,3-2.9
			c1.4-0.7,2.9-1,4.4-1c1.4,0,2.8,0.4,4,1.3c1.2,0.8,2.1,1.8,2.7,3.1l-0.3,0.6l0.2-4.5h1.7V289H154v-4.9l0.4,0.7
			c-0.2,0.6-0.6,1.1-1,1.6c-1,1.2-2.4,2-3.8,2.5C148.8,289.2,148,289.3,147.1,289.3z M147.5,287.7c1.1,0,2.2-0.2,3.2-0.7
			c0.9-0.5,1.7-1.2,2.3-2.1c0.6-0.9,0.9-1.9,1-3v-2.2c-0.2-1-0.6-1.9-1.3-2.6c-0.6-0.8-1.4-1.4-2.3-1.9c-0.9-0.5-2-0.7-3-0.7
			c-1.1,0-2.3,0.3-3.3,0.8c-1,0.5-1.8,1.3-2.4,2.3c-0.6,1.1-0.9,2.3-0.9,3.5c0,1.2,0.3,2.3,0.9,3.4c0.6,1,1.4,1.8,2.4,2.4
			C145.2,287.4,146.4,287.7,147.5,287.7L147.5,287.7z"/>
		<path class="st1" d="M162.7,267.5c0-0.4,0.2-0.7,0.4-1c0.3-0.3,0.6-0.4,1-0.4c0.4,0,0.7,0.1,1,0.4c0.3,0.2,0.4,0.6,0.4,1
			c0,0.4-0.1,0.7-0.4,1c-0.5,0.5-1.4,0.5-1.9,0C162.9,268.3,162.7,267.9,162.7,267.5z M163.1,273.3h1.9V289h-1.9L163.1,273.3z"/>
		<path class="st1" d="M180.9,289.3c-1.6,0-3.1-0.4-4.4-1.2c-1.2-0.8-2.3-1.8-2.9-3.1l0.4-1.1v5.1h-1.9v-30.5h1.9v19.4l-0.2-1
			c0.6-1.3,1.7-2.3,2.9-3c1.4-0.7,2.9-1.1,4.4-1.1c1.4,0,2.8,0.4,4,1.1c1.2,0.7,2.2,1.7,2.9,2.9c0.7,1.3,1.1,2.7,1.1,4.2
			c0,1.6-0.3,3.1-1.1,4.5c-0.7,1.2-1.8,2.2-3,2.8C183.7,289,182.3,289.3,180.9,289.3z M180.6,287.7c1.2,0,2.4-0.3,3.5-0.9
			c1-0.6,1.8-1.4,2.3-2.4c0.5-1.1,0.8-2.2,0.8-3.4c0-1.2-0.3-2.3-0.8-3.3c-1.1-2.1-3.3-3.4-5.7-3.3c-1,0-2.1,0.2-3,0.7
			c-0.9,0.4-1.7,1.1-2.3,1.9c-0.6,0.8-1.1,1.7-1.3,2.7v2.4c0.1,1,0.4,1.9,1,2.8c0.6,0.9,1.4,1.6,2.3,2.1
			C178.3,287.4,179.5,287.7,180.6,287.7L180.6,287.7z"/>
		<path class="st1" d="M201.2,289.3c-1.4,0-2.8-0.3-4.1-1c-1.2-0.7-2.2-1.7-2.9-2.9c-1.4-2.8-1.4-6,0.1-8.8c0.7-1.2,1.8-2.2,3.1-2.9
			c1.4-0.7,2.9-1,4.4-1c2.9,0.1,5.4,1.8,6.6,4.4l-0.3,0.6l0.2-4.5h1.7V289h-1.9v-4.9l0.4,0.7c-0.2,0.6-0.6,1.1-1,1.6
			c-0.5,0.6-1.1,1-1.7,1.4c-0.7,0.5-1.4,0.8-2.2,1C202.9,289.2,202,289.3,201.2,289.3z M201.6,287.7c1.1,0,2.2-0.2,3.2-0.7
			c0.9-0.5,1.7-1.2,2.3-2.1c0.6-0.9,0.9-1.9,1-3v-2.2c-0.2-1-0.6-1.9-1.3-2.6c-0.6-0.8-1.4-1.4-2.3-1.9c-2-1-4.3-0.9-6.2,0.1
			c-1,0.5-1.8,1.3-2.4,2.3c-0.6,1.1-0.9,2.3-0.9,3.5c0,1.2,0.3,2.3,0.9,3.4c0.6,1,1.4,1.8,2.4,2.4
			C199.3,287.4,200.4,287.7,201.6,287.7L201.6,287.7z"/>
		<path class="st1" d="M235.8,289.3c-1.4,0-2.8-0.4-4-1.1c-1.2-0.7-2.2-1.7-2.9-2.9c-1.4-2.7-1.4-5.9,0-8.5c0.7-1.2,1.8-2.3,3-3
			c1.3-0.7,2.8-1.1,4.3-1.1c1.5,0,2.9,0.4,4.2,1.2c1.2,0.7,2.3,1.8,2.9,3.1l-0.4,1.1v-5.1h1.9v23.4H243v-12.6l0.2,1.3
			c-0.6,1.3-1.6,2.3-2.9,3C238.9,289,237.4,289.4,235.8,289.3z M236.3,287.8c1.1,0,2.2-0.3,3.2-0.8c0.9-0.5,1.7-1.2,2.3-2.1
			c0.6-0.9,1-1.9,1-3v-1.4c-0.1-1.1-0.4-2.2-1-3.1c-0.6-0.9-1.4-1.6-2.3-2.2c-1-0.5-2.1-0.8-3.3-0.8c-1.1,0-2.3,0.3-3.3,0.9
			c-2,1.2-3.3,3.4-3.3,5.8c0,2.4,1.2,4.5,3.3,5.7C234,287.4,235.2,287.8,236.3,287.8z"/>
		<path class="st1" d="M256.9,289.4c-2.6,0.2-4.8-1.8-4.9-4.3c0-0.1,0-0.2,0-0.4v-11.4h1.9v10.9c0,0.9,0.4,1.8,1,2.5
			c0.7,0.7,1.7,1.1,2.7,1.1c1,0,2-0.3,2.8-0.8c0.9-0.5,1.6-1.3,2.1-2.2c0.6-1,0.8-2,0.8-3.1v-8.4h1.9V289h-1.7l-0.2-4.9l0.3,1.1
			c-0.3,0.8-0.8,1.6-1.4,2.2c-0.7,0.7-1.5,1.2-2.4,1.5C258.9,289.3,257.9,289.4,256.9,289.4z"/>
		<path class="st1" d="M278.9,289.3c-1.4,0-2.8-0.3-4.1-1c-1.2-0.7-2.2-1.7-2.9-2.9c-0.7-1.3-1.1-2.8-1.1-4.3c0-1.6,0.3-3.1,1.1-4.5
			c0.7-1.2,1.8-2.2,3-2.9c1.4-0.7,2.9-1,4.4-1c2.9,0.1,5.4,1.8,6.6,4.4l-0.3,0.6l0.2-4.5h1.7V289h-1.9v-4.9l0.4,0.7
			c-0.2,0.6-0.6,1.1-1,1.6c-1,1.1-2.4,2-3.8,2.5C280.6,289.2,279.7,289.3,278.9,289.3z M279.3,287.7c1.1,0,2.2-0.2,3.2-0.7
			c0.9-0.5,1.7-1.2,2.3-2.1c0.6-0.9,0.9-1.9,1-3v-2.2c-0.2-1-0.6-1.9-1.3-2.6c-0.6-0.8-1.4-1.4-2.3-1.9c-2-1-4.3-0.9-6.2,0.1
			c-1,0.5-1.8,1.3-2.4,2.3c-0.6,1.1-0.9,2.3-0.9,3.5c0,1.2,0.3,2.3,0.9,3.4c0.6,1,1.4,1.8,2.4,2.4
			C277,287.4,278.2,287.7,279.3,287.7L279.3,287.7z"/>
		<path class="st1" d="M294.4,267.5c0-0.4,0.2-0.7,0.4-1c0.3-0.2,0.6-0.4,1-0.4c0.4,0,0.7,0.1,1,0.4c0.3,0.2,0.4,0.6,0.4,1
			c0,0.4-0.1,0.7-0.4,1c-0.3,0.3-0.6,0.4-1,0.4c-0.4,0-0.7-0.1-1-0.4C294.6,268.3,294.4,267.9,294.4,267.5z M294.8,273.3h1.9V289
			h-1.9V273.3z"/>
		<path class="st1" d="M307.6,289.3c-1,0-1.9-0.2-2.9-0.5c-0.9-0.3-1.8-0.9-2.4-1.6l0.9-1.2c0.5,0.6,1.2,1,1.9,1.3
			c0.7,0.3,1.5,0.5,2.3,0.5c0.6,0,1.2-0.1,1.8-0.3c1.2-0.3,1.9-1.4,1.9-2.6c0-0.6-0.2-1.3-0.6-1.7c-0.4-0.4-1-0.8-1.6-1
			c-0.6-0.3-1.3-0.5-2-0.7c-1-0.3-2-0.8-2.8-1.5c-0.8-0.7-1.2-1.7-1.1-2.7c0-0.8,0.2-1.6,0.6-2.3c0.4-0.6,1-1.2,1.7-1.5
			c0.8-0.4,1.6-0.6,2.4-0.5c0.8,0,1.7,0.1,2.5,0.4c0.8,0.3,1.6,0.7,2.2,1.4l-0.8,1.3c-0.4-0.6-1-1-1.7-1.2c-0.6-0.2-1.2-0.3-1.9-0.4
			c-0.5,0-1,0.1-1.4,0.3c-0.5,0.2-0.9,0.5-1.2,0.8c-0.4,0.4-0.5,0.9-0.5,1.4c0,0.5,0.2,1.1,0.5,1.5c0.4,0.4,0.8,0.7,1.3,1
			c0.5,0.2,1.1,0.5,1.7,0.7c0.7,0.2,1.5,0.5,2.2,0.9c0.7,0.3,1.2,0.8,1.7,1.3c0.5,0.6,0.7,1.4,0.7,2.2c0,0.9-0.2,1.7-0.6,2.5
			c-0.4,0.7-1,1.3-1.8,1.7C309.6,289.1,308.6,289.3,307.6,289.3z"/>
		<path class="st1" d="M337.5,289.3c-1.4,0-2.8-0.3-4.1-1c-1.2-0.7-2.2-1.7-2.9-2.9c-1.4-2.8-1.4-6,0.1-8.8c0.7-1.2,1.8-2.2,3-2.9
			c1.4-0.7,2.9-1,4.4-1c1.4,0,2.8,0.4,4,1.3c1.2,0.8,2.1,1.8,2.7,3.1l-0.3,0.6l0.2-4.5h1.7V289h-1.9v-4.9l0.4,0.7
			c-0.2,0.6-0.6,1.1-1,1.6c-1,1.2-2.4,2-3.8,2.5C339.1,289.2,338.3,289.3,337.5,289.3z M337.9,287.7c1.1,0,2.2-0.2,3.2-0.7
			c0.9-0.5,1.7-1.2,2.3-2.1c0.6-0.9,0.9-1.9,1-3v-2.2c-0.2-1-0.6-1.9-1.3-2.7c-0.6-0.8-1.4-1.4-2.3-1.9c-2-1-4.3-0.9-6.2,0.1
			c-1,0.5-1.8,1.3-2.4,2.3c-0.6,1.1-0.9,2.3-0.9,3.5c0,1.2,0.3,2.3,0.9,3.4c0.6,1,1.4,1.8,2.4,2.4
			C335.6,287.4,336.7,287.7,337.9,287.7L337.9,287.7z"/>
		<path class="st1" d="M357.1,289.3c-1,0-1.9-0.2-2.9-0.5c-0.9-0.3-1.8-0.9-2.4-1.6l0.9-1.2c0.5,0.6,1.2,1,1.9,1.3
			c1.3,0.6,2.7,0.7,4.1,0.2c0.5-0.2,1-0.5,1.3-0.9c0.4-0.5,0.6-1.1,0.5-1.7c0-0.6-0.2-1.3-0.6-1.7c-0.5-0.4-1-0.8-1.6-1
			c-0.6-0.3-1.3-0.5-2-0.7c-1-0.3-2-0.8-2.8-1.5c-0.8-0.7-1.2-1.7-1.1-2.7c0-0.8,0.2-1.6,0.6-2.3c0.4-0.6,1-1.2,1.7-1.5
			c0.8-0.4,1.6-0.6,2.5-0.5c0.8,0,1.7,0.1,2.5,0.4c0.8,0.3,1.6,0.7,2.2,1.4l-0.8,1.3c-0.4-0.6-1-1-1.7-1.2c-0.6-0.2-1.2-0.3-1.9-0.4
			c-0.5,0-1,0.1-1.4,0.3c-0.5,0.2-0.9,0.5-1.3,0.8c-0.3,0.4-0.5,0.9-0.5,1.4c0,0.5,0.2,1.1,0.5,1.5c0.4,0.4,0.8,0.7,1.4,1
			c0.5,0.2,1.1,0.5,1.7,0.7c0.8,0.2,1.5,0.5,2.2,0.9c0.7,0.3,1.2,0.8,1.7,1.3c0.5,0.6,0.7,1.4,0.7,2.2c0,0.9-0.2,1.7-0.6,2.5
			c-0.4,0.7-1,1.3-1.8,1.7C359.1,289.1,358.1,289.3,357.1,289.3z"/>
		<path class="st1" d="M40.7,329.1v-13.9h-2.7v-1.7h2.7v-7.9c0-2.5,0.4-4.3,1.3-5.4c1-1.1,2.4-1.8,3.9-1.7c0.4,0,0.8,0.1,1.2,0.1
			c0.4,0.1,0.8,0.2,1.2,0.5l-0.8,1.4c-0.2-0.1-0.4-0.2-0.6-0.3c-0.3-0.1-0.5-0.1-0.8-0.1c-1-0.1-2,0.4-2.6,1.2
			c-0.6,0.8-0.9,2.2-0.9,4.3v8h5.3v1.7h-5.3v13.9L40.7,329.1z"/>
		<path class="st1" d="M58.8,329.5c-1.5,0-3-0.3-4.3-1.1c-1.2-0.7-2.3-1.7-3-3c-0.7-1.3-1.1-2.7-1.1-4.2c0-1.5,0.4-2.9,1.1-4.2
			c0.7-1.2,1.8-2.3,3-3c1.3-0.8,2.8-1.1,4.2-1.1c1.7-0.1,3.4,0.5,4.7,1.6c1.3,1.1,2.3,2.6,2.8,4.3l-13.7,5.3l-0.5-1.4l12.6-4.9
			l-0.4,0.6c-0.5-1.1-1.2-2-2.1-2.8c-1-0.8-2.2-1.2-3.4-1.2c-1.1,0-2.3,0.3-3.3,0.9c-2,1.2-3.2,3.4-3.2,5.7c0,1.1,0.3,2.3,0.8,3.3
			c0.5,1,1.3,1.8,2.3,2.4c1,0.6,2.2,1,3.4,0.9c0.8,0,1.7-0.2,2.5-0.5c0.8-0.3,1.5-0.7,2.1-1.3l1,1.4c-0.8,0.6-1.7,1.1-2.6,1.4
			C60.9,329.3,59.8,329.4,58.8,329.5z"/>
		<path class="st1" d="M73.2,313.4l0.2,4.8l-0.2-0.6c0.3-0.9,0.9-1.8,1.6-2.5c0.7-0.7,1.6-1.2,2.5-1.6c0.9-0.4,1.8-0.5,2.7-0.6
			l-0.1,1.8c-1.1,0-2.3,0.3-3.3,0.8c-0.9,0.5-1.7,1.2-2.3,2.1c-0.6,0.9-0.9,1.9-0.9,3v8.3h-1.9v-15.6H73.2z"/>
		<path class="st1" d="M86.9,313.4l0.2,4.8l-0.2-0.6c0.3-0.9,0.9-1.8,1.7-2.5c0.7-0.7,1.6-1.2,2.5-1.6c0.9-0.4,1.8-0.6,2.7-0.6
			l-0.1,1.8c-1.1,0-2.3,0.3-3.3,0.8c-1,0.5-1.8,1.2-2.3,2.1c-0.6,0.9-0.9,1.9-0.9,3v8.3h-1.8v-15.6H86.9z"/>
		<path class="st1" d="M105.3,329.5c-1.4,0-2.8-0.3-4.1-1c-1.2-0.7-2.2-1.7-2.9-2.9c-0.7-1.3-1.1-2.8-1.1-4.3c0-1.6,0.3-3.1,1.1-4.5
			c0.7-1.2,1.8-2.2,3-2.9c1.4-0.7,2.9-1,4.4-1c1.4,0,2.8,0.4,4,1.2c1.2,0.8,2.1,1.8,2.7,3.1l-0.3,0.6l0.2-4.5h1.7v15.7h-1.9v-4.9
			l0.4,0.7c-0.2,0.6-0.6,1.1-1,1.6c-0.5,0.5-1,1-1.6,1.4c-0.7,0.4-1.4,0.8-2.2,1C107,329.3,106.2,329.4,105.3,329.5z M105.7,327.9
			c1.1,0,2.2-0.2,3.2-0.7c1.9-1,3.2-2.9,3.3-5.1v-2.3c-0.2-1-0.6-1.9-1.3-2.6c-0.6-0.8-1.4-1.4-2.3-1.8c-0.9-0.5-2-0.7-3-0.7
			c-1.1,0-2.3,0.3-3.3,0.8c-1,0.5-1.8,1.3-2.4,2.3c-0.6,1.1-0.9,2.3-0.9,3.5c0,1.2,0.3,2.3,0.9,3.4c0.6,1,1.4,1.8,2.4,2.4
			C103.4,327.6,104.5,327.9,105.7,327.9z"/>
		<path class="st1" d="M122.9,313.4l0.2,4.4l-0.3-0.4c0.5-1.3,1.5-2.5,2.7-3.2c1.2-0.8,2.6-1.2,4.1-1.2c0.8,0,1.6,0.2,2.4,0.5
			c0.7,0.3,1.3,0.8,1.7,1.4c0.4,0.6,0.7,1.3,0.8,2l-0.2,0.2c0.5-1.3,1.5-2.3,2.6-3c1.2-0.7,2.5-1,3.9-1c1.3-0.1,2.6,0.4,3.6,1.3
			c0.9,0.9,1.4,2.1,1.4,3.4v11.4h-1.9v-11c0-0.9-0.3-1.7-0.9-2.4c-0.7-0.7-1.6-1.1-2.6-1.1c-1,0-2,0.3-2.9,0.8
			c-0.9,0.5-1.6,1.3-2.1,2.1c-0.6,0.9-0.9,1.9-0.9,3v8.6h-1.9v-11c0-0.9-0.3-1.7-0.9-2.4c-0.7-0.7-1.6-1.1-2.6-1.1
			c-1.1,0-2.1,0.3-3,0.8c-1.8,1.1-3,3.1-2.9,5.3v8.4h-1.9v-15.9H122.9z"/>
		<path class="st1" d="M159.6,329.5c-1.5,0-3-0.3-4.3-1.1c-1.2-0.7-2.3-1.7-2.9-3c-0.7-1.3-1.1-2.7-1.1-4.2c0-1.5,0.4-2.9,1.1-4.2
			c0.7-1.2,1.8-2.3,3-3c1.3-0.8,2.8-1.1,4.2-1.1c1.7-0.1,3.4,0.5,4.7,1.6c1.3,1.1,2.3,2.6,2.8,4.3l-13.7,5.3l-0.6-1.4l12.6-4.9
			l-0.4,0.6c-0.5-1.1-1.2-2-2.1-2.8c-1-0.8-2.2-1.2-3.4-1.2c-1.1,0-2.3,0.3-3.3,0.9c-2,1.2-3.2,3.4-3.2,5.7c0,1.1,0.3,2.3,0.8,3.3
			c0.5,1,1.3,1.8,2.3,2.4c1,0.6,2.2,1,3.4,0.9c0.8,0,1.7-0.2,2.5-0.5c0.8-0.3,1.5-0.7,2.1-1.3l1,1.4c-0.8,0.6-1.7,1.1-2.6,1.4
			C161.7,329.3,160.7,329.5,159.6,329.5z"/>
		<path class="st1" d="M174,313.4l0.2,4.9l-0.2-1c0.4-1.4,1.4-2.5,2.6-3.2c1.3-0.8,2.8-1.2,4.3-1.1c1.3-0.1,2.6,0.4,3.6,1.3
			c0.9,0.9,1.4,2.1,1.4,3.4v11.4h-1.9v-10.9c0-0.9-0.4-1.8-1-2.5c-0.7-0.7-1.7-1.1-2.7-1c-2.1,0-4,1.1-5.1,2.9
			c-0.6,1-0.8,2.1-0.8,3.2v8.4h-1.9v-15.7H174z"/>
		<path class="st1" d="M194.5,306.5h1.9v7.1h4.9v1.5h-4.9v14h-1.9v-14h-3.3v-1.5h3.3V306.5z"/>
		<path class="st1" d="M212.5,329.5c-1.4,0-2.8-0.3-4.1-1c-1.2-0.7-2.2-1.7-2.9-2.9c-0.7-1.3-1.1-2.8-1.1-4.3c0-1.6,0.3-3.1,1.1-4.5
			c0.7-1.2,1.8-2.2,3.1-2.9c1.4-0.7,2.9-1,4.4-1c1.4,0,2.8,0.4,3.9,1.2c1.2,0.8,2.1,1.8,2.7,3.1l-0.3,0.6l0.2-4.5h1.7v15.7h-1.9
			v-4.9l0.4,0.7c-0.2,0.6-0.6,1.1-1,1.6c-0.5,0.6-1.1,1-1.7,1.5c-0.7,0.4-1.4,0.8-2.2,1C214.1,329.3,213.3,329.4,212.5,329.5z
			 M212.9,327.9c1.1,0,2.2-0.2,3.2-0.7c1.9-1,3.2-2.9,3.3-5.1v-2.3c-0.2-1-0.6-1.9-1.3-2.6c-0.6-0.8-1.4-1.4-2.3-1.8
			c-0.9-0.5-2-0.7-3-0.7c-1.1,0-2.3,0.3-3.3,0.8c-1,0.5-1.8,1.3-2.4,2.3c-0.6,1.1-0.9,2.3-0.9,3.5c0,1.2,0.3,2.3,0.9,3.4
			c0.6,1,1.4,1.8,2.4,2.4C210.6,327.6,211.7,327.9,212.9,327.9L212.9,327.9z"/>
		<path class="st1" d="M232.1,329.5c-1,0-1.9-0.2-2.9-0.5c-0.9-0.3-1.8-0.9-2.4-1.6l0.9-1.3c0.5,0.6,1.2,1,1.9,1.4
			c0.7,0.3,1.5,0.5,2.4,0.5c0.6,0,1.2-0.1,1.8-0.3c0.5-0.2,1-0.5,1.3-0.9c0.4-0.5,0.6-1.1,0.5-1.7c0-0.6-0.2-1.3-0.6-1.7
			c-0.5-0.4-1-0.8-1.6-1c-0.6-0.3-1.3-0.5-2-0.7c-1-0.3-2-0.8-2.8-1.5c-0.8-0.7-1.2-1.7-1.1-2.7c0-0.8,0.2-1.6,0.6-2.2
			c0.4-0.7,1-1.2,1.7-1.5c0.8-0.4,1.6-0.6,2.4-0.5c0.8,0,1.7,0.1,2.5,0.4c0.8,0.3,1.6,0.7,2.2,1.4l-0.9,1.3c-0.4-0.6-1-1-1.7-1.2
			c-0.6-0.2-1.2-0.3-1.9-0.4c-0.5,0-1,0.1-1.4,0.3c-0.5,0.2-0.9,0.5-1.3,0.8c-0.3,0.4-0.5,0.9-0.5,1.4c0,0.6,0.2,1.1,0.5,1.5
			c0.4,0.4,0.8,0.7,1.4,0.9c0.6,0.2,1.1,0.5,1.7,0.7c0.8,0.2,1.5,0.5,2.2,0.9c0.7,0.3,1.2,0.8,1.7,1.3c0.5,0.6,0.7,1.4,0.7,2.2
			c0,0.9-0.2,1.7-0.6,2.5c-0.4,0.7-1,1.3-1.8,1.7C234.1,329.3,233.1,329.5,232.1,329.5z"/>
		<path class="st1" d="M262.3,329.5c-1.5,0-3-0.3-4.3-1.1c-1.3-0.7-2.3-1.7-3-3c-0.7-1.3-1.1-2.7-1.1-4.2c0-1.5,0.4-2.9,1.1-4.2
			c0.7-1.2,1.8-2.3,3-3c1.3-0.8,2.7-1.1,4.2-1.1c1.7-0.1,3.4,0.5,4.7,1.6c1.3,1.1,2.3,2.6,2.8,4.3l-13.7,5.3l-0.6-1.4l12.6-4.9
			l-0.4,0.6c-0.5-1.1-1.2-2-2.1-2.8c-0.9-0.8-2.2-1.2-3.4-1.2c-1.1,0-2.3,0.3-3.3,0.9c-1,0.6-1.7,1.4-2.3,2.4
			c-0.6,1-0.9,2.2-0.9,3.4c0,1.1,0.3,2.3,0.8,3.3c0.5,1,1.3,1.8,2.3,2.4c1,0.6,2.2,1,3.4,0.9c0.8,0,1.7-0.2,2.5-0.5
			c0.8-0.3,1.5-0.7,2.1-1.3l1,1.4c-0.8,0.6-1.7,1.1-2.6,1.4C264.3,329.3,263.3,329.5,262.3,329.5z"/>
		<path class="st1" d="M296,329.5c-1.5,0-3-0.4-4.2-1.2c-1.2-0.7-2.2-1.8-2.9-3.1l0.3-0.7v12.2h-1.9v-23.4h1.7l0.2,5.1l-0.4-1.2
			c0.7-1.3,1.8-2.4,3-3.1c1.3-0.8,2.8-1.2,4.4-1.2c1.4,0,2.8,0.4,4,1.1c1.2,0.7,2.2,1.7,2.9,3c0.7,1.3,1.1,2.8,1.1,4.3
			c0,1.5-0.4,2.9-1.1,4.2c-0.7,1.2-1.8,2.2-3,2.9C298.9,329.1,297.5,329.5,296,329.5z M295.7,327.9c1.2,0,2.3-0.3,3.4-0.9
			c1-0.6,1.8-1.4,2.4-2.4c0.6-1,0.9-2.2,0.9-3.4c0-1.2-0.3-2.4-0.9-3.4c-0.6-1-1.4-1.8-2.3-2.4c-1-0.6-2.2-0.9-3.3-0.9
			c-1.1,0-2.2,0.3-3.2,0.8c-0.9,0.5-1.7,1.3-2.3,2.2c-0.6,0.9-1,2-1,3.1v1.3c0.1,1.1,0.4,2.1,1,3c0.6,0.9,1.4,1.6,2.3,2.1
			C293.5,327.7,294.6,327.9,295.7,327.9L295.7,327.9z"/>
		<path class="st1" d="M311.6,313.4l0.2,4.8l-0.2-0.6c0.3-0.9,0.9-1.8,1.6-2.5c0.7-0.7,1.6-1.2,2.5-1.6c0.8-0.4,1.8-0.5,2.7-0.6
			l-0.1,1.8c-1.1,0-2.3,0.3-3.3,0.8c-0.9,0.5-1.7,1.2-2.3,2.1c-0.6,0.9-0.9,1.9-0.9,3v8.3h-1.9v-15.7H311.6z"/>
		<path class="st1" d="M321.5,321.2c0-3,1.5-5.7,4.1-7.2c2.7-1.5,5.9-1.5,8.6,0c1.3,0.7,2.3,1.7,3,3c1.5,2.6,1.5,5.8,0,8.4
			c-0.7,1.3-1.7,2.3-3,3c-1.3,0.7-2.8,1.1-4.3,1.1c-1.5,0-3-0.3-4.3-1.1c-1.2-0.7-2.3-1.7-3-2.9
			C321.8,324.2,321.4,322.7,321.5,321.2z M323.4,321.2c0,1.2,0.3,2.3,0.9,3.4c0.6,1,1.4,1.8,2.3,2.4c2,1.2,4.5,1.2,6.5,0
			c1-0.6,1.8-1.4,2.3-2.4c1.8-3.2,0.8-7.2-2.3-9.1c-1-0.6-2.1-0.9-3.3-0.9c-1.2,0-2.3,0.3-3.3,1c-1,0.6-1.8,1.5-2.3,2.5
			C323.6,319,323.4,320.1,323.4,321.2L323.4,321.2z"/>
		<path class="st1" d="M356,327.6c-0.7,0.6-1.6,1.1-2.5,1.4c-2.4,0.8-4.9,0.6-7.1-0.6c-1.2-0.7-2.3-1.7-3-2.9
			c-0.7-1.3-1.1-2.7-1.1-4.2c0-1.5,0.4-2.9,1.1-4.2c1.5-2.5,4.2-4,7.1-4c1,0,2.1,0.2,3,0.5c0.9,0.3,1.7,0.8,2.5,1.4l-1,1.3
			c-0.6-0.5-1.3-0.9-2-1.1c-0.8-0.3-1.6-0.4-2.4-0.4c-1.1,0-2.3,0.3-3.2,0.9c-1,0.6-1.8,1.4-2.3,2.4c-1.1,2.1-1.1,4.6,0,6.7
			c1.2,2,3.4,3.3,5.7,3.3c0.8,0,1.5-0.1,2.3-0.4c0.7-0.2,1.3-0.6,1.9-1L356,327.6z"/>
		<path class="st1" d="M368,329.5c-1.5,0-3-0.3-4.3-1.1c-1.2-0.7-2.2-1.7-3-3c-0.7-1.3-1.1-2.7-1.1-4.2c0-1.5,0.4-2.9,1.1-4.2
			c0.7-1.2,1.8-2.3,3-3c1.3-0.8,2.8-1.1,4.2-1.1c1.7-0.1,3.4,0.5,4.7,1.6c1.3,1.1,2.3,2.6,2.8,4.3l-13.7,5.3l-0.6-1.4l12.6-4.9
			l-0.4,0.6c-0.5-1.1-1.2-2-2.1-2.8c-0.9-0.8-2.2-1.2-3.4-1.2c-1.1,0-2.3,0.3-3.3,0.9c-2,1.2-3.2,3.4-3.2,5.7c0,1.1,0.3,2.3,0.8,3.3
			c0.5,1,1.3,1.8,2.3,2.4c1,0.6,2.2,1,3.4,0.9c0.8,0,1.7-0.2,2.5-0.5c0.8-0.3,1.5-0.7,2.1-1.3l1,1.4c-0.8,0.6-1.7,1.1-2.6,1.4
			C370,329.3,369,329.5,368,329.5z"/>
		<path class="st1" d="M384.4,329.5c-1,0-1.9-0.2-2.9-0.5c-0.9-0.3-1.8-0.9-2.4-1.6l0.9-1.3c0.5,0.6,1.2,1,1.9,1.4
			c0.7,0.3,1.5,0.5,2.3,0.5c0.6,0,1.2-0.1,1.8-0.3c0.5-0.2,1-0.5,1.3-0.9c0.4-0.5,0.6-1.1,0.5-1.7c0-0.6-0.2-1.3-0.6-1.7
			c-0.4-0.4-1-0.8-1.6-1c-0.6-0.3-1.3-0.5-2-0.7c-1-0.3-2-0.8-2.8-1.5c-0.8-0.7-1.2-1.7-1.1-2.7c0-0.8,0.2-1.6,0.6-2.2
			c0.4-0.7,1-1.2,1.7-1.5c0.8-0.4,1.6-0.6,2.4-0.5c0.8,0,1.7,0.1,2.5,0.4c0.8,0.3,1.6,0.7,2.2,1.4l-0.8,1.3c-0.4-0.6-1-1-1.7-1.2
			c-0.6-0.2-1.2-0.3-1.9-0.4c-0.5,0-1,0.1-1.4,0.3c-0.5,0.2-0.9,0.5-1.2,0.8c-0.3,0.4-0.5,0.9-0.5,1.4c0,0.6,0.2,1.1,0.5,1.5
			c0.4,0.4,0.8,0.7,1.3,0.9c0.5,0.2,1.1,0.5,1.7,0.7c0.7,0.2,1.5,0.5,2.2,0.9c0.7,0.3,1.2,0.8,1.7,1.3c0.5,0.6,0.7,1.4,0.7,2.2
			c0,0.9-0.2,1.7-0.6,2.5c-0.4,0.7-1,1.3-1.8,1.7C386.5,329.3,385.5,329.5,384.4,329.5z"/>
		<path class="st1" d="M399.2,329.5c-1,0-1.9-0.2-2.9-0.5c-0.9-0.3-1.8-0.9-2.4-1.6l0.9-1.3c0.5,0.6,1.2,1,1.9,1.4
			c0.7,0.3,1.5,0.5,2.4,0.5c0.6,0,1.2-0.1,1.8-0.3c0.5-0.2,1-0.5,1.3-0.9c0.4-0.5,0.6-1.1,0.5-1.7c0-0.6-0.2-1.3-0.6-1.7
			c-0.4-0.4-1-0.8-1.6-1c-0.6-0.3-1.3-0.5-2-0.7c-1-0.3-2-0.8-2.8-1.5c-0.8-0.7-1.2-1.7-1.1-2.7c0-0.8,0.2-1.6,0.6-2.2
			c0.4-0.7,1-1.2,1.7-1.5c0.8-0.4,1.6-0.6,2.4-0.5c0.8,0,1.7,0.1,2.5,0.4c0.8,0.3,1.6,0.7,2.2,1.4l-0.8,1.3c-0.4-0.6-1-1-1.7-1.2
			c-0.6-0.2-1.2-0.3-1.9-0.4c-0.5,0-1,0.1-1.4,0.3c-0.5,0.2-0.9,0.5-1.2,0.8c-0.3,0.4-0.5,0.9-0.5,1.4c0,0.6,0.2,1.1,0.5,1.5
			c0.4,0.4,0.8,0.7,1.3,0.9c0.5,0.2,1.1,0.5,1.7,0.7c0.7,0.2,1.5,0.5,2.2,0.9c0.7,0.3,1.2,0.8,1.7,1.3c0.5,0.6,0.7,1.4,0.7,2.2
			c0,0.9-0.2,1.7-0.6,2.5c-0.4,0.7-1,1.3-1.8,1.7C401.3,329.3,400.2,329.5,399.2,329.5z"/>
		<path class="st1" d="M408.8,321.2c0-1.5,0.4-2.9,1.1-4.2c0.7-1.2,1.8-2.3,3-3c2.7-1.5,5.9-1.5,8.6,0c1.3,0.7,2.3,1.7,3,3
			c1.4,2.6,1.4,5.8,0,8.4c-0.7,1.3-1.7,2.3-3,3c-1.3,0.7-2.8,1.1-4.3,1.1c-1.5,0-3-0.3-4.3-1.1c-1.2-0.7-2.3-1.7-3-2.9
			C409.1,324.2,408.7,322.7,408.8,321.2z M410.6,321.2c0,2.3,1.2,4.5,3.2,5.7c2,1.2,4.5,1.2,6.5,0c1-0.6,1.8-1.4,2.3-2.4
			c1.8-3.2,0.8-7.2-2.3-9.1c-2-1.2-4.6-1.2-6.6,0c-1,0.6-1.8,1.5-2.3,2.5C410.9,318.9,410.6,320.1,410.6,321.2L410.6,321.2z"/>
		<path class="st1" d="M434.8,329.5c-1,0-1.9-0.1-2.8-0.5c-0.9-0.3-1.8-0.9-2.4-1.6l0.9-1.3c0.5,0.6,1.2,1,1.9,1.4
			c0.7,0.3,1.5,0.5,2.4,0.5c0.6,0,1.2-0.1,1.8-0.3c0.5-0.2,1-0.5,1.3-0.9c0.4-0.5,0.6-1.1,0.5-1.7c0-0.6-0.2-1.3-0.6-1.7
			c-0.4-0.4-1-0.8-1.6-1c-0.6-0.3-1.3-0.5-2-0.7c-1-0.3-2-0.8-2.8-1.5c-0.8-0.7-1.2-1.7-1.1-2.7c0-0.8,0.2-1.6,0.6-2.2
			c0.4-0.7,1-1.2,1.7-1.5c0.8-0.4,1.6-0.6,2.4-0.5c0.8,0,1.7,0.1,2.5,0.4c0.8,0.3,1.6,0.7,2.2,1.4l-0.8,1.3c-0.4-0.6-1-1-1.7-1.2
			c-0.6-0.2-1.2-0.3-1.9-0.4c-0.5,0-1,0.1-1.4,0.3c-0.5,0.2-0.9,0.5-1.2,0.8c-0.3,0.4-0.5,0.9-0.5,1.4c0,0.6,0.2,1.1,0.5,1.5
			c0.4,0.4,0.8,0.7,1.3,0.9c0.5,0.2,1.1,0.5,1.7,0.7c0.7,0.2,1.5,0.5,2.2,0.9c0.7,0.3,1.2,0.8,1.7,1.3c0.5,0.6,0.7,1.4,0.7,2.2
			c0,0.9-0.2,1.7-0.6,2.5c-0.4,0.7-1,1.3-1.8,1.7C436.9,329.3,435.8,329.5,434.8,329.5z"/>
		<path class="st1" d="M56.5,353.6l0.2,4.4l-0.3-0.4c0.5-1.3,1.5-2.5,2.7-3.2c1.2-0.8,2.6-1.2,4.1-1.2c0.8,0,1.6,0.2,2.4,0.5
			c0.7,0.3,1.3,0.8,1.7,1.4c0.4,0.6,0.7,1.3,0.8,2l-0.2,0.2c0.5-1.3,1.4-2.4,2.7-3c1.2-0.7,2.5-1.1,3.9-1c1.3-0.1,2.6,0.4,3.6,1.3
			c0.9,0.9,1.4,2.1,1.4,3.4v11.4h-1.9v-11c0-0.9-0.3-1.7-0.9-2.4c-0.7-0.7-1.6-1.1-2.6-1.1c-1,0-2,0.3-2.9,0.8
			c-0.9,0.5-1.6,1.3-2.1,2.1c-0.6,0.9-0.9,1.9-0.9,3v8.6h-1.9v-11c0-0.9-0.3-1.7-0.9-2.4c-0.7-0.7-1.6-1.1-2.6-1.1
			c-1.1,0-2.1,0.3-3,0.8c-1.8,1.1-3,3.1-3,5.3v8.4h-1.8v-15.8H56.5z"/>
		<path class="st1" d="M93,369.6c-1.4,0-2.8-0.3-4.1-1c-1.2-0.7-2.2-1.7-2.9-2.9c-1.4-2.8-1.4-6,0.1-8.8c0.7-1.2,1.7-2.2,3-2.9
			c1.4-0.7,2.9-1,4.4-1c1.4,0,2.8,0.4,4,1.3c1.2,0.8,2.1,1.8,2.7,3.1l-0.3,0.6l0.2-4.5h1.7v15.7h-1.8v-4.9l0.4,0.7
			c-0.2,0.6-0.6,1.1-1,1.6c-1,1.2-2.4,2-3.8,2.5C94.7,369.5,93.8,369.6,93,369.6z M93.4,368c1.1,0,2.2-0.2,3.2-0.7
			c1.9-1,3.2-2.9,3.3-5.1v-2.2c-0.2-1-0.6-1.9-1.3-2.6c-0.6-0.8-1.4-1.4-2.3-1.9c-2-1-4.3-0.9-6.2,0.1c-1,0.5-1.8,1.3-2.4,2.3
			c-0.6,1.1-0.9,2.3-0.9,3.5c0,1.2,0.3,2.3,0.9,3.4c0.6,1,1.4,1.8,2.4,2.4C91.1,367.7,92.2,368,93.4,368L93.4,368z"/>
		<path class="st1" d="M108.5,347.8c0-0.4,0.2-0.7,0.4-1c0.3-0.3,0.6-0.4,1-0.4c0.4,0,0.7,0.1,1,0.4c0.3,0.2,0.4,0.6,0.4,1
			c0,0.4-0.1,0.7-0.4,1c-0.5,0.5-1.4,0.5-1.9,0C108.7,348.6,108.5,348.2,108.5,347.8z M108.9,353.6h1.9v15.7h-1.9V353.6z"/>
		<path class="st1" d="M121.6,369.6c-1,0-1.9-0.2-2.8-0.5c-0.9-0.3-1.8-0.9-2.4-1.6l0.9-1.2c0.5,0.6,1.2,1,1.9,1.3
			c1.3,0.6,2.7,0.7,4.1,0.2c0.5-0.2,1-0.5,1.3-0.9c0.4-0.5,0.6-1.1,0.5-1.7c0-0.6-0.2-1.3-0.6-1.7c-0.5-0.4-1-0.8-1.6-1
			c-0.6-0.3-1.3-0.5-2-0.7c-1-0.3-2-0.8-2.8-1.5c-0.8-0.7-1.2-1.7-1.1-2.7c0-0.8,0.2-1.6,0.6-2.3c0.4-0.6,1-1.2,1.7-1.5
			c0.8-0.4,1.6-0.6,2.4-0.5c0.8,0,1.7,0.1,2.5,0.4c0.8,0.3,1.6,0.8,2.3,1.4l-0.8,1.3c-0.4-0.6-1-1-1.7-1.2c-0.6-0.2-1.2-0.3-1.9-0.4
			c-0.5,0-1,0.1-1.4,0.3c-0.5,0.2-0.9,0.5-1.3,0.8c-0.3,0.4-0.5,0.9-0.5,1.4c0,0.5,0.2,1.1,0.5,1.5c0.4,0.4,0.8,0.8,1.3,1
			c0.5,0.2,1.1,0.5,1.7,0.7c0.8,0.2,1.5,0.5,2.2,0.9c0.7,0.3,1.2,0.8,1.7,1.3c0.5,0.6,0.7,1.4,0.7,2.2c0,0.9-0.2,1.7-0.6,2.5
			c-0.4,0.7-1,1.3-1.8,1.7C123.7,369.5,122.7,369.6,121.6,369.6z"/>
		<path class="st1" d="M144.6,347.8c0-0.4,0.2-0.7,0.4-1c0.3-0.3,0.6-0.4,1-0.4c0.4,0,0.7,0.1,1,0.4c0.3,0.2,0.4,0.6,0.4,1
			c0,0.4-0.1,0.7-0.4,1c-0.3,0.3-0.6,0.4-1,0.4c-0.4,0-0.7-0.1-1-0.4C144.8,348.5,144.6,348.2,144.6,347.8z M145,353.6h1.9v15.7H145
			L145,353.6z"/>
		<path class="st1" d="M155.7,353.6l0.2,4.9l-0.2-1c0.4-1.4,1.4-2.5,2.6-3.2c1.3-0.8,2.7-1.2,4.2-1.2c1.3-0.1,2.6,0.4,3.6,1.3
			c0.9,0.9,1.4,2.1,1.4,3.4v11.4h-1.9v-10.9c0-0.9-0.4-1.8-1-2.5c-0.7-0.7-1.7-1.1-2.7-1c-1,0-2,0.3-2.9,0.8
			c-0.9,0.5-1.7,1.2-2.2,2.1c-0.6,1-0.9,2.1-0.8,3.2v8.4H154v-15.7H155.7z"/>
		<path class="st1" d="M181,369.6c-1.4,0-2.8-0.3-4-1.1c-1.2-0.7-2.2-1.7-2.9-3c-0.7-1.3-1.1-2.8-1.1-4.3c0-1.5,0.3-3,1.1-4.4
			c0.7-1.2,1.7-2.2,2.9-2.9c1.3-0.7,2.7-1,4.1-1c1.5,0,3,0.4,4.3,1.2c1.3,0.7,2.3,1.7,3,3l-0.3,0.9v-19.4h1.8v30.5h-1.9v-4.8
			l0.4,0.9c-0.7,1.3-1.7,2.4-3,3.1C184.1,369.2,182.6,369.6,181,369.6z M181.5,367.9c1.1,0,2.2-0.3,3.3-0.8c1-0.5,1.8-1.2,2.4-2.2
			c0.6-0.9,0.9-1.9,1-3v-2c-0.2-1-0.6-1.9-1.2-2.7c-0.6-0.8-1.4-1.4-2.3-1.9c-0.9-0.5-2-0.7-3-0.7c-1.2,0-2.3,0.3-3.3,0.8
			c-1,0.6-1.8,1.4-2.4,2.3c-0.6,1-0.9,2.2-0.9,3.5c0,1.2,0.3,2.3,0.9,3.4c0.6,1,1.4,1.8,2.4,2.4
			C179.2,367.6,180.4,367.9,181.5,367.9L181.5,367.9z"/>
		<path class="st1" d="M196.8,347.8c0-0.4,0.2-0.7,0.4-1c0.3-0.2,0.6-0.4,1-0.4c0.4,0,0.7,0.1,1,0.4c0.3,0.2,0.4,0.6,0.4,1
			c0,0.4-0.1,0.7-0.4,1c-0.3,0.3-0.6,0.4-1,0.4c-0.4,0-0.7-0.1-1-0.4C196.9,348.5,196.8,348.2,196.8,347.8z M197.2,353.6h1.9v15.7
			h-1.9V353.6z"/>
		<path class="st1" d="M218.3,367.7c-0.7,0.6-1.6,1.1-2.4,1.4c-2.4,0.8-5,0.6-7.1-0.6c-1.2-0.7-2.3-1.7-3-2.9
			c-0.7-1.3-1.1-2.7-1.1-4.2c0-1.5,0.4-2.9,1.1-4.2c0.7-1.2,1.8-2.2,3-2.9c1.2-0.7,2.6-1.1,4.1-1.1c1,0,2.1,0.2,3.1,0.5
			c0.9,0.3,1.7,0.8,2.4,1.4l-1,1.3c-0.6-0.5-1.3-0.8-2-1.1c-0.8-0.3-1.6-0.4-2.4-0.4c-1.1,0-2.3,0.3-3.2,0.9c-2,1.2-3.2,3.4-3.2,5.7
			c0,1.2,0.3,2.3,0.9,3.3c0.6,1,1.4,1.8,2.4,2.4c1,0.6,2.2,0.9,3.4,0.9c0.8,0,1.5-0.1,2.2-0.4c0.7-0.2,1.3-0.6,1.9-1L218.3,367.7z"
			/>
		<path class="st1" d="M230.1,369.6c-1.4,0-2.8-0.3-4.1-1c-1.2-0.7-2.2-1.7-2.9-2.9c-1.4-2.8-1.4-6,0.1-8.8c0.7-1.2,1.7-2.2,3-2.9
			c1.4-0.7,2.9-1,4.4-1c1.4,0,2.8,0.4,3.9,1.3c1.2,0.8,2.1,1.8,2.7,3.1L237,358l0.2-4.5h1.7v15.7H237v-4.9l0.4,0.7
			c-0.2,0.6-0.6,1.1-1,1.6c-1,1.2-2.4,2-3.8,2.5C231.8,369.4,230.9,369.6,230.1,369.6z M230.5,368c1.1,0,2.2-0.2,3.2-0.7
			c1.9-1,3.2-2.9,3.3-5.1v-2.2c-0.2-1-0.6-1.9-1.3-2.6c-0.6-0.8-1.4-1.4-2.3-1.9c-2-1-4.3-0.9-6.2,0.1c-1,0.5-1.8,1.3-2.4,2.3
			c-0.6,1.1-0.9,2.3-0.9,3.5c0,1.2,0.3,2.3,0.9,3.4c0.6,1,1.4,1.8,2.4,2.4C228.2,367.7,229.3,368,230.5,368L230.5,368z"/>
		<path class="st1" d="M252.4,369.6c-2.9,0-5.5-1.5-6.9-4c-0.7-1.3-1.1-2.8-1.1-4.3c0-1.5,0.3-3,1.1-4.4c0.7-1.2,1.7-2.2,2.9-2.9
			c1.3-0.7,2.7-1,4.1-1c1.5,0,3,0.4,4.3,1.2c1.3,0.7,2.3,1.8,3,3l-0.3,0.9v-19.4h1.9v30.5h-1.9v-4.8l0.4,0.9c-0.7,1.3-1.7,2.4-3,3.1
			C255.5,369.2,254,369.6,252.4,369.6z M252.9,367.9c1.1,0,2.2-0.3,3.2-0.8c0.9-0.5,1.7-1.3,2.3-2.2c0.6-0.9,0.9-1.9,1-3v-2
			c-0.2-1-0.6-1.9-1.2-2.7c-0.6-0.8-1.4-1.4-2.3-1.9c-0.9-0.5-2-0.7-3-0.7c-1.2,0-2.3,0.3-3.3,0.8c-1,0.6-1.8,1.4-2.4,2.3
			c-0.6,1-0.9,2.2-0.9,3.5c0,1.2,0.3,2.3,0.9,3.4c0.6,1,1.4,1.8,2.4,2.4C250.6,367.6,251.8,367.9,252.9,367.9z"/>
		<path class="st1" d="M267,361.3c0-3,1.5-5.7,4.1-7.2c2.7-1.5,5.9-1.5,8.6,0c1.3,0.7,2.3,1.7,3,3c1.4,2.6,1.4,5.8,0,8.4
			c-0.7,1.2-1.8,2.3-3,3c-1.3,0.7-2.8,1.1-4.3,1.1c-1.5,0-3-0.3-4.3-1.1c-1.2-0.7-2.3-1.7-3-2.9C267.4,364.3,267,362.8,267,361.3z
			 M268.9,361.3c0,1.2,0.3,2.3,0.9,3.4c0.6,1,1.4,1.8,2.3,2.4c2,1.2,4.5,1.2,6.5,0c1-0.6,1.8-1.4,2.3-2.4c1.2-2.1,1.2-4.6,0-6.7
			c-0.6-1-1.4-1.8-2.3-2.4c-1-0.6-2.1-0.9-3.3-0.9c-1.2,0-2.3,0.3-3.3,0.9c-1,0.6-1.8,1.5-2.3,2.5
			C269.2,359.1,268.9,360.2,268.9,361.3L268.9,361.3z"/>
		<path class="st1" d="M293.1,369.6c-1,0-1.9-0.2-2.9-0.5c-0.9-0.3-1.8-0.9-2.4-1.6l0.9-1.2c0.5,0.6,1.2,1,1.9,1.3
			c1.3,0.6,2.7,0.7,4.1,0.2c0.5-0.2,1-0.5,1.4-0.9c0.4-0.5,0.6-1.1,0.5-1.7c0-0.6-0.2-1.3-0.6-1.7c-0.4-0.4-1-0.8-1.6-1
			c-0.6-0.3-1.3-0.5-2-0.7c-1-0.3-2-0.8-2.8-1.5c-0.8-0.7-1.2-1.7-1.1-2.7c0-0.8,0.2-1.6,0.6-2.3c0.4-0.6,1-1.2,1.7-1.5
			c0.8-0.4,1.6-0.6,2.5-0.5c0.8,0,1.7,0.1,2.5,0.4c0.9,0.3,1.6,0.8,2.3,1.4l-0.8,1.3c-0.4-0.6-1-1-1.7-1.2c-0.6-0.2-1.2-0.3-1.9-0.4
			c-0.5,0-1,0.1-1.4,0.3c-0.5,0.2-0.9,0.5-1.2,0.8c-0.3,0.4-0.5,0.9-0.5,1.4c0,0.5,0.2,1.1,0.5,1.5c0.4,0.4,0.8,0.8,1.3,1
			c0.5,0.2,1.1,0.5,1.7,0.7c0.7,0.2,1.5,0.5,2.2,0.9c0.7,0.3,1.2,0.8,1.7,1.3c0.5,0.6,0.7,1.4,0.7,2.2c0,0.9-0.2,1.7-0.6,2.5
			c-0.4,0.7-1,1.3-1.8,1.7C295.2,369.5,294.1,369.7,293.1,369.6z"/>
		<path class="st1" d="M325.2,369.6c-1.5,0-2.9-0.4-4.2-1.2c-1.2-0.7-2.3-1.8-2.9-3.1l0.3-0.7v12.2h-1.9v-23.4h1.7l0.2,5.1l-0.4-1.2
			c1.5-2.7,4.4-4.3,7.4-4.3c1.4,0,2.8,0.4,4.1,1.1c1.2,0.7,2.2,1.7,2.9,3c0.7,1.3,1.1,2.8,1.1,4.3c0,1.5-0.4,3-1.1,4.2
			c-0.7,1.2-1.8,2.2-3,2.9C328.1,369.2,326.6,369.6,325.2,369.6z M324.8,368c1.2,0,2.3-0.3,3.4-0.9c1-0.6,1.8-1.4,2.4-2.4
			c0.6-1,0.9-2.2,0.9-3.4c0-1.2-0.3-2.4-0.9-3.4c-0.6-1-1.4-1.8-2.4-2.4c-1-0.6-2.1-0.9-3.3-0.9c-2.2,0-4.3,1.1-5.5,3
			c-0.6,0.9-0.9,2-1,3.1v1.3c0.1,1.1,0.4,2.1,1,3c0.6,0.9,1.4,1.6,2.3,2.1C322.7,367.8,323.8,368,324.8,368L324.8,368z"/>
		<path class="st1" d="M345.5,369.6c-1.4,0-2.8-0.3-4.1-1c-1.2-0.7-2.2-1.7-2.9-2.9c-1.4-2.7-1.4-6,0.1-8.8c0.7-1.2,1.8-2.2,3-2.9
			c1.4-0.7,2.9-1,4.4-1c2.9,0.1,5.4,1.8,6.6,4.4l-0.3,0.6l0.2-4.5h1.7v15.7h-1.9v-4.9l0.4,0.7c-0.2,0.6-0.6,1.1-1,1.6
			c-1,1.2-2.4,2-3.8,2.5C347.2,369.5,346.4,369.6,345.5,369.6z M346,368c1.1,0,2.2-0.2,3.2-0.7c1.9-1,3.2-2.9,3.3-5.1v-2.2
			c-0.2-1-0.6-1.9-1.3-2.6c-0.6-0.8-1.4-1.4-2.3-1.9c-2-1-4.3-0.9-6.2,0.1c-1,0.5-1.8,1.3-2.4,2.3c-0.6,1.1-0.9,2.3-0.9,3.5
			c0,1.2,0.3,2.3,0.9,3.4c0.6,1,1.4,1.8,2.4,2.4C343.7,367.7,344.8,368,346,368z"/>
		<path class="st1" d="M363.1,353.6l0.2,4.8l-0.2-0.6c0.3-0.9,0.9-1.8,1.6-2.5c0.7-0.7,1.6-1.2,2.5-1.6c0.8-0.4,1.8-0.6,2.7-0.6
			l-0.1,1.9c-1.1,0-2.3,0.3-3.3,0.8c-0.9,0.5-1.7,1.2-2.3,2.1c-0.6,0.9-0.9,1.9-0.9,3v8.3h-1.9v-15.7H363.1z"/>
		<path class="st1" d="M381.5,369.6c-1.4,0-2.8-0.3-4.1-1c-1.2-0.7-2.2-1.7-2.9-2.9c-1.4-2.8-1.4-6,0.1-8.8c0.7-1.2,1.8-2.2,3-2.9
			c1.4-0.7,2.9-1,4.4-1c1.4,0,2.8,0.4,4,1.3c1.2,0.8,2.1,1.8,2.7,3.1l-0.3,0.6l0.2-4.5h1.7v15.7h-1.9v-4.9l0.4,0.7
			c-0.2,0.6-0.6,1.1-1,1.6c-1,1.2-2.4,2-3.8,2.5C383.2,369.5,382.4,369.6,381.5,369.6z M381.9,368c1.1,0,2.2-0.2,3.2-0.7
			c1.9-1,3.2-2.9,3.3-5.1v-2.2c-0.2-1-0.6-1.9-1.3-2.6c-0.6-0.8-1.4-1.4-2.3-1.9c-2-1-4.3-0.9-6.2,0.1c-1,0.5-1.8,1.3-2.4,2.3
			c-0.6,1.1-0.9,2.3-0.9,3.5c0,1.2,0.3,2.3,0.9,3.4c0.6,1,1.4,1.8,2.4,2.4C379.6,367.7,380.8,368,381.9,368L381.9,368z"/>
		<path class="st1" d="M408.2,361.3c0-3,1.6-5.7,4.1-7.2c2.7-1.5,5.9-1.5,8.6,0c1.2,0.7,2.3,1.8,3,3c1.4,2.6,1.4,5.8,0,8.4
			c-0.7,1.2-1.8,2.3-3,3c-1.3,0.7-2.8,1.1-4.3,1.1c-1.5,0-3-0.3-4.3-1.1c-1.2-0.7-2.3-1.7-3-2.9
			C408.6,364.3,408.2,362.8,408.2,361.3z M410.1,361.3c0,1.2,0.3,2.3,0.9,3.4c0.6,1,1.4,1.8,2.3,2.4c2,1.2,4.5,1.2,6.5,0
			c3.1-1.9,4.1-5.9,2.3-9.1c-0.6-1-1.4-1.8-2.3-2.4c-1-0.6-2.1-0.9-3.3-0.9c-1.2,0-2.3,0.3-3.3,0.9c-1,0.6-1.8,1.5-2.3,2.5
			C410.4,359.1,410.1,360.2,410.1,361.3L410.1,361.3z"/>
		<path class="st1" d="M143.4,409.7c-1,0-1.9-0.2-2.9-0.5c-0.9-0.3-1.8-0.9-2.4-1.6l0.9-1.3c0.5,0.6,1.2,1,1.9,1.4
			c0.7,0.3,1.5,0.5,2.4,0.5c0.6,0,1.2-0.1,1.8-0.3c0.5-0.2,1-0.5,1.3-0.9c0.4-0.5,0.6-1.1,0.5-1.7c0-0.6-0.2-1.3-0.6-1.7
			c-0.5-0.4-1-0.8-1.6-1c-0.6-0.3-1.3-0.5-2-0.7c-1-0.3-2-0.8-2.8-1.5c-0.8-0.7-1.2-1.7-1.1-2.7c0-0.8,0.2-1.6,0.6-2.2
			c0.4-0.7,1-1.2,1.7-1.5c0.8-0.4,1.6-0.6,2.4-0.5c0.8,0,1.7,0.1,2.5,0.4c0.8,0.3,1.6,0.7,2.2,1.4l-0.8,1.3c-0.4-0.6-1-1-1.7-1.2
			c-0.6-0.2-1.2-0.3-1.9-0.4c-0.5,0-1,0.1-1.4,0.3c-0.5,0.2-0.9,0.5-1.3,0.8c-0.3,0.4-0.5,0.9-0.5,1.4c0,0.6,0.2,1.1,0.5,1.5
			c0.4,0.4,0.8,0.7,1.4,0.9c0.6,0.2,1.1,0.5,1.7,0.7c0.8,0.2,1.5,0.5,2.2,0.9c0.7,0.3,1.2,0.8,1.7,1.3c0.5,0.6,0.7,1.4,0.7,2.2
			c0,0.9-0.2,1.7-0.6,2.5c-0.4,0.7-1,1.3-1.8,1.7C145.5,409.5,144.5,409.8,143.4,409.7z"/>
		<path class="st1" d="M161.4,409.7c-1.5,0-3-0.3-4.3-1.1c-1.3-0.7-2.3-1.7-3-3c-0.7-1.3-1.1-2.7-1-4.2c0-1.5,0.4-2.9,1.1-4.2
			c0.7-1.2,1.8-2.3,3-3c1.3-0.8,2.7-1.1,4.2-1.1c1.7-0.1,3.4,0.5,4.7,1.6c1.3,1.1,2.3,2.6,2.8,4.3l-13.7,5.3l-0.6-1.4l12.6-4.9
			l-0.4,0.6c-0.5-1.1-1.2-2-2.1-2.8c-0.9-0.8-2.2-1.2-3.4-1.2c-1.1,0-2.3,0.3-3.3,0.9c-1,0.6-1.7,1.4-2.3,2.4
			c-0.6,1-0.9,2.2-0.9,3.4c0,1.1,0.3,2.3,0.8,3.3c0.5,1,1.3,1.9,2.3,2.5c1,0.6,2.2,0.9,3.4,0.9c0.8,0,1.7-0.2,2.5-0.5
			c0.8-0.3,1.5-0.7,2.1-1.3l1,1.4c-0.8,0.6-1.7,1.1-2.6,1.4C163.4,409.5,162.4,409.7,161.4,409.7z"/>
		<path class="st1" d="M179,409.9c-1.3,0.1-2.6-0.4-3.5-1.3c-0.9-0.9-1.4-2.1-1.4-3.4v-11.4h1.9v10.9c0,0.9,0.4,1.8,1,2.5
			c0.7,0.7,1.7,1.1,2.7,1.1c1,0,2-0.3,2.9-0.8c0.9-0.5,1.6-1.3,2.1-2.2c0.6-1,0.8-2,0.8-3.1v-8.4h1.9v15.7h-1.7l-0.2-4.9l0.3,1.1
			c-0.3,0.8-0.8,1.6-1.4,2.2C182.9,409.1,181,409.8,179,409.9L179,409.9z"/>
		<path class="st1" d="M208.5,393.7l0.2,4.9l-0.2-1c0.4-1.4,1.4-2.5,2.6-3.2c1.3-0.8,2.7-1.2,4.2-1.2c1.3-0.1,2.6,0.4,3.6,1.3
			c0.9,0.9,1.4,2.1,1.4,3.4v11.5h-1.9v-10.9c0-0.9-0.4-1.8-1-2.5c-0.7-0.7-1.7-1.1-2.7-1c-2.1,0-4,1.1-5.1,2.9
			c-0.6,1-0.8,2.1-0.8,3.2v8.4h-1.9v-15.7H208.5z"/>
		<path class="st1" d="M234.2,409.7c-1.5,0-3-0.3-4.3-1.1c-1.3-0.7-2.3-1.7-3-3c-0.7-1.3-1.1-2.7-1.1-4.2c0-1.5,0.4-2.9,1.1-4.2
			c0.7-1.2,1.8-2.3,3-3c1.3-0.8,2.8-1.1,4.2-1.1c1.7-0.1,3.4,0.5,4.7,1.6c1.3,1.1,2.3,2.6,2.8,4.3l-13.6,5.3l-0.6-1.4l12.6-4.9
			l-0.4,0.6c-0.5-1.1-1.2-2-2.1-2.8c-1-0.8-2.2-1.2-3.4-1.2c-1.1,0-2.3,0.3-3.3,0.9c-1,0.6-1.7,1.4-2.3,2.4c-0.6,1-0.9,2.2-0.9,3.4
			c0,1.1,0.3,2.3,0.8,3.3c1.6,2.9,5.1,4.1,8.2,2.9c0.8-0.3,1.5-0.7,2.1-1.3l1,1.4c-0.8,0.6-1.7,1.1-2.6,1.4
			C236.3,409.5,235.2,409.7,234.2,409.7z"/>
		<path class="st1" d="M253.9,417.1c-0.9,0-1.7-0.1-2.5-0.3c-0.8-0.2-1.6-0.5-2.4-1c-0.9-0.6-1.7-1.2-2.4-1.9l1.1-1.3
			c0.9,0.9,2,1.7,3.2,2.2c0.9,0.4,1.9,0.6,2.9,0.6c1.3,0.1,2.7-0.2,3.9-0.8c0.9-0.5,1.6-1.2,2.1-2.1c0.4-0.9,0.7-1.9,0.7-2.9v-5.1
			l0.4,0.5c-0.6,1.4-1.6,2.6-2.9,3.4c-1.4,0.9-3,1.4-4.7,1.3c-1.4,0-2.8-0.4-4-1.1c-3.9-2.3-5.3-7.3-3-11.3c0.8-1.3,1.8-2.3,3.1-3.1
			c1.3-0.7,2.8-1.1,4.3-1.1c1.4,0,2.9,0.4,4.1,1.1c1.2,0.7,2.2,1.7,2.8,3l-0.2,0.9l0.2-4.5h1.7v15.9c0,1.3-0.3,2.5-0.9,3.6
			c-0.6,1.2-1.6,2.1-2.7,2.8C257.3,416.8,255.6,417.2,253.9,417.1z M247.3,401.5c0,1.2,0.3,2.3,0.9,3.4c0.6,1,1.4,1.8,2.4,2.4
			c1,0.6,2.2,0.9,3.4,0.9c1.1,0,2.2-0.3,3.2-0.8c0.9-0.5,1.8-1.2,2.4-2.1c0.6-0.8,0.9-1.8,1-2.9v-2.3c-0.2-1-0.6-1.9-1.3-2.7
			c-0.6-0.8-1.4-1.4-2.3-1.8c-0.9-0.5-2-0.7-3-0.7c-1.2,0-2.3,0.3-3.4,0.9c-1,0.6-1.8,1.4-2.4,2.3
			C247.5,399.1,247.2,400.3,247.3,401.5L247.3,401.5z"/>
		<path class="st1" d="M268,401.5c0-1.5,0.4-2.9,1.1-4.2c0.7-1.2,1.8-2.3,3-3c2.7-1.5,5.9-1.5,8.6,0c1.2,0.7,2.3,1.8,3,3
			c1.5,2.6,1.5,5.8,0,8.4c-0.7,1.3-1.7,2.3-3,3c-1.3,0.7-2.8,1.1-4.3,1.1c-1.5,0-3-0.3-4.3-1.1c-1.2-0.7-2.3-1.7-3-2.9
			C268.4,404.4,268,403,268,401.5z M269.9,401.5c0,2.3,1.2,4.5,3.2,5.7c2,1.2,4.5,1.2,6.5,0c3.2-2,4.2-6.1,2.2-9.3
			c-0.6-0.9-1.3-1.7-2.2-2.2c-1-0.6-2.1-0.9-3.3-0.9c-1.2,0-2.3,0.3-3.3,1c-1,0.6-1.8,1.5-2.3,2.5
			C270.2,399.2,269.9,400.4,269.9,401.5L269.9,401.5z M279.6,385l-4.3,5.3H274l3.5-5.3H279.6z"/>
		<path class="st1" d="M302.5,407.9c-0.7,0.6-1.6,1.1-2.5,1.4c-2.4,0.8-5,0.6-7.1-0.6c-1.2-0.7-2.3-1.7-3-2.9
			c-0.7-1.3-1.1-2.7-1.1-4.2c0-1.5,0.4-2.9,1.1-4.2c1.5-2.5,4.2-4,7.1-4c1,0,2.1,0.2,3,0.5c0.9,0.3,1.7,0.8,2.5,1.4l-1,1.3
			c-0.6-0.5-1.3-0.9-2-1.1c-0.8-0.3-1.6-0.4-2.4-0.4c-1.1,0-2.3,0.3-3.2,0.9c-1,0.6-1.8,1.4-2.3,2.4c-0.6,1-0.9,2.2-0.9,3.4
			c0,1.2,0.3,2.3,0.9,3.3c0.6,1,1.4,1.8,2.4,2.4c1,0.6,2.2,0.9,3.4,0.9c0.8,0,1.5-0.1,2.3-0.4c0.7-0.2,1.3-0.6,1.9-1L302.5,407.9z"
			/>
		<path class="st1" d="M307.4,387.9c0-0.4,0.2-0.7,0.4-0.9c0.3-0.3,0.6-0.4,1-0.4c0.4,0,0.7,0.1,1,0.4c0.3,0.2,0.4,0.6,0.4,0.9
			c0,0.4-0.1,0.7-0.4,1c-0.3,0.3-0.6,0.4-1,0.4c-0.4,0-0.7-0.1-1-0.4C307.5,388.7,307.4,388.3,307.4,387.9z M307.8,393.7h1.9v15.7
			h-1.9V393.7z"/>
		<path class="st1" d="M315.3,401.5c0-1.5,0.4-2.9,1.1-4.2c0.7-1.2,1.8-2.3,3-3c2.7-1.5,5.9-1.5,8.6,0c1.2,0.7,2.3,1.8,3,3
			c1.5,2.6,1.5,5.8,0,8.4c-0.7,1.3-1.7,2.3-3,3c-1.3,0.7-2.8,1.1-4.3,1.1c-1.5,0-3-0.3-4.3-1.1c-1.2-0.7-2.3-1.7-3-2.9
			C315.6,404.4,315.2,403,315.3,401.5z M317.2,401.5c0,2.3,1.2,4.5,3.2,5.7c2,1.2,4.5,1.2,6.5,0c3.2-2,4.2-6.1,2.2-9.3
			c-0.6-0.9-1.3-1.7-2.2-2.2c-1-0.6-2.1-0.9-3.3-0.9c-1.2,0-2.3,0.3-3.3,1c-1,0.6-1.8,1.5-2.3,2.5
			C317.4,399.2,317.1,400.3,317.2,401.5L317.2,401.5z"/>
		<path class="st1" d="M335.6,246.4h-18.1c-7.3,0-13.3-6-13.3-13.3v-8.2c-4.7-1.4-9.3-3.3-13.7-5.7l-5.8,5.8
			c-5.2,5.2-13.6,5.2-18.8,0l-12.8-12.8c-5.2-5.2-5.2-13.6,0-18.8l5.8-5.8c-2.3-4.4-4.2-9-5.7-13.7H245c-7.3,0-13.3-5.9-13.3-13.3
			v-18.1c0-7.3,6-13.3,13.3-13.3h8.3c1.5-4.7,3.5-9.2,5.8-13.6l-5.9-5.9c-5.2-5.2-5.2-13.6,0-18.8l12.8-12.8
			c5.2-5.2,13.6-5.2,18.8,0l5.8,5.8c4.4-2.3,9-4.2,13.7-5.7v-8.3c0-7.3,6-13.3,13.3-13.3h18.1c7.3,0,13.3,5.9,13.3,13.3v8.2
			c4.7,1.5,9.3,3.4,13.7,5.7l5.8-5.8c5.2-5.2,13.6-5.2,18.8,0L400,91c5.2,5.2,5.2,13.6,0,18.8l-5.8,5.8c2.3,4.4,4.2,9,5.7,13.7h8.1
			c7.3,0,13.3,6,13.3,13.3v18.1c0,7.3-6,13.2-13.3,13.3h-8.2c-1.4,4.7-3.3,9.3-5.7,13.7l5.8,5.8c5.2,5.2,5.2,13.6,0,18.8L387.1,225
			c-5.2,5.2-13.6,5.2-18.8,0l-5.8-5.8c-4.4,2.3-9,4.2-13.7,5.7v8.2C348.9,240.4,342.9,246.4,335.6,246.4
			C335.6,246.4,335.6,246.4,335.6,246.4z M289.8,209.7c0.8,0,1.5,0.2,2.1,0.6c5.5,3.2,11.4,5.7,17.5,7.3c1.9,0.5,3.2,2.2,3.2,4.1
			v11.4c0,2.7,2.2,4.8,4.8,4.8h18.1c2.7,0,4.8-2.2,4.8-4.8v-11.4c0-1.9,1.3-3.6,3.2-4.1c6.2-1.6,12.1-4,17.5-7.3
			c1.7-1,3.8-0.7,5.1,0.6l8.1,8.1c1.9,1.9,4.9,1.9,6.8,0l12.8-12.8c1.9-1.9,1.9-4.9,0-6.8c0,0,0,0,0,0l-8.1-8.1
			c-1.4-1.4-1.6-3.5-0.6-5.1c3.2-5.5,5.7-11.4,7.3-17.6c0.5-1.9,2.2-3.2,4.1-3.2H408c2.7,0,4.8-2.2,4.8-4.8v-18.1
			c0-2.7-2.2-4.8-4.8-4.8h-11.4c-1.9,0-3.6-1.3-4.1-3.2c-1.6-6.2-4-12.1-7.3-17.5c-1-1.7-0.7-3.8,0.6-5.1l8.1-8.1
			c1.9-1.9,1.9-4.9,0-6.8c0,0,0,0,0,0l-12.8-12.8c-1.9-1.9-4.9-1.9-6.8,0l-8.1,8.1c-1.4,1.4-3.5,1.6-5.1,0.7
			c-5.5-3.2-11.4-5.7-17.5-7.3c-1.9-0.5-3.2-2.2-3.2-4.1V70.1c0-2.7-2.2-4.8-4.8-4.8h-18.1c-2.7,0-4.8,2.2-4.8,4.8v11.4
			c0,1.9-1.3,3.6-3.2,4.1c-6.2,1.6-12.1,4-17.5,7.3c-1.7,1-3.8,0.7-5.1-0.7l-8.1-8.1c-1.9-1.9-4.9-1.9-6.8,0L259,96.9
			c-1.9,1.9-1.9,4.9,0,6.8l8.1,8.1c1.3,1.3,1.6,3.4,0.8,5c-3.3,6.3-5.8,11.7-7.4,17.7c-0.5,1.9-2.2,3.2-4.1,3.2H245
			c-2.7,0-4.8,2.2-4.8,4.8v18.1c0,2.7,2.2,4.8,4.8,4.8h11.4c1.9,0,3.6,1.3,4.1,3.2c1.6,6.2,4,12.1,7.3,17.6c1,1.7,0.7,3.8-0.6,5.1
			l-8.1,8.1c-1.9,1.9-1.9,4.9,0,6.8l12.8,12.8c1.9,1.9,4.9,1.9,6.8,0l8.1-8.1C287.6,210.2,288.6,209.8,289.8,209.7L289.8,209.7z
			 M326.5,192c-22.3,0-40.4-18.1-40.4-40.5c0-22.3,18.1-40.4,40.5-40.4c22.3,0,40.4,18.1,40.4,40.4C367,173.9,348.9,192,326.5,192
			L326.5,192z M326.5,119.6c-17.7,0-32,14.3-32,32s14.3,32,32,32c17.7,0,32-14.3,32-32S344.2,119.6,326.5,119.6L326.5,119.6
			L326.5,119.6z"/>
		<path class="st1" d="M79.4,246.4C67,246.4,57,236.4,57,224c0-5.9,2.4-11.6,6.5-15.8c4-3.9,87.8-83.5,91.4-86.9l3-2.8l26.9,27
			l-2.8,3c-3.3,3.4-79.9,84.3-86.9,91.4C91,244.1,85.3,246.4,79.4,246.4z M157.8,130.3c-15.4,14.6-84.8,80.4-88.2,83.9
			c-5.4,5.4-5.4,14.2,0,19.7c5.4,5.4,14.2,5.4,19.7,0c6.2-6.2,69.7-73.2,83.9-88.2L157.8,130.3z M79.4,234.3
			c-5.7,0-10.3-4.6-10.3-10.3c0-5.7,4.6-10.3,10.3-10.3c5.7,0,10.3,4.6,10.3,10.3l0,0C89.6,229.7,85,234.3,79.4,234.3L79.4,234.3z
			 M79.4,222.3c-1,0-1.8,0.8-1.8,1.8c0,1,0.8,1.8,1.8,1.8s1.8-0.8,1.8-1.8c0,0,0,0,0,0C81.2,223.1,80.4,222.2,79.4,222.3
			C79.4,222.2,79.4,222.2,79.4,222.3L79.4,222.3z"/>
		<path class="st0" d="M239.3,100.1l-26.7,26.7l-28.4-7.6l-7.6-28.3l26.7-26.7l-2.9-3c-1.1-0.1-2.2-0.2-3.3-0.2
			c-25,0-45.3,20.3-45.3,45.3s20.3,45.3,45.3,45.3c25,0,45.3-20.3,45.3-45.3c0,0,0,0,0,0c0-1.1-0.1-2.2-0.2-3.3L239.3,100.1z"/>
		<path class="st1" d="M197.1,155.8c-27.3,0.5-49.9-21.2-50.5-48.5s21.2-49.9,48.5-50.5c0.7,0,1.3,0,2,0c1.3,0,2.5,0.1,3.6,0.2
			c1,0.1,1.9,0.5,2.7,1.2l3,2.9c1.7,1.7,1.7,4.3,0,6c0,0,0,0,0,0l-25,25l6.3,23.6l23.6,6.3l25-25c1.6-1.7,4.3-1.7,6,0c0,0,0,0,0,0
			l2.9,2.9c0.7,0.7,1.2,1.7,1.2,2.7c0.1,1.1,0.2,2.3,0.2,3.6C246.6,133.7,224.5,155.8,197.1,155.8z M196.3,65.3
			c-22.7,0.5-40.7,19.2-40.2,41.9c0.5,22.7,19.2,40.7,41.9,40.2c22-0.5,39.7-18.2,40.2-40.2l-22.6,22.6c-1.1,1.1-2.6,1.5-4.1,1.1
			l-28.3-7.6c-1.5-0.4-2.6-1.5-3-3l-7.6-28.3c-0.4-1.5,0-3,1.1-4.1L196.3,65.3z"/>
	</g>
</g>
</svg>
