<?xml version="1.0" encoding="utf-8"?>
<!-- Generator: Adobe Illustrator 24.2.0, SVG Export Plug-In . SVG Version: 6.00 Build 0)  -->
<svg version="1.1" id="Camada_1" xmlns="http://www.w3.org/2000/svg" xmlns:xlink="http://www.w3.org/1999/xlink" x="0px" y="0px"
	 viewBox="0 0 478.4 478.4" style="enable-background:new 0 0 478.4 478.4;" xml:space="preserve">
<style type="text/css">
	.st0{fill:#65140F;}
	.st1{fill:#FFFFFF;}
	.st2{fill:none;stroke:#FFFFFF;stroke-width:6.96;stroke-linecap:round;stroke-linejoin:round;}
	.st3{fill:#FFFFFF;stroke:#FFFFFF;stroke-width:1.23;stroke-miterlimit:10;}
</style>
<g id="Camada_2_1_">
	<g id="Camada_1-2">
		<circle class="st0" cx="239.2" cy="239.2" r="239.2"/>
		<path class="st1" d="M101.2,296l12-29.7h0.2l12,29.7h-2.2l-10.5-26.6l1.4-0.8L103,296H101.2z M107,284.7h12.6l0.6,1.9h-13.7
			L107,284.7z"/>
		<path class="st1" d="M139.7,296.3c-1.5,0-2.9-0.4-4.2-1.2c-1.2-0.7-2.3-1.8-2.9-3.1l0.3-0.7v12.2H131v-23.4h1.7l0.2,5.1l-0.4-1.2
			c0.7-1.3,1.8-2.4,3.1-3.1c1.3-0.8,2.8-1.2,4.4-1.2c1.4,0,2.8,0.4,4.1,1.1c1.2,0.7,2.2,1.8,2.9,3c0.7,1.3,1.1,2.8,1.1,4.3
			c0,1.5-0.4,3-1.1,4.2c-0.7,1.2-1.8,2.2-3,2.9C142.5,296,141.1,296.3,139.7,296.3z M139.4,294.8c1.2,0,2.3-0.3,3.4-0.9
			c1-0.6,1.8-1.4,2.4-2.4c0.6-1,0.9-2.2,0.9-3.4c0-1.2-0.3-2.4-0.9-3.4c-0.6-1-1.4-1.8-2.4-2.4c-1-0.6-2.1-0.9-3.3-0.9
			c-2.2,0-4.3,1.1-5.5,3c-0.6,0.9-0.9,2-1,3.1v1.3c0.1,1.1,0.4,2.1,1,3c0.6,0.9,1.4,1.6,2.3,2.1
			C137.2,294.5,138.3,294.8,139.4,294.8L139.4,294.8z"/>
		<path class="st1" d="M155.2,280.3l0.2,4.8l-0.2-0.6c0.3-0.9,0.9-1.8,1.6-2.5c0.7-0.7,1.6-1.2,2.5-1.6c0.8-0.4,1.8-0.6,2.7-0.6
			l-0.1,1.8c-1.1,0-2.3,0.3-3.3,0.8c-0.9,0.5-1.7,1.2-2.3,2.1c-0.6,0.9-0.9,1.9-0.9,3v8.4h-1.9v-15.7H155.2z"/>
		<path class="st1" d="M173.5,296.3c-1.5,0-3-0.3-4.3-1.1c-1.2-0.7-2.3-1.7-2.9-3c-0.7-1.3-1.1-2.7-1.1-4.2c0-1.5,0.4-2.9,1.1-4.2
			c0.7-1.2,1.8-2.3,3-3c1.3-0.8,2.8-1.1,4.2-1.1c1.7-0.1,3.4,0.5,4.7,1.6c1.3,1.1,2.3,2.6,2.8,4.3l-13.7,5.3l-0.6-1.4l12.6-4.9
			l-0.4,0.6c-0.5-1.1-1.2-2-2.1-2.8c-1-0.8-2.2-1.2-3.4-1.2c-1.1,0-2.3,0.3-3.3,0.9c-2,1.2-3.2,3.4-3.1,5.7c0,1.1,0.3,2.3,0.8,3.3
			c1.1,2.1,3.3,3.4,5.7,3.4c0.8,0,1.7-0.2,2.5-0.5c0.8-0.3,1.5-0.7,2.1-1.3l1,1.4c-0.8,0.6-1.7,1.1-2.6,1.4
			C175.6,296.1,174.5,296.3,173.5,296.3z"/>
		<path class="st1" d="M187.8,280.3l0.2,4.9l-0.2-1c0.5-1.3,1.4-2.5,2.6-3.2c1.3-0.8,2.7-1.2,4.2-1.2c1.3-0.1,2.6,0.4,3.6,1.3
			c0.9,0.9,1.4,2.1,1.4,3.4V296h-1.9v-10.9c0-0.9-0.4-1.8-1-2.5c-0.7-0.7-1.7-1.1-2.7-1.1c-1,0-2,0.3-2.9,0.8
			c-0.9,0.5-1.7,1.2-2.2,2.1c-0.6,1-0.9,2.1-0.8,3.2v8.4h-1.9v-15.7H187.8z"/>
		<path class="st1" d="M213.2,296.3c-2.9,0-5.5-1.5-6.9-4c-0.7-1.3-1.1-2.8-1.1-4.3c0-1.5,0.3-3,1.1-4.4c0.7-1.2,1.7-2.2,2.9-2.9
			c1.3-0.7,2.7-1,4.1-1c1.5,0,3,0.4,4.3,1.2c1.3,0.7,2.3,1.7,3,3l-0.3,0.9v-19.4h1.9V296h-1.9v-4.8l0.4,0.9c-0.7,1.3-1.7,2.4-3,3.1
			C216.3,295.9,214.8,296.3,213.2,296.3z M213.6,294.7c1.1,0,2.3-0.3,3.3-0.8c0.9-0.5,1.7-1.2,2.3-2.1c0.6-0.9,0.9-1.9,1-3v-2
			c-0.2-1-0.6-2-1.2-2.8c-0.6-0.8-1.4-1.4-2.3-1.9c-2-1-4.3-0.9-6.3,0.1c-1,0.6-1.8,1.4-2.4,2.3c-0.6,1-0.9,2.2-0.9,3.5
			c0,1.2,0.3,2.3,0.9,3.4c0.6,1,1.4,1.8,2.4,2.4C211.4,294.4,212.5,294.7,213.6,294.7L213.6,294.7z"/>
		<path class="st1" d="M235.8,296.3c-1.4,0-2.8-0.3-4.1-1c-1.2-0.7-2.2-1.7-2.9-2.9c-1.4-2.8-1.4-6,0.1-8.8c0.7-1.2,1.8-2.2,3-2.9
			c1.4-0.7,2.9-1,4.4-1c1.4,0,2.8,0.4,3.9,1.2c1.2,0.8,2.1,1.8,2.7,3.1l-0.3,0.6l0.2-4.5h1.7V296h-1.9v-4.9l0.4,0.7
			c-0.2,0.6-0.6,1.1-1,1.6c-1,1.2-2.4,2-3.8,2.5C237.4,296.2,236.6,296.3,235.8,296.3z M236.2,294.7c1.1,0,2.2-0.2,3.2-0.8
			c0.9-0.5,1.7-1.2,2.3-2.1c0.6-0.9,0.9-1.9,1-3v-2.3c-0.2-1-0.6-1.9-1.3-2.6c-0.6-0.8-1.4-1.4-2.3-1.9c-2-1-4.3-0.9-6.2,0.1
			c-1,0.5-1.8,1.3-2.4,2.3c-0.6,1.1-0.9,2.3-0.9,3.5c0,1.2,0.3,2.3,0.9,3.4c0.6,1,1.4,1.8,2.4,2.4
			C233.9,294.4,235,294.7,236.2,294.7z"/>
		<path class="st1" d="M270.6,296.3c-1.4,0-2.8-0.3-4.1-1c-1.2-0.7-2.2-1.7-2.9-2.9c-1.4-2.7-1.4-6,0.1-8.8c0.7-1.2,1.7-2.2,3-2.9
			c1.4-0.7,2.9-1,4.4-1c2.9,0.1,5.4,1.8,6.6,4.4l-0.3,0.6l0.2-4.5h1.7V296h-1.9v-4.9l0.4,0.7c-0.2,0.6-0.6,1.1-1,1.6
			c-1,1.2-2.4,2-3.8,2.5C272.2,296.2,271.4,296.3,270.6,296.3z M271,294.7c1.1,0,2.2-0.2,3.2-0.8c0.9-0.5,1.7-1.2,2.3-2.1
			c0.6-0.9,0.9-1.9,1-3v-2.3c-0.2-1-0.6-1.8-1.3-2.6c-0.6-0.8-1.4-1.4-2.3-1.9c-0.9-0.5-2-0.7-3-0.7c-1.1,0-2.3,0.3-3.3,0.8
			c-1,0.5-1.8,1.3-2.4,2.3c-0.6,1.1-0.9,2.3-0.9,3.5c0,1.2,0.3,2.3,0.9,3.4c0.6,1,1.4,1.8,2.4,2.4
			C268.7,294.4,269.8,294.7,271,294.7L271,294.7z"/>
		<path class="st1" d="M299.9,296v-13.9h-2.7v-1.7h2.7v-7.9c0-2.5,0.4-4.3,1.3-5.4c1-1.1,2.4-1.8,3.9-1.7c0.4,0,0.8,0,1.2,0.1
			c0.4,0.1,0.8,0.2,1.2,0.5l-0.8,1.4c-0.2-0.1-0.4-0.2-0.6-0.3c-0.3-0.1-0.5-0.1-0.8-0.1c-1-0.1-2,0.4-2.6,1.2
			c-0.6,0.8-0.9,2.2-0.9,4.3v8h5.2v1.7h-5.3V296H299.9z"/>
		<path class="st1" d="M317.4,296.3c-1.4,0-2.8-0.3-4.1-1c-1.2-0.7-2.2-1.7-2.9-2.9c-1.4-2.7-1.4-6,0.1-8.8c0.7-1.2,1.8-2.2,3-2.9
			c1.4-0.7,2.9-1,4.4-1c2.9,0.1,5.4,1.8,6.6,4.4l-0.3,0.6l0.2-4.5h1.7V296h-1.9v-4.9l0.4,0.7c-0.2,0.6-0.6,1.1-1,1.6
			c-1,1.2-2.4,2-3.8,2.5C319.1,296.2,318.2,296.3,317.4,296.3z M317.8,294.7c1.1,0,2.2-0.2,3.2-0.7c1.9-1,3.2-2.9,3.3-5.1v-2.3
			c-0.2-1-0.7-1.8-1.3-2.6c-0.6-0.8-1.4-1.4-2.3-1.9c-2-1-4.3-0.9-6.2,0.1c-1,0.5-1.8,1.3-2.4,2.3c-0.6,1.1-0.9,2.3-0.9,3.5
			c0,1.2,0.3,2.3,0.9,3.4c0.6,1,1.4,1.8,2.4,2.4C315.5,294.4,316.6,294.7,317.8,294.7z"/>
		<path class="st1" d="M333.7,281.9c-0.6,0-1.2-0.1-1.7-0.5c-0.5-0.4-0.8-1.1-0.7-1.8v-0.8h1.5v0.5c0,0.3,0.1,0.6,0.3,0.8
			c0.3,0.2,0.6,0.3,1,0.3h10.1l-10.2,14.5l-0.4-0.4h10.4v1.6h-13l10.3-14.6l0.4,0.5L333.7,281.9z"/>
		<path class="st1" d="M356.4,296.3c-1.5,0-3-0.3-4.3-1.1c-1.3-0.7-2.3-1.7-3-3c-0.7-1.3-1.1-2.7-1.1-4.2c0-1.5,0.4-2.9,1.1-4.2
			c0.7-1.2,1.8-2.3,3-3c1.3-0.8,2.7-1.1,4.2-1.1c1.7-0.1,3.4,0.5,4.7,1.6c1.3,1.1,2.3,2.6,2.8,4.3l-13.7,5.3l-0.6-1.4l12.6-4.9
			l-0.4,0.6c-0.5-1.1-1.2-2-2.1-2.8c-0.9-0.8-2.2-1.2-3.4-1.2c-1.1,0-2.3,0.3-3.3,0.9c-1,0.6-1.7,1.4-2.3,2.4
			c-0.6,1-0.9,2.2-0.9,3.4c0,1.1,0.3,2.3,0.8,3.3c0.5,1,1.3,1.9,2.3,2.5c1,0.6,2.2,1,3.4,0.9c0.8,0,1.7-0.2,2.5-0.5
			c0.8-0.3,1.5-0.7,2.1-1.3l1,1.4c-0.8,0.6-1.7,1.1-2.6,1.4C358.4,296.1,357.4,296.3,356.4,296.3z"/>
		<path class="st1" d="M370.7,280.3l0.2,4.8l-0.2-0.6c0.3-0.9,0.9-1.8,1.6-2.5c0.7-0.7,1.6-1.2,2.5-1.6c0.8-0.4,1.8-0.6,2.7-0.6
			l-0.1,1.8c-1.1,0-2.3,0.3-3.3,0.8c-0.9,0.5-1.7,1.2-2.3,2.1c-0.6,0.9-0.9,1.9-0.9,3v8.4h-1.9v-15.7H370.7z"/>
		<path class="st1" d="M68.3,320.4l0.2,4.9l-0.2-1c0.4-1.4,1.4-2.5,2.6-3.2c1.3-0.8,2.7-1.2,4.2-1.1c1.3-0.1,2.6,0.4,3.6,1.3
			c0.9,0.9,1.4,2.1,1.4,3.4v11.4h-1.9v-10.9c0-0.9-0.4-1.8-1-2.5c-0.7-0.7-1.7-1.1-2.7-1c-2.1,0-4,1.1-5.1,2.9
			c-0.6,1-0.8,2.1-0.8,3.2v8.4h-1.8v-15.7L68.3,320.4z"/>
		<path class="st1" d="M94,336.5c-1.5,0-3-0.3-4.3-1.1c-1.3-0.7-2.3-1.7-3-3c-0.7-1.3-1.1-2.7-1.1-4.2c0-1.5,0.4-3,1.2-4.2
			c0.7-1.2,1.8-2.3,3-3c1.3-0.7,2.8-1.1,4.2-1.1c1.7-0.1,3.4,0.5,4.7,1.6c1.3,1.1,2.3,2.6,2.8,4.3l-13.7,5.3l-0.6-1.4l12.6-4.9
			l-0.4,0.6c-0.5-1.1-1.2-2-2.1-2.8c-1-0.8-2.2-1.2-3.4-1.2c-1.1,0-2.3,0.3-3.3,0.9c-2,1.2-3.2,3.4-3.2,5.7c0,1.1,0.3,2.3,0.8,3.3
			c0.5,1,1.3,1.9,2.3,2.5c1,0.6,2.2,0.9,3.4,0.9c0.8,0,1.7-0.2,2.5-0.5c0.8-0.3,1.5-0.7,2.1-1.2l1,1.4c-0.8,0.6-1.7,1.1-2.6,1.5
			C96,336.3,95,336.4,94,336.5z"/>
		<path class="st1" d="M108.3,313.5h1.9v7.1h4.9v1.5h-4.9v14h-1.9v-14H105v-1.5h3.3L108.3,313.5z"/>
		<path class="st1" d="M128.6,320.4l5.9,13.4h-0.4l5.7-13.4h1.9l-7.4,16.7l-5-11.2l-4.6,11.2l-7.4-16.7h1.9l6.1,13.6l-0.7-0.2l4-9.7
			l-1.7-3.7L128.6,320.4z"/>
		<path class="st1" d="M144.7,328.2c0-1.5,0.4-2.9,1.1-4.2c0.7-1.2,1.8-2.3,3-3c2.7-1.5,5.9-1.5,8.6,0c1.2,0.7,2.3,1.8,3,3
			c1.4,2.6,1.4,5.8,0,8.4c-0.7,1.3-1.7,2.3-3,3c-1.3,0.7-2.8,1.1-4.3,1.1c-1.5,0-3-0.3-4.3-1.1c-1.2-0.7-2.3-1.7-3-2.9
			C145.1,331.2,144.7,329.7,144.7,328.2z M146.6,328.2c0,2.3,1.2,4.5,3.2,5.7c2,1.2,4.5,1.2,6.5,0c3.2-2,4.2-6.1,2.2-9.3
			c-0.6-0.9-1.3-1.7-2.2-2.2c-1-0.6-2.1-0.9-3.3-0.9c-1.2,0-2.3,0.3-3.3,0.9c-1,0.6-1.8,1.5-2.3,2.5
			C146.9,325.9,146.6,327.1,146.6,328.2L146.6,328.2z"/>
		<path class="st1" d="M168.7,320.4l0.2,4.8l-0.2-0.6c0.3-1,0.9-1.8,1.6-2.5c0.7-0.7,1.6-1.2,2.5-1.6c0.8-0.4,1.8-0.5,2.7-0.6
			l-0.1,1.9c-1.1,0-2.3,0.3-3.3,0.8c-0.9,0.5-1.7,1.2-2.3,2.1c-0.6,0.9-0.9,1.9-0.9,3v8.3h-1.9v-15.7L168.7,320.4z"/>
		<path class="st1" d="M180.8,336.1v-30.5h1.9v30.5H180.8z M182.1,330.4l-0.2-1.9l9.6-8.4l1.2,1L182.1,330.4z M186.3,325.9l7.3,10.2
			h-2.2L185,327L186.3,325.9z"/>
		<path class="st1" d="M198.5,314.6c0-0.4,0.2-0.7,0.4-0.9c0.3-0.2,0.6-0.4,1-0.4c0.4,0,0.7,0.1,1,0.4c0.3,0.2,0.4,0.6,0.4,0.9
			c0,0.4-0.1,0.7-0.4,1c-0.3,0.3-0.6,0.4-1,0.4c-0.4,0-0.7-0.1-1-0.4C198.7,315.4,198.5,315,198.5,314.6z M198.9,320.4h1.9v15.7
			h-1.9V320.4z"/>
		<path class="st1" d="M209.6,320.4l0.2,4.9l-0.2-1c0.4-1.4,1.4-2.5,2.6-3.2c1.3-0.8,2.7-1.2,4.2-1.2c1.3-0.1,2.6,0.4,3.6,1.4
			c0.9,0.9,1.4,2.1,1.4,3.4v11.4h-1.9v-10.9c0-0.9-0.4-1.8-1-2.5c-0.7-0.7-1.7-1.1-2.7-1c-2.1,0-4,1.1-5.1,2.9
			c-0.6,1-0.8,2.1-0.8,3.2v8.4H208v-15.7L209.6,320.4z"/>
		<path class="st1" d="M235.5,343.8c-0.8,0-1.7-0.1-2.5-0.3c-0.8-0.2-1.6-0.5-2.4-1c-0.9-0.5-1.7-1.2-2.4-1.9l1.1-1.3
			c0.9,0.9,2,1.7,3.2,2.2c0.9,0.4,1.9,0.6,2.9,0.6c1.3,0.1,2.7-0.2,3.9-0.8c0.9-0.5,1.6-1.2,2.1-2.1c0.4-0.9,0.7-1.9,0.7-2.9v-5.1
			l0.4,0.5c-0.6,1.4-1.6,2.6-2.9,3.4c-1.4,0.9-3,1.4-4.7,1.3c-1.4,0-2.8-0.4-4-1.1c-3.9-2.3-5.3-7.3-3-11.3c0.8-1.3,1.8-2.3,3.1-3.1
			c1.3-0.7,2.8-1.1,4.3-1c1.4,0,2.9,0.4,4.1,1.1c1.2,0.7,2.2,1.7,2.8,3l-0.2,0.9l0.2-4.5h1.7v15.9c0,1.3-0.3,2.5-0.9,3.6
			c-0.6,1.2-1.6,2.1-2.7,2.8C238.9,343.6,237.2,343.9,235.5,343.8z M228.9,328.2c0,1.2,0.3,2.3,0.9,3.4c0.6,1,1.4,1.8,2.4,2.4
			c1,0.6,2.2,0.9,3.4,0.9c1.1,0,2.2-0.3,3.2-0.8c0.9-0.5,1.8-1.2,2.4-2.1c0.6-0.8,1-1.8,1.1-2.9v-2.3c-0.2-1-0.6-1.9-1.3-2.7
			c-0.6-0.8-1.4-1.4-2.3-1.8c-0.9-0.5-2-0.7-3-0.7c-1.2,0-2.3,0.3-3.4,0.8c-1,0.6-1.8,1.4-2.4,2.3
			C229.2,325.8,228.8,327,228.9,328.2L228.9,328.2z"/>
		<path class="st1" d="M269.9,336.5c-2.9,0-5.5-1.5-6.9-4c-1.4-2.7-1.4-5.9,0-8.6c0.7-1.2,1.7-2.2,3-2.9c1.3-0.7,2.7-1,4.1-1
			c1.5,0,3,0.4,4.3,1.2c1.3,0.7,2.3,1.8,3,3.1l-0.3,0.9v-19.5h1.9v30.5H277v-4.8l0.4,0.9c-0.7,1.3-1.7,2.4-3,3.1
			C273,336.1,271.5,336.5,269.9,336.5z M270.4,334.8c1.1,0,2.2-0.3,3.3-0.8c0.9-0.5,1.7-1.2,2.3-2.1c0.6-0.9,0.9-1.9,1-3v-2
			c-0.2-1-0.6-1.9-1.2-2.7c-0.6-0.8-1.4-1.4-2.3-1.9c-0.9-0.5-2-0.7-3-0.7c-1.2,0-2.3,0.3-3.3,0.8c-1,0.6-1.8,1.4-2.4,2.3
			c-0.6,1-0.9,2.2-0.9,3.5c0,1.2,0.3,2.3,0.9,3.4c0.6,1,1.4,1.8,2.4,2.4C268.1,334.5,269.2,334.8,270.4,334.8L270.4,334.8z"/>
		<path class="st1" d="M292.8,336.5c-1.5,0-3-0.3-4.3-1.1c-1.2-0.7-2.3-1.7-3-3c-0.7-1.3-1.1-2.7-1.1-4.2c0-1.5,0.4-2.9,1.1-4.2
			c0.7-1.2,1.8-2.3,3-3c1.3-0.7,2.8-1.1,4.2-1.1c1.7-0.1,3.4,0.5,4.7,1.6c1.3,1.1,2.3,2.6,2.8,4.3l-13.7,5.3l-0.6-1.4l12.6-4.9
			l-0.4,0.6c-0.5-1.1-1.2-2-2.1-2.8c-1-0.8-2.2-1.2-3.4-1.2c-1.1,0-2.3,0.3-3.3,0.9c-1,0.6-1.7,1.4-2.3,2.4c-0.6,1-0.9,2.2-0.9,3.4
			c0,1.1,0.3,2.3,0.8,3.3c1.1,2.1,3.3,3.4,5.7,3.4c0.8,0,1.7-0.2,2.5-0.5c0.8-0.3,1.5-0.7,2.1-1.2l1,1.4c-0.8,0.6-1.7,1.1-2.6,1.4
			C294.9,336.3,293.9,336.5,292.8,336.5z"/>
		<path class="st1" d="M318.9,336.1v-13.9h-2.7v-1.7h2.7v-7.9c0-2.5,0.4-4.3,1.3-5.4c0.9-1.1,2.4-1.8,3.9-1.7c0.4,0,0.8,0.1,1.2,0.1
			c0.4,0.1,0.8,0.2,1.2,0.5l-0.8,1.4c-0.2-0.1-0.4-0.2-0.6-0.3c-0.3-0.1-0.5-0.1-0.8-0.1c-1-0.1-2,0.4-2.6,1.2
			c-0.7,1.3-1,2.8-0.9,4.3v7.9h5.3v1.7h-5.3v13.9H318.9z"/>
		<path class="st1" d="M328.8,328.2c0-1.5,0.4-2.9,1.1-4.2c0.7-1.2,1.8-2.3,3-3c2.7-1.5,5.9-1.5,8.6,0c1.2,0.7,2.3,1.8,3,3
			c1.4,2.6,1.4,5.8,0,8.4c-0.7,1.3-1.7,2.3-3,3c-1.3,0.7-2.8,1.1-4.3,1.1c-1.5,0-3-0.3-4.3-1.1c-1.2-0.7-2.3-1.7-3-2.9
			C329.1,331.2,328.7,329.7,328.8,328.2z M330.6,328.2c0,2.3,1.2,4.5,3.2,5.7c2,1.2,4.5,1.2,6.5,0c3.2-2,4.2-6.1,2.2-9.3
			c-0.6-0.9-1.3-1.6-2.2-2.2c-1-0.6-2.1-0.9-3.3-0.9c-1.2,0-2.3,0.3-3.3,0.9c-1,0.6-1.8,1.5-2.3,2.5
			C330.9,325.9,330.6,327.1,330.6,328.2L330.6,328.2z"/>
		<path class="st1" d="M352.8,320.4l0.2,4.8l-0.2-0.6c0.3-1,0.9-1.8,1.6-2.5c0.7-0.7,1.6-1.2,2.5-1.6c0.8-0.4,1.8-0.5,2.7-0.6
			l-0.1,1.9c-1.1,0-2.3,0.3-3.3,0.8c-0.9,0.5-1.7,1.2-2.3,2.1c-0.6,0.9-0.9,1.9-0.9,3v8.3h-1.9v-15.7L352.8,320.4z"/>
		<path class="st1" d="M366.5,320.4l0.2,4.4l-0.3-0.4c0.5-1.3,1.5-2.5,2.7-3.2c1.2-0.8,2.6-1.2,4.1-1.2c0.8,0,1.6,0.2,2.4,0.5
			c0.7,0.3,1.3,0.8,1.7,1.4c0.4,0.6,0.7,1.3,0.8,2l-0.2,0.2c0.5-1.3,1.5-2.4,2.6-3c1.2-0.7,2.5-1,3.9-1c1.3-0.1,2.6,0.4,3.6,1.3
			c0.9,0.9,1.4,2.1,1.4,3.4v11.4h-1.9v-11c0-0.9-0.3-1.7-0.9-2.4c-0.7-0.7-1.6-1.1-2.6-1.1c-1,0-2,0.3-2.9,0.8
			c-0.9,0.5-1.6,1.3-2.1,2.1c-0.6,0.9-0.9,1.9-0.9,3v8.6h-1.9v-11c0-0.9-0.3-1.7-0.9-2.4c-0.7-0.7-1.6-1.1-2.6-1.1
			c-1,0-2.1,0.3-3,0.8c-1.8,1.1-3,3.1-3,5.3v8.4h-1.9v-15.7L366.5,320.4z"/>
		<path class="st1" d="M402.9,336.5c-1.4,0-2.8-0.3-4.1-1c-1.2-0.7-2.2-1.7-2.9-2.9c-0.7-1.3-1.1-2.8-1.1-4.3c0-1.6,0.3-3.1,1.1-4.5
			c0.7-1.2,1.8-2.2,3-2.9c1.4-0.7,2.9-1,4.4-1c1.4,0,2.8,0.4,4,1.3c1.2,0.8,2.1,1.8,2.7,3.1l-0.3,0.6l0.2-4.5h1.7v15.7h-1.9v-4.9
			l0.4,0.7c-0.2,0.6-0.6,1.1-1,1.6c-0.5,0.5-1,1-1.6,1.4c-0.7,0.4-1.4,0.8-2.2,1C404.6,336.3,403.8,336.4,402.9,336.5z M403.3,334.8
			c1.1,0,2.2-0.2,3.2-0.7c1.9-1,3.2-2.9,3.3-5.1v-2.3c-0.2-1-0.6-1.9-1.3-2.6c-0.6-0.8-1.4-1.4-2.3-1.8c-0.9-0.5-2-0.7-3-0.7
			c-1.1,0-2.3,0.3-3.3,0.8c-1,0.5-1.8,1.3-2.4,2.3c-0.6,1.1-0.9,2.3-0.9,3.5c0,1.2,0.3,2.3,0.9,3.4c0.6,1,1.4,1.8,2.4,2.4
			C401,334.5,402.2,334.9,403.3,334.8L403.3,334.8z"/>
		<path class="st1" d="M84.7,376.3v-13.9H82v-1.7h2.7v-7.9c0-2.5,0.4-4.3,1.3-5.4c0.9-1.1,2.4-1.8,3.9-1.7c0.4,0,0.8,0.1,1.2,0.1
			c0.4,0.1,0.8,0.2,1.2,0.5l-0.8,1.4c-0.2-0.1-0.4-0.2-0.6-0.3c-0.3-0.1-0.5-0.1-0.8-0.1c-1-0.1-2,0.4-2.6,1.2
			c-0.6,0.8-0.9,2.2-0.9,4.3v8h5.3v1.7h-5.3v13.9H84.7z"/>
		<path class="st1" d="M102.6,376.6c-1.4,0-2.8-0.3-4.1-1c-1.2-0.7-2.2-1.7-2.9-2.9c-0.7-1.3-1.1-2.8-1.1-4.3c0-1.6,0.3-3.1,1.1-4.5
			c0.7-1.2,1.8-2.2,3-2.9c1.4-0.7,2.9-1,4.4-1c2.9,0.1,5.4,1.8,6.6,4.4l-0.3,0.6l0.2-4.5h1.7v15.7h-1.9v-4.9l0.4,0.7
			c-0.2,0.6-0.6,1.1-1,1.6c-0.5,0.6-1.1,1-1.7,1.5c-0.7,0.4-1.4,0.8-2.2,1C104.2,376.4,103.4,376.6,102.6,376.6z M103,375
			c1.1,0,2.2-0.2,3.2-0.7c1.9-1,3.2-2.9,3.3-5.1v-2.3c-0.2-1-0.6-1.9-1.3-2.6c-0.6-0.8-1.4-1.4-2.3-1.9c-2-1-4.3-0.9-6.2,0.1
			c-1,0.5-1.8,1.3-2.4,2.3c-0.6,1.1-0.9,2.3-0.9,3.5c0,1.2,0.3,2.3,0.9,3.4c0.6,1,1.4,1.8,2.4,2.4C100.7,374.7,101.8,375,103,375
			L103,375z M107.2,352l-4.3,5.3h-1.4l3.5-5.3H107.2z"/>
		<path class="st1" d="M130.6,374.7c-0.7,0.6-1.6,1-2.4,1.4c-2.4,0.8-4.9,0.6-7.1-0.6c-1.2-0.7-2.3-1.7-3-2.9
			c-0.7-1.3-1.1-2.7-1-4.2c0-1.5,0.4-2.9,1.1-4.2c0.7-1.2,1.8-2.2,3-2.9c1.2-0.7,2.6-1.1,4.1-1.1c1,0,2,0.2,3,0.5
			c0.9,0.3,1.7,0.8,2.4,1.4l-1,1.3c-0.6-0.5-1.3-0.9-2-1.1c-0.8-0.3-1.6-0.4-2.4-0.4c-1.1,0-2.3,0.3-3.2,0.9c-1,0.6-1.8,1.4-2.3,2.4
			c-0.6,1-0.9,2.2-0.9,3.4c0,1.2,0.3,2.3,0.9,3.3c1.2,2,3.4,3.3,5.7,3.3c0.8,0,1.5-0.1,2.3-0.4c0.7-0.2,1.3-0.6,1.9-1L130.6,374.7z"
			/>
		<path class="st1" d="M135.5,354.8c0-0.4,0.2-0.7,0.4-0.9c0.3-0.3,0.6-0.4,1-0.4c0.4,0,0.7,0.1,1,0.4c0.3,0.2,0.4,0.6,0.4,0.9
			c0,0.4-0.1,0.7-0.4,1c-0.3,0.3-0.6,0.4-1,0.4c-0.4,0-0.7-0.1-1-0.4C135.6,355.5,135.5,355.2,135.5,354.8z M135.9,360.6h1.9v15.7
			h-1.9V360.6z"/>
		<path class="st1" d="M144.9,345.8h1.9v30.5h-1.9V345.8z"/>
		<path class="st1" d="M173.1,376.6c-1.5,0-3-0.3-4.3-1.1c-1.3-0.7-2.3-1.7-3-3c-0.7-1.3-1.1-2.7-1.1-4.2c0-1.5,0.4-2.9,1.1-4.2
			c0.7-1.2,1.8-2.3,3-3c1.3-0.8,2.7-1.1,4.2-1.1c1.7-0.1,3.4,0.5,4.7,1.6c1.3,1.1,2.3,2.6,2.8,4.3l-13.7,5.3l-0.6-1.4l12.6-4.9
			l-0.4,0.6c-0.5-1.1-1.2-2-2.1-2.8c-1-0.8-2.2-1.2-3.4-1.2c-1.1,0-2.3,0.3-3.3,0.9c-1,0.6-1.7,1.4-2.3,2.4c-0.6,1-0.9,2.2-0.9,3.4
			c0,1.2,0.3,2.3,0.8,3.3c0.6,1,1.4,1.8,2.4,2.4c1,0.6,2.2,1,3.4,0.9c0.8,0,1.7-0.2,2.5-0.5c0.8-0.3,1.5-0.7,2.1-1.3l1,1.4
			c-0.8,0.6-1.7,1.1-2.6,1.4C175.1,376.4,174.1,376.6,173.1,376.6z"/>
		<path class="st1" d="M210.2,374.7c-0.7,0.6-1.6,1-2.4,1.4c-2.4,0.8-4.9,0.6-7.1-0.6c-1.2-0.7-2.3-1.7-3-2.9
			c-0.7-1.3-1.1-2.7-1.1-4.2c0-1.5,0.4-2.9,1.1-4.2c0.7-1.2,1.8-2.2,3-2.9c1.2-0.7,2.6-1.1,4.1-1.1c1,0,2.1,0.2,3.1,0.5
			c0.9,0.3,1.7,0.8,2.4,1.4l-1,1.3c-0.6-0.5-1.3-0.9-2-1.1c-0.8-0.3-1.6-0.4-2.4-0.4c-1.1,0-2.3,0.3-3.2,0.9c-1,0.6-1.8,1.4-2.3,2.4
			c-0.6,1-0.9,2.2-0.9,3.4c0,1.2,0.3,2.3,0.9,3.3c1.2,2,3.4,3.3,5.7,3.3c0.8,0,1.5-0.1,2.3-0.4c0.7-0.2,1.3-0.6,1.9-1L210.2,374.7z"
			/>
		<path class="st1" d="M214,368.3c0-3,1.6-5.7,4.1-7.2c2.7-1.5,5.9-1.5,8.6,0c1.3,0.7,2.3,1.7,3,3c1.5,2.6,1.5,5.8,0,8.4
			c-0.7,1.3-1.7,2.3-3,3c-1.3,0.7-2.8,1.1-4.3,1.1c-1.5,0-3-0.3-4.3-1.1c-1.2-0.7-2.3-1.7-3-2.9C214.4,371.3,214,369.8,214,368.3z
			 M215.9,368.4c0,1.2,0.3,2.3,0.9,3.4c0.6,1,1.4,1.8,2.3,2.4c2,1.2,4.5,1.2,6.5,0c1-0.6,1.8-1.4,2.3-2.4c1.8-3.2,0.8-7.2-2.3-9.1
			c-1-0.6-2.1-0.9-3.3-0.9c-1.2,0-2.3,0.3-3.3,1c-1,0.6-1.8,1.5-2.3,2.5C216.2,366.1,215.9,367.2,215.9,368.4L215.9,368.4z"/>
		<path class="st1" d="M238,360.6l0.2,4.4l-0.3-0.4c0.5-1.3,1.5-2.5,2.7-3.2c1.2-0.8,2.6-1.2,4.1-1.2c0.8,0,1.6,0.2,2.4,0.5
			c0.7,0.3,1.3,0.8,1.7,1.4c0.4,0.6,0.7,1.3,0.8,2l-0.2,0.2c0.5-1.3,1.5-2.4,2.6-3c1.2-0.7,2.5-1,3.9-1c1.3-0.1,2.6,0.4,3.6,1.3
			c0.9,0.9,1.4,2.1,1.4,3.4v11.4h-1.9v-11c0-0.9-0.3-1.7-0.9-2.4c-0.7-0.7-1.6-1.1-2.6-1.1c-1,0-2,0.3-2.9,0.8
			c-0.9,0.5-1.6,1.3-2.1,2.1c-0.5,0.9-0.9,1.9-0.9,3v8.6h-1.9v-11c0-0.9-0.3-1.7-0.9-2.4c-0.7-0.7-1.6-1.1-2.6-1.1
			c-1.1,0-2.1,0.3-3,0.8c-0.9,0.5-1.6,1.3-2.1,2.2c-0.5,0.9-0.8,2-0.8,3.1v8.4h-1.9v-15.8H238z"/>
		<path class="st1" d="M281.9,360.6l0.2,4.8l-0.2-0.6c0.3-0.9,0.9-1.8,1.6-2.5c0.7-0.7,1.6-1.2,2.5-1.6c0.8-0.4,1.8-0.6,2.7-0.6
			l-0.1,1.8c-1.1,0-2.3,0.3-3.3,0.8c-0.9,0.5-1.7,1.2-2.3,2.1c-0.6,0.9-0.9,1.9-0.9,3v8.3h-1.9v-15.7H281.9z"/>
		<path class="st1" d="M300.1,376.6c-1.5,0-3-0.3-4.3-1.1c-1.2-0.7-2.3-1.7-3-3c-0.7-1.3-1.1-2.7-1.1-4.2c0-1.5,0.4-2.9,1.1-4.2
			c0.7-1.2,1.8-2.3,3-3c1.3-0.8,2.7-1.1,4.2-1.1c1.7-0.1,3.4,0.5,4.7,1.6c1.3,1.1,2.3,2.6,2.8,4.3l-13.7,5.3l-0.6-1.4l12.6-4.9
			l-0.4,0.6c-0.5-1.1-1.2-2-2.1-2.8c-0.9-0.8-2.2-1.2-3.4-1.2c-1.1,0-2.3,0.3-3.3,0.9c-1,0.6-1.7,1.4-2.3,2.4
			c-0.6,1-0.9,2.2-0.9,3.4c0,1.2,0.3,2.3,0.8,3.3c0.5,1,1.3,1.8,2.3,2.4c1,0.6,2.2,1,3.4,0.9c0.8,0,1.7-0.2,2.5-0.5
			c0.8-0.3,1.5-0.7,2.1-1.3l1,1.4c-0.8,0.6-1.7,1.1-2.6,1.4C302.2,376.4,301.2,376.6,300.1,376.6z"/>
		<path class="st1" d="M314.4,353.7h1.9v7.1h4.9v1.5h-4.9v14h-1.9v-14h-3.3v-1.5h3.3V353.7z"/>
		<path class="st1" d="M324.4,368.3c0-3,1.6-5.7,4.1-7.2c2.7-1.5,5.9-1.5,8.6,0c3.9,2.4,5.2,7.4,3,11.3c-0.7,1.2-1.8,2.3-3,3
			c-1.3,0.7-2.8,1.1-4.3,1.1c-1.5,0-3-0.3-4.3-1.1c-1.2-0.7-2.3-1.7-3-2.9C324.7,371.3,324.4,369.8,324.4,368.3z M326.3,368.4
			c0,1.2,0.3,2.3,0.9,3.4c0.6,1,1.4,1.8,2.3,2.4c2,1.2,4.5,1.2,6.5,0c1-0.6,1.8-1.4,2.3-2.4c1.1-2.1,1.1-4.6,0-6.7
			c-0.6-1-1.4-1.8-2.3-2.4c-2-1.2-4.6-1.2-6.6,0c-1,0.6-1.8,1.5-2.3,2.5C326.5,366.1,326.3,367.2,326.3,368.4L326.3,368.4z"/>
		<path class="st1" d="M348.4,360.6l0.2,4.8l-0.2-0.6c0.3-0.9,0.9-1.8,1.6-2.5c0.7-0.7,1.6-1.2,2.5-1.6c0.8-0.4,1.8-0.6,2.7-0.6
			l-0.1,1.8c-1.1,0-2.3,0.3-3.3,0.8c-0.9,0.5-1.7,1.2-2.3,2.1c-0.6,0.9-0.9,1.9-0.9,3v8.3h-1.9v-15.7H348.4z"/>
		<path class="st1" d="M362.1,360.6l0.2,4.9l-0.2-1c0.4-1.4,1.4-2.5,2.6-3.2c1.3-0.8,2.7-1.2,4.2-1.2c1.3-0.1,2.6,0.4,3.6,1.3
			c0.9,0.9,1.4,2.1,1.4,3.4v11.4h-1.9v-10.9c0-0.9-0.4-1.8-1-2.5c-0.7-0.7-1.7-1.1-2.7-1c-1,0-2,0.3-2.9,0.8
			c-0.9,0.5-1.7,1.2-2.2,2.1c-0.6,1-0.8,2.1-0.8,3.2v8.4h-1.9v-15.7H362.1z"/>
		<path class="st1" d="M379.5,368.3c0-3,1.5-5.7,4.1-7.2c2.7-1.5,5.9-1.5,8.6,0c1.3,0.7,2.3,1.7,3,3c1.4,2.6,1.4,5.8,0,8.4
			c-0.7,1.3-1.7,2.3-3,3c-1.3,0.7-2.8,1.1-4.3,1.1c-1.5,0-3-0.3-4.3-1.1c-1.2-0.7-2.3-1.7-3-2.9
			C379.8,371.3,379.5,369.8,379.5,368.3z M381.4,368.4c0,1.2,0.3,2.3,0.9,3.4c0.6,1,1.4,1.8,2.3,2.4c2,1.2,4.5,1.2,6.5,0
			c1-0.6,1.8-1.4,2.3-2.4c1.1-2.1,1.1-4.6,0-6.7c-0.6-1-1.4-1.8-2.3-2.4c-1-0.6-2.1-0.9-3.3-0.9c-1.2,0-2.3,0.3-3.3,1
			c-1,0.6-1.8,1.5-2.3,2.5C381.7,366.1,381.4,367.2,381.4,368.4z"/>
		<path class="st1" d="M162.2,424.1c-0.9,0-1.7-0.1-2.5-0.3c-0.8-0.2-1.6-0.5-2.4-1c-0.9-0.5-1.7-1.2-2.4-1.9l1.1-1.3
			c0.9,0.9,2,1.7,3.2,2.2c2.2,0.8,4.6,0.8,6.8-0.2c0.9-0.5,1.6-1.2,2.1-2.1c0.4-0.9,0.7-1.9,0.7-2.9v-5.1l0.4,0.5
			c-0.6,1.4-1.6,2.6-2.9,3.4c-1.4,0.9-3,1.4-4.7,1.3c-1.4,0-2.8-0.4-4-1.1c-3.9-2.3-5.3-7.3-3-11.3c0.8-1.3,1.8-2.3,3.1-3.1
			c1.3-0.7,2.8-1.1,4.3-1.1c1.4,0,2.9,0.4,4.1,1.1c1.2,0.7,2.2,1.7,2.8,3l-0.2,0.9l0.2-4.5h1.7v15.9c0,1.3-0.3,2.5-0.9,3.6
			c-0.6,1.2-1.6,2.1-2.7,2.8C165.5,423.8,163.9,424.1,162.2,424.1z M155.5,408.5c0,1.2,0.3,2.3,0.9,3.4c0.6,1,1.4,1.8,2.4,2.4
			c1,0.6,2.2,0.9,3.4,0.9c1.1,0,2.2-0.3,3.2-0.8c0.9-0.5,1.8-1.2,2.4-2.1c0.6-0.8,0.9-1.8,1-2.9v-2.3c-0.2-1-0.6-1.9-1.3-2.7
			c-0.6-0.8-1.4-1.4-2.3-1.9c-2-1-4.4-0.9-6.4,0.2c-1,0.6-1.8,1.4-2.4,2.3C155.8,406.1,155.5,407.2,155.5,408.5z"/>
		<path class="st1" d="M184.3,416.7c-1.4,0-2.8-0.3-4.1-1c-1.2-0.7-2.2-1.7-2.9-2.9c-1.4-2.7-1.4-6,0.1-8.8c0.7-1.2,1.8-2.2,3.1-2.9
			c1.4-0.7,2.9-1,4.4-1c2.9,0.1,5.4,1.8,6.6,4.4l-0.3,0.6l0.2-4.5h1.7v15.7h-1.9v-4.9l0.4,0.7c-0.2,0.6-0.6,1.1-1,1.6
			c-0.5,0.6-1,1-1.7,1.4c-0.7,0.4-1.4,0.8-2.2,1C186,416.6,185.2,416.7,184.3,416.7z M184.7,415.1c1.1,0,2.2-0.2,3.2-0.7
			c0.9-0.5,1.7-1.2,2.3-2.1c0.6-0.9,0.9-2,1-3V407c-0.2-1-0.6-1.9-1.3-2.6c-0.6-0.8-1.4-1.4-2.3-1.9c-2-1-4.3-0.9-6.2,0.1
			c-1,0.5-1.8,1.3-2.4,2.3c-0.6,1.1-0.9,2.3-0.9,3.5c0,1.2,0.3,2.3,0.9,3.4c0.6,1,1.4,1.8,2.4,2.4
			C182.4,414.8,183.6,415.1,184.7,415.1L184.7,415.1z"/>
		<path class="st1" d="M201.9,400.7l0.2,4.8l-0.2-0.6c0.3-1,0.9-1.8,1.6-2.5c0.7-0.7,1.6-1.2,2.5-1.6c0.8-0.4,1.8-0.5,2.7-0.6
			l-0.1,1.9c-1.1,0-2.3,0.3-3.3,0.8c-0.9,0.5-1.7,1.2-2.3,2.1c-0.6,0.9-0.9,1.9-0.9,3v8.3h-1.9v-15.7H201.9z"/>
		<path class="st1" d="M220.3,416.7c-1.4,0-2.8-0.3-4.1-1c-1.2-0.7-2.2-1.7-2.9-2.9c-1.4-2.7-1.4-6,0.1-8.8c0.7-1.2,1.7-2.2,3-2.9
			c1.4-0.7,2.9-1,4.4-1c2.9,0.1,5.4,1.8,6.6,4.4l-0.3,0.6l0.2-4.5h1.7v15.7h-1.9v-4.9l0.4,0.7c-0.2,0.6-0.6,1.1-1,1.6
			c-0.5,0.6-1,1-1.7,1.4c-0.7,0.4-1.4,0.8-2.2,1C221.9,416.6,221.1,416.7,220.3,416.7z M220.7,415.1c1.1,0,2.2-0.2,3.2-0.7
			c0.9-0.5,1.7-1.2,2.3-2.1c0.6-0.9,0.9-2,1-3V407c-0.2-1-0.6-1.9-1.3-2.6c-0.6-0.8-1.4-1.4-2.3-1.9c-2-1-4.3-0.9-6.2,0.1
			c-1,0.6-1.8,1.4-2.4,2.4c-0.6,1.1-0.9,2.3-0.9,3.5c0,1.2,0.3,2.3,0.9,3.4c0.6,1,1.4,1.8,2.4,2.4
			C218.4,414.8,219.5,415.1,220.7,415.1L220.7,415.1z"/>
		<path class="st1" d="M237.9,400.7l0.2,4.9l-0.2-1c0.4-1.4,1.4-2.5,2.6-3.2c1.3-0.8,2.7-1.2,4.2-1.2c1.3-0.1,2.6,0.4,3.6,1.3
			c0.9,0.9,1.4,2.1,1.4,3.4v11.5h-1.9v-10.9c0-0.9-0.4-1.8-1-2.5c-0.7-0.7-1.7-1.1-2.7-1c-1,0-2,0.3-2.9,0.8
			c-0.9,0.5-1.7,1.2-2.2,2.1c-0.6,1-0.9,2.1-0.8,3.2v8.4h-1.9v-15.7H237.9z"/>
		<path class="st1" d="M258.3,393.8h1.9v7.1h4.9v1.5h-4.9v14h-1.9v-14H255v-1.5h3.3L258.3,393.8z"/>
		<path class="st1" d="M269.4,394.9c0-0.4,0.2-0.7,0.4-0.9c0.3-0.3,0.6-0.4,1-0.4c0.4,0,0.7,0.1,1,0.4c0.3,0.2,0.4,0.6,0.4,0.9
			c0,0.4-0.1,0.7-0.4,1c-0.5,0.5-1.4,0.5-1.9,0C269.6,395.7,269.4,395.3,269.4,394.9z M269.8,400.7h1.9v15.7h-1.9V400.7z"/>
		<path class="st1" d="M285.3,416.7c-2.9,0-5.5-1.5-6.9-4c-1.4-2.7-1.4-5.9,0-8.6c0.7-1.2,1.7-2.2,3-2.9c2.6-1.4,5.8-1.3,8.4,0.2
			c1.3,0.7,2.3,1.8,3,3l-0.3,0.9v-19.4h1.9v30.5h-1.9v-4.8l0.4,0.9c-0.7,1.3-1.7,2.3-3,3.1C288.4,416.3,286.8,416.7,285.3,416.7z
			 M285.7,415.1c1.1,0,2.2-0.2,3.3-0.8c0.9-0.5,1.7-1.2,2.3-2.1c0.6-0.9,0.9-1.9,1-3v-2c-0.2-1-0.6-1.9-1.2-2.7
			c-0.6-0.8-1.4-1.4-2.3-1.9c-0.9-0.5-2-0.7-3-0.7c-1.2,0-2.3,0.3-3.3,0.8c-1,0.6-1.8,1.4-2.4,2.3c-0.6,1-0.9,2.2-0.9,3.5
			c0,1.2,0.3,2.3,0.9,3.4c0.6,1,1.4,1.8,2.4,2.4C283.5,414.8,284.6,415.1,285.7,415.1z"/>
		<path class="st1" d="M299.9,408.5c0-3,1.5-5.7,4.1-7.2c2.7-1.5,5.9-1.5,8.6,0c1.3,0.7,2.3,1.7,3,3c1.5,2.6,1.5,5.8,0,8.3
			c-0.7,1.3-1.7,2.3-3,3c-1.3,0.7-2.8,1.1-4.3,1.1c-1.5,0-3-0.3-4.3-1.1c-1.2-0.7-2.3-1.7-3-2.9C300.2,411.4,299.8,410,299.9,408.5z
			 M301.8,408.5c0,1.2,0.3,2.3,0.9,3.4c0.6,1,1.4,1.8,2.3,2.4c2,1.2,4.5,1.2,6.5,0c1-0.6,1.8-1.4,2.3-2.4c1.1-2.1,1.1-4.6,0-6.7
			c-0.6-1-1.4-1.8-2.3-2.4c-1-0.6-2.1-0.9-3.3-0.9c-1.2,0-2.3,0.3-3.3,0.9c-1,0.6-1.8,1.5-2.3,2.5
			C302,406.2,301.7,407.3,301.8,408.5L301.8,408.5z"/>
		<polygon class="st1" points="297.9,219.1 243.8,183.9 243.8,144.2 235.4,144.2 235.4,183.9 181.4,219.1 185.9,226.1 239.6,191.2 
			293.3,226.1 		"/>
		<path class="st2" d="M268.2,127.7l-3.5-21c-0.7-4-4.2-7-8.3-7h-33.6c-4.1,0-7.6,3-8.3,7l-3.5,21H268.2z"/>
		<circle class="st2" cx="239.6" cy="75.9" r="18.2"/>
		<path class="st1" d="M239.6,57.7h-0.1c-10,0-18.1,8.2-18.1,18.2c0,1.1,0.1,2.2,0.3,3.3c2.3-5.7,2.6-6.9,9.6-5.5
			c6.5,1.3,17.3-0.1,21.2-4.3c2,2.8,3.5,3.7,5.3,7c0-0.2,0-0.3,0-0.4C257.8,65.8,249.7,57.7,239.6,57.7z"/>
		<polygon class="st1" points="244.6,127.7 242.4,99.7 236.8,99.7 234.7,127.7 		"/>
		<path class="st2" d="M168.9,242.2l-3.5-21c-0.7-4-4.2-7-8.3-7h-33.6c-4.1,0-7.6,3-8.3,7l-3.5,21H168.9z"/>
		<circle class="st2" cx="140.3" cy="190.4" r="18.2"/>
		<path class="st1" d="M140.3,172.2h-0.1c-10,0-18.1,8.2-18.1,18.2c0,1.1,0.1,2.2,0.3,3.3c2.3-5.7,2.6-6.9,9.6-5.5
			c6.5,1.3,17.3-0.1,21.2-4.4c2,2.8,3.5,3.7,5.3,7c0-0.1,0-0.3,0-0.4C158.4,180.4,150.3,172.3,140.3,172.2z"/>
		<polygon class="st1" points="145.2,242.2 143.1,214.2 137.5,214.2 135.3,242.2 		"/>
		<path class="st2" d="M362.7,242.2l-3.5-21c-0.7-4-4.2-7-8.3-7h-33.6c-4.1,0-7.6,3-8.3,7l-3.5,21H362.7z"/>
		<circle class="st2" cx="334.1" cy="190.4" r="18.2"/>
		<path class="st1" d="M334.1,172.2H334c-10,0-18.1,8.2-18.1,18.2c0,1.1,0.1,2.2,0.3,3.3c2.3-5.7,2.6-6.9,9.6-5.5
			c6.5,1.3,17.3-0.1,21.2-4.4c2,2.8,3.5,3.7,5.3,7c0-0.1,0-0.3,0-0.4C352.3,180.4,344.2,172.3,334.1,172.2z"/>
		<polygon class="st1" points="339.1,242.2 336.9,214.2 331.3,214.2 329.2,242.2 		"/>
		<circle class="st3" cx="239.6" cy="186.2" r="8.4"/>
	</g>
</g>
</svg>
