<svg xmlns="http://www.w3.org/2000/svg" viewBox="0 0 442.96 410.31"><defs><style>.cls-1{fill:#65140f;}.cls-2{fill:#fff;}.cls-3{fill:#e10d22;}</style></defs><g id="Camada_2" data-name="Camada 2"><g id="Camada_1-2" data-name="Camada 1"><rect class="cls-1" width="442.96" height="410.31"/><path class="cls-2" d="M74.25,84.77h28.48v3.06H77.44v18.33h22.75v3H77.44v18.66h26.19v3H74.25Z"/><path class="cls-2" d="M120.21,131.44a14.47,14.47,0,0,1-4.62-.81,8.44,8.44,0,0,1-3.9-2.63l1.43-2a9.88,9.88,0,0,0,3.09,2.18,9.1,9.1,0,0,0,3.8.81,9.36,9.36,0,0,0,2.83-.42,4.47,4.47,0,0,0,2.18-1.46,4.35,4.35,0,0,0,.84-2.8,3.69,3.69,0,0,0-1-2.79,7.71,7.71,0,0,0-2.54-1.6c-1-.41-2.09-.79-3.22-1.14a12.88,12.88,0,0,1-4.58-2.46,5.57,5.57,0,0,1-1.79-4.42,6.57,6.57,0,0,1,1-3.64,6.82,6.82,0,0,1,2.76-2.44,8.71,8.71,0,0,1,4-.88,12.93,12.93,0,0,1,4,.65,9.33,9.33,0,0,1,3.6,2.21l-1.36,2.15a5.18,5.18,0,0,0-2.76-2,13.07,13.07,0,0,0-3-.58,6.56,6.56,0,0,0-2.3.45,5.19,5.19,0,0,0-2,1.34,3.25,3.25,0,0,0-.81,2.31,3.5,3.5,0,0,0,.84,2.43,6.28,6.28,0,0,0,2.18,1.53c.89.39,1.81.76,2.76,1.1a26.23,26.23,0,0,1,3.55,1.4,8.11,8.11,0,0,1,2.73,2.15,5.51,5.51,0,0,1,1.07,3.54,8.23,8.23,0,0,1-1,4,6.78,6.78,0,0,1-2.89,2.79A10.37,10.37,0,0,1,120.21,131.44Z"/><path class="cls-2" d="M140.68,94.33h3.12v11.5h7.87v2.47H143.8v22.62h-3.12V108.3h-5.39v-2.47h5.39Z"/><path class="cls-2" d="M161.94,105.51l.32,7.79-.39-1a10.14,10.14,0,0,1,2.67-4,13.27,13.27,0,0,1,4.06-2.6,11.44,11.44,0,0,1,4.32-.91l-.13,3a10.77,10.77,0,0,0-5.29,1.3,10.2,10.2,0,0,0-3.77,3.48,8.81,8.81,0,0,0-1.4,4.91v13.45h-3.06V105.51Z"/><path class="cls-2" d="M191.71,131.44a13.21,13.21,0,0,1-6.6-1.66,12.15,12.15,0,0,1-4.68-4.65,15.13,15.13,0,0,1,.1-14.2,12.06,12.06,0,0,1,4.94-4.61,15.38,15.38,0,0,1,7.08-1.6,12.11,12.11,0,0,1,10.73,7.09l-.46.91.39-7.21h2.73v25.41h-3.05v-7.87l.65,1.17a7.75,7.75,0,0,1-1.56,2.57,14.11,14.11,0,0,1-6.21,4A13.22,13.22,0,0,1,191.71,131.44Zm.65-2.6a11,11,0,0,0,5.17-1.2,9.93,9.93,0,0,0,5.36-8.29v-3.64a10.17,10.17,0,0,0-2-4.29,11.15,11.15,0,0,0-3.74-3,10.53,10.53,0,0,0-4.81-1.1,10.65,10.65,0,0,0-5.26,1.33,10.18,10.18,0,0,0-3.84,3.73,10.92,10.92,0,0,0-1.43,5.66,10.59,10.59,0,0,0,1.43,5.43,11.12,11.12,0,0,0,3.87,3.9A10.17,10.17,0,0,0,192.36,128.84Z"/><path class="cls-2" d="M220.05,94.33h3.12v11.5H231v2.47h-7.86v22.62h-3.12V108.3h-5.4v-2.47h5.4Z"/><path class="cls-2" d="M249.69,131.44a13.81,13.81,0,0,1-7-1.76,12.66,12.66,0,0,1-4.78-4.77,13.47,13.47,0,0,1-1.72-6.79,12.92,12.92,0,0,1,1.82-6.77,13.72,13.72,0,0,1,4.91-4.87,13.24,13.24,0,0,1,6.85-1.82,11.26,11.26,0,0,1,7.64,2.67,14.87,14.87,0,0,1,4.45,7l-22.23,8.58-.91-2.21,20.35-7.93-.65.91a11.92,11.92,0,0,0-3.35-4.49,8.28,8.28,0,0,0-5.49-1.88,9.94,9.94,0,0,0-5.27,1.43,10.69,10.69,0,0,0-5.13,9.3,11,11,0,0,0,1.33,5.32,10.41,10.41,0,0,0,3.74,4,10.2,10.2,0,0,0,5.52,1.5,10.71,10.71,0,0,0,4-.78,13.25,13.25,0,0,0,3.41-2l1.56,2.21a16.17,16.17,0,0,1-4.19,2.34A13.35,13.35,0,0,1,249.69,131.44Zm4.48-39.91-6.89,8.65h-2.21l5.66-8.65Z"/><path class="cls-2" d="M281.6,143.34a17,17,0,0,1-4.09-.49,13.67,13.67,0,0,1-3.84-1.66,25.91,25.91,0,0,1-3.9-3.06l1.82-2.08a16.86,16.86,0,0,0,5.2,3.61,12.8,12.8,0,0,0,4.68.94,13.36,13.36,0,0,0,6.31-1.26,7.77,7.77,0,0,0,3.38-3.38,11.17,11.17,0,0,0,1.1-4.71l.07-8.26.71.78a11.31,11.31,0,0,1-4.64,5.53,13.85,13.85,0,0,1-7.58,2.14,12.4,12.4,0,0,1-6.53-1.79,13.33,13.33,0,0,1-4.71-4.81,13.22,13.22,0,0,1,5-18.39,14,14,0,0,1,6.89-1.73,13.12,13.12,0,0,1,6.67,1.83,11,11,0,0,1,4.58,4.8l-.39,1.44.32-7.28h2.73v25.8a12.85,12.85,0,0,1-1.39,5.88,10.58,10.58,0,0,1-4.42,4.45A16.25,16.25,0,0,1,281.6,143.34Zm-10.72-25.29a10.49,10.49,0,0,0,1.43,5.43,11,11,0,0,0,3.87,3.9,10.36,10.36,0,0,0,5.42,1.46,10.68,10.68,0,0,0,5.2-1.27,11,11,0,0,0,3.84-3.41,9.3,9.3,0,0,0,1.69-4.61v-3.77a10.16,10.16,0,0,0-2.05-4.36,11.07,11.07,0,0,0-3.77-3,11.49,11.49,0,0,0-10.33.26,10.23,10.23,0,0,0-3.87,3.77A10.67,10.67,0,0,0,270.88,118.05Z"/><path class="cls-2" d="M306.3,96.14a1.93,1.93,0,0,1,.72-1.52,2.34,2.34,0,0,1,1.56-.62,2.22,2.22,0,0,1,1.56.62,2,2,0,0,1,.65,1.52,2.11,2.11,0,0,1-.65,1.6,2.21,2.21,0,0,1-1.56.61,2.27,2.27,0,0,1-1.56-.64A2.06,2.06,0,0,1,306.3,96.14Zm.65,9.37H310v25.41H307Z"/><path class="cls-2" d="M332.11,131.44a13.21,13.21,0,0,1-6.6-1.66,12.15,12.15,0,0,1-4.68-4.65,15.13,15.13,0,0,1,.1-14.2,12.06,12.06,0,0,1,4.94-4.61,15.38,15.38,0,0,1,7.08-1.6,12.14,12.14,0,0,1,10.73,7.09l-.46.91.39-7.21h2.73v25.41h-3v-7.87l.65,1.17a8.09,8.09,0,0,1-1.56,2.57,14.11,14.11,0,0,1-6.21,4A13.22,13.22,0,0,1,332.11,131.44Zm.65-2.6a11.06,11.06,0,0,0,5.17-1.2,9.93,9.93,0,0,0,5.36-8.29v-3.64a10.17,10.17,0,0,0-2.05-4.29,11.15,11.15,0,0,0-3.74-3,11.07,11.07,0,0,0-10.07.23,10.11,10.11,0,0,0-3.84,3.73,10.92,10.92,0,0,0-1.43,5.66,10.59,10.59,0,0,0,1.43,5.43,11.12,11.12,0,0,0,3.87,3.9A10.17,10.17,0,0,0,332.76,128.84Z"/><path class="cls-2" d="M363.89,131.44a14.41,14.41,0,0,1-4.61-.81,8.34,8.34,0,0,1-3.9-2.63l1.43-2a9.73,9.73,0,0,0,3.08,2.18,9.15,9.15,0,0,0,3.81.81,9.3,9.3,0,0,0,2.82-.42,4.47,4.47,0,0,0,2.18-1.46,4.35,4.35,0,0,0,.85-2.8,3.7,3.7,0,0,0-1-2.79,7.61,7.61,0,0,0-2.54-1.6q-1.53-.62-3.21-1.14a12.84,12.84,0,0,1-4.59-2.46,5.56,5.56,0,0,1-1.78-4.42,6.56,6.56,0,0,1,1-3.64,6.91,6.91,0,0,1,2.77-2.44,8.67,8.67,0,0,1,4-.88,12.88,12.88,0,0,1,4,.65,9.44,9.44,0,0,1,3.61,2.21l-1.37,2.15a5.14,5.14,0,0,0-2.76-2,13.09,13.09,0,0,0-3-.58,6.57,6.57,0,0,0-2.31.45,5.34,5.34,0,0,0-2,1.34,3.25,3.25,0,0,0-.81,2.31,3.46,3.46,0,0,0,.85,2.43,6.15,6.15,0,0,0,2.17,1.53c.89.39,1.81.76,2.77,1.1a26.62,26.62,0,0,1,3.54,1.4,8.11,8.11,0,0,1,2.73,2.15,5.51,5.51,0,0,1,1.07,3.54,8.22,8.22,0,0,1-1,4,6.8,6.8,0,0,1-2.9,2.79A10.34,10.34,0,0,1,363.89,131.44Z"/><path class="cls-2" d="M89.85,196.44a13.2,13.2,0,0,1-6.59-1.66,12.09,12.09,0,0,1-4.68-4.65,13.65,13.65,0,0,1-1.73-6.95,13.84,13.84,0,0,1,1.82-7.25,12.12,12.12,0,0,1,4.94-4.61,15.42,15.42,0,0,1,7.09-1.6,12.11,12.11,0,0,1,10.72,7.09l-.45.91.39-7.21h2.73v25.41H101v-7.87l.65,1.17a7.75,7.75,0,0,1-1.56,2.57,13.2,13.2,0,0,1-2.69,2.34,13.89,13.89,0,0,1-3.51,1.69A13.28,13.28,0,0,1,89.85,196.44Zm.65-2.6a11,11,0,0,0,5.17-1.2,9.9,9.9,0,0,0,3.74-3.35,10,10,0,0,0,1.62-4.94v-3.64a10.16,10.16,0,0,0-2-4.29,11.25,11.25,0,0,0-3.74-3,10.56,10.56,0,0,0-4.81-1.1,10.69,10.69,0,0,0-5.27,1.33,10.08,10.08,0,0,0-3.83,3.73,10.92,10.92,0,0,0-1.43,5.66,10.59,10.59,0,0,0,1.43,5.43,11,11,0,0,0,3.87,3.9A10.13,10.13,0,0,0,90.5,193.84Z"/><path class="cls-2" d="M124.56,196.89l-12.87-26.38h3.58l10.59,23.07-1.88-.07,10.2-23h3.38L125,196.89Z"/><path class="cls-2" d="M154.85,196.44a13.2,13.2,0,0,1-6.59-1.66,12.09,12.09,0,0,1-4.68-4.65,13.65,13.65,0,0,1-1.73-6.95,13.84,13.84,0,0,1,1.82-7.25,12.12,12.12,0,0,1,4.94-4.61,15.42,15.42,0,0,1,7.09-1.6,12.11,12.11,0,0,1,10.72,7.09l-.45.91.39-7.21h2.73v25.41H166v-7.87l.65,1.17a7.75,7.75,0,0,1-1.56,2.57,13.2,13.2,0,0,1-2.69,2.34,13.89,13.89,0,0,1-3.51,1.69A13.28,13.28,0,0,1,154.85,196.44Zm.65-2.6a11,11,0,0,0,5.17-1.2,9.9,9.9,0,0,0,3.74-3.35,10,10,0,0,0,1.62-4.94v-3.64a10.16,10.16,0,0,0-2-4.29,11.25,11.25,0,0,0-3.74-3,10.56,10.56,0,0,0-4.81-1.1,10.69,10.69,0,0,0-5.27,1.33,10.08,10.08,0,0,0-3.83,3.73,10.92,10.92,0,0,0-1.43,5.66,10.59,10.59,0,0,0,1.43,5.43,11,11,0,0,0,3.87,3.9A10.13,10.13,0,0,0,155.5,193.84Z"/><path class="cls-2" d="M183.32,170.51l.33,8-.39-1.56a9.55,9.55,0,0,1,4.19-5.23,12.72,12.72,0,0,1,6.86-1.92,8,8,0,0,1,5.78,2.11,7.47,7.47,0,0,1,2.28,5.49v18.53h-3.12V178.24a6.15,6.15,0,0,0-1.56-4.1,5.82,5.82,0,0,0-4.36-1.68,9.57,9.57,0,0,0-4.74,1.23,9.35,9.35,0,0,0-3.54,3.44,9.77,9.77,0,0,0-1.34,5.14v13.65h-3.05V170.51Z"/><path class="cls-2" d="M233.57,193.45a13.17,13.17,0,0,1-4,2.21,13.74,13.74,0,0,1-4.61.78,13.92,13.92,0,0,1-7-1.72,12.79,12.79,0,0,1-4.81-4.71,13.25,13.25,0,0,1-1.75-6.83,12.83,12.83,0,0,1,1.82-6.83,13.32,13.32,0,0,1,4.84-4.71,13.16,13.16,0,0,1,6.6-1.72,15.18,15.18,0,0,1,4.94.78,12.22,12.22,0,0,1,4,2.21L232,175a11.91,11.91,0,0,0-3.19-1.82,10.47,10.47,0,0,0-3.9-.71,10,10,0,0,0-5.23,1.42,11,11,0,0,0-3.77,14.66,10.34,10.34,0,0,0,3.84,3.87,11,11,0,0,0,9.06.81,11.29,11.29,0,0,0,3.06-1.66Zm-16.38,13.33a5.8,5.8,0,0,0,1.91,1.2,7.65,7.65,0,0,0,2.83.49,7.07,7.07,0,0,0,3.8-.95,2.94,2.94,0,0,0,1.53-2.63,3.46,3.46,0,0,0-1.17-2.6,5.34,5.34,0,0,0-3.77-1.11,11.36,11.36,0,0,0-2.4.3,13.07,13.07,0,0,0-2.15.61l-1-1.62,4.55-5.07,2.34.45-4.36,5.33-1.1-.71a6.63,6.63,0,0,1,2.08-.75,12.7,12.7,0,0,1,2.6-.29,8.32,8.32,0,0,1,5.2,1.33A5.28,5.28,0,0,1,229,208a6,6,0,0,1-2.79,1.81,12,12,0,0,1-3.9.59,10.16,10.16,0,0,1-3.61-.59,8.1,8.1,0,0,1-2.57-1.42Z"/><path class="cls-2" d="M252.61,196.44a13.17,13.17,0,0,1-6.59-1.66,12.11,12.11,0,0,1-4.69-4.65,15.13,15.13,0,0,1,.1-14.2,12.06,12.06,0,0,1,4.94-4.61,15.39,15.39,0,0,1,7.09-1.6,12.11,12.11,0,0,1,10.72,7.09l-.45.91.39-7.21h2.73v25.41h-3.06v-7.87l.65,1.17a7.75,7.75,0,0,1-1.56,2.57,13.26,13.26,0,0,1-2.7,2.34,13.66,13.66,0,0,1-3.5,1.69A13.28,13.28,0,0,1,252.61,196.44Zm.65-2.6a11,11,0,0,0,5.17-1.2,9.87,9.87,0,0,0,5.36-8.29v-3.64a10.17,10.17,0,0,0-2.05-4.29,11.11,11.11,0,0,0-3.73-3,11.09,11.09,0,0,0-10.08.23,10.08,10.08,0,0,0-3.83,3.73,10.82,10.82,0,0,0-1.43,5.66,10.49,10.49,0,0,0,1.43,5.43,11,11,0,0,0,3.87,3.9A10.11,10.11,0,0,0,253.26,193.84Z"/><path class="cls-2" d="M288.82,196.44a12.54,12.54,0,0,1-11.15-6.5,14.93,14.93,0,0,1,0-14,12,12,0,0,1,4.78-4.62,13.85,13.85,0,0,1,6.66-1.63,13.63,13.63,0,0,1,6.92,1.89,11.52,11.52,0,0,1,4.78,4.94l-.52,1.43V146.52h3.06v49.4h-3.12v-7.8l.65,1.43a12.58,12.58,0,0,1-4.88,5A13.92,13.92,0,0,1,288.82,196.44Zm.78-2.66a10.91,10.91,0,0,0,5.26-1.27,10.35,10.35,0,0,0,3.77-3.45,10.13,10.13,0,0,0,1.63-4.9v-3.25a9.88,9.88,0,0,0-2-4.42,11.48,11.48,0,0,0-3.77-3.09,10.46,10.46,0,0,0-4.87-1.14,10.6,10.6,0,0,0-5.33,1.37,10.26,10.26,0,0,0-3.84,3.76A10.8,10.8,0,0,0,279,183a10.53,10.53,0,0,0,1.43,5.42,10.8,10.8,0,0,0,3.87,3.9A10.06,10.06,0,0,0,289.6,193.78Z"/><path class="cls-2" d="M325.48,196.44a13.21,13.21,0,0,1-6.6-1.66,12.15,12.15,0,0,1-4.68-4.65,15.13,15.13,0,0,1,.1-14.2,12.06,12.06,0,0,1,4.94-4.61,15.38,15.38,0,0,1,7.08-1.6,12.14,12.14,0,0,1,10.73,7.09l-.46.91.39-7.21h2.73v25.41h-3v-7.87l.65,1.17a8.09,8.09,0,0,1-1.56,2.57,14.11,14.11,0,0,1-6.21,4A13.22,13.22,0,0,1,325.48,196.44Zm.65-2.6a11,11,0,0,0,5.16-1.2,9.9,9.9,0,0,0,3.74-3.35,10,10,0,0,0,1.63-4.94v-3.64a10.17,10.17,0,0,0-2.05-4.29,11.25,11.25,0,0,0-3.74-3,11.07,11.07,0,0,0-10.07.23,10,10,0,0,0-3.84,3.73,10.92,10.92,0,0,0-1.43,5.66,10.59,10.59,0,0,0,1.43,5.43,11,11,0,0,0,3.87,3.9A10.14,10.14,0,0,0,326.13,193.84Z"/><path class="cls-2" d="M357.26,196.44a14.52,14.52,0,0,1-4.62-.81,8.44,8.44,0,0,1-3.9-2.63l1.43-2a9.88,9.88,0,0,0,3.09,2.18,9.1,9.1,0,0,0,3.8.81,9.36,9.36,0,0,0,2.83-.42,4.47,4.47,0,0,0,2.18-1.46,4.35,4.35,0,0,0,.84-2.8,3.69,3.69,0,0,0-1-2.79,7.71,7.71,0,0,0-2.54-1.6c-1-.41-2.09-.79-3.22-1.14a12.88,12.88,0,0,1-4.58-2.46,5.57,5.57,0,0,1-1.79-4.42,6.57,6.57,0,0,1,1-3.64,6.82,6.82,0,0,1,2.76-2.44,8.74,8.74,0,0,1,4-.88,12.93,12.93,0,0,1,4,.65,9.33,9.33,0,0,1,3.6,2.21l-1.36,2.15a5.18,5.18,0,0,0-2.76-2,13.09,13.09,0,0,0-3-.58,6.57,6.57,0,0,0-2.31.45,5.19,5.19,0,0,0-2,1.34,3.25,3.25,0,0,0-.81,2.31,3.5,3.5,0,0,0,.84,2.43,6.28,6.28,0,0,0,2.18,1.53c.89.39,1.81.76,2.76,1.1a26.23,26.23,0,0,1,3.55,1.4,8.11,8.11,0,0,1,2.73,2.15,5.51,5.51,0,0,1,1.07,3.54,8.23,8.23,0,0,1-1,4,6.78,6.78,0,0,1-2.89,2.79A10.37,10.37,0,0,1,357.26,196.44Z"/><path class="cls-2" d="M124.11,261.44a12.54,12.54,0,0,1-11.15-6.5,14.93,14.93,0,0,1,0-14,12.06,12.06,0,0,1,4.78-4.62,13.91,13.91,0,0,1,6.66-1.63,13.69,13.69,0,0,1,6.93,1.89,11.5,11.5,0,0,1,4.77,4.94l-.52,1.43V211.52h3.06v49.4h-3.12v-7.8l.65,1.43a12.58,12.58,0,0,1-4.88,5A13.89,13.89,0,0,1,124.11,261.44Zm.78-2.66a10.91,10.91,0,0,0,5.26-1.27,10.35,10.35,0,0,0,3.77-3.45,10,10,0,0,0,1.63-4.9v-3.25a9.88,9.88,0,0,0-2-4.42,11.38,11.38,0,0,0-3.77-3.09,10.46,10.46,0,0,0-4.87-1.14,10.6,10.6,0,0,0-5.33,1.37,10.34,10.34,0,0,0-3.84,3.76,10.8,10.8,0,0,0-1.43,5.6,10.53,10.53,0,0,0,1.43,5.42,11,11,0,0,0,3.87,3.9A10.08,10.08,0,0,0,124.89,258.78Z"/><path class="cls-2" d="M161.29,261.44a13.81,13.81,0,0,1-7-1.76,12.66,12.66,0,0,1-4.78-4.77,13.47,13.47,0,0,1-1.72-6.79,12.92,12.92,0,0,1,1.82-6.77,13.72,13.72,0,0,1,4.91-4.87,13.24,13.24,0,0,1,6.85-1.82,11.26,11.26,0,0,1,7.64,2.67,14.87,14.87,0,0,1,4.45,6.95l-22.23,8.58-.91-2.21,20.35-7.93-.65.91a12,12,0,0,0-3.35-4.49,8.29,8.29,0,0,0-5.49-1.88,9.94,9.94,0,0,0-5.27,1.43,10.63,10.63,0,0,0-5.13,9.3,11,11,0,0,0,1.33,5.32,10.41,10.41,0,0,0,3.74,4,10.2,10.2,0,0,0,5.52,1.5,10.71,10.71,0,0,0,4-.78,13.25,13.25,0,0,0,3.41-2l1.56,2.21a16.17,16.17,0,0,1-4.19,2.34A13.35,13.35,0,0,1,161.29,261.44Z"/><path class="cls-2" d="M203.41,260.92V213.73h.06L226.22,246l-1.36-.2,22.68-32.11h.07v47.19h-3.12V221.08l.26,1.55-19.24,27.11h-.13L206,222.63l.52-1.42v39.71Z"/><path class="cls-2" d="M265.55,235.57l-.13,2.27.19-.58,22.82-22.49h4.09l-19.11,18.91,21.26,27.24h-4L271.07,235.7,265.48,241l.07,19.89H262.3V214.77h3.25Z"/><path class="cls-2" d="M301.17,214.77h30.22v3.06H317.81v43.09h-3.19V217.83H301.17Z"/><path class="cls-2" d="M150.4,326.44a12.54,12.54,0,0,1-11.15-6.5,13.87,13.87,0,0,1-1.72-6.89,13.72,13.72,0,0,1,1.76-7.08,12,12,0,0,1,4.77-4.62,13.92,13.92,0,0,1,6.67-1.63,13.68,13.68,0,0,1,6.92,1.89,11.52,11.52,0,0,1,4.78,4.94l-.52,1.43V276.52H165v49.4h-3.12v-7.8l.65,1.43a12.56,12.56,0,0,1-4.87,5A13.93,13.93,0,0,1,150.4,326.44Zm.78-2.66a11,11,0,0,0,5.27-1.27,10.43,10.43,0,0,0,3.77-3.45,10.12,10.12,0,0,0,1.62-4.9v-3.25a9.75,9.75,0,0,0-2-4.42,11.48,11.48,0,0,0-3.77-3.09,11,11,0,0,0-10.21.23,10.31,10.31,0,0,0-3.83,3.76,10.7,10.7,0,0,0-1.43,5.6,10.43,10.43,0,0,0,1.43,5.42,10.8,10.8,0,0,0,3.87,3.9A10,10,0,0,0,151.18,323.78Z"/><path class="cls-2" d="M175.88,291.14a1.93,1.93,0,0,1,.72-1.52,2.32,2.32,0,0,1,1.56-.62,2.22,2.22,0,0,1,1.56.62,2,2,0,0,1,.65,1.52,2.11,2.11,0,0,1-.65,1.6,2.21,2.21,0,0,1-1.56.61,2.25,2.25,0,0,1-1.56-.64A2.06,2.06,0,0,1,175.88,291.14Zm.65,9.37h3.06v25.41h-3.06Z"/><path class="cls-2" d="M202.47,338.34a17.12,17.12,0,0,1-4.1-.49,13.49,13.49,0,0,1-3.83-1.66,24.94,24.94,0,0,1-3.9-3.06l1.82-2.08a16.63,16.63,0,0,0,5.2,3.61,12.72,12.72,0,0,0,4.68.94,13.34,13.34,0,0,0,6.3-1.26A7.71,7.71,0,0,0,212,331a11.33,11.33,0,0,0,1.11-4.71l.06-8.26.72.78a11.38,11.38,0,0,1-4.65,5.53,13.82,13.82,0,0,1-7.57,2.14,12.41,12.41,0,0,1-6.54-1.79,13.33,13.33,0,0,1-4.71-4.81,13.23,13.23,0,0,1,5-18.39,14,14,0,0,1,6.89-1.73,13.06,13.06,0,0,1,6.66,1.83,11,11,0,0,1,4.58,4.8l-.39,1.44.33-7.28h2.73v25.8a12.86,12.86,0,0,1-1.4,5.88,10.53,10.53,0,0,1-4.42,4.45A16.24,16.24,0,0,1,202.47,338.34Zm-10.73-25.29a10.59,10.59,0,0,0,1.43,5.43,11,11,0,0,0,3.87,3.9,10.37,10.37,0,0,0,5.43,1.46,10.7,10.7,0,0,0,5.2-1.27,10.93,10.93,0,0,0,3.83-3.41,9.2,9.2,0,0,0,1.69-4.61v-3.77a10.16,10.16,0,0,0-2.05-4.36,11.07,11.07,0,0,0-3.77-3,11.49,11.49,0,0,0-10.33.26,10.23,10.23,0,0,0-3.87,3.77A10.76,10.76,0,0,0,191.74,313.05Z"/><path class="cls-2" d="M227.17,291.14a1.92,1.92,0,0,1,.71-1.52,2.36,2.36,0,0,1,1.56-.62,2.18,2.18,0,0,1,1.56.62,2,2,0,0,1,.65,1.52,2.11,2.11,0,0,1-.65,1.6,2.17,2.17,0,0,1-1.56.61,2.29,2.29,0,0,1-1.56-.64A2,2,0,0,1,227.17,291.14Zm.65,9.37h3.05v25.41h-3.05Z"/><path class="cls-2" d="M245,289.33h3.12v11.5H256v2.47H248.1v22.62H245V303.3h-5.4v-2.47H245Z"/><path class="cls-2" d="M274.1,326.44a13.21,13.21,0,0,1-6.6-1.66,12.09,12.09,0,0,1-4.68-4.65,13.65,13.65,0,0,1-1.72-6.95,13.83,13.83,0,0,1,1.81-7.25,12.12,12.12,0,0,1,4.94-4.61,15.42,15.42,0,0,1,7.09-1.6,12.11,12.11,0,0,1,10.72,7.09l-.45.91.39-7.21h2.73v25.41h-3.06v-7.87l.65,1.17a7.75,7.75,0,0,1-1.56,2.57,13.2,13.2,0,0,1-2.69,2.34,13.89,13.89,0,0,1-3.51,1.69A13.26,13.26,0,0,1,274.1,326.44Zm.64-2.6a11,11,0,0,0,5.17-1.2,9.9,9.9,0,0,0,3.74-3.35,10,10,0,0,0,1.62-4.94v-3.64a10.16,10.16,0,0,0-2-4.29,11.25,11.25,0,0,0-3.74-3,10.56,10.56,0,0,0-4.81-1.1,10.69,10.69,0,0,0-5.27,1.33,10.08,10.08,0,0,0-3.83,3.73,10.92,10.92,0,0,0-1.43,5.66,10.59,10.59,0,0,0,1.43,5.43,11,11,0,0,0,3.87,3.9A10.13,10.13,0,0,0,274.74,323.84Z"/><path class="cls-2" d="M299.9,276.52H303v49.4H299.9Z"/><path class="cls-3" d="M419.55,38v.84c-.25,0-.43.18-.53.53s.05.63.31.68a.63.63,0,0,1,.22-.76V52.56h-3.18v-.23c0,.11,0,.16.08.16-.05-.31-.1-.46-.15-.46v.08a1.1,1.1,0,0,0-.23-.38.94.94,0,0,0,.53-.46,1.76,1.76,0,0,1-1.36.08c.15,0-.11-.1-.76-.46a1.31,1.31,0,0,0,.6-.37c.2-.26.18-.43-.07-.53-.05.35-.33.58-.84.68s-.93,0-1.13-.31c.25,0,.4-.12.45-.22s0-.08-.07-.08a.6.6,0,0,0-.69.15,3.23,3.23,0,0,1,.84-.68,4,4,0,0,0,.83-.76.8.8,0,0,1-.76-.45c-.05-.15-.17-.51-.37-1.06.35.25.5.28.45.07s0-.53.08-.53a4.61,4.61,0,0,1,.75.38c.26.15.48.08.69-.23a5.43,5.43,0,0,1-1.82-.75c-.51-.36-.76-.41-.76-.15.3.1.48.2.53.3a2.9,2.9,0,0,1-.15,1.14,1,1,0,0,0-.53,0l-.15-.16-.16-.15c.11.1.21.2.31.31s-.15.07-.31.22a.72.72,0,0,1-.37.15.41.41,0,0,0-.16-.3.69.69,0,0,1,0-.45l.16.15H412c.1.05.15,0,.15-.31-.35-.2-.58-.17-.68.08s-.21.53-.31.53a1.87,1.87,0,0,0-.15-.68c.31-.05.46-.25.46-.61a1.27,1.27,0,0,1,.38-1.06c-.21.1-.43,0-.69-.3s-.38-.25-.53,0c.41,0,.51.13.31.38-.05.05-.18.15-.38.3s-.18.23-.23.23a.24.24,0,0,1-.08-.38c.11-.15.08-.25-.07-.3s-.05.1-.15.15-.08,0-.08-.15.13-.26.38-.46a1,1,0,0,0,.15-.76.69.69,0,0,0-.68.08c-.15.1-.25.08-.3-.08q.6-.22.6-.3t-.3-.45a26.18,26.18,0,0,1,1.29-2.58,6.2,6.2,0,0,0,.83-3c.2.3.51.17.91-.38s.48-.86.38-.91-.08.07-.23.07a.86.86,0,0,1-.38-.07c-.4-.2-.43-.38-.07-.53a.61.61,0,0,1-.76-.31l-.23-.22s-.12.05-.22.15a18.1,18.1,0,0,1,1.06,2,2.6,2.6,0,0,0-.61-.15,1.15,1.15,0,0,0-.61.3c.16-.45.05-.71-.3-.76s-.53-.17-.53-.22c.76-.11,1-.33.76-.69-.36.36-.63.33-.84-.07a4.62,4.62,0,0,0-.53-.91l-.07.07c-.05.06-.08.06-.08,0h-.07v-.15c.2.05.3-.17.3-.68s0-.73.23-.68,0,.3-.08.76c-.05.3,0,.45.23.45q.07-.45.15-.45t.3.3a.59.59,0,0,0-.6.45.74.74,0,0,0,.68-.37.76.76,0,0,0,.23.15c-.11-.26,0-.46.3-.61s.2-.28,0-.38a.72.72,0,0,1-.53.46c-.2-.41-.3-.58-.3-.53q-.08-.15.15-.69a1.37,1.37,0,0,0-.68.23c.15-.25.07-.68-.23-1.29a.74.74,0,0,1,.38-1.13,1.21,1.21,0,0,0,.38,1.29c-.11-.56-.08-.81.07-.76,0,.2-.15.28-.3.23a1.68,1.68,0,0,1,.15-.91c.15-.31.15-.48,0-.53a.48.48,0,0,1-.38.3,1,1,0,0,0-.38.15.66.66,0,0,0-.07-.3c-.1-.1-.15-.18-.15-.23a.91.91,0,0,0,.45-.08v.23h.45a1,1,0,0,0-.07-.53c-.05-.15-.18-.2-.38-.15v.08l-.45-.31a2.63,2.63,0,0,1,1.06.15c.2.26.22.28.07.08.25,0,.41,0,.46-.23-.41-.15-.53-.35-.38-.6l.07.07c.15-.05.36.13.61.53s.56.71.76.76l-.23.23h0a3.83,3.83,0,0,1-.68.45q-.15.07-.15.15c-.21.16-.28.23-.23.23a.55.55,0,0,0,.68-.23c.05,0,.08,0,.08-.07a.45.45,0,0,1,.45-.08c0,.1,0,.15.08.15s.15,0,.15-.15c-.15,0-.28-.15-.38-.45h0a3.22,3.22,0,0,0,.76-.08h0a1.74,1.74,0,0,0,.45-.3,1.59,1.59,0,0,1-.45-.76.74.74,0,0,0-.68-.53c-.11,0-.21.15-.31.46v.07a.23.23,0,0,1-.22.15.5.5,0,0,0,0-.53c.35-.3.4-.38.15-.23.05,0,0,.06-.15.16a.76.76,0,0,0-.31-.38,1.62,1.62,0,0,0,.53-.46.91.91,0,0,1,1.06.08c0,.1-.07.18-.22.23a.47.47,0,0,0-.31.22,1.48,1.48,0,0,1,.61.38c.2.15.33.13.38-.07-.15,0-.23-.13-.23-.38a.55.55,0,0,0-.23-.38,1.2,1.2,0,0,1,.23-.3,1.85,1.85,0,0,0,.3-.38,3.16,3.16,0,0,1-1.74-.53,13,13,0,0,0-1.67-1.59,7.59,7.59,0,0,1-1.28,1.28,9.24,9.24,0,0,0-1.29,1.37.81.81,0,0,1,.45.15c.15,0,.23,0,.23-.08-.2-.05-.2-.22,0-.53h.3q.08-.07-.15-.15a.91.91,0,0,1,.46-.23,1.14,1.14,0,0,0,.6.76c.46-.71.48-1,.08-1,0-.41.43-.21,1.13.6-.3-.1-.48-.12-.53-.07s-.05.17,0,.38h-.22c-.05-.1-.1-.16-.15-.16a2.26,2.26,0,0,1-.69.69c-.35-.16-.53-.1-.53.15h.23a3.77,3.77,0,0,1-1.14,0,1.61,1.61,0,0,0-1.36.53.82.82,0,0,1,.68.15.74.74,0,0,0,.53.23c-.15-.31-.07-.48.23-.53a.74.74,0,0,1,.68.15.3.3,0,0,0-.15.3,6.92,6.92,0,0,0-1.51.68c-.06-.1,0-.27.15-.53.1-.1,0-.15-.38-.15-.05-.25-.23.05-.53.91.2,0,.22.1.07.3s0,.23.38.23c.15-.05.2-.13.15-.23a.72.72,0,0,1-.07-.53c.15.21.3.28.45.23a6.75,6.75,0,0,1,.68-.15c-.15.45-.1.73.16.83a2.32,2.32,0,0,0,.45.15.92.92,0,0,1,.38.16c-.15.15-.18.22-.08.22a.5.5,0,0,0,.38,0,.71.71,0,0,1,0,.46.46.46,0,0,0-.68-.15c-.2-.16-.2-.13,0,.07a.51.51,0,0,0-.23.23c.41,0,.48.1.23.3s-.33.38-.08.38c0-.15.23-.28.53-.38.05.51.08.83.08,1s-.28.35-.68.15q-.07,1.44-.3,1.59c.45.1.68.2.68.3a2.8,2.8,0,0,0-.46,2.35,1.18,1.18,0,0,1-.53.68.43.43,0,0,1-.68-.07.94.94,0,0,1-.3.68c.5,0,.7.13.6.38s-.07.58.08.68c-.3-.1-.53.05-.68.45s-.13.64.07.69c0-.46.1-.58.31-.38a.87.87,0,0,1,.38.68c-.21.15-.26.3-.16.45-.05,0,.08.15.38.46a.53.53,0,0,1-.22.07l-.16.08a.72.72,0,0,1-.37-.15.8.8,0,0,1,.22.68c-.1.25-.12.4-.07.45.05-.15.22-.27.53-.37a1.18,1.18,0,0,0-.15.9,5,5,0,0,1,0,1.22q.45.22.6.15c-.05,0,.15-.1.61-.3a.81.81,0,0,1-.31.3.61.61,0,0,0-.22.38,1.36,1.36,0,0,0,.38-.08l.22-.07c.15,0,.26.15.31.45l-.23.45a1.24,1.24,0,0,0-.15.46.9.9,0,0,0,.45,1,5.05,5.05,0,0,1-2.35-.45c-.1.45-.48.76-1.13.91V47.18c.45,0,.68-.07.68-.23a1.58,1.58,0,0,1-.68-.45v-3c.05,0,.05-.08,0-.08V38H390.46V26.73l.08.07c.2.1.27.15.22.15a2.33,2.33,0,0,0-.3-.22V25.21q.23,0,0-.15V23.47h7.65c-.05.05.05.07.31.07s.27,0,.22-.07h2.43c-.05.1-.05.13,0,.07s0,0,.15-.07h1.21a1.08,1.08,0,0,0-.07.68c.05.15.22.3.53.46-1.06.5-1.57.7-1.52.6s.2.1.15.15-.18.13-.38.08c-.05.76.15,1.24.61,1.44a1.28,1.28,0,0,1,.3-1.37c0,.11.08.21.23.31s.23.12.23.22a.67.67,0,0,0-.76.38c.4,0,1,0,1.89-.07.1.5.1.73,0,.68l.31-.91a1.42,1.42,0,0,0-1,.15.86.86,0,0,0-.3-.6c-.25-.21-.36-.41-.3-.61a1,1,0,0,0,1,.3l.91-.15a2.25,2.25,0,0,1,.08-1,.68.68,0,0,0,.45,0c.1,0,0-.05-.23-.16a.22.22,0,0,0-.15.08,3,3,0,0,1,.3-.68H405v-.15a.66.66,0,0,1,.3.07c.05-.2.23-.7.53-1.51a1.09,1.09,0,0,0-.08-1.06.93.93,0,0,1,1,.15c.2.15.28.23.23.23s.15,0,.15-.08a.74.74,0,0,1-.08-.53c0-.05.1-.05.31,0,.55.1.9.08,1.06-.08-.61-.3-1.75-.15-3.41.46v-.61c.05-.1.07-.12.07-.07H405V16.57a.47.47,0,0,0,0-.37v-.91q.15.23.15.15l-.15-.23V14.07h.07a.33.33,0,0,0-.07-.37v-.76c.3.05.43,0,.38-.23s-.13-.18-.08-.38-.1-.38-.3-.38V10.67c.65-.11.93-.69.83-1.75H406a.25.25,0,0,0,.15.23c.1,0,.18,0,.23-.23h.53a1.27,1.27,0,0,1-.07.31c.35-.11.5,0,.45.37s0,.61.23.61a1.25,1.25,0,0,1,.3-.91c-.2,0-.43-.07-.68-.38h7.5a.56.56,0,0,1,.07.23.24.24,0,0,1-.37.08.22.22,0,0,0-.31.15q.76.3,1,0c-.2-.1-.28-.18-.23-.23a1.76,1.76,0,0,1,.38-.23h4.39V14l-.07.15-.08.15.15-.3v9.47h2.28q.38.3.45,0h7.8l.31.15c0,.05-.08.41-.23,1.06-.05.3,0,.33.23.08-.2,0-.36.53-.46,1.44s.05,1.26.31.91c.05.5,0,.83-.16,1a.89.89,0,0,1-.37.15c.35.2.42.36.22.46-.35.2-.53.38-.53.53l.08.07a.34.34,0,0,0-.3.46.75.75,0,0,0,.68-.38c.3-.05.4-.08.3-.08.1,0,.15.08.15.23a1,1,0,0,1-.23.3l-.15.15.53.46a.29.29,0,0,0-.22.07c-.11.11-.18.16-.23.16a1.23,1.23,0,0,0-.46-.53c-.1.55-.07.91.08,1.06s.3.05.3-.31c.36,1.06-.07,1.75-1.28,2v.3a1,1,0,0,0-.08.31.34.34,0,0,0,.23.37.24.24,0,0,1,.38-.07.48.48,0,0,1,.3.38c.25.5.15.81-.3.91q-1.06-.07-1.14.6a2,2,0,0,1-.68,1.37c.65-.16,1,0,1.06.37v.31c.05.05.15,0,.3-.08V38ZM391.37,25.89a.37.37,0,0,1,.3-.38c.26-.05.41-.12.46-.22a.71.71,0,0,1-.38-.31c-.1-.15-.2-.22-.3-.22-.26,0-.36.4-.31,1.06a.61.61,0,0,0,.15.45c0,.1.16.08.31-.07C391.39,26.15,391.32,26,391.37,25.89Zm1.36.38a3.39,3.39,0,0,1-.45-.3l-.46-.23v.46c0,.2.08.27.23.22,0-.1.08-.15.23-.15a.21.21,0,0,1,.23.23,1,1,0,0,0-.76.15c-.3.15-.3.3,0,.46.05-.16.12-.18.23-.08a1.15,1.15,0,0,0,.45.15A1.1,1.1,0,0,1,392.73,26.27Zm-.3,1.21c-.2.36-.23.56-.08.61q0-.3.69-.45c.4-.1.58-.08.53.07s0,.23-.23.23a.32.32,0,0,1-.23.07h-.22a1.14,1.14,0,0,0-.23-.15c-.31.21-.36.33-.15.38s.32,0,.38-.15a.59.59,0,0,1,.22.08q-.3,0,1.44-.84a3.56,3.56,0,0,0-.68.08h-.38c-.2-.05-.38-.28-.53-.68C393,26.83,392.78,27.08,392.43,27.48Zm.38,1.37c-.1-.31-.18-.46-.23-.46C392.63,28.7,392.71,28.85,392.81,28.85Zm.45.3a2,2,0,0,0-.22-.53C393.14,29,393.21,29.15,393.26,29.15Zm.69,3.11.07-.46h-.38c.05-.2.2-.2.46,0s.27.1.22-.15c-.2,0,0-.33.53-.83.21-.25.33-.41.38-.46s0-.2-.15-.15c-.05.25-.35.53-.91.84s-.65.55-.6.75a.32.32,0,0,0-.08.23v.23Zm.3.75q-.22-.37-.3,0c.15,0,.2.08.15.23a.22.22,0,0,0-.15.08.13.13,0,0,0,.15.15c0-.2.15-.28.3-.23-.1.36-.08.51.08.46s.37-.18.37-.38C394.65,33.42,394.45,33.32,394.25,33Zm.23-1.13c-.11.25,0,.43.37.53s.59.2.54,0c.05,0,0,0-.08-.08s.08-.15.23-.15.22.08.22.23c-.05,0-.1,0-.15.07s.05.11.15.16c.36-.36.28-.69-.22-1l-.46.53A.54.54,0,0,0,394.48,31.88Zm1.81,1.51s0-.1-.22-.3a.73.73,0,0,0-1-.23c-.1.41.13.61.68.61a.58.58,0,0,1,.38.08q.08.08-.15.45c.3.1.46.2.46.3s-.08,0-.08.08,0,.1.08.15a1.51,1.51,0,0,0,.22-.91c0-.4-.07-.5-.22-.3S396.34,33.44,396.29,33.39Zm-1,3.94c.1.31.18.46.23.46C395.44,37.48,395.36,37.33,395.31,37.33Zm.61-5.6v-.15a.51.51,0,0,1-.08-.23c.3,0,.28-.05-.08-.15-.2.05-.27.1-.22.15l.15.07C395.74,31.63,395.81,31.73,395.92,31.73ZM396,24.3c-.1-.3-.18-.45-.23-.45C395.86,24.15,395.94,24.3,396,24.3Zm2.58,9.55a2.15,2.15,0,0,0-.23-.3c-.1,0-.18.07-.23.22.25,0,.25.2,0,.61s-.28.55-.07.6c0-.2.15-.27.3-.22,0,.05,0,.1.08.15s.1,0,.15-.15c-.21,0-.28-.13-.23-.23C398.64,34.53,398.72,34.3,398.57,33.85Zm1.74-1.44a.8.8,0,0,0,.08-.61c-1.12-.1-1.6,0-1.44.38q.23,0,.15-.15c-.05-.1-.18-.13-.38-.08-.3.21-.28.46.07.76a1.69,1.69,0,0,0,1.29.23A1,1,0,0,1,400.31,32.41Zm.38,1.06c0-.35-.13-.51-.38-.46a2.56,2.56,0,0,1-.76,1.37.66.66,0,0,0-.68-.53c-.1.3,0,.43.23.38s.38.07.38.38a.56.56,0,0,0-.69.37c.26.16.33.18.23.08a2.2,2.2,0,0,1,1.06-.61A1.51,1.51,0,0,0,401,34C400.84,34,400.74,33.77,400.69,33.47Zm-1.14-2.88a.13.13,0,0,0,.15-.15q.07-.07-.15-.15-.37.15-.15.6c.1.31.23.28.38-.07C399.58,30.77,399.5,30.69,399.55,30.59Zm-.07,4.47a1,1,0,0,1-.08.45,3.38,3.38,0,0,1,.53.08v-.45A1,1,0,0,0,399.48,35.06Zm.75-4.24c-.15,0-.22.12-.22.38s.07.33.22.38c0-.16.1-.23.31-.23a.93.93,0,0,1,.38.23c.5-1.27.55-1.9.15-1.9a4,4,0,0,1-.31.83l-.3.61a.51.51,0,0,0-.15-.61c-.15-.2-.25-.17-.3.08C400.21,30.64,400.28,30.72,400.23,30.82Zm.61,2c.3-.36.23-.61-.23-.76a1.47,1.47,0,0,1-.22.76,1.29,1.29,0,0,0,.53.38c.35.15.4.1.15-.16C400.87,33,400.79,32.94,400.84,32.79Zm-.15-7.35c-.1-.35-.18-.53-.23-.53C400.51,25.21,400.59,25.39,400.69,25.44Zm.3,1.89c-.05-.3-.12-.45-.23-.45C400.87,27.18,400.94,27.33,401,27.33Zm.46-3c-.05-.35-.13-.53-.23-.53C401.32,24.13,401.4,24.3,401.45,24.3Zm-.08,7.35c0-.45-.05-.71-.15-.76C401.22,31.35,401.27,31.6,401.37,31.65Zm.23-2.35c-.1-.35-.18-.53-.23-.53C401.42,29.13,401.5,29.3,401.6,29.3Zm1.51-.07c-.15-.05-.22-.1-.22-.15l.37-.38c-.45.3-.78.35-1,.15l-.23-.23c-.15,0-.25.18-.3.53s-.08.56-.23.61a1.14,1.14,0,0,1,.68.3c0-.61.18-.91.53-.91a6.75,6.75,0,0,0-.15.68.81.81,0,0,0,.31.53c0-.3.2-.43.6-.38s.76,0,.91-.22A3.48,3.48,0,0,0,403.11,29.23Zm.38,3.25c.35.11.51.06.46-.15-.26,0-.38,0-.38-.15a1,1,0,0,1,.23-.38c.35-.45.35-.75,0-.91,0,.56-.13.76-.38.61a2.81,2.81,0,0,0-.84-.45v.45c0,.2.08.28.23.23.1-.31.18-.46.23-.46.3.2.33.51.07.91l-.22.3a.14.14,0,0,0,.07.23C402.91,32.51,403.09,32.43,403.49,32.48Zm-.15,4.17c.1.3.18.46.23.46C403.47,36.8,403.39,36.65,403.34,36.65Zm.83-8.11c.2-.25.16-.42-.15-.53a.43.43,0,0,1-.22.38.82.82,0,0,0-.31.31A.47.47,0,0,0,404.17,28.54Zm1.37-19.09c-.1,0-.15.08-.15.38H405v.23a.56.56,0,0,0,.6-.23C405.66,9.63,405.64,9.5,405.54,9.45Zm-.31,12.05H405v.83a.22.22,0,0,0,.15.08.84.84,0,0,1,.15-.46.81.81,0,0,0,.15-.45ZM405,52.56V50.44a.72.72,0,0,1,1-.38.22.22,0,0,0,.08.15q.07,0,.15-.15-.3-.08,0-.45a1.71,1.71,0,0,0-1.21.15v-.91a2.67,2.67,0,0,1,.83.23,1.18,1.18,0,0,0,.68.07c-.25,0-.3-.23-.15-.53s.3-.38.46-.38c.05.31.17.43.37.38a1.45,1.45,0,0,1,.76-.07c0,.4.15.6.46.6s.63.05.68.15c-.36,0-.53.16-.53.46q1.44.6,1.29.45a1.12,1.12,0,0,1,.53,1.14,1.12,1.12,0,0,1,.91.3c.15-.25.1-.43-.16-.53s-.33-.2-.22-.45a2.35,2.35,0,0,1,1.36.83,1,1,0,0,0-.53,0c-.15,0-.13,0,.08.15s.58.05.68.31a.46.46,0,0,1,0,.6Zm.22-2c0,.1.13.1.23,0a.26.26,0,0,0,.08-.31.22.22,0,1,0-.31.31Zm.16-30.31q-.31.15.15.3l.45-.3c.2-.15.15-.28-.15-.38C405.84,19.88,405.69,20,405.39,20.21Zm1.74-1.67a.5.5,0,0,0-.23-.6,4.84,4.84,0,0,1-.68-.23c-.05.41-.23.56-.53.46-.05-.31-.1-.46-.15-.46a1.56,1.56,0,0,1,0,.68,3.49,3.49,0,0,0-.15.91,1.12,1.12,0,0,0,.75-.15,1.14,1.14,0,0,0,.16.53c.15-.61.12-.88-.08-.83-.35.1-.53.1-.53,0C405.94,18.24,406.42,18.14,407.13,18.54ZM406,27c.05.16.13.23.23.23a1.68,1.68,0,0,0-.23-.45l.08-.08V26.5h-.53V27Zm.61.23q.07-.08-.15-.15,0,.3-.69.15v.3a1.27,1.27,0,0,0-.07.31.35.35,0,0,0,.23.38c-.05-.26,0-.43.07-.53s.15-.13.31-.08a.25.25,0,0,1,.15.23c0,.15-.11.28-.31.38.51.15.76.07.76-.23a.64.64,0,0,0-.45-.68C406.55,27.26,406.6,27.23,406.6,27.18Zm-.08-10.3c.15,0,.23.05.23.15-.2,0-.28.07-.23.23.36.15.51,0,.46-.38s-.15-.58-.46-.53c.05.1,0,.22-.3.38s-.18.25.08.3C406.3,16.93,406.37,16.88,406.52,16.88Zm-.15-.84c-.1-.3-.18-.45-.23-.45C406.19,15.89,406.27,16,406.37,16Zm.3,10.46q.07-.08-.15-.15c-.1-.05-.18,0-.22.15a.29.29,0,0,0,.22.3A.77.77,0,0,1,406.67,26.5Zm.23,7.8c0,.26.08.38.23.38-.05-.25-.1-.38-.15-.38a1.21,1.21,0,0,0,.38-.38.27.27,0,0,0-.23-.37c0,.3-.18.5-.53.6s-.3.05-.15.15S406.6,34.5,406.9,34.3Zm-.23,10.84c-.1-.31-.17-.46-.22-.46C406.55,45,406.62,45.14,406.67,45.14Zm.38-18.26c.05,0,.05,0,0-.08-.05-.3-.17-.43-.38-.38-.15.26-.2.41-.15.46l.38-.23C407,26.8,407,26.88,407.05,26.88ZM406.52,37v.15c.05.26.18.36.38.3s.2-.32.15-.37l-.38.15C406.62,37.11,406.57,37,406.52,37Zm.53,8.86c.31.26.53.26.68,0a1.31,1.31,0,0,1-.6-.37c-.3-.21-.48-.33-.53-.38Q406.53,45.52,407.05,45.89Zm-.22-29.77a2.24,2.24,0,0,0-.23-.53C406.65,15.94,406.72,16.12,406.83,16.12ZM407,46.35c-.26-.05-.28,0-.08.23l.46.15q.15.15.3-.15Zm.15-13.49c0-.15-.08-.22-.23-.22a1.14,1.14,0,0,1-.07.3c-.06.05,0,.1.07.15A.21.21,0,0,0,407.13,32.86Zm.53-14.09q.15-.37-.3-.45c0,.1-.08.2-.23.3a1.61,1.61,0,0,0-.3.38,2.78,2.78,0,0,1,.6.38c.25.2.46.18.61-.08C407.73,19.2,407.61,19,407.66,18.77Zm-.46,21.14c-.05-.3-.12-.46-.22-.46C407.08,39.76,407.15,39.91,407.2,39.91Zm0-13.34q-.07-.45-.15-.45Q407.13,26.57,407.2,26.57Zm.31,12.66h.22a.32.32,0,0,1,.08-.23c.1-.1.15-.18.15-.23h-.53c-.15,0-.2.21-.15.46Zm-.15,9.54c-.05,0,.05.21.3.46-.15.05-.23.1-.23.15h.15c.31-.05.43-.18.38-.38C407.66,48.8,407.46,48.72,407.36,48.77Zm.3-26.36c-.1-.31-.2-.46-.3-.46C407.46,22.26,407.56,22.41,407.66,22.41Zm-.23,20.83c.05.36.1.53.15.53C407.53,43.42,407.48,43.24,407.43,43.24Zm.46-29.77.3.38c0-.2.07-.28.23-.23,0,.1,0,.15.07.15s.15,0,.15-.15c-.3-.1-.43-.35-.38-.76h-.53a.32.32,0,0,1-.07.23c-.1.1-.15.18-.15.23C407.71,13.32,407.84,13.37,407.89,13.47Zm.45,11.89a4.7,4.7,0,0,1-.61.84c0-.21-.07-.31-.22-.31v.61c0,.2.05.33.15.38a1.66,1.66,0,0,0,.3-.46c.2-.05.23-.1.08-.15.4-.7.7-1,.91-1-.26-.05-.23-.15.07-.31s.31-.32,0-.37C408.87,24.76,408.64,25,408.34,25.36Zm-.68,4.85a1.34,1.34,0,0,0-.15-.53C407.56,30,407.61,30.21,407.66,30.21Zm0-12.58c.3.11.48,0,.53-.45s.12-.68.23-.68C408.87,16.5,408.62,16.88,407.66,17.63Zm.3-1.43c0-.31-.1-.46-.15-.46C407.86,16,407.91,16.2,408,16.2ZM408,34.53l-.23.08s.05.07.15.07c.3,0,.43-.18.38-.38l-.38-.22C407.91,34.13,407.94,34.28,408,34.53Zm.91-5.15c-.46-.05-.56.1-.31.45h-.53c-.15.05-.22.18-.22.38A1,1,0,0,0,409,29.38Zm-.69,9.17c-.1-.31-.17-.46-.22-.46C408.09,38.39,408.16,38.55,408.26,38.55Zm.23-23.34c.1,0,.2,0,.31-.15.05,0-.08-.05-.38-.15s-.26-.05-.31.15C408.06,15,408.19,15.06,408.49,15.21Zm.08,12.2c-.31.05-.46.13-.46.23C408.42,27.54,408.57,27.46,408.57,27.41Zm-.15,12.12c-.05-.3-.13-.45-.23-.45C408.29,39.38,408.37,39.53,408.42,39.53Zm.38-4.39a.65.65,0,0,0,0-.61q.45-.08.45-.15c-.15-.35-.35-.33-.61.07s-.22.69.08.84A.19.19,0,0,1,408.8,35.14Zm0-6.52-.31.15c.51,0,.76.1.76.31a3.84,3.84,0,0,1,1.51-1.22l-.07-.07a.81.81,0,0,1,.3-.15c.15-.05.23-.13.23-.23v-.08c-.25,0-.35,0-.3-.07-.11,0-.16,0-.16-.15a2.13,2.13,0,0,0-.53.68,5.39,5.39,0,0,1-.53.68.46.46,0,0,0-.68,0A.23.23,0,0,1,408.8,28.62ZM409,50.67c-.35,0-.45.22-.3.53,0-.2.15-.28.3-.23a1,1,0,0,0,.38.15,1.33,1.33,0,0,0,.3.08c.26,0,.41-.08.46-.38A2.47,2.47,0,0,0,409,50.67Zm-.22-2.2c.1.3.22.28.37-.08-.15,0-.22-.12-.22-.37s-.05-.33-.15-.38A.78.78,0,0,0,408.8,48.47ZM409,31.8a.29.29,0,0,1-.22.08,2.26,2.26,0,0,0,.07,1.29c.1-.51.28-.81.53-.91a.22.22,0,0,0,.08.15.13.13,0,0,0,.15-.15c-.25-.36-.48-.53-.68-.53C409.05,31.78,409.07,31.8,409,31.8Zm.46,14.85c-.31-.2-.43-.17-.38.08.1,0,.17.1.23.3a.44.44,0,0,0,.37.23C409.86,47,409.78,46.8,409.48,46.65Zm-.23-11.06c-.15,0-.13.1.08.15A.19.19,0,0,1,409.25,35.59Zm.08,9.7c.05.15.12.35.22.6a2,2,0,0,1,.23.61c.3-.25.35-.5.15-.76,0-.05-.07-.15-.23-.3a1.61,1.61,0,0,1-.3-.38q.23,0,.3-.3a2.32,2.32,0,0,1,.23-.38C409.43,44.53,409.22,44.83,409.33,45.29Zm2-31.44a1,1,0,0,1-.31.3.64.64,0,0,0-.23.38.31.31,0,0,1,.38.15,1,1,0,0,1,.23.38c.05-.3.15-.46.3-.46a.91.91,0,0,1,.46.23.93.93,0,0,0,.45.23c.15,0,.26-.13.31-.38.7,0,.55-.25-.46-.76-.05.2-.1.23-.15.08a.43.43,0,0,1,.15-.3,2.1,2.1,0,0,0-1.67-.23,2.56,2.56,0,0,0-1.43.68A10,10,0,0,1,411.3,13.85ZM409.48,28v.16c.2-.05.27-.16.22-.31A.83.83,0,0,1,409.48,28Zm.07,7.73q.3-.08,0-.15Zm1-23.18c-.15.25-.13.43.07.53.05-.2.23-.35.53-.46-.05.36.1.41.46.16.15,0,.23-.13.23-.23s-.08-.15-.23-.15c-.05.2-.13.28-.23.22a.78.78,0,0,0-.45-.75c-.05.2-.21.28-.46.22a.13.13,0,0,0-.15-.15c-.05,0-.08,0-.08.15C410.54,12.16,410.64,12.31,410.54,12.56Zm-.23,23.33a.4.4,0,0,0,.3-.45Q410.31,35.44,410.31,35.89Zm.23,2.2a.79.79,0,0,0,.76.46.62.62,0,0,0,.07-.38v-.31c-.5-.15-.73-.17-.68-.07s.23-.23.23-.53-.08-.28-.23.07A.56.56,0,0,0,410.54,38.09Zm.38-28.26c-.05-.3-.13-.45-.23-.45C410.79,9.68,410.87,9.83,410.92,9.83Zm2.19,16.67c0,.25.16.3.46.15a1,1,0,0,0-.23-.53.68.68,0,0,0-.45-.38,2.78,2.78,0,0,1,.91-1.44,2.36,2.36,0,0,0,.75-.3,1.18,1.18,0,0,1,.46-.15c-.31-.1-.33-.18-.08-.23.41,0,.58-.08.53-.23A.65.65,0,0,1,415,23c.05,0,.07,0,.07-.07a5.68,5.68,0,0,1,1.59-1.82c-.15,0-.22,0-.22-.08a.36.36,0,0,0,.38.08c.15-.05.07-.18-.23-.38,0,0,0,0,0,.08.15-.26.2-.43.15-.53a.23.23,0,0,1,.15.22h.46v-.45c-.16,0-.23,0-.23-.15s.1-.25-.15-.31-.36,0-.15.23h-.23v.38l-.08-.07c-.35.5-.7.73-1.06.68a1.76,1.76,0,0,0,.76-1.06,5,5,0,0,0-.08-.61v-.91h-.3a.56.56,0,0,0-.23-.07c-.25,0-.37-.08-.37-.23a.29.29,0,0,0,.22-.08c.1-.1.18-.15.23-.15a1,1,0,0,0,.45.46c.31.15.48.1.53-.16-.2-.05-.27-.27-.22-.68a.89.89,0,0,0-.68.15.42.42,0,0,0,.07-.53l-.23-.68a.5.5,0,0,1-.53,0,.71.71,0,0,1,.16-.23c-.16-.1-.28-.1-.38,0-.11,0-.18,0-.23.16h.07l-.07.15a1,1,0,0,1-.23-.38c.2,0,.38-.15.53-.46l-.3-.15a.47.47,0,0,0-.23-.38c.05,0,.08,0,.08-.07.3.15.3.12,0-.08v-.07a3.15,3.15,0,0,1-.46-1.29c-.1-.61-.25-1-.45-1.06.15-.15.17-.25.07-.31.26.06.38,0,.38-.15a.64.64,0,0,1-.45-.68c.3.1.55-.15.76-.76a2,2,0,0,0,.07-.45q0-.15-.15,0c0,.2-.08.28-.23.23s-.22-.08-.53-.38c-.2-.15-.33-.1-.38.15v.3a1.55,1.55,0,0,1,0,.68c-.05.71-.22.86-.53.46.05.15.23.58.53,1.29.16.45.05.65-.3.6.15,0,.2.13.15.23s0,.23.15.23c0-.15.1-.13.31.07s.55.41.6.46a.35.35,0,0,0-.38.07c-.1.15-.07.26.08.31-.2.15-.18.35.08.6a.61.61,0,0,0-.23-.07.83.83,0,0,0-.15.22c-.1-.2-.18-.3-.23-.3s-.1,0-.15.15c.2.1.23.33.07.68l-.38.76h.38a.91.91,0,0,0,.23.15l.15.08c.1,0,.23,0,.38-.15-.25.3-.28.48-.07.53q.07.22.45.15a.07.07,0,0,1,.08.07l-.23.16-.23.22c-.2.26-.15.43.15.53v-.15a.22.22,0,0,0,.08-.15,1.08,1.08,0,0,1,.07.46.77.77,0,0,0-.15.3,2.91,2.91,0,0,1-.22.6.5.5,0,0,0,.68.08.91.91,0,0,0,.53-.61h-.08a1.48,1.48,0,0,1,.46.08.56.56,0,0,0,.07.23.69.69,0,0,0,.15.22q-.53-.45-.6-.15a1.65,1.65,0,0,0,.23.76v.08a1.85,1.85,0,0,0-.61-.31c-.3-.05-.48,0-.53.23a4.42,4.42,0,0,0,.68.38,3.63,3.63,0,0,1-2.88-.53c-.3.3-.45.43-.45.38s-.33,0-.53-.15a1.37,1.37,0,0,1-.23.68c.4,0,.53,0,.38.23s-.08.3.07.3c-.2.35.1.53.91.53.05.3.13.45.23.45q-.07-.45-.15-.45a.32.32,0,0,0,.23-.08c-.21-.65-.18-1,.07-1,.81-.15,1.19-.23,1.14-.23a1.12,1.12,0,0,0,.68.76,1.48,1.48,0,0,1,.83-.68c.1.1.16.17.16.22-.46,0-.59.08-.38.23l.3.3a1,1,0,0,1,.3.16,1,1,0,0,0-1,.45q.22.15.15.3l-.15-.07v.3c-.21.15-.31.28-.31.38s.16.18.46.23q0-.08.15-.15a.49.49,0,0,1,.23.22l-.61.38a2.5,2.5,0,0,0-.6.38,2.5,2.5,0,0,0-1.14-.91c-.56-.3-.78-.33-.68-.07.2,0,.35.22.45.53-.25-.21-.38-.18-.38.07s-.12.41-.38.3c.31.26.36.46.16.61s-.28,0-.38-.38a1.71,1.71,0,0,0,.15,1.21,2.55,2.55,0,0,1,.38,1,2.27,2.27,0,0,0,.53-.08.49.49,0,0,1,.45-.07.86.86,0,0,1-.07-.38C413,26,413.06,26.15,413.11,26.5ZM410.76,43a3.2,3.2,0,0,0,1.22-.61A1.09,1.09,0,0,0,410.76,43Zm.61-20.69c-.2-.3-.38-.3-.53,0,.1.05.15.2.15.46s.13.35.53.3A1.15,1.15,0,0,0,411.37,22.33ZM411.14,12c-.05-.3-.12-.45-.22-.45C411,11.8,411.09,12,411.14,12Zm1.22,21.37c0-.15.12-.23.37-.23a.53.53,0,0,0,.38-.23.64.64,0,0,0-.6,0,.51.51,0,0,0-.31.23,1,1,0,0,0-.22-.45c-.1.3-.18.45-.23.45q0-.53-.45-.45a2.27,2.27,0,0,0,.07.53c.05.1,0,.22-.15.38.5.05.68.3.53.75s-.2.68-.15.68a3.31,3.31,0,0,0,.6-1.74A.24.24,0,0,0,412.36,33.32Zm-.53-20.23c-.05.15-.08.2-.08.15s.05.1.15.15.2-.07.15-.23c.2,0,.28-.1.23-.15a.44.44,0,0,0-.3-.07h-.08C411.75,13,411.72,13,411.83,13.09Zm.37,18.33c.05-.05,0-.1-.07-.15s-.23.05-.23.15a.22.22,0,0,0,.15.31A.86.86,0,0,1,412.2,31.42Zm.16-12.5a.31.31,0,0,1,.15.31c.05.35-.08.55-.38.6q2.19-.52,1.89,0a.89.89,0,0,1-.6-.6c-.05-.26.07-.38.38-.38-.11,0-.21-.1-.31-.31a.31.31,0,0,0-.38-.15c.1.56-.1.71-.6.46a2.28,2.28,0,0,0-.46-.15c-.05,0,0,.12.08.37C412.23,19,412.31,18.92,412.36,18.92Zm.15,13.26.3-.3c-.2-.1-.4,0-.61.23s-.15.48.16.53A.62.62,0,0,1,412.51,32.18Zm-.38,9.47c.1.3.18.46.23.46C412.25,41.8,412.18,41.65,412.13,41.65Zm.76-5.15c-.31.1-.46.18-.46.23C412.73,36.68,412.89,36.6,412.89,36.5Zm-.23,2.88c-.2.15-.15.28.15.38a.32.32,0,0,1,.23-.31.48.48,0,0,0,.3-.22A.59.59,0,0,0,412.66,39.38ZM414,33.09c.05.1.23.2.53.3a1.27,1.27,0,0,1,.46.38c0-.15.07-.2.23-.15a.14.14,0,0,0,.22-.07c-.2-.21-.18-.23.08-.08q.68.22.6-.15c-.15,0-.2-.08-.15-.23s0-.23-.07-.23c0,.81-.15.89-.46.23q-.3-.23-.45-.15a.94.94,0,0,1-.53.15c-.1.61-.26.38-.46-.68a2.27,2.27,0,0,1-.53-.08c-.3-.1-.43-.15-.38-.15-.05-.25-.12-.38-.22-.38a.78.78,0,0,0-.16.31c-.1.55,0,.78.46.68a2.55,2.55,0,0,0-.08-.61s.08.13.23.23.38.3.38.45a6.6,6.6,0,0,1-.15.69c.25.1.33.1.23,0C413.9,33.24,414,33.09,414,33.09Zm.38,1.52a1.07,1.07,0,0,1,.38-.53,1,1,0,0,1-.68-.31.64.64,0,0,0-.23.38l.08.15a.56.56,0,0,1,.07.23c-.15.1-.22.2-.22.3a.42.42,0,0,0-.53.08,1.16,1.16,0,0,1-.38.91.23.23,0,0,0-.16.23,1,1,0,0,0,1.07-.31,5.09,5.09,0,0,0,.53-1A.21.21,0,0,1,414.4,34.61Zm-.68-7.13q.3-.23-.15-.3c.05.1-.08.23-.38.38q-.22.23.15.3C413.34,27.81,413.47,27.69,413.72,27.48Zm-.45-8c-.11-.05-.16,0-.16.15a.14.14,0,0,0,.16.16.29.29,0,0,0,.3-.16A.64.64,0,0,1,413.27,19.45Zm.15-7a.22.22,0,0,1-.08-.15v.15Zm.07,40.08-.07-.07Zm.31-15.23v.76c.45-.1.68-.2.68-.3-.21.1-.38,0-.53-.31s-.18-.42.07-.37c0,.15.05.3.31.45s.37.08.37-.23a.76.76,0,0,0-.9-.3c-.41.1-.48.28-.23.53A.2.2,0,0,1,413.8,37.33Zm-.23-26.74c.1.3.17.45.23.45C413.69,10.74,413.62,10.59,413.57,10.59Zm0,29.17c.1.3.17.45.23.45C413.69,39.91,413.62,39.76,413.57,39.76ZM413.8,52a1.5,1.5,0,0,0,.45.53h.53l-.53-.38a.54.54,0,0,1-.3-.6A.37.37,0,0,0,413.8,52Zm0-37.27h.53c-.26-.16-.36-.21-.31-.16S413.85,14.6,413.8,14.76ZM414,29.53c-.1-.3-.17-.45-.22-.45C413.9,29.38,414,29.53,414,29.53Zm.46,14.09a.61.61,0,0,0,.22-.38.5.5,0,0,0-.37.15l-.31.38c-.1-.35-.17-.53-.22-.53a.7.7,0,0,0,.45.76A1,1,0,0,1,414.48,43.62Zm-.61-27h.23a.22.22,0,0,1-.08-.15.21.21,0,0,0-.15.07C413.92,16.63,413.92,16.65,413.87,16.65Zm.3,0c.26,0,.28-.1.08-.15C414.25,16.6,414.22,16.65,414.17,16.65Zm.53,2.58a.66.66,0,0,0-.3.07.81.81,0,0,0-.15.3A.92.92,0,0,0,414.7,19.23Zm.23,5.68c-.05-.3-.2-.43-.45-.38a2.09,2.09,0,0,0-.15.45,1,1,0,0,0,.37-.22l.16.22C414.91,25,414.93,25,414.93,24.91ZM416,50.29a1.73,1.73,0,0,1-.68-.76.21.21,0,0,0,.15-.07c0-.05,0-.11-.15-.16a.21.21,0,0,1-.3.16.64.64,0,0,0-.46-.23,1.5,1.5,0,0,1-.22.76.33.33,0,0,0,.45.07,4.6,4.6,0,0,0,.46-.3.91.91,0,0,1-.08,1.44h.38a1.14,1.14,0,0,0,.3.07c.1-.45.2-.68.3-.68a.22.22,0,0,0,.08.15.13.13,0,0,0,.15-.15c.05,0,0,0-.07-.07.25,0,.2-.13-.16-.38ZM414.4,11.12c0,.05,0,.1.08.15s.22-.07.22-.23a.19.19,0,0,0-.22-.22A1.33,1.33,0,0,1,414.4,11.12Zm1,33.49c-.05-.1-.11-.08-.15.07-.61.15-.86.31-.76.46s.48,0,1-.23A.44.44,0,0,0,415.39,44.61Zm-.15-14.4h-.54c-.15.05-.22.13-.22.23a1,1,0,0,1,.38.23,1.43,1.43,0,0,0,.38.3Zm-.61-2.27c-.1-.05-.08,0,.07.15-.1.3.08.38.54.23.15,0,.22,0,.22-.08s0-.15-.22-.15A1.72,1.72,0,0,1,414.63,27.94Zm.45-.68c-.15-.1-.27-.05-.38.15a2,2,0,0,1,.46.07,1.64,1.64,0,0,0,.38.08l.15.15q.38-.15.15-.3c-.2-.1-.33-.1-.38,0Zm.16,12h-.54v.45h.54ZM417,49.53h0c-.15.15-.26.1-.31-.15.21,0,.31-.05.31-.15a.26.26,0,0,0-.31-.08q-.07-.37-.3-.45c-.1.3-.38.38-.83.22s-.79-.17-.84.08c.91.25,1.37.48,1.37.68-.1-.1-.13-.12-.08-.07q-.37.15-.15.3a.28.28,0,0,0,.38,0,.48.48,0,0,0,.23-.08c0,.21.07.31.22.31,0-.1.16-.23.46-.38.2.2.2.18,0-.08q.6-.3.3-.45T417,49.53Zm-2.12,2c-.16-.2-.18-.2-.08,0Zm.75-3.72q0-.15-.3-.15c-.25-.2-.4-.17-.45.08A.25.25,0,0,0,415,48c.05,0,.12,0,.23-.08C415.49,48,415.61,48,415.61,47.86Zm-.07,4.7a.93.93,0,0,0,.38-.76,1.7,1.7,0,0,0-1,.61.07.07,0,0,0,.08.08h-.08l-.07.07Zm-.3-23.26s.1-.05.15-.15-.05-.07-.15-.07a.36.36,0,0,0-.23.53c.15.3.3.27.45-.08C415.26,29.53,415.18,29.45,415.24,29.3Zm1.66,6.37c0,.2-.15.27-.3.22a.31.31,0,0,0-.23.31c.35,0,.48.22.38.53a2.11,2.11,0,0,0-.38.83,1.85,1.85,0,0,1,.76.53.67.67,0,0,0-.3.08.91.91,0,0,1-.23.15c.1-.25,0-.43-.3-.53a.54.54,0,0,1-.16-.68.76.76,0,0,0-.75.53,5.62,5.62,0,0,0-.38.91c.4-.11.6.07.6.53s.16.86.31.9q.15-.37.6,0a4.56,4.56,0,0,1,.31.38c.15.21.25.31.3.31A9.29,9.29,0,0,0,416.9,35.67Zm-1.13,6.81c.1,0,.15,0,.15-.15a1.1,1.1,0,0,0-.61-.15c-.3,0-.33,0-.07.15,0,.21.07.28.22.23,0-.2.08-.28.23-.23A.18.18,0,0,0,415.77,42.48Zm-.53-32.27c-.06-.1-.11-.15-.16-.15a.93.93,0,0,0,.16.45.29.29,0,0,0,.22.31c0-.46-.12-.71-.22-.76v.15Zm.6,20.61c0-.05,0-.08-.15-.08-.41.61-.48,1.06-.23,1.37.25-.41.36-.58.31-.53a1,1,0,0,0-.08-.61Q415.77,31,415.84,30.82Zm2.2-6.06c-.05-.05,0-.13.07-.23a.57.57,0,0,1,.91,0V23.39c-.25-.1-.43-.05-.53.15a.59.59,0,0,1-.45.31.7.7,0,0,0-.08-.53.84.84,0,0,1-.15-.46c.3-.05.46-.12.46-.22-.51-.05-.76.07-.76.37s-.18.56-.38.61a1.23,1.23,0,0,1-.15-.53,3.56,3.56,0,0,0-.08-.68h-.6c-.21.05-.33.12-.38.23-.05-.05.35.5,1.21,1.66-.41,0-.61,0-.61.08s0,.12,0,.23a1.24,1.24,0,0,1,.08.37c-.15.21-.46.28-.91.23s-.38,0-.23.08c0,.3.18.35.53.15s.43-.13.38.07c.1.16-.05.23-.45.23s-.31.13,0,.23a.85.85,0,0,1,.6-.08.83.83,0,0,0-.22.15l.22-.15a.67.67,0,0,0,.61-.38c-.35-.1-.53-.17-.53-.22.5.05.76.12.76.22-.21.11-.21.46,0,1.06s.35.81.45.61a1.32,1.32,0,0,1,0-1.36,2.94,2.94,0,0,1,.68-.84A.5.5,0,0,1,418,24.76Zm-1.59,9.62c0,.35-.1.55-.31.6a.92.92,0,0,0-.68-.68c-.1.31,0,.53.38.68s.28.33.08.69c.4,0,.7-.18.91-.69a1.1,1.1,0,0,0-.23-1.21C416.5,33.82,416.45,34,416.45,34.38Zm-.53,2c-.05.21,0,.33.15.38s.25.05.3-.15c-.1,0-.18-.12-.23-.38a.55.55,0,0,0-.22-.38c.05.11-.05.26-.31.46s-.17.25.08.3C415.69,36.45,415.77,36.37,415.92,36.42Zm.45-24.92a.64.64,0,0,0-.68.45A.56.56,0,0,0,416.37,11.5Zm0,18.33c.41.21.66.1.76-.3a3.34,3.34,0,0,1-.68-.53.51.51,0,0,0-.76.08A.94.94,0,0,0,416.37,29.83Zm-.45,8.26c.1.3.17.46.22.46C416,38.24,416,38.09,415.92,38.09Zm.45-8.79c-.1.05-.1.13,0,.23a.32.32,0,0,0,.3,0c.11-.05.08-.13-.07-.23S416.47,29.2,416.37,29.3Zm.15-12.2c-.1-.35-.17-.53-.22-.53C416.35,16.88,416.42,17.05,416.52,17.1Zm.53-1.66-.15-.38c.15-.05.23-.1.23-.15H417c-.31.05-.43.18-.38.38Q417,15.52,417.05,15.44Zm0,6.66c.05.36.15.54.31.54-.05-.21.05-.33.3-.38s.38-.16.38-.31c-.41.05-.58-.17-.53-.68v-.38c-.05-.1-.18-.07-.38.08.25.1.25.23,0,.38s-.53.28-.53.38C416.85,21.68,417,21.8,417.05,22.1Zm-.38-4.77c.11.3.18.46.23.46C416.85,17.48,416.78,17.33,416.67,17.33Zm.08-5.76c-.05,0,0,.11.15.16s.15-.08.15-.23a.25.25,0,0,0-.15-.23A.77.77,0,0,1,416.75,11.57Zm.38,29.78c-.1-.3-.18-.46-.23-.46C417,41.2,417,41.35,417.13,41.35Zm-.08-25.15q.07.45.15.45Q417.13,16.2,417.05,16.2Zm.53-1.37c-.1-.3-.17-.45-.22-.45C417.46,14.68,417.53,14.83,417.58,14.83Zm0,14.47c-.1-.3-.17-.45-.22-.45C417.46,29.15,417.53,29.3,417.58,29.3Zm-.22,2.58a2,2,0,0,0,.22.53C417.48,32.06,417.41,31.88,417.36,31.88Zm.22-.91c.1.3.18.45.23.45C417.71,31.12,417.63,31,417.58,31ZM418,20.51c-.1-.3-.18-.45-.23-.45C417.91,20.36,418,20.51,418,20.51Zm3.26,5.23c-.05-.3-.11-.45-.16-.45C421.19,25.59,421.25,25.74,421.3,25.74Zm3.18,10.46a.21.21,0,0,0,.07.15c.05,0,.1-.05.16-.15-.11-.26-.31-.33-.61-.23s-.25.3.15.45C424.25,36.22,424.33,36.15,424.48,36.2Zm.07,1.36h-.07c-.3-.25-.48-.35-.53-.3s.07.15.23.3a1.32,1.32,0,0,0,.37.38c.16,0,.2-.13.16-.38Zm-.15-.68c0,.35.05.5.31.45a.64.64,0,0,1,.15-.3.86.86,0,0,0,.07-.38C424.63,36.45,424.45,36.53,424.4,36.88Zm.38-3.26-.07.15A.26.26,0,0,0,424.78,33.62Zm.76-3c0-.05-.13,0-.38.15,0-.1,0-.15-.08-.15s-.15,0-.15.15a.25.25,0,0,1,.23.15,1.86,1.86,0,0,0,.23.31A2.5,2.5,0,0,1,425.54,30.59Zm-.23,6.21.53.53q-.15-.22.15-.6c.1-.2.05-.31-.15-.31C425.49,36.58,425.31,36.7,425.31,36.8Zm1.74-5.38a.19.19,0,0,0-.22-.22.77.77,0,0,1-.15.3c-.06.05,0,.1.15.15S427,31.58,427.05,31.42Zm.76.23q-.15-.45-.3-.45Q427.66,31.65,427.81,31.65Zm.61,2.88q.07-.08-.15-.15c-.11-.05-.18,0-.23.15a.29.29,0,0,0,.23.3A.77.77,0,0,1,428.42,34.53ZM431.3,38q-.76-.45-.84-.9c.36-.46.46-.81.31-1.06a3.41,3.41,0,0,0,.3-.23,9.55,9.55,0,0,0,2.65-1.29,2.09,2.09,0,0,0-1.06.15,5.31,5.31,0,0,1-1.29.15.43.43,0,0,0-.15-.3.56.56,0,0,1-.07-.23.23.23,0,0,1,.22.15.91.91,0,0,1,.23.16c0-.66.18-.81.53-.46a.65.65,0,0,1,0-1c-.05,0,.05-.08.3-.23.05-.1.05-.18,0-.23-.6,0-.91,0-.91-.07-.3,0-.45-.21-.45-.46a.66.66,0,0,0,.83.15,1,1,0,0,0,.38-.53c0,.1.08.18.23.23l.23.23q.08-.07.15.15v.23a.66.66,0,0,0,.07.3,1.13,1.13,0,0,0,1.06.91c0-.51-.1-.76-.15-.76-.1.35-.28.51-.53.46.2-.36.23-.61.08-.76l-.46-.68a1.08,1.08,0,0,0,.84-.16c.15-.15.12-.32-.08-.53a1.23,1.23,0,0,0,.38-.07v3.48a.7.7,0,0,0,0,.46V38h-.68l-.23-.22h.08c.25,0,.32-.1.22-.15a.43.43,0,0,0-.3-.08c0-.05.13-.2.38-.45a.93.93,0,0,0,.15-.69,1.83,1.83,0,0,1-.53.38,4.28,4.28,0,0,0-.38.31c-.15.15-.18.45-.07.9h-.46a1.12,1.12,0,0,0-.45-.37c-.21,0-.28,0-.23.15a2.33,2.33,0,0,0,.3.22Zm-.46-2.12.15-.07a.81.81,0,0,1-.45-.15.9.9,0,0,1,.23.38C430.87,35.94,430.89,35.89,430.84,35.89Zm-.07-6.13c.2-.31.25-.53.15-.68a.15.15,0,0,0-.23-.08c.05.4,0,.58-.08.53A.91.91,0,0,0,430.77,29.76Zm-.16,4.77c.11.3.18.45.23.45C430.79,34.68,430.72,34.53,430.61,34.53Zm.46-10.61v.15c.05.06,0,0-.15-.07a.75.75,0,0,0-.15.53,1.34,1.34,0,0,0,.07.53.67.67,0,0,1,.46-.45,1.17,1.17,0,0,0,.38-.46A.65.65,0,0,0,431.07,23.92Zm.68,13a.22.22,0,0,0,.08-.15q.07,0-.15.15c-.56.11-.81.11-.76,0,.65-.25.73-.1.23.46A3.9,3.9,0,0,0,431.75,37Zm-.38-5.9c-.05-.36-.12-.54-.22-.54A2,2,0,0,0,431.37,31.05Zm1.37-1.82c-.11.35-.43.48-1,.38.05.15.08.2.08.15h-.08a.21.21,0,0,0-.07.15v.15q.3.07,0,.15a.23.23,0,0,0,.22.15c.05-.3.18-.35.38-.15s.38.18.38-.07c-.3-.1-.35-.26-.15-.46s.45-.4.45-.45C432.66,29.13,432.58,29.13,432.74,29.23Zm-1-.38h.38a.21.21,0,0,0-.3-.15Zm.08-3.41c-.05,0,0,0,.22-.08h.08A1.33,1.33,0,0,1,431.83,25.44Zm1.44,1.74a2.06,2.06,0,0,0-.69.3l-.07-.07c-.05.1-.23.13-.53.07.1-.1.07-.22-.08-.37.05-.11.05-.18,0-.23a1.18,1.18,0,0,0,.46.15,12.82,12.82,0,0,0,0-3.56h.45c0,.1.13.28.38.53s.1.18-.15.23-.18-.08-.23-.23a.81.81,0,0,0-.15-.3c.61-.21.73.12.38,1-.2,0-.28-.07-.23-.23a1.09,1.09,0,0,1,.91.31,1.5,1.5,0,0,0-.61-1.29h.46a1.91,1.91,0,0,0,.53.6v1.37q-.08-.15-.15-.15a1.14,1.14,0,0,1-.3.68h.45v.76a.36.36,0,0,1-.45.22c-.06,0,0,.23.15.69C433.65,27.28,433.47,27.13,433.27,27.18Zm-1.37,2q0,.08.15.15a.24.24,0,0,0,.16.08v-.46Zm.46,8.33c-.1,0-.15,0-.15.08s0,.15.07.15a.36.36,0,0,0,.23-.53c-.1-.3-.23-.28-.38.08C432.28,37.26,432.36,37.33,432.36,37.48Zm.15-9.24v.46a2,2,0,0,1,.45.07l.08-.53Zm1.36,8.18c-.1.26-.07.16.08-.3A.67.67,0,0,0,433.87,36.42Zm.23-9.09-.08.08h.08Z"/></g></g></svg>