<?xml version="1.0" encoding="utf-8"?>
<!-- Generator: Adobe Illustrator 24.2.0, SVG Export Plug-In . SVG Version: 6.00 Build 0)  -->
<svg version="1.1" id="Camada_1" xmlns="http://www.w3.org/2000/svg" xmlns:xlink="http://www.w3.org/1999/xlink" x="0px" y="0px"
	 viewBox="0 0 478.4 478.4" style="enable-background:new 0 0 478.4 478.4;" xml:space="preserve">
<style type="text/css">
	.st0{fill:#65140F;}
	.st1{fill:#FFFFFF;}
</style>
<g id="Camada_2_1_">
	<g id="Camada_1-2">
		<circle class="st0" cx="239.2" cy="239.2" r="239.2"/>
		<path class="st1" d="M104.9,319.2v-28.5h7c2.4-0.1,4.8,0.4,7,1.3c1.8,0.8,3.4,2,4.7,3.4c1.2,1.4,2.1,2.9,2.6,4.6
			c0.6,1.6,0.8,3.3,0.8,5c0,2-0.4,4-1.1,5.8c-0.7,1.7-1.8,3.2-3.1,4.4c-1.3,1.2-2.8,2.2-4.4,2.8c-1.7,0.7-3.5,1-5.3,1L104.9,319.2z
			 M106.9,317.3h5.9c1.6,0,3.3-0.3,4.8-0.8c1.5-0.5,2.8-1.4,4-2.5c1.2-1.1,2.1-2.4,2.7-3.9c0.7-1.6,1-3.4,1-5.1
			c0-1.6-0.3-3.2-0.8-4.7c-0.5-1.5-1.4-2.8-2.5-4c-1.1-1.2-2.5-2.1-4-2.7c-1.8-0.7-3.7-1-5.6-1h-5.3L106.9,317.3z"/>
		<path class="st1" d="M132,311.2c0-1.5,0.4-2.9,1.1-4.2c0.7-1.2,1.8-2.3,3-3c2.7-1.5,5.9-1.5,8.6,0c3.9,2.4,5.2,7.4,3,11.3
			c-0.7,1.3-1.7,2.3-3,3c-1.3,0.7-2.8,1.1-4.3,1.1c-1.5,0-3-0.3-4.3-1.1c-1.2-0.7-2.3-1.7-3-2.9C132.4,314.2,132,312.7,132,311.2z
			 M133.9,311.2c0,2.3,1.2,4.5,3.2,5.7c2,1.2,4.5,1.2,6.5,0c3.2-2,4.2-6.1,2.2-9.3c-0.6-0.9-1.3-1.7-2.2-2.2c-1-0.6-2.1-0.9-3.3-0.9
			c-1.2,0-2.3,0.3-3.3,0.9c-1,0.6-1.8,1.5-2.3,2.5C134.2,309,133.9,310.1,133.9,311.2L133.9,311.2z"/>
		<path class="st1" d="M156,303.5l0.2,4.4l-0.3-0.4c0.5-1.3,1.5-2.5,2.7-3.2c1.2-0.8,2.6-1.2,4.1-1.2c0.8,0,1.6,0.2,2.4,0.5
			c0.7,0.3,1.3,0.8,1.7,1.4c0.4,0.6,0.7,1.3,0.8,2l-0.2,0.2c0.5-1.3,1.5-2.4,2.6-3c1.2-0.7,2.5-1,3.9-1c1.3-0.1,2.6,0.4,3.6,1.3
			c0.9,0.9,1.4,2.1,1.4,3.4v11.4h-1.9v-11c0-0.9-0.3-1.7-0.9-2.4c-0.7-0.7-1.6-1.1-2.6-1.1c-1,0-2,0.3-2.9,0.8
			c-0.9,0.5-1.6,1.3-2.1,2.1c-0.6,0.9-0.9,1.9-0.9,3v8.6h-1.9v-11c0-0.9-0.3-1.7-0.9-2.4c-0.7-0.7-1.6-1.1-2.6-1.1
			c-1,0-2.1,0.3-2.9,0.8c-1.9,1.1-3,3.1-3,5.3v8.4h-1.9v-15.7L156,303.5z"/>
		<path class="st1" d="M185.5,297.7c0-0.4,0.2-0.7,0.4-0.9c0.3-0.2,0.6-0.4,1-0.4c0.4,0,0.7,0.1,1,0.4c0.3,0.2,0.4,0.6,0.4,0.9
			c0,0.4-0.1,0.7-0.4,1c-0.3,0.3-0.6,0.4-1,0.4c-0.4,0-0.7-0.1-1-0.4C185.7,298.4,185.5,298.1,185.5,297.7z M185.9,303.5h1.9v15.7
			h-1.9V303.5z"/>
		<path class="st1" d="M196.6,303.5l0.2,4.9l-0.2-1c0.4-1.4,1.4-2.5,2.6-3.2c1.3-0.8,2.7-1.2,4.2-1.2c1.3-0.1,2.6,0.4,3.6,1.3
			c0.9,0.9,1.4,2.1,1.4,3.4v11.4h-1.9v-10.9c0-0.9-0.4-1.8-1-2.5c-0.7-0.7-1.7-1.1-2.7-1c-2.1,0-4,1.1-5.1,2.9
			c-0.6,1-0.8,2.1-0.8,3.2v8.4H195v-15.7L196.6,303.5z"/>
		<path class="st1" d="M222.3,319.5c-1.5,0-3-0.3-4.3-1.1c-1.2-0.7-2.3-1.7-2.9-3c-0.7-1.3-1.1-2.7-1.1-4.2c0-1.5,0.4-2.9,1.1-4.2
			c0.7-1.2,1.8-2.3,3-3c1.3-0.7,2.8-1.1,4.2-1.1c1.7-0.1,3.4,0.5,4.7,1.6c1.3,1.1,2.3,2.6,2.8,4.3l-13.7,5.3l-0.6-1.4l12.6-4.9
			l-0.4,0.6c-0.5-1.1-1.2-2-2.1-2.8c-1-0.8-2.2-1.2-3.4-1.2c-1.1,0-2.3,0.3-3.3,0.9c-1,0.6-1.7,1.4-2.3,2.4c-0.6,1-0.9,2.2-0.9,3.4
			c0,1.1,0.3,2.3,0.8,3.3c1.1,2.1,3.3,3.4,5.7,3.4c0.8,0,1.7-0.2,2.5-0.5c0.8-0.3,1.5-0.7,2.1-1.2l1,1.4c-0.8,0.6-1.7,1.1-2.6,1.4
			C224.4,319.3,223.4,319.5,222.3,319.5z"/>
		<path class="st1" d="M249,296.6h1.9v7.1h4.9v1.5h-4.9v14H249v-14h-3.3v-1.5h3.3V296.6z"/>
		<path class="st1" d="M267.3,319.5c-1.5,0-3-0.3-4.3-1.1c-1.3-0.7-2.3-1.7-3-3c-0.7-1.3-1.1-2.7-1.1-4.2c0-1.5,0.4-2.9,1.1-4.2
			c0.7-1.2,1.8-2.3,3-3c1.3-0.7,2.8-1.1,4.2-1.1c1.7-0.1,3.5,0.5,4.8,1.6c1.3,1.1,2.3,2.6,2.8,4.3l-13.8,5.3l-0.6-1.4l12.6-4.9
			l-0.4,0.6c-0.5-1.1-1.2-2-2.1-2.8c-1-0.8-2.2-1.2-3.4-1.2c-1.1,0-2.3,0.3-3.3,0.9c-2,1.2-3.2,3.4-3.2,5.7c0,1.1,0.3,2.3,0.8,3.3
			c0.5,1,1.3,1.9,2.3,2.5c1,0.6,2.2,0.9,3.4,0.9c0.8,0,1.7-0.2,2.5-0.5c0.8-0.3,1.5-0.7,2.1-1.2l1,1.4c-0.8,0.6-1.7,1.1-2.6,1.4
			C269.3,319.3,268.3,319.5,267.3,319.5z M270,294.8l-4.3,5.3h-1.3l3.5-5.3H270z"/>
		<path class="st1" d="M292.1,317.6c-0.7,0.6-1.6,1.1-2.5,1.4c-0.9,0.3-1.9,0.5-2.9,0.5c-1.5,0-3-0.3-4.3-1.1
			c-1.2-0.7-2.3-1.7-3-2.9c-0.7-1.3-1.1-2.7-1.1-4.2c0-1.5,0.4-2.9,1.1-4.2c0.7-1.2,1.8-2.2,3-2.9c1.2-0.7,2.6-1.1,4.1-1.1
			c1,0,2.1,0.2,3,0.5c0.9,0.3,1.7,0.8,2.5,1.4l-1,1.3c-0.6-0.5-1.3-0.9-2-1.1c-0.8-0.3-1.6-0.4-2.4-0.4c-1.1,0-2.3,0.3-3.2,0.9
			c-3.2,1.9-4.2,6-2.3,9.1c0.6,0.9,1.4,1.7,2.3,2.3c1.7,1,3.7,1.1,5.6,0.5c0.7-0.2,1.3-0.6,1.9-1L292.1,317.6z"/>
		<path class="st1" d="M299,303.5l0.2,4.9l-0.2-1c0.5-1.4,1.4-2.5,2.6-3.2c1.3-0.8,2.7-1.2,4.2-1.2c1.3-0.1,2.6,0.4,3.6,1.3
			c0.9,0.9,1.4,2.1,1.4,3.4v11.4h-1.9v-10.9c0-0.9-0.4-1.8-1-2.5c-0.7-0.7-1.7-1.1-2.7-1c-2.1,0-4,1.1-5.1,2.9
			c-0.6,1-0.9,2.1-0.8,3.2v8.4h-1.9v-15.7L299,303.5z"/>
		<path class="st1" d="M317.5,297.7c0-0.4,0.2-0.7,0.4-0.9c0.3-0.3,0.6-0.4,1-0.4c0.4,0,0.7,0.1,1,0.4c0.3,0.2,0.4,0.6,0.4,0.9
			c0,0.4-0.1,0.7-0.4,1c-0.3,0.3-0.6,0.4-1,0.4c-0.4,0-0.7-0.1-1-0.4C317.7,298.4,317.5,298.1,317.5,297.7z M317.9,303.5h1.9v15.7
			h-1.9V303.5z"/>
		<path class="st1" d="M339,317.6c-0.7,0.6-1.6,1.1-2.4,1.4c-0.9,0.3-1.9,0.5-2.9,0.5c-1.5,0-3-0.3-4.3-1.1c-1.2-0.7-2.3-1.7-3-2.9
			c-0.7-1.3-1.1-2.7-1.1-4.2c0-1.5,0.4-2.9,1.1-4.2c1.5-2.5,4.2-4,7.1-4c1,0,2.1,0.2,3,0.5c0.9,0.3,1.7,0.8,2.5,1.4l-1,1.3
			c-0.6-0.5-1.3-0.9-2-1.1c-0.8-0.3-1.6-0.4-2.4-0.4c-1.1,0-2.3,0.3-3.2,0.9c-1,0.6-1.8,1.4-2.3,2.4c-0.6,1-0.9,2.2-0.9,3.4
			c0,2.3,1.2,4.5,3.2,5.7c1,0.6,2.2,0.9,3.4,0.9c0.8,0,1.5-0.1,2.3-0.4c0.7-0.2,1.3-0.6,1.9-1L339,317.6z"/>
		<path class="st1" d="M350.8,319.5c-1.4,0-2.8-0.3-4.1-1c-1.2-0.7-2.2-1.7-2.9-2.9c-0.7-1.3-1.1-2.8-1.1-4.3c0-1.6,0.3-3.1,1.1-4.5
			c0.7-1.2,1.7-2.2,3-2.9c1.4-0.7,2.9-1,4.4-1c2.9,0.1,5.4,1.8,6.6,4.4l-0.3,0.6l0.2-4.5h1.7v15.7h-1.9v-4.9l0.4,0.7
			c-0.2,0.6-0.6,1.1-1,1.6c-0.5,0.6-1.1,1-1.7,1.4c-0.7,0.4-1.4,0.8-2.2,1C352.4,319.3,351.6,319.5,350.8,319.5z M351.2,317.9
			c1.1,0,2.2-0.2,3.2-0.7c0.9-0.5,1.7-1.2,2.3-2.1c0.6-0.9,0.9-2,1-3v-2.3c-0.2-1-0.6-1.9-1.3-2.6c-0.6-0.8-1.4-1.4-2.3-1.8
			c-0.9-0.5-2-0.7-3-0.7c-1.1,0-2.3,0.3-3.3,0.8c-1,0.5-1.8,1.3-2.4,2.3c-0.6,1.1-0.9,2.3-0.9,3.5c0,1.2,0.3,2.3,0.9,3.4
			c0.6,1,1.4,1.8,2.4,2.4C348.9,317.6,350,317.9,351.2,317.9z"/>
		<path class="st1" d="M370.4,319.5c-1,0-1.9-0.2-2.9-0.5c-0.9-0.3-1.8-0.9-2.4-1.6l0.9-1.2c0.5,0.6,1.2,1,1.9,1.3
			c0.7,0.3,1.5,0.5,2.4,0.5c0.6,0,1.2-0.1,1.7-0.3c1.2-0.3,1.9-1.4,1.9-2.6c0-0.6-0.2-1.3-0.6-1.7c-0.4-0.4-1-0.8-1.6-1
			c-0.6-0.3-1.3-0.5-2-0.7c-1-0.3-2-0.8-2.8-1.5c-0.8-0.7-1.2-1.7-1.1-2.7c0-0.8,0.2-1.6,0.6-2.3c0.4-0.6,1-1.2,1.7-1.5
			c0.8-0.4,1.6-0.6,2.5-0.5c0.8,0,1.7,0.1,2.5,0.4c0.8,0.3,1.6,0.7,2.2,1.4l-0.8,1.3c-0.4-0.6-1-1-1.7-1.2c-0.6-0.2-1.2-0.3-1.9-0.4
			c-0.5,0-1,0.1-1.4,0.3c-0.5,0.2-0.9,0.5-1.2,0.8c-0.3,0.4-0.5,0.9-0.5,1.4c0,0.5,0.2,1.1,0.5,1.5c0.4,0.4,0.8,0.7,1.3,0.9
			c0.5,0.2,1.1,0.5,1.7,0.7c0.7,0.2,1.5,0.5,2.2,0.9c0.7,0.3,1.2,0.8,1.7,1.3c0.5,0.6,0.7,1.4,0.7,2.2c0,0.9-0.2,1.7-0.6,2.5
			c-0.4,0.7-1,1.3-1.8,1.7C372.5,319.3,371.5,319.5,370.4,319.5z"/>
		<path class="st1" d="M94.3,337.8c0-0.4,0.2-0.7,0.4-1c0.3-0.3,0.6-0.4,1-0.4c0.4,0,0.7,0.1,1,0.4c0.3,0.2,0.4,0.6,0.4,1
			c0,0.4-0.1,0.7-0.4,1c-0.3,0.3-0.6,0.4-1,0.4c-0.4,0-0.7-0.1-1-0.4C94.5,338.6,94.3,338.2,94.3,337.8z M94.7,343.6h1.9v15.7h-1.9
			V343.6z"/>
		<path class="st1" d="M105.4,343.6l0.2,4.9l-0.2-1c0.5-1.3,1.4-2.5,2.6-3.2c1.3-0.8,2.7-1.2,4.2-1.2c1.3-0.1,2.6,0.4,3.6,1.3
			c0.9,0.9,1.4,2.1,1.4,3.4v11.5h-1.9v-10.9c0-0.9-0.4-1.8-1-2.5c-0.7-0.7-1.7-1-2.7-1c-1,0-2,0.3-2.9,0.8c-0.9,0.5-1.7,1.2-2.2,2.1
			c-0.6,1-0.9,2.1-0.8,3.2v8.4h-1.9v-15.7H105.4z"/>
		<path class="st1" d="M125.3,359.3v-13.9h-2.7v-1.7h2.7v-7.9c0-2.5,0.4-4.3,1.3-5.4c0.9-1.1,2.4-1.8,3.9-1.7c0.4,0,0.8,0,1.2,0.1
			c0.4,0.1,0.8,0.2,1.2,0.5l-0.8,1.4c-0.2-0.1-0.4-0.2-0.6-0.3c-0.3-0.1-0.5-0.1-0.8-0.1c-1-0.1-2,0.4-2.6,1.2
			c-0.6,0.8-0.9,2.2-0.9,4.3v8h5.3v1.7h-5.3v13.9H125.3z"/>
		<path class="st1" d="M142.9,359.6c-1.4,0-2.8-0.3-4.1-1c-1.2-0.7-2.2-1.7-2.9-2.9c-1.4-2.7-1.4-6,0.1-8.8c0.7-1.2,1.8-2.2,3.1-2.9
			c1.4-0.7,2.9-1,4.4-1c2.8,0.1,5.4,1.8,6.6,4.4l-0.3,0.6l0.2-4.5h1.7v15.7h-1.9v-4.9l0.4,0.7c-0.2,0.6-0.6,1.1-1,1.6
			c-0.5,0.6-1,1-1.7,1.5c-0.7,0.4-1.4,0.8-2.2,1C144.5,359.5,143.7,359.6,142.9,359.6z M143.3,358c1.1,0,2.2-0.2,3.2-0.8
			c1.9-1,3.2-2.9,3.3-5.1v-2.3c-0.2-1-0.6-1.9-1.3-2.6c-0.6-0.8-1.4-1.4-2.3-1.9c-2-1-4.3-0.9-6.2,0.1c-1,0.5-1.8,1.3-2.4,2.3
			c-0.6,1.1-0.9,2.3-0.9,3.5c0,1.2,0.3,2.3,0.9,3.4c0.6,1,1.4,1.8,2.4,2.4C141,357.7,142.1,358,143.3,358L143.3,358z"/>
		<path class="st1" d="M158.8,328.8h1.9v30.5h-1.9V328.8z"/>
		<path class="st1" d="M172.1,335.2l-4.3,5.3h-1.4l3.5-5.3H172.1z M167.8,343.6h1.9v15.7h-1.9V343.6z"/>
		<path class="st1" d="M182.4,359.9l-7.9-16.3h2.2l6.6,14.2H182l6.3-14.2h2.1l-7.8,16.3H182.4z"/>
		<path class="st1" d="M201.7,359.6c-1.5,0-3-0.3-4.3-1.1c-1.3-0.7-2.3-1.7-3-3c-0.7-1.3-1.1-2.7-1.1-4.2c0-1.5,0.4-2.9,1.1-4.2
			c0.7-1.2,1.8-2.3,3-3c1.3-0.8,2.7-1.1,4.2-1.1c1.7,0,3.4,0.5,4.7,1.6c1.3,1.1,2.2,2.6,2.7,4.3l-13.7,5.3l-0.6-1.4l12.6-4.9
			l-0.4,0.6c-0.5-1.1-1.2-2-2.1-2.8c-1-0.8-2.2-1.2-3.4-1.2c-1.1,0-2.3,0.3-3.3,0.9c-1,0.6-1.8,1.4-2.3,2.4c-0.6,1-0.9,2.2-0.9,3.4
			c0,1.1,0.3,2.3,0.8,3.3c0.5,1,1.3,1.9,2.3,2.5c1,0.6,2.2,1,3.4,0.9c0.8,0,1.7-0.2,2.5-0.5c0.8-0.3,1.5-0.7,2.1-1.2l1,1.4
			c-0.8,0.6-1.7,1.1-2.6,1.5C203.7,359.4,202.7,359.6,201.7,359.6z"/>
		<path class="st1" d="M214,337.8c0-0.4,0.2-0.7,0.4-1c0.3-0.2,0.6-0.4,1-0.4c0.4,0,0.7,0.1,1,0.4c0.3,0.2,0.4,0.6,0.4,1
			c0,0.4-0.1,0.7-0.4,1c-0.3,0.3-0.6,0.4-1,0.4c-0.4,0-0.7-0.1-1-0.4C214.2,338.6,214,338.2,214,337.8z M214.4,343.6h1.9v15.7h-1.9
			V343.6z"/>
		<path class="st1" d="M227.1,359.6c-1,0-1.9-0.2-2.8-0.5c-0.9-0.3-1.8-0.9-2.4-1.6l0.9-1.2c0.5,0.6,1.2,1,1.9,1.3
			c0.7,0.3,1.5,0.5,2.3,0.5c0.6,0,1.2-0.1,1.8-0.3c0.5-0.2,1-0.5,1.3-0.9c0.4-0.5,0.6-1.1,0.5-1.7c0-0.6-0.2-1.3-0.6-1.7
			c-0.4-0.4-1-0.8-1.6-1c-0.6-0.3-1.3-0.5-2-0.7c-1-0.3-2-0.8-2.8-1.5c-0.8-0.7-1.2-1.7-1.1-2.7c0-0.8,0.2-1.6,0.6-2.3
			c0.4-0.6,1-1.2,1.7-1.5c0.8-0.4,1.6-0.6,2.4-0.5c0.8,0,1.7,0.1,2.5,0.4c0.8,0.3,1.6,0.8,2.2,1.4l-0.8,1.3c-0.4-0.6-1-1-1.7-1.2
			c-0.6-0.2-1.2-0.3-1.9-0.4c-0.5,0-1,0.1-1.4,0.3c-0.5,0.2-0.9,0.5-1.2,0.8c-0.3,0.4-0.5,0.9-0.5,1.4c0,0.5,0.2,1.1,0.5,1.5
			c0.4,0.4,0.8,0.7,1.3,1c0.6,0.2,1.1,0.5,1.7,0.7c0.7,0.2,1.5,0.5,2.2,0.9c0.7,0.3,1.2,0.8,1.7,1.3c0.5,0.6,0.7,1.4,0.7,2.2
			c0,0.9-0.2,1.7-0.6,2.5c-0.4,0.7-1,1.3-1.8,1.7C229.2,359.4,228.2,359.7,227.1,359.6z"/>
		<path class="st1" d="M257,359.6c-2.9,0-5.5-1.5-6.9-4c-1.4-2.7-1.4-5.9,0-8.6c0.7-1.2,1.7-2.2,2.9-2.9c1.3-0.7,2.7-1,4.1-1
			c1.5,0,3,0.4,4.3,1.2c1.3,0.7,2.3,1.7,3,3l-0.3,0.9v-19.4h1.9v30.5h-2v-4.8l0.4,0.9c-0.7,1.3-1.7,2.3-3,3.1
			C260.1,359.2,258.5,359.6,257,359.6z M257.5,358c1.1,0,2.2-0.3,3.3-0.8c0.9-0.5,1.7-1.2,2.3-2.1c0.6-0.9,0.9-1.9,1-3v-2
			c-0.2-1-0.6-1.9-1.3-2.7c-0.6-0.8-1.4-1.4-2.3-1.9c-3.1-1.6-6.9-0.5-8.7,2.5c-0.6,1-0.9,2.2-0.9,3.5c0,1.2,0.3,2.3,0.9,3.4
			c0.6,1,1.4,1.8,2.4,2.4C255.2,357.7,256.3,358,257.5,358L257.5,358z"/>
		<path class="st1" d="M279.9,359.6c-1.5,0-3-0.3-4.3-1.1c-1.3-0.7-2.3-1.7-3-3c-0.7-1.3-1.1-2.7-1.1-4.2c0-1.5,0.4-2.9,1.1-4.2
			c0.7-1.2,1.8-2.3,3-3c1.3-0.8,2.7-1.1,4.2-1.1c1.7,0,3.4,0.5,4.7,1.6c1.3,1.1,2.3,2.6,2.8,4.3l-13.7,5.3l-0.6-1.4l12.6-4.9
			l-0.4,0.6c-0.5-1.1-1.2-2-2.1-2.8c-1-0.8-2.2-1.2-3.4-1.2c-1.1,0-2.3,0.3-3.3,0.9c-1,0.6-1.7,1.4-2.3,2.4c-0.6,1-0.9,2.2-0.9,3.4
			c0,1.1,0.3,2.3,0.8,3.3c0.5,1,1.3,1.9,2.3,2.5c1,0.7,2.3,1,3.5,1c0.8,0,1.7-0.2,2.5-0.5c0.8-0.3,1.5-0.7,2.1-1.2l1,1.4
			c-0.8,0.6-1.7,1.1-2.6,1.5C282,359.4,281,359.6,279.9,359.6z"/>
		<path class="st1" d="M305.9,359.3v-29.1l0,0l14,20l-0.9-0.1l14-19.8l0,0v29.1h-1.8v-24.6l0.2,1l-11.9,16.7h-0.1l-12-16.7l0.3-0.9
			v24.5H305.9z"/>
		<path class="st1" d="M344.3,343.6l-0.1,1.4l0.1-0.4l14.1-13.9h2.6l-11.8,11.7l13.1,16.8h-2.5l-12.1-15.6l-3.5,3.3v12.3h-2v-28.5h2
			L344.3,343.6z"/>
		<path class="st1" d="M366.3,330.8H385v1.9h-8.4v26.6h-2v-26.6h-8.3V330.8z"/>
		<path class="st1" d="M183,399.4v-28.5h7c2.4-0.1,4.8,0.4,7,1.3c1.8,0.8,3.4,2,4.7,3.4c1.2,1.4,2.1,2.9,2.6,4.6
			c0.5,1.6,0.8,3.3,0.8,5c0,2-0.3,4-1.1,5.8c-0.7,1.7-1.8,3.2-3.1,4.4c-1.3,1.2-2.8,2.2-4.4,2.8c-1.7,0.7-3.5,1-5.3,1L183,399.4z
			 M185,397.5h5.9c1.6,0,3.3-0.3,4.8-0.8c1.5-0.5,2.8-1.4,3.9-2.5c1.2-1.1,2.1-2.4,2.7-3.9c0.7-1.6,1-3.4,1-5.1
			c0-1.6-0.3-3.2-0.8-4.7c-0.6-1.5-1.4-2.8-2.5-3.9c-1.1-1.2-2.5-2.1-4.1-2.7c-1.8-0.7-3.7-1-5.6-1H185V397.5z"/>
		<path class="st1" d="M211.2,378c0-0.4,0.2-0.7,0.4-0.9c0.3-0.2,0.6-0.4,1-0.4c0.4,0,0.7,0.1,1,0.4c0.3,0.2,0.4,0.6,0.4,0.9
			c0,0.4-0.1,0.7-0.4,1c-0.3,0.3-0.6,0.4-1,0.4c-0.4,0-0.7-0.1-1-0.4C211.4,378.7,211.2,378.4,211.2,378z M211.6,383.8h1.9v15.7
			h-1.9L211.6,383.8z"/>
		<path class="st1" d="M227.6,407.1c-0.8,0-1.7-0.1-2.5-0.3c-0.8-0.2-1.6-0.5-2.4-1c-0.9-0.6-1.7-1.2-2.4-1.9l1.1-1.3
			c0.9,0.9,2,1.7,3.2,2.2c0.9,0.4,1.9,0.6,2.9,0.6c1.3,0.1,2.7-0.2,3.9-0.8c0.9-0.5,1.6-1.2,2.1-2.1c0.4-0.9,0.7-1.9,0.7-2.9v-5.1
			l0.4,0.5c-0.6,1.4-1.6,2.6-2.9,3.4c-1.4,0.9-3,1.4-4.7,1.3c-1.4,0-2.8-0.4-4-1.1c-3.9-2.3-5.3-7.3-3-11.3c0.8-1.3,1.8-2.3,3.1-3.1
			c1.3-0.7,2.8-1.1,4.3-1.1c1.4,0,2.9,0.4,4.1,1.1c1.2,0.7,2.2,1.7,2.8,3l-0.2,0.9l0.2-4.5h1.7v15.9c0,1.3-0.3,2.5-0.9,3.6
			c-0.6,1.2-1.6,2.1-2.7,2.8C231,406.8,229.3,407.2,227.6,407.1z M221,391.5c0,1.2,0.3,2.3,0.9,3.4c0.6,1,1.4,1.8,2.4,2.4
			c1,0.6,2.2,0.9,3.4,0.9c2.2,0,4.3-1.1,5.6-2.9c0.6-0.8,1-1.8,1.1-2.9v-2.3c-0.2-1-0.6-1.9-1.3-2.7c-0.6-0.8-1.4-1.4-2.3-1.8
			c-2-1-4.4-0.9-6.4,0.2c-1,0.5-1.8,1.4-2.4,2.3C221.3,389.1,221,390.3,221,391.5z"/>
		<path class="st1" d="M242.9,378c0-0.4,0.2-0.7,0.4-0.9c0.3-0.3,0.6-0.4,1-0.4c0.4,0,0.7,0.1,1,0.4c0.3,0.2,0.4,0.6,0.4,0.9
			c0,0.4-0.1,0.7-0.4,1c-0.3,0.3-0.6,0.4-1,0.4c-0.4,0-0.7-0.1-1-0.4C243,378.7,242.9,378.4,242.9,378z M243.3,383.8h1.9v15.7h-1.9
			V383.8z"/>
		<path class="st1" d="M253.9,376.8h1.9v7.1h4.9v1.5h-4.9v14h-1.9v-14h-3.3v-1.5h3.3V376.8z"/>
		<path class="st1" d="M271.8,399.8c-1.4,0-2.8-0.3-4.1-1c-1.2-0.7-2.2-1.7-2.9-2.9c-0.7-1.3-1.1-2.8-1.1-4.3c0-1.6,0.3-3.1,1.1-4.5
			c0.7-1.2,1.8-2.2,3-2.9c1.4-0.7,2.9-1,4.4-1c2.9,0.1,5.4,1.8,6.6,4.4l-0.3,0.6l0.2-4.5h1.7v15.7h-1.9v-4.9l0.4,0.7
			c-0.2,0.6-0.6,1.1-1,1.6c-0.5,0.6-1,1-1.7,1.4c-0.7,0.4-1.4,0.8-2.2,1C273.5,399.6,272.7,399.8,271.8,399.8z M272.2,398.2
			c1.1,0,2.2-0.2,3.2-0.7c0.9-0.5,1.7-1.2,2.3-2.1c0.6-0.9,0.9-1.9,1-3V390c-0.2-1-0.6-1.9-1.3-2.6c-0.6-0.8-1.4-1.4-2.3-1.8
			c-0.9-0.5-2-0.7-3-0.7c-1.1,0-2.3,0.3-3.3,0.8c-1,0.5-1.8,1.3-2.4,2.3c-0.6,1.1-0.9,2.3-0.9,3.5c0,1.2,0.3,2.3,0.9,3.4
			c0.6,1,1.4,1.8,2.4,2.4C269.9,397.8,271.1,398.2,272.2,398.2L272.2,398.2z"/>
		<path class="st1" d="M287.8,368.9h1.9v30.5h-1.9V368.9z"/>
		<path class="st1" d="M263.4,282.8H163.2c-9.4,0-17.1-7.7-17.1-17.1V57.6c0-9.4,7.7-17.1,17.1-17.1h100.2c9.4,0,17.1,7.7,17.1,17.1
			v208.1C280.5,275.2,272.8,282.8,263.4,282.8z M163.2,51.6c-3.3,0-6,2.7-6,6v208.1c0,3.3,2.7,6,6,6h100.2c3.3,0,6-2.7,6-6V57.6
			c0-3.3-2.7-6-6-6L163.2,51.6z"/>
		<rect x="168.7" y="78.6" class="st1" width="89.1" height="154.6"/>
		<path class="st1" d="M252.3,84.1v143.5h-78V84.1H252.3 M263.4,73H163.2v165.7h100.2V73z"/>
		<circle class="st1" cx="213.3" cy="258" r="11.6"/>
		<path class="st1" d="M217.1,59.5c0,2.1-1.7,3.9-3.8,3.9c-2.1,0-3.9-1.7-3.9-3.8c0-2.1,1.7-3.9,3.8-3.9c0,0,0,0,0,0
			C215.4,55.7,217.1,57.4,217.1,59.5C217.1,59.5,217.1,59.5,217.1,59.5z"/>
		<path class="st0" d="M315.2,98.1H199.5c-6.4,0-11.5,5.2-11.5,11.6V179c0,6.4,5.2,11.6,11.6,11.6h23.1v23.1l34.7-23.1h57.8
			c6.4,0,11.5-5.2,11.5-11.6v-69.4C326.7,103.2,321.5,98.1,315.2,98.1L315.2,98.1z"/>
		<path class="st1" d="M222.7,219.2c-3.1,0-5.5-2.5-5.5-5.5c0,0,0,0,0,0v-17.6h-17.6c-9.4,0-17.1-7.7-17.1-17.1v-69.4
			c0-9.4,7.7-17.1,17.1-17.1h115.6c9.4,0,17.1,7.7,17.1,17.1V179c0,9.4-7.7,17.1-17.1,17.1H259l-33.3,22.2
			C224.8,218.9,223.7,219.2,222.7,219.2z M199.5,103.6c-3.3,0-6,2.7-6,6V179c0,3.3,2.7,6,6,6h23.1c3.1,0,5.5,2.5,5.6,5.6v12.8
			l26.1-17.4c0.9-0.6,2-0.9,3.1-0.9h57.8c3.3,0,6-2.7,6-6v-69.4c0-3.3-2.7-6-6-6L199.5,103.6z"/>
	</g>
</g>
</svg>
