<?xml version="1.0" encoding="utf-8"?>
<!-- Generator: Adobe Illustrator 24.2.0, SVG Export Plug-In . SVG Version: 6.00 Build 0)  -->
<svg version="1.1" id="Camada_1" xmlns="http://www.w3.org/2000/svg" xmlns:xlink="http://www.w3.org/1999/xlink" x="0px" y="0px"
	 viewBox="0 0 478.4 478.4" style="enable-background:new 0 0 478.4 478.4;" xml:space="preserve">
<style type="text/css">
	.st0{fill:#65140F;}
	.st1{fill:#FFFFFF;}
</style>
<g id="Camada_2_1_">
	<g id="Camada_1-2">
		<circle class="st0" cx="239.2" cy="239.2" r="239.2"/>
		<path class="st1" d="M150.3,287.9h17.6v1.9h-15.6v11.3h14v1.9h-14v11.5h16.2v1.9h-18.1V287.9z"/>
		<path class="st1" d="M176.6,300.7l0.2,4.9l-0.2-1c0.4-1.4,1.4-2.5,2.6-3.2c1.3-0.8,2.7-1.2,4.2-1.2c1.3-0.1,2.6,0.4,3.6,1.3
			c0.9,0.9,1.4,2.1,1.4,3.4v11.4h-1.9v-10.9c0-0.9-0.4-1.8-1-2.5c-0.7-0.7-1.7-1.1-2.7-1c-2.1,0-4,1.1-5.1,2.9
			c-0.6,1-0.8,2.1-0.8,3.2v8.4h-1.9v-15.7H176.6z"/>
		<path class="st1" d="M197.1,293.8h1.9v7.1h4.9v1.5H199v14h-1.9v-14h-3.3v-1.5h3.3L197.1,293.8z"/>
		<path class="st1" d="M215.4,316.8c-1.5,0-3-0.4-4.3-1.1c-1.2-0.7-2.3-1.7-2.9-3c-0.7-1.3-1.1-2.7-1.1-4.2c0-1.5,0.4-2.9,1.1-4.2
			c0.7-1.2,1.8-2.3,3-3c1.3-0.8,2.8-1.1,4.2-1.1c1.7-0.1,3.4,0.5,4.7,1.6c1.3,1.1,2.3,2.6,2.8,4.3l-13.7,5.3l-0.6-1.4l12.6-4.9
			l-0.4,0.6c-0.5-1.1-1.2-2-2.1-2.8c-0.9-0.8-2.2-1.2-3.4-1.2c-1.1,0-2.3,0.3-3.3,0.9c-2,1.2-3.2,3.4-3.2,5.7c0,1.1,0.3,2.3,0.8,3.3
			c0.5,1,1.3,1.9,2.3,2.5c1,0.6,2.2,0.9,3.4,0.9c0.8,0,1.7-0.2,2.5-0.5c0.8-0.3,1.5-0.7,2.1-1.3l1,1.4c-0.8,0.6-1.7,1.1-2.6,1.4
			C217.4,316.6,216.4,316.8,215.4,316.8z"/>
		<path class="st1" d="M229.7,300.7l0.2,4.9l-0.2-1c0.4-1.4,1.4-2.5,2.6-3.2c1.3-0.8,2.7-1.2,4.2-1.2c1.3-0.1,2.6,0.4,3.6,1.3
			c0.9,0.9,1.4,2.1,1.4,3.4v11.4h-1.9v-10.9c0-0.9-0.4-1.8-1-2.5c-0.7-0.7-1.7-1.1-2.7-1c-2.1,0-4,1.1-5.1,2.9c-0.5,1-0.8,2-0.7,3.1
			v8.4h-1.9v-15.7H229.7z"/>
		<path class="st1" d="M255,316.8c-2.9,0-5.5-1.5-6.9-4c-1.4-2.7-1.4-5.9,0-8.6c0.7-1.2,1.7-2.2,2.9-2.9c2.6-1.4,5.8-1.3,8.4,0.2
			c1.3,0.7,2.3,1.8,3,3l-0.3,0.9v-19.5h1.9v30.5h-1.9v-4.8l0.4,0.9c-0.7,1.3-1.7,2.3-3,3.1C258.1,316.4,256.6,316.8,255,316.8z
			 M255.5,315.1c1.1,0,2.2-0.2,3.2-0.8c1.9-1,3.2-3,3.3-5.2v-2c-0.2-1-0.6-1.9-1.3-2.7c-0.6-0.8-1.4-1.4-2.3-1.9
			c-0.9-0.5-2-0.7-3-0.7c-1.2,0-2.3,0.3-3.3,0.9c-1,0.6-1.8,1.4-2.4,2.3c-0.6,1-0.9,2.2-0.9,3.5c0,1.2,0.3,2.3,0.9,3.4
			c0.6,1,1.4,1.8,2.4,2.4C253.2,314.8,254.4,315.1,255.5,315.1L255.5,315.1z"/>
		<path class="st1" d="M277.7,316.8c-1.4,0-2.8-0.3-4.1-1c-1.2-0.7-2.2-1.7-2.9-2.9c-0.7-1.3-1.1-2.8-1.1-4.3c0-1.6,0.3-3.1,1.1-4.5
			c0.7-1.2,1.8-2.2,3-2.9c1.4-0.7,2.9-1,4.4-1c2.9,0.1,5.4,1.8,6.6,4.4l-0.3,0.6l0.2-4.5h1.7v15.7h-1.9v-4.9l0.4,0.7
			c-0.2,0.6-0.6,1.1-1,1.6c-0.5,0.6-1.1,1-1.7,1.4c-0.7,0.4-1.4,0.8-2.2,1C279.4,316.6,278.5,316.8,277.7,316.8z M278.1,315.2
			c1.1,0,2.2-0.2,3.2-0.7c0.9-0.5,1.7-1.2,2.3-2.1c0.6-0.9,0.9-1.9,1-3V307c-0.2-1-0.6-1.9-1.3-2.6c-0.6-0.8-1.4-1.4-2.3-1.8
			c-0.9-0.5-2-0.7-3-0.7c-1.1,0-2.3,0.3-3.3,0.8c-1,0.5-1.8,1.3-2.4,2.3c-0.6,1.1-0.9,2.3-0.9,3.5c0,1.2,0.3,2.3,0.9,3.4
			c0.6,1,1.4,1.8,2.4,2.4C275.8,314.8,276.9,315.2,278.1,315.2L278.1,315.2z"/>
		<path class="st1" d="M312.4,316.8c-1.4,0-2.8-0.3-4.1-1c-1.2-0.7-2.2-1.7-2.9-2.9c-0.7-1.3-1.1-2.8-1.1-4.3c0-1.6,0.3-3.1,1.1-4.5
			c0.7-1.2,1.8-2.2,3-2.9c1.4-0.7,2.9-1,4.4-1c1.4,0,2.8,0.4,4,1.2c1.2,0.8,2.1,1.8,2.7,3.1l-0.3,0.6l0.2-4.5h1.7v15.7h-1.9v-4.9
			l0.4,0.7c-0.2,0.6-0.6,1.1-1,1.6c-1,1.2-2.4,2-3.8,2.5C314.1,316.6,313.3,316.8,312.4,316.8z M312.8,315.2c1.1,0,2.2-0.2,3.2-0.7
			c1.9-1,3.2-2.9,3.3-5.1V307c-0.2-1-0.6-1.9-1.3-2.6c-0.6-0.8-1.4-1.4-2.3-1.8c-2-1-4.3-0.9-6.2,0.1c-1,0.5-1.8,1.3-2.4,2.3
			c-0.6,1.1-0.9,2.3-0.9,3.5c0,1.2,0.3,2.3,0.9,3.4c0.6,1,1.4,1.8,2.4,2.4C310.6,314.8,311.7,315.1,312.8,315.2L312.8,315.2z"/>
		<path class="st1" d="M65.6,335.1c0-0.4,0.1-0.8,0.4-1c0.3-0.3,0.6-0.4,1-0.4c0.4,0,0.7,0.1,1,0.4c0.3,0.3,0.4,0.6,0.4,1
			c0,0.4-0.1,0.7-0.4,1c-0.3,0.3-0.6,0.4-1,0.4c-0.4,0-0.7-0.1-1-0.4C65.8,335.8,65.6,335.5,65.6,335.1z M66,340.9h1.9v15.7H66
			L66,340.9z"/>
		<path class="st1" d="M76.7,340.9l0.2,4.4l-0.3-0.4c0.5-1.3,1.5-2.5,2.7-3.2c1.2-0.8,2.6-1.2,4.1-1.2c0.8,0,1.6,0.2,2.4,0.5
			c0.7,0.3,1.3,0.8,1.7,1.4c0.4,0.6,0.7,1.3,0.8,2l-0.2,0.2c0.5-1.3,1.5-2.3,2.7-3c1.2-0.7,2.5-1.1,3.9-1c1.3-0.1,2.6,0.4,3.6,1.3
			c0.9,0.9,1.4,2.1,1.4,3.4v11.4h-1.9v-11c0-0.9-0.3-1.7-0.9-2.4c-0.7-0.7-1.6-1.1-2.6-1.1c-1,0-2,0.3-2.9,0.8
			c-0.9,0.5-1.6,1.2-2.2,2c-0.6,0.9-0.9,1.9-0.9,3v8.6h-1.9v-11c0-0.9-0.3-1.7-0.9-2.4c-0.7-0.7-1.6-1.1-2.6-1.1
			c-1,0-2.1,0.3-2.9,0.8c-0.9,0.5-1.6,1.3-2.1,2.2c-0.5,0.9-0.8,2-0.8,3.1v8.4H75v-15.7H76.7z"/>
		<path class="st1" d="M115.3,356.9c-1.5,0-2.9-0.4-4.2-1.2c-1.2-0.7-2.2-1.8-2.9-3.1l0.3-0.7v12.2h-1.9v-23.4h1.7l0.2,5.1l-0.4-1.2
			c0.7-1.3,1.7-2.4,3-3.1c1.3-0.8,2.8-1.2,4.4-1.2c1.4,0,2.8,0.4,4.1,1.1c1.2,0.7,2.2,1.7,2.9,3c0.7,1.3,1.1,2.8,1.1,4.3
			c0,1.5-0.4,3-1.1,4.2c-0.7,1.2-1.8,2.2-3,2.9C118.1,356.5,116.7,356.9,115.3,356.9z M115,355.3c1.2,0,2.3-0.3,3.3-0.9
			c1-0.6,1.8-1.4,2.4-2.4c0.6-1,0.9-2.2,0.9-3.4c0-1.2-0.3-2.4-0.9-3.4c-0.6-1-1.4-1.8-2.3-2.4c-1-0.6-2.1-0.9-3.3-0.9
			c-2.2,0-4.3,1.1-5.5,3c-0.6,0.9-0.9,2-1,3.1v1.3c0.1,1.1,0.4,2.1,1,3c0.6,0.9,1.4,1.6,2.3,2.1C112.8,355.1,113.9,355.3,115,355.3
			L115,355.3z"/>
		<path class="st1" d="M127.7,348.6c0-3,1.6-5.7,4.1-7.2c2.7-1.5,5.9-1.5,8.6,0c1.2,0.7,2.3,1.8,3,3c1.4,2.6,1.4,5.8,0,8.4
			c-0.7,1.2-1.8,2.3-3,3c-1.3,0.7-2.8,1.1-4.3,1.1c-1.5,0-3-0.3-4.3-1.1c-1.2-0.7-2.3-1.7-3-2.9C128,351.6,127.6,350.1,127.7,348.6z
			 M129.5,348.6c0,1.2,0.3,2.3,0.9,3.4c0.6,1,1.4,1.8,2.3,2.4c2,1.2,4.5,1.2,6.5,0c3.1-1.9,4.1-5.9,2.3-9.1c-0.6-1-1.4-1.8-2.3-2.4
			c-2-1.2-4.6-1.2-6.6,0c-1,0.6-1.8,1.5-2.3,2.5C129.8,346.3,129.5,347.5,129.5,348.6L129.5,348.6z"/>
		<path class="st1" d="M151.6,340.9l0.2,4.8l-0.2-0.6c0.3-0.9,0.9-1.8,1.6-2.5c0.7-0.7,1.6-1.2,2.5-1.6c0.8-0.4,1.8-0.6,2.7-0.6
			l-0.1,1.9c-1.1,0-2.3,0.3-3.3,0.8c-0.9,0.5-1.8,1.2-2.3,2.1c-0.6,0.9-0.9,1.9-0.9,3v8.3H150v-15.7H151.6z"/>
		<path class="st1" d="M165.3,334h1.9v7.1h4.9v1.5h-4.9v14h-1.9v-14H162v-1.5h3.3L165.3,334z"/>
		<path class="st1" d="M183.3,356.9c-1.4,0-2.8-0.3-4.1-1c-1.2-0.7-2.2-1.7-2.9-2.9c-1.4-2.7-1.4-6,0.1-8.8c0.7-1.2,1.8-2.2,3.1-2.9
			c1.4-0.7,2.9-1,4.4-1c2.9,0.1,5.4,1.8,6.6,4.4l-0.3,0.6l0.2-4.5h1.7v15.7h-1.9v-4.9l0.4,0.7c-0.2,0.6-0.6,1.1-1,1.6
			c-1,1.2-2.4,2-3.8,2.5C185,356.8,184.1,356.9,183.3,356.9z M183.7,355.3c1.1,0,2.2-0.2,3.2-0.7c0.9-0.5,1.7-1.2,2.3-2.1
			c0.6-0.9,0.9-2,1-3.1v-2.2c-0.2-1-0.6-1.9-1.3-2.6c-0.6-0.8-1.4-1.4-2.3-1.9c-2-1-4.3-0.9-6.2,0.1c-1,0.5-1.8,1.3-2.4,2.3
			c-0.6,1.1-0.9,2.3-0.9,3.5c0,1.2,0.3,2.4,0.9,3.4c0.6,1,1.4,1.8,2.4,2.4C181.4,355,182.5,355.3,183.7,355.3L183.7,355.3z
			 M188.7,337l-4.4-4.9l0.9-0.1l-4.4,5h-1.9l5.8-6.4l0,0l5.9,6.4L188.7,337z"/>
		<path class="st1" d="M200.9,340.9l0.2,4.9l-0.2-1c0.4-1.4,1.4-2.5,2.6-3.2c1.3-0.8,2.7-1.2,4.2-1.2c1.3-0.1,2.6,0.4,3.6,1.3
			c0.9,0.9,1.4,2.1,1.4,3.4v11.4h-1.9v-10.9c0-0.9-0.4-1.8-1-2.5c-0.7-0.7-1.7-1.1-2.7-1c-2.1,0-4,1.1-5.1,2.9
			c-0.6,1-0.8,2.1-0.8,3.2v8.4h-1.9v-15.7H200.9z"/>
		<path class="st1" d="M231.9,355c-0.7,0.6-1.6,1.1-2.4,1.4c-2.4,0.8-5,0.6-7.1-0.6c-1.2-0.7-2.3-1.7-3-2.9
			c-0.7-1.3-1.1-2.7-1.1-4.2c0-1.5,0.4-2.9,1.1-4.2c0.7-1.2,1.8-2.2,3-2.9c1.2-0.7,2.7-1.1,4.1-1.1c1,0,2,0.2,3,0.5
			c0.9,0.3,1.7,0.8,2.4,1.4l-1,1.3c-0.6-0.5-1.3-0.9-2-1.1c-0.8-0.3-1.6-0.4-2.4-0.4c-1.1,0-2.3,0.3-3.2,0.9c-3,1.9-4,5.9-2.2,9.1
			c0.6,1,1.4,1.8,2.4,2.4c1,0.6,2.2,0.9,3.4,0.9c0.8,0,1.5-0.1,2.2-0.4c0.7-0.2,1.3-0.6,1.9-1L231.9,355z"/>
		<path class="st1" d="M236.7,335.1c0-0.4,0.1-0.8,0.4-1c0.3-0.2,0.6-0.4,1-0.4c0.4,0,0.7,0.1,1,0.4c0.3,0.3,0.4,0.6,0.4,1
			c0,0.4-0.1,0.7-0.4,1c-0.3,0.3-0.6,0.4-1,0.4c-0.4,0-0.7-0.1-1-0.4C236.9,335.8,236.7,335.5,236.7,335.1z M237.1,340.9h1.9v15.7
			h-1.9L237.1,340.9z"/>
		<path class="st1" d="M252.7,356.9c-1.4,0-2.8-0.3-4.1-1c-1.2-0.7-2.2-1.7-2.9-2.9c-1.4-2.8-1.4-6,0.1-8.8c0.7-1.2,1.7-2.2,3-2.9
			c1.4-0.7,2.9-1,4.4-1c1.4,0,2.8,0.4,4,1.3c1.2,0.8,2.1,1.8,2.7,3.1l-0.3,0.6l0.2-4.5h1.7v15.7h-1.9v-4.9l0.4,0.7
			c-0.2,0.6-0.6,1.1-1,1.6c-1,1.2-2.4,2-3.8,2.5C254.3,356.8,253.5,356.9,252.7,356.9z M253.1,355.3c1.1,0,2.2-0.2,3.2-0.7
			c0.9-0.5,1.7-1.2,2.3-2.1c0.6-0.9,0.9-2,1-3.1v-2.2c-0.2-1-0.6-1.9-1.3-2.6c-0.6-0.8-1.4-1.4-2.3-1.9c-0.9-0.5-2-0.7-3-0.7
			c-1.1,0-2.3,0.3-3.3,0.8c-1,0.5-1.8,1.3-2.4,2.3c-0.6,1.1-0.9,2.3-0.9,3.5c0,1.2,0.3,2.3,0.9,3.4c0.6,1,1.4,1.8,2.4,2.4
			C250.8,355,251.9,355.3,253.1,355.3L253.1,355.3z"/>
		<path class="st1" d="M287.4,356.9c-1.4,0-2.8-0.3-4-1.1c-1.2-0.7-2.2-1.7-2.9-3c-1.4-2.7-1.4-5.9,0-8.6c0.7-1.2,1.7-2.2,3-2.9
			c2.6-1.4,5.8-1.3,8.4,0.2c1.3,0.7,2.3,1.8,3,3l-0.3,0.9v-19.4h1.9v30.5h-1.9v-4.8l0.4,0.9c-0.7,1.3-1.7,2.3-3,3.1
			C290.5,356.5,288.9,356.9,287.4,356.9z M287.8,355.2c1.1,0,2.2-0.2,3.3-0.8c0.9-0.5,1.7-1.2,2.3-2.1c0.6-0.9,0.9-1.9,1-3v-2
			c-0.2-1-0.6-1.9-1.2-2.7c-0.6-0.8-1.4-1.4-2.3-1.9c-0.9-0.5-2-0.7-3-0.7c-1.2,0-2.3,0.3-3.3,0.8c-1,0.6-1.8,1.4-2.4,2.3
			c-0.6,1-0.9,2.2-0.9,3.5c0,1.2,0.3,2.3,0.9,3.4c0.6,1,1.4,1.8,2.4,2.4C285.6,355,286.7,355.3,287.8,355.2L287.8,355.2z"/>
		<path class="st1" d="M310.3,356.9c-1.5,0-3-0.3-4.3-1.1c-1.2-0.7-2.3-1.7-3-3c-0.7-1.3-1.1-2.7-1.1-4.2c0-1.5,0.4-2.9,1.1-4.2
			c0.7-1.2,1.8-2.3,3-3c1.3-0.8,2.8-1.1,4.2-1.1c1.7,0,3.4,0.5,4.7,1.6c1.3,1.1,2.2,2.6,2.7,4.3l-13.7,5.3l-0.6-1.4l12.6-4.9
			l-0.4,0.6c-0.5-1.1-1.2-2-2.1-2.8c-1-0.8-2.2-1.2-3.4-1.2c-1.1,0-2.3,0.3-3.3,0.9c-2,1.2-3.2,3.4-3.2,5.7c0,1.1,0.3,2.3,0.8,3.3
			c0.5,1,1.3,1.9,2.3,2.5c1,0.6,2.2,0.9,3.4,0.9c0.8,0,1.7-0.2,2.5-0.5c0.8-0.3,1.5-0.7,2.1-1.2l1,1.4c-0.8,0.6-1.7,1.1-2.6,1.5
			C312.3,356.7,311.3,356.9,310.3,356.9z"/>
		<path class="st1" d="M347.5,355c-0.7,0.6-1.6,1.1-2.4,1.4c-2.4,0.8-5,0.6-7.1-0.6c-1.2-0.7-2.3-1.7-3-2.9
			c-0.7-1.3-1.1-2.7-1.1-4.2c0-1.5,0.4-2.9,1.1-4.2c0.7-1.2,1.8-2.2,3-2.9c1.2-0.7,2.6-1.1,4.1-1.1c1,0,2.1,0.2,3.1,0.5
			c0.9,0.3,1.7,0.8,2.4,1.4l-1,1.3c-0.6-0.5-1.3-0.9-2-1.1c-0.8-0.3-1.6-0.4-2.4-0.4c-1.1,0-2.3,0.3-3.2,0.9c-2,1.2-3.2,3.4-3.2,5.7
			c0,1.2,0.3,2.3,0.9,3.3c0.6,1,1.4,1.8,2.4,2.4c1,0.6,2.2,0.9,3.4,0.9c0.8,0,1.5-0.1,2.2-0.4c0.7-0.2,1.3-0.6,1.9-1L347.5,355z"/>
		<path class="st1" d="M354.4,340.9l0.2,4.8l-0.2-0.6c0.3-1,0.9-1.8,1.7-2.5c0.7-0.7,1.6-1.2,2.5-1.6c0.8-0.4,1.8-0.6,2.7-0.6
			l-0.1,1.9c-1.1,0-2.3,0.3-3.3,0.8c-0.9,0.5-1.7,1.2-2.3,2.1c-0.6,0.9-0.9,1.9-0.9,3v8.3h-1.9v-15.7H354.4z"/>
		<path class="st1" d="M366.1,335.1c0-0.4,0.1-0.8,0.4-1c0.3-0.3,0.6-0.4,1-0.4c0.4,0,0.7,0.1,1,0.4c0.3,0.3,0.4,0.6,0.4,1
			c0,0.4-0.1,0.7-0.4,1c-0.3,0.3-0.6,0.4-1,0.4c-0.4,0-0.7-0.1-1-0.4C366.2,335.8,366.1,335.5,366.1,335.1z M366.5,340.9h1.9v15.7
			h-1.9V340.9z"/>
		<path class="st1" d="M382,356.9c-1.4,0-2.8-0.3-4.1-1c-1.2-0.7-2.2-1.7-2.9-2.9c-1.4-2.7-1.4-6,0.1-8.8c0.7-1.2,1.8-2.2,3-2.9
			c1.4-0.7,2.9-1,4.4-1c2.9,0.1,5.4,1.8,6.6,4.4l-0.3,0.6l0.2-4.5h1.7v15.7h-1.9v-4.9l0.4,0.7c-0.2,0.6-0.6,1.1-1,1.6
			c-1,1.2-2.4,2-3.8,2.5C383.7,356.8,382.8,356.9,382,356.9z M382.4,355.3c1.1,0,2.2-0.2,3.2-0.7c0.9-0.5,1.7-1.2,2.3-2.1
			c0.6-0.9,0.9-2,1-3.1v-2.2c-0.2-1-0.6-1.9-1.3-2.6c-0.6-0.8-1.4-1.4-2.3-1.9c-2-1-4.3-0.9-6.2,0.1c-1,0.5-1.8,1.3-2.4,2.3
			c-0.6,1.1-0.9,2.3-0.9,3.5c0,1.2,0.3,2.3,0.9,3.4c0.6,1,1.4,1.8,2.4,2.4C380.1,355,381.2,355.3,382.4,355.3L382.4,355.3z"/>
		<path class="st1" d="M399.6,340.9l0.2,4.8l-0.2-0.6c0.3-0.9,0.9-1.8,1.6-2.5c0.7-0.7,1.6-1.2,2.5-1.6c0.8-0.4,1.8-0.6,2.7-0.6
			l-0.1,1.9c-1.1,0-2.3,0.3-3.3,0.8c-0.9,0.5-1.7,1.2-2.3,2.1c-0.6,0.9-0.9,1.9-0.9,3v8.3h-1.9v-15.7H399.6z"/>
		<path class="st1" d="M106.6,397.1c-2.6,0.2-4.8-1.8-4.9-4.3c0-0.1,0-0.2,0-0.4V381h1.9v10.9c0,0.9,0.4,1.8,1,2.5
			c0.7,0.7,1.7,1.1,2.7,1.1c1,0,2-0.3,2.8-0.8c0.9-0.5,1.6-1.3,2.2-2.2c0.6-1,0.8-2,0.8-3.1V381h1.9v15.7h-1.7l-0.2-4.9l0.3,1.1
			c-0.3,0.8-0.8,1.6-1.4,2.2c-0.7,0.7-1.5,1.2-2.4,1.5C108.6,397,107.6,397.2,106.6,397.1z"/>
		<path class="st1" d="M123.8,381l0.2,4.4l-0.3-0.4c0.5-1.3,1.5-2.5,2.7-3.2c1.2-0.8,2.6-1.2,4.1-1.2c0.8,0,1.6,0.2,2.4,0.5
			c0.7,0.3,1.3,0.8,1.7,1.4c0.4,0.6,0.7,1.3,0.8,2l-0.2,0.2c0.5-1.3,1.5-2.4,2.6-3c1.2-0.7,2.5-1,3.9-1c1.3-0.1,2.6,0.4,3.6,1.3
			c0.9,0.9,1.4,2.1,1.4,3.4v11.4h-1.9v-11c0-0.9-0.3-1.7-0.9-2.4c-0.7-0.7-1.6-1.1-2.6-1.1c-1,0-2,0.3-2.9,0.8
			c-0.9,0.5-1.6,1.3-2.1,2.1c-0.6,0.9-0.9,1.9-0.9,3v8.6h-1.9v-11c0-0.9-0.3-1.7-0.9-2.4c-0.7-0.7-1.6-1.1-2.6-1.1
			c-1.1,0-2.1,0.3-3,0.8c-1.9,1.1-3,3.1-3,5.3v8.4H122V381H123.8z"/>
		<path class="st1" d="M167.6,374.1h1.9v7.1h4.9v1.5h-4.9v14h-1.9v-14h-3.3v-1.5h3.3V374.1z"/>
		<path class="st1" d="M178.7,375.2c0-0.4,0.2-0.7,0.4-0.9c0.3-0.3,0.6-0.4,1-0.4c0.4,0,0.7,0.1,1,0.4c0.3,0.2,0.4,0.6,0.4,0.9
			c0,0.4-0.1,0.7-0.4,1c-0.3,0.3-0.6,0.4-1,0.4c-0.4,0-0.7-0.1-1-0.4C178.8,376,178.7,375.6,178.7,375.2z M179.1,381h1.9v15.7h-1.9
			L179.1,381z"/>
		<path class="st1" d="M189.7,381l0.2,4.4l-0.3-0.4c0.5-1.3,1.5-2.5,2.7-3.2c1.2-0.8,2.6-1.2,4.1-1.2c0.8,0,1.6,0.2,2.4,0.5
			c0.7,0.3,1.3,0.8,1.7,1.4c0.4,0.6,0.7,1.3,0.8,2l-0.2,0.2c0.5-1.3,1.5-2.4,2.6-3c1.2-0.7,2.5-1,3.9-1c1.3-0.1,2.6,0.4,3.6,1.3
			c0.9,0.9,1.4,2.1,1.4,3.4v11.4h-1.9v-11c0-0.9-0.3-1.7-0.9-2.4c-0.7-0.7-1.6-1.1-2.6-1.1c-1,0-2,0.3-2.9,0.8
			c-0.9,0.5-1.6,1.3-2.1,2.1c-0.6,0.9-0.9,1.9-0.9,3v8.6h-1.9v-11c0-0.9-0.3-1.7-0.9-2.4c-0.7-0.7-1.6-1.1-2.6-1.1
			c-1,0-2.1,0.3-2.9,0.8c-1.9,1.1-3,3.1-3,5.3v8.4h-1.8V381H189.7z"/>
		<path class="st1" d="M226.5,397c-1.5,0-3-0.3-4.3-1.1c-1.2-0.7-2.3-1.7-2.9-3c-0.7-1.3-1.1-2.7-1.1-4.2c0-1.5,0.4-2.9,1.1-4.2
			c0.7-1.2,1.8-2.3,3-3c1.3-0.8,2.8-1.1,4.2-1.1c1.7-0.1,3.4,0.5,4.7,1.6c1.3,1.1,2.3,2.6,2.8,4.3l-13.7,5.3l-0.6-1.4l12.6-4.9
			l-0.4,0.6c-0.5-1.1-1.2-2-2.1-2.8c-1-0.8-2.2-1.2-3.4-1.2c-1.1,0-2.3,0.3-3.3,0.9c-1,0.6-1.7,1.4-2.3,2.4c-0.6,1-0.9,2.2-0.9,3.4
			c0,1.1,0.3,2.3,0.8,3.3c1.1,2.1,3.3,3.4,5.7,3.4c0.8,0,1.7-0.2,2.5-0.5c0.8-0.3,1.5-0.7,2.1-1.3l1,1.4c-0.8,0.6-1.7,1.1-2.6,1.4
			C228.5,396.8,227.5,397,226.5,397z"/>
		<path class="st1" d="M251.1,375.2c0-0.4,0.2-0.7,0.4-0.9c0.3-0.3,0.6-0.4,1-0.4c0.4,0,0.7,0.1,1,0.4c0.3,0.2,0.4,0.6,0.4,0.9
			c0,0.4-0.1,0.7-0.4,1c-0.3,0.3-0.6,0.4-1,0.4c-0.4,0-0.7-0.1-1-0.4C251.3,376,251.1,375.6,251.1,375.2z M251.5,381h1.9v15.7h-1.9
			V381z"/>
		<path class="st1" d="M262.2,381l0.2,4.9l-0.2-1c0.4-1.4,1.4-2.5,2.6-3.2c1.3-0.8,2.7-1.2,4.2-1.2c1.3-0.1,2.6,0.4,3.6,1.3
			c0.9,0.9,1.4,2.1,1.4,3.4v11.5h-1.9v-10.9c0-0.9-0.4-1.8-1-2.5c-0.7-0.7-1.7-1.1-2.7-1c-2.1,0-4,1.1-5.1,2.9
			c-0.6,1-0.8,2.1-0.8,3.2v8.4h-1.9V381H262.2z"/>
		<path class="st1" d="M293.3,395.2c-0.7,0.6-1.6,1.1-2.5,1.4c-2.4,0.8-4.9,0.6-7.1-0.6c-1.2-0.7-2.3-1.7-3-2.9
			c-0.7-1.3-1.1-2.7-1.1-4.2c0-1.5,0.4-2.9,1.1-4.2c1.5-2.5,4.2-4,7.1-4c1,0,2,0.2,3,0.5c0.9,0.3,1.7,0.8,2.5,1.4l-1,1.3
			c-0.6-0.5-1.3-0.9-2-1.1c-0.8-0.3-1.6-0.4-2.4-0.4c-1.1,0-2.3,0.3-3.2,0.9c-1,0.6-1.8,1.4-2.3,2.4c-0.6,1-0.9,2.2-0.9,3.4
			c0,2.3,1.2,4.5,3.2,5.7c1,0.6,2.2,0.9,3.4,0.9c0.8,0,1.5-0.1,2.3-0.4c0.7-0.2,1.3-0.6,1.9-1L293.3,395.2z"/>
		<path class="st1" d="M300.1,381l0.2,4.8l-0.2-0.6c0.3-1,0.9-1.8,1.6-2.5c0.7-0.7,1.6-1.2,2.5-1.6c0.8-0.4,1.8-0.5,2.7-0.6
			l-0.1,1.9c-1.1,0-2.3,0.3-3.3,0.8c-0.9,0.5-1.7,1.2-2.3,2.1c-0.6,0.9-0.9,1.9-0.9,3v8.3h-1.9V381H300.1z"/>
		<path class="st1" d="M316.5,372.6l-4.3,5.4h-1.4l3.5-5.3L316.5,372.6z M312.2,381h1.9v15.7h-1.9V381z"/>
		<path class="st1" d="M326.8,397.3l-7.9-16.3h2.2l6.5,14.3h-1.2l6.3-14.3h2.1l-7.8,16.3H326.8z"/>
		<path class="st1" d="M346.1,397c-1.5,0-3-0.4-4.3-1.1c-1.2-0.7-2.3-1.7-3-3c-0.7-1.3-1.1-2.7-1.1-4.2c0-1.5,0.4-2.9,1.1-4.2
			c0.7-1.2,1.8-2.3,3-3c1.3-0.8,2.8-1.1,4.2-1.1c1.7,0,3.4,0.5,4.7,1.6c1.3,1.1,2.3,2.6,2.7,4.3l-13.7,5.3l-0.6-1.4l12.6-4.9
			l-0.4,0.6c-0.5-1.1-1.2-2-2.1-2.8c-1-0.8-2.2-1.2-3.4-1.1c-1.1,0-2.3,0.3-3.3,0.9c-1,0.6-1.7,1.4-2.3,2.4c-0.6,1-0.9,2.2-0.9,3.4
			c0,1.1,0.3,2.3,0.8,3.3c0.5,1,1.3,1.9,2.3,2.5c1,0.6,2.2,0.9,3.4,0.9c0.8,0,1.7-0.2,2.5-0.5c0.8-0.3,1.5-0.7,2.1-1.3l1,1.4
			c-0.8,0.6-1.7,1.1-2.6,1.4C348.2,396.8,347.1,397,346.1,397z"/>
		<path class="st1" d="M358.8,366.2h1.9v30.5h-1.9V366.2z"/>
		<path class="st1" d="M104.4,155.7c-15.6,0-28.2-12.6-28.2-28.2c0-15.6,12.6-28.2,28.2-28.2c15.6,0,28.2,12.6,28.2,28.2
			C132.6,143.1,120,155.7,104.4,155.7z M104.4,108.4c-10.6,0-19.1,8.6-19.1,19.1c0,10.6,8.6,19.1,19.1,19.1s19.1-8.6,19.1-19.1l0,0
			C123.5,116.9,114.9,108.4,104.4,108.4z"/>
		<path class="st1" d="M137.2,250.4H71.6c-8.6,0-15.5-7-15.5-15.5c0-0.8,0.1-1.7,0.2-2.5l10.9-65.6c1.2-7.5,7.7-12.9,15.3-12.9h43.7
			c7.6,0,14,5.5,15.3,12.9l10.9,65.6c1.4,8.4-4.3,16.4-12.7,17.8C138.9,250.4,138,250.4,137.2,250.4z M82.5,163
			c-3.1,0-5.8,2.2-6.3,5.3l-10.9,65.6c-0.6,3.5,1.8,6.8,5.2,7.3c0.3,0.1,0.7,0.1,1,0.1h65.6c3.5,0,6.4-2.8,6.4-6.4
			c0-0.4,0-0.7-0.1-1.1l-10.9-65.6c-0.5-3.1-3.2-5.3-6.3-5.3L82.5,163z"/>
		<polygon class="st1" points="111.7,205.8 104.4,213.1 97.1,205.8 100.7,158.5 108,158.5 		"/>
		<path class="st1" d="M104.4,103.8h-0.1c-13,0-23.6,10.6-23.6,23.6c0,1.5,0.1,2.9,0.4,4.4c3-7.5,3.4-9,12.5-7.2
			c8.5,1.7,22.5-0.2,27.6-5.7c2.6,3.6,4.5,4.8,6.9,9.1c0-0.2,0-0.4,0-0.6C128,114.5,117.5,103.9,104.4,103.8z"/>
		<path class="st1" d="M191.4,155.7c-15.6,0-28.2-12.6-28.2-28.2c0-15.6,12.6-28.2,28.2-28.2c15.6,0,28.2,12.6,28.2,28.2
			C219.7,143.1,207,155.7,191.4,155.7z M191.4,108.4c-10.6,0-19.1,8.6-19.1,19.1s8.6,19.1,19.1,19.1c10.6,0,19.1-8.6,19.1-19.1
			C210.6,116.9,202,108.4,191.4,108.4z"/>
		<path class="st1" d="M224.2,250.4h-65.6c-8.6,0-15.5-7-15.5-15.5c0-0.8,0.1-1.7,0.2-2.5l10.9-65.6c1.2-7.5,7.7-13,15.3-12.9h43.7
			c7.6,0,14,5.5,15.3,12.9l10.9,65.6c1.4,8.4-4.3,16.4-12.8,17.8C225.9,250.4,225.1,250.4,224.2,250.4z M169.6,163
			c-3.1,0-5.8,2.2-6.3,5.3l-10.9,65.6c-0.6,3.5,1.8,6.8,5.2,7.3c0.4,0.1,0.7,0.1,1.1,0.1h65.6c3.5,0,6.4-2.9,6.4-6.4
			c0-0.4,0-0.7-0.1-1l-10.9-65.6c-0.5-3.1-3.2-5.4-6.3-5.3H169.6z"/>
		<polygon class="st1" points="198.7,205.8 191.4,213.1 184.2,205.8 187.8,158.5 195.1,158.5 		"/>
		<path class="st1" d="M191.5,103.8h-0.1c-13,0-23.6,10.6-23.6,23.6c0,1.5,0.1,2.9,0.4,4.4c3-7.5,3.4-9,12.5-7.2
			c8.5,1.7,22.5-0.2,27.6-5.7c2.6,3.6,4.5,4.8,6.9,9.1c0-0.2,0-0.4,0-0.6C215.1,114.5,204.5,103.9,191.5,103.8z"/>
		<path class="st1" d="M278.9,155.7c-15.6,0-28.2-12.6-28.2-28.2c0-15.6,12.6-28.2,28.2-28.2c15.6,0,28.2,12.6,28.2,28.2
			C307.1,143.1,294.4,155.7,278.9,155.7z M278.9,108.4c-10.6,0-19.1,8.6-19.1,19.1c0,10.6,8.6,19.1,19.1,19.1
			c10.6,0,19.1-8.6,19.1-19.1C298,116.9,289.4,108.4,278.9,108.4z"/>
		<path class="st1" d="M311.6,250.4h-65.6c-8.5,0-15.5-6.9-15.5-15.5c0-0.8,0.1-1.7,0.2-2.5l10.9-65.6c1.2-7.5,7.7-13,15.3-12.9
			h43.7c7.6,0,14.1,5.4,15.3,12.9l10.9,65.6c1.4,8.4-4.3,16.4-12.8,17.8C313.3,250.3,312.5,250.4,311.6,250.4L311.6,250.4z M257,163
			c-3.1,0-5.8,2.2-6.3,5.3l-10.9,65.6c-0.6,3.5,1.8,6.8,5.2,7.3c0.4,0.1,0.7,0.1,1.1,0.1h65.6c3.5,0,6.4-2.9,6.4-6.4
			c0-0.4,0-0.7-0.1-1L307,168.3c-0.5-3.1-3.2-5.3-6.3-5.3L257,163z"/>
		<polygon class="st1" points="286.1,205.8 278.9,213.1 271.6,205.8 275.2,158.5 282.5,158.5 		"/>
		<path class="st1" d="M278.9,103.8h-0.1c-13,0-23.6,10.6-23.6,23.6c0,1.5,0.1,2.9,0.4,4.4c3-7.5,3.4-9,12.5-7.2
			c8.5,1.7,22.5-0.2,27.5-5.7c2.6,3.6,4.5,4.8,6.9,9.1c0-0.2,0-0.4,0-0.6C302.5,114.5,291.9,103.9,278.9,103.8z"/>
		<path class="st1" d="M366.1,155.7c-15.6,0-28.2-12.6-28.2-28.2s12.6-28.2,28.2-28.2c15.6,0,28.2,12.6,28.2,28.2
			C394.3,143.1,381.7,155.7,366.1,155.7z M366.1,108.4c-10.6,0-19.1,8.6-19.1,19.1s8.6,19.1,19.1,19.1c10.6,0,19.1-8.6,19.1-19.1
			C385.2,116.9,376.7,108.4,366.1,108.4z"/>
		<path class="st1" d="M398.9,250.4h-65.6c-8.5,0-15.5-6.9-15.5-15.5c0-0.8,0.1-1.7,0.2-2.5l10.9-65.6c1.2-7.5,7.7-13,15.3-12.9H388
			c7.6,0,14,5.5,15.3,12.9l10.9,65.6c1.4,8.4-4.3,16.4-12.8,17.8C400.6,250.3,399.8,250.4,398.9,250.4L398.9,250.4z M344.3,163
			c-3.1,0-5.8,2.2-6.3,5.3l-10.9,65.6c-0.6,3.5,1.8,6.8,5.2,7.3c0.4,0.1,0.7,0.1,1.1,0.1h65.6c3.5,0,6.4-2.9,6.4-6.4
			c0-0.4,0-0.7-0.1-1l-10.9-65.6c-0.5-3.1-3.2-5.3-6.3-5.3H344.3z"/>
		<polygon class="st1" points="373.4,205.8 366.1,213.1 358.9,205.8 362.5,158.5 369.8,158.5 		"/>
		<path class="st1" d="M366.1,103.8H366c-13,0-23.6,10.6-23.6,23.6c0,1.5,0.1,2.9,0.4,4.4c3-7.5,3.4-9,12.5-7.2
			c8.5,1.7,22.5-0.2,27.5-5.7c2.6,3.6,4.5,4.8,6.9,9.1c0-0.2,0-0.4,0-0.6C389.8,114.5,379.2,103.9,366.1,103.8z"/>
	</g>
</g>
</svg>
