<svg xmlns="http://www.w3.org/2000/svg" viewBox="0 0 442.96 410.31"><defs><style>.cls-1{fill:#65140f;}.cls-2{fill:#fff;}.cls-3{fill:#e10d22;}</style></defs><g id="Camada_2" data-name="Camada 2"><g id="Camada_1-2" data-name="Camada 1"><rect class="cls-1" width="442.96" height="410.31"/><path class="cls-2" d="M166.2,127.38a16.16,16.16,0,0,1-2.83,1.46,29.38,29.38,0,0,1-3.54,1.2,32.8,32.8,0,0,1-3.87.82,26.38,26.38,0,0,1-3.74.29,26,26,0,0,1-9.85-1.79,22.22,22.22,0,0,1-7.5-4.94,21.58,21.58,0,0,1-4.78-7.34,24.37,24.37,0,0,1-1.66-9.07,24.93,24.93,0,0,1,1.85-9.69,23.31,23.31,0,0,1,5.11-7.63,22.84,22.84,0,0,1,7.54-5A23.78,23.78,0,0,1,152,84a24.92,24.92,0,0,1,6.85.91,23.89,23.89,0,0,1,5.82,2.47l-1.17,2.86a18.23,18.23,0,0,0-3.38-1.59,25.81,25.81,0,0,0-3.87-1.08,20.3,20.3,0,0,0-3.93-.39,21.19,21.19,0,0,0-8.19,1.56,19.94,19.94,0,0,0-10.92,10.92,21.26,21.26,0,0,0-1.56,8.19,21.47,21.47,0,0,0,1.46,8,19.46,19.46,0,0,0,4.16,6.43,18.87,18.87,0,0,0,6.47,4.29,22.11,22.11,0,0,0,8.39,1.53,27.2,27.2,0,0,0,5.72-.65,17.57,17.57,0,0,0,5.13-1.89v-12.8h-10.4v-3.06H166.2Z"/><path class="cls-2" d="M189,131.15a13.86,13.86,0,0,1-7-1.76,12.66,12.66,0,0,1-4.78-4.77,13.48,13.48,0,0,1-1.72-6.8,13,13,0,0,1,1.82-6.76,13.72,13.72,0,0,1,4.91-4.87,13.28,13.28,0,0,1,6.86-1.82,11.3,11.3,0,0,1,7.63,2.66,15,15,0,0,1,4.46,7l-22.23,8.58-.91-2.21,20.34-7.93-.65.91a11.92,11.92,0,0,0-3.35-4.49,8.26,8.26,0,0,0-5.49-1.88,9.91,9.91,0,0,0-5.26,1.43,10.64,10.64,0,0,0-5.14,9.29,11,11,0,0,0,1.33,5.33,10.48,10.48,0,0,0,3.74,4,10.22,10.22,0,0,0,5.53,1.49,10.47,10.47,0,0,0,4-.78,13.17,13.17,0,0,0,3.42-2l1.56,2.21a16.4,16.4,0,0,1-4.2,2.34A13.53,13.53,0,0,1,189,131.15Z"/><path class="cls-2" d="M215.6,131.15a14.18,14.18,0,0,1-4.62-.82,8.37,8.37,0,0,1-3.9-2.63l1.43-2a10,10,0,0,0,3.09,2.18,9.1,9.1,0,0,0,3.8.81,9.36,9.36,0,0,0,2.83-.42,4.54,4.54,0,0,0,2.18-1.47,4.3,4.3,0,0,0,.84-2.79,3.7,3.7,0,0,0-1-2.8,7.7,7.7,0,0,0-2.53-1.59c-1-.41-2.09-.79-3.22-1.14a12.89,12.89,0,0,1-4.58-2.47,5.56,5.56,0,0,1-1.79-4.42,6.59,6.59,0,0,1,1-3.64,6.8,6.8,0,0,1,2.76-2.43,8.68,8.68,0,0,1,4-.88,12.82,12.82,0,0,1,4,.65,9.37,9.37,0,0,1,3.61,2.21l-1.36,2.14a5.24,5.24,0,0,0-2.77-1.95,13,13,0,0,0-3-.58,6.57,6.57,0,0,0-2.31.45,5.23,5.23,0,0,0-2,1.34,3.25,3.25,0,0,0-.81,2.3,3.53,3.53,0,0,0,.84,2.44,6.19,6.19,0,0,0,2.18,1.53c.89.39,1.81.76,2.76,1.1a24.38,24.38,0,0,1,3.54,1.4,7.8,7.8,0,0,1,2.73,2.15,5.42,5.42,0,0,1,1.08,3.54,8.26,8.26,0,0,1-1,4,6.78,6.78,0,0,1-2.89,2.79A10.37,10.37,0,0,1,215.6,131.15Z"/><path class="cls-2" d="M236.07,94h3.12v11.51h7.87V108h-7.87v22.62h-3.12V108h-5.39v-2.47h5.39Z"/><path class="cls-2" d="M265.19,131.15a13.21,13.21,0,0,1-6.6-1.66,12.15,12.15,0,0,1-4.68-4.65,13.65,13.65,0,0,1-1.72-7,13.84,13.84,0,0,1,1.82-7.25A12,12,0,0,1,259,106a15.26,15.26,0,0,1,7.09-1.6,12.11,12.11,0,0,1,10.72,7.09l-.45.91.39-7.22h2.73v25.42h-3.06v-7.87l.65,1.17a7.75,7.75,0,0,1-1.56,2.57,14.11,14.11,0,0,1-6.21,4A13.22,13.22,0,0,1,265.19,131.15Zm.65-2.6a11,11,0,0,0,5.17-1.2,9.87,9.87,0,0,0,5.36-8.29v-3.64a10.17,10.17,0,0,0-2.05-4.29,11.09,11.09,0,0,0-3.73-3,11,11,0,0,0-10.08.23,10,10,0,0,0-3.83,3.73,10.82,10.82,0,0,0-1.43,5.66,10.49,10.49,0,0,0,1.43,5.43,10.9,10.9,0,0,0,3.86,3.89A10.08,10.08,0,0,0,265.84,128.55Zm6.44-27.69a5,5,0,0,1-3.16-1,18.83,18.83,0,0,1-2.24-2c-.56-.56-1.14-1.1-1.72-1.59a3.07,3.07,0,0,0-2.05-.75,2.54,2.54,0,0,0-1.53.55,4.19,4.19,0,0,0-1.26,1.75,9.09,9.09,0,0,0-.59,3.29l-2-.07a10.49,10.49,0,0,1,.68-4.32,6.24,6.24,0,0,1,2-2.7,4.61,4.61,0,0,1,2.79-.91,4.52,4.52,0,0,1,2.93.95,20.31,20.31,0,0,1,2.14,2,16.13,16.13,0,0,0,1.76,1.75,3.17,3.17,0,0,0,2.14.78,2.57,2.57,0,0,0,2.18-1.3,9,9,0,0,0,1-4.42l2,.07a11.75,11.75,0,0,1-.62,4.39,5.81,5.81,0,0,1-1.85,2.66A4.21,4.21,0,0,1,272.28,100.86Z"/><path class="cls-2" d="M288.53,117.76a13.18,13.18,0,0,1,6.66-11.6,14.35,14.35,0,0,1,13.88,0,13.06,13.06,0,0,1,4.81,4.84,13.93,13.93,0,0,1,0,13.52,13,13,0,0,1-4.85,4.84,13.57,13.57,0,0,1-6.92,1.79,14,14,0,0,1-6.95-1.72,12.86,12.86,0,0,1-4.85-4.75A13.35,13.35,0,0,1,288.53,117.76Zm3.05.06a10.71,10.71,0,0,0,5.17,9.3,10.52,10.52,0,0,0,10.59,0,10.93,10.93,0,0,0,0-18.62,9.83,9.83,0,0,0-5.29-1.47,9.68,9.68,0,0,0-5.37,1.53,10.93,10.93,0,0,0-3.73,4A10.72,10.72,0,0,0,291.58,117.82Z"/><path class="cls-2" d="M65.61,149.48H94.08v3.05H68.8v18.33H91.55v3.06H68.8v18.65H95v3.06H65.61Z"/><path class="cls-2" d="M111.56,196.15a14.17,14.17,0,0,1-4.61-.82,8.32,8.32,0,0,1-3.9-2.63l1.43-2a9.82,9.82,0,0,0,3.09,2.18,9.1,9.1,0,0,0,3.8.81,9.36,9.36,0,0,0,2.83-.42,4.51,4.51,0,0,0,2.17-1.47,4.24,4.24,0,0,0,.85-2.79,3.74,3.74,0,0,0-1-2.8,7.81,7.81,0,0,0-2.53-1.59c-1-.41-2.09-.79-3.22-1.14a12.81,12.81,0,0,1-4.58-2.47,5.52,5.52,0,0,1-1.79-4.42,6.51,6.51,0,0,1,1-3.64,6.8,6.8,0,0,1,2.76-2.43,8.67,8.67,0,0,1,4-.88,12.83,12.83,0,0,1,4,.65,9.44,9.44,0,0,1,3.61,2.21l-1.37,2.14a5.18,5.18,0,0,0-2.76-1.95,13,13,0,0,0-3-.58,6.57,6.57,0,0,0-2.31.45,5.23,5.23,0,0,0-2,1.34,3.21,3.21,0,0,0-.82,2.3,3.49,3.49,0,0,0,.85,2.44,6.19,6.19,0,0,0,2.18,1.53c.88.39,1.81.76,2.76,1.1a24.38,24.38,0,0,1,3.54,1.4,7.8,7.8,0,0,1,2.73,2.15,5.42,5.42,0,0,1,1.07,3.54,8.25,8.25,0,0,1-1,4,6.83,6.83,0,0,1-2.89,2.79A10.41,10.41,0,0,1,111.56,196.15Z"/><path class="cls-2" d="M132,159h3.12v11.51H143V173h-7.86v22.62H132V173h-5.4v-2.47H132Z"/><path class="cls-2" d="M153.29,170.21l.33,7.8-.39-1a10.12,10.12,0,0,1,2.66-4,13.31,13.31,0,0,1,4.07-2.6,11.37,11.37,0,0,1,4.32-.91l-.13,3a10.81,10.81,0,0,0-5.3,1.3,10.2,10.2,0,0,0-3.77,3.48,8.88,8.88,0,0,0-1.4,4.9v13.46h-3.05V170.21Z"/><path class="cls-2" d="M183.06,196.15a13.2,13.2,0,0,1-6.59-1.66,12,12,0,0,1-4.68-4.65,13.65,13.65,0,0,1-1.73-7,13.84,13.84,0,0,1,1.82-7.25,12.05,12.05,0,0,1,4.94-4.61,15.29,15.29,0,0,1,7.09-1.6,12.11,12.11,0,0,1,10.72,7.09l-.45.91.39-7.22h2.73v25.42h-3.06v-7.87l.65,1.17a7.75,7.75,0,0,1-1.56,2.57,13.51,13.51,0,0,1-2.69,2.34,13.89,13.89,0,0,1-3.51,1.69A13.28,13.28,0,0,1,183.06,196.15Zm.65-2.6a11,11,0,0,0,5.17-1.2,9.87,9.87,0,0,0,5.36-8.29v-3.64a10.16,10.16,0,0,0-2-4.29,11.13,11.13,0,0,0-3.74-3,10.56,10.56,0,0,0-4.81-1.11,10.7,10.7,0,0,0-5.27,1.34,10,10,0,0,0-3.83,3.73,10.92,10.92,0,0,0-1.43,5.66,10.59,10.59,0,0,0,1.43,5.43,10.85,10.85,0,0,0,3.87,3.89A10.05,10.05,0,0,0,183.71,193.55Z"/><path class="cls-2" d="M211.4,159h3.12v11.51h7.87V173h-7.87v22.62H211.4V173H206v-2.47h5.39Z"/><path class="cls-2" d="M241,196.15a13.86,13.86,0,0,1-7-1.76,12.63,12.63,0,0,1-4.77-4.77,13.48,13.48,0,0,1-1.73-6.8,13,13,0,0,1,1.82-6.76,13.8,13.8,0,0,1,4.91-4.87,13.28,13.28,0,0,1,6.86-1.82,11.32,11.32,0,0,1,7.64,2.66,15,15,0,0,1,4.45,7L231,187.57l-.91-2.21,20.34-7.93-.65.91a11.89,11.89,0,0,0-3.34-4.49,8.3,8.3,0,0,0-5.5-1.88,9.91,9.91,0,0,0-5.26,1.43,10.64,10.64,0,0,0-5.14,9.29,11,11,0,0,0,1.34,5.33,10.38,10.38,0,0,0,3.73,4,10.25,10.25,0,0,0,5.53,1.49,10.55,10.55,0,0,0,4-.78,13.27,13.27,0,0,0,3.41-2l1.56,2.21a16.33,16.33,0,0,1-4.19,2.34A13.62,13.62,0,0,1,241,196.15Zm4.49-39.91-6.89,8.64h-2.21l5.65-8.64Z"/><path class="cls-2" d="M273,208a17.12,17.12,0,0,1-4.1-.48A13.49,13.49,0,0,1,265,205.9a24.94,24.94,0,0,1-3.9-3.06l1.82-2.08a16.75,16.75,0,0,0,5.2,3.61,12.72,12.72,0,0,0,4.68.94,13.34,13.34,0,0,0,6.3-1.26,7.73,7.73,0,0,0,3.38-3.39,11.11,11.11,0,0,0,1.11-4.71l.06-8.25.72.78a11.36,11.36,0,0,1-4.65,5.52,13.74,13.74,0,0,1-7.57,2.15,12.4,12.4,0,0,1-6.53-1.79,13.28,13.28,0,0,1-6.47-11.54,12.83,12.83,0,0,1,6.76-11.66,14,14,0,0,1,6.89-1.73,13.14,13.14,0,0,1,6.66,1.82,11,11,0,0,1,4.58,4.81l-.39,1.43.33-7.28h2.73V196a12.86,12.86,0,0,1-1.4,5.88,10.47,10.47,0,0,1-4.42,4.45A16.22,16.22,0,0,1,273,208Zm-10.73-25.28a10.59,10.59,0,0,0,1.43,5.43,11,11,0,0,0,3.87,3.89,10.31,10.31,0,0,0,5.43,1.47,10.85,10.85,0,0,0,9-4.68,9.2,9.2,0,0,0,1.69-4.62v-3.77a10.16,10.16,0,0,0-2-4.35A11.08,11.08,0,0,0,273,172a10.92,10.92,0,0,0-5.43,1.37,10.37,10.37,0,0,0-3.87,3.77A10.76,10.76,0,0,0,262.23,182.76Z"/><path class="cls-2" d="M297.66,160.85a2,2,0,0,1,.71-1.52,2.31,2.31,0,0,1,1.56-.62,2.14,2.14,0,0,1,1.56.62,2,2,0,0,1,.65,1.52,2.1,2.1,0,0,1-.65,1.6,2.17,2.17,0,0,1-1.56.61,2.26,2.26,0,0,1-1.56-.65A2,2,0,0,1,297.66,160.85Zm.65,9.36h3.05v25.42h-3.05Z"/><path class="cls-2" d="M332.56,193.16a13.24,13.24,0,0,1-4,2.21,13.79,13.79,0,0,1-4.62.78,14,14,0,0,1-7-1.72,12.68,12.68,0,0,1-4.81-4.72,13.2,13.2,0,0,1-1.76-6.82,12.92,12.92,0,0,1,1.82-6.83,13.35,13.35,0,0,1,4.85-4.71,13,13,0,0,1,6.59-1.72,15.09,15.09,0,0,1,4.94.78,12.09,12.09,0,0,1,4,2.21L331,174.7a12,12,0,0,0-3.18-1.82,10.56,10.56,0,0,0-3.9-.72,10,10,0,0,0-5.24,1.43,10.75,10.75,0,0,0,9.14,19.34,11.38,11.38,0,0,0,3.05-1.66Z"/><path class="cls-2" d="M351.61,196.15a13.21,13.21,0,0,1-6.6-1.66,12.15,12.15,0,0,1-4.68-4.65,15.13,15.13,0,0,1,.1-14.2,12,12,0,0,1,4.94-4.61,15.25,15.25,0,0,1,7.08-1.6,12.14,12.14,0,0,1,10.73,7.09l-.46.91.39-7.22h2.73v25.42h-3v-7.87l.65,1.17a8.09,8.09,0,0,1-1.56,2.57,13.87,13.87,0,0,1-2.7,2.34,13.57,13.57,0,0,1-3.51,1.69A13.22,13.22,0,0,1,351.61,196.15Zm.65-2.6a11,11,0,0,0,5.16-1.2,9.91,9.91,0,0,0,5.37-8.29v-3.64a10.17,10.17,0,0,0-2.05-4.29,11.13,11.13,0,0,0-3.74-3,11,11,0,0,0-10.07.23,10,10,0,0,0-3.84,3.73,10.92,10.92,0,0,0-1.43,5.66,10.59,10.59,0,0,0,1.43,5.43,11,11,0,0,0,3.87,3.89A10.08,10.08,0,0,0,352.26,193.55Z"/><path class="cls-2" d="M380.92,190q-1.43,3.39-2.79,6.73c-.91,2.23-1.85,4.5-2.8,6.79h-2.6c.87-2.29,1.71-4.56,2.54-6.79l2.47-6.73Z"/><path class="cls-2" d="M117.54,261.73l-36.4-41,.85-.65.06,40.56H78.93V213.5h.2l36.4,41.34-.85.26-.06-40.62h3v47.25Z"/><path class="cls-2" d="M138.8,261.34a7.52,7.52,0,0,1-8-7.6V235.21h3.06v17.62a6.44,6.44,0,0,0,1.59,4.09,6,6,0,0,0,4.39,1.76,8.69,8.69,0,0,0,4.61-1.3,10.12,10.12,0,0,0,3.48-3.55,9.75,9.75,0,0,0,1.33-5.1V235.21h3.06v25.42h-2.73l-.33-8,.46,1.76a8.62,8.62,0,0,1-2.31,3.54,12,12,0,0,1-3.9,2.5A12.31,12.31,0,0,1,138.8,261.34Zm8.06-40.1L140,229.88h-2.21l5.65-8.64Z"/><path class="cls-2" d="M166.55,235.21l.33,7.09-.46-.65a10.69,10.69,0,0,1,4.33-5.24,12.11,12.11,0,0,1,6.59-1.91,9,9,0,0,1,3.87.81,7.4,7.4,0,0,1,2.79,2.21,6.25,6.25,0,0,1,1.27,3.22l-.39.39a10,10,0,0,1,4.29-4.94,12.36,12.36,0,0,1,6.31-1.69,7.88,7.88,0,0,1,5.78,2.11,7.58,7.58,0,0,1,2.21,5.49v18.53h-3.05V242.75a6,6,0,0,0-1.43-3.86,5.53,5.53,0,0,0-4.16-1.73,8.92,8.92,0,0,0-4.68,1.3,10.44,10.44,0,0,0-3.48,3.45,9.77,9.77,0,0,0-1.46,4.81v13.91h-3.06V242.75a5.91,5.91,0,0,0-1.46-3.86,5.64,5.64,0,0,0-4.19-1.73,9.2,9.2,0,0,0-4.78,1.3,9.84,9.84,0,0,0-4.78,8.52v13.65h-3.05V235.21Z"/><path class="cls-2" d="M226.09,261.15a13.86,13.86,0,0,1-7-1.76,12.66,12.66,0,0,1-4.78-4.77,13.58,13.58,0,0,1-1.72-6.8,13,13,0,0,1,1.82-6.76,13.72,13.72,0,0,1,4.91-4.87,13.28,13.28,0,0,1,6.86-1.82,11.28,11.28,0,0,1,7.63,2.66,15,15,0,0,1,4.46,7L216,252.57l-.91-2.21,20.34-7.93-.65.91a11.92,11.92,0,0,0-3.35-4.49A8.26,8.26,0,0,0,226,237a9.91,9.91,0,0,0-5.26,1.43,10.64,10.64,0,0,0-5.14,9.29,11.12,11.12,0,0,0,1.33,5.33,10.48,10.48,0,0,0,3.74,4,10.22,10.22,0,0,0,5.53,1.49,10.47,10.47,0,0,0,4-.78,13.17,13.17,0,0,0,3.42-2l1.56,2.21a16.23,16.23,0,0,1-4.2,2.34A13.53,13.53,0,0,1,226.09,261.15Z"/><path class="cls-2" d="M249.36,235.21l.33,7.8-.39-1a10.12,10.12,0,0,1,2.66-4,13.27,13.27,0,0,1,4.06-2.6,11.45,11.45,0,0,1,4.33-.91l-.13,3a10.81,10.81,0,0,0-5.3,1.3,10.2,10.2,0,0,0-3.77,3.48,8.88,8.88,0,0,0-1.4,4.9v13.46H246.7V235.21Z"/><path class="cls-2" d="M265.42,247.76a13.24,13.24,0,0,1,6.66-11.6,14.35,14.35,0,0,1,13.88,0,13.06,13.06,0,0,1,4.81,4.84,13.93,13.93,0,0,1,0,13.52,13,13,0,0,1-4.85,4.84,13.54,13.54,0,0,1-6.92,1.79,14,14,0,0,1-6.95-1.72,12.83,12.83,0,0,1-4.84-4.75A13.27,13.27,0,0,1,265.42,247.76Zm3.05.06a10.71,10.71,0,0,0,5.17,9.3,10.54,10.54,0,0,0,10.6,0,10.94,10.94,0,0,0,0-18.62,9.88,9.88,0,0,0-5.3-1.47,9.65,9.65,0,0,0-5.36,1.53,11,11,0,0,0-3.74,4A10.72,10.72,0,0,0,268.47,247.82Z"/><path class="cls-2" d="M307.6,261.15a14.17,14.17,0,0,1-4.61-.82,8.27,8.27,0,0,1-3.9-2.63l1.43-2a9.89,9.89,0,0,0,3.08,2.18,9.15,9.15,0,0,0,3.81.81,9.3,9.3,0,0,0,2.82-.42,4.49,4.49,0,0,0,2.18-1.47,4.3,4.3,0,0,0,.85-2.79,3.74,3.74,0,0,0-1-2.8,7.75,7.75,0,0,0-2.54-1.59c-1-.41-2.09-.79-3.21-1.14a12.94,12.94,0,0,1-4.59-2.47,5.55,5.55,0,0,1-1.78-4.42,6.58,6.58,0,0,1,1-3.64,6.89,6.89,0,0,1,2.77-2.43,8.67,8.67,0,0,1,4-.88,12.88,12.88,0,0,1,4,.65,9.44,9.44,0,0,1,3.61,2.21l-1.37,2.14a5.18,5.18,0,0,0-2.76-1.95,13.09,13.09,0,0,0-3-.58,6.57,6.57,0,0,0-2.31.45,5.34,5.34,0,0,0-2,1.34,3.25,3.25,0,0,0-.81,2.3,3.49,3.49,0,0,0,.85,2.44,6.24,6.24,0,0,0,2.17,1.53c.89.39,1.81.76,2.77,1.1a25.32,25.32,0,0,1,3.54,1.4,8,8,0,0,1,2.73,2.15,5.47,5.47,0,0,1,1.07,3.54,8.25,8.25,0,0,1-1,4,6.8,6.8,0,0,1-2.9,2.79A10.34,10.34,0,0,1,307.6,261.15Z"/><path class="cls-2" d="M356.55,261.15a13.81,13.81,0,0,1-7-1.76,12.66,12.66,0,0,1-4.78-4.77,13.48,13.48,0,0,1-1.72-6.8,12.91,12.91,0,0,1,1.82-6.76,13.69,13.69,0,0,1,4.9-4.87,13.31,13.31,0,0,1,6.86-1.82,11.32,11.32,0,0,1,7.64,2.66,15,15,0,0,1,4.45,7l-22.23,8.58-.91-2.21,20.35-7.93-.65.91a12,12,0,0,0-3.35-4.49,8.29,8.29,0,0,0-5.49-1.88,9.94,9.94,0,0,0-5.27,1.43,10.6,10.6,0,0,0-5.13,9.29,11,11,0,0,0,1.33,5.33,10.41,10.41,0,0,0,3.74,4,10.19,10.19,0,0,0,5.52,1.49,10.52,10.52,0,0,0,4-.78,13.11,13.11,0,0,0,3.41-2l1.56,2.21a16.17,16.17,0,0,1-4.19,2.34A13.57,13.57,0,0,1,356.55,261.15Z"/><path class="cls-2" d="M111.37,279.48a18.1,18.1,0,0,1,7.51,1.46,11.14,11.14,0,0,1,5,4.36,13.54,13.54,0,0,1,1.79,7.24,15.83,15.83,0,0,1-.81,5,12.21,12.21,0,0,1-2.6,4.39,13,13,0,0,1-4.55,3.12,17.12,17.12,0,0,1-6.67,1.17h-7.15v19.37h-3.18V279.48ZM111,303.2a13,13,0,0,0,5.63-1.07,9.52,9.52,0,0,0,3.51-2.73,11,11,0,0,0,1.82-3.48,12,12,0,0,0,.55-3.38,10.9,10.9,0,0,0-.72-4,8.66,8.66,0,0,0-2.11-3.15,9.83,9.83,0,0,0-3.41-2.08,13.21,13.21,0,0,0-4.62-.75h-7.8V303.2Z"/><path class="cls-2" d="M137.82,300.21l.33,7.8-.39-1a10.12,10.12,0,0,1,2.66-4,13.27,13.27,0,0,1,4.06-2.6,11.45,11.45,0,0,1,4.33-.91l-.13,3a10.81,10.81,0,0,0-5.3,1.3,10.2,10.2,0,0,0-3.77,3.48,8.88,8.88,0,0,0-1.4,4.9v13.46h-3.05V300.21Z"/><path class="cls-2" d="M153.88,312.76a13.24,13.24,0,0,1,6.66-11.6,14.35,14.35,0,0,1,13.88,0,13.06,13.06,0,0,1,4.81,4.84,13.93,13.93,0,0,1,0,13.52,13,13,0,0,1-4.85,4.84,13.54,13.54,0,0,1-6.92,1.79,14,14,0,0,1-7-1.72,12.83,12.83,0,0,1-4.84-4.75A13.27,13.27,0,0,1,153.88,312.76Zm3.05.06a10.71,10.71,0,0,0,5.17,9.3,10.54,10.54,0,0,0,10.6,0,10.94,10.94,0,0,0,0-18.62,9.88,9.88,0,0,0-5.3-1.47,9.65,9.65,0,0,0-5.36,1.53,11,11,0,0,0-3.74,4A10.72,10.72,0,0,0,156.93,312.82Z"/><path class="cls-2" d="M209.71,323.16a13.24,13.24,0,0,1-4,2.21,14.57,14.57,0,0,1-11.57-.94,12.68,12.68,0,0,1-4.81-4.72,13.2,13.2,0,0,1-1.76-6.82,12.92,12.92,0,0,1,1.82-6.83,13.32,13.32,0,0,1,4.84-4.71,13.11,13.11,0,0,1,6.6-1.72,15.09,15.09,0,0,1,4.94.78,12.09,12.09,0,0,1,4,2.21l-1.63,2.08a12,12,0,0,0-3.18-1.82,10.56,10.56,0,0,0-3.9-.72,10,10,0,0,0-5.24,1.43,11,11,0,0,0-3.77,14.66A10.81,10.81,0,0,0,205,322.93a11.38,11.38,0,0,0,3.05-1.66Z"/><path class="cls-2" d="M229.28,326.15a13.81,13.81,0,0,1-7-1.76,12.66,12.66,0,0,1-4.78-4.77,13.48,13.48,0,0,1-1.72-6.8,12.91,12.91,0,0,1,1.82-6.76,13.69,13.69,0,0,1,4.9-4.87,13.31,13.31,0,0,1,6.86-1.82A11.32,11.32,0,0,1,237,302a15,15,0,0,1,4.45,7l-22.23,8.58-.91-2.21,20.35-7.93-.65.91a12,12,0,0,0-3.35-4.49,8.29,8.29,0,0,0-5.49-1.88,9.94,9.94,0,0,0-5.27,1.43,10.6,10.6,0,0,0-5.13,9.29,11,11,0,0,0,1.33,5.33,10.41,10.41,0,0,0,3.74,4,10.19,10.19,0,0,0,5.52,1.49,10.52,10.52,0,0,0,4-.78,13.11,13.11,0,0,0,3.41-2l1.56,2.21a16.17,16.17,0,0,1-4.19,2.34A13.57,13.57,0,0,1,229.28,326.15Z"/><path class="cls-2" d="M255.86,326.15a14.17,14.17,0,0,1-4.61-.82,8.27,8.27,0,0,1-3.9-2.63l1.43-2a9.89,9.89,0,0,0,3.08,2.18,9.15,9.15,0,0,0,3.81.81,9.3,9.3,0,0,0,2.82-.42,4.49,4.49,0,0,0,2.18-1.47,4.3,4.3,0,0,0,.85-2.79,3.74,3.74,0,0,0-1-2.8,7.75,7.75,0,0,0-2.54-1.59c-1-.41-2.09-.79-3.21-1.14a12.94,12.94,0,0,1-4.59-2.47,5.55,5.55,0,0,1-1.78-4.42,6.58,6.58,0,0,1,1-3.64,6.89,6.89,0,0,1,2.77-2.43,8.67,8.67,0,0,1,4-.88,12.88,12.88,0,0,1,4,.65,9.44,9.44,0,0,1,3.61,2.21l-1.37,2.14a5.18,5.18,0,0,0-2.76-1.95,13.09,13.09,0,0,0-3-.58,6.57,6.57,0,0,0-2.31.45,5.34,5.34,0,0,0-2,1.34,3.25,3.25,0,0,0-.81,2.3,3.49,3.49,0,0,0,.85,2.44,6.24,6.24,0,0,0,2.17,1.53c.89.39,1.81.76,2.77,1.1a25.32,25.32,0,0,1,3.54,1.4,8,8,0,0,1,2.73,2.15,5.47,5.47,0,0,1,1.07,3.54,8.25,8.25,0,0,1-1,4,6.8,6.8,0,0,1-2.9,2.79A10.34,10.34,0,0,1,255.86,326.15Z"/><path class="cls-2" d="M279.78,326.15a14.17,14.17,0,0,1-4.61-.82,8.27,8.27,0,0,1-3.9-2.63l1.43-2a9.89,9.89,0,0,0,3.08,2.18,9.15,9.15,0,0,0,3.81.81,9.3,9.3,0,0,0,2.82-.42,4.49,4.49,0,0,0,2.18-1.47,4.3,4.3,0,0,0,.85-2.79,3.74,3.74,0,0,0-1-2.8,7.75,7.75,0,0,0-2.54-1.59c-1-.41-2.09-.79-3.21-1.14a12.94,12.94,0,0,1-4.59-2.47,5.55,5.55,0,0,1-1.78-4.42,6.58,6.58,0,0,1,1-3.64,6.89,6.89,0,0,1,2.77-2.43,8.67,8.67,0,0,1,4-.88,12.88,12.88,0,0,1,4,.65,9.44,9.44,0,0,1,3.61,2.21l-1.37,2.14a5.18,5.18,0,0,0-2.76-1.95,13.09,13.09,0,0,0-3-.58,6.57,6.57,0,0,0-2.31.45,5.34,5.34,0,0,0-2,1.34,3.25,3.25,0,0,0-.81,2.3,3.49,3.49,0,0,0,.85,2.44,6.24,6.24,0,0,0,2.17,1.53c.89.39,1.81.76,2.77,1.1a25.32,25.32,0,0,1,3.54,1.4,8,8,0,0,1,2.73,2.15,5.47,5.47,0,0,1,1.07,3.54,8.25,8.25,0,0,1-1,4,6.8,6.8,0,0,1-2.9,2.79A10.34,10.34,0,0,1,279.78,326.15Z"/><path class="cls-2" d="M295.25,312.76a13.24,13.24,0,0,1,6.66-11.6,14.35,14.35,0,0,1,13.88,0A13,13,0,0,1,320.6,306a13.86,13.86,0,0,1,0,13.52,12.92,12.92,0,0,1-4.84,4.84,13.59,13.59,0,0,1-6.92,1.79,14,14,0,0,1-7-1.72,12.83,12.83,0,0,1-4.84-4.75A13.36,13.36,0,0,1,295.25,312.76Zm3.06.06a10.67,10.67,0,0,0,5.16,9.3,10.54,10.54,0,0,0,10.6,0,10.93,10.93,0,0,0,0-18.62,9.86,9.86,0,0,0-5.3-1.47,9.68,9.68,0,0,0-5.36,1.53,11,11,0,0,0-3.74,4A10.71,10.71,0,0,0,298.31,312.82Z"/><path class="cls-2" d="M337.44,326.15a14.18,14.18,0,0,1-4.62-.82,8.37,8.37,0,0,1-3.9-2.63l1.43-2a10,10,0,0,0,3.09,2.18,9.1,9.1,0,0,0,3.8.81,9.36,9.36,0,0,0,2.83-.42,4.54,4.54,0,0,0,2.18-1.47,4.3,4.3,0,0,0,.84-2.79,3.74,3.74,0,0,0-1-2.8,7.7,7.7,0,0,0-2.53-1.59c-1-.41-2.09-.79-3.22-1.14a12.89,12.89,0,0,1-4.58-2.47,5.56,5.56,0,0,1-1.79-4.42,6.59,6.59,0,0,1,1-3.64,6.8,6.8,0,0,1,2.76-2.43,8.68,8.68,0,0,1,4-.88,12.82,12.82,0,0,1,4,.65,9.37,9.37,0,0,1,3.61,2.21l-1.36,2.14a5.24,5.24,0,0,0-2.77-1.95,13,13,0,0,0-3-.58,6.57,6.57,0,0,0-2.31.45,5.23,5.23,0,0,0-2,1.34,3.25,3.25,0,0,0-.81,2.3,3.53,3.53,0,0,0,.84,2.44,6.19,6.19,0,0,0,2.18,1.53c.89.39,1.81.76,2.76,1.1a24.38,24.38,0,0,1,3.54,1.4,7.8,7.8,0,0,1,2.73,2.15,5.42,5.42,0,0,1,1.08,3.54,8.26,8.26,0,0,1-1,4,6.78,6.78,0,0,1-2.89,2.79A10.37,10.37,0,0,1,337.44,326.15Z"/><path class="cls-3" d="M419.55,38v.84c-.25,0-.43.18-.53.53s.05.63.31.68a.63.63,0,0,1,.22-.76V52.52h-3.18v-.23c0,.11,0,.16.08.16-.05-.31-.1-.46-.15-.46v.08a1,1,0,0,0-.23-.38.94.94,0,0,0,.53-.46,1.76,1.76,0,0,1-1.36.08c.15,0-.11-.1-.76-.46a1.31,1.31,0,0,0,.6-.37c.2-.26.18-.43-.07-.53-.05.35-.33.58-.84.68s-.93,0-1.13-.31c.25,0,.4-.12.45-.22s0-.08-.07-.08a.6.6,0,0,0-.69.15,3.23,3.23,0,0,1,.84-.68,4,4,0,0,0,.83-.76.8.8,0,0,1-.76-.45c-.05-.15-.17-.51-.37-1.06.35.25.5.28.45.07s0-.53.08-.53a4.61,4.61,0,0,1,.75.38c.26.15.48.08.69-.23a5.66,5.66,0,0,1-1.82-.75c-.51-.36-.76-.41-.76-.15.3.1.48.2.53.3a2.85,2.85,0,0,1-.15,1.13,1.18,1.18,0,0,0-.53,0c-.05,0-.1-.1-.15-.15l-.16-.15.31.3c-.05,0-.15.08-.31.23a.72.72,0,0,1-.37.15.41.41,0,0,0-.16-.3.69.69,0,0,1,0-.45l.16.15H412c.1.05.15,0,.15-.31-.35-.2-.58-.17-.68.08s-.21.53-.31.53a1.87,1.87,0,0,0-.15-.68c.31-.05.46-.25.46-.61a1.27,1.27,0,0,1,.38-1.06c-.21.1-.43,0-.69-.3s-.38-.25-.53,0c.41,0,.51.13.31.38-.05,0-.18.15-.38.3s-.18.23-.23.23a.24.24,0,0,1-.08-.38c.11-.15.08-.25-.07-.3s-.05.1-.15.15-.08,0-.08-.15.13-.26.38-.46a1,1,0,0,0,.15-.76.69.69,0,0,0-.68.08c-.15.1-.25.08-.3-.08q.6-.23.6-.3t-.3-.45a26.18,26.18,0,0,1,1.29-2.58,6.2,6.2,0,0,0,.83-2.95c.2.3.51.17.91-.38s.48-.86.38-.91-.08.07-.23.07a.86.86,0,0,1-.38-.07c-.4-.2-.43-.38-.07-.53a.61.61,0,0,1-.76-.31l-.23-.22s-.12,0-.22.15a18.1,18.1,0,0,1,1.06,2,2.6,2.6,0,0,0-.61-.15,1.15,1.15,0,0,0-.61.3c.16-.45.05-.71-.3-.76s-.53-.17-.53-.22c.76-.11,1-.33.76-.69-.36.36-.63.33-.84-.07a4.62,4.62,0,0,0-.53-.91l-.07.07c-.05.05-.08.05-.08,0h-.07v-.15c.2.05.3-.17.3-.68s0-.73.23-.68,0,.3-.08.76c-.05.3,0,.45.23.45q.07-.45.15-.45t.3.3a.59.59,0,0,0-.6.45.74.74,0,0,0,.68-.37.76.76,0,0,0,.23.15c-.11-.26,0-.46.3-.61s.2-.28,0-.38a.72.72,0,0,1-.53.46c-.2-.41-.3-.58-.3-.53s0-.33.15-.69a1.37,1.37,0,0,0-.68.23c.15-.25.07-.68-.23-1.29a.74.74,0,0,1,.38-1.13,1.21,1.21,0,0,0,.38,1.29c-.11-.56-.08-.81.07-.76,0,.2-.15.28-.3.22a1.66,1.66,0,0,1,.15-.9c.15-.31.15-.48,0-.53a.48.48,0,0,1-.38.3,1,1,0,0,0-.38.15.66.66,0,0,0-.07-.3c-.1-.1-.15-.18-.15-.23a1,1,0,0,0,.45-.08v.23h.45a1,1,0,0,0-.07-.53c-.05-.15-.18-.2-.38-.15v.07l-.45-.3a2.63,2.63,0,0,1,1.06.15c.2.26.22.28.07.08.25.05.41,0,.46-.23-.41-.15-.53-.35-.38-.6l.07.07c.15-.05.36.13.61.53s.56.71.76.76l-.23.23h0a3.83,3.83,0,0,1-.68.45q-.15.07-.15.15c-.21.15-.28.23-.23.23a.55.55,0,0,0,.68-.23c.05,0,.08,0,.08-.07a.45.45,0,0,1,.45-.08c0,.1,0,.15.08.15s.15,0,.15-.15c-.15,0-.28-.15-.38-.45h0a3.22,3.22,0,0,0,.76-.08h0a1.74,1.74,0,0,0,.45-.3,1.59,1.59,0,0,1-.45-.76.74.74,0,0,0-.68-.53c-.11,0-.21.15-.31.45v.08a.23.23,0,0,1-.22.15.5.5,0,0,0,0-.53c.35-.3.4-.38.15-.23.05,0,0,.06-.15.16a.76.76,0,0,0-.31-.38,1.62,1.62,0,0,0,.53-.46.91.91,0,0,1,1.06.08c0,.1-.07.18-.22.23a.47.47,0,0,0-.31.22,1.48,1.48,0,0,1,.61.38c.2.15.33.13.38-.07-.15,0-.23-.13-.23-.38a.55.55,0,0,0-.23-.38,1.2,1.2,0,0,1,.23-.3,1.85,1.85,0,0,0,.3-.38,3.16,3.16,0,0,1-1.74-.53,14.13,14.13,0,0,0-1.67-1.6,7.23,7.23,0,0,1-1.28,1.29,9.24,9.24,0,0,0-1.29,1.37.81.81,0,0,1,.45.15c.15.05.23,0,.23-.08-.2-.05-.2-.22,0-.53h.3q.08-.08-.15-.15a.91.91,0,0,1,.46-.23,1.14,1.14,0,0,0,.6.76c.46-.71.48-1,.08-1,0-.41.43-.21,1.13.6-.3-.1-.48-.12-.53-.07s-.05.17,0,.38h-.22c-.05-.11-.1-.16-.15-.16a2.26,2.26,0,0,1-.69.69c-.35-.16-.53-.11-.53.15h.23a3.77,3.77,0,0,1-1.14,0,1.61,1.61,0,0,0-1.36.53.82.82,0,0,1,.68.15.74.74,0,0,0,.53.23c-.15-.31-.07-.48.23-.53a.74.74,0,0,1,.68.15.3.3,0,0,0-.15.3,6.92,6.92,0,0,0-1.51.68c-.06-.1,0-.27.15-.53.1-.1,0-.15-.38-.15-.05-.25-.23.05-.53.91.2,0,.22.1.07.3s0,.23.38.23c.15-.05.2-.13.15-.23a.72.72,0,0,1-.07-.53c.15.2.3.28.45.23a6.75,6.75,0,0,1,.68-.15c-.15.45-.1.73.16.83a2.32,2.32,0,0,0,.45.15,1,1,0,0,1,.38.15c-.15.16-.18.23-.08.23a.5.5,0,0,0,.38,0,.7.7,0,0,1,0,.46.47.47,0,0,0-.68-.16c-.2-.15-.2-.12,0,.08a.51.51,0,0,0-.23.23c.41,0,.48.1.23.3s-.33.38-.08.38c0-.15.23-.28.53-.38.05.51.08.83.08,1s-.28.35-.68.15q-.07,1.44-.3,1.59c.45.1.68.2.68.3a2.8,2.8,0,0,0-.46,2.35,1.18,1.18,0,0,1-.53.68.43.43,0,0,1-.68-.07.94.94,0,0,1-.3.68c.5,0,.7.12.6.38s-.07.58.08.68c-.3-.1-.53.05-.68.45s-.13.64.07.69c0-.46.1-.58.31-.38a.87.87,0,0,1,.38.68c-.21.15-.26.3-.16.45-.05,0,.08.15.38.46a.53.53,0,0,1-.22.07l-.16.08a.72.72,0,0,1-.37-.15.8.8,0,0,1,.22.68c-.1.25-.12.4-.07.45.05-.15.22-.27.53-.38a1.22,1.22,0,0,0-.15.91,5,5,0,0,1,0,1.22q.45.23.6.15c-.05,0,.15-.1.61-.31a.76.76,0,0,1-.31.31.61.61,0,0,0-.22.38,1.36,1.36,0,0,0,.38-.08l.22-.08c.15,0,.26.16.31.46l-.23.45a1.24,1.24,0,0,0-.15.46.9.9,0,0,0,.45,1,5.05,5.05,0,0,1-2.35-.45c-.1.45-.48.76-1.13.91V47.14c.45,0,.68-.07.68-.23a1.58,1.58,0,0,1-.68-.45v-3c.05,0,.05-.08,0-.08V38H390.46V26.69l.08.07c.2.1.27.15.22.15a2.33,2.33,0,0,0-.3-.22V25.17q.23,0,0-.15V23.43h7.65c-.05.05.05.07.31.07s.27,0,.22-.07h2.43c-.05.1-.05.12,0,.07s0,0,.15-.07h1.21a1.08,1.08,0,0,0-.07.68c.05.15.22.3.53.45-1.06.51-1.57.71-1.52.61s.2.1.15.15-.18.13-.38.08c-.05.76.15,1.24.61,1.44a1.28,1.28,0,0,1,.3-1.37c0,.11.08.21.23.31s.23.12.23.22a.67.67,0,0,0-.76.38c.4,0,1,0,1.89-.07.1.5.1.73,0,.68l.31-.91a1.42,1.42,0,0,0-1,.15.86.86,0,0,0-.3-.6c-.25-.21-.36-.41-.3-.61a1,1,0,0,0,1,.3l.91-.15a2.25,2.25,0,0,1,.08-1,.68.68,0,0,0,.45,0c.1,0,0-.05-.23-.16a.22.22,0,0,0-.15.08,3,3,0,0,1,.3-.68H405v-.15a.66.66,0,0,1,.3.07c.05-.2.23-.7.53-1.51a1.09,1.09,0,0,0-.08-1.06.91.91,0,0,1,1,.15c.2.15.28.23.23.23s.15,0,.15-.08a.74.74,0,0,1-.08-.53c0-.05.1-.05.31,0,.55.1.9.07,1.06-.08-.61-.3-1.75-.15-3.41.46v-.61c.05-.1.07-.12.07-.07H405V16.53a.47.47,0,0,0,0-.37v-.91q.15.23.15.15l-.15-.23V14h.07a.33.33,0,0,0-.07-.37V12.9c.3,0,.43,0,.38-.23s-.13-.18-.08-.38-.1-.38-.3-.38V10.62c.65-.1.93-.68.83-1.74H406a.25.25,0,0,0,.15.23c.1.05.18,0,.23-.23h.53a1.14,1.14,0,0,1-.07.3c.35-.1.5,0,.45.38s0,.61.23.61a1.25,1.25,0,0,1,.3-.91c-.2.05-.43-.08-.68-.38h7.5a.56.56,0,0,1,.07.23.23.23,0,0,1-.37.07.22.22,0,0,0-.31.16q.76.3,1,0c-.2-.1-.28-.18-.23-.23a1.76,1.76,0,0,1,.38-.23h4.39V14l-.07.15-.08.15.15-.3v9.47h2.28q.38.3.45,0h7.8l.31.15c0,.05-.08.4-.23,1.06-.05.3,0,.33.23.08-.2.05-.36.53-.46,1.44s.05,1.26.31.9c.05.51,0,.84-.16,1a.89.89,0,0,1-.37.15c.35.2.42.36.22.46-.35.2-.53.37-.53.53l.08.07a.34.34,0,0,0-.3.46.75.75,0,0,0,.68-.38c.3-.05.4-.08.3-.08.1,0,.15.08.15.23a1,1,0,0,1-.23.3l-.15.15.53.46a.29.29,0,0,0-.22.07c-.11.11-.18.16-.23.16a1.23,1.23,0,0,0-.46-.53c-.1.55-.07.9.08,1.06s.3.05.3-.31c.36,1.06-.07,1.75-1.28,2v.3a.93.93,0,0,0-.08.3.35.35,0,0,0,.23.38.24.24,0,0,1,.38-.07.48.48,0,0,1,.3.38c.25.5.15.8-.3.91q-1.06-.08-1.14.6a2,2,0,0,1-.68,1.37c.65-.16,1,0,1.06.37v.31c.05,0,.15,0,.3-.08V38ZM391.37,25.85a.36.36,0,0,1,.3-.38c.26,0,.41-.12.46-.22a.75.75,0,0,1-.38-.31c-.1-.15-.2-.22-.3-.22-.26.05-.36.4-.31,1.06a.61.61,0,0,0,.15.45c0,.1.16.08.31-.07C391.39,26.11,391.32,26,391.37,25.85Zm1.36.38a3.39,3.39,0,0,1-.45-.3l-.46-.23v.46c0,.2.08.27.23.22,0-.1.08-.15.23-.15a.21.21,0,0,1,.23.23,1,1,0,0,0-.76.15q-.45.23,0,.45c.05-.15.12-.17.23-.07a1.15,1.15,0,0,0,.45.15A1.1,1.1,0,0,1,392.73,26.23Zm-.3,1.21c-.2.36-.23.56-.08.61q0-.3.69-.45c.4-.11.58-.08.53.07s0,.23-.23.23a.32.32,0,0,1-.23.07h-.22a1.14,1.14,0,0,0-.23-.15c-.31.2-.36.33-.15.38s.32-.05.38-.15a.59.59,0,0,1,.22.08q-.3,0,1.44-.84a3.56,3.56,0,0,0-.68.08h-.38c-.2-.05-.38-.28-.53-.68C393,26.79,392.78,27,392.43,27.44Zm.38,1.37c-.1-.31-.18-.46-.23-.46C392.63,28.66,392.71,28.81,392.81,28.81Zm.45.3a2,2,0,0,0-.22-.53C393.14,28.93,393.21,29.11,393.26,29.11Zm.69,3.11.07-.46h-.38c.05-.2.2-.2.46,0s.27.1.22-.15c-.2-.05,0-.33.53-.83.21-.25.33-.41.38-.46s0-.2-.15-.15c-.05.25-.35.53-.91.83s-.65.56-.6.76a.32.32,0,0,0-.08.23v.23Zm.3.75q-.22-.37-.3,0c.15,0,.2.08.15.23a.22.22,0,0,0-.15.08.13.13,0,0,0,.15.15c0-.2.15-.28.3-.23-.1.36-.08.51.08.46s.37-.18.37-.38C394.65,33.38,394.45,33.28,394.25,33Zm.23-1.13c-.11.25,0,.43.37.53s.59.2.54,0c.05,0,0,0-.08-.08s.08-.15.23-.15.22.08.22.23c-.05,0-.1,0-.15.07s.05.11.15.16c.36-.36.28-.69-.22-1l-.46.53A.54.54,0,0,0,394.48,31.84Zm1.81,1.51s0-.1-.22-.3a.73.73,0,0,0-1-.23c-.1.41.13.61.68.61.21,0,.33,0,.38.07s0,.21-.15.46c.3.1.46.2.46.3s-.08,0-.08.08,0,.1.08.15a1.51,1.51,0,0,0,.22-.91c0-.4-.07-.5-.22-.3S396.34,33.4,396.29,33.35Zm-1,3.94c.1.31.18.46.23.46C395.44,37.44,395.36,37.29,395.31,37.29Zm.61-5.6v-.16a.45.45,0,0,1-.08-.22c.3,0,.28,0-.08-.15-.2.05-.27.1-.22.15l.15.07C395.74,31.59,395.81,31.69,395.92,31.69Zm.07-7.43c-.1-.3-.18-.45-.23-.45C395.86,24.11,395.94,24.26,396,24.26Zm2.58,9.55a3.54,3.54,0,0,0-.23-.31c-.1,0-.18.08-.23.23.25,0,.25.2,0,.61s-.28.55-.07.6c0-.2.15-.27.3-.22,0,.05,0,.1.08.15s.1,0,.15-.15c-.21,0-.28-.13-.23-.23C398.64,34.49,398.72,34.26,398.57,33.81Zm1.74-1.44a.8.8,0,0,0,.08-.61c-1.12-.1-1.6,0-1.44.38q.23,0,.15-.15c-.05-.1-.18-.13-.38-.08-.3.21-.28.46.07.76a1.69,1.69,0,0,0,1.29.23A1,1,0,0,1,400.31,32.37Zm.38,1.06c0-.35-.13-.51-.38-.46a2.56,2.56,0,0,1-.76,1.37.66.66,0,0,0-.68-.53c-.1.3,0,.43.23.38s.38.07.38.38a.56.56,0,0,0-.69.37c.26.16.33.18.23.08a2.2,2.2,0,0,1,1.06-.61A1.51,1.51,0,0,0,401,34C400.84,33.91,400.74,33.73,400.69,33.43Zm-1.14-2.88a.13.13,0,0,0,.15-.15q.07-.07-.15-.15-.37.15-.15.6c.1.31.23.28.38-.07C399.58,30.73,399.5,30.65,399.55,30.55ZM399.48,35a1,1,0,0,1-.08.45,3.38,3.38,0,0,1,.53.08V35.1A1,1,0,0,0,399.48,35Zm.75-4.24c-.15,0-.22.12-.22.38s.07.32.22.37c0-.15.1-.22.31-.22a1,1,0,0,1,.38.22q.75-1.89.15-1.89a4.19,4.19,0,0,1-.31.83l-.3.61a.51.51,0,0,0-.15-.61c-.15-.2-.25-.17-.3.08C400.21,30.6,400.28,30.68,400.23,30.78Zm.61,2c.3-.36.23-.61-.23-.76a1.47,1.47,0,0,1-.22.76,1.29,1.29,0,0,0,.53.38c.35.15.4.1.15-.16C400.87,33,400.79,32.9,400.84,32.75Zm-.15-7.35c-.1-.35-.18-.53-.23-.53C400.51,25.17,400.59,25.35,400.69,25.4Zm.3,1.89c-.05-.3-.12-.45-.23-.45C400.87,27.14,400.94,27.29,401,27.29Zm.46-3c-.05-.35-.13-.53-.23-.53C401.32,24.09,401.4,24.26,401.45,24.26Zm-.08,7.35c0-.45-.05-.71-.15-.76C401.22,31.31,401.27,31.56,401.37,31.61Zm.23-2.35c-.1-.35-.18-.53-.23-.53C401.42,29.09,401.5,29.26,401.6,29.26Zm1.51-.07c-.15-.05-.22-.1-.22-.16l.37-.37c-.45.3-.78.35-1,.15l-.23-.23c-.15,0-.25.18-.3.53s-.08.56-.23.61a1.14,1.14,0,0,1,.68.3c0-.61.18-.91.53-.91a6.75,6.75,0,0,0-.15.68.81.81,0,0,0,.31.53c0-.3.2-.43.6-.38s.76,0,.91-.22A3.48,3.48,0,0,0,403.11,29.19Zm.38,3.25c.35.11.51.06.46-.15-.26,0-.38,0-.38-.15a1,1,0,0,1,.23-.38c.35-.45.35-.76,0-.91,0,.56-.13.76-.38.61a3,3,0,0,0-.84-.46v.46c0,.2.08.28.23.23.1-.31.18-.46.23-.46.3.2.33.51.07.91l-.22.3a.14.14,0,0,0,.07.23C402.91,32.47,403.09,32.39,403.49,32.44Zm-.15,4.17c.1.3.18.46.23.46C403.47,36.76,403.39,36.61,403.34,36.61Zm.83-8.11c.2-.25.16-.42-.15-.53a.43.43,0,0,1-.22.38.82.82,0,0,0-.31.31A.47.47,0,0,0,404.17,28.5Zm1.37-19.09c-.1-.05-.15.08-.15.38H405V10a.56.56,0,0,0,.6-.23C405.66,9.59,405.64,9.46,405.54,9.41Zm-.31,12.05H405v.83a.22.22,0,0,0,.15.08.84.84,0,0,1,.15-.46.81.81,0,0,0,.15-.45ZM405,52.52V50.4a.72.72,0,0,1,1-.38.22.22,0,0,0,.08.15q.07,0,.15-.15-.3-.08,0-.45a1.71,1.71,0,0,0-1.21.15v-.91a2.67,2.67,0,0,1,.83.23,1.18,1.18,0,0,0,.68.07c-.25,0-.3-.23-.15-.53s.3-.38.46-.38c.05.31.17.43.37.38a1.45,1.45,0,0,1,.76-.07c0,.4.15.6.46.6s.63,0,.68.15c-.36,0-.53.15-.53.46q1.44.6,1.29.45a1.12,1.12,0,0,1,.53,1.14,1.12,1.12,0,0,1,.91.3c.15-.25.1-.43-.16-.53s-.33-.2-.22-.45a2.35,2.35,0,0,1,1.36.83,1,1,0,0,0-.53,0c-.15,0-.13,0,.08.15s.58,0,.68.3a.47.47,0,0,1,0,.61Zm.22-2c0,.1.13.1.23,0s.13-.21.08-.31a.22.22,0,1,0-.31.31Zm.16-30.31q-.31.15.15.3l.45-.3c.2-.15.15-.28-.15-.38C405.84,19.84,405.69,20,405.39,20.17Zm1.74-1.67a.5.5,0,0,0-.23-.6,4.84,4.84,0,0,1-.68-.23c-.05.41-.23.56-.53.45q-.07-.45-.15-.45a1.56,1.56,0,0,1,0,.68,3.49,3.49,0,0,0-.15.91,1.12,1.12,0,0,0,.75-.15,1.14,1.14,0,0,0,.16.53c.15-.61.12-.88-.08-.83-.35.1-.53.1-.53,0C405.94,18.2,406.42,18.1,407.13,18.5ZM406,26.91c.05.15.13.23.23.23a1.68,1.68,0,0,0-.23-.45l.08-.08v-.15h-.53v.45Zm.61.23q.07-.08-.15-.15,0,.3-.69.15v.3a1.27,1.27,0,0,0-.07.31.35.35,0,0,0,.23.38c-.05-.26,0-.43.07-.53s.15-.13.31-.08a.25.25,0,0,1,.15.23c0,.15-.11.27-.31.38.51.15.76.07.76-.23a.64.64,0,0,0-.45-.68C406.55,27.22,406.6,27.19,406.6,27.14Zm-.08-10.3c.15,0,.23.05.23.15-.2,0-.28.07-.23.23.36.15.51,0,.46-.38s-.15-.58-.46-.53c.05.1,0,.22-.3.38s-.18.25.08.3C406.3,16.89,406.37,16.84,406.52,16.84Zm-.15-.84c-.1-.3-.18-.45-.23-.45C406.19,15.85,406.27,16,406.37,16Zm.3,10.46q.07-.08-.15-.15c-.1,0-.18,0-.22.15a.29.29,0,0,0,.22.3A.77.77,0,0,1,406.67,26.46Zm.23,7.8c0,.26.08.38.23.38-.05-.25-.1-.38-.15-.38a1.21,1.21,0,0,0,.38-.38.28.28,0,0,0-.23-.38.62.62,0,0,1-.53.61c-.26,0-.3,0-.15.15S406.6,34.46,406.9,34.26Zm-.23,10.84c-.1-.31-.17-.46-.22-.46C406.55,44.94,406.62,45.1,406.67,45.1Zm.38-18.26c.05,0,.05,0,0-.08-.05-.3-.17-.43-.38-.38-.15.26-.2.41-.15.46l.38-.23C407,26.76,407,26.84,407.05,26.84ZM406.52,37v.15c.05.25.18.35.38.3s.2-.32.15-.37l-.38.15C406.62,37.07,406.57,37,406.52,37Zm.53,8.86c.31.26.53.26.68,0a1.26,1.26,0,0,1-.6-.38,6.14,6.14,0,0,1-.53-.37Q406.53,45.48,407.05,45.85Zm-.22-29.77a2.24,2.24,0,0,0-.23-.53C406.65,15.9,406.72,16.08,406.83,16.08ZM407,46.31c-.26-.05-.28,0-.08.23l.46.15q.15.15.3-.15Zm.15-13.49c0-.15-.08-.22-.23-.22a1.14,1.14,0,0,1-.07.3c-.06.05,0,.1.07.15A.21.21,0,0,0,407.13,32.82Zm.53-14.09q.15-.37-.3-.45c0,.1-.08.2-.23.3a1.61,1.61,0,0,0-.3.38,2.37,2.37,0,0,1,.6.38c.25.2.46.17.61-.08C407.73,19.16,407.61,19,407.66,18.73Zm-.46,21.14c-.05-.3-.12-.46-.22-.46C407.08,39.72,407.15,39.87,407.2,39.87Zm0-13.34q-.07-.45-.15-.45Q407.13,26.53,407.2,26.53Zm.31,12.66h.22a.32.32,0,0,1,.08-.23c.1-.1.15-.18.15-.23h-.53c-.15.05-.2.2-.15.46Zm-.15,9.54c-.05.05.05.21.3.46-.15.05-.23.1-.23.15h.15c.31-.05.43-.18.38-.38C407.66,48.76,407.46,48.68,407.36,48.73Zm.3-26.36c-.1-.31-.2-.46-.3-.46C407.46,22.22,407.56,22.37,407.66,22.37Zm-.23,20.83c.05.36.1.53.15.53C407.53,43.38,407.48,43.2,407.43,43.2Zm.46-29.77.3.38c0-.2.07-.28.23-.23,0,.1,0,.15.07.15s.15,0,.15-.15c-.3-.1-.43-.35-.38-.76h-.53a.32.32,0,0,1-.07.23c-.1.1-.15.18-.15.23C407.71,13.28,407.84,13.33,407.89,13.43Zm.45,11.89a4.7,4.7,0,0,1-.61.84c0-.21-.07-.31-.22-.31v.61c0,.2.05.33.15.38a1.66,1.66,0,0,0,.3-.46c.2-.05.23-.1.08-.15.4-.71.7-1,.91-1-.26-.05-.23-.16.07-.31s.31-.32,0-.38C408.87,24.72,408.64,25,408.34,25.32Zm-.68,4.85a1.34,1.34,0,0,0-.15-.53C407.56,30,407.61,30.17,407.66,30.17Zm0-12.58c.3.11.48-.05.53-.45s.12-.68.23-.68C408.87,16.46,408.62,16.84,407.66,17.59Zm.3-1.43c0-.31-.1-.46-.15-.46C407.86,16,407.91,16.16,408,16.16ZM408,34.49l-.23.08s.05.07.15.07c.3,0,.43-.18.38-.38L408,34C407.91,34.09,407.94,34.24,408,34.49Zm.91-5.15c-.46-.05-.56.1-.31.45h-.53c-.15.05-.22.18-.22.38A1,1,0,0,0,409,29.34Zm-.69,9.17c-.1-.31-.17-.46-.22-.46C408.09,38.35,408.16,38.51,408.26,38.51Zm.23-23.34c.1.05.2,0,.31-.15.05,0-.08,0-.38-.15s-.26,0-.31.15C408.06,15,408.19,15,408.49,15.17Zm.08,12.2c-.31.05-.46.12-.46.23C408.42,27.49,408.57,27.42,408.57,27.37Zm-.15,12.12c-.05-.3-.13-.45-.23-.45C408.29,39.34,408.37,39.49,408.42,39.49Zm.38-4.39a.65.65,0,0,0,0-.61q.45-.08.45-.15c-.15-.35-.35-.33-.61.07s-.22.69.08.84A.19.19,0,0,1,408.8,35.1Zm0-6.52-.31.15c.51,0,.76.1.76.3a3.92,3.92,0,0,1,1.51-1.21l-.07-.07a.81.81,0,0,1,.3-.15c.15-.05.23-.13.23-.23v-.08c-.25,0-.35,0-.3-.07-.11.05-.16,0-.16-.16a2.33,2.33,0,0,0-.53.69,5.39,5.39,0,0,1-.53.68.46.46,0,0,0-.68,0A.23.23,0,0,1,408.8,28.58ZM409,50.63c-.35,0-.45.22-.3.53,0-.2.15-.28.3-.23a1,1,0,0,0,.38.15,1.33,1.33,0,0,0,.3.08c.26.05.41-.08.46-.38A2.47,2.47,0,0,0,409,50.63Zm-.22-2.2c.1.3.22.28.37-.08-.15,0-.22-.12-.22-.37s-.05-.33-.15-.38A.78.78,0,0,0,408.8,48.43ZM409,31.76a.29.29,0,0,1-.22.08,2.26,2.26,0,0,0,.07,1.29c.1-.51.28-.81.53-.91a.22.22,0,0,0,.08.15.13.13,0,0,0,.15-.15c-.25-.36-.48-.53-.68-.53C409.05,31.74,409.07,31.76,409,31.76Zm.46,14.85c-.31-.2-.43-.17-.38.08.1,0,.17.1.23.3a.44.44,0,0,0,.37.23C409.86,47,409.78,46.76,409.48,46.61Zm-.23-11.06c-.15.05-.13.1.08.15A.19.19,0,0,1,409.25,35.55Zm.08,9.7c.05.15.12.35.22.6a2,2,0,0,1,.23.61c.3-.25.35-.5.15-.76,0-.05-.07-.15-.23-.3a1.61,1.61,0,0,1-.3-.38q.23,0,.3-.3a2.32,2.32,0,0,1,.23-.38C409.43,44.49,409.22,44.79,409.33,45.25Zm2-31.44a1,1,0,0,1-.31.3.64.64,0,0,0-.23.38.31.31,0,0,1,.38.15,1,1,0,0,1,.23.38c.05-.3.15-.46.3-.46a.91.91,0,0,1,.46.23.93.93,0,0,0,.45.23c.15,0,.26-.13.31-.38.7,0,.55-.25-.46-.76-.05.2-.1.23-.15.08a.43.43,0,0,1,.15-.3,2.1,2.1,0,0,0-1.67-.23,2.56,2.56,0,0,0-1.43.68A10,10,0,0,1,411.3,13.81ZM409.48,28v.16c.2-.05.27-.16.22-.31A.83.83,0,0,1,409.48,28Zm.07,7.73q.3-.08,0-.15Zm1-23.18c-.15.25-.13.43.07.53.05-.2.23-.35.53-.46-.05.36.1.41.46.16.15-.05.23-.13.23-.23s-.08-.15-.23-.15c-.05.2-.13.28-.23.22a.78.78,0,0,0-.45-.75c-.05.2-.21.27-.46.22a.13.13,0,0,0-.15-.15c-.05-.05-.08,0-.08.15C410.54,12.11,410.64,12.27,410.54,12.52Zm-.23,23.33a.4.4,0,0,0,.3-.45Q410.31,35.4,410.31,35.85Zm.23,2.2a.79.79,0,0,0,.76.46.62.62,0,0,0,.07-.38v-.31c-.5-.15-.73-.17-.68-.07s.23-.23.23-.53-.08-.28-.23.07A.56.56,0,0,0,410.54,38.05Zm.38-28.26c-.05-.3-.13-.45-.23-.45C410.79,9.64,410.87,9.79,410.92,9.79Zm2.19,16.67c0,.25.16.3.46.15a1,1,0,0,0-.23-.53.68.68,0,0,0-.45-.38,2.78,2.78,0,0,1,.91-1.44,2.36,2.36,0,0,0,.75-.3,1.18,1.18,0,0,1,.46-.15c-.31-.1-.33-.18-.08-.23.41,0,.58-.08.53-.23A.65.65,0,0,1,415,23c.05,0,.07,0,.07-.07a5.68,5.68,0,0,1,1.59-1.82c-.15,0-.22,0-.22-.08a.36.36,0,0,0,.38.08c.15,0,.07-.18-.23-.38,0,0,0,0,0,.08.15-.26.2-.43.15-.53a.23.23,0,0,1,.15.22h.46V20c-.16,0-.23-.05-.23-.15s.1-.25-.15-.31-.36,0-.15.23h-.23v.38l-.08-.08c-.35.51-.7.74-1.06.69a1.76,1.76,0,0,0,.76-1.06,5,5,0,0,0-.08-.61V18.2h-.3a.62.62,0,0,0-.23-.08c-.25,0-.37-.07-.37-.22a.29.29,0,0,0,.22-.08c.1-.1.18-.15.23-.15a1,1,0,0,0,.45.45c.31.16.48.11.53-.15-.2,0-.27-.27-.22-.68a.89.89,0,0,0-.68.15.42.42,0,0,0,.07-.53l-.23-.68a.5.5,0,0,1-.53,0,.71.71,0,0,1,.16-.23c-.16-.1-.28-.1-.38,0-.11-.05-.18,0-.23.16h.07l-.07.15a1,1,0,0,1-.23-.38c.2,0,.38-.15.53-.46l-.3-.15a.45.45,0,0,0-.23-.38c.05,0,.08,0,.08-.07.3.15.3.12,0-.08v-.07a3.15,3.15,0,0,1-.46-1.29c-.1-.61-.25-1-.45-1.06.15-.15.17-.26.07-.31.26,0,.38,0,.38-.15a.64.64,0,0,1-.45-.68c.3.1.55-.15.76-.76a2,2,0,0,0,.07-.45q0-.15-.15,0c0,.2-.08.28-.23.23s-.22-.08-.53-.38c-.2-.15-.33-.1-.38.15v.3a1.56,1.56,0,0,1,0,.68c-.05.71-.22.86-.53.46.05.15.23.58.53,1.29.16.45.05.65-.3.6.15.05.2.13.15.23s0,.23.15.23c0-.15.1-.13.31.07s.55.41.6.46a.35.35,0,0,0-.38.07c-.1.15-.07.26.08.31-.2.15-.18.35.08.6a.61.61,0,0,0-.23-.07.83.83,0,0,0-.15.22c-.1-.2-.18-.3-.23-.3s-.1,0-.15.15c.2.1.23.33.07.68l-.38.76h.38a.91.91,0,0,0,.23.15l.15.08c.1.05.23,0,.38-.15-.25.3-.28.48-.07.53q.07.22.45.15c.05,0,.08,0,.08.07l-.23.16-.23.22c-.2.26-.15.43.15.53v-.15a.22.22,0,0,0,.08-.15,1.08,1.08,0,0,1,.07.46.77.77,0,0,0-.15.3,2.91,2.91,0,0,1-.22.6.5.5,0,0,0,.68.08A.91.91,0,0,0,415,19h-.08a1.48,1.48,0,0,1,.46.08.56.56,0,0,0,.07.23.83.83,0,0,0,.15.22q-.53-.45-.6-.15a1.65,1.65,0,0,0,.23.76v.08a1.68,1.68,0,0,0-.61-.31c-.3-.05-.48,0-.53.23a4.42,4.42,0,0,0,.68.38A3.63,3.63,0,0,1,411.9,20c-.3.3-.45.43-.45.38-.15.1-.33.05-.53-.15a1.37,1.37,0,0,1-.23.68c.4-.05.53,0,.38.23s-.08.3.07.3c-.2.35.1.53.91.53.05.3.13.45.23.45q-.07-.45-.15-.45a.32.32,0,0,0,.23-.08c-.21-.65-.18-1,.07-1,.81-.15,1.19-.23,1.14-.23a1.14,1.14,0,0,0,.68.76,1.48,1.48,0,0,1,.83-.68c.1.1.16.17.16.22-.46,0-.59.08-.38.23l.3.3a1,1,0,0,1,.3.16,1,1,0,0,0-1,.45q.22.15.15.3l-.15-.07v.3c-.21.15-.31.28-.31.38s.16.18.46.23q0-.08.15-.15a.49.49,0,0,1,.23.22l-.61.38a2.5,2.5,0,0,0-.6.38,2.5,2.5,0,0,0-1.14-.91c-.56-.3-.78-.33-.68-.07.2.05.35.22.45.53-.25-.21-.38-.18-.38.07s-.12.41-.38.3c.31.26.36.46.16.61s-.28,0-.38-.38a1.71,1.71,0,0,0,.15,1.21,2.55,2.55,0,0,1,.38,1,2.27,2.27,0,0,0,.53-.08.49.49,0,0,1,.45-.07.86.86,0,0,1-.07-.38C413,25.93,413.06,26.11,413.11,26.46ZM410.76,43a3.12,3.12,0,0,0,1.22-.6A1.1,1.1,0,0,0,410.76,43Zm.61-20.68c-.2-.3-.38-.3-.53,0,.1.05.15.2.15.46s.13.35.53.3A1.15,1.15,0,0,0,411.37,22.29Zm-.23-10.38c-.05-.3-.12-.45-.22-.45C411,11.76,411.09,11.91,411.14,11.91Zm1.22,21.37c0-.15.12-.23.37-.23a.53.53,0,0,0,.38-.23.64.64,0,0,0-.6,0,.51.51,0,0,0-.31.23,1,1,0,0,0-.22-.45c-.1.3-.18.45-.23.45q0-.52-.45-.45a2.27,2.27,0,0,0,.07.53c.05.1,0,.22-.15.37.5.06.68.31.53.76s-.2.68-.15.68a3.31,3.31,0,0,0,.6-1.74A.24.24,0,0,0,412.36,33.28Zm-.53-20.23c-.05.15-.08.2-.08.15s.05.1.15.15.2-.07.15-.23c.2,0,.28-.1.23-.15a.44.44,0,0,0-.3-.07h-.08C411.75,13,411.72,13,411.83,13.05Zm.37,18.33c.05-.05,0-.1-.07-.15s-.23.05-.23.15a.22.22,0,0,0,.15.31A.79.79,0,0,1,412.2,31.38Zm.16-12.5a.31.31,0,0,1,.15.31c.05.35-.08.55-.38.6q2.19-.52,1.89,0a.89.89,0,0,1-.6-.6c-.05-.26.07-.38.38-.38-.11,0-.21-.1-.31-.31a.31.31,0,0,0-.38-.15c.1.56-.1.71-.6.46a2.28,2.28,0,0,0-.46-.15c-.05,0,0,.12.08.37C412.23,18.93,412.31,18.88,412.36,18.88Zm.15,13.26.3-.3c-.2-.1-.4,0-.61.23s-.15.48.16.53A.62.62,0,0,1,412.51,32.14Zm-.38,9.47c.1.3.18.46.23.46C412.25,41.76,412.18,41.61,412.13,41.61Zm.76-5.15c-.31.1-.46.18-.46.23C412.73,36.64,412.89,36.56,412.89,36.46Zm-.23,2.88c-.2.15-.15.28.15.38a.31.31,0,0,1,.23-.31.48.48,0,0,0,.3-.22A.59.59,0,0,0,412.66,39.34ZM414,33.05c.05.1.23.2.53.3a1.18,1.18,0,0,1,.46.38c0-.15.07-.2.23-.15a.14.14,0,0,0,.22-.08c-.2-.2-.18-.22.08-.07q.68.23.6-.15c-.15,0-.2-.08-.15-.23s0-.23-.07-.23c0,.81-.15.89-.46.23q-.3-.22-.45-.15a.94.94,0,0,1-.53.15c-.1.61-.26.38-.46-.68a2.27,2.27,0,0,1-.53-.08c-.3-.1-.43-.15-.38-.15-.05-.25-.12-.38-.22-.38a.78.78,0,0,0-.16.31c-.1.55,0,.78.46.68a2.55,2.55,0,0,0-.08-.61s.08.13.23.23.38.3.38.45a6.16,6.16,0,0,1-.15.68c.25.11.33.11.23,0C413.9,33.2,414,33.05,414,33.05Zm.38,1.52a1.07,1.07,0,0,1,.38-.53,1,1,0,0,1-.68-.31.64.64,0,0,0-.23.38l.08.15a.56.56,0,0,1,.07.23c-.15.1-.22.2-.22.3a.42.42,0,0,0-.53.08,1.17,1.17,0,0,1-.38.91.23.23,0,0,0-.16.22,1,1,0,0,0,1.07-.3,5.09,5.09,0,0,0,.53-1A.21.21,0,0,1,414.4,34.57Zm-.68-7.13q.3-.23-.15-.3c.05.1-.08.23-.38.38q-.22.23.15.3C413.34,27.77,413.47,27.65,413.72,27.44Zm-.45-8c-.11-.05-.16,0-.16.15a.14.14,0,0,0,.16.16.29.29,0,0,0,.3-.16A.77.77,0,0,1,413.27,19.41Zm.15-7a.22.22,0,0,1-.08-.15v.15Zm.07,40.08-.07-.07Zm.31-15.23v.76c.45-.1.68-.2.68-.3-.21.1-.38,0-.53-.31s-.18-.42.07-.37c0,.15.05.3.31.45s.37.08.37-.23a.76.76,0,0,0-.9-.3c-.41.1-.48.28-.23.53A.2.2,0,0,1,413.8,37.29Zm-.23-26.74c.1.3.17.45.23.45C413.69,10.7,413.62,10.55,413.57,10.55Zm0,29.17c.1.3.17.45.23.45C413.69,39.87,413.62,39.72,413.57,39.72ZM413.8,52a1.5,1.5,0,0,0,.45.53h.53l-.53-.38a.54.54,0,0,1-.3-.6A.37.37,0,0,0,413.8,52Zm0-37.27h.53c-.26-.16-.36-.21-.31-.16S413.85,14.56,413.8,14.72ZM414,29.49c-.1-.3-.17-.46-.22-.46C413.9,29.34,414,29.49,414,29.49Zm.46,14.09a.61.61,0,0,0,.22-.38.5.5,0,0,0-.37.15l-.31.38c-.1-.35-.17-.53-.22-.53a.7.7,0,0,0,.45.76A1,1,0,0,1,414.48,43.58Zm-.61-27h.23a.22.22,0,0,1-.08-.15.21.21,0,0,0-.15.07C413.92,16.58,413.92,16.61,413.87,16.61Zm.3,0c.26-.05.28-.1.08-.15C414.25,16.56,414.22,16.61,414.17,16.61Zm.53,2.58a.66.66,0,0,0-.3.07.81.81,0,0,0-.15.3A1,1,0,0,0,414.7,19.19Zm.23,5.68c-.05-.31-.2-.43-.45-.38a2.09,2.09,0,0,0-.15.45,1,1,0,0,0,.37-.22l.16.22C414.91,24.94,414.93,24.92,414.93,24.87ZM416,50.25a1.73,1.73,0,0,1-.68-.76.19.19,0,0,0,.15-.08s0-.1-.15-.15a.2.2,0,0,1-.3.15.66.66,0,0,0-.46-.22,1.5,1.5,0,0,1-.22.76.33.33,0,0,0,.45.07,4.6,4.6,0,0,0,.46-.3.91.91,0,0,1-.08,1.44h.38a1.14,1.14,0,0,0,.3.07c.1-.45.2-.68.3-.68a.22.22,0,0,0,.08.15.13.13,0,0,0,.15-.15c.05,0,0,0-.07-.07.25,0,.2-.13-.16-.38ZM414.4,11.08c0,.05,0,.1.08.15s.22-.08.22-.23a.19.19,0,0,0-.22-.22A1.33,1.33,0,0,1,414.4,11.08Zm1,33.49c-.05-.1-.11-.08-.15.07-.61.15-.86.3-.76.46s.48,0,1-.23A.44.44,0,0,0,415.39,44.57Zm-.15-14.4h-.54c-.15,0-.22.13-.22.23a1,1,0,0,1,.38.23,1.43,1.43,0,0,0,.38.3Zm-.61-2.27c-.1,0-.08,0,.07.15-.1.3.08.38.54.23.15,0,.22,0,.22-.08s0-.15-.22-.15A1.72,1.72,0,0,1,414.63,27.9Zm.45-.68c-.15-.1-.27,0-.38.15a2,2,0,0,1,.46.07,2.54,2.54,0,0,0,.38.08l.15.15q.38-.15.15-.3c-.2-.1-.33-.1-.38,0Zm.16,12h-.54v.45h.54ZM417,49.49h0c-.15.15-.26.1-.31-.15.21,0,.31-.05.31-.15a.26.26,0,0,0-.31-.08q-.07-.37-.3-.45c-.1.3-.38.38-.83.22s-.79-.17-.84.08c.91.25,1.37.48,1.37.68-.1-.1-.13-.12-.08-.07q-.37.15-.15.3a.28.28,0,0,0,.38,0,.62.62,0,0,0,.23-.08c0,.21.07.31.22.31,0-.1.16-.23.46-.38.2.2.2.18,0-.08q.6-.3.3-.45T417,49.49Zm-2.12,2c-.16-.21-.18-.21-.08,0Zm.75-3.72q0-.15-.3-.15c-.25-.2-.4-.17-.45.08A.25.25,0,0,0,415,48c.05.05.12,0,.23-.08C415.49,48,415.61,47.93,415.61,47.82Zm-.07,4.7a.93.93,0,0,0,.38-.76,1.66,1.66,0,0,0-1,.61.07.07,0,0,0,.08.08h-.08l-.07.07Zm-.3-23.26s.1-.05.15-.15-.05-.08-.15-.08a.36.36,0,0,0-.23.53c.15.31.3.28.45-.07C415.26,29.49,415.18,29.41,415.24,29.26Zm1.66,6.37c0,.2-.15.27-.3.22a.3.3,0,0,0-.23.31c.35.05.48.22.38.53a2.11,2.11,0,0,0-.38.83,1.85,1.85,0,0,1,.76.53.67.67,0,0,0-.3.08.91.91,0,0,1-.23.15c.1-.25,0-.43-.3-.53a.54.54,0,0,1-.16-.68.76.76,0,0,0-.75.53,5.62,5.62,0,0,0-.38.91c.4-.11.6.07.6.53s.16.85.31.9q.15-.37.6,0a4.56,4.56,0,0,1,.31.38c.15.21.25.31.3.31A9.29,9.29,0,0,0,416.9,35.63Zm-1.13,6.81a.13.13,0,0,0,.15-.15,1.1,1.1,0,0,0-.61-.15c-.3,0-.33,0-.07.15,0,.21.07.28.22.23,0-.2.08-.28.23-.23A.19.19,0,0,0,415.77,42.44Zm-.53-32.27c-.06-.1-.11-.15-.16-.15a.93.93,0,0,0,.16.45.3.3,0,0,0,.22.31c0-.46-.12-.71-.22-.76v.15Zm.6,20.61c0-.05,0-.08-.15-.08-.41.61-.48,1.06-.23,1.37.25-.41.36-.59.31-.54a1,1,0,0,0-.08-.6Q415.77,30.93,415.84,30.78Zm2.2-6.06c-.05,0,0-.13.07-.23a.57.57,0,0,1,.91,0V23.35c-.25-.1-.43-.05-.53.15a.59.59,0,0,1-.45.31.7.7,0,0,0-.08-.53.84.84,0,0,1-.15-.46c.3-.05.46-.12.46-.23-.51,0-.76.08-.76.38s-.18.56-.38.61a1.23,1.23,0,0,1-.15-.53,3.56,3.56,0,0,0-.08-.68h-.6c-.21.05-.33.12-.38.22s.35.51,1.21,1.67c-.41,0-.61,0-.61.08s0,.12,0,.22a1.36,1.36,0,0,1,.08.38c-.15.21-.46.28-.91.23s-.38,0-.23.08c0,.3.18.35.53.15s.43-.13.38.07c.1.16-.05.23-.45.23s-.31.13,0,.23a.85.85,0,0,1,.6-.08.83.83,0,0,0-.22.15l.22-.15a.67.67,0,0,0,.61-.38c-.35-.1-.53-.17-.53-.22.5.05.76.12.76.22-.21.11-.21.46,0,1.06s.35.81.45.61a1.32,1.32,0,0,1,0-1.36,2.94,2.94,0,0,1,.68-.84A.5.5,0,0,1,418,24.72Zm-1.59,9.62c0,.35-.1.55-.31.6a.92.92,0,0,0-.68-.68c-.1.31,0,.53.38.68s.28.33.08.69c.4,0,.7-.18.91-.69a1.1,1.1,0,0,0-.23-1.21C416.5,33.78,416.45,34,416.45,34.34Zm-.53,2c-.05.21,0,.33.15.38s.25.05.3-.15c-.1,0-.18-.12-.23-.38a.55.55,0,0,0-.22-.38c.05.1-.05.26-.31.46s-.17.25.08.3C415.69,36.41,415.77,36.33,415.92,36.38Zm.45-24.92a.64.64,0,0,0-.68.45A.56.56,0,0,0,416.37,11.46Zm0,18.33c.41.2.66.1.76-.3a3.34,3.34,0,0,1-.68-.53.52.52,0,0,0-.76.07A.94.94,0,0,0,416.37,29.79Zm-.45,8.26c.1.3.17.46.22.46C416,38.2,416,38.05,415.92,38.05Zm.45-8.79c-.1,0-.1.13,0,.23a.32.32,0,0,0,.3,0c.11,0,.08-.13-.07-.23S416.47,29.16,416.37,29.26Zm.15-12.2c-.1-.35-.17-.53-.22-.53C416.35,16.84,416.42,17,416.52,17.06Zm.53-1.66L416.9,15c.15,0,.23-.1.23-.15H417c-.31.05-.43.17-.38.38Q417,15.48,417.05,15.4Zm0,6.66c.05.36.15.53.31.53-.05-.2.05-.32.3-.37s.38-.16.38-.31c-.41.05-.58-.17-.53-.68v-.38c-.05-.1-.18-.07-.38.08.25.1.25.23,0,.38s-.53.28-.53.38C416.85,21.64,417,21.76,417.05,22.06Zm-.38-4.77c.11.3.18.46.23.46C416.85,17.44,416.78,17.29,416.67,17.29Zm.08-5.76c-.05.05,0,.11.15.16s.15-.08.15-.23a.25.25,0,0,0-.15-.23A.77.77,0,0,1,416.75,11.53Zm.38,29.78c-.1-.3-.18-.46-.23-.46C417,41.16,417,41.31,417.13,41.31Zm-.08-25.15q.07.45.15.45Q417.13,16.16,417.05,16.16Zm.53-1.37c-.1-.3-.17-.45-.22-.45C417.46,14.64,417.53,14.79,417.58,14.79Zm0,14.47c-.1-.3-.17-.45-.22-.45C417.46,29.11,417.53,29.26,417.58,29.26Zm-.22,2.58a2,2,0,0,0,.22.53C417.48,32,417.41,31.84,417.36,31.84Zm.22-.91c.1.3.18.45.23.45C417.71,31.08,417.63,30.93,417.58,30.93ZM418,20.47c-.1-.3-.18-.45-.23-.45C417.91,20.32,418,20.47,418,20.47Zm3.26,5.23c-.05-.3-.11-.45-.16-.45C421.19,25.55,421.25,25.7,421.3,25.7Zm3.18,10.46a.21.21,0,0,0,.07.15c.05,0,.1-.05.16-.15-.11-.26-.31-.33-.61-.23s-.25.3.15.45C424.25,36.18,424.33,36.11,424.48,36.16Zm.07,1.36h-.07c-.3-.25-.48-.35-.53-.3s.07.15.23.3a1.32,1.32,0,0,0,.37.38c.16,0,.2-.13.16-.38Zm-.15-.68c0,.35.05.5.31.45a.64.64,0,0,1,.15-.3.86.86,0,0,0,.07-.38C424.63,36.41,424.45,36.49,424.4,36.84Zm.38-3.26-.07.15A.26.26,0,0,0,424.78,33.58Zm.76-3c0-.05-.13,0-.38.15,0-.1,0-.15-.08-.15s-.15,0-.15.15a.25.25,0,0,1,.23.15,2.44,2.44,0,0,0,.23.31A2.5,2.5,0,0,1,425.54,30.55Zm-.23,6.21.53.53q-.15-.23.15-.6c.1-.2.05-.31-.15-.31C425.49,36.54,425.31,36.66,425.31,36.76Zm1.74-5.38a.19.19,0,0,0-.22-.22.77.77,0,0,1-.15.3c-.06.05,0,.1.15.15S427,31.53,427.05,31.38Zm.76.23q-.15-.45-.3-.45Q427.66,31.61,427.81,31.61Zm.61,2.88q.07-.08-.15-.15c-.11-.05-.18,0-.23.15a.29.29,0,0,0,.23.3A.77.77,0,0,1,428.42,34.49ZM431.3,38q-.76-.45-.84-.9c.36-.46.46-.81.31-1.07a2.33,2.33,0,0,0,.3-.22,9.55,9.55,0,0,0,2.65-1.29,2.09,2.09,0,0,0-1.06.15,5.31,5.31,0,0,1-1.29.15.43.43,0,0,0-.15-.3.56.56,0,0,1-.07-.23.23.23,0,0,1,.22.15.91.91,0,0,1,.23.16c0-.66.18-.81.53-.46a.65.65,0,0,1,0-1c-.05,0,.05-.08.3-.23.05-.1.05-.18,0-.23-.6,0-.91,0-.91-.07-.3-.05-.45-.21-.45-.46a.66.66,0,0,0,.83.15,1,1,0,0,0,.38-.53c0,.1.08.18.23.23l.23.23q.08-.07.15.15v.23a.66.66,0,0,0,.07.3,1.14,1.14,0,0,0,1.06.91c0-.51-.1-.76-.15-.76-.1.35-.28.51-.53.45.2-.35.23-.6.08-.75l-.46-.68a1.08,1.08,0,0,0,.84-.16c.15-.15.12-.32-.08-.53a1.23,1.23,0,0,0,.38-.07v3.48a.71.71,0,0,0,0,.46V38h-.68l-.23-.22h.08c.25,0,.32-.1.22-.15a.43.43,0,0,0-.3-.08c0-.05.13-.2.38-.45a.93.93,0,0,0,.15-.69,1.83,1.83,0,0,1-.53.38,4.28,4.28,0,0,0-.38.31c-.15.15-.18.45-.07.9h-.46a1.12,1.12,0,0,0-.45-.37c-.21-.05-.28,0-.23.15a2.33,2.33,0,0,0,.3.22Zm-.46-2.12.15-.07a.81.81,0,0,1-.45-.15.93.93,0,0,1,.23.37C430.87,35.9,430.89,35.85,430.84,35.85Zm-.07-6.13c.2-.31.25-.53.15-.69a.15.15,0,0,0-.23-.07c.05.4,0,.58-.08.53A.91.91,0,0,0,430.77,29.72Zm-.16,4.77c.11.3.18.45.23.45C430.79,34.64,430.72,34.49,430.61,34.49Zm.46-10.61V24c.05.06,0,0-.15-.07a.75.75,0,0,0-.15.53,1.34,1.34,0,0,0,.07.53.7.7,0,0,1,.46-.46,1.09,1.09,0,0,0,.38-.45A.65.65,0,0,0,431.07,23.88Zm.68,13a.22.22,0,0,0,.08-.15q.07,0-.15.15c-.56.11-.81.11-.76,0,.65-.25.73-.1.23.46A3.9,3.9,0,0,0,431.75,36.91ZM431.37,31c-.05-.35-.12-.53-.22-.53A1.83,1.83,0,0,0,431.37,31Zm1.37-1.81c-.11.35-.43.48-1,.37.05.16.08.21.08.16h-.08a.21.21,0,0,0-.07.15V30q.3.07,0,.15a.23.23,0,0,0,.22.15c.05-.3.18-.35.38-.15s.38.18.38-.07c-.3-.11-.35-.26-.15-.46s.45-.4.45-.45C432.66,29.09,432.58,29.09,432.74,29.19Zm-1-.38h.38a.21.21,0,0,0-.3-.15Zm.08-3.41c-.05,0,0,0,.22-.08h.08A1.33,1.33,0,0,1,431.83,25.4Zm1.44,1.74a2.06,2.06,0,0,0-.69.3l-.07-.07c-.05.1-.23.12-.53.07.1-.1.07-.22-.08-.38.05-.1.05-.17,0-.22a1.18,1.18,0,0,0,.46.15,12.82,12.82,0,0,0,0-3.56h.45c0,.1.13.28.38.53.15.1.1.18-.15.23s-.18-.08-.23-.23a.81.81,0,0,0-.15-.3c.61-.21.73.12.38,1-.2,0-.28-.08-.23-.23a1.09,1.09,0,0,1,.91.31,1.5,1.5,0,0,0-.61-1.29h.46a1.91,1.91,0,0,0,.53.6V25.4q-.08-.15-.15-.15a1.14,1.14,0,0,1-.3.68h.45v.76a.36.36,0,0,1-.45.22c-.06,0,0,.23.15.69C433.65,27.24,433.47,27.09,433.27,27.14Zm-1.37,2q0,.08.15.15a.24.24,0,0,0,.16.08v-.46Zm.46,8.33c-.1,0-.15,0-.15.08s0,.15.07.15a.36.36,0,0,0,.23-.53c-.1-.3-.23-.28-.38.08C432.28,37.22,432.36,37.29,432.36,37.44Zm.15-9.24v.46a2,2,0,0,1,.45.07l.08-.53Zm1.36,8.18c-.1.26-.07.16.08-.3A.67.67,0,0,0,433.87,36.38Zm.23-9.09-.08.08h.08Z"/></g></g></svg>