<?xml version="1.0" encoding="utf-8"?>
<!-- Generator: Adobe Illustrator 24.2.0, SVG Export Plug-In . SVG Version: 6.00 Build 0)  -->
<svg version="1.1" id="Camada_1" xmlns="http://www.w3.org/2000/svg" xmlns:xlink="http://www.w3.org/1999/xlink" x="0px" y="0px"
	 viewBox="0 0 882.9 464.2" style="enable-background:new 0 0 882.9 464.2;" xml:space="preserve">
<style type="text/css">
	.st0{fill:#FFFFFF;}
	.st1{fill:#CCE70B;}
	.st2{fill:#C2000B;}
</style>
<g>
	<rect x="0" y="0" width="882.9" height="464.2"/>
	<g>
		<g>
			<path class="st0" d="M121.7,243.8c-1.2-0.6-2.5-1.2-4-1.6c-1.4-0.5-2.8-0.7-4.2-0.7c-1.9,0-3.4,0.4-4.5,1.3
				c-1.1,0.9-1.7,2.1-1.7,3.5c0,1.1,0.4,2.1,1.1,2.8c0.7,0.8,1.7,1.4,2.8,2c1.2,0.6,2.4,1.1,3.7,1.6c1.1,0.4,2.2,0.9,3.3,1.4
				s2,1.2,2.9,2c0.9,0.8,1.6,1.7,2.1,2.9c0.5,1.1,0.8,2.6,0.8,4.3c0,1.9-0.5,3.6-1.4,5.1c-0.9,1.5-2.3,2.7-4,3.6
				c-1.7,0.9-3.8,1.3-6.2,1.3c-1.6,0-3.1-0.2-4.5-0.5c-1.4-0.4-2.7-0.8-3.9-1.4c-1.2-0.6-2.3-1.2-3.2-1.8l2.1-3.7
				c0.8,0.6,1.7,1.1,2.7,1.6c1,0.5,2.1,0.9,3.2,1.2c1.1,0.3,2.2,0.5,3.2,0.5c1.1,0,2.2-0.2,3.3-0.6c1.1-0.4,2-1,2.7-1.9
				c0.7-0.8,1.1-2,1.1-3.4c0-1.2-0.3-2.2-1-3c-0.6-0.8-1.5-1.5-2.5-2.1c-1-0.6-2.2-1.1-3.3-1.5c-1.1-0.4-2.2-0.9-3.4-1.4
				c-1.1-0.5-2.2-1.1-3.2-1.9c-1-0.7-1.8-1.6-2.4-2.7c-0.6-1.1-0.9-2.4-0.9-3.9c0-1.9,0.4-3.5,1.3-4.9c0.9-1.4,2.1-2.5,3.7-3.3
				c1.6-0.8,3.4-1.2,5.4-1.3c2.3,0,4.3,0.3,6.1,0.8c1.7,0.6,3.3,1.2,4.6,2.1L121.7,243.8z"/>
			<path class="st0" d="M140.1,273.4c-2.3,0-4.3-0.5-6-1.4c-1.7-0.9-2.9-2.2-3.8-3.8c-0.9-1.6-1.3-3.5-1.3-5.6c0-2,0.5-3.8,1.5-5.4
				c1-1.6,2.4-2.9,4.1-3.9c1.7-1,3.6-1.5,5.7-1.5c2.7,0,4.9,0.8,6.7,2.4c1.8,1.6,3,3.7,3.6,6.5l-16.7,5.9l-1.1-2.7l13.7-5l-1,0.6
				c-0.4-1.1-1-2-2-2.8c-0.9-0.8-2.1-1.2-3.6-1.2c-1.2,0-2.4,0.3-3.3,0.9c-1,0.6-1.7,1.4-2.3,2.5c-0.6,1-0.8,2.2-0.8,3.6
				c0,1.4,0.3,2.6,0.9,3.7s1.4,1.9,2.4,2.5c1,0.6,2.2,0.9,3.5,0.9c0.9,0,1.7-0.2,2.6-0.5c0.8-0.3,1.6-0.8,2.3-1.3l2.1,3.4
				c-1,0.7-2.1,1.2-3.4,1.7C142.6,273.2,141.3,273.4,140.1,273.4z"/>
			<path class="st0" d="M160.3,252.6l0.4,4.6l-0.2-0.4c0.8-1.5,1.8-2.7,3.2-3.6c1.4-0.9,3-1.3,4.8-1.3c1.1,0,2.2,0.2,3,0.5
				c0.9,0.4,1.6,0.9,2.2,1.5c0.6,0.7,0.9,1.5,1.1,2.5l-0.2,0.1c0.8-1.5,1.9-2.6,3.3-3.5c1.4-0.8,2.8-1.2,4.4-1.2
				c2,0,3.6,0.6,4.7,1.7c1.2,1.1,1.8,2.6,1.8,4.4v15h-4.6v-13.4c0-1-0.3-1.9-0.8-2.6c-0.5-0.7-1.3-1.1-2.5-1.2
				c-1.2,0-2.2,0.4-3.2,1.1c-0.9,0.7-1.7,1.6-2.2,2.8c-0.5,1.1-0.8,2.3-0.8,3.7v9.7h-4.6v-13.4c0-1-0.3-1.9-0.8-2.6
				c-0.5-0.7-1.3-1.1-2.5-1.2c-1.2,0-2.3,0.4-3.2,1.1c-0.9,0.7-1.6,1.7-2.1,2.8c-0.5,1.1-0.8,2.4-0.8,3.7v9.6h-4.6v-20.3H160.3z"/>
			<path class="st0" d="M212.4,282.7l-2.7-2.8c0.9-0.8,1.6-1.8,2.2-2.9c0.5-1.2,0.8-2.5,0.8-4.1v-20.2h4.6v20.4
				c0,2.3-0.4,4.2-1.2,5.8C215.3,280.4,214.1,281.7,212.4,282.7z M212.2,245.3c0-0.7,0.3-1.3,0.9-1.8c0.6-0.5,1.2-0.7,1.9-0.7
				c0.7,0,1.3,0.2,1.8,0.7s0.8,1.1,0.8,1.8c0,0.8-0.3,1.4-0.8,1.8c-0.5,0.5-1.2,0.7-1.8,0.7c-0.7,0-1.3-0.2-1.9-0.7
				C212.5,246.6,212.2,246,212.2,245.3z"/>
			<path class="st0" d="M231.2,273.7c-1.8,0-3.3-0.6-4.5-1.7c-1.2-1.1-1.8-2.6-1.9-4.4v-15h4.6V266c0.1,1.1,0.4,2,1,2.7
				c0.6,0.7,1.5,1,2.7,1.1c1.1,0,2.2-0.3,3.1-1c0.9-0.7,1.6-1.6,2.2-2.7c0.6-1.2,0.8-2.5,0.8-3.9v-9.5h4.6v20.3h-4.2l-0.4-5l0.2,0.9
				c-0.4,0.9-1,1.8-1.8,2.5c-0.8,0.7-1.7,1.3-2.8,1.7C233.7,273.5,232.5,273.7,231.2,273.7z"/>
			<path class="st0" d="M255.7,252.6l0.4,5.9l-0.2-0.8c0.5-1.2,1.3-2.3,2.3-3.2c1-0.9,2-1.5,3.1-2c1.1-0.5,2-0.7,2.9-0.7l-0.2,4.5
				c-1.5-0.1-2.9,0.2-4,0.9c-1.2,0.7-2.1,1.6-2.7,2.7c-0.7,1.1-1,2.4-1,3.7v9.3h-4.5v-20.3H255.7z"/>
			<path class="st0" d="M267.4,262.6c0-2,0.5-3.9,1.4-5.5c1-1.6,2.3-2.9,4-3.9c1.7-0.9,3.6-1.4,5.8-1.4c2.2,0,4.2,0.5,5.8,1.4
				c1.7,0.9,3,2.2,3.9,3.9c0.9,1.6,1.4,3.5,1.4,5.5c0,2-0.5,3.9-1.4,5.5c-0.9,1.7-2.2,2.9-3.9,3.9s-3.6,1.4-5.9,1.4
				c-2.2,0-4.1-0.4-5.8-1.3s-3-2.2-4-3.8S267.4,264.8,267.4,262.6z M271.9,262.6c0,1.3,0.3,2.5,0.9,3.6c0.6,1.1,1.4,1.9,2.4,2.5
				c1,0.6,2.1,0.9,3.3,0.9c1.3,0,2.4-0.3,3.4-0.9c1-0.6,1.8-1.5,2.3-2.5c0.6-1.1,0.8-2.2,0.8-3.6c0-1.3-0.3-2.5-0.8-3.6
				c-0.6-1.1-1.3-1.9-2.3-2.5c-1-0.6-2.1-1-3.4-1c-1.2,0-2.4,0.3-3.4,1c-1,0.7-1.8,1.5-2.4,2.6S271.9,261.3,271.9,262.6z"/>
			<path class="st0" d="M301.5,273.3c-1.4,0-2.8-0.3-4.2-0.8c-1.4-0.5-2.5-1.3-3.4-2.3l1.9-2.6c0.8,0.8,1.7,1.4,2.6,1.8
				c0.9,0.4,1.8,0.6,2.7,0.6c0.7,0,1.3-0.1,1.8-0.2c0.6-0.2,1-0.4,1.3-0.8c0.3-0.4,0.5-0.9,0.5-1.5c0-0.7-0.2-1.3-0.7-1.7
				c-0.5-0.4-1.1-0.8-1.8-1c-0.7-0.3-1.5-0.5-2.3-0.7c-1.7-0.6-2.9-1.3-3.8-2.3c-0.9-1-1.3-2.2-1.3-3.6c0-1.1,0.3-2.1,0.8-3
				c0.5-0.9,1.3-1.7,2.4-2.3c1.1-0.6,2.4-0.9,3.9-0.9c1.4,0,2.7,0.2,3.8,0.5c1.1,0.3,2.2,0.9,3.1,1.7l-1.8,2.8
				c-0.6-0.6-1.3-1.1-2.1-1.4c-0.8-0.3-1.6-0.5-2.2-0.5c-0.6,0-1.1,0-1.6,0.2c-0.5,0.2-0.9,0.5-1.3,0.8c-0.3,0.4-0.5,0.8-0.5,1.3
				c0,0.7,0.2,1.2,0.7,1.7c0.5,0.4,1.1,0.8,1.8,1s1.5,0.5,2.2,0.8c1,0.3,1.9,0.7,2.7,1.2s1.4,1.1,1.9,1.8c0.5,0.7,0.7,1.6,0.7,2.7
				c0,1.2-0.3,2.3-0.9,3.4s-1.4,1.8-2.6,2.5S303.3,273.3,301.5,273.3z"/>
			<path class="st0" d="M319.9,268.6c-0.7,1.7-1.4,3.4-2.1,5.1c-0.7,1.7-1.4,3.4-2.1,5.1H312c0.7-1.7,1.3-3.4,1.9-5.1
				c0.6-1.7,1.3-3.4,1.9-5.1H319.9z"/>
			<path class="st0" d="M353.2,273.4c-1.5,0-3-0.4-4.4-1.1c-1.4-0.7-2.5-1.7-3.3-2.9l0.3-1.4v14.7h-4.5v-30.3h3.9l0.6,5.2l-0.5-1.4
				c1-1.2,2.2-2.3,3.7-3.1c1.5-0.8,3.2-1.2,5-1.2c1.9,0,3.6,0.5,5.1,1.4s2.7,2.2,3.6,3.8c0.9,1.6,1.3,3.5,1.3,5.7s-0.5,4.1-1.4,5.7
				c-0.9,1.6-2.2,2.8-3.9,3.7C357.2,273,355.3,273.4,353.2,273.4z M352.3,269.8c1.3,0,2.5-0.3,3.6-0.9c1.1-0.6,2-1.4,2.6-2.5
				c0.7-1.1,1-2.3,1-3.6c0-1.4-0.3-2.6-0.9-3.7c-0.6-1.1-1.4-1.9-2.5-2.5c-1-0.6-2.2-0.9-3.5-0.9c-1.2,0-2.2,0.2-3.2,0.7
				c-0.9,0.5-1.7,1.1-2.4,1.9c-0.6,0.8-1.1,1.7-1.3,2.8v3.4c0.2,1,0.6,2,1.2,2.8c0.6,0.8,1.4,1.5,2.3,1.9
				C350.2,269.5,351.2,269.8,352.3,269.8z"/>
			<path class="st0" d="M378.7,273.4c-1.9,0-3.6-0.4-5.2-1.2c-1.6-0.8-2.8-2-3.7-3.6c-0.9-1.6-1.3-3.5-1.3-5.8
				c0-2.3,0.5-4.2,1.4-5.9c0.9-1.6,2.2-2.9,3.8-3.8c1.6-0.9,3.3-1.3,5.2-1.3c1.9,0,3.5,0.4,4.8,1.3c1.3,0.9,2.3,1.9,3,3.1l-0.3,0.8
				l0.4-4.3h4.2v20.3h-4.6v-5.3l0.5,1.2c-0.1,0.3-0.4,0.7-0.9,1.3c-0.4,0.5-1,1-1.8,1.5c-0.7,0.5-1.6,1-2.5,1.3
				C381,273.2,379.9,273.4,378.7,273.4z M380,269.6c1.1,0,2.2-0.2,3.1-0.6c0.9-0.4,1.7-1,2.3-1.8c0.6-0.8,1-1.7,1.3-2.8v-4
				c-0.3-1-0.7-1.8-1.4-2.6c-0.7-0.7-1.4-1.3-2.4-1.7c-0.9-0.4-1.9-0.6-3-0.6c-1.2,0-2.3,0.3-3.3,0.9c-1,0.6-1.8,1.4-2.4,2.5
				c-0.6,1-0.9,2.3-0.9,3.7c0,1.3,0.3,2.5,0.9,3.6c0.6,1.1,1.5,1.9,2.5,2.5C377.6,269.3,378.7,269.6,380,269.6z"/>
			<path class="st0" d="M403.1,252.6l0.4,5.9l-0.2-0.8c0.5-1.2,1.3-2.3,2.3-3.2c1-0.9,2-1.5,3.1-2c1.1-0.5,2-0.7,2.9-0.7l-0.2,4.5
				c-1.5-0.1-2.9,0.2-4,0.9c-1.2,0.7-2.1,1.6-2.7,2.7c-0.7,1.1-1,2.4-1,3.7v9.3H399v-20.3H403.1z"/>
			<path class="st0" d="M433,271c-0.9,0.7-2,1.3-3.3,1.7c-1.3,0.4-2.5,0.6-3.8,0.6c-2.2,0-4.2-0.4-5.8-1.3c-1.7-0.9-3-2.1-3.9-3.7
				c-0.9-1.6-1.4-3.5-1.4-5.6s0.5-4,1.5-5.6c1-1.6,2.3-2.8,3.9-3.7c1.6-0.9,3.4-1.3,5.2-1.3c1.6,0,3.1,0.2,4.4,0.7
				c1.3,0.5,2.4,1.1,3.3,1.9l-2.3,2.9c-0.6-0.5-1.3-0.9-2.2-1.2c-0.8-0.4-1.8-0.5-2.9-0.5c-1.2,0-2.3,0.3-3.3,0.9s-1.8,1.4-2.4,2.5
				c-0.6,1-0.9,2.2-0.9,3.5c0,1.2,0.3,2.4,0.9,3.5c0.6,1.1,1.4,1.9,2.5,2.5c1,0.6,2.2,0.9,3.6,0.9c0.9,0,1.7-0.1,2.4-0.4
				s1.4-0.6,2-1.1L433,271z"/>
			<path class="st0" d="M448.3,273.4c-2.3,0-4.3-0.5-6-1.4c-1.7-0.9-2.9-2.2-3.8-3.8c-0.9-1.6-1.3-3.5-1.3-5.6c0-2,0.5-3.8,1.5-5.4
				c1-1.6,2.4-2.9,4.1-3.9c1.7-1,3.6-1.5,5.7-1.5c2.7,0,4.9,0.8,6.7,2.4c1.8,1.6,3,3.7,3.6,6.5l-16.7,5.9l-1.1-2.7l13.7-5l-1,0.6
				c-0.4-1.1-1-2-2-2.8c-0.9-0.8-2.1-1.2-3.6-1.2c-1.2,0-2.4,0.3-3.3,0.9c-1,0.6-1.7,1.4-2.3,2.5c-0.6,1-0.8,2.2-0.8,3.6
				c0,1.4,0.3,2.6,0.9,3.7s1.4,1.9,2.4,2.5c1,0.6,2.2,0.9,3.5,0.9c0.9,0,1.7-0.2,2.6-0.5c0.8-0.3,1.6-0.8,2.3-1.3l2.1,3.4
				c-1,0.7-2.1,1.2-3.4,1.7C450.8,273.2,449.5,273.4,448.3,273.4z"/>
			<path class="st0" d="M464.4,235h4.6v37.9h-4.6V235z"/>
			<path class="st0" d="M485.3,273.4c-1.9,0-3.6-0.4-5.2-1.2c-1.6-0.8-2.8-2-3.7-3.6c-0.9-1.6-1.3-3.5-1.3-5.8
				c0-2.3,0.5-4.2,1.4-5.9c0.9-1.6,2.2-2.9,3.8-3.8c1.6-0.9,3.3-1.3,5.2-1.3c1.9,0,3.5,0.4,4.8,1.3c1.3,0.9,2.3,1.9,3,3.1l-0.3,0.8
				l0.4-4.3h4.2v20.3h-4.6v-5.3l0.5,1.2c-0.1,0.3-0.4,0.7-0.9,1.3c-0.4,0.5-1,1-1.8,1.5c-0.7,0.5-1.6,1-2.5,1.3
				C487.5,273.2,486.5,273.4,485.3,273.4z M486.5,269.6c1.1,0,2.2-0.2,3.1-0.6c0.9-0.4,1.7-1,2.3-1.8c0.6-0.8,1-1.7,1.3-2.8v-4
				c-0.3-1-0.7-1.8-1.4-2.6c-0.7-0.7-1.4-1.3-2.4-1.7c-0.9-0.4-1.9-0.6-3-0.6c-1.2,0-2.3,0.3-3.3,0.9c-1,0.6-1.8,1.4-2.4,2.5
				c-0.6,1-0.9,2.3-0.9,3.7c0,1.3,0.3,2.5,0.9,3.6c0.6,1.1,1.5,1.9,2.5,2.5C484.2,269.3,485.3,269.6,486.5,269.6z"/>
			<path class="st0" d="M513.8,273.4c-1.9,0-3.6-0.4-5.1-1.3c-1.5-0.9-2.7-2.2-3.6-3.8c-0.9-1.6-1.3-3.6-1.3-5.7
				c0-2.3,0.5-4.2,1.4-5.8c0.9-1.6,2.2-2.8,3.8-3.7c1.6-0.8,3.4-1.3,5.4-1.3c1.6,0,3.1,0.3,4.6,1c1.5,0.7,2.6,1.6,3.4,2.8l-0.2,1.6
				V235h4.5v37.9h-4.6v-5l0.5,1.3c-0.9,1.2-2.2,2.3-3.7,3.1C517.5,273,515.7,273.4,513.8,273.4z M515.2,269.5c1.2,0,2.3-0.2,3.2-0.7
				c0.9-0.4,1.7-1.1,2.4-1.8c0.6-0.8,1.1-1.7,1.3-2.8v-3.8c-0.3-1-0.7-1.8-1.4-2.6c-0.7-0.7-1.5-1.3-2.4-1.8c-0.9-0.4-2-0.7-3.1-0.7
				c-1.2,0-2.4,0.3-3.4,0.9c-1,0.6-1.9,1.4-2.5,2.5c-0.6,1-0.9,2.3-0.9,3.6c0,1.3,0.3,2.5,0.9,3.6c0.6,1.1,1.5,1.9,2.5,2.5
				C512.9,269.2,514,269.5,515.2,269.5z"/>
			<path class="st0" d="M532.9,262.6c0-2,0.5-3.9,1.4-5.5c1-1.6,2.3-2.9,4-3.9c1.7-0.9,3.6-1.4,5.8-1.4c2.2,0,4.2,0.5,5.8,1.4
				c1.7,0.9,3,2.2,3.9,3.9c0.9,1.6,1.4,3.5,1.4,5.5c0,2-0.5,3.9-1.4,5.5c-0.9,1.7-2.2,2.9-3.9,3.9s-3.6,1.4-5.9,1.4
				c-2.2,0-4.1-0.4-5.8-1.3s-3-2.2-4-3.8S532.9,264.8,532.9,262.6z M537.4,262.6c0,1.3,0.3,2.5,0.9,3.6c0.6,1.1,1.4,1.9,2.4,2.5
				c1,0.6,2.1,0.9,3.3,0.9c1.3,0,2.4-0.3,3.4-0.9c1-0.6,1.8-1.5,2.3-2.5c0.6-1.1,0.8-2.2,0.8-3.6c0-1.3-0.3-2.5-0.8-3.6
				c-0.6-1.1-1.3-1.9-2.3-2.5c-1-0.6-2.1-1-3.4-1c-1.2,0-2.4,0.3-3.4,1c-1,0.7-1.8,1.5-2.4,2.6S537.4,261.3,537.4,262.6z"/>
			<path class="st0" d="M580.9,252.6l0.4,5l-0.2-0.8c0.7-1.5,1.7-2.7,3.2-3.6c1.5-0.9,3.2-1.3,5.1-1.3c1.9,0,3.5,0.6,4.7,1.7
				c1.2,1.1,1.9,2.6,1.9,4.4v15h-4.6v-13.4c0-1.1-0.4-2-1-2.7c-0.6-0.7-1.5-1.1-2.8-1.1c-1.2,0-2.2,0.3-3.2,1
				c-0.9,0.7-1.7,1.6-2.2,2.7c-0.5,1.1-0.8,2.5-0.8,4v9.5h-4.6v-20.3H580.9z"/>
			<path class="st0" d="M602.2,262.6c0-2,0.5-3.9,1.4-5.5c1-1.6,2.3-2.9,4-3.9c1.7-0.9,3.6-1.4,5.8-1.4c2.2,0,4.2,0.5,5.8,1.4
				c1.7,0.9,3,2.2,3.9,3.9c0.9,1.6,1.4,3.5,1.4,5.5c0,2-0.5,3.9-1.4,5.5c-0.9,1.7-2.2,2.9-3.9,3.9s-3.6,1.4-5.9,1.4
				c-2.2,0-4.1-0.4-5.8-1.3s-3-2.2-4-3.8S602.2,264.8,602.2,262.6z M606.7,262.6c0,1.3,0.3,2.5,0.9,3.6c0.6,1.1,1.4,1.9,2.4,2.5
				c1,0.6,2.1,0.9,3.3,0.9c1.3,0,2.4-0.3,3.4-0.9c1-0.6,1.8-1.5,2.3-2.5c0.6-1.1,0.8-2.2,0.8-3.6c0-1.3-0.3-2.5-0.8-3.6
				c-0.6-1.1-1.3-1.9-2.3-2.5c-1-0.6-2.1-1-3.4-1c-1.2,0-2.4,0.3-3.4,1c-1,0.7-1.8,1.5-2.4,2.6S606.7,261.3,606.7,262.6z"/>
			<path class="st0" d="M662.6,271c-0.9,0.7-2,1.3-3.3,1.7c-1.3,0.4-2.5,0.6-3.8,0.6c-2.2,0-4.2-0.4-5.8-1.3c-1.7-0.9-3-2.1-3.9-3.7
				c-0.9-1.6-1.4-3.5-1.4-5.6s0.5-4,1.5-5.6c1-1.6,2.3-2.8,3.9-3.7c1.6-0.9,3.4-1.3,5.2-1.3c1.6,0,3.1,0.2,4.4,0.7
				c1.3,0.5,2.4,1.1,3.3,1.9l-2.3,2.9c-0.6-0.5-1.3-0.9-2.2-1.2c-0.8-0.4-1.8-0.5-2.9-0.5c-1.2,0-2.3,0.3-3.3,0.9s-1.8,1.4-2.4,2.5
				c-0.6,1-0.9,2.2-0.9,3.5c0,1.2,0.3,2.4,0.9,3.5c0.6,1.1,1.4,1.9,2.5,2.5c1,0.6,2.2,0.9,3.6,0.9c0.9,0,1.7-0.1,2.4-0.4
				s1.4-0.6,2-1.1L662.6,271z"/>
			<path class="st0" d="M676.9,273.4c-1.9,0-3.6-0.4-5.2-1.2c-1.6-0.8-2.8-2-3.7-3.6c-0.9-1.6-1.3-3.5-1.3-5.8
				c0-2.3,0.5-4.2,1.4-5.9c0.9-1.6,2.2-2.9,3.8-3.8c1.6-0.9,3.3-1.3,5.2-1.3c1.9,0,3.5,0.4,4.8,1.3c1.3,0.9,2.3,1.9,3,3.1l-0.3,0.8
				l0.4-4.3h4.2v20.3h-4.6v-5.3l0.5,1.2c-0.1,0.3-0.4,0.7-0.9,1.3c-0.4,0.5-1,1-1.8,1.5c-0.7,0.5-1.6,1-2.5,1.3
				C679.2,273.2,678.1,273.4,676.9,273.4z M678.1,269.6c1.1,0,2.2-0.2,3.1-0.6c0.9-0.4,1.7-1,2.3-1.8c0.6-0.8,1-1.7,1.3-2.8v-4
				c-0.3-1-0.7-1.8-1.4-2.6c-0.7-0.7-1.4-1.3-2.4-1.7c-0.9-0.4-1.9-0.6-3-0.6c-1.2,0-2.3,0.3-3.3,0.9c-1,0.6-1.8,1.4-2.4,2.5
				c-0.6,1-0.9,2.3-0.9,3.7c0,1.3,0.3,2.5,0.9,3.6c0.6,1.1,1.5,1.9,2.5,2.5C675.8,269.3,676.9,269.6,678.1,269.6z"/>
			<path class="st0" d="M701.3,252.6l0.4,5.9l-0.2-0.8c0.5-1.2,1.3-2.3,2.3-3.2c1-0.9,2-1.5,3.1-2c1.1-0.5,2-0.7,2.9-0.7l-0.2,4.5
				c-1.5-0.1-2.9,0.2-4,0.9c-1.2,0.7-2.1,1.6-2.7,2.7c-0.7,1.1-1,2.4-1,3.7v9.3h-4.5v-20.3H701.3z"/>
			<path class="st0" d="M717.6,243.7h4.6v9h5.6v3.6h-5.6v16.6h-4.6v-16.6h-3.7v-3.6h3.7V243.7z"/>
			<path class="st0" d="M741.7,273.4c-1.9,0-3.6-0.4-5.2-1.2c-1.6-0.8-2.8-2-3.7-3.6c-0.9-1.6-1.3-3.5-1.3-5.8
				c0-2.3,0.5-4.2,1.4-5.9c0.9-1.6,2.2-2.9,3.8-3.8c1.6-0.9,3.3-1.3,5.2-1.3c1.9,0,3.5,0.4,4.8,1.3c1.3,0.9,2.3,1.9,3,3.1l-0.3,0.8
				l0.4-4.3h4.2v20.3h-4.6v-5.3l0.5,1.2c-0.1,0.3-0.4,0.7-0.9,1.3c-0.4,0.5-1,1-1.8,1.5c-0.7,0.5-1.6,1-2.5,1.3
				C743.9,273.2,742.8,273.4,741.7,273.4z M742.9,269.6c1.1,0,2.2-0.2,3.1-0.6c0.9-0.4,1.7-1,2.3-1.8c0.6-0.8,1-1.7,1.3-2.8v-4
				c-0.3-1-0.7-1.8-1.4-2.6c-0.7-0.7-1.4-1.3-2.4-1.7c-0.9-0.4-1.9-0.6-3-0.6c-1.2,0-2.3,0.3-3.3,0.9c-1,0.6-1.8,1.4-2.4,2.5
				c-0.6,1-0.9,2.3-0.9,3.7c0,1.3,0.3,2.5,0.9,3.6c0.6,1.1,1.5,1.9,2.5,2.5C740.6,269.3,741.7,269.6,742.9,269.6z M748,249.8
				c-1,0-1.9-0.2-2.6-0.7s-1.3-1-1.9-1.5c-0.4-0.4-0.8-0.7-1.2-1c-0.4-0.3-0.8-0.5-1.3-0.5c-0.4,0-0.7,0.2-1.1,0.5
				c-0.3,0.3-0.5,0.7-0.7,1.3c-0.2,0.6-0.2,1.2-0.2,2h-2.5c-0.1-1.3,0-2.4,0.4-3.5c0.4-1,0.9-1.8,1.7-2.4s1.6-0.9,2.6-0.9
				c0.8,0,1.6,0.2,2.2,0.7c0.6,0.5,1.2,1,1.7,1.4c0.5,0.4,0.9,0.8,1.3,1.2c0.4,0.3,0.9,0.5,1.4,0.5c0.7,0,1.1-0.3,1.4-1
				c0.3-0.7,0.4-1.6,0.4-2.8h2.5c0.1,1.4,0,2.6-0.3,3.6s-0.9,1.8-1.5,2.3C749.6,249.5,748.8,249.8,748,249.8z"/>
			<path class="st0" d="M760.2,262.6c0-2,0.5-3.9,1.4-5.5c1-1.6,2.3-2.9,4-3.9c1.7-0.9,3.6-1.4,5.8-1.4c2.2,0,4.2,0.5,5.8,1.4
				c1.7,0.9,3,2.2,3.9,3.9c0.9,1.6,1.4,3.5,1.4,5.5c0,2-0.5,3.9-1.4,5.5c-0.9,1.7-2.2,2.9-3.9,3.9s-3.6,1.4-5.9,1.4
				c-2.2,0-4.1-0.4-5.8-1.3s-3-2.2-4-3.8S760.2,264.8,760.2,262.6z M764.8,262.6c0,1.3,0.3,2.5,0.9,3.6c0.6,1.1,1.4,1.9,2.4,2.5
				c1,0.6,2.1,0.9,3.3,0.9c1.3,0,2.4-0.3,3.4-0.9c1-0.6,1.8-1.5,2.3-2.5c0.6-1.1,0.8-2.2,0.8-3.6c0-1.3-0.3-2.5-0.8-3.6
				c-0.6-1.1-1.3-1.9-2.3-2.5c-1-0.6-2.1-1-3.4-1c-1.2,0-2.4,0.3-3.4,1c-1,0.7-1.8,1.5-2.4,2.6S764.8,261.3,764.8,262.6z"/>
			<path class="st0" d="M147.6,322.4c-1.9,0-3.6-0.4-5.1-1.3c-1.5-0.9-2.7-2.2-3.6-3.8c-0.9-1.6-1.3-3.6-1.3-5.7
				c0-2.3,0.5-4.2,1.4-5.8c0.9-1.6,2.2-2.8,3.8-3.7c1.6-0.8,3.4-1.3,5.4-1.3c1.6,0,3.1,0.3,4.6,1c1.5,0.7,2.6,1.6,3.4,2.8l-0.2,1.6
				V284h4.5v37.9h-4.6v-5l0.5,1.3c-0.9,1.2-2.2,2.3-3.7,3.1C151.3,322,149.5,322.4,147.6,322.4z M149,318.5c1.2,0,2.3-0.2,3.2-0.7
				c0.9-0.4,1.7-1.1,2.4-1.8c0.6-0.8,1.1-1.7,1.3-2.8v-3.8c-0.3-1-0.7-1.8-1.4-2.6c-0.7-0.7-1.5-1.3-2.4-1.8c-0.9-0.4-2-0.7-3.1-0.7
				c-1.2,0-2.4,0.3-3.4,0.9s-1.9,1.4-2.5,2.5c-0.6,1-0.9,2.3-0.9,3.6c0,1.3,0.3,2.5,0.9,3.6c0.6,1.1,1.5,1.9,2.5,2.5
				C146.7,318.2,147.8,318.5,149,318.5z"/>
			<path class="st0" d="M177.9,322.4c-2.3,0-4.3-0.5-6-1.4c-1.7-0.9-2.9-2.2-3.8-3.8c-0.9-1.6-1.3-3.5-1.3-5.6c0-2,0.5-3.8,1.5-5.4
				c1-1.6,2.4-2.9,4.1-3.9c1.7-1,3.6-1.5,5.7-1.5c2.7,0,4.9,0.8,6.7,2.4c1.8,1.6,3,3.7,3.6,6.5l-16.7,5.9l-1.1-2.7l13.7-5l-1,0.6
				c-0.4-1.1-1-2-2-2.8c-0.9-0.8-2.1-1.2-3.6-1.2c-1.2,0-2.4,0.3-3.3,0.9s-1.7,1.4-2.3,2.5c-0.6,1-0.8,2.2-0.8,3.6
				c0,1.4,0.3,2.6,0.9,3.7s1.4,1.9,2.4,2.5c1,0.6,2.2,0.9,3.5,0.9c0.9,0,1.7-0.2,2.6-0.5c0.8-0.3,1.6-0.8,2.3-1.3l2.1,3.4
				c-1,0.7-2.1,1.2-3.4,1.7C180.3,322.2,179.1,322.4,177.9,322.4z"/>
			<path class="st0" d="M225.9,320.1c-0.9,0.7-2,1.3-3.3,1.7c-1.3,0.4-2.5,0.6-3.8,0.6c-2.2,0-4.2-0.4-5.8-1.3
				c-1.7-0.9-3-2.1-3.9-3.7c-0.9-1.6-1.4-3.5-1.4-5.6s0.5-4,1.5-5.6c1-1.6,2.3-2.8,3.9-3.7c1.6-0.9,3.4-1.3,5.2-1.3
				c1.6,0,3.1,0.2,4.4,0.7c1.3,0.5,2.4,1.1,3.3,1.9l-2.3,2.9c-0.6-0.5-1.3-0.9-2.2-1.2c-0.8-0.4-1.8-0.5-2.9-0.5
				c-1.2,0-2.3,0.3-3.3,0.9s-1.8,1.4-2.4,2.5c-0.6,1-0.9,2.2-0.9,3.5c0,1.2,0.3,2.4,0.9,3.5c0.6,1.1,1.4,1.9,2.5,2.5
				c1,0.6,2.2,0.9,3.6,0.9c0.9,0,1.7-0.1,2.4-0.4s1.4-0.6,2-1.1L225.9,320.1z"/>
			<path class="st0" d="M235.8,301.6l0.4,5.9l-0.2-0.8c0.5-1.2,1.3-2.3,2.3-3.2c1-0.9,2-1.5,3.1-2c1.1-0.5,2-0.7,2.9-0.7l-0.2,4.5
				c-1.5-0.1-2.9,0.2-4,0.9c-1.2,0.7-2.1,1.6-2.7,2.7c-0.7,1.1-1,2.4-1,3.7v9.3h-4.5v-20.3H235.8z"/>
			<path class="st0" d="M258.7,322.4c-2.3,0-4.3-0.5-6-1.4c-1.7-0.9-2.9-2.2-3.8-3.8c-0.9-1.6-1.3-3.5-1.3-5.6c0-2,0.5-3.8,1.5-5.4
				c1-1.6,2.4-2.9,4.1-3.9c1.7-1,3.6-1.5,5.7-1.5c2.7,0,4.9,0.8,6.7,2.4c1.8,1.6,3,3.7,3.6,6.5l-16.7,5.9l-1.1-2.7l13.7-5l-1,0.6
				c-0.4-1.1-1-2-2-2.8c-0.9-0.8-2.1-1.2-3.6-1.2c-1.2,0-2.4,0.3-3.3,0.9c-1,0.6-1.7,1.4-2.3,2.5c-0.6,1-0.8,2.2-0.8,3.6
				c0,1.4,0.3,2.6,0.9,3.7s1.4,1.9,2.4,2.5c1,0.6,2.2,0.9,3.5,0.9c0.9,0,1.7-0.2,2.6-0.5c0.8-0.3,1.6-0.8,2.3-1.3l2.1,3.4
				c-1,0.7-2.1,1.2-3.4,1.7C261.2,322.2,259.9,322.4,258.7,322.4z M264.1,291.3l-6.2,6.6h-2.9l4.1-6.6H264.1z"/>
			<path class="st0" d="M283,322.4c-1.9,0-3.6-0.4-5.1-1.3c-1.5-0.9-2.7-2.2-3.6-3.8c-0.9-1.6-1.3-3.6-1.3-5.7
				c0-2.3,0.5-4.2,1.4-5.8c0.9-1.6,2.2-2.8,3.8-3.7c1.6-0.8,3.4-1.3,5.4-1.3c1.6,0,3.1,0.3,4.6,1c1.5,0.7,2.6,1.6,3.4,2.8l-0.2,1.6
				V284h4.5v37.9h-4.6v-5l0.5,1.3c-0.9,1.2-2.2,2.3-3.7,3.1C286.7,322,285,322.4,283,322.4z M284.5,318.5c1.2,0,2.3-0.2,3.2-0.7
				c0.9-0.4,1.7-1.1,2.4-1.8c0.6-0.8,1.1-1.7,1.3-2.8v-3.8c-0.3-1-0.7-1.8-1.4-2.6c-0.7-0.7-1.5-1.3-2.4-1.8c-0.9-0.4-2-0.7-3.1-0.7
				c-1.2,0-2.4,0.3-3.4,0.9s-1.9,1.4-2.5,2.5c-0.6,1-0.9,2.3-0.9,3.6c0,1.3,0.3,2.5,0.9,3.6c0.6,1.1,1.5,1.9,2.5,2.5
				C282.1,318.2,283.2,318.5,284.5,318.5z"/>
			<path class="st0" d="M303.5,294.3c0-0.7,0.3-1.3,0.9-1.8s1.2-0.7,1.9-0.7c0.7,0,1.3,0.2,1.8,0.7s0.8,1.1,0.8,1.8
				c0,0.8-0.3,1.4-0.8,1.8c-0.5,0.5-1.2,0.7-1.8,0.7c-0.7,0-1.3-0.2-1.9-0.7S303.5,295,303.5,294.3z M303.9,301.6h4.6v20.3h-4.6
				V301.6z"/>
			<path class="st0" d="M318.3,292.7h4.6v9h5.6v3.6h-5.6v16.6h-4.6v-16.6h-3.7v-3.6h3.7V292.7z"/>
			<path class="st0" d="M332.1,311.6c0-2,0.5-3.9,1.4-5.5s2.3-2.9,4-3.9c1.7-0.9,3.6-1.4,5.8-1.4c2.2,0,4.2,0.5,5.8,1.4
				c1.7,0.9,3,2.2,3.9,3.9s1.4,3.5,1.4,5.5c0,2-0.5,3.9-1.4,5.5c-0.9,1.7-2.2,2.9-3.9,3.9s-3.6,1.4-5.9,1.4c-2.2,0-4.1-0.4-5.8-1.3
				s-3-2.2-4-3.8S332.1,313.8,332.1,311.6z M336.7,311.6c0,1.3,0.3,2.5,0.9,3.6c0.6,1.1,1.4,1.9,2.4,2.5c1,0.6,2.1,0.9,3.3,0.9
				c1.3,0,2.4-0.3,3.4-0.9c1-0.6,1.8-1.5,2.3-2.5c0.6-1.1,0.8-2.2,0.8-3.6c0-1.3-0.3-2.5-0.8-3.6c-0.6-1.1-1.3-1.9-2.3-2.5
				c-1-0.6-2.1-1-3.4-1c-1.2,0-2.4,0.3-3.4,1c-1,0.7-1.8,1.5-2.4,2.6S336.7,310.3,336.7,311.6z"/>
			<path class="st0" d="M364.7,317.7c-0.7,1.7-1.4,3.4-2.1,5.1c-0.7,1.7-1.4,3.4-2.1,5.1h-3.7c0.7-1.7,1.3-3.4,1.9-5.1
				c0.6-1.7,1.3-3.4,1.9-5.1H364.7z"/>
			<path class="st0" d="M384.3,311.6c0-2,0.5-3.9,1.4-5.5s2.3-2.9,4-3.9c1.7-0.9,3.6-1.4,5.8-1.4c2.2,0,4.2,0.5,5.8,1.4
				c1.7,0.9,3,2.2,3.9,3.9s1.4,3.5,1.4,5.5c0,2-0.5,3.9-1.4,5.5c-0.9,1.7-2.2,2.9-3.9,3.9s-3.6,1.4-5.9,1.4c-2.2,0-4.1-0.4-5.8-1.3
				s-3-2.2-4-3.8S384.3,313.8,384.3,311.6z M388.9,311.6c0,1.3,0.3,2.5,0.9,3.6c0.6,1.1,1.4,1.9,2.4,2.5c1,0.6,2.1,0.9,3.3,0.9
				c1.3,0,2.4-0.3,3.4-0.9c1-0.6,1.8-1.5,2.3-2.5c0.6-1.1,0.8-2.2,0.8-3.6c0-1.3-0.3-2.5-0.8-3.6c-0.6-1.1-1.3-1.9-2.3-2.5
				c-1-0.6-2.1-1-3.4-1c-1.2,0-2.4,0.3-3.4,1c-1,0.7-1.8,1.5-2.4,2.6S388.9,310.3,388.9,311.6z"/>
			<path class="st0" d="M419.2,322.7c-1.8,0-3.3-0.6-4.5-1.7c-1.2-1.1-1.8-2.6-1.9-4.4v-15h4.6V315c0.1,1.1,0.4,2,1,2.7
				c0.6,0.7,1.5,1,2.7,1.1c1.1,0,2.2-0.3,3.1-1c0.9-0.7,1.6-1.6,2.2-2.7c0.6-1.2,0.8-2.5,0.8-3.9v-9.5h4.6v20.3h-4.2l-0.4-5l0.2,0.9
				c-0.4,0.9-1,1.8-1.8,2.5c-0.8,0.7-1.7,1.3-2.8,1.7C421.6,322.5,420.5,322.7,419.2,322.7z"/>
			<path class="st0" d="M465.6,286.5c1.8,0,3.5,0.2,5,0.7s2.8,1.2,4,2.1c1.1,0.9,2,2.1,2.6,3.4c0.6,1.4,1,2.9,1,4.7
				c0,1.4-0.2,2.8-0.6,4.1c-0.4,1.3-1.1,2.6-2,3.7c-0.9,1.1-2.2,2-3.7,2.6s-3.4,1-5.6,1h-5.2v13h-4.8v-35.4H465.6z M466,304.3
				c1.4,0,2.6-0.2,3.5-0.6c0.9-0.4,1.7-1,2.2-1.6c0.5-0.7,0.9-1.4,1.1-2.2s0.3-1.5,0.3-2.2c0-0.7-0.1-1.5-0.4-2.2s-0.6-1.5-1.2-2.1
				c-0.5-0.7-1.2-1.2-2.1-1.6c-0.9-0.4-1.9-0.6-3.2-0.6h-5.5v13.3H466z M471.9,307l9.3,14.9h-5.5l-9.4-14.8L471.9,307z"/>
			<path class="st0" d="M506.8,292.8c-1.2-0.6-2.5-1.2-4-1.6c-1.4-0.5-2.8-0.7-4.2-0.7c-1.9,0-3.4,0.4-4.5,1.3
				c-1.1,0.9-1.7,2.1-1.7,3.5c0,1.1,0.4,2.1,1.1,2.8c0.7,0.8,1.7,1.4,2.8,2c1.2,0.6,2.4,1.1,3.7,1.6c1.1,0.4,2.2,0.9,3.3,1.4
				s2,1.2,2.9,2c0.9,0.8,1.6,1.7,2.1,2.9c0.5,1.1,0.8,2.6,0.8,4.3c0,1.9-0.5,3.6-1.4,5.1c-0.9,1.5-2.3,2.7-4,3.6
				c-1.7,0.9-3.8,1.3-6.2,1.3c-1.6,0-3.1-0.2-4.5-0.5c-1.4-0.4-2.7-0.8-3.9-1.4c-1.2-0.6-2.3-1.2-3.2-1.8l2.1-3.7
				c0.8,0.6,1.7,1.1,2.7,1.6c1,0.5,2.1,0.9,3.2,1.2c1.1,0.3,2.2,0.5,3.2,0.5c1.1,0,2.2-0.2,3.3-0.6c1.1-0.4,2-1,2.7-1.9
				c0.7-0.8,1.1-2,1.1-3.4c0-1.2-0.3-2.2-1-3c-0.6-0.8-1.5-1.5-2.5-2.1c-1-0.6-2.2-1.1-3.3-1.5c-1.1-0.4-2.2-0.9-3.4-1.4
				c-1.1-0.5-2.2-1.1-3.2-1.9c-1-0.7-1.8-1.6-2.4-2.7c-0.6-1.1-0.9-2.4-0.9-3.9c0-1.9,0.4-3.5,1.3-4.9c0.9-1.4,2.1-2.5,3.7-3.3
				c1.6-0.8,3.4-1.2,5.4-1.3c2.3,0,4.3,0.3,6.1,0.8c1.7,0.6,3.3,1.2,4.6,2.1L506.8,292.8z M496.1,325.2v-21.5l1-1.6v-19h2.8v19.6
				l-0.9,2.1v20.3H496.1z"/>
			<path class="st0" d="M511.8,314.1L511.8,314.1l19.7-24.8h0v21.2h4.2v3.6h-4.2v7.8h-4.8v-7.8H511.8z M527,300l-8.3,10.7l-0.7-0.2
				h8.7v-11.4L527,300z"/>
			<path class="st0" d="M539.8,317.5c0.5-0.5,1.1-0.8,1.8-0.8c0.6,0,1.2,0.3,1.7,0.8c0.5,0.5,0.8,1.1,0.8,1.8c0,0.8-0.3,1.4-0.8,1.9
				c-0.5,0.5-1.1,0.7-1.7,0.7c-0.7,0-1.2-0.2-1.8-0.7c-0.5-0.5-0.8-1.1-0.8-1.9C539,318.6,539.3,318,539.8,317.5z"/>
			<path class="st0" d="M557.6,322.3c-1.7,0-3.4-0.3-5-0.9s-2.9-1.4-3.8-2.4l2.5-3.7c0.7,0.8,1.5,1.4,2.6,1.8
				c1.1,0.5,2.2,0.7,3.3,0.7c1.2,0,2.3-0.3,3.2-0.8c0.9-0.5,1.7-1.3,2.2-2.2c0.5-0.9,0.8-2,0.8-3.2c0-1.3-0.2-2.5-0.7-3.5
				s-1.2-1.8-2.1-2.4c-0.9-0.6-2.1-0.9-3.5-0.9c-1.1,0-2.2,0.2-3.2,0.5s-2,0.8-3,1.4h0v-17.1h15.4v4.6h-11.3v8.2l-0.6-1
				c0.6-0.2,1.2-0.4,1.9-0.5c0.7-0.1,1.4-0.2,2-0.2c2.2,0,4,0.5,5.5,1.4c1.5,1,2.6,2.2,3.4,3.8c0.8,1.6,1.2,3.4,1.2,5.3
				c0,2-0.5,3.9-1.4,5.5c-0.9,1.7-2.2,3-3.8,3.9C561.5,321.8,559.7,322.3,557.6,322.3z"/>
			<path class="st0" d="M586.5,322.1c-2,0-3.8-0.4-5.5-1.1c-1.7-0.8-3.1-1.8-4.3-3.3c-1.2-1.4-2.1-3.1-2.8-5.2c-0.7-2-1-4.3-1-6.8
				c0-2.7,0.3-5.1,0.9-7.2s1.5-3.8,2.7-5.1c1.2-1.4,2.6-2.4,4.3-3.1c1.7-0.7,3.5-1,5.6-1c2,0,3.8,0.4,5.5,1.1
				c1.6,0.8,3.1,1.8,4.3,3.3c1.2,1.4,2.1,3.1,2.8,5.1s1,4.3,1,6.8c0,2.6-0.3,4.9-1,6.9c-0.7,2-1.6,3.7-2.8,5.1
				c-1.2,1.4-2.6,2.5-4.3,3.2C590.3,321.7,588.5,322.1,586.5,322.1z M586.5,317.5c1.9,0,3.5-0.5,4.8-1.5c1.3-1,2.3-2.4,2.9-4.2
				c0.7-1.8,1-3.9,1-6.2s-0.3-4.4-1-6.2c-0.7-1.7-1.6-3.1-2.9-4.1c-1.3-1-2.9-1.5-4.8-1.5c-1.9,0-3.5,0.5-4.8,1.5
				c-1.3,1-2.2,2.4-2.9,4.1c-0.6,1.8-1,3.8-1,6.2c0,2.3,0.3,4.4,1,6.2c0.6,1.8,1.6,3.2,2.9,4.2C583,317,584.6,317.5,586.5,317.5z"/>
			<path class="st0" d="M617.1,322.1c-2,0-3.8-0.4-5.5-1.1c-1.7-0.8-3.1-1.8-4.3-3.3c-1.2-1.4-2.1-3.1-2.8-5.2c-0.7-2-1-4.3-1-6.8
				c0-2.7,0.3-5.1,0.9-7.2s1.5-3.8,2.7-5.1c1.2-1.4,2.6-2.4,4.3-3.1c1.7-0.7,3.5-1,5.6-1c2,0,3.8,0.4,5.5,1.1
				c1.6,0.8,3.1,1.8,4.3,3.3c1.2,1.4,2.1,3.1,2.8,5.1s1,4.3,1,6.8c0,2.6-0.3,4.9-1,6.9c-0.7,2-1.6,3.7-2.8,5.1
				c-1.2,1.4-2.6,2.5-4.3,3.2C620.9,321.7,619,322.1,617.1,322.1z M617,317.5c1.9,0,3.5-0.5,4.8-1.5c1.3-1,2.3-2.4,2.9-4.2
				c0.7-1.8,1-3.9,1-6.2s-0.3-4.4-1-6.2c-0.7-1.7-1.6-3.1-2.9-4.1c-1.3-1-2.9-1.5-4.8-1.5c-1.9,0-3.5,0.5-4.8,1.5
				c-1.3,1-2.2,2.4-2.9,4.1c-0.6,1.8-1,3.8-1,6.2c0,2.3,0.3,4.4,1,6.2c0.6,1.8,1.6,3.2,2.9,4.2C613.5,317,615.1,317.5,617,317.5z"/>
			<path class="st0" d="M640.4,317.7c-0.7,1.7-1.4,3.4-2.1,5.1c-0.7,1.7-1.4,3.4-2.1,5.1h-3.7c0.7-1.7,1.3-3.4,1.9-5.1
				c0.6-1.7,1.3-3.4,1.9-5.1H640.4z"/>
			<path class="st0" d="M657.5,322.1c-2,0-3.8-0.4-5.5-1.1c-1.7-0.8-3.1-1.8-4.3-3.3c-1.2-1.4-2.1-3.1-2.8-5.2c-0.7-2-1-4.3-1-6.8
				c0-2.7,0.3-5.1,0.9-7.2s1.5-3.8,2.7-5.1c1.2-1.4,2.6-2.4,4.3-3.1c1.7-0.7,3.5-1,5.6-1c2,0,3.8,0.4,5.5,1.1
				c1.6,0.8,3.1,1.8,4.3,3.3c1.2,1.4,2.1,3.1,2.8,5.1s1,4.3,1,6.8c0,2.6-0.3,4.9-1,6.9c-0.7,2-1.6,3.7-2.8,5.1
				c-1.2,1.4-2.6,2.5-4.3,3.2C661.4,321.7,659.5,322.1,657.5,322.1z M657.5,317.5c1.9,0,3.5-0.5,4.8-1.5c1.3-1,2.3-2.4,2.9-4.2
				c0.7-1.8,1-3.9,1-6.2s-0.3-4.4-1-6.2c-0.7-1.7-1.6-3.1-2.9-4.1c-1.3-1-2.9-1.5-4.8-1.5c-1.9,0-3.5,0.5-4.8,1.5
				c-1.3,1-2.2,2.4-2.9,4.1c-0.6,1.8-1,3.8-1,6.2c0,2.3,0.3,4.4,1,6.2c0.6,1.8,1.6,3.2,2.9,4.2C654,317,655.6,317.5,657.5,317.5z"/>
			<path class="st0" d="M688.1,322.1c-2,0-3.8-0.4-5.5-1.1c-1.7-0.8-3.1-1.8-4.3-3.3c-1.2-1.4-2.1-3.1-2.8-5.2c-0.7-2-1-4.3-1-6.8
				c0-2.7,0.3-5.1,0.9-7.2s1.5-3.8,2.7-5.1c1.2-1.4,2.6-2.4,4.3-3.1c1.7-0.7,3.5-1,5.6-1c2,0,3.8,0.4,5.5,1.1
				c1.6,0.8,3.1,1.8,4.3,3.3c1.2,1.4,2.1,3.1,2.8,5.1s1,4.3,1,6.8c0,2.6-0.3,4.9-1,6.9c-0.7,2-1.6,3.7-2.8,5.1
				c-1.2,1.4-2.6,2.5-4.3,3.2C691.9,321.7,690.1,322.1,688.1,322.1z M688,317.5c1.9,0,3.5-0.5,4.8-1.5c1.3-1,2.3-2.4,2.9-4.2
				c0.7-1.8,1-3.9,1-6.2s-0.3-4.4-1-6.2c-0.7-1.7-1.6-3.1-2.9-4.1c-1.3-1-2.9-1.5-4.8-1.5c-1.9,0-3.5,0.5-4.8,1.5
				c-1.3,1-2.2,2.4-2.9,4.1c-0.6,1.8-1,3.8-1,6.2c0,2.3,0.3,4.4,1,6.2c0.6,1.8,1.6,3.2,2.9,4.2C684.5,317,686.1,317.5,688,317.5z"/>
			<path class="st0" d="M731.2,322.4c-1.9,0-3.6-0.4-5.2-1.2c-1.6-0.8-2.8-2-3.7-3.6c-0.9-1.6-1.3-3.5-1.3-5.8
				c0-2.3,0.5-4.2,1.4-5.9c0.9-1.6,2.2-2.9,3.8-3.8c1.6-0.9,3.3-1.3,5.2-1.3c1.9,0,3.5,0.4,4.8,1.3c1.3,0.9,2.3,1.9,3,3.1l-0.3,0.8
				l0.4-4.3h4.2v20.3H739v-5.3l0.5,1.2c-0.1,0.3-0.4,0.7-0.9,1.3c-0.4,0.5-1,1-1.8,1.5c-0.7,0.5-1.6,1-2.5,1.3
				C733.4,322.2,732.4,322.4,731.2,322.4z M732.4,318.6c1.1,0,2.2-0.2,3.1-0.6c0.9-0.4,1.7-1,2.3-1.8c0.6-0.8,1-1.7,1.3-2.8v-4
				c-0.3-1-0.7-1.8-1.4-2.6c-0.7-0.7-1.4-1.3-2.4-1.7c-0.9-0.4-1.9-0.6-3-0.6c-1.2,0-2.3,0.3-3.3,0.9c-1,0.6-1.8,1.4-2.4,2.5
				c-0.6,1-0.9,2.3-0.9,3.7c0,1.3,0.3,2.5,0.9,3.6c0.6,1.1,1.5,1.9,2.5,2.5C730.1,318.3,731.2,318.6,732.4,318.6z M726.7,290.9h5
				l3.6,6.6h-2.9L726.7,290.9z"/>
			<path class="st0" d="M150.3,371.5L139,350.6h5.4l7.6,16.1l-2.8-0.1l7-16h5.1l-10.8,20.9H150.3z"/>
			<path class="st0" d="M165.9,343.3c0-0.7,0.3-1.3,0.9-1.8s1.2-0.7,1.9-0.7c0.7,0,1.3,0.2,1.8,0.7s0.8,1.1,0.8,1.8
				c0,0.8-0.3,1.4-0.8,1.8c-0.5,0.5-1.2,0.7-1.8,0.7c-0.7,0-1.3-0.2-1.9-0.7S165.9,344,165.9,343.3z M166.2,350.6h4.6v20.3h-4.6
				V350.6z"/>
			<path class="st0" d="M184.4,371.3c-1.4,0-2.8-0.3-4.2-0.8c-1.4-0.5-2.5-1.3-3.4-2.3l1.9-2.6c0.8,0.8,1.7,1.4,2.6,1.8
				c0.9,0.4,1.8,0.6,2.7,0.6c0.7,0,1.3-0.1,1.8-0.2c0.6-0.2,1-0.4,1.3-0.8c0.3-0.4,0.5-0.9,0.5-1.5c0-0.7-0.2-1.3-0.7-1.7
				c-0.5-0.4-1.1-0.8-1.8-1c-0.7-0.3-1.5-0.5-2.3-0.7c-1.7-0.6-2.9-1.3-3.8-2.3c-0.9-1-1.3-2.2-1.3-3.6c0-1.1,0.3-2.1,0.8-3
				c0.5-0.9,1.3-1.7,2.4-2.3c1.1-0.6,2.4-0.9,3.9-0.9c1.4,0,2.7,0.2,3.8,0.5c1.1,0.3,2.2,0.9,3.1,1.7L190,355
				c-0.6-0.6-1.3-1.1-2.1-1.4c-0.8-0.3-1.6-0.5-2.2-0.5c-0.6,0-1.1,0-1.6,0.2c-0.5,0.2-0.9,0.5-1.3,0.8c-0.3,0.4-0.5,0.8-0.5,1.3
				c0,0.7,0.2,1.2,0.7,1.7c0.5,0.4,1.1,0.8,1.8,1s1.5,0.5,2.2,0.8c1,0.3,1.9,0.7,2.7,1.2s1.4,1.1,1.9,1.8c0.5,0.7,0.7,1.6,0.7,2.7
				c0,1.2-0.3,2.3-0.9,3.4s-1.4,1.8-2.6,2.5S186.2,371.3,184.4,371.3z"/>
			<path class="st0" d="M200.6,341.7h4.6v9h5.6v3.6h-5.6v16.6h-4.6v-16.6h-3.7v-3.6h3.7V341.7z"/>
			<path class="st0" d="M224.7,371.4c-1.9,0-3.6-0.4-5.2-1.2c-1.6-0.8-2.8-2-3.7-3.6c-0.9-1.6-1.3-3.5-1.3-5.8
				c0-2.3,0.5-4.2,1.4-5.9c0.9-1.6,2.2-2.9,3.8-3.8c1.6-0.9,3.3-1.3,5.2-1.3c1.9,0,3.5,0.4,4.8,1.3c1.3,0.9,2.3,1.9,3,3.1l-0.3,0.8
				l0.4-4.3h4.2v20.3h-4.6v-5.3l0.5,1.2c-0.1,0.3-0.4,0.7-0.9,1.3c-0.4,0.5-1,1-1.8,1.5c-0.7,0.5-1.6,1-2.5,1.3
				C226.9,371.2,225.8,371.4,224.7,371.4z M225.9,367.6c1.1,0,2.2-0.2,3.1-0.6c0.9-0.4,1.7-1,2.3-1.8c0.6-0.8,1-1.7,1.3-2.8v-4
				c-0.3-1-0.7-1.8-1.4-2.6c-0.7-0.7-1.4-1.3-2.4-1.7c-0.9-0.4-1.9-0.6-3-0.6c-1.2,0-2.3,0.3-3.3,0.9c-1,0.6-1.8,1.4-2.4,2.5
				c-0.6,1-0.9,2.3-0.9,3.7c0,1.3,0.3,2.5,0.9,3.6c0.6,1.1,1.5,1.9,2.5,2.5C223.5,367.3,224.7,367.6,225.9,367.6z"/>
			<path class="st0" d="M245.9,370.7c-0.8,0-1.5-0.2-2.1-0.7c-0.6-0.5-0.8-1.1-0.8-1.9c0-0.8,0.3-1.4,0.8-1.9
				c0.6-0.5,1.2-0.8,2.1-0.8c0.8,0,1.5,0.3,2.1,0.8c0.5,0.5,0.8,1.1,0.8,1.9c0,0.8-0.3,1.4-0.8,1.9
				C247.5,370.5,246.8,370.7,245.9,370.7z M243.8,333.7h4.1v28h-4.1V333.7z"/>
			<path class="st0" d="M273.8,347.4c0.8-2.8,1.8-5.4,3-7.6c1.2-2.3,2.5-4.1,3.9-5.5l1.6,1.5c-1.2,1.4-2.4,3.2-3.6,5.3
				c-1.1,2.1-2,4.5-2.7,7.1c-0.7,2.6-1,5.5-1,8.6s0.3,5.9,1,8.6c0.7,2.6,1.6,5,2.7,7.1c1.1,2.1,2.3,3.8,3.6,5.3l-1.6,1.5
				c-1.4-1.4-2.7-3.3-3.9-5.5c-1.2-2.3-2.3-4.8-3-7.7c-0.8-2.9-1.2-5.9-1.2-9.2C272.6,353.3,273,350.2,273.8,347.4z"/>
			<path class="st1" d="M298.5,371.3c-2,0-3.8-0.4-5.3-1.3c-1.5-0.9-2.7-2.1-3.6-3.6c-0.9-1.5-1.3-3.2-1.3-5.1
				c0-1.9,0.5-3.6,1.4-5.1c0.9-1.5,2.1-2.8,3.7-3.7c1.6-0.9,3.3-1.4,5.2-1.4c2.3,0,4.2,0.7,5.8,2c1.6,1.3,2.7,3.1,3.4,5.2l-16.8,6.5
				l-0.7-1.7l15.3-6l-0.5,0.7c-0.6-1.3-1.4-2.4-2.5-3.4c-1.1-0.9-2.5-1.4-4.1-1.4c-1.5,0-2.8,0.4-4,1.1c-1.2,0.7-2.1,1.7-2.8,2.9
				c-0.7,1.2-1.1,2.6-1.1,4.1c0,1.4,0.3,2.8,1,4c0.7,1.2,1.6,2.2,2.8,3c1.2,0.8,2.6,1.1,4.2,1.1c1,0,2.1-0.2,3-0.6
				c1-0.4,1.8-0.9,2.6-1.5l1.2,1.7c-0.9,0.7-2,1.3-3.2,1.8C301,371.1,299.8,371.3,298.5,371.3z"/>
			<path class="st1" d="M328.9,369.1c-0.9,0.7-1.9,1.3-3,1.7c-1.1,0.4-2.3,0.6-3.5,0.6c-2,0-3.7-0.4-5.2-1.3
				c-1.5-0.9-2.7-2.1-3.6-3.6c-0.9-1.5-1.3-3.2-1.3-5.1c0-1.9,0.5-3.6,1.4-5.1c0.9-1.5,2.1-2.7,3.7-3.6c1.5-0.9,3.2-1.3,5-1.3
				c1.3,0,2.6,0.2,3.7,0.6c1.1,0.4,2.1,0.9,3,1.7l-1.2,1.6c-0.7-0.6-1.5-1-2.4-1.4c-0.9-0.4-1.9-0.5-2.9-0.5c-1.4,0-2.8,0.4-3.9,1.1
				c-1.2,0.7-2.1,1.7-2.8,2.9c-0.7,1.2-1.1,2.6-1.1,4.1c0,1.5,0.4,2.8,1.1,4c0.7,1.2,1.7,2.2,2.9,2.9c1.2,0.7,2.6,1.1,4.1,1.1
				c1,0,1.9-0.2,2.7-0.5c0.8-0.3,1.6-0.7,2.3-1.3L328.9,369.1z"/>
			<path class="st1" d="M333.4,361.2c0-1.9,0.4-3.6,1.3-5.1c0.9-1.5,2.1-2.8,3.7-3.7c1.6-0.9,3.3-1.3,5.2-1.3c2,0,3.7,0.4,5.2,1.3
				s2.7,2.1,3.6,3.7c0.9,1.5,1.3,3.2,1.3,5.1c0,1.9-0.4,3.6-1.3,5.1c-0.9,1.5-2.1,2.8-3.7,3.7c-1.6,0.9-3.3,1.3-5.2,1.3
				c-2,0-3.7-0.4-5.2-1.3c-1.5-0.9-2.8-2.1-3.7-3.6C333.9,364.9,333.4,363.2,333.4,361.2z M335.7,361.3c0,1.5,0.4,2.9,1.1,4.1
				c0.7,1.2,1.6,2.2,2.8,2.9c1.2,0.7,2.5,1.1,4,1.1s2.8-0.4,4-1.1s2.1-1.7,2.8-2.9c0.7-1.2,1.1-2.6,1.1-4.1s-0.4-2.9-1.1-4.1
				s-1.7-2.2-2.8-2.9c-1.2-0.7-2.5-1.1-4-1.1c-1.5,0-2.9,0.4-4,1.2s-2.1,1.8-2.8,3C336.1,358.5,335.7,359.9,335.7,361.3z"/>
			<path class="st1" d="M362.7,351.8l0.2,6l-0.3-1.2c0.6-1.7,1.6-3,3.2-3.9c1.6-1,3.3-1.4,5.2-1.4c1.8,0,3.3,0.5,4.4,1.6
				c1.1,1.1,1.7,2.4,1.7,4.1v14h-2.4v-13.3c0-1.2-0.4-2.3-1.2-3.1s-1.8-1.2-3.3-1.3c-1.3,0-2.5,0.3-3.6,0.9c-1.1,0.6-2,1.5-2.7,2.6
				c-0.7,1.1-1,2.4-1,3.9v10.3h-2.3v-19.2H362.7z"/>
			<path class="st1" d="M384,361.2c0-1.9,0.4-3.6,1.3-5.1c0.9-1.5,2.1-2.8,3.7-3.7c1.6-0.9,3.3-1.3,5.2-1.3c2,0,3.7,0.4,5.2,1.3
				s2.7,2.1,3.6,3.7c0.9,1.5,1.3,3.2,1.3,5.1c0,1.9-0.4,3.6-1.3,5.1c-0.9,1.5-2.1,2.8-3.7,3.7c-1.6,0.9-3.3,1.3-5.2,1.3
				c-2,0-3.7-0.4-5.2-1.3c-1.5-0.9-2.8-2.1-3.7-3.6C384.4,364.9,384,363.2,384,361.2z M386.3,361.3c0,1.5,0.4,2.9,1.1,4.1
				c0.7,1.2,1.6,2.2,2.8,2.9c1.2,0.7,2.5,1.1,4,1.1s2.8-0.4,4-1.1s2.1-1.7,2.8-2.9c0.7-1.2,1.1-2.6,1.1-4.1s-0.4-2.9-1.1-4.1
				s-1.7-2.2-2.8-2.9c-1.2-0.7-2.5-1.1-4-1.1c-1.5,0-2.9,0.4-4,1.2s-2.1,1.8-2.8,3C386.6,358.5,386.3,359.9,386.3,361.3z"/>
			<path class="st1" d="M413.3,351.8l0.2,5.3l-0.3-0.5c0.7-1.7,1.7-3,3.3-3.9s3.2-1.4,5-1.4c1.1,0,2,0.2,2.9,0.6
				c0.9,0.4,1.6,1,2.1,1.7c0.5,0.7,0.9,1.5,1,2.4l-0.3,0.3c0.7-1.6,1.8-2.9,3.2-3.7c1.5-0.8,3.1-1.3,4.8-1.3c1.8,0,3.3,0.5,4.4,1.6
				c1.1,1.1,1.6,2.4,1.7,4.1v14h-2.3v-13.5c0-1.1-0.4-2.1-1.1-2.9s-1.7-1.2-3.1-1.3c-1.3,0-2.5,0.3-3.5,1c-1.1,0.7-2,1.5-2.6,2.6
				c-0.7,1.1-1,2.3-1.1,3.6v10.5H425v-13.5c0-1.1-0.4-2.1-1.1-2.9c-0.7-0.8-1.8-1.2-3.2-1.3c-1.3,0-2.5,0.3-3.6,1
				c-1.1,0.7-2,1.5-2.6,2.7c-0.7,1.1-1,2.4-1,3.7v10.3h-2.3v-19.2H413.3z"/>
			<path class="st1" d="M449.3,344.7c0-0.5,0.2-0.8,0.5-1.2c0.4-0.3,0.8-0.5,1.2-0.5c0.5,0,0.8,0.2,1.2,0.5c0.3,0.3,0.5,0.7,0.5,1.2
				c0,0.5-0.2,0.9-0.5,1.2c-0.3,0.3-0.7,0.5-1.2,0.5c-0.4,0-0.8-0.2-1.2-0.5C449.5,345.6,449.3,345.2,449.3,344.7z M449.8,351.8h2.3
				v19.2h-2.3V351.8z"/>
			<path class="st1" d="M461.3,353.7c-0.9,0-1.6-0.2-2.1-0.6c-0.6-0.4-0.8-1.1-0.8-2.2V350h1.8v0.6c0,0.4,0.1,0.7,0.4,0.9
				c0.3,0.2,0.7,0.3,1.3,0.3h12.4l-12.4,17.7l-0.5-0.5h12.7v2h-15.8l12.6-17.9l0.5,0.6H461.3z"/>
			<path class="st1" d="M489,371.3c-2,0-3.8-0.4-5.3-1.3c-1.5-0.9-2.7-2.1-3.6-3.6c-0.9-1.5-1.3-3.2-1.3-5.1c0-1.9,0.5-3.6,1.4-5.1
				c0.9-1.5,2.1-2.8,3.7-3.7c1.6-0.9,3.3-1.4,5.2-1.4c2.3,0,4.2,0.7,5.8,2c1.6,1.3,2.7,3.1,3.4,5.2l-16.8,6.5l-0.7-1.7l15.3-6
				l-0.5,0.7c-0.6-1.3-1.4-2.4-2.5-3.4c-1.1-0.9-2.5-1.4-4.1-1.4c-1.5,0-2.8,0.4-4,1.1c-1.2,0.7-2.1,1.7-2.8,2.9
				c-0.7,1.2-1.1,2.6-1.1,4.1c0,1.4,0.3,2.8,1,4c0.7,1.2,1.6,2.2,2.8,3c1.2,0.8,2.6,1.1,4.2,1.1c1,0,2.1-0.2,3-0.6
				c1-0.4,1.8-0.9,2.6-1.5l1.2,1.7c-0.9,0.7-2,1.3-3.2,1.8C491.4,371.1,490.2,371.3,489,371.3z"/>
			<path class="st0" d="M528.7,336.1c1.3,0,2.6,0.2,3.9,0.6c1.3,0.4,2.5,1,3.5,1.8c1.1,0.8,1.9,1.8,2.6,3.1c0.7,1.2,1,2.7,1,4.5
				c0,1.3-0.2,2.6-0.6,3.8c-0.4,1.2-1,2.3-1.9,3.3c-0.9,1-2,1.8-3.4,2.4c-1.4,0.6-3.1,0.9-5.2,0.9h-5.4v14.6h-2.4v-34.8H528.7z
				 M528.4,354c1.7,0,3.2-0.2,4.3-0.7c1.1-0.5,2-1.1,2.7-1.9c0.7-0.8,1.1-1.6,1.4-2.6c0.3-0.9,0.4-1.8,0.4-2.7c0-1-0.2-2-0.6-2.9
				c-0.4-0.9-0.9-1.7-1.6-2.4c-0.7-0.7-1.6-1.3-2.6-1.7c-1-0.4-2.1-0.6-3.4-0.6h-5.9V354H528.4z M533.4,355.1l9.7,15.8h-2.8
				l-9.7-15.8L533.4,355.1z"/>
			<path class="st0" d="M569.2,340.1c-1-0.5-2.3-0.9-3.7-1.4s-2.9-0.6-4.4-0.6c-2.3,0-4.1,0.6-5.5,1.7s-2.1,2.6-2.1,4.3
				c0,1.3,0.4,2.4,1.2,3.3c0.8,0.9,1.8,1.6,3.1,2.2c1.3,0.6,2.6,1.2,4.1,1.7c1.1,0.4,2.3,0.9,3.4,1.4c1.1,0.5,2.1,1.2,3.1,1.9
				c0.9,0.8,1.6,1.7,2.2,2.8c0.5,1.1,0.8,2.5,0.8,4.1c0,1.9-0.5,3.6-1.4,5.1c-0.9,1.5-2.2,2.6-3.8,3.5c-1.6,0.8-3.5,1.2-5.7,1.2
				c-1.7,0-3.3-0.2-4.7-0.6c-1.4-0.4-2.7-0.9-3.7-1.5c-1.1-0.6-1.9-1.1-2.5-1.4l1.1-2c0.7,0.5,1.6,1,2.6,1.6c1,0.5,2.1,1,3.4,1.3
				c1.2,0.4,2.4,0.5,3.6,0.5c1.4,0,2.8-0.3,4.1-0.8c1.3-0.6,2.4-1.4,3.3-2.5c0.9-1.1,1.3-2.6,1.3-4.3c0-1.7-0.4-3-1.2-4
				s-1.9-1.9-3.1-2.5s-2.6-1.2-4.1-1.8c-1.1-0.4-2.2-0.9-3.3-1.3c-1.1-0.5-2.1-1-3-1.7c-0.9-0.7-1.6-1.5-2.2-2.4
				c-0.5-0.9-0.8-2.1-0.8-3.4c0-1.7,0.4-3.1,1.3-4.4c0.8-1.2,2-2.2,3.5-2.9c1.5-0.7,3.1-1.1,5-1.1c1.6,0,3.3,0.2,5,0.6
				c1.7,0.4,3.1,1,4.4,1.6L569.2,340.1z M560.3,374.3v-21.6v-0.9v-18.8h1.6v18.8v1.1v21.4H560.3z"/>
			<path class="st0" d="M574.5,363.8L574.5,363.8l20.7-25.8h0v20.4h3.9v5.4h-3.9v7.1h-7.2v-7.1H574.5z M588.5,353.7l-3.8,5l-0.7-0.3
				h4.1v-5.1L588.5,353.7z"/>
			<path class="st0" d="M612.2,360.8c-1.6,0-3.1-0.4-4.5-1.3c-1.5-0.9-2.7-2.1-3.6-3.7c-0.9-1.6-1.4-3.4-1.4-5.5
				c0-2.6,0.6-4.8,1.7-6.7s2.7-3.2,4.5-4.2c1.8-0.9,3.8-1.4,5.8-1.4c2.4,0,4.5,0.5,6.4,1.6c1.9,1.1,3.4,2.5,4.5,4.4
				c1.1,1.8,1.7,3.9,1.7,6.2c0,2.7-0.5,5.1-1.4,7.2c-0.9,2.1-2.2,4.1-3.7,5.8c-1.6,1.7-3.3,3.2-5.2,4.6c-1.9,1.4-3.8,2.7-5.7,3.9
				l-4.8-5.1c2.6-1.1,4.9-2.3,6.9-3.7c2-1.4,3.5-2.8,4.7-4.4c1.1-1.5,1.7-3,1.7-4.5l1.8,0.2c-0.9,2.1-2,3.7-3.4,4.8
				C616.6,360.2,614.7,360.8,612.2,360.8z M614.9,354.8c1.4,0,2.5-0.4,3.5-1.3c0.9-0.9,1.4-1.9,1.4-3v-1.1c0-0.8-0.2-1.6-0.6-2.4
				c-0.4-0.8-1-1.4-1.7-1.8c-0.7-0.5-1.6-0.7-2.5-0.7c-0.9,0-1.7,0.2-2.5,0.6c-0.8,0.4-1.3,1-1.8,1.8c-0.4,0.8-0.6,1.7-0.6,2.9
				c0,1.1,0.2,2.1,0.7,2.8c0.4,0.8,1,1.3,1.8,1.7C613.2,354.6,614,354.8,614.9,354.8z"/>
			<path class="st0" d="M638.9,360.8c-1.6,0-3.1-0.4-4.5-1.3c-1.5-0.9-2.7-2.1-3.6-3.7c-0.9-1.6-1.4-3.4-1.4-5.5
				c0-2.6,0.6-4.8,1.7-6.7s2.7-3.2,4.5-4.2c1.8-0.9,3.8-1.4,5.8-1.4c2.4,0,4.5,0.5,6.4,1.6c1.9,1.1,3.4,2.5,4.5,4.4
				c1.1,1.8,1.7,3.9,1.7,6.2c0,2.7-0.5,5.1-1.4,7.2c-0.9,2.1-2.2,4.1-3.7,5.8c-1.6,1.7-3.3,3.2-5.2,4.6c-1.9,1.4-3.8,2.7-5.7,3.9
				l-4.8-5.1c2.6-1.1,4.9-2.3,6.9-3.7c2-1.4,3.5-2.8,4.7-4.4c1.1-1.5,1.7-3,1.7-4.5l1.8,0.2c-0.9,2.1-2,3.7-3.4,4.8
				C643.4,360.2,641.4,360.8,638.9,360.8z M641.7,354.8c1.4,0,2.5-0.4,3.5-1.3c0.9-0.9,1.4-1.9,1.4-3v-1.1c0-0.8-0.2-1.6-0.6-2.4
				c-0.4-0.8-1-1.4-1.7-1.8c-0.7-0.5-1.6-0.7-2.5-0.7c-0.9,0-1.7,0.2-2.5,0.6c-0.8,0.4-1.3,1-1.8,1.8c-0.4,0.8-0.6,1.7-0.6,2.9
				c0,1.1,0.2,2.1,0.7,2.8c0.4,0.8,1,1.3,1.8,1.7C639.9,354.6,640.7,354.8,641.7,354.8z"/>
			<path class="st0" d="M661.7,366.7c-0.7,1.7-1.4,3.4-2.1,5.1s-1.4,3.4-2.1,5.1h-2c0.7-1.7,1.3-3.4,1.9-5.1
				c0.6-1.7,1.2-3.4,1.9-5.1H661.7z"/>
			<path class="st0" d="M679.7,371.2c-2.1,0-4-0.4-5.7-1.3c-1.7-0.8-3.1-2-4.2-3.5s-2-3.2-2.6-5.2c-0.6-2-0.9-4.1-0.9-6.3
				c0-2.3,0.3-4.5,0.9-6.4c0.6-2,1.5-3.7,2.6-5.2s2.5-2.6,4.2-3.4c1.7-0.8,3.6-1.2,5.7-1.2c2.1,0,4,0.4,5.7,1.3c1.7,0.8,3,2,4.2,3.5
				c1.1,1.5,2,3.2,2.6,5.2c0.6,2,0.9,4.1,0.9,6.3c0,2.3-0.3,4.4-0.9,6.4c-0.6,2-1.5,3.7-2.6,5.2c-1.1,1.5-2.5,2.6-4.2,3.5
				C683.7,370.8,681.8,371.2,679.7,371.2z M679.6,368.9c2.2,0,4.1-0.6,5.7-1.7c1.7-1.1,2.9-2.7,3.9-4.9c0.9-2.1,1.4-4.6,1.4-7.5
				c0-2.8-0.5-5.3-1.4-7.4c-0.9-2.1-2.2-3.7-3.9-4.9c-1.6-1.1-3.6-1.7-5.7-1.7c-2.2,0-4.1,0.5-5.7,1.7c-1.6,1.1-2.9,2.8-3.8,4.9
				c-0.9,2.1-1.4,4.6-1.4,7.5c0,2.8,0.5,5.3,1.4,7.4c0.9,2.1,2.2,3.7,3.8,4.9C675.6,368.3,677.5,368.9,679.6,368.9z"/>
			<path class="st0" d="M710,371.2c-2.1,0-4-0.4-5.7-1.3c-1.7-0.8-3.1-2-4.2-3.5s-2-3.2-2.6-5.2c-0.6-2-0.9-4.1-0.9-6.3
				c0-2.3,0.3-4.5,0.9-6.4c0.6-2,1.5-3.7,2.6-5.2s2.5-2.6,4.2-3.4c1.7-0.8,3.6-1.2,5.7-1.2c2.1,0,4,0.4,5.7,1.3c1.7,0.8,3,2,4.2,3.5
				c1.1,1.5,2,3.2,2.6,5.2c0.6,2,0.9,4.1,0.9,6.3c0,2.3-0.3,4.4-0.9,6.4c-0.6,2-1.5,3.7-2.6,5.2c-1.1,1.5-2.5,2.6-4.2,3.5
				C714,370.8,712.2,371.2,710,371.2z M710,368.9c2.2,0,4.1-0.6,5.7-1.7c1.7-1.1,2.9-2.7,3.9-4.9c0.9-2.1,1.4-4.6,1.4-7.5
				c0-2.8-0.5-5.3-1.4-7.4c-0.9-2.1-2.2-3.7-3.9-4.9c-1.6-1.1-3.6-1.7-5.7-1.7c-2.2,0-4.1,0.5-5.7,1.7c-1.6,1.1-2.9,2.8-3.8,4.9
				c-0.9,2.1-1.4,4.6-1.4,7.5c0,2.8,0.5,5.3,1.4,7.4c0.9,2.1,2.2,3.7,3.8,4.9C705.9,368.3,707.8,368.9,710,368.9z"/>
			<path class="st0" d="M738.4,365.8c-0.8,2.9-1.8,5.4-3,7.7c-1.2,2.3-2.5,4.1-3.9,5.5l-1.6-1.5c1.3-1.4,2.5-3.2,3.6-5.3
				c1.1-2.1,2-4.4,2.7-7.1c0.7-2.6,1-5.5,1-8.6s-0.3-5.9-1-8.6c-0.7-2.6-1.6-5-2.7-7.1c-1.1-2.1-2.3-3.8-3.6-5.3l1.6-1.5
				c1.4,1.4,2.7,3.3,3.9,5.5c1.2,2.3,2.2,4.8,3,7.6s1.2,5.9,1.2,9.2C739.5,359.8,739.1,362.9,738.4,365.8z"/>
		</g>
	</g>
	<g>
		<g>
			<g>
				<path class="st0" d="M97.2,138.2h20.9v69.6h-15.3v-54.9h-5.6V138.2z"/>
				<path class="st0" d="M161.1,207.9c-4,0-7.8-0.7-11.3-2.1c-3.5-1.4-6.7-3.6-9.3-6.5c-2.7-2.9-4.8-6.6-6.4-11
					c-1.5-4.4-2.3-9.7-2.3-15.7c0-6.7,0.7-12.3,2.2-16.9c1.5-4.5,3.5-8.1,6.1-10.9c2.6-2.7,5.7-4.7,9.3-5.8
					c3.6-1.2,7.5-1.7,11.7-1.7c4,0,7.8,0.7,11.3,2.1c3.5,1.4,6.7,3.6,9.3,6.5c2.7,2.9,4.8,6.6,6.4,11c1.5,4.4,2.3,9.7,2.3,15.7
					c0,6.2-0.8,11.6-2.3,16.1c-1.5,4.5-3.7,8.1-6.4,11c-2.7,2.8-5.8,4.9-9.3,6.2C168.8,207.2,165.1,207.9,161.1,207.9z M161,193.3
					c3.5,0,6.2-0.9,8.2-2.8c2-1.9,3.3-4.4,4.1-7.6c0.8-3.2,1.2-6.8,1.2-10.7c0-3.8-0.4-7.3-1.2-10.3c-0.8-3-2.2-5.4-4.1-7.2
					c-2-1.8-4.7-2.7-8.2-2.7c-3.4,0-6.1,0.9-8.1,2.7c-2,1.8-3.3,4.3-4.1,7.4c-0.8,3.1-1.2,6.5-1.2,10.4c0,3.9,0.4,7.4,1.2,10.5
					c0.8,3.2,2.1,5.7,4.1,7.5C154.8,192.4,157.5,193.3,161,193.3z"/>
				<path class="st0" d="M248.3,207.8h-17.8l-35.4-45.9h18.1L248.3,207.8z M220.5,193.1l-10.3,14.7h-14.6l18.2-24.6L220.5,193.1z
					 M222.4,176.5l8.7-14.6h14.6l-18.2,25.2L222.4,176.5z"/>
			</g>
		</g>
		<g>
			<g>
				<path class="st2" d="M268.4,176.9v-0.2l88.9-110.3h0.2v87.4h16.6v23.1h-16.6v30.5h-30.7v-30.5H268.4z M328.3,133.4l-16.2,21.6
					l-2.9-1.3h17.6V132L328.3,133.4z"/>
				<path class="st2" d="M429.7,163.9c-6.7,0-13.2-1.9-19.4-5.7c-6.2-3.8-11.4-9.1-15.4-15.9c-4.1-6.8-6.1-14.6-6.1-23.4
					c0-11.2,2.5-20.7,7.5-28.6c5-7.8,11.4-13.8,19.2-17.9c7.8-4.1,16.1-6.1,24.8-6.1c10.2,0,19.4,2.3,27.4,6.8
					c8.1,4.6,14.5,10.8,19.2,18.7c4.8,7.9,7.1,16.8,7.1,26.8c0,11.5-2,21.8-6,31c-4,9.2-9.3,17.4-16,24.7
					c-6.7,7.3-14,13.9-22.2,19.8c-8.1,6-16.3,11.5-24.6,16.7l-20.4-22.1c11.2-4.6,21.1-9.9,29.6-15.9c8.5-6,15.2-12.2,20-18.7
					c4.8-6.5,7.1-12.9,7.1-19.2l7.6,0.8c-3.8,8.8-8.6,15.7-14.5,20.6C448.8,161.4,440.5,163.9,429.7,163.9z M441.5,138.3
					c5.9,0,10.9-1.9,14.9-5.7c4.1-3.8,6.1-8.1,6.1-12.8V115c0-3.6-0.9-7.1-2.7-10.3c-1.8-3.2-4.3-5.8-7.5-7.9c-3.2-2-6.8-3-10.8-3
					c-3.9,0-7.5,0.9-10.7,2.6c-3.2,1.8-5.7,4.3-7.6,7.7c-1.8,3.4-2.7,7.5-2.7,12.4c0,4.8,0.9,8.8,2.8,12.1c1.9,3.3,4.4,5.7,7.6,7.4
					C434,137.5,437.6,138.3,441.5,138.3z"/>
				<path class="st2" d="M544.4,163.9c-6.7,0-13.2-1.9-19.4-5.7c-6.2-3.8-11.4-9.1-15.4-15.9c-4.1-6.8-6.1-14.6-6.1-23.4
					c0-11.2,2.5-20.7,7.5-28.6c5-7.8,11.4-13.8,19.2-17.9c7.8-4.1,16.1-6.1,24.8-6.1c10.2,0,19.4,2.3,27.4,6.8
					c8.1,4.6,14.5,10.8,19.2,18.7c4.8,7.9,7.1,16.8,7.1,26.8c0,11.5-2,21.8-6,31c-4,9.2-9.3,17.4-16,24.7
					c-6.7,7.3-14,13.9-22.2,19.8c-8.1,6-16.3,11.5-24.6,16.7l-20.4-22.1c11.2-4.6,21.1-9.9,29.6-15.9c8.5-6,15.2-12.2,20-18.7
					c4.8-6.5,7.1-12.9,7.1-19.2l7.6,0.8c-3.8,8.8-8.6,15.7-14.5,20.6C563.5,161.4,555.2,163.9,544.4,163.9z M556.2,138.3
					c5.9,0,10.9-1.9,14.9-5.7c4.1-3.8,6.1-8.1,6.1-12.8V115c0-3.6-0.9-7.1-2.7-10.3c-1.8-3.2-4.3-5.8-7.5-7.9c-3.2-2-6.8-3-10.8-3
					c-3.9,0-7.5,0.9-10.7,2.6c-3.2,1.8-5.7,4.3-7.6,7.7c-1.8,3.4-2.7,7.5-2.7,12.4c0,4.8,0.9,8.8,2.8,12.1c1.9,3.3,4.4,5.7,7.6,7.4
					C548.7,137.5,552.3,138.3,556.2,138.3z"/>
				<path class="st2" d="M645.1,191.8c-2.6,6.3-5.2,12.4-7.8,18.6c-2.6,6.1-5.2,12.3-7.8,18.6h-19.8c2.4-6.2,4.7-12.4,7-18.6
					s4.6-12.3,7-18.6H645.1z"/>
				<path class="st2" d="M681.4,207.5c-4,0-7.8-0.7-11.4-2.1c-3.6-1.4-6.7-3.6-9.4-6.5c-2.7-2.9-4.9-6.6-6.4-11.1
					c-1.6-4.5-2.3-9.8-2.3-15.9c0-6.8,0.7-12.5,2.2-17c1.5-4.6,3.6-8.2,6.2-11c2.7-2.8,5.8-4.7,9.4-5.9s7.5-1.8,11.8-1.8
					c4,0,7.8,0.7,11.4,2.1c3.6,1.4,6.7,3.6,9.4,6.5c2.7,2.9,4.9,6.6,6.4,11.1c1.6,4.5,2.3,9.8,2.3,15.9c0,6.3-0.8,11.7-2.3,16.2
					c-1.6,4.5-3.7,8.2-6.5,11.1c-2.8,2.9-5.9,5-9.4,6.3C689.2,206.8,685.4,207.5,681.4,207.5z M681.3,192.7c3.5,0,6.3-0.9,8.3-2.8
					c2-1.9,3.4-4.4,4.2-7.7c0.8-3.3,1.2-6.9,1.2-10.8c0-3.9-0.4-7.4-1.2-10.4c-0.8-3-2.2-5.5-4.2-7.3c-2-1.8-4.7-2.7-8.3-2.7
					c-3.5,0-6.2,0.9-8.2,2.8c-2,1.8-3.4,4.3-4.1,7.4c-0.8,3.1-1.2,6.6-1.2,10.5c0,3.9,0.4,7.4,1.2,10.6c0.8,3.2,2.2,5.7,4.1,7.6
					C675.1,191.8,677.8,192.7,681.3,192.7z"/>
				<path class="st2" d="M748,207.5c-4,0-7.8-0.7-11.4-2.1c-3.6-1.4-6.7-3.6-9.4-6.5c-2.7-2.9-4.9-6.6-6.4-11.1
					c-1.6-4.5-2.3-9.8-2.3-15.9c0-6.8,0.7-12.5,2.2-17c1.5-4.6,3.6-8.2,6.2-11c2.7-2.8,5.8-4.7,9.4-5.9s7.5-1.8,11.8-1.8
					c4,0,7.8,0.7,11.4,2.1c3.6,1.4,6.7,3.6,9.4,6.5c2.7,2.9,4.9,6.6,6.4,11.1c1.6,4.5,2.3,9.8,2.3,15.9c0,6.3-0.8,11.7-2.3,16.2
					c-1.6,4.5-3.7,8.2-6.5,11.1c-2.8,2.9-5.9,5-9.4,6.3C755.8,206.8,752.1,207.5,748,207.5z M747.9,192.7c3.5,0,6.3-0.9,8.3-2.8
					c2-1.9,3.4-4.4,4.2-7.7c0.8-3.3,1.2-6.9,1.2-10.8c0-3.9-0.4-7.4-1.2-10.4c-0.8-3-2.2-5.5-4.2-7.3c-2-1.8-4.7-2.7-8.3-2.7
					c-3.5,0-6.2,0.9-8.2,2.8c-2,1.8-3.4,4.3-4.1,7.4c-0.8,3.1-1.2,6.6-1.2,10.5c0,3.9,0.4,7.4,1.2,10.6c0.8,3.2,2.2,5.7,4.1,7.6
					C741.7,191.8,744.5,192.7,747.9,192.7z"/>
			</g>
		</g>
	</g>
</g>
</svg>
