<?xml version="1.0" encoding="utf-8"?>
<!-- Generator: Adobe Illustrator 24.2.0, SVG Export Plug-In . SVG Version: 6.00 Build 0)  -->
<svg version="1.1" id="Camada_1" xmlns="http://www.w3.org/2000/svg" xmlns:xlink="http://www.w3.org/1999/xlink" x="0px" y="0px"
	 viewBox="0 0 478.4 478.4" style="enable-background:new 0 0 478.4 478.4;" xml:space="preserve">
<style type="text/css">
	.st0{fill:#65140F;}
	.st1{fill:#FFFFFF;}
</style>
<g id="Camada_2_1_">
	<g id="Camada_1-2">
		<circle class="st0" cx="239.2" cy="239.2" r="239.2"/>
		<path class="st1" d="M80.4,223.4H98v1.9H82.3v11.3h14v1.9h-14V250h16.2v1.9H80.4V223.4z"/>
		<path class="st1" d="M106.7,236.2l0.2,4.9l-0.2-1c0.4-1.4,1.4-2.5,2.6-3.2c1.3-0.8,2.7-1.2,4.2-1.2c1.3-0.1,2.6,0.4,3.6,1.3
			c0.9,0.9,1.4,2.1,1.4,3.4v11.4h-1.9V241c0-0.9-0.4-1.8-1-2.5c-0.7-0.7-1.7-1.1-2.7-1c-2.1,0-4,1.1-5.1,2.9c-0.6,1-0.8,2.1-0.8,3.2
			v8.4H105v-15.7L106.7,236.2z"/>
		<path class="st1" d="M127.2,229.3h1.9v7.1h4.9v1.5h-4.9v14h-1.9v-14h-3.3v-1.5h3.3L127.2,229.3z"/>
		<path class="st1" d="M145.5,252.2c-1.5,0-3-0.3-4.3-1.1c-1.2-0.7-2.3-1.7-2.9-3c-0.7-1.3-1.1-2.7-1.1-4.2c0-1.5,0.4-2.9,1.1-4.2
			c0.7-1.2,1.8-2.3,3-3c1.3-0.8,2.8-1.1,4.2-1.1c1.7-0.1,3.4,0.5,4.7,1.6c1.3,1.1,2.3,2.7,2.8,4.3l-13.7,5.3l-0.6-1.4l12.6-4.9
			l-0.4,0.6c-0.5-1.1-1.2-2-2.1-2.8c-1-0.8-2.2-1.2-3.4-1.2c-1.1,0-2.3,0.3-3.3,0.9c-2,1.2-3.2,3.4-3.2,5.7c0,1.1,0.3,2.3,0.8,3.3
			c0.5,1,1.3,1.9,2.3,2.4c1,0.6,2.2,0.9,3.4,0.9c0.8,0,1.7-0.2,2.5-0.5c0.8-0.3,1.5-0.7,2.1-1.2l1,1.4c-0.8,0.6-1.7,1.1-2.6,1.4
			C147.5,252,146.5,252.2,145.5,252.2z"/>
		<path class="st1" d="M159.9,236.2l0.2,4.9l-0.2-1c0.4-1.4,1.4-2.5,2.6-3.2c1.3-0.8,2.7-1.2,4.2-1.2c1.3-0.1,2.6,0.4,3.6,1.3
			c0.9,0.9,1.4,2.1,1.4,3.4v11.4h-1.9V241c0-0.9-0.4-1.8-1-2.5c-0.7-0.7-1.7-1.1-2.7-1c-2.1,0-4,1.1-5.1,2.9c-0.6,1-0.8,2.1-0.8,3.2
			v8.4h-1.9v-15.7L159.9,236.2z"/>
		<path class="st1" d="M185.2,252.2c-2.9,0-5.5-1.5-6.9-4c-1.4-2.7-1.4-5.9,0-8.6c0.7-1.2,1.7-2.2,2.9-2.9c2.6-1.4,5.8-1.3,8.4,0.2
			c1.3,0.7,2.3,1.7,2.9,3l-0.3,0.9v-19.4h1.9v30.5h-1.9v-4.8l0.4,0.9c-0.7,1.3-1.7,2.3-3,3.1C188.3,251.8,186.7,252.2,185.2,252.2z
			 M185.6,250.6c1.1,0,2.2-0.2,3.3-0.8c0.9-0.5,1.7-1.2,2.3-2.1c0.6-0.9,0.9-1.9,1-3v-2c-0.2-1-0.6-1.9-1.3-2.7
			c-0.6-0.8-1.4-1.4-2.3-1.9c-0.9-0.5-2-0.7-3-0.7c-1.2,0-2.3,0.3-3.3,0.8c-1,0.6-1.8,1.4-2.4,2.3c-0.6,1-0.9,2.2-0.9,3.4
			c0,1.2,0.3,2.3,0.9,3.4c0.6,1,1.4,1.8,2.4,2.4C183.4,250.3,184.5,250.6,185.6,250.6z"/>
		<path class="st1" d="M207.8,252.2c-1.4,0-2.8-0.3-4.1-1c-1.2-0.7-2.2-1.7-2.9-2.9c-1.4-2.7-1.4-6,0.1-8.8c0.7-1.2,1.7-2.2,3-2.9
			c1.4-0.7,2.9-1,4.4-1c2.9,0.1,5.4,1.8,6.6,4.4l-0.3,0.6l0.2-4.5h1.7v15.7h-1.9V247l0.4,0.7c-0.2,0.6-0.6,1.1-1,1.6
			c-1,1.1-2.4,2-3.8,2.5C209.4,252.1,208.6,252.2,207.8,252.2z M208.2,250.6c1.1,0,2.2-0.2,3.2-0.7c0.9-0.5,1.7-1.2,2.3-2.1
			c0.6-0.9,0.9-2,1-3.1v-2.2c-0.2-1-0.6-1.9-1.3-2.6c-0.6-0.8-1.4-1.4-2.3-1.9c-2-1-4.3-0.9-6.2,0.1c-1,0.5-1.8,1.3-2.4,2.3
			c-0.6,1.1-0.9,2.3-0.9,3.5c0,1.2,0.3,2.3,0.9,3.4c0.6,1,1.4,1.8,2.4,2.4C205.9,250.3,207.1,250.6,208.2,250.6L208.2,250.6z"/>
		<path class="st1" d="M234.5,243.9c0-1.5,0.4-2.9,1.1-4.2c0.7-1.2,1.8-2.3,3-3c2.7-1.5,5.9-1.5,8.6,0c1.3,0.7,2.3,1.7,3,3
			c1.4,2.6,1.4,5.7,0,8.3c-0.7,1.3-1.7,2.3-3,3c-1.3,0.7-2.8,1.1-4.3,1.1c-1.5,0-3-0.3-4.3-1.1c-1.2-0.7-2.3-1.7-3-2.9
			C234.9,246.9,234.5,245.4,234.5,243.9z M236.4,243.9c0,1.2,0.3,2.3,0.9,3.4c0.6,1,1.4,1.8,2.3,2.4c2,1.2,4.5,1.2,6.6,0
			c1-0.6,1.8-1.4,2.3-2.4c1.2-2.1,1.2-4.6,0-6.7c-0.6-1-1.4-1.8-2.3-2.4c-1-0.6-2.1-0.9-3.3-0.9c-1.2,0-2.3,0.3-3.3,0.9
			c-1,0.6-1.8,1.5-2.3,2.5C236.7,241.7,236.4,242.8,236.4,243.9L236.4,243.9z"/>
		<path class="st1" d="M268.8,230.4c0-0.4,0.2-0.7,0.4-0.9c0.3-0.2,0.6-0.4,1-0.4c0.4,0,0.7,0.1,1,0.4c0.3,0.2,0.4,0.6,0.4,0.9
			c0,0.4-0.1,0.7-0.4,1c-0.3,0.3-0.6,0.4-1,0.4c-0.4,0-0.7-0.1-1-0.4C269,231.1,268.8,230.8,268.8,230.4z M269.2,236.2h1.9v15.7
			h-1.9V236.2z"/>
		<path class="st1" d="M279.9,236.2l0.2,4.4l-0.3-0.4c0.5-1.3,1.4-2.5,2.7-3.2c1.2-0.8,2.6-1.2,4.1-1.2c0.8,0,1.6,0.2,2.4,0.5
			c0.7,0.3,1.3,0.8,1.7,1.4c0.4,0.6,0.7,1.3,0.8,2l-0.2,0.2c0.5-1.3,1.4-2.4,2.6-3.1c1.2-0.7,2.5-1,3.9-1c1.3-0.1,2.6,0.4,3.6,1.3
			c0.9,0.9,1.4,2.1,1.4,3.4v11.4h-1.9v-11c0-0.9-0.3-1.7-0.9-2.4c-0.7-0.7-1.6-1.1-2.6-1.1c-1,0-2,0.3-2.9,0.8
			c-0.9,0.5-1.6,1.3-2.1,2.1c-0.6,0.9-0.9,1.9-0.9,3v8.6h-1.9v-11c0-0.9-0.3-1.7-0.9-2.4c-0.7-0.7-1.6-1.1-2.6-1.1
			c-1,0-2.1,0.3-3,0.8c-1.8,1.1-3,3.1-3,5.3v8.4h-1.9v-15.7L279.9,236.2z"/>
		<path class="st1" d="M318.5,252.2c-1.5,0-2.9-0.4-4.2-1.2c-1.2-0.7-2.3-1.8-2.9-3.1l0.3-0.7v12.2h-1.9v-23.4h1.7l0.2,5.1l-0.4-1.2
			c0.7-1.3,1.8-2.4,3-3.1c1.3-0.8,2.8-1.2,4.4-1.2c1.4,0,2.8,0.4,4,1.1c1.2,0.7,2.2,1.8,2.9,3c0.7,1.3,1.1,2.8,1.1,4.3
			c0,1.5-0.4,3-1.1,4.2c-0.7,1.2-1.8,2.2-3,2.9C321.4,251.9,319.9,252.2,318.5,252.2z M318.2,250.6c1.2,0,2.3-0.3,3.4-0.9
			c1-0.6,1.8-1.4,2.4-2.4c0.6-1,0.9-2.2,0.9-3.4c0-1.2-0.3-2.4-0.9-3.4c-0.6-1-1.4-1.8-2.4-2.4c-1-0.6-2.1-0.9-3.3-0.9
			c-2.2,0-4.3,1.1-5.5,3c-0.6,0.9-0.9,2-1,3.1v1.3c0.1,1.1,0.4,2.1,1,3c0.6,0.9,1.4,1.6,2.3,2.1C316,250.4,317.1,250.6,318.2,250.6
			L318.2,250.6z"/>
		<path class="st1" d="M338.9,252.2c-1.4,0-2.8-0.3-4.1-1c-1.2-0.7-2.2-1.7-2.9-2.9c-1.4-2.7-1.4-6,0.1-8.8c0.7-1.2,1.7-2.2,3-2.9
			c1.4-0.7,2.9-1,4.4-1c2.9,0.1,5.4,1.8,6.6,4.4l-0.3,0.6l0.2-4.5h1.7v15.7h-1.9V247l0.4,0.7c-0.2,0.6-0.6,1.1-1,1.6
			c-1,1.1-2.4,2-3.8,2.5C340.5,252.1,339.7,252.2,338.9,252.2z M339.3,250.6c1.1,0,2.2-0.2,3.2-0.7c0.9-0.5,1.7-1.2,2.3-2.1
			c0.6-0.9,0.9-2,1-3.1v-2.2c-0.2-1-0.6-1.9-1.3-2.6c-0.6-0.8-1.4-1.4-2.3-1.9c-2-1-4.3-0.9-6.2,0.1c-1,0.5-1.8,1.3-2.4,2.3
			c-0.6,1.1-0.9,2.3-0.9,3.5c0,1.2,0.3,2.3,0.9,3.4c0.6,1,1.4,1.8,2.4,2.4C337,250.3,338.1,250.6,339.3,250.6z"/>
		<path class="st1" d="M366.9,250.4c-0.7,0.6-1.6,1.1-2.5,1.4c-2.4,0.8-4.9,0.6-7.1-0.6c-1.2-0.7-2.3-1.7-3-2.9
			c-0.7-1.3-1.1-2.7-1-4.2c0-1.5,0.4-2.9,1.1-4.2c0.7-1.2,1.8-2.2,3-2.9c1.2-0.7,2.6-1.1,4.1-1.1c1,0,2,0.2,3,0.5
			c0.9,0.3,1.7,0.8,2.5,1.4L366,239c-0.6-0.5-1.3-0.9-2-1.1c-0.8-0.3-1.6-0.4-2.4-0.4c-1.1,0-2.3,0.3-3.2,0.9
			c-2,1.2-3.2,3.4-3.2,5.7c0,1.2,0.3,2.3,0.9,3.3c1.2,2,3.4,3.3,5.7,3.3c0.8,0,1.5-0.1,2.3-0.4c0.7-0.2,1.3-0.6,1.9-1L366.9,250.4z"
			/>
		<path class="st1" d="M373.8,229.3h1.9v7.1h4.9v1.5h-4.9v14h-1.9v-14h-3.3v-1.5h3.3V229.3z"/>
		<path class="st1" d="M383.7,243.9c0-3,1.5-5.7,4.1-7.2c2.7-1.5,5.9-1.5,8.6,0c1.3,0.7,2.3,1.7,3,3c1.5,2.6,1.5,5.8,0,8.3
			c-0.7,1.3-1.7,2.3-3,3c-1.3,0.7-2.8,1.1-4.3,1.1c-1.5,0-3-0.3-4.3-1.1c-1.2-0.7-2.3-1.7-3-2.9
			C384.1,246.9,383.7,245.4,383.7,243.9z M385.6,243.9c0,1.2,0.3,2.3,0.9,3.4c0.6,1,1.4,1.8,2.3,2.4c2,1.2,4.5,1.2,6.5,0
			c3.1-1.9,4.1-5.9,2.3-9.1c-0.6-1-1.4-1.8-2.3-2.4c-1-0.6-2.1-0.9-3.3-0.9c-1.2,0-2.3,0.3-3.3,0.9c-1,0.6-1.8,1.5-2.3,2.5
			C385.9,241.7,385.6,242.8,385.6,243.9L385.6,243.9z"/>
		<path class="st1" d="M55.5,292.3c-1.5,0-2.9-0.4-4.2-1.2c-1.2-0.7-2.2-1.8-2.9-3.1l0.3-0.7v12.2h-1.9v-23.4h1.7l0.2,5.1l-0.4-1.2
			c0.7-1.3,1.8-2.4,3-3.1c1.3-0.8,2.8-1.2,4.4-1.2c1.4,0,2.8,0.4,4,1.1c1.2,0.7,2.2,1.7,2.9,3c0.7,1.3,1.1,2.8,1.1,4.3
			c0,1.5-0.4,2.9-1.1,4.2c-0.7,1.2-1.8,2.2-3,2.9C58.4,292,57,292.4,55.5,292.3z M55.2,290.8c1.2,0,2.3-0.3,3.3-0.9
			c1-0.6,1.9-1.4,2.5-2.4c0.6-1,0.9-2.2,0.9-3.4c0-2.4-1.2-4.6-3.2-5.8c-1-0.6-2.1-0.9-3.3-0.9c-1.1,0-2.2,0.3-3.2,0.8
			c-0.9,0.5-1.7,1.3-2.3,2.2c-0.6,0.9-1,2-1,3.1v1.3c0.1,1.1,0.4,2.1,1,3c0.6,0.9,1.4,1.6,2.3,2.2C53,290.5,54.1,290.8,55.2,290.8z"
			/>
		<path class="st1" d="M67.9,284.1c0-1.5,0.4-2.9,1.1-4.2c0.7-1.2,1.8-2.3,3-3c2.7-1.5,5.9-1.5,8.6,0c1.3,0.7,2.3,1.7,3,3
			c1.4,2.6,1.4,5.8,0,8.4c-0.7,1.3-1.7,2.3-3,3c-1.3,0.7-2.8,1.1-4.3,1.1c-1.5,0-3-0.3-4.3-1.1c-1.2-0.7-2.3-1.7-3-2.9
			C68.2,287,67.9,285.6,67.9,284.1z M69.8,284.1c0,1.2,0.3,2.3,0.9,3.4c0.6,1,1.4,1.8,2.4,2.4c2,1.2,4.5,1.2,6.6,0
			c1-0.6,1.8-1.4,2.3-2.4c1.2-2.1,1.2-4.6,0-6.7c-0.6-1-1.4-1.8-2.3-2.4c-1-0.6-2.1-0.9-3.3-0.9c-1.2,0-2.3,0.3-3.3,1
			c-1,0.6-1.8,1.5-2.3,2.5C70.1,281.8,69.8,283,69.8,284.1z"/>
		<path class="st1" d="M93.9,292.3c-1,0-1.9-0.2-2.8-0.5c-0.9-0.3-1.8-0.9-2.4-1.6l0.9-1.3c0.5,0.6,1.2,1,1.9,1.4
			c0.7,0.3,1.5,0.5,2.3,0.5c0.6,0,1.2-0.1,1.8-0.3c0.5-0.2,1-0.5,1.3-0.9c0.4-0.5,0.6-1.1,0.5-1.7c0-0.6-0.2-1.3-0.6-1.7
			c-0.4-0.4-1-0.8-1.6-1c-0.6-0.3-1.3-0.5-2-0.7c-1-0.3-2-0.8-2.8-1.5c-0.8-0.7-1.2-1.7-1.1-2.7c0-0.8,0.2-1.6,0.6-2.2
			c0.4-0.7,1-1.2,1.7-1.5c0.8-0.4,1.6-0.6,2.4-0.5c0.8,0,1.7,0.1,2.5,0.4c0.8,0.3,1.6,0.7,2.2,1.4l-0.8,1.3c-0.4-0.6-1-1-1.7-1.2
			c-0.6-0.2-1.2-0.3-1.9-0.4c-0.5,0-1,0.1-1.4,0.3c-0.5,0.2-0.9,0.5-1.2,0.8c-0.3,0.4-0.5,0.9-0.5,1.4c0,0.6,0.2,1.1,0.5,1.5
			c0.4,0.4,0.8,0.7,1.3,0.9c0.6,0.2,1.1,0.5,1.7,0.7c0.8,0.2,1.5,0.5,2.2,0.8c0.7,0.3,1.2,0.8,1.7,1.3c0.5,0.6,0.7,1.4,0.7,2.2
			c0,0.9-0.2,1.7-0.6,2.5c-0.4,0.7-1,1.3-1.8,1.7C96,292.2,95,292.4,93.9,292.3z"/>
		<path class="st1" d="M104.6,270.5c0-0.4,0.2-0.7,0.4-0.9c0.3-0.3,0.6-0.4,1-0.4c0.4,0,0.7,0.1,1,0.4c0.3,0.2,0.4,0.6,0.4,0.9
			c0,0.4-0.1,0.7-0.4,1c-0.3,0.3-0.6,0.4-1,0.4c-0.4,0-0.7-0.1-1-0.4C104.8,271.3,104.6,270.9,104.6,270.5z M105,276.3h1.9V292H105
			V276.3z"/>
		<path class="st1" d="M115.6,269.4h1.9v7.1h4.9v1.5h-4.9v14h-1.9v-14h-3.3v-1.5h3.3V269.4z"/>
		<path class="st1" d="M126.7,270.5c0-0.4,0.2-0.7,0.4-0.9c0.3-0.3,0.6-0.4,1-0.4c0.4,0,0.7,0.1,1,0.4c0.3,0.2,0.4,0.6,0.4,0.9
			c0,0.4-0.1,0.7-0.4,1c-0.3,0.3-0.6,0.4-1,0.4c-0.4,0-0.7-0.1-1-0.4C126.8,271.3,126.7,270.9,126.7,270.5z M127.1,276.3h1.9V292
			h-1.9L127.1,276.3z"/>
		<path class="st1" d="M141.6,292.6l-7.9-16.3h2.2l6.6,14.3h-1.2l6.3-14.2h2.1l-7.8,16.3L141.6,292.6z"/>
		<path class="st1" d="M152.6,284.1c0-3,1.6-5.7,4.1-7.2c2.7-1.5,5.9-1.5,8.6,0c1.3,0.7,2.3,1.7,3,3c1.5,2.6,1.5,5.8,0,8.4
			c-0.7,1.3-1.7,2.3-3,3c-1.3,0.7-2.8,1.1-4.3,1.1c-1.5,0-3-0.3-4.3-1.1c-1.2-0.7-2.3-1.7-3-2.9C153,287.1,152.6,285.6,152.6,284.1z
			 M154.5,284.1c0,1.2,0.3,2.3,0.9,3.4c0.6,1,1.4,1.8,2.3,2.4c2,1.2,4.5,1.2,6.5,0c1-0.6,1.8-1.4,2.3-2.4c1.8-3.2,0.8-7.2-2.3-9.1
			c-1-0.6-2.1-0.9-3.3-0.9c-1.2,0-2.3,0.3-3.3,1C155.7,279.6,154.5,281.8,154.5,284.1L154.5,284.1z"/>
		<path class="st1" d="M193.8,292.3c-1.4,0-2.8-0.3-4.1-1c-1.2-0.7-2.2-1.7-2.9-2.9c-0.7-1.3-1.1-2.8-1.1-4.3c0-1.6,0.3-3.1,1.1-4.5
			c0.7-1.2,1.8-2.2,3.1-2.9c1.4-0.7,2.9-1,4.4-1c2.9,0.1,5.4,1.8,6.6,4.4l-0.3,0.6l0.2-4.5h1.7V292h-1.9v-4.9l0.4,0.7
			c-0.2,0.6-0.6,1.1-1,1.6c-0.5,0.6-1,1-1.7,1.5c-0.7,0.4-1.4,0.8-2.2,1C195.5,292.2,194.6,292.3,193.8,292.3z M194.2,290.7
			c1.1,0,2.2-0.2,3.2-0.7c0.9-0.5,1.7-1.2,2.3-2.1c0.6-0.9,0.9-2,1-3v-2.3c-0.2-1-0.6-1.9-1.3-2.6c-0.6-0.8-1.4-1.4-2.3-1.8
			c-0.9-0.5-2-0.7-3-0.7c-1.1,0-2.3,0.3-3.3,0.8c-1,0.5-1.8,1.3-2.4,2.3c-0.6,1.1-0.9,2.3-0.9,3.5c0,1.2,0.3,2.3,0.9,3.4
			c0.6,1,1.4,1.8,2.4,2.4C191.9,290.4,193,290.7,194.2,290.7L194.2,290.7z"/>
		<path class="st1" d="M208.2,284.1c0-3,1.5-5.7,4.1-7.2c2.7-1.5,5.9-1.5,8.6,0c1.3,0.7,2.3,1.7,3,3c1.4,2.6,1.4,5.8,0,8.4
			c-0.7,1.3-1.7,2.3-3,3c-1.3,0.7-2.8,1.1-4.3,1.1c-1.5,0-3-0.3-4.3-1.1c-1.2-0.7-2.3-1.7-3-2.9
			C208.5,287.1,208.2,285.6,208.2,284.1z M210.1,284.1c0,1.2,0.3,2.3,0.9,3.4c0.6,1,1.4,1.8,2.3,2.4c2,1.2,4.5,1.2,6.5,0
			c1-0.6,1.8-1.4,2.3-2.4c1.1-2.1,1.1-4.6,0-6.7c-0.6-1-1.4-1.8-2.3-2.4c-1-0.6-2.1-0.9-3.3-0.9c-1.2,0-2.3,0.3-3.3,1
			C211.3,279.6,210.1,281.8,210.1,284.1L210.1,284.1z"/>
		<path class="st1" d="M249.3,292.3c-2.9,0-5.5-1.5-6.9-4c-1.4-2.7-1.4-5.9,0-8.6c0.7-1.2,1.8-2.2,3-2.9c2.6-1.4,5.8-1.3,8.4,0.2
			c1.3,0.7,2.3,1.8,2.9,3l-0.3,0.9v-19.4h1.9V292h-1.9v-4.8l0.4,0.9c-0.7,1.3-1.7,2.3-3,3.1C252.4,291.9,250.9,292.4,249.3,292.3z
			 M249.8,290.7c1.1,0,2.3-0.3,3.3-0.8c0.9-0.5,1.7-1.2,2.3-2.1c0.6-0.9,0.9-1.9,1-3v-2c-0.2-1-0.6-1.9-1.2-2.7
			c-0.6-0.8-1.4-1.4-2.3-1.9c-0.9-0.5-2-0.7-3-0.7c-1.2,0-2.3,0.3-3.3,0.9c-1,0.6-1.8,1.4-2.4,2.3c-0.6,1-0.9,2.2-0.9,3.5
			c0,1.2,0.3,2.3,0.9,3.4c0.6,1,1.4,1.8,2.4,2.4C247.5,290.4,248.6,290.7,249.8,290.7L249.8,290.7z"/>
		<path class="st1" d="M272.2,292.3c-1.5,0-3-0.3-4.3-1.1c-1.3-0.7-2.3-1.7-3-3c-0.7-1.3-1.1-2.7-1.1-4.2c0-1.5,0.4-2.9,1.1-4.2
			c0.7-1.2,1.8-2.3,3-3c1.3-0.8,2.7-1.1,4.2-1.1c1.7-0.1,3.4,0.5,4.7,1.6c1.3,1.1,2.3,2.6,2.8,4.3L266,287l-0.6-1.4l12.6-4.9
			l-0.4,0.6c-0.5-1.1-1.2-2-2.1-2.8c-0.9-0.8-2.2-1.2-3.4-1.2c-1.1,0-2.3,0.3-3.3,0.9c-2,1.2-3.2,3.4-3.2,5.7c0,1.2,0.3,2.3,0.8,3.3
			c0.5,1,1.3,1.8,2.3,2.4c1,0.6,2.2,1,3.4,0.9c0.8,0,1.7-0.2,2.5-0.5c0.8-0.3,1.5-0.7,2.1-1.3l1,1.4c-0.8,0.6-1.7,1.1-2.6,1.4
			C274.3,292.1,273.3,292.3,272.2,292.3z"/>
		<path class="st1" d="M288.7,292.3c-1,0-1.9-0.2-2.9-0.5c-0.9-0.3-1.8-0.9-2.4-1.6l0.9-1.3c0.5,0.6,1.2,1,1.9,1.4
			c0.7,0.3,1.5,0.5,2.4,0.5c0.6,0,1.2-0.1,1.7-0.3c0.5-0.2,1-0.5,1.4-0.9c0.4-0.5,0.6-1.1,0.5-1.7c0-0.6-0.2-1.3-0.6-1.7
			c-0.5-0.4-1-0.8-1.6-1c-0.6-0.3-1.3-0.5-2-0.7c-1-0.3-2-0.8-2.8-1.5c-0.8-0.7-1.2-1.7-1.1-2.7c0-0.8,0.2-1.6,0.6-2.2
			c0.4-0.7,1-1.2,1.7-1.5c0.8-0.4,1.6-0.6,2.5-0.5c0.8,0,1.7,0.1,2.5,0.4c0.8,0.3,1.6,0.7,2.2,1.4l-0.9,1.3c-0.4-0.6-1-1-1.7-1.2
			c-0.6-0.2-1.2-0.3-1.9-0.4c-0.5,0-1,0.1-1.4,0.3c-0.5,0.2-0.9,0.5-1.3,0.8c-0.3,0.4-0.5,0.9-0.5,1.4c0,0.6,0.2,1.1,0.5,1.5
			c0.4,0.4,0.8,0.7,1.4,0.9c0.5,0.2,1.1,0.5,1.7,0.7c0.8,0.2,1.5,0.5,2.2,0.9c0.7,0.3,1.2,0.8,1.7,1.3c0.5,0.6,0.7,1.4,0.7,2.2
			c0,0.9-0.2,1.7-0.6,2.5c-0.4,0.7-1,1.3-1.8,1.7C290.7,292.1,289.7,292.4,288.7,292.3z"/>
		<path class="st1" d="M306.6,292.3c-1.5,0-3-0.3-4.3-1.1c-1.2-0.7-2.3-1.7-3-3c-0.7-1.3-1.1-2.7-1.1-4.2c0-1.5,0.4-2.9,1.1-4.2
			c0.7-1.2,1.8-2.3,3-3c1.3-0.8,2.7-1.1,4.2-1.1c1.7-0.1,3.4,0.5,4.7,1.6c1.3,1.1,2.2,2.6,2.7,4.3l-13.6,5.3l-0.6-1.4l12.6-4.9
			l-0.4,0.6c-0.5-1.1-1.2-2-2.1-2.8c-0.9-0.8-2.2-1.2-3.4-1.2c-1.1,0-2.3,0.3-3.3,0.9c-2,1.2-3.2,3.4-3.2,5.7c0,1.2,0.3,2.3,0.8,3.3
			c0.5,1,1.3,1.8,2.3,2.4c1,0.6,2.2,1,3.4,0.9c0.8,0,1.7-0.2,2.5-0.5c0.8-0.3,1.5-0.7,2.1-1.3l1,1.4c-0.8,0.6-1.7,1.1-2.6,1.4
			C308.6,292.1,307.6,292.3,306.6,292.3z"/>
		<path class="st1" d="M320.9,276.3l0.2,4.9l-0.2-1c0.4-1.4,1.4-2.5,2.6-3.2c1.3-0.8,2.7-1.2,4.2-1.2c1.3-0.1,2.6,0.4,3.6,1.3
			c0.9,0.9,1.4,2.1,1.4,3.4V292h-1.9v-10.9c0-0.9-0.4-1.8-1-2.5c-0.7-0.7-1.7-1.1-2.7-1c-1,0-2,0.3-2.9,0.8
			c-0.9,0.5-1.7,1.2-2.2,2.1c-0.6,1-0.8,2.1-0.8,3.2v8.4h-1.9v-15.7H320.9z"/>
		<path class="st1" d="M345,292.6l-8-16.3h2.2l6.5,14.3h-1.2l6.3-14.2h2.1l-7.8,16.3L345,292.6z"/>
		<path class="st1" d="M356,284.1c0-1.5,0.4-2.9,1.1-4.2c0.7-1.2,1.8-2.3,3-3c2.7-1.5,5.9-1.5,8.6,0c1.3,0.7,2.3,1.7,3,3
			c1.4,2.6,1.4,5.8,0,8.4c-0.7,1.3-1.7,2.3-3,3c-1.3,0.7-2.8,1.1-4.3,1.1c-1.5,0-3-0.3-4.3-1.1c-1.2-0.7-2.3-1.7-3-2.9
			C356.3,287,356,285.6,356,284.1z M357.9,284.1c0,1.2,0.3,2.3,0.9,3.4c0.6,1,1.4,1.8,2.3,2.4c2,1.2,4.5,1.2,6.5,0
			c1-0.6,1.8-1.4,2.3-2.4c1.2-2.1,1.2-4.6,0-6.7c-0.6-1-1.4-1.8-2.3-2.4c-1-0.6-2.1-0.9-3.3-0.9c-1.2,0-2.3,0.3-3.3,1
			c-1,0.6-1.8,1.5-2.3,2.5C358.2,281.8,357.9,283,357.9,284.1L357.9,284.1z"/>
		<path class="st1" d="M378.3,261.5h1.9V292h-1.9V261.5z"/>
		<path class="st1" d="M392.9,292.6l-8-16.3h2.2l6.5,14.3h-1.2l6.3-14.2h2.1l-7.8,16.3L392.9,292.6z"/>
		<path class="st1" d="M412.2,292.3c-1.5,0-3-0.3-4.3-1.1c-1.2-0.7-2.3-1.7-3-3c-0.7-1.3-1.1-2.7-1.1-4.2c0-1.5,0.4-2.9,1.1-4.2
			c0.7-1.2,1.8-2.3,3-3c1.3-0.8,2.8-1.1,4.2-1.1c1.7-0.1,3.4,0.5,4.7,1.6c1.3,1.1,2.3,2.6,2.8,4.3L406,287l-0.6-1.4l12.6-4.9
			l-0.4,0.6c-0.5-1.1-1.2-2-2.1-2.8c-1-0.8-2.2-1.2-3.4-1.2c-1.1,0-2.3,0.3-3.3,0.9c-2,1.2-3.2,3.4-3.2,5.7c0,1.2,0.3,2.3,0.8,3.3
			c1.1,2.1,3.3,3.4,5.7,3.4c0.8,0,1.7-0.2,2.5-0.5c0.8-0.3,1.5-0.7,2.1-1.3l1,1.4c-0.8,0.6-1.7,1.1-2.6,1.4
			C414.3,292.1,413.2,292.3,412.2,292.3z"/>
		<path class="st1" d="M426.6,276.3l0.2,4.8l-0.2-0.6c0.3-0.9,0.9-1.8,1.6-2.5c0.7-0.7,1.6-1.2,2.5-1.6c0.8-0.4,1.8-0.6,2.7-0.6
			l-0.1,1.8c-1.1,0-2.3,0.3-3.3,0.8c-0.9,0.5-1.7,1.2-2.3,2.1c-0.6,0.9-0.9,1.9-0.9,3v8.3h-1.9v-15.7H426.6z"/>
		<path class="st1" d="M41.1,332.6c-1.3,0.1-2.6-0.4-3.5-1.3c-0.9-0.9-1.4-2.1-1.4-3.4v-11.4h1.9v10.9c0,0.9,0.4,1.8,1,2.5
			c0.7,0.7,1.7,1.1,2.7,1.1c1,0,2-0.3,2.8-0.8c0.9-0.5,1.6-1.3,2.1-2.1c0.6-1,0.8-2,0.8-3.1v-8.4h1.9v15.7h-1.7l-0.2-4.9l0.3,1.1
			c-0.3,0.8-0.8,1.6-1.4,2.2c-0.7,0.6-1.5,1.1-2.5,1.5C43.1,332.4,42.1,332.6,41.1,332.6z"/>
		<path class="st1" d="M58.3,316.5l0.2,4.4l-0.3-0.4c0.5-1.3,1.4-2.5,2.7-3.2c1.2-0.8,2.6-1.2,4.1-1.2c0.8,0,1.6,0.2,2.4,0.5
			c0.7,0.3,1.2,0.8,1.7,1.4c0.4,0.6,0.7,1.3,0.8,2l-0.2,0.2c0.5-1.3,1.5-2.4,2.7-3c1.2-0.7,2.5-1.1,3.9-1c1.3-0.1,2.6,0.4,3.6,1.3
			c0.9,0.9,1.4,2.1,1.4,3.4v11.4h-1.8v-11c0-0.9-0.3-1.7-0.9-2.4c-0.7-0.7-1.6-1.1-2.6-1.1c-1,0-2,0.3-2.9,0.8
			c-0.9,0.5-1.6,1.3-2.1,2.1c-0.6,0.9-0.9,1.9-0.9,3v8.6h-1.9v-11c0-0.9-0.3-1.7-0.9-2.4c-0.7-0.7-1.6-1.1-2.6-1.1
			c-1,0-2.1,0.3-3,0.8c-1.9,1.1-3,3.1-3,5.3v8.4h-1.8v-15.7L58.3,316.5z"/>
		<path class="st1" d="M94.7,332.5c-1.4,0-2.8-0.3-4.1-1c-1.2-0.7-2.2-1.7-2.9-2.9c-0.7-1.3-1.1-2.8-1.1-4.3c0-1.6,0.3-3.1,1.1-4.5
			c0.7-1.2,1.7-2.2,3-2.9c1.4-0.7,2.9-1,4.4-1c2.9,0.1,5.4,1.8,6.6,4.4l-0.3,0.6l0.2-4.5h1.7v15.7h-1.9v-4.9l0.4,0.7
			c-0.2,0.6-0.6,1.1-1,1.6c-1,1.1-2.4,2-3.8,2.5C96.3,332.3,95.5,332.5,94.7,332.5z M95.1,330.9c1.1,0,2.2-0.2,3.2-0.7
			c0.9-0.5,1.7-1.2,2.3-2.1c0.6-0.9,0.9-2,1-3v-2.2c-0.2-1-0.6-1.9-1.3-2.6c-0.6-0.8-1.4-1.4-2.3-1.9c-2-1-4.3-0.9-6.2,0.1
			c-1,0.5-1.8,1.3-2.4,2.3c-0.6,1.1-0.9,2.3-0.9,3.5c0,1.2,0.3,2.3,0.9,3.4c0.6,1,1.4,1.9,2.4,2.4C92.8,330.6,94,330.9,95.1,330.9
			L95.1,330.9z"/>
		<path class="st1" d="M135.1,330.6c-0.7,0.6-1.6,1.1-2.4,1.4c-0.9,0.3-1.9,0.5-2.9,0.5c-1.5,0-3-0.3-4.3-1.1
			c-1.2-0.7-2.3-1.7-3-2.9c-0.7-1.3-1.1-2.7-1.1-4.2c0-1.5,0.4-2.9,1.1-4.2c0.7-1.2,1.8-2.2,3-2.9c1.2-0.7,2.6-1.1,4.1-1.1
			c1,0,2.1,0.2,3.1,0.5c0.9,0.3,1.7,0.8,2.4,1.4l-1,1.3c-0.6-0.5-1.3-0.9-2-1.1c-0.8-0.3-1.6-0.4-2.4-0.4c-1.1,0-2.3,0.3-3.2,0.9
			c-2,1.2-3.2,3.4-3.2,5.7c0,1.2,0.3,2.3,0.9,3.3c0.6,1,1.4,1.8,2.4,2.4c1,0.6,2.2,0.9,3.4,0.9c0.8,0,1.5-0.1,2.2-0.4
			c0.7-0.2,1.3-0.6,1.9-1L135.1,330.6z"/>
		<path class="st1" d="M145.3,332.6c-1.3,0.1-2.6-0.4-3.5-1.3c-0.9-0.9-1.4-2.1-1.4-3.4v-11.4h1.9v10.9c0,0.9,0.4,1.8,1,2.5
			c0.7,0.7,1.7,1.1,2.7,1.1c1,0,2-0.3,2.9-0.8c0.9-0.5,1.6-1.3,2.1-2.2c0.6-1,0.8-2,0.8-3.1v-8.4h1.9v15.7H152l-0.2-4.9l0.3,1.1
			c-0.3,0.8-0.8,1.6-1.4,2.2c-0.7,0.7-1.5,1.2-2.4,1.5C147.3,332.4,146.3,332.6,145.3,332.6z"/>
		<path class="st1" d="M160.8,301.6h1.9v30.5h-1.9V301.6z"/>
		<path class="st1" d="M171.4,309.5h1.9v7.1h4.9v1.5h-4.9v14h-1.9v-14H168v-1.5h3.3L171.4,309.5z"/>
		<path class="st1" d="M187.8,332.6c-2.6,0.2-4.8-1.8-4.9-4.4c0-0.1,0-0.2,0-0.3v-11.4h1.9v10.9c0,0.9,0.4,1.8,1,2.5
			c0.7,0.7,1.7,1.1,2.7,1.1c1,0,2-0.3,2.9-0.8c0.9-0.5,1.6-1.3,2.1-2.2c0.6-1,0.8-2,0.8-3.1v-8.4h1.9v15.7h-1.7l-0.2-4.9l0.3,1.1
			c-0.3,0.8-0.8,1.6-1.4,2.2c-0.7,0.7-1.5,1.2-2.4,1.5C189.8,332.4,188.8,332.6,187.8,332.6z"/>
		<path class="st1" d="M204.9,316.5l0.2,4.8l-0.2-0.6c0.3-0.9,0.9-1.8,1.6-2.5c0.7-0.7,1.6-1.2,2.5-1.6c0.8-0.4,1.8-0.6,2.7-0.6
			l-0.1,1.9c-1.1,0-2.3,0.3-3.3,0.8c-0.9,0.5-1.7,1.2-2.3,2.1c-0.6,0.9-0.9,1.9-0.9,3v8.3h-1.9v-15.7L204.9,316.5z"/>
		<path class="st1" d="M223.3,332.5c-1.4,0-2.8-0.3-4.1-1c-1.2-0.7-2.2-1.7-2.9-2.9c-1.4-2.7-1.4-6,0.1-8.8c0.7-1.2,1.7-2.2,3-2.9
			c1.4-0.7,2.9-1,4.4-1c2.9,0.1,5.4,1.8,6.6,4.4l-0.3,0.6l0.2-4.5h1.7v15.7h-1.9v-4.9l0.4,0.7c-0.2,0.6-0.6,1.1-1,1.6
			c-0.5,0.5-1,1-1.6,1.4c-0.7,0.4-1.4,0.8-2.2,1C225,332.3,224.2,332.4,223.3,332.5z M223.7,330.9c1.1,0,2.2-0.2,3.2-0.7
			c0.9-0.5,1.7-1.2,2.3-2.1c0.6-0.9,0.9-2,1-3v-2.2c-0.2-1-0.6-1.9-1.3-2.6c-0.6-0.8-1.4-1.4-2.3-1.9c-2-1-4.3-0.9-6.2,0.1
			c-1,0.5-1.8,1.3-2.4,2.3c-0.6,1.1-0.9,2.3-0.9,3.5c0,1.2,0.3,2.3,0.9,3.4c0.6,1,1.4,1.8,2.4,2.4
			C221.4,330.6,222.5,330.9,223.7,330.9L223.7,330.9z"/>
		<path class="st1" d="M258.4,332.5c-1.5,0-3-0.3-4.3-1.1c-1.2-0.7-2.3-1.7-2.9-3c-0.7-1.3-1.1-2.7-1.1-4.2c0-1.5,0.4-2.9,1.1-4.2
			c0.7-1.2,1.8-2.3,3-3c1.3-0.8,2.7-1.1,4.2-1.1c1.7,0,3.4,0.5,4.7,1.6c1.3,1.1,2.2,2.6,2.7,4.3l-13.7,5.3l-0.6-1.4l12.6-4.9
			l-0.4,0.6c-0.5-1.1-1.2-2-2.1-2.8c-1-0.8-2.2-1.2-3.4-1.2c-1.1,0-2.3,0.3-3.3,0.9c-2,1.2-3.2,3.4-3.2,5.7c0,1.1,0.3,2.3,0.8,3.3
			c0.5,1,1.3,1.8,2.3,2.4c1,0.6,2.2,0.9,3.4,0.9c0.8,0,1.7-0.2,2.5-0.5c0.8-0.3,1.5-0.7,2.1-1.2l1,1.4c-0.8,0.6-1.7,1.1-2.6,1.5
			C260.4,332.3,259.4,332.5,258.4,332.5z"/>
		<path class="st1" d="M272.8,316.5l0.2,4.4l-0.3-0.4c0.5-1.3,1.4-2.5,2.7-3.2c1.2-0.8,2.6-1.2,4.1-1.2c0.8,0,1.6,0.2,2.4,0.5
			c0.7,0.3,1.3,0.8,1.7,1.4c0.4,0.6,0.7,1.3,0.8,2l-0.2,0.2c0.5-1.3,1.4-2.4,2.6-3c1.2-0.7,2.5-1.1,3.9-1c1.3-0.1,2.6,0.4,3.6,1.3
			c0.9,0.9,1.4,2.1,1.4,3.4v11.4h-1.9v-11c0-0.9-0.3-1.7-0.9-2.4c-0.7-0.7-1.6-1.1-2.6-1.1c-1,0-2,0.3-2.9,0.8
			c-0.9,0.5-1.6,1.3-2.1,2.1c-0.6,0.9-0.9,1.9-0.9,3v8.6h-1.9v-11c0-0.9-0.3-1.7-0.9-2.4c-0.7-0.7-1.6-1.1-2.6-1.1
			c-1,0-2.1,0.3-3,0.8c-1.8,1.1-3,3.1-3,5.3v8.4h-1.9v-15.7L272.8,316.5z"/>
		<path class="st1" d="M311.4,332.5c-1.5,0-3-0.4-4.2-1.2c-1.2-0.7-2.3-1.8-2.9-3.1l0.3-0.7v12.2h-1.9v-23.4h1.7l0.2,5.1l-0.4-1.2
			c0.7-1.3,1.8-2.4,3-3.1c1.3-0.8,2.8-1.2,4.4-1.2c1.4,0,2.8,0.4,4,1.1c1.2,0.7,2.2,1.7,2.9,3c0.7,1.3,1.1,2.8,1.1,4.3
			c0,1.5-0.4,3-1.1,4.2c-0.7,1.2-1.8,2.2-3,2.9C314.2,332.1,312.8,332.5,311.4,332.5z M311,330.9c1.2,0,2.3-0.3,3.4-0.9
			c1-0.6,1.8-1.4,2.4-2.4c0.6-1,0.9-2.2,0.9-3.4c0-1.2-0.3-2.4-0.9-3.4c-0.6-1-1.4-1.8-2.4-2.4c-1-0.6-2.1-0.9-3.3-0.9
			c-2.2,0-4.3,1.1-5.5,3c-0.6,0.9-1,2-1,3.1v1.3c0.1,1.1,0.4,2.1,1,3c0.6,0.9,1.4,1.6,2.3,2.1C308.8,330.7,309.9,330.9,311,330.9z"
			/>
		<path class="st1" d="M326.9,316.5l0.2,4.8l-0.2-0.6c0.3-0.9,0.9-1.8,1.6-2.5c0.7-0.7,1.6-1.2,2.5-1.6c0.8-0.4,1.8-0.6,2.7-0.6
			l-0.1,1.9c-1.1,0-2.3,0.3-3.3,0.8c-0.9,0.5-1.7,1.2-2.3,2.1c-0.6,0.9-0.9,1.9-0.9,3v8.3h-1.9v-15.7L326.9,316.5z"/>
		<path class="st1" d="M345.1,332.5c-1.5,0-3-0.3-4.3-1.1c-1.2-0.7-2.3-1.7-3-3c-0.7-1.3-1.1-2.7-1.1-4.2c0-1.5,0.4-2.9,1.1-4.2
			c0.7-1.2,1.8-2.3,3-3c1.3-0.8,2.7-1.1,4.2-1.1c1.7,0,3.4,0.5,4.7,1.6c1.3,1.1,2.3,2.6,2.8,4.3l-13.7,5.3l-0.6-1.4l12.6-4.9
			l-0.4,0.6c-0.5-1.1-1.2-2-2.1-2.8c-1-0.8-2.2-1.2-3.4-1.2c-1.1,0-2.3,0.3-3.3,0.9c-1,0.6-1.7,1.4-2.3,2.4c-0.6,1-0.9,2.2-0.9,3.4
			c0,1.1,0.3,2.3,0.8,3.3c0.5,1,1.3,1.9,2.3,2.5c1,0.6,2.2,0.9,3.4,0.9c0.8,0,1.7-0.2,2.5-0.5c0.8-0.3,1.5-0.7,2.1-1.2l1,1.4
			c-0.8,0.6-1.7,1.1-2.6,1.5C347.2,332.3,346.2,332.5,345.1,332.5z"/>
		<path class="st1" d="M361.6,332.5c-1,0-1.9-0.2-2.9-0.5c-0.9-0.3-1.8-0.9-2.4-1.6l0.9-1.2c0.5,0.6,1.2,1,1.9,1.3
			c1.3,0.6,2.7,0.7,4.1,0.2c0.5-0.2,1-0.5,1.4-0.9c0.4-0.5,0.6-1.1,0.5-1.7c0-0.6-0.2-1.3-0.6-1.7c-0.5-0.4-1-0.8-1.6-1
			c-0.6-0.3-1.3-0.5-2-0.7c-1-0.3-2-0.8-2.8-1.5c-0.8-0.7-1.2-1.7-1.1-2.7c0-0.8,0.2-1.6,0.6-2.3c0.4-0.6,1-1.2,1.7-1.5
			c0.8-0.4,1.6-0.6,2.5-0.5c0.8,0,1.7,0.1,2.5,0.4c0.8,0.3,1.6,0.7,2.2,1.4l-0.8,1.3c-0.4-0.6-1-1-1.7-1.2c-0.6-0.2-1.2-0.3-1.9-0.4
			c-0.5,0-1,0.1-1.4,0.3c-0.5,0.2-0.9,0.5-1.2,0.8c-0.3,0.4-0.5,0.9-0.5,1.4c0,0.5,0.2,1.1,0.5,1.5c0.4,0.4,0.8,0.8,1.3,1
			c0.5,0.2,1.1,0.5,1.7,0.7c0.8,0.2,1.5,0.5,2.2,0.9c0.7,0.3,1.2,0.8,1.7,1.3c0.5,0.6,0.7,1.4,0.7,2.2c0,0.9-0.2,1.7-0.6,2.5
			c-0.4,0.7-1,1.3-1.8,1.7C363.6,332.3,362.6,332.5,361.6,332.5z"/>
		<path class="st1" d="M379.1,332.5c-1.4,0-2.8-0.3-4.1-1c-1.2-0.7-2.2-1.7-2.9-2.9c-1.4-2.8-1.4-6,0.1-8.8c0.7-1.2,1.8-2.2,3-2.9
			c1.4-0.7,2.9-1,4.4-1c2.9,0.1,5.4,1.8,6.6,4.4l-0.3,0.6l0.2-4.5h1.7v15.7H386v-4.9l0.4,0.7c-0.2,0.6-0.6,1.1-1,1.6
			c-0.5,0.6-1.1,1-1.7,1.4c-0.7,0.4-1.4,0.8-2.2,1C380.8,332.3,380,332.5,379.1,332.5z M379.5,330.9c1.1,0,2.2-0.2,3.2-0.7
			c0.9-0.5,1.7-1.2,2.3-2.1c0.6-0.9,0.9-2,1-3v-2.2c-0.2-1-0.6-1.9-1.3-2.6c-0.6-0.8-1.4-1.4-2.3-1.9c-2-1-4.3-0.9-6.2,0.1
			c-1,0.5-1.8,1.3-2.4,2.3c-0.6,1.1-0.9,2.3-0.9,3.5c0,1.2,0.3,2.3,0.9,3.4c0.6,1,1.4,1.8,2.4,2.4
			C377.3,330.6,378.4,330.9,379.5,330.9L379.5,330.9z"/>
		<path class="st1" d="M396.7,316.5l0.2,4.8l-0.2-0.6c0.3-1,0.9-1.8,1.6-2.5c0.7-0.7,1.6-1.2,2.5-1.6c0.8-0.4,1.8-0.6,2.7-0.6
			l-0.1,1.9c-1.1,0-2.3,0.3-3.3,0.8c-0.9,0.5-1.7,1.2-2.3,2.1c-0.6,0.9-0.9,1.9-0.9,3v8.3h-1.9v-15.7L396.7,316.5z"/>
		<path class="st1" d="M408.4,310.7c0-0.4,0.2-0.7,0.4-1c0.3-0.3,0.6-0.4,1-0.4c0.4,0,0.7,0.1,1,0.4c0.3,0.2,0.4,0.6,0.4,1
			c0,0.4-0.1,0.7-0.4,1c-0.5,0.5-1.4,0.5-1.9,0C408.6,311.4,408.4,311.1,408.4,310.7z M408.8,316.4h1.9v15.7h-1.9V316.4z"/>
		<path class="st1" d="M424.3,332.5c-1.4,0-2.8-0.3-4.1-1c-1.2-0.7-2.2-1.7-2.9-2.9c-0.7-1.3-1.1-2.8-1.1-4.3c0-1.6,0.3-3.1,1.1-4.5
			c0.7-1.2,1.8-2.2,3-2.9c1.4-0.7,2.9-1,4.4-1c2.9,0.1,5.4,1.8,6.6,4.4l-0.3,0.6l0.2-4.5h1.7v15.7h-1.9v-4.9l0.4,0.7
			c-0.2,0.6-0.6,1.1-1,1.6c-0.5,0.5-1,1-1.6,1.4C427.6,331.9,426,332.4,424.3,332.5L424.3,332.5z M424.7,330.9
			c1.1,0,2.2-0.2,3.2-0.7c0.9-0.5,1.7-1.2,2.3-2.1c0.6-0.9,0.9-2,1-3v-2.2c-0.2-1-0.6-1.9-1.3-2.6c-0.6-0.8-1.4-1.4-2.3-1.9
			c-2-1-4.3-0.9-6.2,0.1c-1,0.5-1.8,1.3-2.4,2.3c-0.6,1.1-0.9,2.3-0.9,3.5c0,1.2,0.3,2.3,0.9,3.4c0.6,1,1.4,1.8,2.4,2.4
			C422.5,330.6,423.6,330.9,424.7,330.9L424.7,330.9z"/>
		<path class="st1" d="M440.3,301.6h1.9v30.5h-1.9V301.6z"/>
		<path class="st1" d="M72.3,372.6c-1.6,0-3.1-0.4-4.4-1.2c-1.2-0.7-2.2-1.8-2.9-3.1l0.4-1.1v5.1h-1.9v-30.5h1.9v19.4l-0.2-1
			c0.6-1.3,1.7-2.3,2.9-3c1.4-0.7,2.9-1.1,4.4-1.1c1.4,0,2.8,0.4,4,1.1c1.2,0.7,2.2,1.7,2.9,2.9c0.7,1.3,1.1,2.7,1.1,4.2
			c0,1.6-0.3,3.1-1.1,4.5c-0.7,1.2-1.8,2.2-3,2.8C75,372.3,73.7,372.6,72.3,372.6z M72,371c1.2,0,2.4-0.3,3.5-0.9
			c1-0.6,1.7-1.4,2.3-2.4c0.5-1.1,0.8-2.2,0.8-3.4c0-1.2-0.3-2.3-0.8-3.3c-1.1-2.1-3.3-3.4-5.7-3.4c-2.1,0-4,0.9-5.3,2.5
			c-0.6,0.8-1,1.7-1.2,2.7v2.5c0.1,1,0.4,1.9,1,2.8C67.7,369.9,69.8,371,72,371z"/>
		<path class="st1" d="M92.5,372.6c-1.4,0-2.8-0.3-4.1-1c-1.2-0.7-2.2-1.7-2.9-2.9c-0.7-1.3-1.1-2.8-1.1-4.3c0-1.6,0.3-3.1,1.1-4.5
			c0.7-1.2,1.8-2.2,3-2.9c1.4-0.7,2.9-1,4.4-1c2.9,0.1,5.4,1.8,6.6,4.4l-0.3,0.6l0.2-4.5h1.7v15.7h-1.8v-4.9l0.4,0.7
			c-0.2,0.6-0.6,1.1-1,1.6c-0.5,0.6-1,1-1.7,1.5c-0.7,0.4-1.4,0.8-2.2,1C94.2,372.4,93.4,372.6,92.5,372.6z M92.9,371
			c1.1,0,2.2-0.2,3.2-0.7c0.9-0.5,1.7-1.2,2.3-2.1c0.6-0.9,0.9-2,1-3v-2.3c-0.2-1-0.6-1.9-1.3-2.6c-0.6-0.8-1.4-1.4-2.3-1.8
			c-0.9-0.5-2-0.7-3-0.7c-1.1,0-2.3,0.3-3.3,0.8c-1,0.5-1.8,1.3-2.4,2.3c-0.6,1.1-0.9,2.3-0.9,3.5c0,1.2,0.3,2.3,0.9,3.4
			c0.6,1,1.4,1.8,2.4,2.4C90.6,370.7,91.8,371,92.9,371z"/>
		<path class="st1" d="M112.2,372.6c-1,0-1.9-0.2-2.8-0.5c-0.9-0.3-1.8-0.9-2.4-1.6l0.9-1.3c0.5,0.6,1.2,1,1.9,1.4
			c0.7,0.3,1.5,0.5,2.3,0.5c0.6,0,1.2-0.1,1.7-0.3c0.5-0.2,1-0.5,1.3-0.9c0.4-0.5,0.6-1.1,0.5-1.7c0-0.6-0.2-1.3-0.6-1.7
			c-0.5-0.4-1-0.8-1.6-1c-0.6-0.3-1.3-0.5-2-0.7c-1-0.3-2-0.8-2.8-1.5c-0.8-0.7-1.2-1.7-1.1-2.7c0-0.8,0.2-1.6,0.6-2.2
			c0.4-0.6,1-1.2,1.7-1.5c0.8-0.4,1.6-0.6,2.4-0.5c0.8,0,1.7,0.1,2.5,0.4c0.8,0.3,1.6,0.8,2.2,1.4l-0.8,1.3c-0.4-0.6-1-1-1.7-1.2
			c-0.6-0.2-1.2-0.3-1.9-0.4c-0.5,0-1,0.1-1.4,0.3c-0.5,0.2-0.9,0.5-1.2,0.8c-0.3,0.4-0.5,0.9-0.5,1.4c0,0.6,0.2,1.1,0.5,1.5
			c0.4,0.4,0.8,0.7,1.3,0.9c0.6,0.2,1.1,0.5,1.7,0.7c0.8,0.2,1.5,0.5,2.2,0.9c0.7,0.3,1.2,0.8,1.7,1.3c0.5,0.6,0.7,1.4,0.7,2.2
			c0,0.9-0.2,1.7-0.6,2.5c-0.4,0.7-1,1.3-1.8,1.7C114.2,372.4,113.2,372.6,112.2,372.6z"/>
		<path class="st1" d="M130.1,372.6c-1.5,0-3-0.3-4.3-1.1c-1.3-0.7-2.3-1.7-3-3c-0.7-1.3-1.1-2.7-1.1-4.2c0-1.5,0.4-2.9,1.1-4.2
			c0.7-1.2,1.8-2.3,3-3c1.3-0.8,2.8-1.1,4.2-1.1c1.7-0.1,3.4,0.5,4.7,1.6c1.3,1.1,2.3,2.6,2.8,4.3l-13.7,5.3l-0.6-1.4l12.6-4.9
			l-0.4,0.6c-0.5-1.1-1.2-2-2.1-2.8c-1-0.8-2.2-1.2-3.4-1.2c-1.1,0-2.3,0.3-3.3,0.9c-2,1.2-3.2,3.4-3.2,5.7c0,1.1,0.3,2.3,0.8,3.3
			c1.1,2.1,3.3,3.4,5.7,3.4c0.8,0,1.7-0.2,2.5-0.5c0.8-0.3,1.5-0.7,2.1-1.3l1,1.4c-0.8,0.6-1.7,1.1-2.6,1.4
			C132.1,372.4,131.1,372.6,130.1,372.6z"/>
		<path class="st1" d="M149.3,372.6c-1.4,0-2.8-0.3-4.1-1c-1.2-0.7-2.2-1.7-2.9-2.9c-0.7-1.3-1.1-2.8-1.1-4.3c0-1.6,0.3-3.1,1.1-4.5
			c0.7-1.2,1.8-2.2,3.1-2.9c1.4-0.7,2.9-1,4.4-1c2.9,0.1,5.4,1.8,6.6,4.4l-0.3,0.6l0.2-4.5h1.7v15.7h-1.9v-4.9l0.4,0.7
			c-0.2,0.6-0.6,1.1-1,1.6c-0.5,0.6-1,1-1.7,1.5c-0.7,0.4-1.4,0.8-2.2,1C151,372.4,150.1,372.6,149.3,372.6z M149.7,371
			c1.1,0,2.2-0.2,3.2-0.7c0.9-0.5,1.7-1.2,2.3-2.1c0.6-0.9,0.9-2,1-3v-2.3c-0.2-1-0.6-1.9-1.3-2.6c-0.6-0.8-1.4-1.4-2.3-1.8
			c-0.9-0.5-2-0.7-3-0.7c-1.1,0-2.3,0.3-3.3,0.8c-1,0.5-1.8,1.3-2.4,2.3c-0.6,1.1-0.9,2.3-0.9,3.5c0,1.2,0.3,2.3,0.9,3.4
			c0.6,1,1.4,1.8,2.4,2.4C147.4,370.7,148.5,371,149.7,371L149.7,371z"/>
		<path class="st1" d="M171.6,372.6c-2.9,0-5.5-1.5-6.9-4c-1.4-2.7-1.4-5.9,0-8.6c0.7-1.2,1.7-2.2,2.9-2.9c2.6-1.4,5.8-1.3,8.4,0.2
			c1.3,0.7,2.3,1.8,2.9,3l-0.3,0.9v-19.4h1.9v30.5h-1.9v-4.8l0.4,0.9c-0.7,1.3-1.7,2.3-3,3.1C174.7,372.2,173.2,372.6,171.6,372.6z
			 M172.1,371c1.1,0,2.2-0.3,3.3-0.8c0.9-0.5,1.7-1.2,2.3-2.1c0.6-0.9,0.9-1.9,1-3v-2c-0.2-1-0.6-1.9-1.2-2.7
			c-0.6-0.8-1.4-1.4-2.3-1.9c-2-1-4.4-0.9-6.3,0.1c-1,0.6-1.8,1.4-2.4,2.3c-0.6,1.1-0.9,2.2-0.9,3.5c0,1.2,0.3,2.3,0.9,3.4
			c0.6,1,1.4,1.8,2.4,2.4C169.8,370.7,171,371,172.1,371L172.1,371z"/>
		<path class="st1" d="M194.3,372.6c-1.4,0-2.8-0.3-4.1-1c-1.2-0.7-2.2-1.7-2.9-2.9c-0.7-1.3-1.1-2.8-1.1-4.3c0-1.6,0.3-3.1,1.1-4.5
			c0.7-1.2,1.8-2.2,3.1-2.9c1.4-0.7,2.9-1,4.4-1c2.9,0.1,5.4,1.8,6.6,4.4l-0.3,0.6l0.2-4.5h1.7v15.7h-1.9v-4.9l0.4,0.7
			c-0.2,0.6-0.6,1.1-1,1.6c-0.5,0.6-1,1-1.7,1.5c-0.7,0.4-1.4,0.8-2.2,1C196,372.4,195.1,372.6,194.3,372.6z M194.7,371
			c1.1,0,2.2-0.2,3.2-0.7c0.9-0.5,1.7-1.2,2.3-2.1c0.6-0.9,0.9-2,1-3v-2.3c-0.2-1-0.6-1.9-1.3-2.6c-0.6-0.8-1.4-1.4-2.3-1.8
			c-0.9-0.5-2-0.7-3-0.7c-1.1,0-2.3,0.3-3.3,0.8c-1,0.5-1.8,1.3-2.4,2.3c-0.6,1.1-0.9,2.3-0.9,3.5c0,1.2,0.3,2.3,0.9,3.4
			c0.6,1,1.4,1.8,2.4,2.4C192.4,370.7,193.5,371,194.7,371z"/>
		<path class="st1" d="M229.4,372.6c-1.5,0-3-0.3-4.3-1.1c-1.2-0.7-2.3-1.7-2.9-3c-0.7-1.3-1.1-2.7-1.1-4.2c0-1.5,0.4-2.9,1.1-4.2
			c0.7-1.2,1.8-2.3,3-3c1.3-0.8,2.7-1.1,4.2-1.1c1.7-0.1,3.4,0.5,4.7,1.6c1.3,1.1,2.3,2.6,2.8,4.3l-13.7,5.3l-0.6-1.4l12.6-4.9
			l-0.4,0.6c-0.5-1.1-1.2-2-2.1-2.8c-0.9-0.8-2.2-1.2-3.4-1.2c-1.1,0-2.3,0.3-3.3,0.9c-2,1.2-3.2,3.4-3.2,5.7c0,1.1,0.3,2.3,0.8,3.3
			c0.6,1,1.4,1.8,2.3,2.4c1,0.6,2.2,1,3.4,0.9c0.8,0,1.7-0.2,2.5-0.5c0.8-0.3,1.5-0.7,2.1-1.3l1,1.4c-0.8,0.6-1.7,1.1-2.6,1.4
			C231.4,372.4,230.4,372.6,229.4,372.6z"/>
		<path class="st1" d="M243.7,356.6l0.2,4.4l-0.3-0.4c0.5-1.3,1.5-2.5,2.7-3.2c1.2-0.8,2.6-1.2,4.1-1.2c0.8,0,1.6,0.2,2.4,0.5
			c0.7,0.3,1.3,0.8,1.7,1.4c0.4,0.6,0.7,1.3,0.8,2l-0.2,0.2c0.5-1.3,1.4-2.4,2.6-3c1.2-0.7,2.5-1,3.9-1c1.3-0.1,2.6,0.4,3.6,1.3
			c0.9,0.9,1.4,2.1,1.4,3.4v11.4h-1.9v-11c0-0.9-0.3-1.7-0.9-2.4c-0.7-0.7-1.6-1.1-2.6-1.1c-1,0-2,0.3-2.9,0.8
			c-0.9,0.5-1.6,1.3-2.1,2.1c-0.6,0.9-0.9,1.9-0.9,3v8.6h-1.9v-11c0-0.9-0.3-1.7-0.9-2.4c-0.7-0.7-1.6-1.1-2.6-1.1
			c-1.1,0-2.1,0.3-3,0.8c-0.9,0.5-1.6,1.3-2.1,2.2c-0.5,0.9-0.8,2-0.8,3.1v8.4H242v-15.8H243.7z"/>
		<path class="st1" d="M293,380c-0.8,0-1.7-0.1-2.5-0.3c-0.8-0.2-1.6-0.5-2.4-1c-0.9-0.5-1.7-1.2-2.4-1.9l1.1-1.3
			c0.9,0.9,2,1.7,3.2,2.2c0.9,0.4,1.9,0.6,2.9,0.6c1.3,0.1,2.7-0.2,3.9-0.8c0.9-0.5,1.6-1.2,2.1-2.1c0.4-0.9,0.7-1.9,0.7-2.9v-5.1
			l0.4,0.5c-0.6,1.4-1.6,2.6-2.9,3.4c-1.4,0.9-3,1.3-4.7,1.3c-1.4,0-2.8-0.4-4-1.1c-1.2-0.7-2.2-1.8-2.9-3c-1.5-2.6-1.5-5.8,0-8.5
			c0.7-1.2,1.8-2.2,3-2.9c1.3-0.7,2.8-1.1,4.3-1.1c1.4,0,2.9,0.4,4.1,1.1c1.2,0.7,2.2,1.7,2.8,3l-0.2,0.9l0.2-4.5h1.7v15.9
			c0,1.3-0.3,2.5-0.9,3.6c-0.6,1.2-1.6,2.1-2.7,2.7C296.4,379.7,294.7,380.1,293,380z M286.4,364.4c0,1.2,0.3,2.3,0.9,3.4
			c0.6,1,1.4,1.8,2.4,2.4c1,0.6,2.2,0.9,3.3,0.9c1.1,0,2.2-0.3,3.2-0.8c0.9-0.5,1.8-1.2,2.4-2.1c0.6-0.8,1-1.8,1-2.9v-2.3
			c-0.2-1-0.6-1.9-1.3-2.7c-0.6-0.8-1.4-1.4-2.4-1.8c-2-1-4.4-0.9-6.4,0.2c-1,0.5-1.8,1.3-2.4,2.3
			C286.6,361.9,286.3,363.1,286.4,364.4L286.4,364.4z"/>
		<path class="st1" d="M310.3,356.6l0.2,4.8l-0.2-0.6c0.3-0.9,0.9-1.8,1.6-2.5c0.7-0.7,1.6-1.2,2.5-1.6c0.8-0.4,1.8-0.5,2.7-0.6
			L317,358c-1.1,0-2.3,0.3-3.3,0.8c-0.9,0.5-1.7,1.2-2.3,2.1c-0.6,0.9-0.9,1.9-0.9,3v8.3h-1.9v-15.7H310.3z"/>
		<path class="st1" d="M328.6,372.6c-1.4,0-2.8-0.3-4.1-1c-1.2-0.7-2.2-1.7-2.9-2.9c-0.7-1.3-1.1-2.8-1.1-4.3c0-1.6,0.3-3.1,1.1-4.5
			c0.7-1.2,1.8-2.2,3-2.9c1.4-0.7,2.9-1,4.4-1c1.4,0,2.8,0.4,4,1.2c1.2,0.8,2.1,1.8,2.7,3.1l-0.3,0.6l0.2-4.5h1.7v15.7h-1.9v-4.9
			l0.4,0.7c-0.2,0.6-0.6,1.1-1,1.6c-0.5,0.6-1.1,1-1.7,1.5c-0.7,0.4-1.4,0.8-2.2,1C330.3,372.4,329.5,372.6,328.6,372.6z M329.1,371
			c1.1,0,2.2-0.2,3.2-0.7c1.9-1,3.2-2.9,3.3-5.1v-2.3c-0.2-1-0.6-1.9-1.3-2.6c-0.6-0.8-1.4-1.4-2.3-1.8c-0.9-0.5-2-0.7-3-0.7
			c-1.1,0-2.3,0.3-3.3,0.8c-1,0.5-1.8,1.3-2.4,2.3c-0.6,1.1-0.9,2.3-0.9,3.5c0,1.2,0.3,2.3,0.9,3.4c0.6,1,1.4,1.8,2.4,2.4
			C326.7,370.7,327.9,371,329.1,371z"/>
		<path class="st1" d="M346.2,356.6l0.2,4.9l-0.2-1c0.5-1.3,1.4-2.5,2.6-3.2c1.3-0.8,2.7-1.2,4.2-1.2c1.3-0.1,2.6,0.4,3.6,1.3
			c0.9,0.9,1.4,2.1,1.4,3.4v11.4h-1.9v-10.9c0-0.9-0.4-1.8-1-2.5c-0.7-0.7-1.7-1.1-2.7-1c-1,0-2,0.3-2.9,0.8
			c-0.9,0.5-1.7,1.2-2.2,2.1c-0.6,1-0.9,2.1-0.8,3.2v8.4h-1.9v-15.7H346.2z"/>
		<path class="st1" d="M371.6,372.6c-2.9,0-5.5-1.5-6.9-4c-0.7-1.3-1.1-2.8-1.1-4.3c0-1.5,0.3-3,1.1-4.4c0.7-1.2,1.7-2.2,2.9-2.9
			c2.6-1.4,5.8-1.3,8.4,0.2c1.3,0.7,2.3,1.7,3,3l-0.3,0.9v-19.5h1.9v30.5h-1.9v-4.8l0.4,0.9c-0.7,1.3-1.7,2.3-3,3.1
			C374.7,372.2,373.1,372.6,371.6,372.6z M372,371c1.1,0,2.2-0.3,3.3-0.8c0.9-0.5,1.7-1.2,2.3-2.1c0.6-0.9,0.9-1.9,1-3v-2
			c-0.2-1-0.6-1.9-1.2-2.7c-0.6-0.8-1.4-1.4-2.3-1.9c-2-1-4.4-0.9-6.3,0.1c-1,0.6-1.8,1.4-2.4,2.3c-0.6,1.1-0.9,2.2-0.9,3.5
			c0,1.2,0.3,2.3,0.9,3.4c0.6,1,1.4,1.8,2.4,2.4C369.7,370.7,370.9,371,372,371z"/>
		<path class="st1" d="M394.5,372.6c-1.5,0-3-0.3-4.3-1.1c-1.2-0.7-2.3-1.7-3-3c-0.7-1.3-1.1-2.7-1.1-4.2c0-1.5,0.4-2.9,1.1-4.2
			c0.7-1.2,1.8-2.3,3-3c1.3-0.8,2.8-1.1,4.2-1.1c1.7-0.1,3.4,0.5,4.7,1.6c1.3,1.1,2.3,2.6,2.8,4.3l-13.7,5.3l-0.6-1.4l12.6-4.9
			l-0.4,0.6c-0.5-1.1-1.2-2-2.1-2.8c-1-0.8-2.2-1.2-3.4-1.2c-1.1,0-2.3,0.3-3.3,0.9c-2,1.2-3.2,3.4-3.2,5.7c0,1.1,0.3,2.3,0.8,3.3
			c1.1,2.1,3.3,3.4,5.7,3.4c0.8,0,1.7-0.2,2.5-0.5c0.8-0.3,1.5-0.7,2.1-1.3l1,1.4c-0.8,0.6-1.7,1.1-2.6,1.4
			C396.6,372.4,395.5,372.6,394.5,372.6z"/>
		<path class="st1" d="M410.9,372.6c-1,0-1.9-0.2-2.9-0.5c-0.9-0.3-1.8-0.9-2.4-1.6l0.9-1.3c0.5,0.6,1.2,1,1.9,1.4
			c0.7,0.3,1.5,0.5,2.4,0.5c0.6,0,1.2-0.1,1.8-0.3c0.5-0.2,1-0.5,1.3-0.9c0.4-0.5,0.6-1.1,0.5-1.7c0-0.6-0.2-1.3-0.6-1.7
			c-0.5-0.4-1-0.8-1.6-1c-0.6-0.3-1.3-0.5-2-0.7c-1-0.3-2-0.8-2.8-1.5c-0.8-0.7-1.2-1.7-1.1-2.7c0-0.8,0.2-1.6,0.6-2.2
			c0.4-0.7,1-1.2,1.7-1.5c0.8-0.4,1.6-0.6,2.5-0.5c0.8,0,1.7,0.1,2.5,0.4c0.8,0.3,1.6,0.7,2.2,1.4l-0.9,1.3c-0.4-0.6-1-1-1.7-1.2
			c-0.6-0.2-1.2-0.3-1.9-0.4c-0.5,0-0.9,0.1-1.4,0.3c-0.5,0.2-0.9,0.5-1.3,0.8c-0.3,0.4-0.5,0.9-0.5,1.4c0,0.6,0.2,1.1,0.5,1.5
			c0.4,0.4,0.8,0.7,1.4,0.9c0.5,0.2,1.1,0.5,1.7,0.7c0.8,0.2,1.5,0.5,2.2,0.9c0.7,0.3,1.2,0.8,1.7,1.3c0.5,0.6,0.7,1.4,0.7,2.2
			c0,0.9-0.2,1.7-0.6,2.5c-0.4,0.7-1,1.3-1.8,1.7C413,372.4,412,372.6,410.9,372.6z"/>
		<path class="st1" d="M166.4,412.7c-1.5,0-3-0.3-4.3-1.1c-1.2-0.7-2.3-1.8-2.9-3c-0.7-1.3-1.1-2.7-1.1-4.2c0-1.5,0.4-2.9,1.1-4.2
			c0.7-1.2,1.8-2.3,3-3c1.3-0.8,2.8-1.1,4.2-1.1c1.7-0.1,3.4,0.5,4.7,1.6c1.3,1.1,2.3,2.6,2.8,4.3l-13.7,5.3l-0.6-1.4l12.6-4.9
			l-0.4,0.6c-0.5-1.1-1.2-2-2.1-2.8c-1-0.8-2.2-1.2-3.4-1.2c-1.1,0-2.3,0.3-3.3,0.9c-2,1.2-3.2,3.4-3.2,5.7c0,1.1,0.3,2.3,0.8,3.3
			c0.5,1,1.3,1.9,2.3,2.5c1,0.6,2.2,0.9,3.4,0.9c0.8,0,1.7-0.2,2.5-0.5c0.8-0.3,1.5-0.7,2.1-1.2l1,1.4c-0.8,0.6-1.7,1.1-2.6,1.5
			C168.4,412.5,167.4,412.7,166.4,412.7z"/>
		<path class="st1" d="M180.7,396.7l0.2,4.4l-0.3-0.4c0.5-1.3,1.4-2.5,2.7-3.2c1.2-0.8,2.6-1.2,4.1-1.2c0.8,0,1.6,0.2,2.4,0.5
			c0.7,0.3,1.3,0.8,1.7,1.4c0.4,0.6,0.7,1.3,0.8,2l-0.2,0.2c0.5-1.3,1.5-2.4,2.6-3c1.2-0.7,2.5-1.1,3.9-1c1.3-0.1,2.6,0.4,3.6,1.3
			c0.9,0.9,1.4,2.1,1.4,3.4v11.4h-1.9v-11c0-0.9-0.3-1.7-0.9-2.4c-0.7-0.7-1.6-1.1-2.6-1.1c-1,0-2,0.3-2.9,0.8
			c-0.9,0.5-1.6,1.3-2.1,2.1c-0.6,0.9-0.9,1.9-0.9,3v8.6h-1.9v-11c0-0.9-0.3-1.7-0.9-2.4c-0.7-0.7-1.6-1.1-2.6-1.1
			c-1,0-2.1,0.3-2.9,0.8c-1.9,1.1-3,3.1-3,5.3v8.4H179v-15.7L180.7,396.7z"/>
		<path class="st1" d="M219.4,412.7c-1.5,0-3-0.4-4.2-1.2c-1.2-0.7-2.3-1.8-2.9-3.1l0.3-0.7V420h-1.9v-23.4h1.7l0.2,5.1l-0.4-1.2
			c0.7-1.3,1.8-2.4,3.1-3.1c1.3-0.8,2.8-1.2,4.4-1.2c1.4,0,2.8,0.4,4.1,1.1c1.2,0.7,2.2,1.7,2.9,3c0.7,1.3,1.1,2.8,1.1,4.3
			c0,1.5-0.4,3-1.1,4.2c-0.7,1.2-1.8,2.2-3,2.9C222.2,412.4,220.8,412.8,219.4,412.7z M219,411.2c1.2,0,2.3-0.3,3.4-0.9
			c1-0.6,1.8-1.4,2.4-2.4c0.6-1,0.9-2.2,0.9-3.4c0-1.2-0.3-2.4-0.9-3.4c-0.6-1-1.4-1.8-2.3-2.4c-1-0.6-2.1-0.9-3.3-0.9
			c-1.1,0-2.2,0.3-3.2,0.8c-0.9,0.5-1.7,1.3-2.3,2.2c-0.6,0.9-1,2-1.1,3.1v1.3c0.1,1.1,0.4,2.1,1,3c0.6,0.9,1.4,1.6,2.3,2.1
			C216.8,410.9,217.9,411.2,219,411.2L219,411.2z"/>
		<path class="st1" d="M234.9,396.7l0.2,4.8l-0.2-0.6c0.3-1,0.9-1.8,1.6-2.5c0.7-0.7,1.6-1.2,2.5-1.6c0.8-0.4,1.8-0.6,2.7-0.6
			l-0.1,1.9c-1.1,0-2.3,0.3-3.3,0.8c-0.9,0.5-1.7,1.2-2.3,2.1c-0.6,0.9-0.9,1.9-0.9,3v8.3h-1.9v-15.7L234.9,396.7z"/>
		<path class="st1" d="M253.1,412.7c-1.5,0-3-0.3-4.3-1.1c-1.2-0.7-2.3-1.7-2.9-3c-0.7-1.3-1.1-2.7-1.1-4.2c0-1.5,0.4-2.9,1.1-4.2
			c0.7-1.2,1.8-2.3,3-3c1.3-0.8,2.7-1.1,4.2-1.1c1.7,0,3.4,0.5,4.7,1.6c1.3,1.1,2.2,2.6,2.8,4.3l-13.7,5.3l-0.6-1.4l12.6-4.9
			l-0.4,0.6c-0.5-1.1-1.2-2-2.1-2.8c-1-0.8-2.2-1.2-3.4-1.2c-1.1,0-2.3,0.3-3.3,0.9c-1,0.6-1.7,1.4-2.3,2.4c-0.6,1-0.9,2.2-0.9,3.4
			c0,1.1,0.3,2.3,0.8,3.3c0.5,1,1.3,1.9,2.3,2.5c1,0.6,2.2,0.9,3.4,0.9c0.8,0,1.7-0.2,2.5-0.5c0.8-0.3,1.5-0.7,2.1-1.2l1,1.4
			c-0.8,0.6-1.7,1.1-2.6,1.5C255.2,412.5,254.2,412.7,253.1,412.7z"/>
		<path class="st1" d="M269.6,412.7c-1,0-1.9-0.2-2.9-0.5c-0.9-0.3-1.8-0.9-2.4-1.6l0.9-1.2c0.5,0.6,1.2,1,1.9,1.3
			c1.3,0.6,2.7,0.7,4.1,0.2c0.5-0.2,1-0.5,1.4-0.9c0.4-0.5,0.6-1.1,0.5-1.7c0-0.6-0.2-1.3-0.6-1.7c-0.4-0.4-1-0.8-1.6-1
			c-0.6-0.3-1.3-0.5-2-0.7c-1-0.3-2-0.8-2.8-1.5c-0.8-0.7-1.2-1.7-1.1-2.7c0-0.8,0.2-1.6,0.6-2.3c0.4-0.6,1-1.2,1.7-1.5
			c0.8-0.4,1.6-0.6,2.5-0.5c0.8,0,1.7,0.1,2.5,0.4c0.8,0.3,1.6,0.7,2.2,1.4l-0.8,1.3c-0.4-0.6-1-1-1.7-1.2c-0.6-0.2-1.2-0.3-1.9-0.4
			c-0.5,0-1,0.1-1.4,0.3c-0.5,0.2-0.9,0.5-1.2,0.8c-0.3,0.4-0.5,0.9-0.5,1.4c0,0.5,0.2,1.1,0.5,1.5c0.4,0.4,0.8,0.7,1.3,1
			c0.5,0.2,1.1,0.5,1.7,0.7c0.7,0.2,1.5,0.5,2.2,0.9c0.7,0.3,1.2,0.8,1.7,1.3c0.5,0.6,0.7,1.4,0.7,2.2c0,0.9-0.2,1.7-0.6,2.5
			c-0.4,0.7-1,1.3-1.8,1.7C271.6,412.5,270.6,412.8,269.6,412.7z"/>
		<path class="st1" d="M287.1,412.7c-1.4,0-2.8-0.3-4.1-1c-1.2-0.7-2.2-1.7-2.9-2.9c-1.4-2.8-1.4-6,0.1-8.8c0.7-1.2,1.7-2.2,3-2.9
			c1.4-0.7,2.9-1,4.4-1c1.4,0,2.8,0.4,4,1.3c1.2,0.8,2.1,1.8,2.7,3.1l-0.3,0.6l0.2-4.5h1.7v15.7H294v-4.9l0.4,0.7
			c-0.2,0.6-0.6,1.1-1,1.6c-1,1.2-2.4,2-3.8,2.5C288.8,412.6,288,412.7,287.1,412.7z M287.5,411.1c1.1,0,2.2-0.2,3.2-0.7
			c0.9-0.5,1.7-1.2,2.3-2.1c0.6-0.9,0.9-2,1-3V403c-0.2-1-0.6-1.9-1.3-2.6c-0.6-0.8-1.4-1.4-2.3-1.9c-0.9-0.5-2-0.7-3-0.7
			c-1.1,0-2.3,0.3-3.3,0.8c-1,0.5-1.8,1.3-2.4,2.3c-0.6,1.1-0.9,2.3-0.9,3.5c0,1.2,0.3,2.3,0.9,3.4c0.6,1,1.4,1.8,2.4,2.4
			C285.2,410.8,286.4,411.1,287.5,411.1z"/>
		<path class="st1" d="M306.8,412.7c-1,0-1.9-0.2-2.9-0.5c-0.9-0.3-1.8-0.9-2.4-1.6l0.9-1.2c0.5,0.6,1.2,1,1.9,1.3
			c1.3,0.6,2.7,0.7,4.1,0.2c0.5-0.2,1-0.5,1.3-0.9c0.4-0.5,0.6-1.1,0.5-1.7c0-0.6-0.2-1.3-0.6-1.7c-0.5-0.4-1-0.8-1.6-1
			c-0.6-0.3-1.3-0.5-2-0.7c-1-0.3-2-0.8-2.8-1.5c-0.8-0.7-1.2-1.7-1.1-2.7c0-0.8,0.2-1.6,0.6-2.3c0.4-0.6,1-1.2,1.7-1.5
			c0.8-0.4,1.6-0.6,2.5-0.5c0.8,0,1.7,0.1,2.5,0.4c0.8,0.3,1.6,0.7,2.2,1.4l-0.9,1.3c-0.4-0.6-1-1-1.7-1.2c-0.6-0.2-1.2-0.3-1.9-0.4
			c-0.5,0-1,0.1-1.4,0.3c-0.5,0.2-0.9,0.5-1.3,0.8c-0.3,0.4-0.5,0.9-0.5,1.4c0,0.5,0.2,1.1,0.5,1.5c0.4,0.4,0.8,0.7,1.4,1
			c0.5,0.2,1.1,0.5,1.7,0.7c0.8,0.2,1.5,0.5,2.2,0.9c0.7,0.3,1.2,0.8,1.7,1.3c0.5,0.6,0.7,1.4,0.7,2.2c0,0.9-0.2,1.7-0.6,2.5
			c-0.4,0.7-1,1.3-1.8,1.7C308.8,412.5,307.8,412.8,306.8,412.7z"/>
		<path class="st1" d="M319.3,48.4c9.1,0,18.1,2.1,26.3,6.1c27.5,13.3,40.2,43.8,28.4,68.2c-8,16.8-25.6,26.3-44.7,26.3
			c-8.7,0-17.2-1.9-25.1-5.6c7,12.4,10.7,26.3,10.7,40.6c0,4.3-0.3,8.6-1,12.8c-2.8-0.6-5.7-1-8.6-1.3c0.1-2.1,0.2-4.2,0.2-6.3
			c0-35.4-13.1-64.5-35.3-64.5c-11.1,0-22.5,7.3-31,19c-8.5-11.7-19.8-19-31-19c-22.2,0-35.3,29.1-35.3,64.5c0,2.1,0.1,4.2,0.2,6.3
			c-2.9,0.3-5.7,0.7-8.6,1.3c-0.7-4.2-1-8.5-1-12.8c0-14.2,3.7-28.3,10.7-40.6c-7.9,3.6-16.4,5.6-25.1,5.6
			c-19.1,0-36.7-9.5-44.8-26.3c-11.8-24.4,1-54.9,28.4-68.2c8.2-4,17.2-6.1,26.3-6.2c19.1,0,36.7,9.5,44.8,26.3
			c6,12.5,5.6,26.7,0.1,39.3l0,0c22-12.2,48.7-12.2,70.7,0l0,0c-5.6-12.6-6-26.7,0.1-39.3C282.7,57.9,300.2,48.4,319.3,48.4
			 M319.3,42.1c-22.2,0-41.6,11.4-50.5,29.8c-4.6,9.5-6.1,20.3-4.3,30.7c-16.4-5.6-34.3-5.6-50.7,0c1.8-10.4,0.3-21.2-4.3-30.7
			c-8.9-18.4-28.2-29.9-50.5-29.9c-10,0.1-20,2.4-29,6.7c-30.6,14.8-44.7,49.1-31.4,76.6c8.9,18.4,28.2,29.8,50.5,29.8
			c4.5,0,8.9-0.5,13.3-1.4c-5,14-6.5,29.1-4.2,43.9c0.5,3.1,3.1,5.4,6.3,5.4c0.4,0,0.8,0,1.3-0.1c2.6-0.5,5.3-0.9,7.9-1.2
			c3.4-0.3,5.9-3.3,5.7-6.7c-0.1-2-0.2-4-0.2-5.9c0-33.7,12.2-58.2,29-58.2c8.7,0,18.4,6.1,25.9,16.4c2,2.8,6,3.5,8.8,1.4
			c0.5-0.4,1-0.9,1.4-1.4c7.5-10.3,17.1-16.4,25.9-16.4c16.8,0,29,24.5,29,58.2c0,1.9-0.1,3.9-0.2,5.9c-0.2,3.4,2.3,6.3,5.7,6.7
			c2.6,0.3,5.3,0.7,8,1.2c0.4,0.1,0.8,0.1,1.3,0.1c3.1,0,5.8-2.3,6.3-5.4c0.7-4.6,1-9.2,1-13.8c0-10.3-1.8-20.5-5.2-30.1
			c4.4,0.9,8.8,1.4,13.3,1.4c22.2,0,41.6-11.4,50.5-29.8c13.2-27.5-0.8-61.9-31.4-76.6C339.3,44.4,329.4,42.1,319.3,42.1L319.3,42.1
			z"/>
	</g>
</g>
</svg>
