<svg xmlns="http://www.w3.org/2000/svg" viewBox="0 0 882.93 464.2"><defs><style>.cls-1{fill:#fff;}.cls-2{fill:#cce70b;}.cls-3{fill:#c2000b;}</style></defs><g id="Camada_2" data-name="Camada 2"><g id="Camada_1-2" data-name="Camada 1"><rect width="882.93" height="464.2"/><path class="cls-1" d="M87.46,296a27.47,27.47,0,0,0-4.4-1.88,14.27,14.27,0,0,0-4.45-.77,7.19,7.19,0,0,0-4.51,1.27,4.19,4.19,0,0,0-1.64,3.5,3.89,3.89,0,0,0,1.14,2.78A10.19,10.19,0,0,0,76.54,303c1.2.58,2.47,1.14,3.82,1.67a28.08,28.08,0,0,1,3.44,1.51,14.79,14.79,0,0,1,3.1,2.12,8.72,8.72,0,0,1,2.23,3.18,11.78,11.78,0,0,1,.82,4.64,10.35,10.35,0,0,1-1.51,5.53,10.9,10.9,0,0,1-4.43,4,14.84,14.84,0,0,1-6.94,1.51,21.26,21.26,0,0,1-4.74-.53A24.31,24.31,0,0,1,68,325.14,20.65,20.65,0,0,1,64.14,323l2.76-4.78a17.25,17.25,0,0,0,2.91,1.75,20.27,20.27,0,0,0,3.37,1.28,12.65,12.65,0,0,0,3.31.47,10.28,10.28,0,0,0,3.26-.55,6.14,6.14,0,0,0,2.73-1.78,4.86,4.86,0,0,0,1.06-3.28,4.19,4.19,0,0,0-1-2.79,8.91,8.91,0,0,0-2.46-2,23.57,23.57,0,0,0-3.31-1.56c-1.17-.46-2.39-1-3.66-1.54a16.81,16.81,0,0,1-3.52-2.1,9.22,9.22,0,0,1-2.58-3,9.38,9.38,0,0,1-1-4.4,10.5,10.5,0,0,1,1.43-5.54,10.09,10.09,0,0,1,4.11-3.74,14,14,0,0,1,6.07-1.48,21.94,21.94,0,0,1,7,1,24.57,24.57,0,0,1,5.16,2.41Z"/><path class="cls-1" d="M107.49,327.26a13.79,13.79,0,0,1-6.7-1.54,10.51,10.51,0,0,1-4.32-4.24,12.66,12.66,0,0,1-1.48-6.2,11.27,11.27,0,0,1,1.69-6.1,12.44,12.44,0,0,1,4.59-4.31,12.8,12.8,0,0,1,6.38-1.62,11,11,0,0,1,7.61,2.68,13.42,13.42,0,0,1,4,7.55l-18.07,6.09-1.33-3.34,14-5-1.17.74a6.78,6.78,0,0,0-1.91-2.83,5.23,5.23,0,0,0-3.65-1.2,6,6,0,0,0-3.29.9,6.39,6.39,0,0,0-2.25,2.47,7.65,7.65,0,0,0-.82,3.63,7.74,7.74,0,0,0,.9,3.89,6.42,6.42,0,0,0,2.43,2.5,7,7,0,0,0,3.5.87,7.45,7.45,0,0,0,2.65-.48,10,10,0,0,0,2.39-1.27l2.7,4.4a16.85,16.85,0,0,1-3.84,1.78A13.5,13.5,0,0,1,107.49,327.26Z"/><path class="cls-1" d="M130.44,304.26l.53,4.55-.21-.37a10.15,10.15,0,0,1,3.5-3.81,9.17,9.17,0,0,1,5-1.38,9,9,0,0,1,3.34.56,6.09,6.09,0,0,1,2.41,1.64,5.11,5.11,0,0,1,1.25,2.68l-.21.15a9.91,9.91,0,0,1,3.49-3.71,8.85,8.85,0,0,1,4.67-1.32,7.28,7.28,0,0,1,5.19,1.85,6.6,6.6,0,0,1,2,4.88v16.7h-5.89V312.31a5.62,5.62,0,0,0-.69-2.73,2.72,2.72,0,0,0-2.38-1.19,4.89,4.89,0,0,0-3.29,1.19,7.93,7.93,0,0,0-2.14,3.08,10.8,10.8,0,0,0-.82,3.94v10.08H140.3V312.31a5.41,5.41,0,0,0-.74-2.73,2.89,2.89,0,0,0-2.44-1.19,4.8,4.8,0,0,0-3.23,1.19,7.55,7.55,0,0,0-2.1,3.08,11.3,11.3,0,0,0-.71,4v10h-5.94V304.26Z"/><path class="cls-1" d="M187.36,337.49l-3.44-3.71a8.39,8.39,0,0,0,2.36-3,10,10,0,0,0,.87-4.32v-22.2h5.94v22.47a14.35,14.35,0,0,1-1.33,6.54A9.7,9.7,0,0,1,187.36,337.49Zm-.53-41.34a2.83,2.83,0,0,1,1.06-2.23,3.55,3.55,0,0,1,2.34-.9,3.43,3.43,0,0,1,2.3.9,2.89,2.89,0,0,1,1,2.28,2.84,2.84,0,0,1-1,2.23,3.43,3.43,0,0,1-2.3.9,3.55,3.55,0,0,1-2.34-.9A2.88,2.88,0,0,1,186.83,296.15Z"/><path class="cls-1" d="M208.24,327.63a7,7,0,0,1-5-1.88,6.72,6.72,0,0,1-2.1-4.85V304.26h5.94v14.46a4.43,4.43,0,0,0,.9,2.79,3.29,3.29,0,0,0,2.7,1,4.77,4.77,0,0,0,3.1-1.09,7.38,7.38,0,0,0,2.15-3,11,11,0,0,0,.79-4.29v-9.91h5.94v22.42h-5.35l-.48-4.93.16.74a8.21,8.21,0,0,1-2,2.7,9,9,0,0,1-3,1.8A10.66,10.66,0,0,1,208.24,327.63Z"/><path class="cls-1" d="M236.18,304.26l.58,6.36-.16-.9a8.92,8.92,0,0,1,2.54-3.45,15.07,15.07,0,0,1,3.45-2.23,7.36,7.36,0,0,1,2.91-.79l-.37,5.93a7.13,7.13,0,0,0-4.37.91,7.74,7.74,0,0,0-2.91,3,8.1,8.1,0,0,0-1,3.95v9.65h-5.88V304.26Z"/><path class="cls-1" d="M248.68,315.23a11.64,11.64,0,0,1,1.62-6.1,11.78,11.78,0,0,1,4.48-4.29,13.31,13.31,0,0,1,6.57-1.59,12.85,12.85,0,0,1,6.49,1.59,11.27,11.27,0,0,1,4.32,4.29,12,12,0,0,1,1.54,6,12.32,12.32,0,0,1-1.54,6.18,11.21,11.21,0,0,1-4.32,4.32,13.17,13.17,0,0,1-6.65,1.59,13.91,13.91,0,0,1-6.44-1.46,10.89,10.89,0,0,1-4.45-4.16A12.23,12.23,0,0,1,248.68,315.23Zm6,0a7.48,7.48,0,0,0,.85,3.6,6.85,6.85,0,0,0,2.31,2.55,5.94,5.94,0,0,0,3.31.95,6.16,6.16,0,0,0,3.42-.95,6.82,6.82,0,0,0,2.3-2.55,8,8,0,0,0,0-7.2,6.82,6.82,0,0,0-2.3-2.55,6.4,6.4,0,0,0-6.71,0,6.8,6.8,0,0,0-2.33,2.57A7.54,7.54,0,0,0,254.67,315.28Z"/><path class="cls-1" d="M286.68,327.15a13.16,13.16,0,0,1-4.84-.9,10,10,0,0,1-3.85-2.6l2.49-3.39a11.71,11.71,0,0,0,2.95,2.07,6.47,6.47,0,0,0,2.78.69,6.54,6.54,0,0,0,1.83-.24,2.72,2.72,0,0,0,1.29-.77,2,2,0,0,0,.48-1.38,2.07,2.07,0,0,0-.71-1.69,6,6,0,0,0-1.89-1c-.77-.27-1.59-.54-2.43-.82a8.8,8.8,0,0,1-4.35-2.66A6.25,6.25,0,0,1,279,310.4a6.91,6.91,0,0,1,3.63-6,9.44,9.44,0,0,1,4.69-1,15,15,0,0,1,4.4.59,11,11,0,0,1,3.55,1.85L293,309.4a7.15,7.15,0,0,0-2.25-1.43,7.28,7.28,0,0,0-2.36-.59,3.85,3.85,0,0,0-1.7.27,3.45,3.45,0,0,0-1.21.82,1.67,1.67,0,0,0-.48,1.19,1.92,1.92,0,0,0,.74,1.7,6.08,6.08,0,0,0,2,1c.83.24,1.63.51,2.41.79a12.64,12.64,0,0,1,2.89,1.32,6.29,6.29,0,0,1,2,2,5.64,5.64,0,0,1,.74,3,7.44,7.44,0,0,1-1,3.76,7.53,7.53,0,0,1-3,2.84A10.68,10.68,0,0,1,286.68,327.15Z"/><path class="cls-1" d="M307.51,322.06q-1.15,2.76-2.3,5.52t-2.31,5.51h-4.77q1.06-2.76,2.07-5.51t2.07-5.52Z"/><path class="cls-1" d="M343.76,327.26a10.67,10.67,0,0,1-4.55-1,8.7,8.7,0,0,1-3.45-2.75l.32-1.81v15.74H330.2v-33.6h5l.9,5.14-.63-1.53a15.39,15.39,0,0,1,4.08-3,11.52,11.52,0,0,1,5.3-1.19,11,11,0,0,1,5.69,1.48,10.37,10.37,0,0,1,3.95,4.19,13.58,13.58,0,0,1,1.43,6.47,12.15,12.15,0,0,1-1.59,6.36,10.8,10.8,0,0,1-4.34,4.08A13.43,13.43,0,0,1,343.76,327.26Zm-1.16-4.72a7.52,7.52,0,0,0,3.66-.9,7,7,0,0,0,2.62-2.52,6.86,6.86,0,0,0,1-3.63,7.32,7.32,0,0,0-.93-3.73,6.93,6.93,0,0,0-2.49-2.55,6.66,6.66,0,0,0-3.47-.93,7.61,7.61,0,0,0-3.05.59,6.57,6.57,0,0,0-2.33,1.67,7,7,0,0,0-1.46,2.57v4.5a6.1,6.1,0,0,0,1.22,2.55,6.33,6.33,0,0,0,2.28,1.75A7.07,7.07,0,0,0,342.6,322.54Z"/><path class="cls-1" d="M371.64,327.26a12.27,12.27,0,0,1-5.75-1.33,9.69,9.69,0,0,1-4.05-3.95,14.64,14.64,0,0,1,.08-13,11.17,11.17,0,0,1,4.13-4.22,11,11,0,0,1,5.59-1.48,9.42,9.42,0,0,1,5.2,1.27,10.73,10.73,0,0,1,3.12,3l-.32.85.59-4.13h5.51v22.42h-6v-5.46l.58,1.43a12.8,12.8,0,0,1-.82,1,10.11,10.11,0,0,1-1.75,1.56,11,11,0,0,1-2.65,1.44A9.74,9.74,0,0,1,371.64,327.26Zm1.64-4.88a7.48,7.48,0,0,0,2.92-.55,5.89,5.89,0,0,0,2.23-1.65,6.89,6.89,0,0,0,1.32-2.57v-4.87a6.07,6.07,0,0,0-1.4-2.42,7.21,7.21,0,0,0-5.28-2.19,6.6,6.6,0,0,0-5.83,3.39,7.29,7.29,0,0,0-.9,3.65,7.09,7.09,0,0,0,1,3.66,7.2,7.2,0,0,0,2.51,2.6A6.61,6.61,0,0,0,373.28,322.38Z"/><path class="cls-1" d="M399.2,304.26l.58,6.36-.16-.9a9,9,0,0,1,2.55-3.45,15.24,15.24,0,0,1,3.44-2.23,7.4,7.4,0,0,1,2.92-.79l-.37,5.93a7.13,7.13,0,0,0-4.37.91,7.76,7.76,0,0,0-2.92,3,8.09,8.09,0,0,0-1,3.95v9.65H394V304.26Z"/><path class="cls-1" d="M432.17,324.66a12.55,12.55,0,0,1-3.69,1.88,13.5,13.5,0,0,1-4.32.72,14.13,14.13,0,0,1-6.54-1.46,10.45,10.45,0,0,1-4.37-4.08,12.16,12.16,0,0,1-1.54-6.28,11.19,11.19,0,0,1,6.07-10.34,12.24,12.24,0,0,1,5.75-1.43,15.11,15.11,0,0,1,5,.77,11.26,11.26,0,0,1,3.71,2.1l-2.86,3.86a11.62,11.62,0,0,0-2.25-1.29,7.43,7.43,0,0,0-3.1-.61,5.91,5.91,0,0,0-3.21.92,6.91,6.91,0,0,0-2.33,2.47,7.07,7.07,0,0,0-.87,3.55,7,7,0,0,0,.9,3.5,6.66,6.66,0,0,0,2.46,2.51,7,7,0,0,0,3.63.93,7.23,7.23,0,0,0,2.49-.4,7.4,7.4,0,0,0,2-1.08Z"/><path class="cls-1" d="M448.86,327.26a13.79,13.79,0,0,1-6.7-1.54,10.51,10.51,0,0,1-4.32-4.24,12.67,12.67,0,0,1-1.49-6.2,11.28,11.28,0,0,1,1.7-6.1,12.49,12.49,0,0,1,4.58-4.31,12.86,12.86,0,0,1,6.39-1.62,11,11,0,0,1,7.61,2.68,13.42,13.42,0,0,1,4,7.55l-18.08,6.09-1.32-3.34,14-5-1.17.74a6.88,6.88,0,0,0-1.91-2.83,5.24,5.24,0,0,0-3.66-1.2,6,6,0,0,0-3.28.9,6.31,6.31,0,0,0-2.25,2.47,7.65,7.65,0,0,0-.83,3.63,7.85,7.85,0,0,0,.9,3.89,6.52,6.52,0,0,0,2.44,2.5,7,7,0,0,0,3.5.87,7.45,7.45,0,0,0,2.65-.48,10.17,10.17,0,0,0,2.39-1.27l2.7,4.4a16.85,16.85,0,0,1-3.84,1.78A13.5,13.5,0,0,1,448.86,327.26Z"/><path class="cls-1" d="M466.51,285.34h5.94v41.34h-5.94Z"/><path class="cls-1" d="M490,327.26a12.27,12.27,0,0,1-5.75-1.33,9.65,9.65,0,0,1-4.06-3.95,14.72,14.72,0,0,1,.08-13,11.12,11.12,0,0,1,4.14-4.22,11,11,0,0,1,5.59-1.48,9.41,9.41,0,0,1,5.19,1.27,10.77,10.77,0,0,1,3.13,3l-.32.85.58-4.13h5.52v22.42h-6v-5.46l.58,1.43c-.14.21-.42.55-.82,1a10.5,10.5,0,0,1-1.75,1.56,11,11,0,0,1-2.65,1.44A9.78,9.78,0,0,1,490,327.26Zm1.64-4.88a7.52,7.52,0,0,0,2.92-.55,5.78,5.78,0,0,0,2.22-1.65,7.06,7.06,0,0,0,1.33-2.57v-4.87a6.09,6.09,0,0,0-1.41-2.42,7.09,7.09,0,0,0-2.33-1.61,7.31,7.31,0,0,0-2.94-.58,6.6,6.6,0,0,0-5.83,3.39,7.29,7.29,0,0,0-.9,3.65,7.18,7.18,0,0,0,.95,3.66,7.31,7.31,0,0,0,2.52,2.6A6.58,6.58,0,0,0,491.63,322.38Z"/><path class="cls-1" d="M521.42,327.26a10.91,10.91,0,0,1-5.65-1.49,10.26,10.26,0,0,1-3.95-4.24,13.74,13.74,0,0,1-1.43-6.41,12.69,12.69,0,0,1,1.54-6.44,10.14,10.14,0,0,1,4.21-4.05,13,13,0,0,1,6-1.38,12,12,0,0,1,4.66.93,8.38,8.38,0,0,1,3.55,2.67l-.1,2V285.34h5.88v41.34h-5.94v-5l.59,1.43a14.82,14.82,0,0,1-4,3A11.67,11.67,0,0,1,521.42,327.26Zm1.9-5.09a8.17,8.17,0,0,0,3.11-.56,6.34,6.34,0,0,0,2.33-1.64,6.85,6.85,0,0,0,1.45-2.57v-4.72a6.26,6.26,0,0,0-1.4-2.49,7.08,7.08,0,0,0-2.41-1.67,7.87,7.87,0,0,0-3.08-.61,6.68,6.68,0,0,0-3.47.93,7.13,7.13,0,0,0-2.51,2.52,6.93,6.93,0,0,0-1,3.65,7.09,7.09,0,0,0,1,3.66,6.89,6.89,0,0,0,2.51,2.57A6.68,6.68,0,0,0,523.32,322.17Z"/><path class="cls-1" d="M542.46,315.23a11.54,11.54,0,0,1,6.09-10.39,13.31,13.31,0,0,1,6.57-1.59,12.88,12.88,0,0,1,6.5,1.59,11.41,11.41,0,0,1,4.32,4.29,12.05,12.05,0,0,1,1.53,6,12.42,12.42,0,0,1-1.53,6.18,11.35,11.35,0,0,1-4.32,4.32,13.22,13.22,0,0,1-6.65,1.59,13.88,13.88,0,0,1-6.44-1.46,10.91,10.91,0,0,1-4.46-4.16A12.33,12.33,0,0,1,542.46,315.23Zm6,0a7.59,7.59,0,0,0,.84,3.6,6.93,6.93,0,0,0,2.31,2.55,5.94,5.94,0,0,0,3.31.95,6.14,6.14,0,0,0,3.42-.95,6.93,6.93,0,0,0,2.31-2.55,8.13,8.13,0,0,0,0-7.2,6.93,6.93,0,0,0-2.31-2.55,6.38,6.38,0,0,0-6.7,0,6.82,6.82,0,0,0-2.34,2.57A7.65,7.65,0,0,0,548.45,315.28Z"/><path class="cls-1" d="M596,304.26l.53,4.82-.16-.64a8.65,8.65,0,0,1,3.42-3.73,10.33,10.33,0,0,1,5.49-1.41,7.55,7.55,0,0,1,5.22,1.88,6.35,6.35,0,0,1,2.14,4.8v16.7h-5.93V312.15a4.25,4.25,0,0,0-1-2.73,3.71,3.71,0,0,0-2.86-1.08,5.34,5.34,0,0,0-3.26,1.08,6.86,6.86,0,0,0-2.22,3,11.37,11.37,0,0,0-.77,4.37v9.92h-5.94V304.26Z"/><path class="cls-1" d="M619,315.23a11.59,11.59,0,0,1,6.09-10.39,13.31,13.31,0,0,1,6.57-1.59,12.88,12.88,0,0,1,6.5,1.59,11.41,11.41,0,0,1,4.32,4.29,12.05,12.05,0,0,1,1.53,6,12.42,12.42,0,0,1-1.53,6.18,11.35,11.35,0,0,1-4.32,4.32,13.22,13.22,0,0,1-6.65,1.59,13.88,13.88,0,0,1-6.44-1.46,10.82,10.82,0,0,1-4.45-4.16A12.23,12.23,0,0,1,619,315.23Zm6,0a7.48,7.48,0,0,0,.85,3.6,6.82,6.82,0,0,0,2.3,2.55,6,6,0,0,0,3.31.95,6.14,6.14,0,0,0,3.42-.95,6.93,6.93,0,0,0,2.31-2.55,8,8,0,0,0,0-7.2,6.93,6.93,0,0,0-2.31-2.55,6.38,6.38,0,0,0-6.7,0,6.72,6.72,0,0,0-2.33,2.57A7.54,7.54,0,0,0,625,315.28Z"/><path class="cls-1" d="M685.82,324.66a12.37,12.37,0,0,1-3.68,1.88,13.5,13.5,0,0,1-4.32.72,14.14,14.14,0,0,1-6.55-1.46,10.45,10.45,0,0,1-4.37-4.08,12.16,12.16,0,0,1-1.54-6.28,11.19,11.19,0,0,1,6.07-10.34,12.27,12.27,0,0,1,5.75-1.43,15.17,15.17,0,0,1,5,.77,11.36,11.36,0,0,1,3.71,2.1l-2.86,3.86a12,12,0,0,0-2.26-1.29,7.39,7.39,0,0,0-3.1-.61,5.91,5.91,0,0,0-3.2.92,6.93,6.93,0,0,0-2.34,2.47,7.07,7.07,0,0,0-.87,3.55,7,7,0,0,0,.9,3.5,6.66,6.66,0,0,0,2.46,2.51,7,7,0,0,0,3.64.93,7.31,7.31,0,0,0,2.49-.4,7.2,7.2,0,0,0,2-1.08Z"/><path class="cls-1" d="M701.3,327.26a12.27,12.27,0,0,1-5.75-1.33,9.65,9.65,0,0,1-4.06-3.95,14.72,14.72,0,0,1,.08-13,11.12,11.12,0,0,1,4.14-4.22,11,11,0,0,1,5.59-1.48,9.41,9.41,0,0,1,5.19,1.27,10.77,10.77,0,0,1,3.13,3l-.32.85.58-4.13h5.52v22.42h-6v-5.46l.58,1.43c-.14.21-.42.55-.82,1a10.5,10.5,0,0,1-1.75,1.56,11,11,0,0,1-2.65,1.44A9.82,9.82,0,0,1,701.3,327.26Zm1.64-4.88a7.52,7.52,0,0,0,2.92-.55,5.78,5.78,0,0,0,2.22-1.65,7.06,7.06,0,0,0,1.33-2.57v-4.87a6.21,6.21,0,0,0-1.41-2.42,7.09,7.09,0,0,0-2.33-1.61,7.31,7.31,0,0,0-2.94-.58,6.6,6.6,0,0,0-5.83,3.39,7.29,7.29,0,0,0-.9,3.65,7.18,7.18,0,0,0,1,3.66,7.31,7.31,0,0,0,2.52,2.6A6.58,6.58,0,0,0,702.94,322.38Z"/><path class="cls-1" d="M728.86,304.26l.58,6.36-.16-.9a9,9,0,0,1,2.54-3.45,15.07,15.07,0,0,1,3.45-2.23,7.4,7.4,0,0,1,2.91-.79l-.37,5.93a7.14,7.14,0,0,0-4.37.91,7.74,7.74,0,0,0-2.91,3,8.1,8.1,0,0,0-1,3.95v9.65h-5.88V304.26Z"/><path class="cls-1" d="M746.4,294.4h5.94v9.86h5.82v4.61h-5.82v17.81H746.4V308.87h-3.87v-4.61h3.87Z"/><path class="cls-1" d="M773.43,327.26a12.27,12.27,0,0,1-5.75-1.33,9.65,9.65,0,0,1-4.06-3.95,14.72,14.72,0,0,1,.08-13,11.12,11.12,0,0,1,4.14-4.22,11,11,0,0,1,5.59-1.48,9.38,9.38,0,0,1,5.19,1.27,10.77,10.77,0,0,1,3.13,3l-.32.85.58-4.13h5.52v22.42h-6v-5.46l.58,1.43c-.14.21-.42.55-.82,1a10.5,10.5,0,0,1-1.75,1.56,11,11,0,0,1-2.65,1.44A9.78,9.78,0,0,1,773.43,327.26Zm7.26-25.87a5.08,5.08,0,0,1-2.86-.76,23.83,23.83,0,0,1-2.12-1.57,11.08,11.08,0,0,0-1.19-1,2.24,2.24,0,0,0-1.36-.45,1.56,1.56,0,0,0-1.14.53,2.71,2.71,0,0,0-.66,1.38,10.87,10.87,0,0,0-.16,1.9l-3-.05a8,8,0,0,1,.35-3.79,5.92,5.92,0,0,1,1.88-2.75,4.71,4.71,0,0,1,3.07-1,4.05,4.05,0,0,1,2.41.74,20,20,0,0,1,1.89,1.54c.49.46,1,.87,1.37,1.22a2.2,2.2,0,0,0,1.43.53,1.39,1.39,0,0,0,1.36-1.17,10.33,10.33,0,0,0,.34-2.81h3.07a8.17,8.17,0,0,1-.29,4,6,6,0,0,1-1.75,2.65A3.93,3.93,0,0,1,780.69,301.39Zm-5.62,21a7.52,7.52,0,0,0,2.92-.55,5.78,5.78,0,0,0,2.22-1.65,7.06,7.06,0,0,0,1.33-2.57v-4.87a6.09,6.09,0,0,0-1.41-2.42,7.09,7.09,0,0,0-2.33-1.61,7.31,7.31,0,0,0-2.94-.58,6.6,6.6,0,0,0-5.83,3.39,7.29,7.29,0,0,0-.9,3.65,7.18,7.18,0,0,0,1,3.66,7.31,7.31,0,0,0,2.52,2.6A6.58,6.58,0,0,0,775.07,322.38Z"/><path class="cls-1" d="M793.83,315.23a11.64,11.64,0,0,1,1.62-6.1,11.78,11.78,0,0,1,4.48-4.29,13.31,13.31,0,0,1,6.57-1.59,12.85,12.85,0,0,1,6.49,1.59,11.27,11.27,0,0,1,4.32,4.29,12,12,0,0,1,1.54,6,12.32,12.32,0,0,1-1.54,6.18,11.21,11.21,0,0,1-4.32,4.32,13.17,13.17,0,0,1-6.65,1.59,13.91,13.91,0,0,1-6.44-1.46,10.89,10.89,0,0,1-4.45-4.16A12.23,12.23,0,0,1,793.83,315.23Zm6,0a7.48,7.48,0,0,0,.85,3.6,6.85,6.85,0,0,0,2.31,2.55,5.94,5.94,0,0,0,3.31.95,6.19,6.19,0,0,0,3.42-.95,6.82,6.82,0,0,0,2.3-2.55,8,8,0,0,0,0-7.2,6.82,6.82,0,0,0-2.3-2.55,6.4,6.4,0,0,0-6.71,0,6.8,6.8,0,0,0-2.33,2.57A7.54,7.54,0,0,0,799.82,315.28Z"/><path class="cls-1" d="M76.87,382.21a10,10,0,0,1-5.22-1.37A9.51,9.51,0,0,1,68,376.92,12.73,12.73,0,0,1,66.67,371,11.83,11.83,0,0,1,68.09,365a9.39,9.39,0,0,1,3.9-3.75A12,12,0,0,1,77.55,360a11.18,11.18,0,0,1,4.32.86,7.83,7.83,0,0,1,3.28,2.47l-.1,1.87V343.44h5.44v38.24H85V377l.54,1.32a13.43,13.43,0,0,1-3.72,2.77A10.67,10.67,0,0,1,76.87,382.21Zm1.76-4.7A7.38,7.38,0,0,0,81.5,377a5.82,5.82,0,0,0,2.15-1.52A6.25,6.25,0,0,0,85,373.1v-4.36a5.68,5.68,0,0,0-1.3-2.31,6.27,6.27,0,0,0-2.23-1.54,7.1,7.1,0,0,0-2.84-.57,6.17,6.17,0,0,0-3.21.86,6.67,6.67,0,0,0-2.33,2.33,6.43,6.43,0,0,0-.88,3.38,6.58,6.58,0,0,0,.88,3.38,6.49,6.49,0,0,0,2.33,2.38A6.17,6.17,0,0,0,78.63,377.51Z"/><path class="cls-1" d="M107.89,382.21a12.82,12.82,0,0,1-6.2-1.42,9.61,9.61,0,0,1-4-3.92,11.65,11.65,0,0,1-1.38-5.73,10.46,10.46,0,0,1,1.57-5.64,11.54,11.54,0,0,1,4.24-4A11.86,11.86,0,0,1,108,360a10.15,10.15,0,0,1,7,2.48,12.38,12.38,0,0,1,3.7,7l-16.71,5.64L100.83,372l13-4.66-1.08.69a6.37,6.37,0,0,0-1.76-2.62,4.87,4.87,0,0,0-3.38-1.11,5.53,5.53,0,0,0-3,.84,5.74,5.74,0,0,0-2.08,2.28,7,7,0,0,0-.76,3.35,7.27,7.27,0,0,0,.83,3.61,5.93,5.93,0,0,0,2.25,2.3,6.44,6.44,0,0,0,3.24.81,7,7,0,0,0,2.45-.44,9.72,9.72,0,0,0,2.2-1.18l2.5,4.07a14.77,14.77,0,0,1-3.55,1.64A12.34,12.34,0,0,1,107.89,382.21Z"/><path class="cls-1" d="M157.05,379.81a11.63,11.63,0,0,1-3.41,1.74,12.55,12.55,0,0,1-4,.66,13.12,13.12,0,0,1-6.05-1.34,9.74,9.74,0,0,1-4-3.78,11.27,11.27,0,0,1-1.42-5.81,10.31,10.31,0,0,1,5.61-9.55,11.37,11.37,0,0,1,5.32-1.33,14.09,14.09,0,0,1,4.66.71,10.69,10.69,0,0,1,3.43,1.94l-2.65,3.58a10,10,0,0,0-2.08-1.2,6.87,6.87,0,0,0-2.87-.57,5.39,5.39,0,0,0-3,.86,6.39,6.39,0,0,0-2.16,2.28,6.89,6.89,0,0,0,0,6.52,6.29,6.29,0,0,0,2.28,2.33,6.51,6.51,0,0,0,3.36.86,6.67,6.67,0,0,0,4.17-1.38Z"/><path class="cls-1" d="M167.54,360.94l.54,5.88-.15-.83a8.47,8.47,0,0,1,2.35-3.19,14,14,0,0,1,3.19-2.05,6.89,6.89,0,0,1,2.69-.74l-.34,5.49a6.67,6.67,0,0,0-4,.83,7.25,7.25,0,0,0-2.7,2.77,7.57,7.57,0,0,0-1,3.66v8.92h-5.44V360.94Z"/><path class="cls-1" d="M190.67,382.21a12.82,12.82,0,0,1-6.2-1.42,9.61,9.61,0,0,1-4-3.92,11.65,11.65,0,0,1-1.37-5.73,10.45,10.45,0,0,1,1.56-5.64,11.54,11.54,0,0,1,4.24-4,11.88,11.88,0,0,1,5.91-1.5,10.15,10.15,0,0,1,7,2.48,12.38,12.38,0,0,1,3.7,7l-16.71,5.64L183.61,372l13-4.66-1.07.69a6.3,6.3,0,0,0-1.77-2.62,4.85,4.85,0,0,0-3.38-1.11,5.56,5.56,0,0,0-3,.84,5.74,5.74,0,0,0-2.08,2.28,7,7,0,0,0-.76,3.35,7.38,7.38,0,0,0,.83,3.61,6,6,0,0,0,2.26,2.3,6.38,6.38,0,0,0,3.23.81,7,7,0,0,0,2.45-.44,9.78,9.78,0,0,0,2.21-1.18L198,380a15,15,0,0,1-3.56,1.64A12.34,12.34,0,0,1,190.67,382.21Zm6.18-31.61-6.62,6.62h-3.48l4-6.62Z"/><path class="cls-1" d="M215.42,382.21a10.08,10.08,0,0,1-5.22-1.37,9.49,9.49,0,0,1-3.65-3.92,12.73,12.73,0,0,1-1.32-5.93,11.72,11.72,0,0,1,1.42-5.95,9.39,9.39,0,0,1,3.9-3.75,12,12,0,0,1,5.56-1.28,11.13,11.13,0,0,1,4.31.86,7.8,7.8,0,0,1,3.29,2.47l-.1,1.87V343.44h5.44v38.24h-5.49V377l.54,1.32a13.48,13.48,0,0,1-3.73,2.77A10.62,10.62,0,0,1,215.42,382.21Zm1.77-4.7a7.38,7.38,0,0,0,2.87-.52,5.82,5.82,0,0,0,2.15-1.52,6.25,6.25,0,0,0,1.35-2.37v-4.36a5.8,5.8,0,0,0-1.3-2.31,6.36,6.36,0,0,0-2.23-1.54,7.1,7.1,0,0,0-2.84-.57,6.17,6.17,0,0,0-3.21.86,6.58,6.58,0,0,0-2.33,2.33,6.43,6.43,0,0,0-.88,3.38,6.58,6.58,0,0,0,.88,3.38,6.42,6.42,0,0,0,2.33,2.38A6.17,6.17,0,0,0,217.19,377.51Z"/><path class="cls-1" d="M236.4,353.44a2.59,2.59,0,0,1,1-2.05,3.23,3.23,0,0,1,2.16-.84,3.16,3.16,0,0,1,2.13.84,2.65,2.65,0,0,1,1,2.1,2.61,2.61,0,0,1-1,2.06,3.15,3.15,0,0,1-2.13.83,3.22,3.22,0,0,1-2.16-.83A2.65,2.65,0,0,1,236.4,353.44Zm.25,7.5h5.49v20.74h-5.49Z"/><path class="cls-1" d="M251.64,351.83h5.49v9.11h5.39v4.27h-5.39v16.47h-5.49V365.21h-3.57v-4.27h3.57Z"/><path class="cls-1" d="M266.2,371.09a10.72,10.72,0,0,1,5.64-9.61,12.29,12.29,0,0,1,6.07-1.47,11.92,11.92,0,0,1,6,1.47,10.56,10.56,0,0,1,4,4,11.09,11.09,0,0,1,1.42,5.59,11.41,11.41,0,0,1-1.42,5.71,10.47,10.47,0,0,1-4,4,12.22,12.22,0,0,1-6.15,1.47,12.94,12.94,0,0,1-6-1.34A10,10,0,0,1,267.7,377,11.31,11.31,0,0,1,266.2,371.09Zm5.54.05a7,7,0,0,0,.78,3.33,6.36,6.36,0,0,0,2.13,2.35,5.47,5.47,0,0,0,3.07.89,5.63,5.63,0,0,0,3.16-.89,6.27,6.27,0,0,0,2.13-2.35,7.43,7.43,0,0,0,0-6.67,6.27,6.27,0,0,0-2.13-2.35,5.9,5.9,0,0,0-6.2,0,6.13,6.13,0,0,0-2.16,2.38A7.06,7.06,0,0,0,271.74,371.14Z"/><path class="cls-1" d="M299.87,377.41q-1.08,2.55-2.13,5.1t-2.13,5.1H291.2q1-2.55,1.91-5.1c.62-1.7,1.25-3.4,1.91-5.1Z"/><path class="cls-1" d="M319.08,371.09a10.77,10.77,0,0,1,1.5-5.64,10.9,10.9,0,0,1,4.14-4A12.32,12.32,0,0,1,330.8,360a11.88,11.88,0,0,1,6,1.47,10.52,10.52,0,0,1,4,4,11.2,11.2,0,0,1,1.42,5.59,11.52,11.52,0,0,1-1.42,5.71,10.43,10.43,0,0,1-4,4,12.17,12.17,0,0,1-6.15,1.47,12.9,12.9,0,0,1-5.95-1.34,10.07,10.07,0,0,1-4.12-3.85A11.31,11.31,0,0,1,319.08,371.09Zm5.54.05a6.88,6.88,0,0,0,.79,3.33,6.27,6.27,0,0,0,2.13,2.35,5.46,5.46,0,0,0,3.06.89,5.63,5.63,0,0,0,3.16-.89,6.38,6.38,0,0,0,2.14-2.35,7.52,7.52,0,0,0,0-6.67,6.38,6.38,0,0,0-2.14-2.35,5.52,5.52,0,0,0-3.11-.88,5.6,5.6,0,0,0-3.09.88,6.18,6.18,0,0,0-2.15,2.38A6.94,6.94,0,0,0,324.62,371.14Z"/><path class="cls-1" d="M354.62,382.56a6.46,6.46,0,0,1-4.63-1.74,6.2,6.2,0,0,1-1.94-4.49V360.94h5.49v13.38a4.16,4.16,0,0,0,.83,2.58,3.09,3.09,0,0,0,2.5,1,4.44,4.44,0,0,0,2.87-1,6.92,6.92,0,0,0,2-2.77,10.44,10.44,0,0,0,.73-4v-9.17H368v20.74H363l-.44-4.56.14.68a7.39,7.39,0,0,1-1.81,2.5,8.31,8.31,0,0,1-2.74,1.67A10.09,10.09,0,0,1,354.62,382.56Z"/><path class="cls-1" d="M402.45,346a17.5,17.5,0,0,1,5.37.79A12.25,12.25,0,0,1,412,349a9.58,9.58,0,0,1,2.67,3.55,12.07,12.07,0,0,1,.93,4.9,14.36,14.36,0,0,1-.64,4.22,10.65,10.65,0,0,1-2.08,3.82,10.36,10.36,0,0,1-3.8,2.75,14.55,14.55,0,0,1-5.78,1h-5.2v12.41h-5.73V346Zm.74,17.75a7.52,7.52,0,0,0,3.14-.59,5.35,5.35,0,0,0,2-1.52,6.06,6.06,0,0,0,1.05-2,6.92,6.92,0,0,0,.32-2,7.17,7.17,0,0,0-.3-1.94,6.29,6.29,0,0,0-1-2,5.3,5.3,0,0,0-1.94-1.59,6.82,6.82,0,0,0-3.09-.62h-5.29v12.26Zm6.17,3.48,9.12,14.46h-6.66l-9.27-14.32Z"/><path class="cls-1" d="M443.92,353.3a24.67,24.67,0,0,0-4.07-1.74,13,13,0,0,0-4.12-.71,6.66,6.66,0,0,0-4.16,1.17,3.87,3.87,0,0,0-1.52,3.24,3.6,3.6,0,0,0,1.05,2.57,9.27,9.27,0,0,0,2.72,1.91c1.11.54,2.29,1.06,3.53,1.55a27,27,0,0,1,3.19,1.39,14.2,14.2,0,0,1,2.86,2,8,8,0,0,1,2.06,2.94,10.93,10.93,0,0,1,.76,4.29,9.59,9.59,0,0,1-1.39,5.12,10.16,10.16,0,0,1-4.1,3.68,13.79,13.79,0,0,1-6.42,1.4,19.87,19.87,0,0,1-4.38-.49,22.88,22.88,0,0,1-4.05-1.33,18.23,18.23,0,0,1-3.53-2l2.55-4.41a16.21,16.21,0,0,0,2.7,1.62,18.91,18.91,0,0,0,3.11,1.18,11.6,11.6,0,0,0,3.06.44,9.36,9.36,0,0,0,3-.52,5.57,5.57,0,0,0,2.52-1.64,4.48,4.48,0,0,0,1-3,3.86,3.86,0,0,0-.88-2.57,8.56,8.56,0,0,0-2.28-1.86,21.68,21.68,0,0,0-3.06-1.45c-1.08-.42-2.21-.9-3.38-1.42a15.43,15.43,0,0,1-3.26-1.94,8.49,8.49,0,0,1-2.38-2.81,8.59,8.59,0,0,1-.88-4.07,9.68,9.68,0,0,1,1.32-5.12,9.26,9.26,0,0,1,3.8-3.46,12.9,12.9,0,0,1,5.61-1.37,20.36,20.36,0,0,1,6.45.9,22.84,22.84,0,0,1,4.77,2.23ZM432.5,385V363.64l1.37-1.91V342.66h3.33v20l-1.37,2.45V385Z"/><path class="cls-1" d="M448.67,374.13v-.05l20.05-25.15h0v20.88h4.12v4.32h-4.12v7.55h-5.69v-7.55Zm14.71-12.5-6.47,8.43-.74-.25h6.91v-8.87Z"/><path class="cls-1" d="M476.93,376.55a2.77,2.77,0,0,1,4,0,2.81,2.81,0,0,1,.94,2.13,2.76,2.76,0,0,1-.94,2.19,2.86,2.86,0,0,1-4,0,2.77,2.77,0,0,1-.91-2.19A2.82,2.82,0,0,1,476.93,376.55Z"/><path class="cls-1" d="M485.09,367.05a10,10,0,0,1,2.35-3,12.35,12.35,0,0,1,2.75-1.86,8.68,8.68,0,0,1-2.18-2.31,6.23,6.23,0,0,1-.86-3.48,6.62,6.62,0,0,1,1.15-3.87,7.87,7.87,0,0,1,3.16-2.62,11,11,0,0,1,9,0,8.35,8.35,0,0,1,3.19,2.57,6.2,6.2,0,0,1,1.17,3.73,6.5,6.5,0,0,1-.88,3.63,9.8,9.8,0,0,1-2.25,2.35,16,16,0,0,1,2.77,1.93,10.24,10.24,0,0,1,2.35,3,9.1,9.1,0,0,1,1,4.26,9.42,9.42,0,0,1-1.57,5.22,11.92,11.92,0,0,1-4.23,3.95,12.82,12.82,0,0,1-12.11,0,11.41,11.41,0,0,1-4.17-3.95,9.84,9.84,0,0,1-1.49-5.22A9.27,9.27,0,0,1,485.09,367.05Zm5.71,7.17a6,6,0,0,0,2.16,2.24,5.69,5.69,0,0,0,3,.8,6,6,0,0,0,3-.8,6.18,6.18,0,0,0,3.06-5.37,5.84,5.84,0,0,0-.79-3,6.18,6.18,0,0,0-2.1-2.21,5.85,5.85,0,0,0-3-.88,5.76,5.76,0,0,0-3,.81,6.73,6.73,0,0,0-2.26,2.18,5.58,5.58,0,0,0-.88,3.09A6.19,6.19,0,0,0,490.8,374.22Zm2.94-14.89a3.44,3.44,0,0,0,2.33.93,3.27,3.27,0,0,0,2.28-.93,3,3,0,0,0,1-2.26,3.28,3.28,0,0,0-1-2.38,3.1,3.1,0,0,0-2.3-1,3.26,3.26,0,0,0-2.35,1,3.21,3.21,0,0,0-1,2.38A2.92,2.92,0,0,0,493.74,359.33Z"/><path class="cls-1" d="M524.2,381.77a13.75,13.75,0,0,1-5.42-1,11.86,11.86,0,0,1-4.31-3.16,15.09,15.09,0,0,1-2.86-5.17,22,22,0,0,1-1-7,24.29,24.29,0,0,1,1-7.45,14.2,14.2,0,0,1,2.79-5.09,10.57,10.57,0,0,1,4.29-2.92,16.26,16.26,0,0,1,5.54-.91,13.61,13.61,0,0,1,5.37,1.06,11.93,11.93,0,0,1,4.31,3.13,14.79,14.79,0,0,1,2.87,5.18,22.21,22.21,0,0,1,1,7,23,23,0,0,1-1,7.18,14,14,0,0,1-2.89,5.15,12.12,12.12,0,0,1-4.32,3.06A13.56,13.56,0,0,1,524.2,381.77Zm-.05-5.49a6.36,6.36,0,0,0,4.39-1.37A8.31,8.31,0,0,0,531,371a20.16,20.16,0,0,0,.86-5.76,18.77,18.77,0,0,0-.86-5.57,8.17,8.17,0,0,0-2.5-3.82,6.5,6.5,0,0,0-4.39-1.35,6.3,6.3,0,0,0-4.36,1.38,8.26,8.26,0,0,0-2.47,3.87,17.72,17.72,0,0,0-.81,5.58,18.44,18.44,0,0,0,.81,5.69,8.33,8.33,0,0,0,2.47,3.92A6.24,6.24,0,0,0,524.15,376.28Z"/><path class="cls-1" d="M554.83,381.77a13.7,13.7,0,0,1-5.41-1,11.78,11.78,0,0,1-4.31-3.16,15,15,0,0,1-2.87-5.17,22,22,0,0,1-1-7,24.29,24.29,0,0,1,1-7.45,14.07,14.07,0,0,1,2.8-5.09,10.44,10.44,0,0,1,4.29-2.92,16.2,16.2,0,0,1,5.53-.91A13.61,13.61,0,0,1,560.2,350a11.93,11.93,0,0,1,4.31,3.13,14.63,14.63,0,0,1,2.87,5.18,21.93,21.93,0,0,1,1,7,22.69,22.69,0,0,1-1,7.18,13.88,13.88,0,0,1-2.89,5.15,12.08,12.08,0,0,1-4.31,3.06A13.64,13.64,0,0,1,554.83,381.77Zm-.05-5.49a6.36,6.36,0,0,0,4.39-1.37,8.31,8.31,0,0,0,2.5-3.94,19.81,19.81,0,0,0,.86-5.76,18.45,18.45,0,0,0-.86-5.57,8.17,8.17,0,0,0-2.5-3.82,6.5,6.5,0,0,0-4.39-1.35,6.31,6.31,0,0,0-4.36,1.38,8.34,8.34,0,0,0-2.47,3.87,17.72,17.72,0,0,0-.81,5.58A18.44,18.44,0,0,0,548,371a8.41,8.41,0,0,0,2.47,3.92A6.26,6.26,0,0,0,554.78,376.28Z"/><path class="cls-1" d="M578.65,377.41c-.71,1.7-1.43,3.4-2.13,5.1s-1.41,3.4-2.13,5.1H570q1-2.55,1.91-5.1t1.91-5.1Z"/><path class="cls-1" d="M595.46,381.77a13.7,13.7,0,0,1-5.41-1,11.78,11.78,0,0,1-4.31-3.16,15,15,0,0,1-2.87-5.17,22,22,0,0,1-1-7,24.29,24.29,0,0,1,1-7.45,14.07,14.07,0,0,1,2.8-5.09,10.44,10.44,0,0,1,4.29-2.92,16.2,16.2,0,0,1,5.53-.91,13.61,13.61,0,0,1,5.37,1.06,12.05,12.05,0,0,1,4.32,3.13,14.78,14.78,0,0,1,2.86,5.18,21.93,21.93,0,0,1,1,7,22.69,22.69,0,0,1-1,7.18,13.88,13.88,0,0,1-2.89,5.15,12.08,12.08,0,0,1-4.31,3.06A13.64,13.64,0,0,1,595.46,381.77Zm0-5.49a6.33,6.33,0,0,0,4.38-1.37,8.31,8.31,0,0,0,2.5-3.94,19.81,19.81,0,0,0,.86-5.76,18.45,18.45,0,0,0-.86-5.57,8.17,8.17,0,0,0-2.5-3.82,6.47,6.47,0,0,0-4.38-1.35,6.32,6.32,0,0,0-4.37,1.38,8.34,8.34,0,0,0-2.47,3.87,17.72,17.72,0,0,0-.81,5.58,18.44,18.44,0,0,0,.81,5.69,8.41,8.41,0,0,0,2.47,3.92A6.27,6.27,0,0,0,595.42,376.28Z"/><path class="cls-1" d="M626.1,381.77a13.75,13.75,0,0,1-5.42-1,11.78,11.78,0,0,1-4.31-3.16,15.11,15.11,0,0,1-2.87-5.17,22.25,22.25,0,0,1-1-7,24.27,24.27,0,0,1,1-7.45,14.2,14.2,0,0,1,2.79-5.09,10.44,10.44,0,0,1,4.29-2.92,16.26,16.26,0,0,1,5.54-.91,13.56,13.56,0,0,1,5.36,1.06,12.05,12.05,0,0,1,4.32,3.13,15,15,0,0,1,2.87,5.18,22.22,22.22,0,0,1,1,7,23,23,0,0,1-1,7.18,14,14,0,0,1-2.9,5.15,12.08,12.08,0,0,1-4.31,3.06A13.56,13.56,0,0,1,626.1,381.77Zm-.05-5.49a6.36,6.36,0,0,0,4.39-1.37,8.39,8.39,0,0,0,2.5-3.94,20.17,20.17,0,0,0,.85-5.76,18.78,18.78,0,0,0-.85-5.57,8.25,8.25,0,0,0-2.5-3.82,6.5,6.5,0,0,0-4.39-1.35,6.3,6.3,0,0,0-4.36,1.38,8.28,8.28,0,0,0-2.48,3.87,17.72,17.72,0,0,0-.81,5.58,18.44,18.44,0,0,0,.81,5.69,8.34,8.34,0,0,0,2.48,3.92A6.24,6.24,0,0,0,626.05,376.28Z"/><path class="cls-1" d="M669.57,382.21a11.54,11.54,0,0,1-5.32-1.22,9,9,0,0,1-3.75-3.65,12.11,12.11,0,0,1-1.37-6,11.91,11.91,0,0,1,1.45-6.05,10.37,10.37,0,0,1,3.82-3.9,10.23,10.23,0,0,1,5.17-1.37,8.64,8.64,0,0,1,4.8,1.18,9.81,9.81,0,0,1,2.9,2.79l-.3.79.54-3.83h5.1v20.74h-5.54v-5.05l.54,1.32a9.73,9.73,0,0,1-2.38,2.4,10,10,0,0,1-2.45,1.33A9.08,9.08,0,0,1,669.57,382.21Zm1.52-4.5a7,7,0,0,0,2.7-.52,5.25,5.25,0,0,0,2.05-1.52,6.34,6.34,0,0,0,1.23-2.38v-4.51a5.59,5.59,0,0,0-1.3-2.23,6.47,6.47,0,0,0-2.16-1.49,6.77,6.77,0,0,0-2.72-.54,6.1,6.1,0,0,0-3.13.83,6.19,6.19,0,0,0-2.26,2.31,6.77,6.77,0,0,0-.83,3.38,6.58,6.58,0,0,0,.88,3.38,6.79,6.79,0,0,0,2.33,2.4A6,6,0,0,0,671.09,377.71Zm-6.37-27.26h6.13l3.33,6.62h-3.43Z"/><path class="cls-1" d="M714.71,382.17,702.8,360.94h6.52l7.5,15.59-3.38-.1,6.71-15.49h6.18L715,382.17Z"/><path class="cls-1" d="M730.64,353.44a2.59,2.59,0,0,1,1-2.05,3.23,3.23,0,0,1,2.16-.84,3.16,3.16,0,0,1,2.13.84,2.64,2.64,0,0,1,1,2.1,2.6,2.6,0,0,1-1,2.06,3.15,3.15,0,0,1-2.13.83,3.22,3.22,0,0,1-2.16-.83A2.65,2.65,0,0,1,730.64,353.44Zm.25,7.5h5.48v20.74h-5.48Z"/><path class="cls-1" d="M750.1,382.12a12.14,12.14,0,0,1-4.49-.84,9.16,9.16,0,0,1-3.55-2.4l2.3-3.14a10.9,10.9,0,0,0,2.72,1.92,6.1,6.1,0,0,0,2.58.63,6,6,0,0,0,1.69-.22,2.49,2.49,0,0,0,1.2-.71,1.83,1.83,0,0,0,.44-1.27,1.91,1.91,0,0,0-.66-1.57,5.67,5.67,0,0,0-1.74-.91l-2.26-.76a8.15,8.15,0,0,1-4-2.45,5.78,5.78,0,0,1-1.32-3.77,6.4,6.4,0,0,1,3.36-5.57,8.83,8.83,0,0,1,4.34-.95,13.86,13.86,0,0,1,4.06.54,10.24,10.24,0,0,1,3.29,1.71l-2.11,3.34a6.68,6.68,0,0,0-2.08-1.33,7.14,7.14,0,0,0-2.18-.54,3.44,3.44,0,0,0-1.57.25,3.35,3.35,0,0,0-1.13.76,1.57,1.57,0,0,0-.44,1.1,1.79,1.79,0,0,0,.69,1.57,5.51,5.51,0,0,0,1.88.93c.77.23,1.51.48,2.23.74A11,11,0,0,1,756,370.4a5.73,5.73,0,0,1,1.84,1.86,5.2,5.2,0,0,1,.69,2.75,6.87,6.87,0,0,1-.93,3.48,7,7,0,0,1-2.77,2.62A9.81,9.81,0,0,1,750.1,382.12Z"/><path class="cls-1" d="M766.61,351.83h5.49v9.11h5.39v4.27H772.1v16.47h-5.49V365.21H763v-4.27h3.57Z"/><path class="cls-1" d="M791.61,382.21a11.54,11.54,0,0,1-5.32-1.22,9,9,0,0,1-3.75-3.65,12.11,12.11,0,0,1-1.37-6,11.91,11.91,0,0,1,1.45-6.05,10.19,10.19,0,0,1,9-5.27,8.66,8.66,0,0,1,4.8,1.18,9.81,9.81,0,0,1,2.9,2.79l-.3.79.54-3.83h5.1v20.74h-5.54v-5.05l.54,1.32a12.21,12.21,0,0,1-.76,1,10.17,10.17,0,0,1-1.62,1.44,10,10,0,0,1-2.45,1.33A9.08,9.08,0,0,1,791.61,382.21Zm1.52-4.5a7,7,0,0,0,2.7-.52,5.25,5.25,0,0,0,2-1.52,6.34,6.34,0,0,0,1.23-2.38v-4.51a5.7,5.7,0,0,0-1.3-2.23,6.47,6.47,0,0,0-2.16-1.49,6.77,6.77,0,0,0-2.72-.54,6.1,6.1,0,0,0-3.13.83,6.19,6.19,0,0,0-2.26,2.31,6.77,6.77,0,0,0-.83,3.38,6.58,6.58,0,0,0,.88,3.38,6.7,6.7,0,0,0,2.33,2.4A6,6,0,0,0,793.13,377.71Z"/><path class="cls-1" d="M813.42,381.82A3.52,3.52,0,0,1,811,381a2.72,2.72,0,0,1-.93-2.11,2.85,2.85,0,0,1,1-2.16,3.49,3.49,0,0,1,2.43-.88,3.31,3.31,0,0,1,2.35.88,2.87,2.87,0,0,1,.93,2.16,2.76,2.76,0,0,1-.9,2.11A3.37,3.37,0,0,1,813.42,381.82Zm-2.65-37.49h5v27.93h-5Z"/><path class="cls-1" d="M196.92,407a35.8,35.8,0,0,1,3-7.72,26.21,26.21,0,0,1,3.92-5.57l3.63,2.06a26.07,26.07,0,0,0-3.51,5.2,30.82,30.82,0,0,0-2.55,6.91,35.49,35.49,0,0,0-.95,8.43,35.12,35.12,0,0,0,.95,8.4,30.47,30.47,0,0,0,2.55,6.87,27.69,27.69,0,0,0,3.51,5.21l-3.63,2.06a27.64,27.64,0,0,1-3.92-5.61,36,36,0,0,1-3-7.69,37,37,0,0,1,0-18.55Z"/><path class="cls-2" d="M223.88,431.18a12.1,12.1,0,0,1-6-1.4A9.81,9.81,0,0,1,214,426a11.06,11.06,0,0,1-1.38-5.57A10,10,0,0,1,214.2,415a11.64,11.64,0,0,1,4.09-3.92,11.17,11.17,0,0,1,5.69-1.47,9.65,9.65,0,0,1,6.66,2.36,12.1,12.1,0,0,1,3.63,6.47l-16.76,5.88-1.08-2.7,13.67-5.05-.93.69a6.51,6.51,0,0,0-2-2.79,5.28,5.28,0,0,0-3.58-1.18,6.11,6.11,0,0,0-5.58,3.31,7.42,7.42,0,0,0-.84,3.6,7.78,7.78,0,0,0,.86,3.68,6.27,6.27,0,0,0,2.4,2.52,6.75,6.75,0,0,0,3.51.91,7.11,7.11,0,0,0,2.57-.49,11.67,11.67,0,0,0,2.38-1.28l2.06,3.38a13.87,13.87,0,0,1-3.41,1.67A11.39,11.39,0,0,1,223.88,431.18Z"/><path class="cls-2" d="M256.42,428.78a10.09,10.09,0,0,1-3.28,1.76,11.91,11.91,0,0,1-3.82.64,12.23,12.23,0,0,1-5.81-1.33,9.71,9.71,0,0,1-3.95-3.72,10.84,10.84,0,0,1-1.42-5.64,10.24,10.24,0,0,1,1.52-5.61,10.46,10.46,0,0,1,4-3.67,10.9,10.9,0,0,1,5.26-1.3,13.36,13.36,0,0,1,4.34.66,10,10,0,0,1,3.36,1.89l-2.3,2.94a10.25,10.25,0,0,0-2.14-1.21,7.19,7.19,0,0,0-2.86-.56,6.2,6.2,0,0,0-3.31.91,6.43,6.43,0,0,0-2.35,2.45,7,7,0,0,0-.86,3.5,6.92,6.92,0,0,0,.88,3.48,6.61,6.61,0,0,0,2.45,2.5,7.23,7.23,0,0,0,8-.54Z"/><path class="cls-2" d="M260.49,420.35a10.53,10.53,0,0,1,1.45-5.49,10.39,10.39,0,0,1,4-3.88,12,12,0,0,1,5.86-1.42A11.61,11.61,0,0,1,277.6,411a10.21,10.21,0,0,1,3.89,3.88,11.46,11.46,0,0,1,0,11,10.38,10.38,0,0,1-3.89,3.89,11.4,11.4,0,0,1-5.84,1.45,12.15,12.15,0,0,1-5.81-1.35,10.26,10.26,0,0,1-4-3.77A10.81,10.81,0,0,1,260.49,420.35Zm4.61,0A7.2,7.2,0,0,0,266,424a6.87,6.87,0,0,0,2.35,2.52,6.1,6.1,0,0,0,3.33.93,6.2,6.2,0,0,0,3.39-.93,6.63,6.63,0,0,0,2.32-2.52,7.78,7.78,0,0,0,0-7.11,6.87,6.87,0,0,0-2.32-2.55,6.13,6.13,0,0,0-3.39-1,5.9,5.9,0,0,0-3.35,1,7,7,0,0,0-2.36,2.57A7.28,7.28,0,0,0,265.1,420.39Z"/><path class="cls-2" d="M293.13,410.4l.35,5-.15-.79a7.49,7.49,0,0,1,3.14-3.6,9.64,9.64,0,0,1,5.14-1.35,6.66,6.66,0,0,1,4.68,1.69,5.82,5.82,0,0,1,1.89,4.39v15h-4.61V417.26a4.15,4.15,0,0,0-.95-2.67,3.55,3.55,0,0,0-2.82-1.06,5.52,5.52,0,0,0-3.16,1,6.6,6.6,0,0,0-2.26,2.7,9.2,9.2,0,0,0-.81,4v9.51H289V410.4Z"/><path class="cls-2" d="M314.31,420.35a10.61,10.61,0,0,1,1.44-5.49,10.42,10.42,0,0,1,4-3.88,12,12,0,0,1,5.86-1.42,11.57,11.57,0,0,1,5.78,1.42,10.17,10.17,0,0,1,3.9,3.88,11.54,11.54,0,0,1,0,11,10.33,10.33,0,0,1-3.9,3.89,11.39,11.39,0,0,1-5.83,1.45,12.12,12.12,0,0,1-5.81-1.35,10.26,10.26,0,0,1-4-3.77A10.81,10.81,0,0,1,314.31,420.35Zm4.6,0a7.21,7.21,0,0,0,.89,3.56,6.79,6.79,0,0,0,2.35,2.52,6.1,6.1,0,0,0,3.33.93,6.19,6.19,0,0,0,3.38-.93,6.66,6.66,0,0,0,2.33-2.52,7.78,7.78,0,0,0,0-7.11,6.9,6.9,0,0,0-2.33-2.55,6.12,6.12,0,0,0-3.38-1,6,6,0,0,0-3.36,1,7,7,0,0,0-2.35,2.57A7.28,7.28,0,0,0,318.91,420.39Z"/><path class="cls-2" d="M347,410.4l.39,4.55-.24-.39a9,9,0,0,1,3.21-3.65,8.63,8.63,0,0,1,4.82-1.35,7.49,7.49,0,0,1,3,.57,5.67,5.67,0,0,1,2.18,1.57,4.92,4.92,0,0,1,1.11,2.42l-.25.2a8.71,8.71,0,0,1,3.26-3.51,8.43,8.43,0,0,1,4.39-1.25,6.47,6.47,0,0,1,4.73,1.72,6.23,6.23,0,0,1,1.84,4.36v15.05h-4.61V417.31a4.91,4.91,0,0,0-.76-2.63,2.91,2.91,0,0,0-2.48-1.1,5.08,5.08,0,0,0-3.16,1.06,6.81,6.81,0,0,0-2.15,2.74,9.4,9.4,0,0,0-.81,3.7v9.61H356.8V417.31a4.61,4.61,0,0,0-.81-2.63,3,3,0,0,0-2.52-1.1,5,5,0,0,0-3.14,1.06,7.14,7.14,0,0,0-2.16,2.77,8.86,8.86,0,0,0-.78,3.72v9.56h-4.61V410.4Z"/><path class="cls-2" d="M382.92,403a2.31,2.31,0,0,1,.86-1.81,2.83,2.83,0,0,1,1.89-.73,2.75,2.75,0,0,1,1.86.73,2.31,2.31,0,0,1,.83,1.81,2.27,2.27,0,0,1-.83,1.84,2.78,2.78,0,0,1-1.86.71,2.86,2.86,0,0,1-1.89-.71A2.27,2.27,0,0,1,382.92,403Zm.3,7.36h4.6v20.29h-4.6Z"/><path class="cls-2" d="M397.58,414.12a3.74,3.74,0,0,1-2.57-.93A3.5,3.5,0,0,1,394,410.4v-2h3.48v.63c0,.56.12.92.37,1.08a2.27,2.27,0,0,0,1.25.25h13l-12.16,17.45-.93-.94h12.89v3.78H393.12l12.4-17.84.78,1.27Z"/><path class="cls-2" d="M427.82,431.18a12.1,12.1,0,0,1-6-1.4A9.81,9.81,0,0,1,418,426a11.06,11.06,0,0,1-1.38-5.57,10,10,0,0,1,1.55-5.44,11.64,11.64,0,0,1,4.09-3.92,11.17,11.17,0,0,1,5.69-1.47,9.64,9.64,0,0,1,6.66,2.36,12,12,0,0,1,3.63,6.47l-16.76,5.88-1.08-2.7L434,416.52l-.93.69a6.51,6.51,0,0,0-2-2.79,5.28,5.28,0,0,0-3.58-1.18,6.14,6.14,0,0,0-5.58,3.31,7.42,7.42,0,0,0-.84,3.6,7.78,7.78,0,0,0,.86,3.68,6.27,6.27,0,0,0,2.4,2.52,6.75,6.75,0,0,0,3.51.91,7.11,7.11,0,0,0,2.57-.49,11.67,11.67,0,0,0,2.38-1.28l2.06,3.38a13.87,13.87,0,0,1-3.41,1.67A11.39,11.39,0,0,1,427.82,431.18Z"/><path class="cls-1" d="M470.26,394.61a19.55,19.55,0,0,1,6,.86,12.28,12.28,0,0,1,4.44,2.45,10.44,10.44,0,0,1,2.72,3.83,12.91,12.91,0,0,1,.93,5,15.31,15.31,0,0,1-.66,4.41,11.38,11.38,0,0,1-2.16,4,10.78,10.78,0,0,1-3.94,2.92,14.92,14.92,0,0,1-6.08,1.1h-5.1v11.47h-7.11V394.61Zm1.23,17.75a5.94,5.94,0,0,0,2.69-.54,4.7,4.7,0,0,0,1.7-1.37A5.93,5.93,0,0,0,477,407a8.68,8.68,0,0,0-.17-1.49,6.28,6.28,0,0,0-.71-1.84,4.47,4.47,0,0,0-1.65-1.57,5.94,5.94,0,0,0-3-.63h-5.1v10.88Zm6.66,4.41,8.92,13.92h-8.28L469.68,417Z"/><path class="cls-1" d="M512.22,403.34a27.21,27.21,0,0,0-4.19-1.86,12.34,12.34,0,0,0-4-.74,6.2,6.2,0,0,0-3.62.93,3.36,3.36,0,0,0-.32,5.08,9.5,9.5,0,0,0,2.6,1.78A34.92,34.92,0,0,0,506,410a26.82,26.82,0,0,1,3.12,1.39,11.7,11.7,0,0,1,2.76,2,8.8,8.8,0,0,1,2,3,11.78,11.78,0,0,1,.73,4.39,9.67,9.67,0,0,1-1.42,5.1,10.4,10.4,0,0,1-4.17,3.79,14.29,14.29,0,0,1-6.76,1.45,21.65,21.65,0,0,1-4.19-.42,21.46,21.46,0,0,1-8.16-3.45l3.13-5.54a17.27,17.27,0,0,0,2.77,1.64,16.42,16.42,0,0,0,3,1.1,10.84,10.84,0,0,0,2.79.4,9.56,9.56,0,0,0,2.57-.37,4.75,4.75,0,0,0,2.16-1.25,3.39,3.39,0,0,0,.86-2.45,3.07,3.07,0,0,0-.71-2,7.25,7.25,0,0,0-1.91-1.62,15.9,15.9,0,0,0-2.62-1.27c-1.12-.43-2.26-.92-3.44-1.47a18.12,18.12,0,0,1-3.3-2,8.81,8.81,0,0,1-3.46-7.37,10.33,10.33,0,0,1,1.4-5.45,9.94,9.94,0,0,1,3.94-3.65,13.73,13.73,0,0,1,5.88-1.49,20.33,20.33,0,0,1,7.09,1,24.1,24.1,0,0,1,4.87,2.45ZM499.67,434V412.75l2-2.3V391.28h4.12v20.54l-2,3V434Z"/><path class="cls-1" d="M516.58,423.58v-.05l20.73-25.73h.05v20.39h3.87v5.39h-3.87v7.11H530.2v-7.11Zm14-10.15-3.78,5.05-.68-.29h4.11v-5.1Z"/><path class="cls-1" d="M554.22,420.54a8.61,8.61,0,0,1-4.53-1.32,10.54,10.54,0,0,1-5-9.17,12.19,12.19,0,0,1,1.74-6.66,11.58,11.58,0,0,1,4.49-4.17,12.38,12.38,0,0,1,5.78-1.42,12.79,12.79,0,0,1,6.4,1.59,12.12,12.12,0,0,1,4.48,4.37,11.85,11.85,0,0,1,1.67,6.24,18,18,0,0,1-1.4,7.23A20.78,20.78,0,0,1,564.1,423a35.1,35.1,0,0,1-5.17,4.63q-2.85,2.08-5.74,3.9l-4.75-5.15a35.69,35.69,0,0,0,6.91-3.7,19.29,19.29,0,0,0,4.65-4.36,7.61,7.61,0,0,0,1.67-4.48l1.77.19a12.61,12.61,0,0,1-3.39,4.81A8.87,8.87,0,0,1,554.22,420.54Zm2.75-6a4.93,4.93,0,0,0,3.48-1.32,4,4,0,0,0,1.42-3v-1.13a4.85,4.85,0,0,0-.64-2.4,5.28,5.28,0,0,0-1.74-1.84,4.6,4.6,0,0,0-2.52-.71,5.22,5.22,0,0,0-2.5.61,4.36,4.36,0,0,0-1.77,1.79,6.09,6.09,0,0,0-.64,2.9,5.44,5.44,0,0,0,.67,2.81,4.28,4.28,0,0,0,1.76,1.72A5.32,5.32,0,0,0,557,414.56Z"/><path class="cls-1" d="M585.34,430.74a14.26,14.26,0,0,1-5.27-1,11.91,11.91,0,0,1-4.36-3,14.3,14.3,0,0,1-3-5.14,22.42,22.42,0,0,1-1.08-7.33,25.63,25.63,0,0,1,1-7.87,12.8,12.8,0,0,1,2.87-5.07,10.29,10.29,0,0,1,4.33-2.72,17.58,17.58,0,0,1,5.44-.81,14.22,14.22,0,0,1,5.27,1,11.91,11.91,0,0,1,4.37,3,14.59,14.59,0,0,1,3,5.15,22.42,22.42,0,0,1,1.08,7.33,23.12,23.12,0,0,1-1.08,7.5,13.7,13.7,0,0,1-3,5.12,12,12,0,0,1-4.36,2.92A14.68,14.68,0,0,1,585.34,430.74Zm-.05-6.82a5.38,5.38,0,0,0,3.83-1.29,7.13,7.13,0,0,0,1.93-3.56,20.39,20.39,0,0,0,.57-5,18.43,18.43,0,0,0-.57-4.8,6.78,6.78,0,0,0-1.93-3.36,5.5,5.5,0,0,0-3.83-1.25,5.33,5.33,0,0,0-3.77,1.28,6.82,6.82,0,0,0-1.91,3.43,19.93,19.93,0,0,0-.54,4.85,20.6,20.6,0,0,0,.54,4.9,7,7,0,0,0,1.91,3.51A5.29,5.29,0,0,0,585.29,423.92Z"/><path class="cls-1" d="M610,426.37c-.72,1.74-1.44,3.45-2.16,5.15s-1.44,3.41-2.16,5.15h-5.48l1.93-5.15c.64-1.7,1.28-3.41,1.94-5.15Z"/><path class="cls-1" d="M626.17,430.74a14.26,14.26,0,0,1-5.27-1,11.91,11.91,0,0,1-4.36-3,14.32,14.32,0,0,1-3-5.14,22.43,22.43,0,0,1-1.07-7.33,25.63,25.63,0,0,1,1-7.87,12.91,12.91,0,0,1,2.86-5.07,10.32,10.32,0,0,1,4.34-2.72,17.58,17.58,0,0,1,5.44-.81,14.26,14.26,0,0,1,5.27,1,11.88,11.88,0,0,1,4.36,3,14.45,14.45,0,0,1,3,5.15,22.43,22.43,0,0,1,1.07,7.33,23.13,23.13,0,0,1-1.07,7.5,13.7,13.7,0,0,1-3,5.12,12,12,0,0,1-4.37,2.92A14.63,14.63,0,0,1,626.17,430.74Zm0-6.82a5.35,5.35,0,0,0,3.82-1.29,7.15,7.15,0,0,0,1.94-3.56,20.4,20.4,0,0,0,.56-5,18.45,18.45,0,0,0-.56-4.8,6.8,6.8,0,0,0-1.94-3.36,5.48,5.48,0,0,0-3.82-1.25,5.31,5.31,0,0,0-3.77,1.28,6.68,6.68,0,0,0-1.91,3.43,19.93,19.93,0,0,0-.54,4.85,20.6,20.6,0,0,0,.54,4.9,6.89,6.89,0,0,0,1.91,3.51A5.27,5.27,0,0,0,626.12,423.92Z"/><path class="cls-1" d="M657,430.74a14.26,14.26,0,0,1-5.27-1,11.91,11.91,0,0,1-4.36-3,14.32,14.32,0,0,1-3-5.14,22.43,22.43,0,0,1-1.07-7.33,26,26,0,0,1,1-7.87,13,13,0,0,1,2.87-5.07,10.32,10.32,0,0,1,4.34-2.72,17.58,17.58,0,0,1,5.44-.81,14.26,14.26,0,0,1,5.27,1,11.88,11.88,0,0,1,4.36,3,14.45,14.45,0,0,1,3,5.15,22.7,22.7,0,0,1,1.07,7.33,23.41,23.41,0,0,1-1.07,7.5,13.7,13.7,0,0,1-3,5.12,12,12,0,0,1-4.37,2.92A14.63,14.63,0,0,1,657,430.74Zm-.05-6.82a5.35,5.35,0,0,0,3.82-1.29,7.15,7.15,0,0,0,1.94-3.56,20.9,20.9,0,0,0,.56-5,18.89,18.89,0,0,0-.56-4.8,6.8,6.8,0,0,0-1.94-3.36,5.48,5.48,0,0,0-3.82-1.25,5.31,5.31,0,0,0-3.77,1.28,6.76,6.76,0,0,0-1.92,3.43,20.46,20.46,0,0,0-.53,4.85,21.15,21.15,0,0,0,.53,4.9,7,7,0,0,0,1.92,3.51A5.27,5.27,0,0,0,656.9,423.92Z"/><path class="cls-1" d="M686.5,425.52a34.79,34.79,0,0,1-3,7.74,24.85,24.85,0,0,1-4,5.56l-3.62-2.06a25.68,25.68,0,0,0,3.5-5.19,32.05,32.05,0,0,0,2.58-6.89,36.62,36.62,0,0,0,0-16.83,31.84,31.84,0,0,0-2.58-6.91,26,26,0,0,0-3.5-5.2l3.62-2.06a24.86,24.86,0,0,1,4,5.59,35.6,35.6,0,0,1,3,7.72,34.59,34.59,0,0,1,1.18,9.24A35.13,35.13,0,0,1,686.5,425.52Z"/><path class="cls-1" d="M76.35,44.1l10.54,26-4.12-.83L92.33,44.1h8.43L84.29,81.84,67.82,44.1Z"/><path class="cls-1" d="M102.33,62.18a17.81,17.81,0,0,1,1.42-7.06,19,19,0,0,1,3.94-5.9,18.76,18.76,0,0,1,5.86-4,18,18,0,0,1,14.26,0,19.21,19.21,0,0,1,5.91,4,18.74,18.74,0,0,1,4,5.9,17.66,17.66,0,0,1,1.45,7.06,17.86,17.86,0,0,1-1.45,7.16,18.19,18.19,0,0,1-4,5.85,18.91,18.91,0,0,1-5.91,4,18.61,18.61,0,0,1-14.26,0,18.45,18.45,0,0,1-9.8-9.8A18,18,0,0,1,102.33,62.18Zm7.35,0a11.56,11.56,0,0,0,3.26,8.16,11.12,11.12,0,0,0,3.58,2.48,11,11,0,0,0,4.43.88,10.39,10.39,0,0,0,4.29-.88,10.52,10.52,0,0,0,3.46-2.48,12.11,12.11,0,0,0-.08-16.42,10.55,10.55,0,0,0-3.5-2.47,11.27,11.27,0,0,0-8.73,0,11,11,0,0,0-3.53,2.47,11.5,11.5,0,0,0-2.35,3.7A12.44,12.44,0,0,0,109.68,62.18Z"/><path class="cls-1" d="M173.35,77.18a13.56,13.56,0,0,1-2.18,1.32,19.71,19.71,0,0,1-3.9,1.47,17.86,17.86,0,0,1-5.1.59A20.28,20.28,0,0,1,154.55,79a16.79,16.79,0,0,1-5.69-4,17.4,17.4,0,0,1-3.55-5.73,19.29,19.29,0,0,1-1.22-6.91,21.75,21.75,0,0,1,1.25-7.55A17.13,17.13,0,0,1,148.91,49a16,16,0,0,1,5.57-3.87,18,18,0,0,1,7.15-1.38,19.42,19.42,0,0,1,6.42,1,22.3,22.3,0,0,1,4.56,2.11l-2.79,6.72a20.89,20.89,0,0,0-3.26-1.94,10.46,10.46,0,0,0-4.68-1,9.48,9.48,0,0,0-3.95.85,10.28,10.28,0,0,0-3.33,2.43A11.88,11.88,0,0,0,151.49,62a14.15,14.15,0,0,0,.76,4.76,10.42,10.42,0,0,0,2.18,3.7,9.63,9.63,0,0,0,3.4,2.38,11.63,11.63,0,0,0,4.49.83,12,12,0,0,0,5-.93,11.51,11.51,0,0,0,3.14-2Z"/><path class="cls-1" d="M180.45,44.1h24.61V51h-17.5v7.69h15.49v6.86H187.56v7.8h18.18v6.86H180.45Zm14.9-3-3.82-3.62L193.2,37l-3.88,4.11h-6.17l9.07-9h.05l9.26,9Z"/><path class="cls-1" d="M229,44.1h24.61V51h-17.5v7.69h15.49v6.86H236.13v7.8h18.18v6.86H229Z"/><path class="cls-1" d="M284,66.84a5.92,5.92,0,0,0,1,3.28,8,8,0,0,0,2.72,2.55,7.29,7.29,0,0,0,3.7,1,7.82,7.82,0,0,0,3.93-1,7.67,7.67,0,0,0,2.72-2.55,6,6,0,0,0,1-3.28V44.1h7V67a12.75,12.75,0,0,1-2,7,13.7,13.7,0,0,1-5.29,4.8,15.78,15.78,0,0,1-7.41,1.74,15.48,15.48,0,0,1-7.32-1.74,13.71,13.71,0,0,1-5.27-4.8,12.75,12.75,0,0,1-2-7V44.1H284Z"/><path class="cls-1" d="M314.65,80.17V42.63h.05l20,28.42-3-.68,20-27.74h.1V80.17h-7.11V58.65l.44,3.68-12.2,17.35h-.1L320.28,62.33,321.51,59V80.17Z"/><path class="cls-1" d="M373,80.17l16.27-37.5h.4l16.27,37.5h-8.24L387.28,53.8l5.15-3.53L380,80.17Zm11.13-13h10.83l2.5,6H381.89Z"/><path class="cls-1" d="M435.76,77.18a13.1,13.1,0,0,1-2.18,1.32,19.47,19.47,0,0,1-3.9,1.47,17.82,17.82,0,0,1-5.1.59A20.28,20.28,0,0,1,417,79a16.65,16.65,0,0,1-5.68-4,17.26,17.26,0,0,1-3.56-5.73,19.29,19.29,0,0,1-1.22-6.91,21.75,21.75,0,0,1,1.25-7.55A17.13,17.13,0,0,1,411.32,49a16,16,0,0,1,5.57-3.87A18,18,0,0,1,424,43.7a19.42,19.42,0,0,1,6.42,1A22.3,22.3,0,0,1,435,46.79l-2.79,6.72A20.89,20.89,0,0,0,429,51.57a10.46,10.46,0,0,0-4.68-1,9.48,9.48,0,0,0-4,.85A10.28,10.28,0,0,0,417,53.85a12,12,0,0,0-2.28,3.65A12.2,12.2,0,0,0,413.9,62a14.15,14.15,0,0,0,.76,4.76,10.42,10.42,0,0,0,2.18,3.7,9.67,9.67,0,0,0,3.41,2.38,11.54,11.54,0,0,0,4.48.83,12,12,0,0,0,4.95-.93,11.51,11.51,0,0,0,3.14-2Z"/><path class="cls-1" d="M440.66,62.18a17.81,17.81,0,0,1,1.42-7.06,18.87,18.87,0,0,1,3.95-5.9,18.6,18.6,0,0,1,5.85-4,18.05,18.05,0,0,1,14.27,0,19.16,19.16,0,0,1,5.9,4,18.74,18.74,0,0,1,4,5.9,17.66,17.66,0,0,1,1.45,7.06,17.86,17.86,0,0,1-1.45,7.16,18.19,18.19,0,0,1-4,5.85,18.87,18.87,0,0,1-5.9,4,18.64,18.64,0,0,1-14.27,0,18.54,18.54,0,0,1-9.8-9.8A18,18,0,0,1,440.66,62.18Zm7.35,0a11.73,11.73,0,0,0,.86,4.49,11.55,11.55,0,0,0,2.4,3.67,11.12,11.12,0,0,0,3.58,2.48,11,11,0,0,0,4.43.88A10.37,10.37,0,0,0,467,70.34a11.87,11.87,0,0,0,3.13-8.16A11.84,11.84,0,0,0,467,53.92a10.55,10.55,0,0,0-3.5-2.47,10.9,10.9,0,0,0-12.25,2.47,11.36,11.36,0,0,0-2.36,3.7A12.44,12.44,0,0,0,448,62.18Z"/><path class="cls-1" d="M484.62,80.17V42.63h.05l20.05,28.42-3-.68,20-27.74h.09V80.17h-7.1V58.65l.44,3.68L502.9,79.68h-.09L490.26,62.33,491.48,59V80.17Z"/><path class="cls-1" d="M542,44.1a17.12,17.12,0,0,1,7.54,1.49,10.77,10.77,0,0,1,4.71,4.22,12.34,12.34,0,0,1,1.62,6.44,15.62,15.62,0,0,1-.66,4.44,12.11,12.11,0,0,1-2.11,4,10.43,10.43,0,0,1-3.87,2.92,14.48,14.48,0,0,1-6,1.1h-5.1V80.17h-7.1V44.1Zm1.22,17.74a5.74,5.74,0,0,0,2.7-.57,4.57,4.57,0,0,0,1.69-1.42,5.74,5.74,0,0,0,.88-1.79,5.93,5.93,0,0,0,.27-1.61,8.72,8.72,0,0,0-.17-1.45,6,6,0,0,0-.71-1.84,4.34,4.34,0,0,0-1.64-1.56,5.9,5.9,0,0,0-3-.64h-5.1V61.84Z"/><path class="cls-1" d="M554.51,80.17l16.28-37.5h.39l16.27,37.5h-8.23L568.83,53.8,574,50.27l-12.45,29.9Zm11.13-13h10.83l2.5,6H563.44Z"/><path class="cls-1" d="M625,81.64l-27.35-24.7,2.1,1.17.15,22.06h-7.2V42.67H593l26.76,24.61-1.57-.69L618,44.1h7.15V81.64Z"/><path class="cls-1" d="M664.84,44.1V80.17h-7.1V65.51H641.61V80.17H634.5V44.1h7.11V58.65h16.13V44.1Z"/><path class="cls-1" d="M670.09,80.17l16.27-37.5h.39L703,80.17h-8.23L684.4,53.8l5.14-3.53L677.1,80.17Zm11.12-13H692l2.5,6H679Z"/><path class="cls-1" d="M740.57,81.64l-27.35-24.7,2.11,1.17.14,22.06h-7.2V42.67h.29l26.76,24.61-1.57-.69-.14-22.49h7.15V81.64Z"/><path class="cls-1" d="M747.63,44.1h24.31V51h-8.78V80.17h-7.1V51h-8.43Z"/><path class="cls-1" d="M778.8,44.1h24.6V51H785.9v7.69h15.49v6.86H785.9v7.8h18.19v6.86H778.8Z"/><path class="cls-1" d="M811.78,80.86a4.31,4.31,0,0,1-2.89-1,3.16,3.16,0,0,1-1.13-2.52,3.29,3.29,0,0,1,1.15-2.55,4.14,4.14,0,0,1,2.87-1,4,4,0,0,1,2.82,1,3.31,3.31,0,0,1,1.1,2.55,3.21,3.21,0,0,1-1.08,2.52A4.09,4.09,0,0,1,811.78,80.86Zm-3.23-38.19h6.12V70.42h-6.12Z"/><path class="cls-1" d="M97.23,188.54h20.9v69.63H102.79V203.24H97.23Z"/><path class="cls-1" d="M161.08,258.28a30.4,30.4,0,0,1-11.29-2.1,25.32,25.32,0,0,1-9.34-6.46,30.73,30.73,0,0,1-6.36-11,48,48,0,0,1-2.31-15.7A55.19,55.19,0,0,1,134,206.13a27.94,27.94,0,0,1,6.14-10.87,22.29,22.29,0,0,1,9.3-5.83,37.79,37.79,0,0,1,11.65-1.73,30.37,30.37,0,0,1,11.29,2.1,25.39,25.39,0,0,1,9.35,6.46,30.88,30.88,0,0,1,6.36,11,48.32,48.32,0,0,1,2.31,15.7,49.91,49.91,0,0,1-2.31,16.07,29.35,29.35,0,0,1-6.41,11,25.36,25.36,0,0,1-9.35,6.25A31.39,31.39,0,0,1,161.08,258.28Zm-.1-14.6q5.25,0,8.19-2.78a15.38,15.38,0,0,0,4.15-7.62,44.41,44.41,0,0,0,1.21-10.71,40.14,40.14,0,0,0-1.21-10.29,14.61,14.61,0,0,0-4.15-7.2c-2-1.78-4.69-2.68-8.19-2.68s-6.13.92-8.09,2.74a14.55,14.55,0,0,0-4.09,7.35,42.42,42.42,0,0,0-1.16,10.4,43.73,43.73,0,0,0,1.16,10.5,14.94,14.94,0,0,0,4.09,7.51Q155.83,243.68,161,243.68Z"/><path class="cls-1" d="M248.26,258.17H230.51l-35.4-45.89h18.07Zm-27.73-14.7-10.29,14.7h-14.6l18.17-24.57Zm1.89-16.59,8.72-14.6h14.6l-18.17,25.2Z"/><path class="cls-3" d="M316.72,259.42a65.5,65.5,0,0,1-24.15-4.62q-11.77-4.62-18.28-11.13l15.76-24.37A28,28,0,0,0,300.86,227a34.06,34.06,0,0,0,13.55,3,20,20,0,0,0,9-2.1,16.09,16.09,0,0,0,6.72-6.3,19.67,19.67,0,0,0,2.52-10.29,25.11,25.11,0,0,0-2.63-11.76,19.07,19.07,0,0,0-7.56-7.88,23,23,0,0,0-11.66-2.84,42.43,42.43,0,0,0-12.39,1.79,81.8,81.8,0,0,0-13.86,6h-.22V118.47H353.9v29.41H310.63v22.48l-3.57-6.3q2.94-.42,5.67-.63t5.46-.21q14.7,0,24.9,6.51A43.69,43.69,0,0,1,358.74,187a50.77,50.77,0,0,1,5.46,23.32,49.78,49.78,0,0,1-6.31,25,47.57,47.57,0,0,1-17.11,17.64A45.78,45.78,0,0,1,316.72,259.42Z"/><path class="cls-3" d="M386,257.74q13-13.23,25-25.52t21.53-23.74a124.88,124.88,0,0,0,15.12-22.16q5.56-10.71,5.57-20.79a19.57,19.57,0,0,0-1.58-8,17.52,17.52,0,0,0-4.41-6.1,19.92,19.92,0,0,0-6.72-3.88,26.2,26.2,0,0,0-8.72-1.37,25.25,25.25,0,0,0-8.61,1.37,18.47,18.47,0,0,0-6.3,3.67,17.71,17.71,0,0,0-3.89,5,12.59,12.59,0,0,0-1.36,5.68,29.87,29.87,0,0,0,2.2,11.86,30.73,30.73,0,0,0,6,9.14l-18.7,17a25.33,25.33,0,0,1-10.39-9.88,57.87,57.87,0,0,1-6.52-14.59,47.88,47.88,0,0,1-2.2-12.71,41.65,41.65,0,0,1,6.41-22.06q6.41-10.5,18.69-17.22t29.93-6.73q14.51,0,25.21,6.52A46.6,46.6,0,0,1,479,140.43,45.22,45.22,0,0,1,485,163a57.4,57.4,0,0,1-3,18.27A86,86,0,0,1,474,198.61a168.71,168.71,0,0,1-11.66,16.81q-6.51,8.29-13.44,16.9l-13.87-4h51.68v29.41Z"/><path class="cls-3" d="M544.42,214.26A37,37,0,0,1,525,208.59a45.35,45.35,0,0,1-15.44-15.86,44.76,44.76,0,0,1-6.09-23.42q0-16.8,7.46-28.57a49.37,49.37,0,0,1,19.22-17.85,53.17,53.17,0,0,1,24.78-6.1,54.8,54.8,0,0,1,27.42,6.83,51.93,51.93,0,0,1,19.22,18.7,51,51,0,0,1,7.14,26.78,76.91,76.91,0,0,1-6,31,88.79,88.79,0,0,1-16,24.68,150,150,0,0,1-22.16,19.85q-12.2,8.94-24.58,16.7l-20.38-22.05a154.9,154.9,0,0,0,29.62-15.86q12.81-8.93,20-18.7t7.14-19.22l7.56.84q-5.67,13.23-14.49,20.59T544.42,214.26Zm11.76-25.63A21.09,21.09,0,0,0,571.1,183q6.09-5.67,6.09-12.81v-4.83a20.65,20.65,0,0,0-2.73-10.3,22.31,22.31,0,0,0-7.46-7.87,19.55,19.55,0,0,0-10.82-3.05,22.06,22.06,0,0,0-10.71,2.63,18.55,18.55,0,0,0-7.56,7.66,25.8,25.8,0,0,0-2.73,12.4A23.91,23.91,0,0,0,538,178.87a18.14,18.14,0,0,0,7.57,7.35A22.94,22.94,0,0,0,556.18,188.63Z"/><path class="cls-3" d="M645.09,242.18q-3.9,9.38-7.78,18.57t-7.78,18.56H609.72q3.54-9.37,7-18.56t7-18.57Z"/><path class="cls-3" d="M681.4,257.85a30.75,30.75,0,0,1-11.4-2.12,25.66,25.66,0,0,1-9.44-6.53,30.87,30.87,0,0,1-6.42-11.14,48.4,48.4,0,0,1-2.34-15.86,55.86,55.86,0,0,1,2.23-17,28.24,28.24,0,0,1,6.21-11,22.4,22.4,0,0,1,9.39-5.89,38.26,38.26,0,0,1,11.77-1.75,30.57,30.57,0,0,1,11.41,2.13,25.51,25.51,0,0,1,9.44,6.52,31.25,31.25,0,0,1,6.42,11.14A48.41,48.41,0,0,1,711,222.2a50,50,0,0,1-2.33,16.23,29.62,29.62,0,0,1-6.47,11.09,25.72,25.72,0,0,1-9.44,6.31A31.58,31.58,0,0,1,681.4,257.85Zm-.1-14.75q5.3,0,8.27-2.81a15.42,15.42,0,0,0,4.19-7.69A44.26,44.26,0,0,0,695,221.78a40,40,0,0,0-1.23-10.4,14.7,14.7,0,0,0-4.19-7.27q-3-2.7-8.27-2.7t-8.17,2.75a14.75,14.75,0,0,0-4.14,7.43,43.3,43.3,0,0,0-1.17,10.5A44.6,44.6,0,0,0,669,232.7a15.06,15.06,0,0,0,4.14,7.59Q676.1,243.1,681.3,243.1Z"/><path class="cls-3" d="M748,257.85a30.75,30.75,0,0,1-11.4-2.12,25.61,25.61,0,0,1-9.45-6.53,31.16,31.16,0,0,1-6.42-11.14,48.68,48.68,0,0,1-2.33-15.86,55.56,55.56,0,0,1,2.23-17,28.1,28.1,0,0,1,6.2-11,22.53,22.53,0,0,1,9.39-5.89A38.33,38.33,0,0,1,748,186.55a30.65,30.65,0,0,1,11.41,2.13,25.59,25.59,0,0,1,9.44,6.52,31.25,31.25,0,0,1,6.42,11.14,48.68,48.68,0,0,1,2.33,15.86,50.23,50.23,0,0,1-2.33,16.23,29.64,29.64,0,0,1-6.48,11.09,25.56,25.56,0,0,1-9.44,6.31A31.53,31.53,0,0,1,748,257.85Zm-.11-14.75q5.31,0,8.28-2.81a15.42,15.42,0,0,0,4.19-7.69,44.77,44.77,0,0,0,1.22-10.82,40.51,40.51,0,0,0-1.22-10.4,14.7,14.7,0,0,0-4.19-7.27q-3-2.7-8.28-2.7t-8.16,2.75a14.68,14.68,0,0,0-4.14,7.43,43.3,43.3,0,0,0-1.17,10.5,44.6,44.6,0,0,0,1.17,10.61,15,15,0,0,0,4.14,7.59Q742.73,243.1,747.92,243.1Z"/></g></g></svg>