<svg xmlns="http://www.w3.org/2000/svg" viewBox="0 0 118.24 137.15"><defs><style>.cls-1{fill:#fff;}.cls-2{fill:#e10a22;}</style></defs><g id="Camada_2" data-name="Camada 2"><g id="Camada_1-2" data-name="Camada 1"><path class="cls-1" d="M45.91,23.72c0,.2-.23.35-.53.45a1.78,1.78,0,0,1,.15,1.21c-.45-.05-.45,0,0,.23a2,2,0,0,0-.15,1H45.3c-.1-.05-.12-.08-.07-.08v.08c-.1,0-.25.1-.46.3a.52.52,0,0,1-.53.15c-.25-.3-.38-.35-.38-.15s.13.28.38.38a.52.52,0,0,0,.53-.15c.21-.2.36-.31.46-.31a.43.43,0,0,0,.23.23.3.3,0,0,1-.08-.23h.3v.91a.46.46,0,0,0-.68,0,.9.9,0,0,0-.3.76q-.37,0,.6-.15c.16-.05.28.08.38.38-.25-.25-.55-.13-.91.38h-.53a.83.83,0,0,1,0-.84h-.75c0,.16.2.43.6.84H38.64c0-.1-.08-.18-.23-.23a2.15,2.15,0,0,1-.3.23h-.46v-.38a1.29,1.29,0,0,0,.08-.38.51.51,0,0,0-.69.08c-.2.15-.15.27.16.37,0-.2.12-.27.22-.22a3.25,3.25,0,0,0,.08.53H35.83V14.55c1-.35,2-.73,3-1.14v.08c.2.15.28.2.23.15l-.23-.23q1.59-.67,3.48-1.59a.91.91,0,0,1,.23-.15.62.62,0,0,1,.23-.08.93.93,0,0,0,.53-.22,1.26,1.26,0,0,0-.08.53v.45a.21.21,0,0,0-.07.15.25.25,0,0,1-.15.08c-.16,0-.23-.13-.23-.38a.55.55,0,0,0-.23-.38s-.08.13-.23.23a3.15,3.15,0,0,0-.38.3c-.25.25-.22.46.08.61s.2.68-.15,1.44-.78,1.24-1.29,1.28c0,.81-.13,1.29-.53,1.44q-.15-.75,0-.75a.83.83,0,0,0-.23,1.06c.26.45.28.81.08,1.06a6.34,6.34,0,0,0,.91.6,1,1,0,0,0-.15-.75,1.52,1.52,0,0,1-.23-.76.8.8,0,0,0,.83-.76.55.55,0,0,1,.76-.53c-.4-.05-.56-.23-.45-.53-.06.05.2,0,.75-.08a.48.48,0,0,0,.46-.53,1,1,0,0,1,.53.61.79.79,0,0,1-.38.83c0-.1-.08-.17-.23-.22s-.23-.2-.23-.31c.46,0,.71,0,.76-.15-.3-.35-.63-.23-1,.38.25.15.35.33.3.53a.66.66,0,0,0,.3.53.56.56,0,0,0-.53.61c.31.15.46.25.46.3-.26.1-.48-.05-.68-.45s-.26-.38-.46-.08c.3.1.35.23.15.38s-.28.05-.38-.15a1,1,0,0,0,0,.91c.16.3.28.3.38,0-.1,0-.15-.08-.15-.23a.25.25,0,0,1,.15-.23l.68,1a1.34,1.34,0,0,1,1.67-.08l-.6-1,1.44.38V19a.56.56,0,0,1,.07-.23l.46.15c-.31,0-.43.18-.38.53s.07.56-.08.61a4.73,4.73,0,0,0,.68.08.68.68,0,0,1-.07-.69,2.06,2.06,0,0,0,.45.69,2.9,2.9,0,0,1-.53.53.47.47,0,0,1-.15-.31c.35-.05.53-.12.53-.22h-.76v.68L44.7,21c.2.25.15.43-.15.53a3.29,3.29,0,0,0-.61.15c.15,0,.18.13.08.23s0,.25.07.3c-.2.2.15,0,1.06-.53v.91h.46a.52.52,0,0,0-.38.15c.55-.1.63.15.23.76.4,0,.58.1.53.3Zm-8.64,4.09c-.05-.15-.12-.23-.23-.23C36.84,27.94,36.92,28,37.27,27.81Zm.91-3a.52.52,0,0,0,.15-.53.43.43,0,0,1,.15-.45,1.36,1.36,0,0,0-.83-.23c-.4,0-.43.15-.07.46.1-.31.22-.38.37-.23s0,.3-.15.45c.31.1.46.18.46.23a.13.13,0,0,0-.15.15C38.05,24.75,38.08,24.8,38.18,24.85ZM40,20.23a1.12,1.12,0,0,0,.38,1.21c.2-.2.23-.35.08-.45a.36.36,0,0,1-.23-.53c-.46-.3-.23-.38.68-.23a1.15,1.15,0,0,0-.15-.76c-.2-.3-.36-.3-.46,0,.16.05.2.18.16.38a.36.36,0,0,1-.23.38Q38.94,18.64,38,19.09c.26.26.23.31-.07.16s-.38-.31-.38-.46a.86.86,0,0,0-.08.38v.38a1.23,1.23,0,0,1,.91.3c.1-.45.2-.68.31-.68C39.9,19.22,40.35,19.58,40,20.23ZM38.41,22a7.06,7.06,0,0,0,.45,1,.77.77,0,0,1-.07,1c.4.06.6-.05.6-.3s0-.55.16-.6a.65.65,0,0,0,.37.75c-.05-.55,0-.8.08-.75-.25.1-.45-.05-.61-.46a3.48,3.48,0,0,0-.45-.83c-.1.5-.25.5-.46,0s-.55-.66-.75-.31c.35.11.48.28.38.53a2.23,2.23,0,0,0-.23.31,3.85,3.85,0,0,0-.23.38c.56-.16.78-.05.68.3-.15-.05-.3-.23-.45-.53a.3.3,0,0,0,.3-.23C38.28,22.05,38.36,22,38.41,22Zm-.68-7c.2.05.27.15.22.31-.2,0-.27.07-.22.22a3.29,3.29,0,0,0,1-.15C38,15.38,37.68,15.26,37.73,15Zm.91,4.62c0,.31.1.46.15.46C38.74,19.78,38.69,19.62,38.64,19.62Zm.6,5.76c.61-.05.94-.12,1-.22a.41.41,0,0,1-.31-.46h-.45a.77.77,0,0,1-.15.3A.89.89,0,0,0,39.24,25.38Zm1-11.82c.05.46.12.71.23.76C40.4,13.82,40.33,13.56,40.23,13.56Zm.15,10.69c.1.35.18.53.23.53C40.56,24.42,40.48,24.25,40.38,24.25Zm1.74,2.5c-.3-.46-.18-1.06.38-1.82a3.06,3.06,0,0,1-.91-.3c-.35-.16-.6-.1-.76.15.51,0,.79.18.84.53s-.1.55-.46.45c0,0,.18.28.38.84C41.79,27,42,27,42.12,26.75Zm-1-3.41a.75.75,0,0,0,.68.76c.5.1.81.3.91.6-.31-.76-.28-1.08.07-1q0,.38-.3.15c-.25-.15-.38-.3-.38-.46s.33-.22.68-.07.48.07.53-.08q-.45-.15-.15-.3c.31-.2.46-.33.46-.38a.86.86,0,0,1-.23-1.14c.15-.35,0-.53-.38-.53a1,1,0,0,0,.61-.45c.15-.25,0-.41-.31-.46.1.91-.12.89-.68-.07a.15.15,0,0,0,.08.23.53.53,0,0,1,.07.22c-1-.1-1.41-.05-1.21.15.1.51.1.76,0,.76.2-.1.38,0,.53.23s.41.35.61.3c0,.05-.23.13-.68.23s-.33.08-.08.23q.91-.15,1.14.3c-.31.05-.46.13-.46.23a.21.21,0,0,1,.15.07c0,.05,0,.11-.15.16-.65,0-1-.11-1-.31.4.1.5.26.3.46a2.33,2.33,0,0,1-.3.22c-.15.11-.26.18-.31.23C41.36,23.44,41.29,23.34,41.14,23.34Zm1.06,5.38a1.42,1.42,0,0,0,0-.91c-.1-.25-.05-.43.15-.53-.35-.15-.53-.05-.53.3s-.1.61-.3.61c0-.51-.06-.76-.16-.76.36.71.33,1-.07.91.05-.15.15-.18.3-.08a.24.24,0,0,0,.38-.07A1.87,1.87,0,0,0,42.2,28.72Zm.53-13.57c.1-.25.23-.37.38-.37.65.2.86.27.6.22-.2-.25-.07-.48.38-.68s.73-.55.68-.91a.5.5,0,0,1,.38.15.4.4,0,0,0,.31.15v.08a.29.29,0,0,1,.22.08v-.16h.08a.83.83,0,0,0-.15-.22h-.15c-.36-.2-.38-.36-.08-.46a.81.81,0,0,0-.15-.3q-.3-.08-.15-.45V11.9l-.53-.08a.56.56,0,0,0,.07.23c.15.1.13.15-.07.15a.22.22,0,0,1-.08.15q-.22,0-.15-.15h-.15L45,13c0,.1,0,.15-.07.15s-.16-.1-.16-.15-.15.3-.3.91a9.05,9.05,0,0,0-2.42,1.28c.05.16.12.13.22-.07S42.58,14.9,42.73,15.15Zm-.38-1.21s.1-.1.3-.15a.49.49,0,0,0,.23-.3c-.2-.86-.35-1.19-.46-1a1.82,1.82,0,0,0,1.22.38,1,1,0,0,1,.15.38c.05.2.12.33.23.38s-.23,0-.69-.08C42.47,13.71,42.15,13.84,42.35,13.94ZM43,18.26c.1.36.17.53.22.53C43.13,18.44,43.06,18.26,43,18.26ZM43.49,24a.44.44,0,0,1-.23.53c-.2.1-.3.23-.3.38.3.15.53.05.68-.3S43.79,24.12,43.49,24Zm-.23-6.44c0-.3-.13-.46-.23-.46C43.13,17.43,43.21,17.58,43.26,17.58Zm.3-4.47q-.45.08-.45.15Q43.56,13.19,43.56,13.11Zm-.3,4.7c.1.2.4.2.91,0s.68.1.68.6h0a1.7,1.7,0,0,1,.76-1.36,1.34,1.34,0,0,1-.15-.53,1.16,1.16,0,0,0-.16-.68h.31a1,1,0,0,1,0-.53,1.36,1.36,0,0,1-.68.45,2.62,2.62,0,0,0-.61.46c.3,0,.61.12.91.53s.12.63-.53.68c.1-.1.12-.33.07-.68-.4.86-.83,1.06-1.28.6C43.79,17.71,43.71,17.86,43.26,17.81Zm1.44,7.12c.4,0,.55-.25.45-.76a.69.69,0,0,1-.6-.15l-.53-.3a1,1,0,0,0,.45,1,.23.23,0,1,1,.46,0C44.72,24.7,44.65,24.78,44.7,24.93Zm.53-10.76c-.1,0-.23.1-.38.3s-.38.23-.68.08a1.46,1.46,0,0,1,.23.76c.3,0,.63-.36,1-1.06A.22.22,0,0,0,45.23,14.17Zm-.76,5.53c-.1-.3-.18-.45-.23-.45C44.34,19.55,44.42,19.7,44.47,19.7Zm.91-4.85q0,.22.3.3a.77.77,0,0,1,.15-.3ZM45.46,10a1.86,1.86,0,0,1,.68.08c0-.1.07-.13.23-.08a.81.81,0,0,0-.31-.38Zm0,8.34c0,.2.1.17.3-.08C46,18.26,45.86,18.29,45.46,18.34Zm.07-6.44a.83.83,0,0,1,.15.22l.15-.3A.43.43,0,0,1,45.53,11.9Zm.08,7.35c0,.2.15.27.3.22s0-.25-.08-.75a1.14,1.14,0,0,1-.07.3A.91.91,0,0,1,45.61,19.25Zm.3-8.34c.15.05.2-.17.15-.68v.53c0,.15-.07.1-.38-.15a.62.62,0,0,0,.08.23ZM69.78,53.12c-.3.15-.3.22,0,.22v82.44H50.38V80.7c.15.15.15.12,0-.08V68.5q.76,0,0-.15V54c.41,0,.63-.18.68-.53a.88.88,0,0,0-.15-.61.3.3,0,0,1-.3.23.32.32,0,0,0-.08-.23q-.08,0-.15.15c.2.05.2.2,0,.46V37.73c.1.06.15.11.15.16a4.18,4.18,0,0,1,.31-1c0,.2.12.3.22.3a1.24,1.24,0,0,1,.08-.37v-.38a1.24,1.24,0,0,0-.76.22v-3.1h0V29.1H47.5a.72.72,0,0,0,.38-.53c.1-.2.08-.31-.08-.31,0,.16-.12.23-.22.23,0-.4-.1-.61-.15-.61h.07a.56.56,0,0,1-.23-.07c-.05.15-.2.13-.45-.08.45.71.38,1-.23.76.2-.25.38-.25.53,0a.47.47,0,0,1,0,.61H45.83c.05-.91.08-1.67.08-2.28V24.93a.77.77,0,0,0,.3-.15.35.35,0,0,1,.38-.08q.15,1.82,1,1.14c-.26-.05-.43-.33-.53-.84a1.17,1.17,0,0,0-.46-.83c-.1.25-.2.36-.3.3.1-.2.23-.5.38-.9s.25-.69.3-.84c.15.1.18.13.08.08,0,.25.3,0,.91-.91l.45-.15a.85.85,0,0,1-.53.91c1-.36,1.34-.63,1-.84,0,.36-.16.31-.46-.15s-.28-.61.08-.61c-.05.31,0,.38.3.23s.5-.1.61.31a1.08,1.08,0,0,1,.22-1.07,4.47,4.47,0,0,0,.84-.75.51.51,0,0,1-.31-.23c-.1-.15,0-.23.16-.23a4.94,4.94,0,0,0,.83,1.14c.45.4.68.38.68-.08,0,.1.1.2.3.31a.37.37,0,0,1,.16.45,3.77,3.77,0,0,0,2-.61q.3.07.75.84c.31.4.48.55.53.45a2.12,2.12,0,0,1,.16-1.89c.3.2.48.28.53.23s0-.21-.31-.46a3,3,0,0,1,.61.23,1.74,1.74,0,0,0,.45.23c.2.1.33,0,.38-.31.56-.2.78-.12.68.23a.22.22,0,0,1-.15-.08c0-.1.08-.15.23-.15-.2-.05-.18.51.08,1.67a.56.56,0,0,0-.69.23c-.2.25-.15.4.16.45.05-.15.22-.3.53-.45A11.81,11.81,0,0,0,58.11,23c-.15-.15-.56,0-1.21.38.6.1.91.2.91.3-.36,0-.43.1-.23.3.35.36.48.66.38.91a.67.67,0,0,0-.3.08c-.11.1-.18.15-.23.15-.1-.45-.18-.55-.23-.3-.1.45-.18.68-.23.68a.8.8,0,0,0-.22-.68c-.26-.31-.41-.33-.46-.08.2.05.2.23,0,.53a.84.84,0,0,1,.61,1c0,.6.07,1,.38,1.21q.53-1.14.3-1.14l-.08,1.59c-.5-.05-.65.06-.45.31.4.4.43.78.07,1.13,0-.45-.12-.58-.37-.37-.41.25-.66.35-.76.3-.81-.76-.94-1.24-.38-1.44-1.36-.46-1.9-.84-1.59-1.14,0,.1-.31.63-1.06,1.59.5,0,.63.41.38,1.06s-.59.64-.69-.07c-.15.6-.25.91-.3.91-.2,0-.3.07-.3.22.76-.15,1.13,0,1.13.54a.71.71,0,0,1-.3-.16.52.52,0,0,0-.38-.15q.54,1.22.15,1A2.62,2.62,0,0,1,54,30.84q.67-.22.15-.3.15-.69.3-.69c.81.86,1.22,1,1.22.31-.06,0,0,.05.07.15-.1.3-.07.48.08.53a2.06,2.06,0,0,1,.07-.38,8.36,8.36,0,0,0,1.06,1,16,16,0,0,1-.15,2.5q-.68.07,0,.15c-.1,1.46-.48,2.3-1.13,2.5.6-1.26.65-2,.15-2.12a11.69,11.69,0,0,1-.38,2.12,1.92,1.92,0,0,1-1,1.44L54.4,38c-.31.15-.43.26-.38.31a.3.3,0,0,0,.3.15.82.82,0,0,1-.07.3c-.06.15-.11.23-.16.23s.13.28.38.38a.78.78,0,0,1,.53-.69c0,.11,0,.16.08.16s.15,0,.15-.16c-.66-.15-.91-.25-.76-.3s.18-.07.08-.23a3.18,3.18,0,0,1,1,0,2.26,2.26,0,0,0,1-.07c-.41.35-.35.76.15,1.21.15-2.32.28-4,.38-5.08.25,0,.25-.07,0-.22a17.82,17.82,0,0,1,.68-3.41,6.92,6.92,0,0,1,1.44.6,2.27,2.27,0,0,1-.08-1.06,1.27,1.27,0,0,0-.07-.6l-.76.83c.1-.25,0-.43-.3-.53s-.38-.25-.38-.46a6.37,6.37,0,0,1,1-3.71c-.3-.5-.12-.65.53-.45a.55.55,0,0,0,.38.22c.2,0,.33-.05.38-.15a.2.2,0,0,1-.23-.23c0-.15.08-.22.23-.22a1,1,0,0,1,.08.45,2.23,2.23,0,0,0,.15.53.43.43,0,0,0-.15.31c0,.1.1.05.15-.16a.71.71,0,0,0,.38.31c.1-.26.23-.38.38-.38.65.2.86.28.6.23,0-.66,0-.91,0-.76.21.2.31.15.31-.15-.15,0-.31-.13-.46-.38a.62.62,0,0,0-.45-.31c0,.11-.08.18-.23.23s-.23.13-.23.23a.24.24,0,0,0-.3.07,5.37,5.37,0,0,0,.08-1.43c.65,0,1,.1,1,.3-.45-.15-.56-.43-.3-.83.5-.81.73-1.14.68-1,.1-.05,0,0-.38.15a.3.3,0,0,0-.3-.15,3,3,0,0,0-.15.38l-.61.3a.25.25,0,0,0-.23-.15c-.05-.25,0-.18.08.23l-.91.68a26.69,26.69,0,0,1-.53-2.88c.3-.05.48-.13.53-.23-.35-.1-.51-.17-.46-.22.61-.11.81.15.61.75l.76-.45a1.29,1.29,0,0,0,.53.53q-.08.07.15.15v-.08a2.19,2.19,0,0,1,.23.46,2.63,2.63,0,0,1-1.22-.23c-.3-.1-.37-.07-.22.08s.38.23.38.38c-.21.65-.28.86-.23.6a1.78,1.78,0,0,0,1.14-.53,1.12,1.12,0,0,1,.83-.3c0,.05.08-.18.08-.68a1.58,1.58,0,0,0-.91-.46,2,2,0,0,1-1-.38h.76c.35.05.58.08.68.08s.38.2.38.3c-.15.05-.18.13-.08.23a.47.47,0,0,0,.31.3,1.44,1.44,0,0,1,.22-.75c0-.11-.1-.16-.3-.16a1.2,1.2,0,0,0,.23-.3.73.73,0,0,1-.38-.76c.15-.05.23-.12.23-.22l-.15-.08a8.44,8.44,0,0,1,.68-.83,2.54,2.54,0,0,1-.38-.08h-.3c.1-.15.22-.35.37-.61a1.31,1.31,0,0,1,.31.23.94.94,0,0,0-.15-.53c.15-.25.1-.33-.16-.23,0,0-.07,0-.07.08h-.23c0-.15.13-.35.23-.61.05.06.05.08,0,.08V16a1.11,1.11,0,0,0,.07-.31h-.15a.29.29,0,0,0-.07-.22c-.26,0-.08-.25.53-.76-.26,0-.48.15-.68.61-.31-.31-.56-.38-.76-.23.2-.1.23-.28.07-.53s0-.33.23-.38a.22.22,0,0,0,.08.15q.08,0,.15-.15a.55.55,0,0,0-.68-.15c-.31.05-.46-.08-.46-.38a6.63,6.63,0,0,1,1.52-.76q.22,1,0,1.14c0-.46-.13-.68-.23-.68-.1.6,0,1,.23,1.13a1.35,1.35,0,0,0,.53-1.06,1,1,0,0,0-.53-1.06v.3a1.11,1.11,0,0,0-.46-.07,2.06,2.06,0,0,1-.38.07q-.37-.08-.3-.9c.4.1.63.12.68.07.31.2.25-.12-.15-1a1.54,1.54,0,0,0,.46-.08c.2-.1.35-.13.45-.08s0,.08.08-.22h.15c-.05-.15,0-.26.07-.31,0,.21.13.31.23.31l-.08-.38c.31-.1.46-.2.46-.31-.2,0-.2-.22,0-.53h-.08L63,9.17a.66.66,0,0,0,.68.07.84.84,0,0,0,0-1.06c-.2-.3-.13-.5.23-.6a1,1,0,0,1-.08-.68c0-.26,0-.41-.15-.46a1.23,1.23,0,0,0-.3.68q-.08-.15,0-.15a1.33,1.33,0,0,0-.3.08L63,6.9c.1-.31.4-.48.91-.53s.58-.11.53-.16-.2-.12-.15-.22,0-.26-.08-.31c-.25.36-.4.33-.45-.07A.47.47,0,0,1,64.17,5,7.58,7.58,0,0,1,63,4.55s0-.16,0-.31.1-.07,0-.07a5.46,5.46,0,0,0-.23-.68c.15-.11.13-.18-.07-.23a.34.34,0,0,0-.31,0c-.05.05,0,.12.23.23-.2.1-.4,0-.61-.23s-.2-.51,0-.61H61.6l.15-.38.83.08a.72.72,0,0,1,.38.53A1.39,1.39,0,0,0,63,2.05a.41.41,0,0,1,.3-.08l-.15.15h.22c-.1.15-.1.26,0,.3l.46-.07c.3,0,.48-.05.53-.15h.15s0,.12.15.22,0,.11-.53.46c0-.2-.15-.28-.3-.23v.46c.05.2.15.27.3.22q-.08-.3.3-.45c.26,0,.38-.18.38-.38A.19.19,0,0,0,65,2.42a1.48,1.48,0,0,1,.54.91q1-.22.75,0,1.14.07,1.14-.45-.45-.22-.3-1.29c.15-.1.17-.2.07-.3a1.76,1.76,0,0,0,0-1.06c0,.2-.15.38-.45.53a1,1,0,0,0,0-.76h3V1.06l-.91.15a2.36,2.36,0,0,1,.91.38V21.44c-.25-.55-.48-.58-.68-.07.05,0,.22.2.53.6a.62.62,0,0,0-.08.38h.23V24.1q-.3,0,0,.15v.6c-.1.15-.2.11-.3-.15s-.21-.45-.31-.45a.68.68,0,0,0,.15.75.2.2,0,0,1,0,.31c0-.25-.07-.38-.22-.38a1.32,1.32,0,0,1,.15.38l-.15.15c.1,0,.17.1.22.3s.05.41.16.46a1,1,0,0,1,.3-1v1.82a2.59,2.59,0,0,0-.53.61.47.47,0,0,1,.15-.31c-.1.06-.25,0-.45-.07s-.26-.23-.31-.23c.31-.86.46-1.19.46-1-.31-.11-.51,0-.61.22s-.33.36-.53.31c0-.36,0-.53,0-.53s-.18,0-.53-.23a1.33,1.33,0,0,1-.08.3c0-.1-.17-.12-.37-.07s-.16.05.15.15.27,0,.22-.08a4.81,4.81,0,0,0-.07.91s0,0,.07.08a1.08,1.08,0,0,1-.6,1.13c.15,0,.2.08.15.23a.15.15,0,0,0,.08.23.92.92,0,0,0,.6-.53,10.47,10.47,0,0,0,1.06-.38.3.3,0,0,1,.15.3c-.4.46-.65.73-.75.84s-.26.05-.16.15L67,30.16c.3-.36.22-.61-.23-.76-.1.25-.33.3-.68.15s-.49,0-.53.38c.5-.05.58.1.22.45.36-.2.53-.05.53.46s.08.48.23.23c0-.41.18-.56.68-.46a.91.91,0,0,0-.22.84,1,1,0,0,0,.45.6,9.28,9.28,0,0,1-1.21,2.2,6.64,6.64,0,0,0-.91,2,9.47,9.47,0,0,1,1-1.28c.46-.56.61-1,.46-1.29q.38-.07,1.29-1.29l.07.08L68,32.43l.15-.15c0,.2.23.28.68.23-.1-.46.2-.56.91-.31v1a1.42,1.42,0,0,0-.08.45c-.6,0-1,.43-1.06,1.29a1.35,1.35,0,0,0,1.14-.6V35l-1,.15c-.1.76,0,1.24.38,1.44a.44.44,0,0,0,.23-.53l.38-.31V37c0-.15,0-.23-.15-.23a1.09,1.09,0,0,0,.15.45v1.44c0-.15-.1-.22-.15-.22a1.09,1.09,0,0,0,.15.45v2.88a.32.32,0,0,0-.23-.08c0,.46-.38.64-1,.54s-.94,0-1,.22c.1.26.33.33.68.23s.46,0,.46.08c0,.4,0,.53-.15.37s-.31-.12-.31.08q1,1.37.84,1.29c-.15-.51.07-.84.68-1v3.64c-.51-.1-.56,0-.15.23h.15v.38c-.1-.2-.15-.16-.15.15v.53a.22.22,0,0,0,.15-.08v2.35c-.25.05-.41.13-.46.23a.6.6,0,0,1,.46.3,2.52,2.52,0,0,1-.83.15c-.31.05-.33.26-.08.61,0,0,.3-.15.91-.3Zm-24-34.86v.08l.08-.08Zm.46,2.5q-.07-.07-.3.15A.3.3,0,0,0,46.29,20.76Zm-.08-2v-.07h-.07C46,18.72,46.06,18.74,46.21,18.79Zm3.19-.53c.05-.2,0-.33-.16-.38s-.2-.05-.3.15c.4.51.38.74-.07.69a1.11,1.11,0,0,1,.37,1.21,2.47,2.47,0,0,0-.75-.15c.4-.41.4-.43,0-.08l-.08.08a1.82,1.82,0,0,0-.61.3c.11.2.28.23.53.08s.36,0,.46.22a.92.92,0,0,1-.91.31.84.84,0,0,0-.83.3.66.66,0,0,1,.68.53,1,1,0,0,0-.53.23,2.27,2.27,0,0,1-.83,0q.15-.08.15-.15h-.38c-.1-.21,0-.38.23-.54s.32-.2.22-.3a1.69,1.69,0,0,0-.22-.53c.15-.65.12-1.08-.08-1.29a1.15,1.15,0,0,0,.3-.22c.31.15.46.2.46.15s.15.17.15.22a1.2,1.2,0,0,1,.3-.75l-.15-.08h.15a2,2,0,0,0,.46.38q0-.23.45-.45a.63.63,0,0,0,.3-.69,1.19,1.19,0,0,0-1,.38q.15.07.15.15s0,.11-.15.16a6.06,6.06,0,0,1-.15-.61,1.23,1.23,0,0,0-.23-.61.79.79,0,0,0,.76-.45c-.15-.15-.41-.43-.76-.84l.23-.22a.72.72,0,0,1-.53-.23c.45,0,.58,0,.38-.15-.36-.25-.48-.43-.38-.53-.1.15-.31,0-.61-.3a.43.43,0,0,1,.15-.31c.51.41.91.46,1.21.15a.77.77,0,0,0-.53-.3,2.08,2.08,0,0,0-.37-.23c-.21-.05-.31-.12-.31-.22l.15-.23c.16.15.38.07.69-.23-.36.56-.21.73.45.53a.32.32,0,0,0-.08.23s0,0,0,.07a.44.44,0,0,0,.31.54,4.86,4.86,0,0,1,.6.37c-.25.05-.27.21-.07.46.35.45.5.63.45.53-.25,0-.43.07-.53.38-.2.55-.28.81-.23.76a1.67,1.67,0,0,1,1.6.83A1.29,1.29,0,0,1,49.4,18.26Zm-2.81,3.79a.65.65,0,0,0-.38.68s.21-.15.46-.45Zm.23-7.27c0-.11-.13-.16-.38-.16a1.51,1.51,0,0,1,.08.31Q46.82,14.86,46.82,14.78ZM47,17.2l.08-.08a.21.21,0,0,0,.07.16.91.91,0,0,1,.23.15c0-.15-.3-.41-.91-.76a2.27,2.27,0,0,0,.08.53A.69.69,0,0,1,47,17.2ZM60.46,0a.62.62,0,0,0-.08.23c-.15,0-.12,0,.08.07h0c-.66,0-1.06.26-1.21.61a.21.21,0,0,1,.15.3c-.1.1-.08.18.07.23.05-.15.13-.2.23-.15s.35.13.46-.08v.46a.47.47,0,0,0-.31.22c.25,0,.28.13.08.38s-.1.38.15.38a.59.59,0,0,1,.15-.53,3.92,3.92,0,0,1-.53,2.65c-.15-.15-.08.81.23,2.88l-1,.61a4.14,4.14,0,0,1,.68.53,49,49,0,0,1-1.43,9.4c-.06-.11-.23-.18-.53-.23s-.28.07.07.23.46.25.3.6a.88.88,0,0,1-.6.53,7.67,7.67,0,0,1-1.59-.38c-.51-.15-.53-.3-.08-.45a43.18,43.18,0,0,1-4-2.88A1.66,1.66,0,0,0,53,15.46c-.05.4.17.58.68.53a.44.44,0,0,0,.15-.46.43.43,0,0,1,.15-.45c-.45,0-.63-.25-.53-.76s.05-.63-.15-.53a.66.66,0,0,1-.53.68c.05-.3-.08-.43-.38-.38-.5.05-.83,0-1-.15a1.15,1.15,0,0,1-.61.84.72.72,0,0,0-.45.68c.6,0,2,1.06,4.09,3.18-.11.61-.38.94-.84,1a11.71,11.71,0,0,0-1.44.31,12.76,12.76,0,0,1-1.51-2.05c-.66-.91-1.16-1.56-1.52-2,.56.1.81-.2.76-.91-.05-.1-.23-.15-.53-.15,0-.1-.1-.12-.15-.07-.15-.11-.2-.31-.15-.61a.49.49,0,0,0,.38,0c.15,0,.07-.05-.23-.15a.21.21,0,0,0-.15.07v-.15a1.87,1.87,0,0,0,1.06,0,.79.79,0,0,1,.83.15,1.33,1.33,0,0,0-.68-.75c-.41-.31-.63-.41-.68-.31.3.21.3.28,0,.23s-.46-.08-.46-.23a.34.34,0,0,1-.3.46c-.3.1-.46.18-.46.22a.44.44,0,0,1,.23-.37,1,1,0,0,0,.31-.31c-.76-.35-1.17-.48-1.22-.38.46,0,.71-.05.76-.15-.56-.05-.78-.22-.68-.53a.25.25,0,0,1,.23.15.83.83,0,0,1,.22.16,4.39,4.39,0,0,1-.07-.84,1.63,1.63,0,0,0-.08-.83,1.22,1.22,0,0,0-.6,0,2.6,2.6,0,0,1-.61.15,3.73,3.73,0,0,1-.23-1.44.91.91,0,0,1,.23-.15,1.2,1.2,0,0,1,.3-.23,1.14,1.14,0,0,0-.07.3V9.4a1.43,1.43,0,0,1,.07-.46,21.53,21.53,0,0,0,2.81-2.27c.2,0,.27,0,.22-.15a25.28,25.28,0,0,0,4.1-4.93,1.14,1.14,0,0,0,.83-.38l.07.15c0-.35-.12-.53-.22-.53,0,.26.1.38.15.38-.46.15-.63.13-.53-.07L54.7.83s.08,0,.08-.15l.15-.15s0,.08.07.08c.41,0,.56,0,.46-.08A2.47,2.47,0,0,0,55,.38l.08-.15A.91.91,0,0,1,55.23,0h4.09c0,.15.2.23.46.23S60.05.15,60,0ZM47,16.22a.4.4,0,0,0-.3.45A.4.4,0,0,0,47,16.22Zm.3,7.88c-.5.4-.63.15-.37-.76,0-.05.07.05.22.3Zm0,.07c-.4.15-.4.23,0,.23,0,.05.08.1.23.15.41-.1.43-.18.08-.23C47.63,24.32,47.53,24.27,47.27,24.17ZM49.17,28c-.15-.56.17-.94,1-1.14-1.66-.3-2.37-.35-2.12-.15.76-.05,1.11-.36,1.06-.91a21.44,21.44,0,0,0-2,1.29,5.79,5.79,0,0,1,1.66.83C48.71,27.76,48.87,27.78,49.17,28Zm-1.59-9.55c.05.35.12.53.22.53C47.7,18.67,47.63,18.49,47.58,18.49Zm.53-8.41a.56.56,0,0,1,.07-.23c.1-.1.15-.18.15-.23s-.2-.07-.15-.22c-.35,0-.53.12-.53.22.2.05.2.21,0,.46Zm.3,9h0a.21.21,0,0,0-.15-.07C48.31,19,48.36,19,48.41,19.09Zm1.74,3.72c-.1-.35-.17-.53-.22-.53C50,22.63,50.1,22.81,50.15,22.81Zm.69,2.12c-.51.2-.74.13-.69-.23.21,0,.21.15,0,.46A.74.74,0,0,0,50.84,24.93Zm.3-4.4a2.24,2.24,0,0,0-.53.23C51,20.66,51.14,20.58,51.14,20.53Zm-.3,1.52c-.05-.3-.13-.45-.23-.45C50.71,21.9,50.79,22.05,50.84,22.05ZM50.61,31c.45.05.68.05.68,0-.3-.1-.45-.18-.45-.23a.72.72,0,0,0,.37-.15.89.89,0,0,1,.38-.07,1.1,1.1,0,0,0-.45-1A2.79,2.79,0,0,1,50.61,31Zm0,22.35c0,.31.12.46.23.46C50.73,53.5,50.66,53.34,50.61,53.34Zm0,14.7c.1.36.18.53.23.53C50.79,68.22,50.71,68,50.61,68Zm2,15.16a.48.48,0,0,0-.15-.61.54.54,0,0,1-.22-.6q.15.15.75,0a1.11,1.11,0,0,0-.38-.38c-.25-.15-.37-.1-.37.15-.11.1-.08-.35.07-1.37.15-.8.43-1,.83-.53l-.9-.75a37.93,37.93,0,0,0-.69,5.68c-.25,2.83-.45,4.62-.6,5.38a.59.59,0,0,1,.22.08h.23c0,.1.08-1.29.23-4.17C51.77,84.41,52.1,83.45,52.65,83.2ZM51.06,10c.2-.1.31-.17.31-.23C51,9.57,50.91,9.65,51.06,10Zm.31,12.05c-.11-.3-.21-.45-.31-.45C51.16,21.9,51.26,22.05,51.37,22.05ZM51.06,38h.76c.25,0,.33-.15.23-.45-.3-.1-.46-.18-.46-.23a.29.29,0,0,0,.23-.3c-.3-.1-.38-.1-.23,0q-.15.6,0,.75A2.24,2.24,0,0,0,51.06,38Zm.31.68s0-.1-.16-.15-.1,0-.15.15c.2.06.31.13.31.23s-.16.05-.16.15,0,.1.16.15c0-.2.07-.3.22-.3,0,.2.08.25.23.15a.9.9,0,0,0,.23-.38c-.1,0-.18-.07-.23-.22s-.18-.23-.23-.23C51.49,38.49,51.42,38.64,51.37,38.64Zm-.16-9.77c.11,0,.21.1.31.3a.27.27,0,0,0,.38.23c0-.45,0-.71-.15-.76-.06.15-.13.2-.23.15S51.26,28.77,51.21,28.87Zm.23,25.69c.35-.76.31-1.17-.15-1.22a.8.8,0,0,1,.08.76C51.32,54.35,51.34,54.51,51.44,54.56ZM52.5,14.47c.25.1-.07.23-1,.38,0-.2-.05-.28-.15-.23,0,.46.1.59.45.38a1.61,1.61,0,0,0,.38-.3Zm.76,10.23c0,.2-.18.33-.53.38-.1-.15-.18-.15-.23,0-.71,0-1,.05-.91.3h.16c-.21.26,0,.89.53,1.9-.66.4-.91.71-.76.91,0-.15.12-.23.38-.23s.3.15.3.3c-.05-.05-.1,0-.15.08s.05.1.15.15a2.89,2.89,0,0,0,.23-.91,2.23,2.23,0,0,1,.38-1l-.53-.31a.47.47,0,0,1,.22-.22c.15-.05.23-.13.23-.23a.22.22,0,0,1-.15-.08q0-.07.15-.15l.15.08c.15.1.1.4-.15.91a1.13,1.13,0,0,0,1-.53c-.35-.11-.37-.16-.07-.16s.48.05.53.16C54.22,25.66,53.92,25.21,53.26,24.7Zm-1.14,1.52s0-.23.08-.53,0-.31-.23-.31a.45.45,0,0,1-.22.23A1.26,1.26,0,0,0,52.12,26.22Zm-.3,23.18c.1.31.18.46.23.46C52,49.56,51.92,49.4,51.82,49.4ZM53,78a4,4,0,0,1-.38-.76,3.57,3.57,0,0,0,1.29-1.06c-.5-.35-.73-.68-.68-1a1.12,1.12,0,0,0,.91.3,2.42,2.42,0,0,0-.38-.61c-.25-.2-.38-.35-.38-.45-.25-.3-.18-.61.23-.91h-.46a2.2,2.2,0,0,0-.53-.08,1.59,1.59,0,0,1-.22,1.52c-.31.3-.43.5-.38.6.4-.25.53.23.38,1.44s0,1.82.15,1.67C52.58,77.84,52.73,77.62,53,78Zm0-55.92c-.3.15-.48.05-.53-.3s-.15-.48-.45-.38q.6,1.21.45,1.44c0-.15,0-.23.15-.23.16.15.23.18.23.08,0,.05.1,0,.15-.08C52.83,22.53,52.83,22.35,53,22.05ZM52.5,53.72c-.2,0-.33,0-.38.08s.08.15.38.15Zm0-34.7c-.1-.35-.17-.53-.22-.53C52.38,18.84,52.45,19,52.5,19Zm.08,8c-.1-.3-.18-.45-.23-.45C52.4,26.9,52.48,27.05,52.58,27.05ZM52.5,37.28c-.1.45-.12.71-.07.76l.15-.15q0,.3.15.3a2.54,2.54,0,0,1-.08-.38,1,1,0,0,1,.53,0c0,.3.13.48.23.53q0-.23.3-.3a.35.35,0,0,0,.23-.38c-.3-.1-.55-.18-.76-.23A2.48,2.48,0,0,1,52.5,37.28Zm.23-.53c0-.3-.13-.46-.23-.46C52.6,36.6,52.68,36.75,52.73,36.75Zm.45,40.08a.89.89,0,0,0,.23-.68c0-.35-.12-.53-.38-.53a2.26,2.26,0,0,1-.22.76C52.75,76.58,52.88,76.73,53.18,76.83Zm.08,4.47c.3-.3.25-.53-.15-.68a1.14,1.14,0,0,1-.3.68h.45Zm-.15-42.81c-.2.46,0,.63.45.53s.56-.3,0-.45C53.56,38.77,53.41,38.75,53.11,38.49Zm.53-23c-.3.05-.46.11-.46.15C53.49,15.64,53.64,15.58,53.64,15.53Zm-.46,54.18a25.8,25.8,0,0,1,0,3.26c0-.3.11-.83.16-1.59.25.15.37.15.37,0a.43.43,0,0,1,.38-.46c-.5,0-.6-.22-.3-.53l.61-.6-.76.38c.3-1,.43-1.39.38-1.14.1-.3-.05-.56-.46-.76A2,2,0,0,0,54,67.06a1.41,1.41,0,0,1,.68-1.29c-.56-.3-.73-1.24-.53-2.8a7.77,7.77,0,0,0,0-3.19Q53.18,68.42,53.18,69.71Zm.76,9c-.6,0-.83-.1-.68-.46C54.07,78.22,54.29,78.38,53.94,78.73Zm.68,4.09a1.49,1.49,0,0,1-.68-.46c.76.11,1.16,0,1.21-.45a1.46,1.46,0,0,1-1.13,0,.85.85,0,0,0-.76-.08.66.66,0,0,1,.45.69c-.65,0-.6,0,.16.3S55,83.07,54.62,82.82ZM53.34,55.16a.44.44,0,0,0,.6.23c.25,0,.38-.25.38-.61A1.07,1.07,0,0,0,53.34,55.16Zm.15,16.9q.45.15.45.3a.22.22,0,0,0-.15.08s.05.1.15.15c.05-.2.13-.28.23-.23a1.63,1.63,0,0,1,.08-.45C53.79,71.91,53.54,72,53.49,72.06Zm.15,11.44c.76.1.91,0,.45-.23C53.89,83.17,53.74,83.25,53.64,83.5Zm.07-80.17c.11.31.18.46.23.46C53.84,3.49,53.76,3.33,53.71,3.33Zm.46,2.35c-.1-.3-.18-.45-.23-.45C54,5.53,54.12,5.68,54.17,5.68Zm.3,76a.66.66,0,0,0-.07-.3c-.11-.1-.15-.18-.15-.23s.15,0,.15-.07,0-.1-.15-.16-.26.26-.16.61S54.37,81.94,54.47,81.68Zm.08-53a2,2,0,0,1,.07-.45v-.46c.36-.1.53-.17.53-.22a1.16,1.16,0,0,1-.53-.16.81.81,0,0,0-.45-.15.35.35,0,0,0-.08.38q.24.08,0,.15l.23.46A.93.93,0,0,1,54.55,28.64Zm-.23-12.35v-.53c-.1,0-.18.08-.23.23A.3.3,0,0,0,54.32,16.29ZM54.32,3a1.42,1.42,0,0,0-.15-.54Q54.25,3,54.32,3Zm2.8,52.28c.21,0,.36.18.46.53s.25.45.45.45a5.1,5.1,0,0,1,.69-.15,12.77,12.77,0,0,1-1.06-.76c-.26-.2-.26-.53,0-1-.16-.1-.38,0-.69.23s-.43.17-.53-.08a1.09,1.09,0,0,0,.76-.38c.3-.25.33-.43.08-.53-.21.1-.48-.4-.84-1.51a1.15,1.15,0,0,1,.76-.61c-.05,0,0,.13.08.23a.53.53,0,0,1,.07.22.61.61,0,0,1-.23-.07c-.1-.1-.17-.15-.22-.15a.9.9,0,0,0,.45,1c.41.26.71.26.91,0q-.3-.07,0-.45c-.45,0-.66-.13-.6-.38s0-.56-.23-.61.2-.45,1.51-1.36a.9.9,0,0,0-.83.23L58,49.93c.1-.1,0-.12-.3-.07s-.28,0,.07.15c-.1.05-.07.05.08,0a.45.45,0,0,0,.07.45.86.86,0,0,0-.15.31.41.41,0,0,0-.53-.38c-.3,0-.43-.23-.38-.68.51,0,.68-.38.53-1.14.25.15.41.18.46.08s0-.16-.08-.31a.72.72,0,0,0,.46,0c.15-.05.07-.12-.23-.22-.15.05-.23.1-.23.15q-.15-.23-.3-.15c.6-.16,1.13-.84,1.59-2-.56.1-.86,0-.91-.23a2.71,2.71,0,0,0,.83-1.21q.23.23.15-.15c-.1-.35-.07-.56.08-.61l-.76.46c0-.15-.07-.23-.22-.23a1,1,0,0,1,.07.68l-.07-.15c0,.2-.16.33-.46.38s-.56.07-.61.23l.16.15c-.05,0,0,.07.07.07a.91.91,0,0,0,.23.16.25.25,0,0,1,.23.15c0-.26-.21-.1-.76.45a2,2,0,0,0-.3-.53,1.91,1.91,0,0,1-.38-.61.9.9,0,0,1,0-1.21,1,1,0,0,0,.45.23,1.8,1.8,0,0,0-.23-.46l.46-.3c-.1.2,0,.41.3.61s.38.13.38-.08V43.8c.1,0,0,0-.23-.16a1.74,1.74,0,0,0-.45-.3l-.68-.3q.38.08.15-.15c.15-.26.2-.38.15-.38a.74.74,0,0,1-.53-.23c.5,0,.63-.45.38-1.51.5,0,.5-.08,0-.23v.07a4.1,4.1,0,0,1-.15-.9A8.28,8.28,0,0,0,55.91,43a5.5,5.5,0,0,1-.83,3.34.22.22,0,0,1-.15-.08c-.56.2-.56.28,0,.23-.21.2-.28.3-.23.3a.45.45,0,0,0-.45.08c-.11.15-.06.28.15.38a1,1,0,0,1,.75-.38c-.15.1,0,.12.38.07l.08.15a10.82,10.82,0,0,0-.15,5.23.91.91,0,0,1-.23-.15c-.1-.1-.18-.15-.23-.15a19.79,19.79,0,0,1-.3,2.73q0-.08-.3-.15c.55-.16.65-.1.3.15a11.78,11.78,0,0,0-.23,3.86,7.56,7.56,0,0,0,.15-2.12c.51,0,.74-.07.69-.38a1.26,1.26,0,0,0-.31-.76c.26.16.41.08.46-.22s.1-.51.3-.46c.3-.1.46,0,.46.31s0,.5.15.45l.15-.15s.1,0,.15.15a1,1,0,0,0-.45.38c-.16.25-.11.38.15.38.05-.2.17-.2.38,0s.37.28.53.07,0-.4-.31-.6S56.82,55.34,57.12,55.24Zm-2.72-1.9c0-.3-.11-.45-.15-.45C54.29,53.19,54.35,53.34,54.4,53.34Zm.07,6c0-.35,0-.53,0-.53s-.18.08-.22.23A.29.29,0,0,0,54.47,59.33Zm.08,11.37c0-.31-.13-.46-.23-.46C54.42,70.54,54.5,70.7,54.55,70.7Zm1-3.72a1.36,1.36,0,0,0-.83-.22c-.41-.05-.45.07-.15.37-.2.21-.2.38,0,.54.45.35.68.5.68.45.1-.3.18-.45.23-.45.35.15.55.55.6,1.21s-.2,1-.75,1c.15,0,.3.13.45.38a1,1,0,0,0,.46.38,1.14,1.14,0,0,1,1.06-.91.65.65,0,0,1-.61-.61c0-.4,0-.6-.08-.6-.05.2-.17.15-.37-.15a2.17,2.17,0,0,1-.23-.84.65.65,0,0,0-.61,0,.74.74,0,0,1-.6.16c-.06-.36-.13-.54-.23-.54q0-.3.45,0C55.31,67.34,55.48,67.29,55.53,67ZM54.4,69.26c.1.1.17.12.22.07s0-.15-.07-.15S54.45,69.16,54.4,69.26Zm.3-35.62c-.1-.3-.18-.45-.23-.45C54.52,33.49,54.6,33.64,54.7,33.64Zm1.67,50.77c0-.76.3-1,1.06-.61,0-.3-.1-.45-.31-.45a.35.35,0,0,1-.37-.3l-1,.6a.6.6,0,0,0,.38-.68c-.1-.3-.3-.33-.61-.07-.65-.31-1,0-1,.9.5-.2.83-.22,1-.07A7.53,7.53,0,0,0,56.37,84.41ZM54.78,25.54c-.31.6-.26,1,.15,1.28a.71.71,0,0,0,1,0c-.15,0-.2-.07-.15-.22s0-.23-.07-.23a.62.62,0,0,1-.76.38C54.72,25.94,54.67,25.54,54.78,25.54Zm.07,5.53a.25.25,0,0,0-.23.15.3.3,0,0,0,.23.3Zm.38,2.42s-.08,0-.08-.07c-.25.1-.35.17-.3.22h.38c0,.21,0,.23.15.08a3,3,0,0,1,.38-.61c.2-.3.18-.5-.07-.6A3.33,3.33,0,0,0,55.23,33.49ZM55.38,82a1,1,0,0,1-.23.3,1.61,1.61,0,0,0-.3.38.56.56,0,0,0,.68-.23Q55.85,82.07,55.38,82Zm-.15-11c0-.1.13-.18.38-.23s.33,0,.38-.15c-.1-.3-.33-.33-.68-.08S55,71,55.23,71Zm.08-46.07c-.11-.05-.18,0-.23.15a.29.29,0,0,0,.23.3Zm-.23,35.61c.05.31.12.46.23.46C55.2,60.69,55.13,60.54,55.08,60.54Zm.23-25.91c.1.35.17.53.22.53C55.43,34.81,55.36,34.63,55.31,34.63Zm.3-30.31c.2-.1.28-.2.23-.3C55.48,3.86,55.41,4,55.61,4.32Zm-.08,24.4c.21,0,.28-.2.23-.46C55.56,28.31,55.48,28.47,55.53,28.72Zm.08-1c.1.36.18.53.23.53C55.74,27.91,55.66,27.73,55.61,27.73Zm.08,27.36q-.09.67,0,.75Q55.77,55.17,55.69,55.09Zm.68-21.3c-.2-.35-.38-.4-.53-.15s-.08.51.22.61a.41.41,0,0,1,.16-.3Zm-.31-10.07c-.25.15-.32.25-.22.3s.15.1.3,0c0,.15,0,.23.15.23,0-.31,0-.46.08-.46a.22.22,0,0,0-.15.08Zm-.15,22.35c.1,0,.2.18.31.53s.27.3.37,0c-.2,0-.27-.08-.22-.23q.52.15.45-.3c0-.3-.18-.43-.38-.38a.49.49,0,0,1-.3.23C56,46,55.91,46,55.91,46.07Zm.38,1a1.36,1.36,0,0,1-.3,1,2.47,2.47,0,0,1,.6-.08.66.66,0,0,1-.07-.3c-.2-.15,0-.08.53.23a1.29,1.29,0,0,0,.91-.46.65.65,0,0,1-.46-.75.48.48,0,0,0,.38-.16c.1-.15.08-.25-.07-.3s-.38.33-.69.83C57,47.36,56.7,47.36,56.29,47.05Zm.15,1.44c0,.46.05.71.15.76a.62.62,0,0,0,.23-.45c0-.15,0-.26,0-.31v-.07h0l.08-.08c-.61,0-.91,0-.91.15h.45Zm.15-21.82c-.45.56-.55.86-.3.91a.57.57,0,0,1,.23-.23c.2-.05.3-.12.3-.22C56.62,27.08,56.54,26.93,56.59,26.67Zm-.07,24a.66.66,0,0,1,.07-.3c.11,0,.16-.1.16-.15-.16-.36-.31-.41-.46-.15S56.22,50.59,56.52,50.69Zm-.08-24.55c-.1-.3-.17-.45-.22-.45C56.27,26,56.34,26.14,56.44,26.14Zm-.15,5.38c0,.46,0,.71,0,.76C56.34,31.82,56.34,31.57,56.29,31.52Zm.08-17q.08.45.15.45Q56.44,14.55,56.37,14.55Zm0,70.09c.05.3.12.48.22.53C56.49,84.82,56.42,84.64,56.37,84.64Zm.45-50.92c-.1-.35-.2-.53-.3-.53C56.62,33.54,56.72,33.72,56.82,33.72Zm.23-16.29a1.28,1.28,0,0,0-.15-.53C57,17.25,57,17.43,57.05,17.43Zm.61,27.2v-.3H57.2v.45h.46Q57.89,44.78,57.66,44.63Zm-.38,19.62c.1.31.17.46.22.46C57.4,64.41,57.33,64.25,57.28,64.25Zm.75-61A1.92,1.92,0,0,0,57.58,3c-.15-.1-.1-.07.15.08Zm.16,37.51c.15-.1.2-.36.15-.76a1,1,0,0,0-.53-.68,3.47,3.47,0,0,1,.15.83A.67.67,0,0,0,58.19,40.77Zm-.31-2.35c0,.3.13.45.23.45C58.06,38.57,58,38.42,57.88,38.42Zm.31,15.68c-.11-.3-.18-.45-.23-.45C58,54,58.08,54.1,58.19,54.1ZM58.34,49c.2.3.3.43.3.38a1.15,1.15,0,0,0-.23-.38c.15-.05.08-.15-.22-.3-.21.1-.26.17-.16.22A.25.25,0,0,0,58.34,49ZM58.19,6c.1.15.17.22.22.22C58.61,5.86,58.54,5.79,58.19,6ZM59.7,24c-.66,0-1,0-1-.08-.21-.55-.36-.48-.46.23q-.07,1.36.15,1c.05-.2.2-.28.46-.23,0-.25.07-.43.38-.53S59.7,24.22,59.7,24Zm-.3,19.4a3.63,3.63,0,0,0-.46-2.35c0,.15-.22.23-.53.23A8.3,8.3,0,0,0,59.4,43.42Zm-.84,4.77c.66-.61,1.14-.65,1.44-.15-.55.1-.6-.13-.15-.68-.45-.1-.68-.2-.68-.31-.1-.3-.18-.45-.23-.45C58.89,47.56,58.77,48.09,58.56,48.19ZM58.79.91q.08.45.15.45Q58.87.91,58.79.91Zm.53,17.88q-.23-.15-.45.15c.2.1.45,0,.75-.22s.26-.33,0-.38c0,.15-.12.22-.22.22,0-.5-.13-.75-.23-.75C58.92,18,59,18.34,59.32,18.79Zm0,3.56a6.38,6.38,0,0,1,.08-.75h-.53Q58.87,22.42,59.32,22.35Zm-.15,21.37c0,.3.13.48.23.53C59.3,43.9,59.22,43.72,59.17,43.72Zm.61,1.44h-.46a.56.56,0,0,1-.07.23v.23l.45.07A1.3,1.3,0,0,0,59.78,45.16Zm-.31,23.57c0-.46-.12-.71-.22-.76C59.3,68.42,59.37,68.68,59.47,68.73Zm1.44-29.56q-1.59-1.05-1.59-.45c1.42.3,2,.53,1.75.68.3.26.45.41.45.46-.05-.26.15-.26.61,0q.38.22.15,0a2.19,2.19,0,0,1-.46-.38c.31.25.48.25.53,0s-.12-.36-.68-.31a.76.76,0,0,0,.15.23c-.2-.2-.3-.28-.3-.23.1-.4-.13-.5-.68-.3A.66.66,0,0,0,60.91,39.17ZM60.08,43a4.9,4.9,0,0,1,0-1.21c-.46,0-.68.13-.68.23s.25.18.3.53S59.88,43,60.08,43Zm-.53-19.62h0Zm-.08,32.5c.26-.05.36.13.31.54s0,.48.3.22c-.15,0-.23-.07-.23-.22.36-.05.53-.13.53-.23-.25.05-.38-.08-.38-.38s-.12-.56-.22-.61A1.63,1.63,0,0,1,59.47,55.84ZM59.62,0h0Zm.08,4.09c-.05-.35-.1-.53-.15-.53A1.34,1.34,0,0,0,59.7,4.09Zm.15,36.68c-.4.4-.33.63.23.68s.71-.08.3-.38a.3.3,0,0,1-.3.23C60,41,60,40.82,59.85,40.77Zm0-34.1c-.1-.3-.18-.46-.23-.46C59.73,6.52,59.8,6.67,59.85,6.67Zm.53,7.65c-.45,0-.71.13-.76.23.56-.2.81-.13.76.23C60.18,14.73,60.18,14.57,60.38,14.32Zm-.3,16.9c.15.55.05.78-.3.68,0-.2.15-.28.3-.23,0,.21.08.28.23.23C60.26,31.45,60.18,31.22,60.08,31.22Zm-.15-7.73v0Zm.53,9.17c.2.05.17.18-.08.38s-.38.5-.22.75c.5,0,.83-.12,1-.37-.51-.1-.56-.31-.15-.61.15-.1.2-.13.15-.08C60.63,32.79,60.41,32.76,60.46,32.66ZM60.31,25v.16c.1-.05.17,0,.22.15a.72.72,0,0,0,.46,0c-.05,0-.05-.08,0-.23a1.29,1.29,0,0,0,.08-.38,3.28,3.28,0,0,1-.61.23C60.56,25,60.51,25,60.31,25Zm.3,19.1c-.1-.3-.18-.46-.23-.46C60.43,44,60.51,44.1,60.61,44.1Zm.68-15.61c.05.15-.15.35-.6.61s-.38.38-.08.53a.64.64,0,0,1,.23-.38l.07.07a1.9,1.9,0,0,1,.31.23,1.23,1.23,0,0,0,.38.08L62.66,29a1,1,0,0,1-.69-.3c0,.4-.35.55-1.06.45C61.37,28.82,61.49,28.59,61.29,28.49Zm.23-24.7a.55.55,0,0,1-.61-.08,2,2,0,0,0,.16.38l.15.23c0,.1-.13.28-.38.53,0,.51.25.81.6.91a4.39,4.39,0,0,1,1.22.45c-.26.26-.31.48-.16.69a1.17,1.17,0,0,1,.69-.69c-.11-.3-.21-.42-.31-.38-.7.11-.91.16-.6.16a4.36,4.36,0,0,0-.08-.84q-.37-.3-.15-.3a.54.54,0,0,0-.53-.3c.1-.31.23-.43.38-.38A.62.62,0,0,0,62.5,4,3.55,3.55,0,0,0,61.52,3.79ZM61.29,16a.54.54,0,0,0-.38.53l.08.07A1.1,1.1,0,0,0,61.29,16Zm-.22,34.32c-.26-.6-.11-.68.45-.22-.51-.61-.66-.71-.45-.31C61.11,50.14,61.11,50.31,61.07,50.31Zm.15-25.08c-.11-.1-.15-.07-.15.08S61.22,25.28,61.22,25.23Zm.15-9.55-.15-.07.07.07Zm.38,24.71a1.15,1.15,0,0,0,.22.3.22.22,0,0,0,.31-.15c-.15,0-.23-.1-.23-.3s0-.28-.23-.38c0,0-.12.15-.38.3s-.25.2-.15.3a.32.32,0,0,0,.23.08S61.6,40.44,61.75,40.39Zm.22,3c.11-.25,0-.46-.3-.61s-.43-.1-.38.15c.2,0,.2.15,0,.46Zm-.68-19.7c.1.3.18.45.23.45C61.42,23.87,61.34,23.72,61.29,23.72Zm.31,22.8a2.24,2.24,0,0,0-.23-.53C61.42,46.35,61.49,46.52,61.6,46.52Zm-.16,8.34c.05.3.13.45.23.45C61.57,55,61.49,54.86,61.44,54.86ZM62.88,9.32a1.15,1.15,0,0,0-.22-.3H62.5V8.94a8.32,8.32,0,0,1-1-.68,4,4,0,0,1,.53.83.28.28,0,0,1,.38,0A.93.93,0,0,0,62.88,9.32Zm-1.36,8v.07c.2-.05.33-.12.38-.23Zm.08,16.14c0,.35.12.53.22.53A1.83,1.83,0,0,0,61.6,33.42ZM61.67,0c0,.25.13.41.23.46A1.1,1.1,0,0,0,61.75,0Zm.15,2.05a.21.21,0,0,0,.15.07c.21-.35.21-.48,0-.38ZM62.05,1c0-.21,0-.31-.15-.31a2.06,2.06,0,0,1,.07.38Zm.08,35.38c-.11-.35-.18-.53-.23-.53C62,36.14,62,36.32,62.13,36.37Zm-.16-25c.11.35.21.53.31.53C62.18,11.59,62.08,11.42,62,11.37Zm.38,15.23c-.1-.31-.17-.46-.22-.46C62.18,26.44,62.25,26.6,62.35,26.6ZM62.2,9.32a1.42,1.42,0,0,1,.08.45A.45.45,0,0,0,62.2,9.32ZM62.5,23c-.1-.31-.17-.46-.22-.46C62.33,22.88,62.4,23,62.5,23Zm0,4.92c-.1-.3-.17-.45-.22-.45C62.33,27.81,62.4,28,62.5,28Zm0-4.47c.21.3.46.25.76-.15s.41-.71.15-.76C63.41,22.43,63.11,22.73,62.5,23.49Zm.91.23c-.35,0-.65.25-.91.75C62.81,24.53,63.11,24.27,63.41,23.72ZM62.73,0a1,1,0,0,0,.46.38c.2.1.32.08.38-.08-.26-.35-.59-.2-1,.46A2.6,2.6,0,0,1,64.17,1a1.09,1.09,0,0,1-.38-1Zm.15,38.8q-.23.68,0,.75c.1.05.18,0,.23-.3l.08.15A1.28,1.28,0,0,0,63,39C63,38.85,62.93,38.8,62.88,38.8ZM63,8.71a.47.47,0,0,0,.37,0c.1-.05,0-.1-.22-.15a.3.3,0,0,0-.23.08Zm.22,53.42a3.8,3.8,0,0,1,1.59,1c.56.55,1,.76,1.37.6-.31,0-.41-.17-.31-.37s0-.33-.07-.38c-.2.25-.48.22-.84-.08a4.31,4.31,0,0,0-.45-.38c-.15-.2-.25-.33-.3-.38.25-1,.5-1.41.75-1.36a5.31,5.31,0,0,1-.53-2.35c-.45-.05-.5-.23-.15-.53-.5-.15-.75-.18-.75-.08.55-.6.83-.88.83-.83a.92.92,0,0,0-.76-.23c-.25,0-.25.18,0,.38,0-.2.13-.27.23-.22.1.3-.08.53-.53.68s-.43.3-.23.45c.15-.1.35.15.61.76s.53.86.68.76c-.2.2-.25.33-.15.38a1.32,1.32,0,0,1,.38.37c-.26,0-.43.26-.53.76A1.12,1.12,0,0,1,63.26,62.13ZM64.4,30.61q-1.07.54-1,0c.1,0,.21.08.31.23s.1.23.15.23.07-.18.23-.23A2.15,2.15,0,0,0,64.4,30.61ZM63.64,4c-.25,0,0,.05.61.15.15,0,.27-.08.38-.38A3.69,3.69,0,0,0,63.64,4Zm0,23.49c.1.3.18.45.23.45C63.82,27.66,63.74,27.51,63.64,27.51Zm.23,13.71c0-.3-.13-.45-.23-.45C63.74,41.07,63.82,41.22,63.87,41.22ZM65.31,67a1.6,1.6,0,0,1-.76-.38.85.85,0,0,0,.76-.45c-.51.15-.73.15-.68,0,.2,0,.27.13.22.23a.53.53,0,0,0-.53.15c-.45-.3-.6-.33-.45-.08a.45.45,0,0,1,.38.23.09.09,0,0,0,0,.15s0,0,.07-.07c.26.4.41.63.46.68s.07-.18.22-.23A.48.48,0,0,0,65.31,67ZM63.87,2.12q.23.15.3,0Zm1,22.58A4.45,4.45,0,0,1,64.32,26a6.64,6.64,0,0,0-.45,1.06,1.59,1.59,0,0,0,.6-.61.81.81,0,0,1,.84-.37c0-.36,0-.46-.15-.31s-.31,0-.31-.15.36-.33.76-.07.63.27.68.07c-.2,0-.4-.2-.6-.61A.65.65,0,0,0,64.85,24.7Zm.23,25.84a.92.92,0,0,0,1.06-.23c.31-.3.28-.55-.07-.75-.11.25-.36.2-.76-.16s-.76-.38-.91-.07l.68,1a.83.83,0,0,0-.68.46c-.2.4-.38.63-.53.68.4,0,.58.23.53.53-.15-.25-.33-.25-.53,0l.76.15c.2,0,.2.18,0,.53a3.23,3.23,0,0,0,1.44,0c-.36-.1-.36-.33,0-.68a4.65,4.65,0,0,1-1.22-.76c.46,0,.66,0,.61-.07A.84.84,0,0,1,65.08,50.54ZM64.4,9s-.05-.1-.15-.15-.08.05-.08.15.28.27.68.38.51.3.46.6c-.31.05-.33.66-.08,1.82a6.63,6.63,0,0,1,.31,2.43h.75c0,.45.13.68.23.68,0-.66-.07-1-.23-1.14a1,1,0,0,1,.91.23,4,4,0,0,0-.07-1.29c0-.25.05-.38.3-.38a6.71,6.71,0,0,1-.61-.91,2.85,2.85,0,0,0-.75-.76c.25.06.32-.15.22-.6s-.28-.66-.53-.61c.56-.6.73-.91.53-.91A.76.76,0,0,1,66,7.5a.77.77,0,0,0-.23-1.06l-.45,1.89c-.1-.3-.18-.45-.23-.45C65.13,8.74,64.9,9.12,64.4,9Zm.91,35.61c-.31-.1-.46-.18-.46-.23.15,0,.23-.07.23-.22a1,1,0,0,1-.45-.08.41.41,0,0,1-.16.3q-.15.08-.15.15C65.08,44.25,65.41,44.28,65.31,44.63Zm-.68-30c0-.3-.11-.45-.16-.45C64.52,14.47,64.58,14.62,64.63,14.62Zm.07,2.88c-.1-.3-.18-.45-.23-.45C64.52,17.35,64.6,17.5,64.7,17.5Zm1.06,19c-.15.91-.53,1.16-1.13.76.05-.15.35-.23.91-.23S66.07,36.88,65.76,36.52ZM64.78,48c0-.35-.1-.53-.15-.53C64.68,47.79,64.73,48,64.78,48Zm.38-30.46c-.16.05-.23.23-.23.53s0,.31.15,0,.13-.25.38-.15.08,0-.08-.07C65.38,17.61,65.31,17.5,65.16,17.5Zm.6-13.94a1.89,1.89,0,0,1-.68,1.9l1,.75c-.06-.75.1-1.23.45-1.44q-.3-1,1.44-.45c.05-.05-.2,0-.76.23a.56.56,0,0,1-.68-.23,3.34,3.34,0,0,0,1.21-.53,1.27,1.27,0,0,0-1-.08A1.1,1.1,0,0,1,65.76,3.56Zm-.22,11.9a1.9,1.9,0,0,1,.37-.53c.21-.2.16-.36-.15-.46-.15.41-.28.31-.38-.3s-.2-.63-.3-.38C65.13,13.89,65.28,14.45,65.54,15.46ZM67,19.7a.32.32,0,0,0,.07.23c.1.1.15.18.15.23s-.15.07-.15.22,0,.23.15.23a3.54,3.54,0,0,0,0-1.14.36.36,0,0,0-.53.23c-.15.3-.28.46-.38.46l-.45-1.75q-.07-.15-.3,1.29a.45.45,0,0,0-.16-.3,1.23,1.23,0,0,1-.07-.38.13.13,0,0,0,.15-.15q.08-.07-.15-.15a1.37,1.37,0,0,0,.38,1.36,1,1,0,0,1,.07,1.29c.46-.1.71-.33.76-.68A1.2,1.2,0,0,1,67,19.7Zm.22-4.24q-1.59-.08-1.89.45a2,2,0,0,0,.3,1c.25.35.53.43.84.22.75.11,1.21.08,1.36-.07-.61-.15-.91-.25-.91-.3s.1-.05.15-.16,0-.07-.15-.07c-.05.25-.18.35-.38.3s-.3-.05-.3,0a.24.24,0,0,1-.15-.23.79.79,0,0,0,.75-.07c.26-.2.23-.33-.07-.38,0,.1-.2.1-.46,0a2.52,2.52,0,0,0-.53-.23.31.31,0,0,0,.31-.23c.05-.15.12-.22.22-.22.1.3.18.45.23.45,0-.15.1-.23.3-.23S67.2,15.56,67.2,15.46Zm-1.89,2.12c.45,0,.7-.13.76-.23C65.61,17.4,65.36,17.48,65.31,17.58Zm0,11.37a1.16,1.16,0,0,0,.83-.53c.2-.36.08-.59-.38-.69a.85.85,0,0,1-.15.69C65.46,28.67,65.36,28.84,65.31,29Zm.45,2.34c0,.21-.07.28-.22.23,0,.1-.08.1-.23,0a3.41,3.41,0,0,1,.23.3l.3.31c.15.15.3,0,.45-.31-.3-.1-.48-.2-.53-.3s.15,0,.15-.07S65.91,31.34,65.76,31.29Zm-.38,14.78c.31,0,.43.18.38.53-.05.15,0,.15.08,0s.28-.08.23-.23l-.31-.45C65.66,45.72,65.54,45.77,65.38,46.07Zm.69,5.38c-.36.1-.53.18-.53.23C65.89,51.63,66.07,51.55,66.07,51.45ZM65.76,13a.81.81,0,0,0,.76.23.4.4,0,0,0,.46-.45,3.13,3.13,0,0,1-.46-1.67c-.4-.05-.58.18-.53.68a1.76,1.76,0,0,0,.3,1A2,2,0,0,0,65.76,13Zm.53,4.32c-.3.61-.3.91,0,.91,0-.15.08-.2.23-.15a.15.15,0,0,0,.23-.08c-.15,0-.23-.1-.23-.3S66.39,17.35,66.29,17.35ZM66.07,0l.22.23c.1,0,.16-.08.16-.23Zm.45,24.47c-.35.06-.33.18.08.38l-.31.31c-.1.1,0,.05.23-.16l.15-.15.08.08a2.52,2.52,0,0,0-.68-1.67v.91Q66.52,24.32,66.52,24.47Zm-.38,44.26q.08.45.15.45Q66.21,68.73,66.14,68.73Zm.08-14.25a.47.47,0,0,0,.53-.15c.15-.2.3-.28.45-.23-.25-.55-.4-.73-.45-.53.2.2.2.38,0,.53A5.3,5.3,0,0,0,66.22,54.48Zm.3-52.36c.1.36.18.53.23.53C66.65,2.3,66.57,2.12,66.52,2.12Zm0,72.82c.1.3.18.45.23.45C66.65,75.09,66.57,74.94,66.52,74.94ZM67,7.88c-.11-.25,0-.48.3-.68s.18-.25-.08-.3c0,.2-.07.27-.22.22A.22.22,0,0,0,66.9,7a.13.13,0,0,0-.15.15c.15-.1.17.08.07.53S66.77,8.13,67,7.88Zm-.23,6.59c0,.46.12.71.23.76C66.92,14.73,66.85,14.47,66.75,14.47ZM69,24.25c0,.15,0,.1-.08-.15v-.38h-.15a3.85,3.85,0,0,1-.23-.38l.15-.3a.5.5,0,0,0-.38,0,.49.49,0,0,1-.22-.23c0-.15.1-.23.15-.23a.54.54,0,0,1-.61-.61q0-.6-.15-.6c0,.2-.05.23-.3.07s-.38-.15-.38.16a1.22,1.22,0,0,1,.76,1.06l-.16.07.16.08a5.83,5.83,0,0,1-.16,1.06c0,.5-.07.86-.07,1.06l-.3.3c-.06.05,0,0,.22-.15l.08-.08a2.5,2.5,0,0,0,.15.38c0-.1.08-.17.23-.22a2.15,2.15,0,0,0,.3-.23c-.3-.25-.38-.43-.23-.53.36-.2.51-.28.46-.23a.57.57,0,0,1-.38-.76H68a1,1,0,0,0,.6,1.06.23.23,0,0,1,.15-.22A.1.1,0,0,0,69,24.25Zm-2.13,41c.1.3.18.45.23.45C67,65.39,66.92,65.24,66.82,65.24Zm.69-14.93c.35-.15.35-.27,0-.38a.88.88,0,0,0-.31-.15c-.45.15-.45.23,0,.23ZM67.13,65c-.21-.55-.13-.78.22-.68a.19.19,0,0,1-.15-.08c-.45.16-.45.23,0,.23C66.85,64.74,66.82,64.91,67.13,65Zm0-26.14c.05.3.12.46.22.46C67.25,39,67.18,38.87,67.13,38.87Zm.45-2.58c-.35-.25-.45-.2-.3.16C67.48,36.4,67.58,36.35,67.58,36.29Zm.53,5.46a.51.51,0,0,1,.08-.76q.38-.3,0-.6c0,.15-.1.2-.31.15s-.37-.08-.37-.23a.21.21,0,0,0,.15-.07c0-.11,0-.16-.15-.16-.31.21-.36.51-.16.91s.23.61.08.76Zm-.68-34.4a.74.74,0,0,0-.08.83c.16.21.36.18.61-.07a.21.21,0,0,1-.23-.23.3.3,0,0,1,.23-.3c0,.1,0,.15.08.15s.1,0,.15-.15c-.2,0-.28-.08-.23-.23ZM68.64,1a1.31,1.31,0,0,0-1-.08c-.31.15-.38.33-.23.53,0-.1.2-.13.61-.08S68.64,1.34,68.64,1Zm-.76,50.54c-.15-.05-.22-.18-.22-.38s-.13-.38-.23-.38a.82.82,0,0,0,.08.76C67.66,51.83,67.78,51.83,67.88,51.53ZM67.73,2.65c-.1-.35-.2-.53-.3-.53C67.53,2.48,67.63,2.65,67.73,2.65Zm-.3,3.56c.1.31.2.46.3.46C67.63,6.37,67.53,6.21,67.43,6.21Zm.3,28.49a.66.66,0,0,0-.3-.07q.15.6.45.6c.21,0,.18-.12-.07-.37a.6.6,0,0,0,.38-.08s0-.05-.23-.15Zm.69-4.09a.57.57,0,0,0-.69.23c-.15.25-.07.4.23.45C68,31.34,68.11,31.12,68.42,30.61Zm0-29.85a.45.45,0,0,0-.23-.53c-.31-.1-.46-.18-.46-.23-.1.25,0,.43.15.53C68.24.63,68.42.71,68.42.76Zm-.31,2c.1-.75,0-1.16-.38-1.21A1.32,1.32,0,0,0,68.11,2.8Zm-.38,24.71v.37c.71-.2,1-.35.91-.45v.08l-.45-.23c-.2-.05-.26-.15-.15-.31A.24.24,0,0,0,68,26.6a.94.94,0,0,0-.15.53A.58.58,0,0,0,67.73,27.51Zm1,9.32a.8.8,0,0,1-.46-.16,1.15,1.15,0,0,0-.45-.15c0-.1.07.86.23,2.88a2.27,2.27,0,0,0,.53-.07.5.5,0,0,1,.45-.08c0,.3.1.46.15.46a.83.83,0,0,1,0-.69.39.39,0,0,0-.15-.53c-.1.31-.23.28-.38-.07s-.25-.2-.3.3c-.15-1.26-.18-1.89-.08-1.89-.05.1,0,.15.16.15A.21.21,0,0,0,68.72,36.83Zm.91-4.78c0-.25-.21-.33-.61-.23s-.66-.05-.6-.3c.55.05.75-.12.6-.53s-.2-.61-.15-.61,0,.11.15.16.08-.05.08-.16-.31-.3-.61-.15-.48.13-.53-.07c.61-.51,1.06-.58,1.36-.23.16-.55,0-.78-.37-.68s-.71.18-.76-.08c.2-.1.23-.15.07-.15a1.14,1.14,0,0,1,.38-.45c0,.1,0,.07.23-.08-.05,0-.05-.07,0-.07l.08-.08a2.08,2.08,0,0,1,.83,0v2.42a.7.7,0,0,0-.53.16c-.15.15-.13.3.07.45.05-.15.21-.2.46-.15v1ZM68,33.64c.2,0,.35.23.46.53-.31.11-.46.18-.46.23a1,1,0,0,0,1-.61c.25-.45.2-.78-.16-1,0,.45-.12.71-.37.76Zm.23,20c0,.1,0,.15.07.15s.1,0,.16-.15c-.21,0-.28-.08-.23-.23s.15,0,.15-.08,0-.1-.15-.15c.15.56.07.79-.23.68C68,53.67,68,53.6,68.19,53.65Zm.3-13.49c0-.35,0-.53,0-.53s-.18.08-.23.23A.3.3,0,0,0,68.49,40.16Zm.15-17.58c-.1-.35-.18-.53-.22-.53A2,2,0,0,0,68.64,22.58Zm.23-19.25c-.1-.3-.18-.45-.23-.45C68.74,3.18,68.82,3.33,68.87,3.33ZM68.64,18c.1.31.18.46.23.46C68.77,18.19,68.69,18,68.64,18ZM69,49.71c.25.75.3,1.13.15,1.13a1.14,1.14,0,0,0,.45-.68Q69.63,49.71,69,49.71ZM69.32,19c0-.3-.12-.46-.22-.46C69.15,18.87,69.22,19,69.32,19Zm.38,23.56h-.45c-.1.26.07.43.53.53V42C69.58,42.38,69.55,42.58,69.7,42.58Zm.08-7.12c-.36,0-.48.23-.38.53a.91.91,0,0,1,.23-.15.22.22,0,0,1,.15-.08ZM69.4,28a.86.86,0,0,0,.38.07v-.68l-.15.08C69.78,27.66,69.7,27.83,69.4,28Zm0,6c0,.1.13.18.38.23V34.1A.86.86,0,0,0,69.4,34Z"/><path class="cls-2" d="M116.83,129.91a5.39,5.39,0,0,1,1.41,3.42,3.59,3.59,0,0,1-3.82,3.82,4,4,0,0,1-3.42-1.81L59.32,72.8,7.24,135.34a4.23,4.23,0,0,1-3.42,1.81,3.75,3.75,0,0,1-3.82-4,4.57,4.57,0,0,1,1.41-3.21L53.89,67.37,3.42,7A4.59,4.59,0,0,1,2,3.82,3.75,3.75,0,0,1,6,0C7.64,0,8.25.6,9.25,1.81L59.32,62.34,109.39,1.81A4.21,4.21,0,0,1,112.81,0a3.59,3.59,0,0,1,3.82,3.82c0,1.21-.4,1.81-1.4,3.22L64.75,67.57Z"/></g></g></svg>